<svg width="42" height="42" viewBox="0 0 42 42" fill="none" xmlns="http://www.w3.org/2000/svg">
<path d="M24.1921 36.9163C23.4636 36.7217 22.8198 36.2916 22.3611 35.6931C21.9024 35.0945 21.6546 34.361 21.6563 33.6069V14.9658C22.1555 15.3504 22.7521 15.5881 23.3791 15.652C24.006 15.7159 24.6384 15.6036 25.2049 15.3277C25.7715 15.0518 26.2498 14.6232 26.5861 14.0902C26.9223 13.5572 27.1031 12.9409 27.1081 12.3107C27.1047 12.1389 27.0341 11.9752 26.9114 11.8549C26.7887 11.7346 26.6237 11.6672 26.4518 11.6672C26.28 11.6672 26.115 11.7347 25.9923 11.855C25.8696 11.9753 25.799 12.139 25.7956 12.3108C25.7896 12.8558 25.5689 13.3764 25.1814 13.7597C24.7939 14.1429 24.2709 14.3579 23.7259 14.3579C23.1809 14.3579 22.6579 14.1429 22.2704 13.7596C21.8829 13.3763 21.6622 12.8557 21.6563 12.3107V7.71063C21.8625 2.91761 28.8419 3.31267 28.4995 8.10801C28.4861 8.22505 28.5044 8.34351 28.5522 8.45114C28.6001 8.55877 28.6759 8.65164 28.7717 8.72014C28.8675 8.78864 28.9799 8.83027 29.0972 8.84071C29.2146 8.85116 29.3326 8.83005 29.439 8.77956C30.279 8.37238 31.2327 8.26345 32.143 8.47071C33.0532 8.67797 33.8657 9.18907 34.4466 9.91982C35.0276 10.6506 35.3423 11.5574 35.339 12.4909C35.3357 13.4244 35.0146 14.329 34.4284 15.0556C34.3615 15.1384 34.3158 15.2362 34.2951 15.3407C34.2745 15.4451 34.2796 15.553 34.3099 15.655C34.3403 15.757 34.3951 15.8501 34.4695 15.9262C34.5439 16.0024 34.6357 16.0592 34.737 16.0919C35.4351 16.3222 36.0712 16.709 36.5967 17.2229C37.1223 17.7367 37.5234 18.364 37.7693 19.0566C38.0152 19.7493 38.0994 20.489 38.0156 21.2192C37.9317 21.9495 37.6819 22.6508 37.2854 23.2697C37.1934 23.4149 37.1621 23.5903 37.1981 23.7583C37.234 23.9263 37.3345 24.0735 37.4778 24.1683C37.6211 24.2631 37.7959 24.298 37.9646 24.2653C38.1333 24.2327 38.2824 24.1352 38.3801 23.9938C38.848 23.2666 39.1572 22.4487 39.2873 21.5938C39.4174 20.7388 39.3655 19.8661 39.135 19.0325C38.9045 18.199 38.5006 17.4236 37.9498 16.7569C37.3989 16.0903 36.7135 15.5475 35.9384 15.164C38.3431 11.0656 34.3856 5.94685 29.81 7.24228C29.7119 6.24553 29.3006 5.30545 28.6351 4.55693C27.9697 3.80841 27.0842 3.28992 26.1058 3.07585C25.1273 2.86178 24.1062 2.96313 23.189 3.36537C22.2717 3.7676 21.5055 4.45005 21.0001 5.31479C18.7484 1.3935 12.6184 2.69939 12.1891 7.24036C7.62243 5.94981 3.65345 11.0692 6.06211 15.1627C5.03155 15.6645 4.1628 16.4458 3.55505 17.4176C2.94729 18.3894 2.62501 19.5126 2.625 20.6588C2.62499 21.805 2.94724 22.9281 3.55497 23.8999C4.16271 24.8717 5.03143 25.6531 6.06199 26.1549C3.97868 29.6203 6.71031 34.3674 10.7776 34.263C11.2542 34.264 11.7289 34.2016 12.189 34.0773C12.2874 35.0745 12.6992 36.0148 13.3653 36.7634C14.0314 37.5119 14.9176 38.0302 15.8966 38.2437C16.8756 38.4572 17.897 38.355 18.8143 37.9518C19.7316 37.5486 20.4976 36.865 21.0022 35.9994C21.3211 36.5605 21.7555 37.0474 22.2767 37.428C22.7979 37.8086 23.394 38.0742 24.0256 38.2071C24.1835 38.2045 24.3353 38.1451 24.453 38.0398C24.5708 37.9346 24.6468 37.7904 24.667 37.6337C24.6872 37.477 24.6503 37.3183 24.5632 37.1866C24.476 37.0548 24.3443 36.9589 24.1921 36.9163ZM20.3438 26.3517C19.755 25.8839 19.026 25.6279 18.2741 25.6249C17.3774 25.6258 16.5177 25.9824 15.8837 26.6164C15.2496 27.2504 14.8929 28.1101 14.8919 29.0067C14.8919 29.1808 14.961 29.3477 15.0841 29.4708C15.2072 29.5938 15.3741 29.663 15.5481 29.663C15.7222 29.663 15.8891 29.5938 16.0122 29.4708C16.1352 29.3477 16.2044 29.1808 16.2044 29.0067C16.2104 28.4618 16.4311 27.9411 16.8186 27.5579C17.2061 27.1746 17.7291 26.9596 18.2741 26.9596C18.8191 26.9596 19.3421 27.1746 19.7296 27.5579C20.1171 27.9411 20.3378 28.4618 20.3438 29.0068V33.6069C20.3438 34.0742 20.2484 34.5367 20.0634 34.9659C19.8784 35.3951 19.6077 35.7819 19.268 36.1029C18.9282 36.4238 18.5265 36.6719 18.0874 36.8321C17.6484 36.9923 17.1813 37.0611 16.7147 37.0344C16.2481 37.0077 15.7918 36.886 15.3739 36.6768C14.956 36.4676 14.5852 36.1752 14.2843 35.8177C13.9833 35.4601 13.7586 35.0448 13.6237 34.5974C13.4889 34.1499 13.4469 33.6796 13.5002 33.2153C13.5116 33.1228 13.5034 33.029 13.4759 32.9399C13.4485 32.8509 13.4026 32.7686 13.3411 32.6986C13.2796 32.6286 13.204 32.5724 13.1193 32.5336C13.0346 32.4949 12.9426 32.4745 12.8494 32.4738C8.78016 34.4384 4.80493 29.9267 7.57188 26.2669C7.63843 26.1838 7.68392 26.0859 7.70448 25.9815C7.72503 25.8771 7.72003 25.7692 7.68991 25.6671C7.6598 25.565 7.60545 25.4718 7.5315 25.3952C7.45755 25.3187 7.3662 25.2611 7.26522 25.2275C6.33757 24.9226 5.52494 24.342 4.9357 23.5634C4.34647 22.7847 4.00864 21.8449 3.96727 20.8693C3.9259 19.8936 4.18296 18.9286 4.70416 18.1028C5.22536 17.2771 5.98592 16.6298 6.88443 16.2475C7.36429 16.7012 7.96603 17.0051 8.61598 17.1221C9.26594 17.239 9.9359 17.164 10.5438 16.906C11.1518 16.648 11.6713 16.2184 12.0388 15.6697C12.4063 15.121 12.6058 14.4771 12.6129 13.8167C12.6116 13.6435 12.5418 13.4779 12.4189 13.356C12.296 13.234 12.1298 13.1656 11.9566 13.1656C11.7835 13.1656 11.6173 13.2341 11.4944 13.3561C11.3715 13.478 11.3018 13.6437 11.3005 13.8168C11.295 14.2467 11.1564 14.6643 10.9035 15.0121C10.6507 15.3598 10.2963 15.6205 9.889 15.7583C9.48174 15.896 9.04177 15.904 8.62978 15.7811C8.21779 15.6583 7.85408 15.4106 7.58882 15.0722C7.10588 14.4672 6.80275 13.7385 6.71403 12.9694C6.62531 12.2004 6.75456 11.4219 7.08705 10.7227C7.41953 10.0236 7.94185 9.43198 8.59441 9.01544C9.24696 8.59889 10.0035 8.37417 10.7776 8.36692C11.3958 8.3649 12.0062 8.50523 12.5614 8.77704C12.668 8.82766 12.7863 8.84877 12.9039 8.83815C13.0215 8.82754 13.1341 8.78559 13.23 8.71667C13.3259 8.64776 13.4015 8.5544 13.449 8.44632C13.4966 8.33825 13.5143 8.2194 13.5003 8.10216C13.4469 7.63785 13.4889 7.16754 13.6238 6.72004C13.7586 6.27254 13.9833 5.85728 14.2843 5.49971C14.5852 5.14214 14.956 4.84978 15.374 4.64056C15.7919 4.43133 16.2481 4.30964 16.7147 4.28295C17.1813 4.25625 17.6484 4.32511 18.0875 4.48531C18.5266 4.6455 18.9283 4.89366 19.268 5.21458C19.6078 5.5355 19.8785 5.92241 20.0634 6.35161C20.2484 6.78081 20.3438 7.24327 20.3438 7.71063V26.3517ZM28.8318 29.8328L27.5061 31.1588L28.8318 32.4847C28.8929 32.5456 28.9414 32.618 28.9746 32.6976C29.0077 32.7773 29.0248 32.8627 29.0249 32.949C29.025 33.0353 29.008 33.1207 28.9751 33.2005C28.9421 33.2802 28.8937 33.3526 28.8327 33.4137C28.7717 33.4747 28.6992 33.5231 28.6195 33.556C28.5398 33.589 28.4543 33.6059 28.368 33.6058C28.2817 33.6058 28.1963 33.5886 28.1167 33.5555C28.037 33.5224 27.9646 33.4738 27.9038 33.4127L26.1142 31.6227C26.0532 31.5618 26.0049 31.4895 25.9719 31.4099C25.9389 31.3303 25.9219 31.2449 25.9219 31.1587C25.9219 31.0726 25.9389 30.9872 25.9719 30.9076C26.0049 30.828 26.0532 30.7557 26.1142 30.6948L27.9038 28.9048C28.0268 28.7818 28.1937 28.7126 28.3678 28.7126C28.5418 28.7126 28.7087 28.7818 28.8317 28.9048C28.9548 29.0279 29.0239 29.1948 29.0239 29.3688C29.0239 29.5428 28.9548 29.7098 28.8318 29.8328ZM36.8859 31.6227L35.0963 33.4127C35.0353 33.4736 34.963 33.5219 34.8834 33.5549C34.8038 33.5879 34.7184 33.6049 34.6323 33.6049C34.5461 33.6049 34.4608 33.5879 34.3812 33.5549C34.3016 33.5219 34.2292 33.4736 34.1683 33.4127C34.1074 33.3517 34.059 33.2794 34.0261 33.1998C33.9931 33.1202 33.9761 33.0349 33.9761 32.9487C33.9761 32.8625 33.9931 32.7772 34.0261 32.6976C34.0591 32.618 34.1074 32.5456 34.1683 32.4847L35.4939 31.1588L34.1683 29.8328C34.1068 29.772 34.0578 29.6996 34.0243 29.6199C33.9909 29.5401 33.9735 29.4545 33.9732 29.368C33.9729 29.2814 33.9898 29.1957 34.0227 29.1157C34.0557 29.0358 34.1042 28.9631 34.1654 28.9019C34.2266 28.8407 34.2992 28.7922 34.3792 28.7593C34.4592 28.7263 34.5449 28.7094 34.6314 28.7097C34.7179 28.71 34.8036 28.7274 34.8833 28.7608C34.9631 28.7943 35.0355 28.8433 35.0963 28.9048L36.8859 30.6948C36.9468 30.7557 36.9952 30.828 37.0281 30.9077C37.0611 30.9873 37.0781 31.0726 37.0781 31.1588C37.0781 31.2449 37.0611 31.3303 37.0281 31.4099C36.9952 31.4895 36.9468 31.5618 36.8859 31.6227ZM32.584 29.5278L31.6894 33.1076C31.6689 33.1916 31.632 33.2707 31.5808 33.3404C31.5296 33.4101 31.4651 33.469 31.3911 33.5137C31.3171 33.5584 31.235 33.5881 31.1495 33.6009C31.064 33.6138 30.9768 33.6096 30.8929 33.5887C30.809 33.5677 30.7301 33.5304 30.6607 33.4789C30.5912 33.4274 30.5327 33.3626 30.4884 33.2884C30.444 33.2141 30.4148 33.1318 30.4024 33.0463C30.39 32.9607 30.3946 32.8735 30.416 32.7897L31.3106 29.2098C31.3554 29.0438 31.4635 28.902 31.6118 28.8149C31.76 28.7278 31.9365 28.7023 32.1033 28.744C32.2701 28.7856 32.414 28.8911 32.5039 29.0377C32.5937 29.1842 32.6225 29.3602 32.584 29.5278ZM31.5 23.2838C29.9425 23.2838 28.4199 23.7456 27.1249 24.6109C25.8299 25.4763 24.8205 26.7062 24.2245 28.1451C23.6284 29.5841 23.4725 31.1675 23.7763 32.6951C24.0802 34.2227 24.8302 35.6259 25.9315 36.7272C27.0329 37.8286 28.4361 38.5786 29.9637 38.8824C31.4913 39.1863 33.0747 39.0304 34.5136 38.4343C35.9526 37.8383 37.1825 36.8289 38.0478 35.5339C38.9132 34.2388 39.375 32.7163 39.375 31.1588C39.3727 29.0709 38.5422 27.0692 37.0659 25.5929C35.5896 24.1165 33.5879 23.2861 31.5 23.2838ZM31.5 37.7213C30.2021 37.7213 28.9333 37.3364 27.8541 36.6153C26.7749 35.8942 25.9338 34.8693 25.4371 33.6701C24.9404 32.471 24.8104 31.1515 25.0636 29.8785C25.3168 28.6055 25.9418 27.4362 26.8596 26.5184C27.7774 25.6006 28.9467 24.9756 30.2197 24.7224C31.4927 24.4691 32.8122 24.5991 34.0114 25.0958C35.2105 25.5925 36.2354 26.4336 36.9565 27.5128C37.6776 28.592 38.0625 29.8608 38.0625 31.1588C38.0605 32.8986 37.3685 34.5667 36.1382 35.797C34.9079 37.0272 33.2399 37.7193 31.5 37.7213Z" fill="url(#paint0_linear_4842_4083)"/>
<defs>
<linearGradient id="paint0_linear_4842_4083" x1="3.0625" y1="31.7076" x2="38.8627" y2="31.632" gradientUnits="userSpaceOnUse">
<stop stop-color="#434AE4"/>
<stop offset="0.5" stop-color="#5441B7"/>
<stop offset="1" stop-color="#E86343"/>
</linearGradient>
</defs>
</svg>
