<svg width="42" height="42" viewBox="0 0 42 42" fill="none" xmlns="http://www.w3.org/2000/svg">
<path d="M23.6973 14.5696C27.2366 9.47877 21.7089 5.4617 17.9607 10.4014C14.4142 15.5157 19.9718 19.4954 23.6973 14.5696ZM20.6006 15.3681C20.3215 15.5018 20.0115 15.5576 19.7033 15.5296C19.3952 15.5015 19.1003 15.3907 18.85 15.2088C18.5997 15.0269 18.4031 14.7808 18.2813 14.4964C18.1594 14.212 18.1166 13.8999 18.1575 13.5932C18.2113 12.7211 18.5128 11.8824 19.0264 11.1757C19.5401 10.4689 20.2447 9.92322 21.0575 9.60277C23.8198 8.72918 24.0322 12.1225 22.6359 13.798C22.1357 14.5188 21.4247 15.0672 20.6006 15.3681Z" fill="url(#paint0_linear_4843_4097)"/>
<path d="M22.9436 21.9008L26.6186 16.841C32.3806 8.90683 27.7605 3.32863 27.708 3.27616C27.6424 3.1969 27.5592 3.134 27.4651 3.09241C27.3995 3.06616 20.6597 0.388664 14.8978 8.32283L11.2227 13.3826L7.96772 13.3563C7.51285 13.3461 7.06246 13.4479 6.6562 13.6528C6.24994 13.8576 5.90029 14.1592 5.63803 14.531L2.75046 18.5013C2.68403 18.595 2.64302 18.7044 2.63144 18.8186C2.61986 18.9329 2.6381 19.0482 2.68438 19.1533C2.73066 19.2584 2.8034 19.3498 2.8955 19.4184C2.98761 19.487 3.09593 19.5306 3.20989 19.5448L7.43614 20.0042L8.53864 20.8114L7.96114 21.612C7.91053 21.6813 7.8741 21.76 7.85396 21.8434C7.83382 21.9268 7.83036 22.0134 7.84377 22.0981C7.85719 22.1829 7.88722 22.2642 7.93214 22.3373C7.97705 22.4104 8.03597 22.4739 8.10551 22.5242L15.2128 27.689C15.9416 28.1821 16.3464 27.1899 16.7091 26.7439L17.8182 27.5446L19.5638 31.4231C19.6119 31.5268 19.6861 31.6163 19.7792 31.6828C19.8722 31.7493 19.9809 31.7905 20.0947 31.8024C20.2084 31.8143 20.3233 31.7965 20.4281 31.7507C20.5329 31.7049 20.624 31.6327 20.6926 31.5412L23.5735 27.5709C23.8422 27.2033 24.0187 26.7767 24.0884 26.3268C24.1581 25.8769 24.1188 25.4168 23.9739 24.9852L22.9436 21.9008ZM22.517 26.7965L20.2923 29.8547L19.0979 27.1968L20.8961 24.7162C20.9952 24.5751 21.0348 24.4006 21.0063 24.2305C20.9777 24.0604 20.8833 23.9084 20.7435 23.8075C20.6036 23.7065 20.4297 23.6647 20.2592 23.691C20.0888 23.7174 19.9356 23.8099 19.8329 23.9484L18.1988 26.1994C17.914 26.0385 16.8884 25.1152 16.5647 25.169C16.0835 25.1226 15.71 25.9529 15.449 26.2453L9.40491 21.8484C9.71546 21.3639 10.5374 20.6731 9.84456 20.1355L8.06612 18.8427C8.07093 18.6648 4.63726 18.4139 4.47643 18.3636L6.6946 15.3055C6.83948 15.1075 7.02918 14.9466 7.24817 14.836C7.46717 14.7253 7.70924 14.6681 7.9546 14.6689L10.2646 14.6886L8.80772 16.6968C8.70935 16.8379 8.67022 17.012 8.69871 17.1817C8.7272 17.3514 8.82106 17.5032 8.96015 17.6045C9.09924 17.7058 9.27248 17.7486 9.44274 17.7237C9.61299 17.6987 9.7667 17.6081 9.8709 17.4711L15.9544 9.09718C20.686 2.58706 25.8377 3.92585 26.8089 4.25398C27.3864 5.04805 30.2608 9.59594 25.5555 16.0732L21.6835 21.402C21.6225 21.4862 21.5824 21.5836 21.5664 21.6863C21.5504 21.789 21.5591 21.894 21.5917 21.9927L22.727 25.4052C22.8044 25.6372 22.8257 25.8843 22.7892 26.1261C22.7527 26.3679 22.6595 26.5977 22.517 26.7965Z" fill="url(#paint1_linear_4843_4097)"/>
<path d="M10.1273 32.8196C10.268 32.9218 10.4437 32.964 10.6155 32.9368C10.7874 32.9096 10.9414 32.8152 11.0437 32.6744L13.6258 29.1207C13.6765 29.0511 13.7129 28.9721 13.7331 28.8883C13.7532 28.8045 13.7566 28.7176 13.7432 28.6325C13.7297 28.5474 13.6997 28.4658 13.6547 28.3923C13.6097 28.3188 13.5507 28.2549 13.481 28.2043C13.4113 28.1536 13.3323 28.1172 13.2485 28.097C13.1648 28.0769 13.0779 28.0735 12.9928 28.0869C12.9076 28.1003 12.826 28.1304 12.7526 28.1754C12.6791 28.2204 12.6152 28.2794 12.5645 28.3491L9.98242 31.9028C9.88006 32.0436 9.83781 32.2192 9.86498 32.3912C9.89214 32.5631 9.98648 32.7172 10.1273 32.8196Z" fill="url(#paint2_linear_4843_4097)"/>
<path d="M10.7873 27.0585L9.49653 28.8353C9.3942 28.976 9.35198 29.1516 9.37914 29.3235C9.4063 29.4954 9.50063 29.6494 9.64136 29.7517C9.7821 29.8541 9.95772 29.8963 10.1296 29.8691C10.3015 29.842 10.4555 29.7476 10.5578 29.6069L11.8486 27.8301C11.9467 27.6892 11.9858 27.5154 11.9573 27.346C11.9288 27.1766 11.835 27.0252 11.6961 26.9242C11.5571 26.8232 11.3842 26.7806 11.2142 26.8058C11.0443 26.8309 10.891 26.9216 10.7873 27.0585Z" fill="url(#paint3_linear_4843_4097)"/>
<path d="M9.92719 25.6222C9.85751 25.5715 9.77852 25.535 9.69472 25.5149C9.61093 25.4947 9.52399 25.4913 9.43886 25.5048C9.35374 25.5183 9.27211 25.5484 9.19865 25.5935C9.12519 25.6385 9.06133 25.6976 9.01074 25.7674L7.72003 27.5442C7.66937 27.6139 7.63292 27.6929 7.61278 27.7767C7.59264 27.8604 7.5892 27.9474 7.60265 28.0325C7.62981 28.2043 7.72413 28.3584 7.86487 28.4607C8.00561 28.563 8.18123 28.6052 8.3531 28.5781C8.52496 28.5509 8.679 28.4566 8.78133 28.3159L10.072 26.539C10.1744 26.3982 10.2166 26.2226 10.1895 26.0506C10.1623 25.8787 10.068 25.7246 9.92719 25.6222Z" fill="url(#paint4_linear_4843_4097)"/>
<path d="M8.15007 24.3315C8.08041 24.2807 8.00141 24.2442 7.91761 24.224C7.83381 24.2038 7.74686 24.2004 7.66172 24.2139C7.57659 24.2274 7.49496 24.2575 7.42149 24.3026C7.34803 24.3477 7.28419 24.4068 7.23362 24.4766L4.65216 28.03C4.6015 28.0997 4.56505 28.1786 4.54491 28.2624C4.52477 28.3462 4.52133 28.4331 4.53478 28.5182C4.54823 28.6033 4.57831 28.6849 4.6233 28.7584C4.66829 28.8319 4.72732 28.8958 4.797 28.9464C4.86669 28.9971 4.94567 29.0335 5.02944 29.0537C5.11321 29.0738 5.20012 29.0773 5.28523 29.0638C5.37033 29.0504 5.45194 29.0203 5.52542 28.9753C5.5989 28.9303 5.66279 28.8713 5.71345 28.8016L8.29495 25.2482C8.39731 25.1075 8.43955 24.9318 8.41238 24.7598C8.38521 24.5879 8.29085 24.4338 8.15007 24.3315Z" fill="url(#paint5_linear_4843_4097)"/>
<path d="M15.0953 35.4255H9.84521C9.75903 35.4255 9.67368 35.4425 9.59405 35.4754C9.51442 35.5084 9.44207 35.5568 9.38113 35.6177C9.32019 35.6786 9.27185 35.751 9.23888 35.8306C9.2059 35.9103 9.18894 35.9956 9.18896 36.0818V38.7068C9.18894 38.793 9.2059 38.8784 9.23888 38.958C9.27185 39.0376 9.32019 39.11 9.38113 39.1709C9.44207 39.2319 9.51442 39.2802 9.59405 39.3132C9.67368 39.3461 9.75903 39.3631 9.84521 39.3631H15.0953C15.1815 39.3631 15.2668 39.3461 15.3464 39.3132C15.4261 39.2802 15.4984 39.2319 15.5594 39.1709C15.6203 39.11 15.6687 39.0376 15.7016 38.958C15.7346 38.8784 15.7516 38.793 15.7515 38.7068V36.0818C15.7516 35.9956 15.7346 35.9103 15.7016 35.8306C15.6687 35.751 15.6203 35.6786 15.5594 35.6177C15.4984 35.5568 15.4261 35.5084 15.3464 35.4754C15.2668 35.4425 15.1815 35.4255 15.0953 35.4255ZM14.439 38.0506H10.5015V36.7381H14.439L14.439 38.0506Z" fill="url(#paint6_linear_4843_4097)"/>
<path d="M22.9698 33.4569H17.7197C17.6335 33.4569 17.5482 33.4738 17.4686 33.5068C17.3889 33.5398 17.3166 33.5881 17.2556 33.6491C17.1947 33.71 17.1464 33.7824 17.1134 33.862C17.0804 33.9416 17.0635 34.027 17.0635 34.1132V38.7067C17.0635 38.7928 17.0804 38.8782 17.1134 38.9578C17.1464 39.0374 17.1947 39.1098 17.2556 39.1707C17.3166 39.2317 17.3889 39.28 17.4686 39.313C17.5482 39.346 17.6335 39.3629 17.7197 39.3629H22.9698C23.056 39.3629 23.1413 39.346 23.221 39.313C23.3006 39.28 23.3729 39.2317 23.4339 39.1707C23.4948 39.1098 23.5432 39.0374 23.5761 38.9578C23.6091 38.8782 23.6261 38.7928 23.6261 38.7067V34.1132C23.6261 34.027 23.6091 33.9416 23.5761 33.862C23.5432 33.7824 23.4948 33.71 23.4339 33.6491C23.373 33.5881 23.3006 33.5398 23.221 33.5068C23.1413 33.4738 23.056 33.4569 22.9698 33.4569ZM22.3136 38.0504H18.376V34.7694H22.3135L22.3136 38.0504Z" fill="url(#paint7_linear_4843_4097)"/>
<path d="M30.8443 28.8632H25.5948C25.5087 28.8631 25.4233 28.8801 25.3437 28.9131C25.2641 28.946 25.1917 28.9944 25.1308 29.0553C25.0698 29.1163 25.0215 29.1886 24.9885 29.2682C24.9555 29.3479 24.9386 29.4332 24.9386 29.5194V38.7067C24.9386 38.7929 24.9555 38.8782 24.9885 38.9579C25.0215 39.0375 25.0698 39.1098 25.1308 39.1708C25.1917 39.2317 25.2641 39.2801 25.3437 39.313C25.4233 39.346 25.5087 39.363 25.5948 39.3629H30.8443C30.9305 39.363 31.0158 39.346 31.0954 39.313C31.1751 39.2801 31.2474 39.2317 31.3084 39.1708C31.3693 39.1098 31.4176 39.0375 31.4506 38.9579C31.4836 38.8782 31.5006 38.7929 31.5005 38.7067V29.5194C31.5006 29.4332 31.4836 29.3479 31.4506 29.2682C31.4176 29.1886 31.3693 29.1163 31.3084 29.0553C31.2474 28.9944 31.1751 28.946 31.0954 28.9131C31.0158 28.8801 30.9305 28.8631 30.8443 28.8632ZM30.188 38.0505H26.2511V30.1757H30.188L30.188 38.0505Z" fill="url(#paint8_linear_4843_4097)"/>
<path d="M38.7187 20.3324H33.4692C33.3831 20.3324 33.2977 20.3493 33.2181 20.3823C33.1384 20.4153 33.0661 20.4636 33.0052 20.5246C32.9442 20.5855 32.8959 20.6579 32.8629 20.7375C32.8299 20.8171 32.813 20.9025 32.813 20.9886V38.7067C32.813 38.7929 32.8299 38.8782 32.8629 38.9579C32.8959 39.0375 32.9442 39.1098 33.0052 39.1708C33.0661 39.2317 33.1384 39.2801 33.2181 39.313C33.2977 39.346 33.3831 39.363 33.4692 39.3629H38.7187C38.8049 39.363 38.8902 39.346 38.9698 39.313C39.0495 39.2801 39.1218 39.2317 39.1828 39.1708C39.2437 39.1098 39.292 39.0375 39.325 38.9579C39.358 38.8782 39.375 38.7929 39.3749 38.7067V20.9887C39.375 20.9025 39.358 20.8171 39.325 20.7375C39.2921 20.6579 39.2437 20.5855 39.1828 20.5246C39.1218 20.4636 39.0495 20.4153 38.9698 20.3823C38.8902 20.3493 38.8049 20.3324 38.7187 20.3324ZM38.0624 38.0504H34.1255V21.6449H38.0624V38.0504Z" fill="url(#paint9_linear_4843_4097)"/>
<defs>
<linearGradient id="paint0_linear_4843_4097" x1="16.9203" y1="15.0572" x2="24.7212" y2="15.0423" gradientUnits="userSpaceOnUse">
<stop stop-color="#434AE4"/>
<stop offset="0.5" stop-color="#5441B7"/>
<stop offset="1" stop-color="#E86343"/>
</linearGradient>
<linearGradient id="paint1_linear_4843_4097" x1="2.94808" y1="25.881" x2="29.1355" y2="25.831" gradientUnits="userSpaceOnUse">
<stop stop-color="#434AE4"/>
<stop offset="0.5" stop-color="#5441B7"/>
<stop offset="1" stop-color="#E86343"/>
</linearGradient>
<linearGradient id="paint2_linear_4843_4097" x1="9.90329" y1="31.9565" x2="13.697" y2="31.9502" gradientUnits="userSpaceOnUse">
<stop stop-color="#434AE4"/>
<stop offset="0.5" stop-color="#5441B7"/>
<stop offset="1" stop-color="#E86343"/>
</linearGradient>
<linearGradient id="paint3_linear_4843_4097" x1="9.40199" y1="29.2519" x2="11.9302" y2="29.2475" gradientUnits="userSpaceOnUse">
<stop stop-color="#434AE4"/>
<stop offset="0.5" stop-color="#5441B7"/>
<stop offset="1" stop-color="#E86343"/>
</linearGradient>
<linearGradient id="paint4_linear_4843_4097" x1="7.62559" y1="27.9586" x2="10.1612" y2="27.9542" gradientUnits="userSpaceOnUse">
<stop stop-color="#434AE4"/>
<stop offset="0.5" stop-color="#5441B7"/>
<stop offset="1" stop-color="#E86343"/>
</linearGradient>
<linearGradient id="paint5_linear_4843_4097" x1="4.57309" y1="28.0834" x2="8.36615" y2="28.0772" gradientUnits="userSpaceOnUse">
<stop stop-color="#434AE4"/>
<stop offset="0.5" stop-color="#5441B7"/>
<stop offset="1" stop-color="#E86343"/>
</linearGradient>
<linearGradient id="paint6_linear_4843_4097" x1="9.26709" y1="38.5633" x2="15.66" y2="38.5412" gradientUnits="userSpaceOnUse">
<stop stop-color="#434AE4"/>
<stop offset="0.5" stop-color="#5441B7"/>
<stop offset="1" stop-color="#E86343"/>
</linearGradient>
<linearGradient id="paint7_linear_4843_4097" x1="17.1416" y1="38.1632" x2="23.5346" y2="38.1485" gradientUnits="userSpaceOnUse">
<stop stop-color="#434AE4"/>
<stop offset="0.5" stop-color="#5441B7"/>
<stop offset="1" stop-color="#E86343"/>
</linearGradient>
<linearGradient id="paint8_linear_4843_4097" x1="25.0167" y1="37.2302" x2="31.4091" y2="37.2219" gradientUnits="userSpaceOnUse">
<stop stop-color="#434AE4"/>
<stop offset="0.5" stop-color="#5441B7"/>
<stop offset="1" stop-color="#E86343"/>
</linearGradient>
<linearGradient id="paint9_linear_4843_4097" x1="32.8911" y1="35.4974" x2="39.2835" y2="35.4928" gradientUnits="userSpaceOnUse">
<stop stop-color="#434AE4"/>
<stop offset="0.5" stop-color="#5441B7"/>
<stop offset="1" stop-color="#E86343"/>
</linearGradient>
</defs>
</svg>
