<svg width="42" height="42" viewBox="0 0 42 42" fill="none" xmlns="http://www.w3.org/2000/svg">
<path fill-rule="evenodd" clip-rule="evenodd" d="M12.734 40.1504C12.4258 40.1504 12.176 39.9006 12.176 39.5925C12.176 39.2843 12.4258 39.0345 12.734 39.0345H13.7196C14.0277 39.0345 14.2775 39.2843 14.2775 39.5925C14.2775 39.9006 14.0277 40.1504 13.7196 40.1504H12.734ZM10.7883 24.8988C10.0927 24.9053 9.37552 24.9361 8.68416 24.915C4.59178 24.79 1.3125 21.433 1.3125 17.3103C1.3125 13.3007 4.42124 9.99542 8.3872 9.72061C8.74675 5.74956 12.8764 3.27829 16.545 4.81022C20.0046 0.326887 26.8801 1.09445 29.37 6.03954C35.2163 4.91317 40.6875 9.40176 40.6875 15.3937C40.6875 17.6402 39.901 19.7303 38.5723 21.3768C36.4658 23.9869 34.3762 24.6814 31.2117 24.7107V25.8994C31.2117 26.2075 30.9619 26.4573 30.6538 26.4573H29.5055C29.3003 27.2537 28.988 28.0051 28.5734 28.7082L29.3852 29.52C29.6029 29.7379 29.6029 30.0911 29.3852 30.309L27.0564 32.6378C26.8385 32.8556 26.4853 32.8556 26.2674 32.6378L25.4555 31.8258C24.7524 32.2405 24.0012 32.5529 23.2048 32.758V33.9064C23.2048 34.2145 22.955 34.4644 22.6468 34.4644H19.3534C19.0452 34.4644 18.7954 34.2146 18.7954 33.9064V32.7579C17.9991 32.5527 17.2477 32.2403 16.5447 31.8257L15.7327 32.6378C15.5148 32.8556 15.1616 32.8556 14.9437 32.6378L12.6149 30.309C12.3971 30.0911 12.3971 29.7379 12.6149 29.52L13.427 28.7079C13.0124 28.0048 12.7 27.2537 12.4948 26.4573H11.3462C11.0381 26.4573 10.7883 26.2075 10.7883 25.8994L10.7883 24.8988ZM31.2117 23.5991C34.0434 23.5728 35.864 22.9889 37.7431 20.6313C40.4074 17.2882 40.1322 12.4711 37.1088 9.4477C35.0417 7.38059 32.0448 6.53682 29.2067 7.2121C28.9404 7.2888 28.6525 7.15648 28.5413 6.89497C26.4878 2.08851 20.1622 1.63955 17.1797 5.83307C17.0216 6.05431 16.721 6.13191 16.4722 6.0037C14.6184 5.04541 12.357 5.39724 10.8818 6.87249C10.0149 7.73931 9.47879 8.93697 9.47879 10.2598C9.47879 10.5679 9.22901 10.8177 8.92082 10.8177C5.33498 10.8177 2.42837 13.7243 2.42837 17.3101C2.42837 20.8207 5.21423 23.6803 8.69589 23.7987C9.38487 23.8221 10.0955 23.7935 10.7883 23.7869V22.6058C10.7883 22.2976 11.038 22.0479 11.3462 22.0479H12.4944C12.6996 21.2514 13.0119 20.5 13.4265 19.7969L12.6148 18.9851C12.397 18.7673 12.397 18.414 12.6148 18.1962L14.9436 15.8674C15.1614 15.6496 15.5147 15.6496 15.7325 15.8674L16.5444 16.6793C17.2474 16.2647 17.9989 15.9523 18.7952 15.7471V14.5988C18.7952 14.2906 19.045 14.0409 19.3532 14.0409H22.6466C22.9547 14.0409 23.2046 14.2907 23.2046 14.5988V15.747C24.001 15.9522 24.7524 16.2645 25.4555 16.6792L26.2673 15.8674C26.4852 15.6496 26.8384 15.6496 27.0563 15.8674L29.3851 18.1962C29.6029 18.414 29.6029 18.7673 29.3851 18.9851L28.5731 19.7971C28.9879 20.5003 29.3002 21.2513 29.5054 22.0479H30.6538C30.962 22.0479 31.2117 22.2976 31.2117 22.6058V23.5991H31.2117ZM23.9351 17.1622C23.499 16.9814 23.0471 16.8403 22.5841 16.7431C22.3054 16.7121 22.0887 16.4757 22.0887 16.1887V15.1568H19.9112C19.9112 15.5027 19.923 15.8735 19.9084 16.2141C19.8973 16.4634 19.7179 16.6824 19.4622 16.7336C18.9832 16.8309 18.5158 16.9754 18.0653 17.1622C17.6201 17.3467 17.1965 17.5716 16.7993 17.8319C16.5807 17.9976 16.2679 17.9807 16.0684 17.7813L15.3381 17.051L13.7982 18.5909C14.025 18.8176 14.4081 19.1432 14.5858 19.3901C14.7171 19.5725 14.7296 19.8244 14.5982 20.0229C14.3297 20.4284 14.0985 20.8617 13.9095 21.3177C13.7288 21.7538 13.5876 22.2056 13.4904 22.6686C13.4594 22.9473 13.223 23.164 12.936 23.164H11.9041V25.3415C12.2438 25.3415 12.6535 25.3184 12.9823 25.3456C13.2229 25.3655 13.4313 25.5419 13.481 25.7905C13.5784 26.2694 13.7229 26.7368 13.9096 27.1873C14.0942 27.6325 14.319 28.056 14.5794 28.4532C14.7451 28.6718 14.7282 28.9847 14.5288 29.1841L13.7982 29.9147L15.3381 31.4545C15.5734 31.2193 15.8663 30.8818 16.1167 30.6826C16.3003 30.5365 16.5642 30.5178 16.7705 30.6543C17.1759 30.9227 17.6092 31.1541 18.0653 31.3432C18.5013 31.5239 18.9531 31.665 19.4159 31.7622C19.6946 31.7934 19.9112 32.0298 19.9112 32.3167V33.3486H22.0887C22.0887 33.0017 22.0826 32.6437 22.0912 32.3004C22.0984 32.0474 22.2789 31.8236 22.5377 31.7718C23.0167 31.6746 23.484 31.5301 23.9345 31.3434C24.3798 31.1588 24.8034 30.934 25.2006 30.6736C25.4192 30.5079 25.7321 30.5247 25.9315 30.7241L26.6618 31.4545L28.2017 29.9147C27.9658 29.6787 27.6342 29.3897 27.4323 29.1392C27.2843 28.9555 27.2645 28.6899 27.4017 28.4826C27.6702 28.0772 27.9015 27.6439 28.0905 27.1879C28.2712 26.7518 28.4123 26.2999 28.5095 25.837C28.5406 25.5583 28.7769 25.3416 29.0639 25.3416H30.0958V23.164C29.7486 23.164 29.3951 23.1689 29.0509 23.1616C28.7965 23.1559 28.571 22.9749 28.519 22.7149C28.4217 22.2359 28.2772 21.7685 28.0905 21.318C27.9059 20.8728 27.681 20.4492 27.4207 20.052C27.255 19.8334 27.2719 19.5206 27.4713 19.3211L28.2016 18.5907L26.6618 17.051C26.4203 17.2925 26.1552 17.5859 25.9034 17.8062C25.7193 17.9671 25.4436 17.9925 25.2299 17.851C24.8244 17.5825 24.3911 17.3512 23.9351 17.1622ZM21 19.5575C18.407 19.5575 16.3047 21.6598 16.3047 24.2528C16.3047 26.8458 18.407 28.948 21 28.948C23.593 28.948 25.6953 26.8457 25.6953 24.2527C25.6953 21.6597 23.593 19.5575 21 19.5575ZM23.5311 21.7216C22.1333 20.3238 19.8667 20.3238 18.4689 21.7216C17.0711 23.1194 17.0711 25.386 18.4689 26.7838C19.8667 28.1816 22.1333 28.1816 23.5311 26.7838C24.9288 25.386 24.9288 23.1194 23.5311 21.7216ZM33.0971 11.7061C33.4293 11.7618 33.7349 11.8565 34.0383 11.9965C34.3175 12.1253 34.6484 12.0033 34.7771 11.7241C34.9059 11.4448 34.784 11.114 34.5047 10.9852C34.1211 10.808 33.7018 10.6782 33.2802 10.6076C32.9769 10.5571 32.6899 10.762 32.6394 11.0653C32.5888 11.3686 32.7938 11.6556 33.0971 11.7061ZM35.3081 12.9663C36.007 13.7945 36.3105 14.8748 36.1287 15.9616C36.0782 16.265 36.2831 16.5518 36.5863 16.6024C36.8897 16.6529 37.1766 16.448 37.2271 16.1447C37.4621 14.7391 37.062 13.3169 36.158 12.2471C35.9594 12.0124 35.6081 11.9831 35.3734 12.1817C35.1387 12.3803 35.1095 12.7316 35.3081 12.9663ZM2.90038 36.0903C2.59227 36.0903 2.3424 35.8405 2.3424 35.5323C2.3424 35.2242 2.59219 34.9744 2.90038 34.9744H4.59687C4.90498 34.9744 5.15484 35.2242 5.15484 35.5323C5.15484 35.8405 4.90506 36.0903 4.59687 36.0903H2.90038ZM6.71836 36.0903H9.07405C9.38216 36.0903 9.63195 35.8405 9.63195 35.5323V26.745C9.63195 26.4369 9.38216 26.1871 9.07405 26.1871C8.76586 26.1871 8.51616 26.4369 8.51616 26.745V34.9744H6.71836C6.41025 34.9744 6.16046 35.2242 6.16046 35.5323C6.16038 35.8405 6.41017 36.0903 6.71836 36.0903ZM39.0996 34.7574C39.4077 34.7574 39.6576 35.0072 39.6576 35.3153C39.6576 35.6234 39.4078 35.8732 39.0996 35.8732H37.4031C37.095 35.8732 36.8452 35.6235 36.8452 35.3153C36.8452 35.0072 37.0949 34.7574 37.4031 34.7574H39.0996ZM35.2816 34.7574H33.4838V26.5279C33.4838 26.2198 33.2341 25.97 32.9259 25.97C32.6178 25.97 32.368 26.2198 32.368 26.5279V35.3153C32.368 35.6234 32.6178 35.8732 32.9259 35.8732H35.2816C35.5898 35.8732 35.8396 35.6235 35.8396 35.3153C35.8396 35.0072 35.5898 34.7574 35.2816 34.7574ZM29.266 39.0345C29.5742 39.0345 29.824 39.2843 29.824 39.5925C29.824 39.9006 29.5742 40.1504 29.266 40.1504H28.2804C27.9723 40.1504 27.7225 39.9006 27.7225 39.5925C27.7225 39.2843 27.9723 39.0345 28.2804 39.0345H29.266ZM26.2145 39.0345H25.4038V34.8149C25.4038 34.5068 25.154 34.2569 24.8459 34.2569C24.5378 34.2569 24.2879 34.5067 24.2879 34.8149V39.5925C24.2879 39.9006 24.5377 40.1504 24.8459 40.1504H26.2145C26.5226 40.1504 26.7724 39.9006 26.7724 39.5925C26.7724 39.2843 26.5226 39.0345 26.2145 39.0345ZM15.7855 40.1504H17.1541C17.4622 40.1504 17.712 39.9006 17.712 39.5925V34.8149C17.712 34.5068 17.4622 34.2569 17.1541 34.2569C16.846 34.2569 16.5962 34.5067 16.5962 34.8149V39.0345H15.7856C15.4775 39.0345 15.2277 39.2843 15.2277 39.5925C15.2276 39.9005 15.4774 40.1504 15.7855 40.1504Z" fill="url(#paint0_linear_4841_4021)"/>
<defs>
<linearGradient id="paint0_linear_4841_4021" x1="1.78125" y1="32.3706" x2="40.1386" y2="32.2889" gradientUnits="userSpaceOnUse">
<stop stop-color="#434AE4"/>
<stop offset="0.5" stop-color="#5441B7"/>
<stop offset="1" stop-color="#E86343"/>
</linearGradient>
</defs>
</svg>
