<svg xmlns="http://www.w3.org/2000/svg" width="140" height="127" fill="none" viewBox="0 0 140 127"><path fill="#f5f8ff" d="M90.632 11.25c8.823 12.687-3.987 11.694 17.774 7.668 23.435-4.336 29.811 12.926 25.372 33.873-4.115 19.418-21.905 15.283-12.888 33.824 14.998 30.841.441 40.634-39.938 39.261-18.895-.643-33.153 1.002-45.176-1.969-10.506-2.596-21.448-8.328-24.542-16.117-5.884-14.814 1.419-18.66 6.036-28.57 4.604-9.879.789-10.025-3.534-24.577C4.27 22.77 36.908 25.6 43.305 16.543c16.64-23.56 37.94-18.789 47.327-5.293"/><path fill="#e1ecfa" d="M91.829 98.878c0 .24-.195.435-.435.435H49.587c-3.101 0-5.615-2.078-5.615-4.641v-1.514c0-2.563 2.514-4.642 5.615-4.642h41.807c.24 0 .435.195.435.435v.08a.435.435 0 0 1-.432.434l-.546.004-.03 8.975h.573c.24 0 .435.194.435.434"/><path fill="#e1ecfa" d="m62.817 89.432 28.032.037-.03 8.974H62.527a2.635 2.635 0 0 1-2.635-2.634v-3.453a2.925 2.925 0 0 1 2.925-2.924M52.772 94.195v-.56c0-.365.295-.66.659-.66H57.2c.364 0 .659.295.659.66v.56a.66.66 0 0 1-.66.658h-3.768a.66.66 0 0 1-.659-.658M93.2 109.754a.435.435 0 0 1-.435.435H50.958c-3.1 0-5.614-2.078-5.614-4.641v-1.514c0-2.563 2.513-4.641 5.614-4.641h41.807c.24 0 .435.194.435.435v.078a.435.435 0 0 1-.431.435l-.546.004-.031 8.975h.573a.434.434 0 0 1 .435.434"/><path fill="#e1ecfa" d="m64.19 100.307 28.032.038-.03 8.974H63.899a2.634 2.634 0 0 1-2.634-2.634v-3.453a2.925 2.925 0 0 1 2.925-2.925M54.144 105.071v-.561c0-.364.295-.659.659-.659h3.769c.364 0 .659.295.659.659v.561a.66.66 0 0 1-.659.659h-3.769a.66.66 0 0 1-.659-.659M107.952 125.105a.636.636 0 0 1-.636.636H46.231c-4.53 0-8.204-3.036-8.204-6.782v-2.212c0-3.745 3.673-6.782 8.204-6.782h61.085c.352 0 .636.285.636.636v.115a.636.636 0 0 1-.631.635l-.798.006-.045 13.113h.838c.351 0 .636.284.636.635"/><path fill="#e1ecfa" d="m65.288 111.303 41.236.054-.045 13.113H65.496a4.204 4.204 0 0 1-4.205-4.204v-4.967a3.996 3.996 0 0 1 3.997-3.996M55.01 122.074h-.818a.963.963 0 0 1-.963-.963v-5.507c0-.532.431-.963.963-.963h.819c.532 0 .963.431.963.963v5.507a.963.963 0 0 1-.963.963M50.806 122.107h-.819a.963.963 0 0 1-.963-.963v-5.507c0-.531.431-.963.963-.963h.819c.532 0 .963.432.963.963v5.507a.963.963 0 0 1-.963.963"/><path fill="#e1ecfa" d="m112.123 125.458-42.831-13.627a4.776 4.776 0 0 1-3.104-6L84.99 46.735a4.777 4.777 0 0 1 6-3.104l13.34 4.245 7.914 4.123 4.934-.036 16.644 5.296a4.776 4.776 0 0 1 3.103 6l-18.802 59.096a4.776 4.776 0 0 1-6 3.103"/><path fill="#fff" d="m112.073 121.127-40.235-12.802A2.825 2.825 0 0 1 70 104.776l17.347-54.523a2.826 2.826 0 0 1 3.55-1.837l40.235 12.802a2.826 2.826 0 0 1 1.836 3.55l-17.347 54.522a2.825 2.825 0 0 1-3.549 1.837"/><path fill="#e1ecfa" d="m121.485 51.81-3.818-1.214a5.06 5.06 0 0 0-9.644-3.068l-3.756-1.195a1.81 1.81 0 0 0-2.275 1.176l-.66 2.076a3.99 3.99 0 0 0 2.592 5.01l13.005 4.137a3.99 3.99 0 0 0 5.011-2.591l.68-2.138a1.746 1.746 0 0 0-1.135-2.192m-7.94-4.947a2.308 2.308 0 1 1-1.401 4.398 2.308 2.308 0 0 1 1.401-4.398M125.283 69.658l-34.49-10.973a.97.97 0 1 1 .589-1.85l34.49 10.973a.97.97 0 1 1-.589 1.85M123.863 74.126l-34.49-10.973a.97.97 0 1 1 .589-1.85l34.49 10.974a.971.971 0 1 1-.589 1.85M122.441 78.595 87.951 67.62a.97.97 0 1 1 .588-1.85l34.49 10.974a.97.97 0 1 1-.588 1.85M121.019 83.062 86.529 72.09a.97.97 0 1 1 .588-1.85l34.49 10.973a.97.97 0 1 1-.588 1.85M119.597 87.53l-34.49-10.973a.97.97 0 1 1 .588-1.85l34.491 10.974a.97.97 0 1 1-.589 1.85M118.177 91.999l-34.49-10.973a.97.97 0 1 1 .588-1.85l34.49 10.973a.97.97 0 1 1-.588 1.85M116.754 96.467l-34.49-10.974a.97.97 0 1 1 .589-1.85l34.49 10.974a.97.97 0 1 1-.589 1.85M115.332 100.935l-34.49-10.973a.97.97 0 1 1 .589-1.85l34.49 10.973a.97.97 0 1 1-.589 1.85M113.936 105.323 79.446 94.35a.97.97 0 1 1 .588-1.85l34.49 10.973a.97.97 0 1 1-.588 1.85M112.515 109.791l-34.49-10.973a.97.97 0 1 1 .588-1.85l34.491 10.974a.97.97 0 1 1-.589 1.849M111.093 114.26l-34.49-10.973a.971.971 0 0 1 .589-1.85l34.49 10.973a.971.971 0 1 1-.589 1.85M22.903 125.603s-4.648 1.569-5.295-1.92c-.374-2.024-3.554-.331-4.47-1.626-.918-1.295.049-3.104-1.655-3.861s-3.166-2.06-2.406-4.303c.76-2.244-1.802-3.22.094-4.778s4.317.806 4.902 3.639 3.446 1.45 3.708 4.221 3.352 1.679 3.627 3.949c.276 2.27 3.698 1.872 1.495 4.679"/><path fill="#e1ecfa" d="M19.982 122h-.013c-.027-.001-2.701-.171-4.141-2.903-.983-1.864-1.538-2.28-2.306-2.856-.34-.255-.724-.543-1.198-1.001-1.528-1.475-1.595-3.942-1.597-4.047 0-.039.033-.068.076-.064.042.003.078.037.079.076 0 .025.068 2.513 1.549 3.944.466.45.846.735 1.182.987.756.567 1.353 1.015 2.353 2.911 1.393 2.644 3.97 2.811 3.996 2.813.043.002.079.036.08.074.002.035-.024.062-.06.066M122.286 125.698s4.914 1.132 5.297-2.612c.222-2.17 3.296-.57 4.07-2.001.773-1.431-.242-3.29 1.299-4.199 1.542-.909 2.825-2.381 1.974-4.715s1.479-3.529-.389-5.065c-1.867-1.535-3.978 1.122-4.345 4.164s-3.124 1.752-3.194 4.708-3.665 1.932-3.779 4.358c-.115 2.425-3.166 2.52-.933 5.362"/><path fill="#e1ecfa" d="M126.496 122.507q.007 0 .013-.003c.024-.008 2.463-.771 3.173-3.871.484-2.116.903-2.662 1.483-3.419.256-.334.547-.712.882-1.283 1.078-1.841.576-4.368.554-4.475a.064.064 0 0 0-.085-.049.085.085 0 0 0-.056.095c.006.025.512 2.575-.533 4.359a11 11 0 0 1-.87 1.266c-.57.745-1.021 1.333-1.514 3.485-.687 3-3.036 3.74-3.06 3.747a.086.086 0 0 0-.057.094.063.063 0 0 0 .07.054M25.7 125.702s-6.093 1.454-3.786-4.016c.86-2.04-3.08-1.791-3.195-3.396s1.786-2.913.646-4.337-1.753-3.263.203-5.068.15-3.792 2.764-4.476c2.614-.683 3.513 2.558 2.462 5.478s2.351 2.803 1.039 5.532c-1.313 2.727 2.816 3.177 1.797 5.436-1.02 2.26 1.37 5.417-1.93 4.847"/><path fill="#e1ecfa" d="m23.289 121.576-.012-.008c-.021-.016-2.14-1.653-1.409-4.758.499-2.12.329-2.78.094-3.695-.104-.404-.221-.861-.294-1.512-.234-2.097 1.459-4.212 1.531-4.301a.08.08 0 0 1 .11-.012.076.076 0 0 1 .011.108c-.017.021-1.724 2.155-1.497 4.188.071.639.187 1.092.29 1.491.23.9.413 1.611-.093 3.767-.707 3.006 1.331 4.586 1.352 4.602.034.026.04.074.014.108a.08.08 0 0 1-.097.022"/><path fill="#e69724" d="m28.299 70.763 6.175-.07c1.059-18.927 15.916-34.75 35.342-36.455 21.31-1.87 40.168 13.945 42.038 35.255S97.909 109.66 76.6 111.53a38.8 38.8 0 0 1-19.614-3.399 3.098 3.098 0 1 1 2.596-5.626 32.6 32.6 0 0 0 16.476 2.853c17.906-1.572 31.195-17.418 29.624-35.324S88.264 38.839 70.358 40.41C54.179 41.83 41.77 54.905 40.687 70.62l5.9-.067c.864-.01 1.415.92.991 1.673l-4.48 7.971-4.482 7.971a1.123 1.123 0 0 1-1.944.023l-4.663-7.867-4.663-7.866a1.123 1.123 0 0 1 .953-1.696"/><path fill="#f0c66c" d="M94.071 113.846c0 .18-.146.327-.327.327h-31.46c-2.332 0-4.224-1.564-4.224-3.493v-1.138c0-1.93 1.892-3.493 4.225-3.493h31.459c.18 0 .327.146.327.327v.059c0 .18-.145.326-.325.328l-.41.003-.024 6.753h.432a.326.326 0 0 1 .327.327"/><path fill="#f9ecdc" d="m72.242 106.737 21.094.028-.023 6.753H72.024a1.98 1.98 0 0 1-1.983-1.982v-2.598a2.2 2.2 0 0 1 2.201-2.201"/><path fill="#e69724" d="M64.683 110.159v-.095c0-.365.295-.659.659-.659h2.51c.364 0 .658.294.658.659v.095a.66.66 0 0 1-.659.659h-2.51a.66.66 0 0 1-.658-.659"/><path stroke="#f0c66c" stroke-linecap="round" stroke-miterlimit="10" stroke-width=".38" d="M71.218 107.791h22.093M72.813 108.808h20.499M71.218 110.652h22.093M70.873 112.566h22.44"/><path fill="#e69724" d="M105.741 125.398a.48.48 0 0 1-.478.479H59.297c-3.409 0-6.172-2.285-6.172-5.104v-1.664c0-2.818 2.763-5.103 6.172-5.103h45.966c.264 0 .478.214.478.478v.087a.48.48 0 0 1-.474.478l-.601.005-.034 9.867h.631a.476.476 0 0 1 .478.477"/><path fill="#f9ecdc" d="m73.637 115.011 31.035.041-.034 9.868H73.793a3.165 3.165 0 0 1-3.165-3.164v-3.737a3.01 3.01 0 0 1 3.009-3.008"/><path fill="#f0c66c" d="M65.665 123.117h-.139a.963.963 0 0 1-.963-.963v-3.667c0-.532.431-.963.963-.963h.14c.531 0 .962.431.962.963v3.667c0 .532-.43.963-.963.963M62.5 123.142h-.139a.963.963 0 0 1-.963-.963v-3.667c0-.532.432-.963.963-.963h.14c.532 0 .963.431.963.963v3.667a.963.963 0 0 1-.963.963"/><path stroke="#f0c66c" stroke-linecap="round" stroke-miterlimit="10" stroke-width=".38" d="M74.091 116.551h30.541M78.26 119.868h26.39M71.631 121.112h33.001M72.99 123.908h31.642"/><path fill="#e1b39d" d="m43.506 116.555-1.008 2.499 2.814.718.888-2.048z"/><path fill="#2f526e" d="M45.312 119.773c-2.693-1.233-3.58-1.627-7.732-1.414-.57.052-.69.836-.165 1.064l6.265 2.717c.884.45 1.632-2.367 1.632-2.367"/><path fill="#e1b39d" d="m50.505 117.979-.445 2.668 2.88.235.412-2.194z"/><path fill="#315780" d="M52.938 120.882c-2.9-.606-3.851-.793-7.853.334-.544.176-.488.968.075 1.073l6.71 1.263c.962.243 1.068-2.67 1.068-2.67"/><path fill="#2f5482" d="M73.724 92.147s5.949-.355 5.949-3.228-2.669-2.43-1.868-5.988c.74-3.292-.4-4.45-2.034-5.693-2.55-1.94-.677-3.416-2.273-5.864-1.234-1.892-5.893-3.81-8.21-.504-3.262 4.655-3.355 4.909-3.393 6.58-.077 3.346 3.183 2.184-.058 7.381s2.343 7.712 6.867 8.812c4.524 1.101 5.02-1.496 5.02-1.496"/><path fill="#f3d6c1" d="M68.755 72.443c-.323-.181-.631-.386-.918-.152-.81.658-2.178 2.099-1.993 4.2.189 2.13.428 3.149 1.514 3.228.352.026.63.307.613.66l-.051 1.464s-.159.144-.217.236l-1.632 2.86a.63.63 0 0 0 .044.735l1.765 2.153a.63.63 0 0 0 1.045-.11l2.994-5.77c.077-.148.02-.317-.029-.477-.181-.59-1.123-1.798.276-5.147.11-.266.15-1.255-.59-1.056-.213.079-.227.473-.57.167-.525-.465-.456-1.986-2.251-2.991"/><path fill="#315782" d="m61.064 97.474-8.26 1.835a3.48 3.48 0 0 0-2.384 1.896l-7.443 15.574a.513.513 0 0 0 .33.716l2.73.735a.51.51 0 0 0 .565-.217l9.884-15.361a.52.52 0 0 1 .331-.225l9.532-1.896c.5-.1.565-.788.093-.979L61.367 97.5a.5.5 0 0 0-.303-.025"/><path fill="#eccbb5" d="m63.76 86.854-1.506 5.9a.98.98 0 0 1-.357.538l-2.241 1.702a.98.98 0 0 0-.27 1.245l.195.363a.98.98 0 0 0 1.301.411l3.1-1.55a.98.98 0 0 0 .465-.495l2.791-6.624z"/><path fill="#315782" d="M65.922 98.923a.43.43 0 0 0-.27-.024l-7.366 1.721a4.92 4.92 0 0 0-3.754 3.093c-1.41 3.699-3.934 12.525-4.48 14.452-.061.214.05.437.258.517.63.242 1.93.737 2.738 1.013.21.072.44-.028.53-.231l5.295-11.801c.07-.156.365-.857.735-.857 2.187 0 16.038 1.313 15.84-4.013-.275-.487-8.366-3.362-9.526-3.87"/><path fill="#f0c66c" d="M67.919 81.843s-.913 1.57.333 1.942c1.605.48 3.166-.906 3.498-2.094.03-.105.063-.346.172-.352.623-.035 2.474-.025 3.315 1.49.802 1.443.796 3.858.763 4.736a.37.37 0 0 1-.344.356l-2.896.212a.37.37 0 0 0-.245.62c.467.505 1.09 1.363 1.46 2.631.434 1.483.658 2.258 1.078 5.096.245 1.65.438 4.903.506 6.161a.37.37 0 0 1-.469.375c-1.32-.374-4.945-1.422-6.754-2.186-2.236-.945-5.97-2.333-5.97-2.333s3.432-1.555 3.058-4.635-.872-4.175-.424-6.212l-1.41-.404a.37.37 0 0 1-.262-.433c.287-1.31.903-4.898 4.59-4.97"/><path fill="#f3d6c1" d="M60.218 97.076s1.37-1.131 2.628-.69c.165.058.341.067.511.03l6.723-1.471a.975.975 0 0 0 .752-.782l1.07-5.968 3.539-.258s-.74 7.563-3.012 9.546a.94.94 0 0 1-.563.222l-8.6.524a1 1 0 0 0-.177.028 5 5 0 0 0-.721.239.97.97 0 0 1-1.108-.25z"/><path stroke="#264154" stroke-linecap="round" stroke-miterlimit="10" stroke-width=".19" d="M50.728 101.495s1.367.36 2.47-.432c1.103-.791.551-1.942.551-1.942M53.11 107.9l1.353-4.229a4.25 4.25 0 0 1 3.06-2.838l6.333-1.515M71.584 102.416s-1.162 1.38-.31 3.155"/><path stroke="#264154" stroke-linecap="round" stroke-miterlimit="10" stroke-width=".19" d="M56.83 101.577s1.037 2.007-1.985 2.417M43.863 116.495l2.378.751M51.06 117.934l2.05.689"/><path stroke="#e69724" stroke-linecap="round" stroke-miterlimit="10" stroke-width=".19" d="M73.779 82.232s-2.523.272-1.877 5.964M66.475 83.785s-1.439 1.762-1.498 3.749"/><path fill="#e69724" d="m53.107 99.161-4.06-5.945a.36.36 0 0 1 .297-.562h8.548a.36.36 0 0 1 .305.169l3.397 5.435a.36.36 0 0 0 .305.17h3.987a.36.36 0 0 1 .36.359v.172a.36.36 0 0 1-.36.36H53.405c-.12-.001-.23-.06-.298-.158"/><path fill="#f0c66c" d="M56.33 95.566c.278.576.112 1.23-.37 1.463-.481.232-1.096-.047-1.373-.623-.278-.576-.112-1.23.37-1.463.481-.232 1.097.047 1.374.623M27.203 52.69c-.245 14.362-21.608 14.36-21.851 0 .245-14.361 21.607-14.36 21.85 0"/><path stroke="#f0c66c" stroke-miterlimit="10" stroke-width=".19" d="M28.376 52.69c-.271 15.905-23.93 15.903-24.198 0 .272-15.904 23.93-15.902 24.198 0Z"/><path fill="#fff" d="M17.264 56.31c-.185-1.836-1.957-.6-1.957-.6l-.025-1.921-2.028.026s.376.377.485.829c.125.521-.07 1.128-1.067 1.14-.777.01-1.14-.647-1-1.19.108-.423.424-.764.424-.764l-2.08.027c.068 5.266.068 5.266 5.333 5.198l-.026-2.075c.288.43 2.088.787 1.941-.67"/><path fill="#f9ecd1" d="M19.805 51.863c-1.86 0-.639 1.949-.639 1.949h-1.894v1.922s1.789-1.214 1.95.625c.127 1.459-1.668 1.079-1.95.645v2.074c5.266 0 5.266 0 5.266-5.266h-2.113s1.307-1.95-.62-1.95M11.685 52.37c-.14.544.223 1.202 1 1.192.996-.012 1.192-.619 1.067-1.14-.109-.452-.484-.83-.484-.83l2.028-.024-.025-1.979s-1.234 1.11-1.862.024c-.663-1.147.711-2.243 1.848-1.154l-.027-2.158c-5.266.066-5.266.066-5.2 5.332l2.08-.026s-.317.34-.425.764"/><path fill="#fff" d="m17.259 46.457.004 2.158c-1.125-1.101-2.51-.02-1.86 1.134.617 1.093 1.862-.004 1.862-.004l.004 1.978 1.894-.004s-1.224-1.946.635-1.95c1.927-.004.624 1.948.624 1.948l2.113-.004c-.01-5.266.155-5.267-5.276-5.256"/><path fill="#f0c66c" d="M38.05 20.134c.245 14.362 21.607 14.36 21.85 0-.245-14.361-21.607-14.359-21.85 0"/><path stroke="#f0c66c" stroke-miterlimit="10" stroke-width=".19" d="M36.875 20.134c.272 15.905 23.93 15.902 24.199 0-.272-15.904-23.93-15.902-24.199 0Z"/><path fill="#fff" d="M56.103 20.134v-2.809a.77.77 0 0 0-1.155-.667l-2.432 1.405-2.433 1.404a.77.77 0 0 0 0 1.334l2.433 1.404 2.432 1.405a.77.77 0 0 0 1.155-.667zM48.032 20.134v-2.809a.77.77 0 0 0-1.155-.667l-2.432 1.405-2.433 1.404a.77.77 0 0 0 0 1.334l2.433 1.404 2.432 1.405a.77.77 0 0 0 1.155-.667z"/><path fill="#f0c66c" d="M113.247 21.759c-.245 14.361-21.608 14.36-21.851 0 .245-14.362 21.608-14.36 21.851 0"/><path stroke="#f0c66c" stroke-miterlimit="10" stroke-width=".19" d="M114.42 21.759c-.271 15.904-23.93 15.902-24.198 0 .271-15.905 23.929-15.902 24.198 0Z"/><path fill="#fff" d="M100.446 13.897c4.414-1.618 7.755 2.68 7.276 6.1-.208 3.37-4.153 5.454-3.795 6.728h-3.269s.232-.627-.619-1.38c-3.216-2.533-5.287-8.89.407-11.448"/><path fill="#e69724" d="M103.928 26.725c-.018 1.545.376 3.409-1.872 3.237-1.765-.058-1.366-2.05-1.4-3.237z"/><path stroke="#f0c66c" stroke-linecap="round" stroke-miterlimit="10" stroke-width=".38" d="M102.948 26.725s-.06-5.145.394-6.572c.453-1.427 1.359-2.528 2.029-1.301 1.289 3.898-5.627 4.876-6.166 1.426-.714-3.327 3.029-3.61 2.405 6.447"/><path stroke="#315782" stroke-linecap="round" stroke-miterlimit="10" stroke-width=".38" d="M.19 125.876H139"/></svg>