<svg xmlns="http://www.w3.org/2000/svg" width="126" height="126" fill="none" viewBox="0 0 126 126"><path fill="#fafafa" d="M19.57 62.604c-23.984 13.847-23.983 36.299.002 50.147s62.873 13.847 86.858 0c23.985-13.848 23.984-36.3-.002-50.147-23.985-13.848-62.873-13.848-86.857 0"/><path fill="#ba68c8" d="M15.844 102.033s1.982-7.859-.765-15.931c-1.536-4.512-4.645-6.794-6.611-7.145-2.205-.393-4.552 1.288-2.75 4.326 1.713 2.888 5.26 4.29 6.97 11.6 1.127 4.819.735 7.913.735 7.913z"/><path fill="#fff" d="M15.844 102.033s1.982-7.859-.765-15.931c-1.536-4.512-4.645-6.794-6.611-7.145-2.205-.393-4.552 1.288-2.75 4.326 1.713 2.888 5.26 4.29 6.97 11.6 1.127 4.819.735 7.913.735 7.913z" opacity=".5"/><path fill="#fff" d="M14.584 99.903c-.076-.013-.128-.077-.117-.144 1.453-8.656-2.87-16.34-6.405-19.032-.06-.046-.069-.124-.02-.175a.15.15 0 0 1 .195-.01c3.585 2.73 7.973 10.512 6.504 19.263-.011.067-.081.11-.157.098"/><path fill="#ba68c8" d="M13.422 102.797c-.213-2.034-1.349-4.197-3.91-6.598s-6.14-4.691-5.496-6.594c.645-1.903 3.542-1.277 5.536-.053s6.369 5.812 5.081 12.863z"/><path fill="#fff" d="M13.422 102.797c-.213-2.034-1.349-4.197-3.91-6.598s-6.14-4.691-5.496-6.594c.645-1.903 3.542-1.277 5.536-.053s6.369 5.812 5.081 12.863z" opacity=".65"/><path fill="#fff" d="M14.106 100.594c-.065-.01-.115-.061-.117-.122-.159-4.277-5.395-10.017-7.898-11.026-.071-.029-.105-.102-.076-.164.03-.062.11-.09.181-.06 2.626 1.057 7.905 6.807 8.07 11.252.002.068-.057.123-.134.123z"/><path fill="#e0e0e0" d="M66.89 111.452c9.52 0 17.238-4.456 17.238-9.952 0-5.497-7.718-9.952-17.238-9.952s-17.238 4.455-17.238 9.952 7.718 9.952 17.238 9.952M27.035 117.441c9.87 0 17.872-4.62 17.872-10.318 0-5.699-8.002-10.319-17.872-10.319-9.871 0-17.873 4.62-17.873 10.319 0 5.698 8.002 10.318 17.873 10.318M114.159 109.645l-61.83-35.676 7.37-4.255 61.829 35.676z"/><path fill="#ba68c8" d="m76.928 60.685-7.37 4.255 7.949-7.415 7.37-4.255z"/><path fill="#000" d="m84.876 53.27-7.948 7.415-7.37 4.255 7.949-7.415z" opacity=".3"/><path fill="#ba68c8" d="m76.06 58.876-6.5 6.063L56.8 38.405l7.37-4.255zM97.64 79.804l-7.37 4.255 7.948-7.415 7.37-4.255z"/><path fill="#000" d="m105.588 72.389-7.949 7.415-7.369 4.255 7.948-7.415z" opacity=".3"/><path fill="#ba68c8" d="m98.216 76.645 7.369-4.256 9.831 20.709 1.985-1.084-.375 13.138-11.046-6.902 1.979-1.08zM96.769 77.996l-6.5 6.063-12.762-26.534 7.37-4.255z"/><path fill="#ba68c8" d="m121.045 73.425-13.729-7.927 6.865 12.61z" opacity=".5"/><path fill="#ba68c8" d="m121.045 67.66-13.729-7.925 6.865 12.61z" opacity=".3"/><path fill="#ba68c8" d="m121.045 61.896-13.729-7.926 6.865 12.61z" opacity=".1"/><path fill="#263238" d="M71.05 100.991c2.263-1.36 2.225-3.499-.083-4.779-2.31-1.28-6.015-1.215-8.278.144-2.263 1.36-2.225 3.5.083 4.779 2.31 1.28 6.015 1.216 8.278-.144"/><path fill="#263238" d="m61.356 99.876.95-.016c.204-.446.6-.87 1.196-1.228 1.84-1.105 4.854-1.158 6.731-.117.608.337 1.019.747 1.239 1.185l.948-.016-1.059 1.744h-.003c-.226.351-.576.684-1.057.973-1.84 1.106-4.854 1.158-6.732.118-.49-.273-.852-.593-1.09-.937h-.003z"/><path fill="#455a64" d="M73.007 99.416c3.34-2.019 3.277-5.182-.142-7.066s-8.898-1.774-12.239.245c-3.34 2.019-3.277 5.182.142 7.066s8.898 1.774 12.239-.245"/><path fill="#37474f" d="M73.21 98.267c3.464-2.094 3.398-5.375-.148-7.329-3.545-1.953-9.229-1.84-12.693.254s-3.4 5.375.146 7.329 9.23 1.84 12.694-.254"/><path fill="#455a64" d="M73.345 96.987c3.553-2.147 3.485-5.512-.15-7.514-3.636-2.004-9.463-1.887-13.015.26s-3.485 5.511.15 7.514c3.636 2.003 9.463 1.886 13.015-.26"/><path fill="#37474f" d="M73.48 95.707c3.641-2.2 3.572-5.647-.153-7.7s-9.696-1.932-13.336.267c-3.64 2.2-3.572 5.648.154 7.7s9.696 1.933 13.336-.267"/><path fill="#455a64" d="M73.615 94.428c3.727-2.253 3.657-5.783-.158-7.885s-9.93-1.98-13.657.273-3.658 5.783.157 7.885 9.93 1.98 13.658-.273"/><path fill="#37474f" d="M73.75 93.149c3.816-2.306 3.744-5.92-.16-8.07-3.905-2.152-10.164-2.027-13.98.28-3.815 2.305-3.742 5.918.162 8.07 3.905 2.15 10.163 2.025 13.979-.28"/><path fill="#ba68c8" d="M56.238 84.35c-.028-1.526.952-3.073 2.947-4.278 3.993-2.414 10.542-2.545 14.629-.293 2.043 1.125 3.083 2.633 3.112 4.16l.07 3.518c.03 1.528-.95 3.075-2.949 4.281-3.996 2.411-10.546 2.543-14.629.293-2.043-1.126-3.082-2.635-3.11-4.164-.01-.59-.059-2.921-.07-3.517"/><path fill="#ba68c8" d="M94.986 56.744c-4.97 14.014-17.85 18.489-17.69 26.43.031 1.584-.985 3.19-3.057 4.442-4.141 2.506-10.937 2.642-15.178.304-2.118-1.168-3.198-2.733-3.23-4.317-.099-4.979-5.264-8.39-10.465-13.644-5.202-5.253-10.44-12.35-10.687-24.699-.344-17.181 13.305-31.387 30.486-31.731a30.98 30.98 0 0 1 19.417 6.312l3.379 8.298L76.565 24.5l7.502 4.918-16.724 7.105 20.242 2.443-3.542 13.252 8.66-6.669z"/><path fill="#fff" d="M94.986 56.744c-4.97 14.014-17.85 18.489-17.69 26.43.031 1.584-.985 3.19-3.057 4.442-4.141 2.506-10.937 2.642-15.178.304-2.118-1.168-3.198-2.733-3.23-4.317-.099-4.979-5.264-8.39-10.465-13.644-5.202-5.253-10.44-12.35-10.687-24.699-.344-17.181 13.305-31.387 30.486-31.731a30.98 30.98 0 0 1 19.417 6.312l3.379 8.298L76.565 24.5l7.502 4.918-16.724 7.105 20.242 2.443-3.542 13.252 8.66-6.669z" opacity=".6"/><path fill="#ba68c8" d="M72.985 86.98c3.465-2.094 3.4-5.375-.147-7.329-3.545-1.953-9.228-1.84-12.693.254s-3.4 5.375.146 7.329 9.23 1.84 12.694-.254"/><path fill="#fff" d="M72.985 86.98c3.465-2.094 3.4-5.375-.147-7.329-3.545-1.953-9.228-1.84-12.693.254s-3.4 5.375.146 7.329 9.23 1.84 12.694-.254" opacity=".4"/><path fill="#ba68c8" d="M58.752 86.105c.405.407.917.79 1.537 1.13 3.547 1.952 9.231 1.838 12.694-.254a6.8 6.8 0 0 0 1.49-1.19 6.7 6.7 0 0 0-1.537-1.13c-3.547-1.956-9.23-1.842-12.693.254-.605.365-1.106.764-1.49 1.19" opacity=".25"/><path fill="#ba68c8" d="M58.752 86.105c.405.407.917.79 1.537 1.13 3.547 1.952 9.231 1.838 12.694-.254a6.8 6.8 0 0 0 1.49-1.19 6.7 6.7 0 0 0-1.537-1.13c-3.547-1.956-9.23-1.842-12.693.254-.605.365-1.106.764-1.49 1.19"/><path fill="#fff" d="M49.588 26.405q.57.228 1.103.627c1.257.945 1.794 2.65 1.597 4.21-.38 3.018-3.24 4.951-4.87 7.325a26.7 26.7 0 0 0-3.885 8.563c-.23.911-.523 2.42-.972 3.246-.707 1.297-2.238 1.53-3.076 1.105-1.221-.62-1.877-2.12-2.07-3.3-1.15-7.02.183-12.314 3.623-17.8 1.875-2.992 4.876-5.466 8.55-3.976M43.458 55.193c.334.943.197 1.927-.269 2.793-.508.946-1.832 1.216-2.718.677-.911-.555-1.526-1.592-1.531-2.664-.006-1.14.708-2.373 1.97-2.523 1.176-.14 2.212.768 2.548 1.717" opacity=".5"/><path fill="#455a64" d="M60.39 63.564c-.472-1.507-1.02-2.782-1.608-3.849q-.523.157-1.03.252c-3.604.676-5.733-.325-6.523-1.488-.552-.812-.547-1.787.012-2.675.496-.787 1.39-1.16 2.453-1.021 1.575.205 3.576 1.53 5.269 4.5 2.476-.8 5.125-2.523 6.783-4.16a8 8 0 0 1-1.057-1.21c-1.747-2.54-1.69-4.768-1.055-6.006.45-.878 1.25-1.392 2.195-1.411s1.765.463 2.25 1.322c.684 1.211.829 3.435-.815 6.043-.25.396-.593.82-1.007 1.252 1.722 1.569 4.438 3.185 6.944 3.885 1.573-3.035 3.519-4.44 5.085-4.707 1.053-.18 1.964.155 2.492.922.594.865.637 1.839.118 2.672-.743 1.193-2.831 2.28-6.46 1.748q-.508-.075-1.037-.21c-.545 1.089-1.042 2.385-1.453 3.91-1.399 5.184-1.902 12.105-1.68 23.14l-.361.008c-.222-11.072.284-18.022 1.692-23.242.41-1.519.9-2.817 1.439-3.914-2.541-.73-5.28-2.366-7.03-3.958-1.684 1.661-4.356 3.406-6.865 4.236.582 1.075 1.123 2.352 1.593 3.853 1.616 5.16 2.4 12.084 2.621 23.156l-.36.007c-.22-11.036-1-17.93-2.605-23.055m-6.743-8.424c-.915-.12-1.683.193-2.1.856-.487.772-.494 1.582-.02 2.28.727 1.068 2.724 1.98 6.16 1.336q.449-.085.913-.218c-1.638-2.816-3.544-4.07-4.953-4.254m24.699-.494c-1.4.24-3.255 1.57-4.779 4.448q.47.115.922.182c3.455.506 5.419-.485 6.101-1.582.446-.716.407-1.525-.11-2.277-.373-.542-.98-.827-1.705-.812a3 3 0 0 0-.429.041m-14.392-6.575c-.738 1.44-.333 3.652 1.032 5.637.255.37.598.762 1.01 1.16.396-.414.723-.82.962-1.2 1.285-2.037 1.602-4.264.807-5.673-.424-.75-1.11-1.155-1.93-1.139s-1.487.448-1.881 1.215"/><path fill="#e0e0e0" d="M111.584 45.291s.797 2.328.838 2.68c.04.35-.466 1.71-.535 1.964s1.11.677 1.74-.14c.631-.815.869-1.567.88-2.484l2.932.798c.619.168 1.028-.334 1.122-.683a1.03 1.03 0 0 0-.242-.985s.625.017.81-.665a.954.954 0 0 0-.472-1.081s.251-.17.38-.646c.086-.317-.179-.968-.591-1.08 0 0 .204-.25.308-.631.125-.46-.194-1.04-.828-1.213l-4.85-1.319zM112.58 38.876l-2.116-.573-1.733 6.382 2.113.574zm-.939.646a.39.39 0 0 1-.326.447.39.39 0 0 1-.446-.326.39.39 0 0 1 .326-.447.39.39 0 0 1 .446.326M37.126 14.792s.625 2.214.645 2.544-.522 1.575-.6 1.809 1.003.688 1.633-.042.891-1.42.948-2.275l2.697.894c.569.188.976-.26 1.083-.58a.96.96 0 0 0-.177-.932s.583.047.791-.58a.89.89 0 0 0-.386-1.034s.243-.146.388-.583c.096-.292-.118-.913-.497-1.039 0 0 .203-.224.32-.574.14-.423-.128-.98-.712-1.174l-4.462-1.479zM38.385 8.853l-1.947-.644-1.943 5.871 1.943.644zm-.91.555a.364.364 0 0 1-.327.4.365.365 0 0 1-.4-.327.365.365 0 0 1 .327-.4c.202-.02.38.125.4.327M96.49 9.532c.072 0 .136.052.148.126l.856 5.084a.15.15 0 0 1-.124.174l-1.683.284a.15.15 0 0 1-.174-.124l-.856-5.084a.15.15 0 0 1 .124-.174l1.683-.284zm.681 5.112-.806-4.787-1.385.233.806 4.787zm-2.822-4.146c.073 0 .137.052.15.126l.735 4.37a.15.15 0 0 1-.012.087c-.317.695-.805 1.797-.845 1.984-.037.172.131.91.203 1.224.03.131.053.234.062.284.01.063.007.22-.26.322-.334.127-.998.115-1.357-.458-.392-.627-.554-1.203-.526-1.895l-2.147.362c-.575.099-.933-.384-.993-.74a.94.94 0 0 1 .145-.692.82.82 0 0 1-.459-.631.91.91 0 0 1 .369-.875 1.3 1.3 0 0 1-.165-.458c-.044-.264.155-.72.477-.899a1.7 1.7 0 0 1-.125-.407c-.072-.424.237-.946.859-1.051l3.864-.65zm.58 4.5-.704-4.174-3.715.625c-.424.072-.659.421-.611.703.044.265.166.454.167.456a.152.152 0 0 1-.101.232c-.233.039-.448.437-.418.618.052.31.19.436.195.44a.153.153 0 0 1-.043.255.59.59 0 0 0-.355.638.504.504 0 0 0 .44.452.151.151 0 0 1 .087.265.65.65 0 0 0-.214.606c.032.191.234.561.644.492l2.336-.393a.15.15 0 0 1 .176.162c-.062.709.078 1.278.469 1.901.19.303.488.368.648.38a.73.73 0 0 0 .406-.073c-.01-.052-.029-.131-.05-.226-.135-.59-.252-1.136-.204-1.356.057-.263.706-1.694.846-2.003M13.41 30.191c.073 0 .138.054.15.128l.87 5.165a.152.152 0 0 1-.126.177l-1.71.288a.15.15 0 0 1-.176-.126l-.87-5.164a.153.153 0 0 1 .126-.177l1.71-.288zm.692 5.193-.819-4.862-1.407.237.819 4.861zm-2.866-4.21c.073 0 .138.052.151.127l.747 4.438a.15.15 0 0 1-.011.09c-.323.706-.818 1.825-.859 2.014-.038.175.133.924.207 1.244.03.133.054.237.063.288.01.064.006.225-.264.327-.34.13-1.014.117-1.379-.465-.398-.637-.562-1.222-.535-1.924l-2.18.367c-.584.1-.948-.39-1.009-.751a.95.95 0 0 1 .147-.703.83.83 0 0 1-.465-.642.93.93 0 0 1 .374-.889 1.3 1.3 0 0 1-.167-.465c-.045-.268.158-.731.484-.913a1.7 1.7 0 0 1-.127-.413c-.072-.43.24-.96.872-1.068l3.925-.66zm.587 4.57-.713-4.24-3.774.635c-.431.073-.67.428-.621.714.045.27.17.46.17.463a.16.16 0 0 1 .012.145.15.15 0 0 1-.114.09c-.238.04-.456.445-.425.629.053.315.192.442.198.447a.155.155 0 0 1-.044.259.6.6 0 0 0-.36.647.51.51 0 0 0 .446.46.153.153 0 0 1 .089.27.66.66 0 0 0-.217.614c.032.194.237.57.654.5l2.372-.4a.15.15 0 0 1 .13.039.15.15 0 0 1 .049.126c-.063.72.08 1.297.476 1.931a.83.83 0 0 0 .66.385.74.74 0 0 0 .412-.073c-.011-.054-.03-.134-.052-.23-.137-.599-.255-1.155-.207-1.378.058-.266.717-1.72.86-2.034"/><path fill="#f0f0f0" d="m12.22 61.447-2.338-1.373 1.372-2.338a.349.349 0 1 0-.602-.353L9.28 59.72 6.94 58.349a.35.35 0 0 0-.353.602l2.338 1.372-1.372 2.338a.35.35 0 0 0 .602.354l1.373-2.339 2.338 1.373a.35.35 0 0 0 .353-.602M117.521 18.359l-1.716-2.099 2.098-1.716a.348.348 0 1 0-.442-.54l-2.098 1.716-1.717-2.1a.349.349 0 1 0-.54.443l1.716 2.099-2.099 1.716a.35.35 0 0 0 .442.54l2.099-1.716 1.717 2.1a.349.349 0 1 0 .54-.443M14.209 14.051l-1.717-2.099 2.1-1.716a.349.349 0 1 0-.443-.54l-2.099 1.716-1.716-2.1a.35.35 0 0 0-.54.443l1.716 2.099-2.1 1.716a.35.35 0 0 0 .443.54l2.099-1.716 1.716 2.1a.349.349 0 1 0 .54-.443"/><path fill="#ba68c8" d="M104.647 20.455c-1.18-.67-2.805-.568-4.6.469-3.61 2.084-6.536 7.152-6.536 11.32 0 2.083.73 3.545 1.912 4.229l2.233 1.284c1.182.681 2.814.582 4.617-.458 3.61-2.085 6.536-7.153 6.536-11.321 0-2.078-.728-3.54-1.905-4.224a333 333 0 0 0-2.257-1.299"/><path fill="#fff" d="M104.647 20.455c-1.18-.67-2.805-.568-4.6.469-3.61 2.084-6.536 7.152-6.536 11.32 0 2.083.73 3.545 1.912 4.229l2.233 1.284c1.182.681 2.814.582 4.617-.458 3.61-2.085 6.536-7.153 6.536-11.321 0-2.078-.728-3.54-1.905-4.224a333 333 0 0 0-2.257-1.299" opacity=".5"/><path fill="#ba68c8" d="M98.64 37.848c-.271.46-.761 1.065-1.633 1.62-.82.522-1.788.625-2.453.618a.24.24 0 0 1-.115-.029 802 802 0 0 0-2.224-1.28.223.223 0 0 1 .004-.385c1.53-.902 1.949-2.193 2.041-3.072z"/><path fill="#fff" d="M98.64 37.848c-.271.46-.761 1.065-1.633 1.62-.82.522-1.788.625-2.453.618a.24.24 0 0 1-.115-.029 802 802 0 0 0-2.224-1.28.223.223 0 0 1 .004-.385c1.53-.902 1.949-2.193 2.041-3.072z" opacity=".35"/><path fill="#ba68c8" d="M106.894 32.422c2.552-4.421 2.552-9.2 0-10.674-2.553-1.473-6.691.916-9.244 5.337s-2.553 9.2 0 10.673 6.691-.915 9.244-5.336"/><path fill="#fff" d="M106.894 32.422c2.552-4.421 2.552-9.2 0-10.674-2.553-1.473-6.691.916-9.244 5.337s-2.553 9.2 0 10.673 6.691-.915 9.244-5.336" opacity=".25"/><path fill="#ba68c8" d="M96.464 35.622s.517 2.557-2.02 4.05c-.195.114-.118.413.109.415.667.005 1.634-.098 2.456-.619 1.737-1.102 1.954-2.404 1.954-2.404z"/><path fill="#fff" d="M96.464 35.622s.517 2.557-2.02 4.05c-.195.114-.118.413.109.415.667.005 1.634-.098 2.456-.619 1.737-1.102 1.954-2.404 1.954-2.404z" opacity=".25"/><path fill="#fafafa" d="m101.635 25.09-3.376 9.745c-.352 1.015.122 1.406 1.052.869l5.926-3.421a1.954 1.954 0 0 0 .715-2.67l-2.701-4.678c-.537-.93-1.265-.86-1.616.155"/><path fill="#455a64" d="m102.642 30.915-.515.297c-.094.054-.174.01-.18-.097l-.209-3.857a.35.35 0 0 1 .159-.293l.975-.562c.093-.054.165-.01.159.097l-.21 4.122a.4.4 0 0 1-.179.293M102.384 32.989c-.328.19-.526-.056-.526-.397 0-.439.27-.857.526-1.004.328-.19.525.055.525.397 0 .438-.269.856-.525 1.004"/><path fill="#263238" d="M95.104 107.036a1.35 1.35 0 0 0-.587-.132q-.44 0-.955.296-.514.298-.966.816-.449.514-.77 1.131a6 6 0 0 0-.506 1.321 5.4 5.4 0 0 0-.185 1.371q0 .686.185 1.167.184.483.505.726.038.03.075.053c-.287-.162-2.334-1.323-2.535-1.474q-.322-.244-.506-.726t-.184-1.168q0-.667.184-1.371.183-.709.506-1.321.323-.615.77-1.131.452-.519.967-.815.511-.297.955-.296.38.003.676.178c.028.017 1.784 1.028 2.37 1.375"/><path fill="#263238" d="M95.99 88.16q-.387-.219-.925-.143c-.234.034-.48.106-.74.224.014.145.022.293.022.455q0 1.202-.376 2.287a14 14 0 0 1-.942 2.108 27 27 0 0 1-1.203 1.98q-.645.963-1.167 1.897a11 11 0 0 0-.836 1.873 4.5 4.5 0 0 0-.217 1.894l.273 3.337 2.46 1.422-.27-3.337a4.5 4.5 0 0 1 .215-1.894q.315-.943.838-1.874a27 27 0 0 1 1.164-1.896q.642-.96 1.204-1.98.565-1.022.941-2.109a6.9 6.9 0 0 0 .377-2.287q.001-.771-.215-1.256-.218-.488-.603-.702"/><path fill="#37474f" d="M96.083 81.822q-.746-.344-1.745-.215c-.765.098-1.615.42-2.547.956-.687.396-1.324.849-1.913 1.351a16 16 0 0 0-1.64 1.623 19 19 0 0 0-1.407 1.818 28 28 0 0 0-1.195 1.913l1.044 1.606q.092.178.23.248c.153.081 2.236 1.299 2.454 1.419a.55.55 0 0 1-.223-.246l-1.045-1.606q.545-.958 1.198-1.912.65-.955 1.405-1.819a16 16 0 0 1 1.64-1.622c.588-.506 1.228-.955 1.912-1.352q1.399-.808 2.55-.955c.692-.092 1.296-.008 1.81.243a242 242 0 0 0-2.528-1.45"/><path fill="#263238" d="M86.91 91.123c.153.081 2.236 1.298 2.454 1.419a.55.55 0 0 1-.223-.246l-1.044-1.605h-.001l-2.46-1.422 1.044 1.605a.54.54 0 0 0 .23.249"/><path fill="#455a64" d="M88.097 90.69q.547-.958 1.197-1.913.653-.954 1.407-1.82a16 16 0 0 1 1.64-1.62q.883-.758 1.912-1.352 1.4-.807 2.548-.957 1.15-.148 1.97.332t1.269 1.57q.45 1.091.45 2.763 0 1.629-.353 3.022a16 16 0 0 1-.884 2.578q-.531 1.185-1.166 2.195L96.89 97.39q-.563.894-.973 1.676-.41.784-.49 1.516l-.37 3.342-2.716 1.569-.273-3.336a4.5 4.5 0 0 1 .217-1.893 11 11 0 0 1 .836-1.876q.522-.933 1.165-1.895.642-.96 1.206-1.981.562-1.021.94-2.108a6.9 6.9 0 0 0 .378-2.286q0-.772-.218-1.257-.216-.486-.602-.702t-.924-.142q-.54.075-1.166.437-.916.529-1.55 1.164-.636.634-1.078 1.222-.442.587-.748 1.031-.305.444-.546.583-.579.335-.836-.16zm3.038 21.149q0-.664.185-1.372a6.2 6.2 0 0 1 .506-1.32q.322-.615.772-1.132t.965-.814q.513-.297.956-.295t.771.241q.33.238.523.727.193.488.193 1.153 0 .686-.193 1.386a6.4 6.4 0 0 1-.523 1.32q-.33.62-.771 1.12a3.8 3.8 0 0 1-.956.799q-.515.297-.965.31a1.18 1.18 0 0 1-.772-.229q-.321-.243-.506-.726-.185-.482-.185-1.168"/><path fill="#ffbda7" d="m30.096 97.75-.56-4.984 5.677-.511s-.24 3.842-.205 5.605c.016.83.603 2.393.603 2.393s-2.376 1.233-3.61.729-2.05-2.449-2.02-2.805.115-.426.115-.426"/><path fill="#263238" d="M42.192 105.596c.078.001.137.724-.296 1.078-.499.409-2.084 1.191-3.985.915s-2.922-.874-3.673-1.515c-.75-.642-1.803-1.547-2.661-1.749-.798-.188-1.871-.845-2.123-1.093-.252-.249-.196-1.331-.196-1.331z"/><path fill="#455a64" d="M30.094 97.743s-.239-.002-.293.248c-.064.298-.144 1.165-.279 1.653-.187.678-.33 2.073-.236 2.63s1.603 1.25 2.431 1.577c.846.335 1.82 1.01 2.672 1.728.881.742 2.75 1.531 3.993 1.544 1.47.014 3.133-.426 3.525-1.09.484-.822.844-1.781-1.316-2.813-.41-.195-1.842-1.064-2.33-1.379-1.32-.851-2.247-1.627-2.834-3.103-.069-.172-.14-.363-.305-.454-.126-.069-.28-.062-.423-.044-.364.044-1.815.215-2.15.365-.294.132-.712.284-.712.653 0 .129.035.255.075.377.024.075.043.176-.025.22-.064.04-.147-.01-.203-.06-.224-.205-.387-.466-.574-.704-.1-.128-.421-.536-.549-.638-.116-.092-.266-.14-.369-.244-.13-.132-.095-.293-.098-.466"/><path fill="#37474f" d="M34.39 105.578c-.374-.315-.772-.62-1.172-.894v-.002s2.534 1.578 3.582.9c.675-.437.368-.988.356-1.162-.013-.175 2.364-1.363 3.014-1.428.178.101.326.188.422.228 1.69.699 1.9 1.567 1.596 2.648-.391.664-1.88 1.332-3.779 1.299-1.242-.021-3.137-.846-4.019-1.589"/><path fill="#37474f" d="M36.985 103.909c1.345.557.762.796.382.843s-2.637-1.304-4.008-2.411c-1.43-1.156-2.532-2.692-3.063-3.117a9 9 0 0 1-.6-.532c.041-.294.075-.56.105-.7.054-.25.293-.25.293-.25.003.174-.031.335.099.467.102.104.252.152.368.244.128.102.449.51.55.637.187.239.35.5.574.705 1.156 1.499 3.955 3.557 5.3 4.114"/><path fill="#263238" d="M37.275 104.554a.14.14 0 0 1-.085-.031.13.13 0 0 1-.015-.186c.391-.455 2.224-1.518 3.219-1.393a.133.133 0 0 1 .116.148c-.01.072-.069.121-.15.114-.929-.114-2.67.941-2.98 1.302a.14.14 0 0 1-.105.046M36.106 103.818a.13.13 0 0 1-.084-.031.13.13 0 0 1-.016-.186c.39-.455 2.223-1.517 3.219-1.392a.13.13 0 0 1 .116.147.134.134 0 0 1-.15.115c-.93-.114-2.67.94-2.98 1.3a.13.13 0 0 1-.105.047M34.937 103.119a.14.14 0 0 1-.085-.031.13.13 0 0 1-.015-.186c.391-.454 2.224-1.518 3.219-1.392a.132.132 0 1 1-.034.262c-.93-.115-2.67.94-2.98 1.301a.13.13 0 0 1-.105.046M33.856 102.325a.13.13 0 0 1-.084-.031.13.13 0 0 1-.015-.186c.39-.455 2.227-1.517 3.218-1.392a.13.13 0 0 1 .116.147.133.133 0 0 1-.15.115c-.928-.114-2.67.94-2.98 1.301a.14.14 0 0 1-.105.046M32.798 101.533a.14.14 0 0 1-.083-.03.13.13 0 0 1-.018-.186c.538-.645 2.453-1.526 3.447-1.402.074.01.126.076.116.148s-.074.121-.15.115c-.895-.112-2.728.735-3.206 1.307a.14.14 0 0 1-.106.048"/><path fill="#ffbda7" d="m20.687 100.092 1.35-5.987-5.905-.921-.095 5.91s-.45 1.589-.118 2.135c.332.547 3.88 1.121 4.206.758.325-.364.562-1.895.562-1.895"/><path fill="#263238" d="M20.097 109.525c-.155 1.343-.437 2.211-1.018 2.938-.58.728-1.616.852-2.64.492-1.025-.359-2.321-1.143-2.56-2.347-.24-1.204-.141-1.996.156-3.223z"/><path fill="#455a64" d="M16.036 99.093c-.428-.022-.312 1.035-.514 2.845-.219 1.959-1.101 3.494-1.416 5.064-.359 1.795-.29 2.624.378 3.817.669 1.194 3.174 2.591 4.513 1.163 1.09-1.164 1.203-2.589 1.2-4.425-.005-1.898-.025-3.235.132-4.656.15-1.357.72-2.612.357-2.809-.039.197-.402 1.572-.642 1.55a2.5 2.5 0 0 1 .02-.516c.02-.153.013-.324-.095-.456-.109-.132-.517-.298-.688-.35-.417-.125-1.16-.28-1.586-.367a7 7 0 0 0-.638-.102 1.9 1.9 0 0 0-.544.002c-.102.021-.199.073-.24.158-.031.062-.03.135-.033.206q-.009.19-.072.368c-.018.052-.063.113-.124.092-.049-.016-.066-.074-.064-.119.01-.221.042-1.349.056-1.465"/><path fill="#37474f" d="M14.228 106.494c-.054.258-.392 1.973.13 2.353.563.411.95-.921.95-.921s1.38-.203 3.324.808c-.115.271.145 1.242.698 1.111.55-.13.862-2.105.866-2.131-.004 1.76-.14 3.137-1.2 4.267-1.338 1.428-3.844.031-4.512-1.162-.668-1.194-.737-2.023-.377-3.817q.054-.268.121-.508"/><path fill="#37474f" d="M15.46 108.062c-.042.659-.767.346-.753-.59.014-.937.505-3.211.691-4.743.124-2.203.212-3.658.64-3.636q-.003.033-.006.067l-.05 1.398c-.076 1.346-.094 3.961-.285 5.176-.192 1.216-.197 1.668-.238 2.328M18.405 108.688c.172-.632.311-1.056.52-2.268.207-1.203.927-3.612 1.284-4.907.116-.212.478-1.422.478-1.422.297.083 0 1.237-.138 1.777-.139.54-.308 1.119-.482 1.894-.443 1.527-.485 3.819-.77 4.697s-1.064.86-.892.229"/><path fill="#263238" d="M18.673 108.793a.2.2 0 0 1-.057-.023c-.015-.009-1.53-.9-3.274-.704-.085.009-.17-.046-.188-.123-.02-.078.035-.148.12-.158 1.866-.21 3.434.715 3.5.755.076.045.102.133.058.197-.033.048-.097.069-.16.056M19.1 107.403a.2.2 0 0 1-.052-.019c-.016-.01-1.723-.946-3.664-.788-.086.006-.169-.05-.185-.128s.041-.147.127-.154c2.053-.166 3.798.793 3.872.833.077.044.106.131.065.197-.032.05-.098.073-.163.059M15.554 105.248a.17.17 0 0 1-.13-.111c-.024-.077.024-.151.108-.166 1.942-.34 3.79.753 3.868.8.076.046.102.134.058.197-.045.064-.143.077-.217.033-.018-.01-1.813-1.07-3.62-.752a.2.2 0 0 1-.067-.001M15.726 103.977a.17.17 0 0 1-.129-.108c-.026-.077.02-.152.104-.168 2.138-.41 3.874.75 3.947.799s.092.139.044.2c-.05.06-.15.069-.22.02-.016-.011-1.687-1.123-3.677-.742a.2.2 0 0 1-.07-.001M15.928 102.55a.17.17 0 0 1-.128-.106c-.027-.076.018-.152.101-.169 2.005-.413 3.894.789 3.973.842.074.047.096.136.049.198s-.144.074-.219.025c-.018-.012-1.844-1.173-3.705-.789a.2.2 0 0 1-.071-.001"/><path fill="#37474f" d="M18.305 53.929c-1.877 4.6-.645 10.756-.836 15.77-.228 5.999-.334 10.702-.334 10.702-.072.806-.532 1.935-.906 5.915-.395 4.198-.38 10.19-.38 10.19s3.548 1.516 5.754.733c0 0 2.37-8.99 3.516-13.934 1.086-4.679 1.885-11.995 1.885-11.995l1.288 7.048s-.162 3.029-.086 5.148c.088 2.465 1.419 11.903 1.419 11.903s3.297 1.975 5.591.092c0 0 1.117-13.852 1.191-16.817.146-5.815.313-17.253-.374-24.755z"/><path fill="#263238" d="m27.004 71.31 1.469-9.222s3.177-.53 4.55-1.851c0 0-1.026 2.043-3.546 2.719l-1.54 8.54.355 6.862z"/><path fill="#455a64" d="M15.787 96.712c.991.777 3.877 1.44 5.852.725l.398-1.668c-1.49.502-4.562.184-6.216-.837zM29.626 95.603c.669.678 3.768 1.24 5.6.167l.135-1.674c-1.389.773-4.578.64-5.938-.153zM17.366 70.523s-.307 7.475-.286 8.02 4.085 1.62 4.19 1.274c.175-.576.132-1.86.483-8.053-3.37-.436-4.387-1.242-4.387-1.242"/><path fill="#37474f" d="M21.117 73.895c-.122-.041-.256-.03-.383-.032a6.876 6.876 0 0 1-1.383-.166 7.4 7.4 0 0 1-1.026-.312c-.272-.105-.53-.245-.802-.347-.026-.01-.03.04-.014.052.258.188.565.318.859.436q.415.166.848.273a7 7 0 0 0 1.406.2c.149.006.362.04.497-.035.021-.011.024-.06-.002-.07M19.35 72.85c-.04-.076-.07-.124-.157-.134a.3.3 0 0 0-.205.052.25.25 0 0 0-.1.17.28.28 0 0 0 .145.28c.086.05.208.057.29-.004.055-.04.07-.105.071-.17a.4.4 0 0 0-.044-.193m-.078.229c-.044.06-.142.074-.204.038-.104-.06-.083-.26.044-.274a.16.16 0 0 1 .114.03c.054.042.092.145.046.206"/><path fill="#ffbda7" d="M31.037 34.461c2.047.37 3.038.891 4.576 3.358s4.663 9.51 4.663 9.51l3.752 7.657-3.471 1.257s-1.69-2.249-3.118-3.998c-1.054-1.292-1.754-2.239-3.143-4.653-1.39-2.414-2.602-4.905-2.602-4.905z"/><path fill="#ba68c8" d="M19.892 48.946c0 .53-1.348 3.192-2.082 6.061 4.415 5.692 17.49 2.586 18.446-.617-.205-3.806-.381-13.42-1.215-15.159-1.491-3.11-4.005-4.77-4.005-4.77-1.188-.252-2.428-.333-2.79-.37a16.3 16.3 0 0 0-4.18.107c-1.239.19-3.272.728-3.272.728-.775.655-2.924 3.414-2.427 6.74.228 1.528 1.528 3.52 1.525 7.28"/><path fill="#fff" d="M19.892 48.946c0 .53-1.348 3.192-2.082 6.061 4.415 5.692 17.49 2.586 18.446-.617-.205-3.806-.381-13.42-1.215-15.159-1.491-3.11-4.005-4.77-4.005-4.77-1.188-.252-2.428-.333-2.79-.37a16.3 16.3 0 0 0-4.18.107c-1.239.19-3.272.728-3.272.728-.775.655-2.924 3.414-2.427 6.74.228 1.528 1.528 3.52 1.525 7.28" opacity=".2"/><path fill="#ffbda7" d="M27.305 55.516c-.149-.326 1.403-.593 1.971-1.298.282-.35.242-1.029-.335-.796-1.211.489-1.905.368-2.708.575"/><path fill="#fafafa" d="M27.963 56.105c-.76.412-1.031 1.31-.827 2.005.367 1.246 1.515 1.191 1.515 1.191a1.89 1.89 0 0 0-.409 1.82c.188.638.958 1.544 2.089 1.212l5.358-1.576c.055 1.683.522 3.057 1.711 4.532s3.34.655 3.204.191c-.136-.463-1.118-2.944-1.057-3.592s1.438-4.956 1.438-4.956l1.279-.361-2.957-10.053-1.27.39-8.864 2.608c-1.16.341-1.723 1.42-1.476 2.26.204.695.59 1.148.59 1.148-.754.222-1.217 1.429-1.047 2.008.256.87.723 1.172.723 1.172"/><path fill="#e0e0e0" d="M40.603 65.48c.137.464-2.014 1.286-3.203-.19s-1.657-2.849-1.712-4.533l.067-.092.954-.27c.807 5.187 2.873 5.358 3.894 5.086"/><path fill="#ba68c8" d="m42.344 56.845 3.862-1.136-3.43-11.666-3.864 1.136z"/><path fill="#000" d="m42.344 56.845 3.862-1.136-3.43-11.666-3.864 1.136z" opacity=".2"/><path fill="#e0e0e0" d="M27.963 56.104s-.467-.303-.723-1.172a1 1 0 0 1-.027-.14c-.073-.612.376-1.662 1.073-1.867 0 0-.385-.454-.59-1.149a1.4 1.4 0 0 1-.05-.259c-.078-.79.483-1.694 1.526-2l1.78-.524c-1.043.307-1.604 1.21-1.525 2.001q.011.132.05.259c.204.695.589 1.148.589 1.148-.698.205-1.147 1.255-1.073 1.868a1 1 0 0 0 .027.14c.255.869.722 1.172.722 1.172-.76.412-1.03 1.31-.826 2.006q.004.015.01.028c.374 1.216 1.505 1.163 1.505 1.163a1.89 1.89 0 0 0-.37 1.934c.24.624.985 1.41 2.05 1.097l-1.78.524c-1.065.313-1.81-.473-2.05-1.097a1.889 1.889 0 0 1 .37-1.934s-1.131.053-1.505-1.163l-.01-.029c-.204-.695.067-1.593.826-2.006"/><path fill="#455a64" d="m39.354 46.431 2.996 10.188-1.31.37c-.133.417-1.367 4.304-1.423 4.906-.046.476.526 2.072.833 2.93.105.292.187.522.22.636.048.162-.089.34-.375.49-.716.375-2.105.431-2.95-.618-1.133-1.405-1.65-2.75-1.723-4.484L30.35 62.4a1.6 1.6 0 0 1-1.46-.253 2.03 2.03 0 0 1-.715-1.005 1.95 1.95 0 0 1 .331-1.777c-.333-.034-1.14-.223-1.438-1.234-.191-.652.018-1.568.77-2.035-.152-.133-.47-.476-.666-1.144-.088-.3-.017-.766.18-1.187.202-.429.497-.741.819-.873a3.6 3.6 0 0 1-.542-1.095c-.129-.436-.05-.937.218-1.373a2.26 2.26 0 0 1 1.305-.974l8.865-2.607zm2.822 10.092-2.917-9.917-1.202.37-8.865 2.608a2.12 2.12 0 0 0-1.225.912c-.247.403-.32.863-.204 1.26.198.672.572 1.12.576 1.124l.07.082-.104.03c-.32.094-.621.398-.826.832-.184.392-.252.82-.172 1.089.244.83.689 1.13.693 1.133l.098.064-.102.056c-.761.413-.977 1.3-.793 1.925.346 1.175 1.398 1.145 1.445 1.14l.17-.007-.115.125c-.162.175-.668.82-.393 1.753.08.272.296.66.665.932.274.204.73.41 1.336.231l5.445-1.601.003.09c.056 1.744.564 3.087 1.695 4.491.796.987 2.103.935 2.777.582.208-.109.331-.24.305-.327-.032-.11-.114-.339-.218-.629-.332-.928-.889-2.483-.84-2.99.06-.648 1.384-4.794 1.44-4.97l.012-.036z"/><path fill="#000" d="m40.629 51.013 3.862-1.137-1.715-5.832-3.863 1.136z" opacity=".2"/><path fill="#f0f0f0" d="M41.848 45.956a.583.583 0 1 1-1.12.33.583.583 0 0 1 1.12-.33"/><path fill="#ffbda7" d="M26.235 53.997c-.803.206-1.443.23-2.65-.084-1.282-.335-5.661-3.943-5.661-3.943l3.01-7.563s1.425-3.345-.139-7.48c-2.976.638-3.689 1.746-4.244 2.705-.541.936-.848 1.832-2.298 5.803-1.256 3.44-1.905 5.464-2.188 6.86-.35 1.73.78 2.634 2.948 3.898 2.167 1.265 3.606 1.93 6.77 3.443 1.523.728 2.459.898 3.852 1.295.692.198 1.117.256 1.618.253s1.011-.093 1.452-.332c.083-.045.155-.097.248-.117.089-.019.18-.026.27-.031.172-.01.348-.013.511-.073.173-.063.316-.184.472-.279.072-.044.135-.098.214-.133.08-.037.164-.062.249-.083.218-.054.456-.091.644-.22.176-.121.158-.309.158-.309s.294-.025.394-.039q.21-.03.409-.104c.052-.02.109-.047.127-.099a.2.2 0 0 0-.003-.096c-.116-.51-.625-.663-1.075-.76-1.169-.251-1.954-.164-3.096-.545-.621-.207-.772-.266-.92-.447"/><path fill="#f0997a" d="M17.925 49.97c-1.123-1.072-2.221-1.72-2.221-1.72s.864-.082 2.4 1.269zM31.415 57.642a9 9 0 0 1-.894.054c-.298.009-.596.007-.892.013-.148 0-.297.01-.449.005q-.225-.009-.448-.033a9 9 0 0 1-.886-.135l.447.024q.223.016.445.025c.149.005.297.013.444.013.146.002.295-.008.445-.01q.449-.006.895.013zM30.455 58.203a3.6 3.6 0 0 1-.682.155 9 9 0 0 1-.687.056q-.345.014-.69.005a5 5 0 0 1-.686-.06c.23-.006.458-.02.686-.028l.685-.029.684-.03c.228-.014.462-.038.69-.069"/><path fill="#ffbda7" d="M47.227 55.173c.706-.118.733-.2.783-.57s.038-1.07-.517-1.591c-.372-.35-.73-.722-1.014-.811-.282-.09-.515.461-.149 1.037.578.908.372 1.105.372 1.105s-.533-.835-.792-1.125c-.26-.29-.892-.659-1.255-.921-.363-.263-.828.08-.435.748l-.666-.48c-.466-.337-.816-.26-.749.305a.84.84 0 0 0 .228.5s-.428-.428-.579-.294c-.432.383-.274.754.341 1.867.524.949.466 1.484.091 1.702l-.246.117s.525.138 1.025.228c.366.067.718.081.957-.355 0 0 .462.48.782.217s.51-.739.51-.739.412.14.741-.225c.33-.364.34-.683.34-.683z"/><path fill="#f0997a" d="M44.218 53.046c.2.147.4.27.578.463.173.207.253.442.346.664.172.453.33.913.424 1.394a8.6 8.6 0 0 1-.624-1.314c-.087-.225-.162-.457-.278-.641-.13-.182-.309-.365-.446-.566M43.032 53.37c.232.125.436.32.581.545.152.223.264.464.368.705.2.487.364.985.46 1.505-.256-.463-.455-.944-.658-1.421s-.383-.952-.751-1.334"/><path fill="#ba68c8" d="M21.224 21.379a3 3 0 0 0-.133.632c-.014.137-.02.277 0 .414.087.644.723 1.117 1.361 1.127s1.24-.368 1.64-.878c.53-.679 1.324-2.278.29-2.846-.677-.373-1.557-.272-2.19.18-.46.33-.791.824-.968 1.37"/><path fill="#000" d="M21.224 21.379a3 3 0 0 0-.133.632c-.014.137-.02.277 0 .414.087.644.723 1.117 1.361 1.127s1.24-.368 1.64-.878c.53-.679 1.324-2.278.29-2.846-.677-.373-1.557-.272-2.19.18-.46.33-.791.824-.968 1.37" opacity=".25"/><path fill="#263238" d="M33.812 20.607c-.69-1-1.918-1.345-2.608-1.017-.626-.846-1.891-1.329-2.934-1.393-3.984-.246-5.271 1.717-5.489 2.447-1.886.265-3.24 3.08-2.1 6.966.496 1.69 3.066 3.707 3.219 4.609l1.819-.61s.147-2.638 2.885-3.711 4.288-1.743 4.703-2.298c1.69-1.696 1.197-3.994.505-4.994"/><path fill="#263238" d="M22.378 17.79c-1.06.128-1.729.665-1.929 1.686-.945-.136-1.982.039-2.684.754-.497.506-.662 1.149-.611 1.849.046.63.374.967.764 1.406-.697.263-1.068 1.085-.847 1.838.13.44 1.79 2.071.456 2.203.608.42 1.636.062 1.566-.77-.007 1.042.74 1.866 1.797 1.912 1.488.065 2.694-.755 3.049-2.197l.708-7.37c-.292-.942-1.238-1.435-2.27-1.311"/><path fill="#ffbda7" d="M33.29 23.675c.094.421.149.88.188 1.31.076.857.11 1.788.074 2.645-.13 3.14-.996 4.307-1.833 4.701-.523.245-1.6.484-2.625.272l.037 1.9s2.857 1.922.3 2.657c-.974.28-2.993-.135-4.12-1.024-1.146-.903-1.434-1.434-1.434-1.434l-.048-4.526s-.986.918-2.195-.368c-.86-.916-1.06-2.862.078-3.463.934-.493 1.785-.133 2.199.617.429.779 1.22.482 1.206-.415-.014-.907.046-1.174.342-1.634 1.002-1.56.297-2.031 1.23-2.93.537-.518 1.992-.71 3.093.124 1.277-1.127 3.018-.639 3.509 1.568"/><path fill="#f0997a" d="m29.635 24.802.664 3.54 1.761-.826zM29.096 32.604c-2.401-.503-3.785-1.461-4.216-2.427 0 0 .2 1.294 1.305 1.996 1.16.736 2.922 1.043 2.922 1.043z"/><path fill="#263238" d="m31.622 23.882 1.087.561a.587.587 0 0 1-.806.278.643.643 0 0 1-.281-.84M26.928 24.6l1.204-.517a.63.63 0 0 1-.32.855.69.69 0 0 1-.884-.339M32.37 25.737c.09.248-.083.333-.323.418-.24.086-.455.14-.544-.109a.47.47 0 0 1 .272-.605.47.47 0 0 1 .596.296"/><path fill="#263238" d="M31.546 25.534c.104-.063.227-.1.345-.129a1 1 0 0 1 .357-.022c.198.027.304.073.365.102.008.004.017.031.002.03-.098-.01-.184-.026-.326-.029a1.7 1.7 0 0 0-.4.053c-.181.046-.251.07-.452.174a2 2 0 0 0-.146.082c-.013.01-.025-.025-.018-.037.057-.095.18-.167.273-.224M27.72 25.904c-.055.259.128.319.377.371.25.053.47.077.525-.182a.47.47 0 0 0-.352-.563.47.47 0 0 0-.55.374"/><path fill="#263238" d="M28.508 25.592a1.2 1.2 0 0 0-.36-.08 1 1 0 0 0-.356.025 1.1 1.1 0 0 0-.348.151c-.007.005-.012.033.002.03.096-.024.18-.05.32-.073.117-.019.284-.015.402-.002.187.021.26.036.472.111.05.018.146.056.156.062.014.008.021-.029.013-.04-.07-.086-.201-.14-.3-.184"/><path fill="#b16668" d="M29.8 29.483c.06-.062-.057-.218-.099-.254a1.425 1.425 0 0 0-.531-.264 1.25 1.25 0 0 0-.789.038c-.046.02-.033.088-.012.12q.02.03.055.049c.023.011.05.017.075.01l-.009-.001.02-.001q.056-.012.113-.023.09-.018.181-.02a1.2 1.2 0 0 1 .637.171q.116.072.227.154c.036.025.069.057.114.034z"/></svg>