<svg xmlns="http://www.w3.org/2000/svg" width="126" height="126" fill="none" viewBox="0 0 126 126"><path fill="#d5faf6" d="M108.986 84.955s24.98-38.92 13.469-63.81C110.943-3.742 83.468-3.884 73.969 6.518c-5.805 6.357-4.113 16.977-17.857 21.085-8.407 2.513-14.528-1.516-27.061-5.886-12.534-4.37-27.085 5.13-28.874 20.298-2.006 17.026 13.49 25.926 21.997 32.054s4.199 16.294 7.726 25.813c3.526 9.519 60.409 19.623 79.086-14.926"/><path fill="#fff" d="M121.345 42.015s1.9-21.998-12.36-32.933C96.721-.323 84.461 4.237 80.603 8.369s.363 9.12 11.022 8.407c10.658-.712 26.823 6.65 29.72 25.239"/><path fill="#d2edff" d="M53.43 126c7.503 0 13.585-1.315 13.585-2.937s-6.082-2.936-13.585-2.936-13.585 1.314-13.585 2.936S45.927 126 53.43 126M101.626 123.063c7.503 0 13.585-1.314 13.585-2.936s-6.082-2.937-13.585-2.937c-7.502 0-13.585 1.315-13.585 2.937s6.083 2.936 13.585 2.936"/><path fill="#d2edff" d="M80.013 120.127c19.47 0 35.252-1.315 35.252-2.937s-15.783-2.936-35.252-2.936-35.252 1.315-35.252 2.936c0 1.622 15.783 2.937 35.252 2.937"/><path fill="#d2edff" d="M37.217 118.128c19.47 0 35.252-1.315 35.252-2.937s-15.783-2.936-35.252-2.936-35.252 1.315-35.252 2.936c0 1.622 15.783 2.937 35.252 2.937"/><path fill="#acdaff" d="M28.925 79.884c12.366 0 22.39-10.025 22.39-22.39s-10.024-22.39-22.39-22.39c-12.365 0-22.39 10.024-22.39 22.39 0 12.365 10.025 22.39 22.39 22.39"/><path fill="#e6ffff" d="M28.925 76.887c10.711 0 19.394-8.683 19.394-19.393S39.636 38.1 28.925 38.1 9.532 46.783 9.532 57.494s8.683 19.393 19.393 19.393"/><path fill="#fffaff" d="M35.862 58.249c2.705-4.088 2.992-11.454 1.633-15.377a16.87 16.87 0 0 0-8.437-2.328C19.698 40.471 12.05 48 11.976 57.36a16.9 16.9 0 0 0 1.707 7.548c.132.019.271.007.394.058 6.191 2.581 16.7.968 21.785-6.717" opacity=".57"/><path fill="#acdaff" d="M29.024 44.42a.595.595 0 0 0 .598-.588l.028-3.63a.594.594 0 0 0-.588-.598.595.595 0 0 0-.598.589l-.028 3.63a.595.595 0 0 0 .588.597M28.78 75.38a.594.594 0 0 0 .598-.588l.029-3.63a.594.594 0 0 0-.589-.597.594.594 0 0 0-.597.588l-.029 3.63a.595.595 0 0 0 .589.597M41.992 57.595a.594.594 0 0 0 .588.598l3.63.028a.595.595 0 0 0 .598-.588.595.595 0 0 0-.588-.597l-3.63-.029a.595.595 0 0 0-.598.588M11.032 57.352a.595.595 0 0 0 .588.598l3.63.028a.595.595 0 0 0 .598-.588.594.594 0 0 0-.588-.597l-3.63-.029a.595.595 0 0 0-.598.588M36.987 44.368a.593.593 0 1 0 0-1.185.593.593 0 0 0 0 1.185M20.86 71.802a.593.593 0 1 0 0-1.185.593.593 0 0 0 0 1.185M42.764 50.239a.593.593 0 1 0 0-1.186.593.593 0 0 0 0 1.186M15.08 65.934a.593.593 0 1 0 0-1.185.593.593 0 0 0 0 1.185M42.642 66.149a.593.593 0 1 0 0-1.185.593.593 0 0 0 0 1.185M15.207 50.021a.593.593 0 1 0 0-1.185.593.593 0 0 0 0 1.185M36.77 71.928a.593.593 0 1 0 0-1.185.593.593 0 0 0 0 1.185M21.076 44.244a.593.593 0 1 0 0-1.185.593.593 0 0 0 0 1.185"/><path fill="#ffbc00" d="M34.943 53.036c1.773-.692 10.046-4.25 10.046-4.25l.03.056.06.112.031.057s-7.53 4.94-9.084 6.039-7.065 2.815-7.065 2.815l-.1-.187-.06-.112-.1-.187s4.47-3.651 6.242-4.343M23.3 58.696c-1.357-.21-7.796-.899-7.796-.899l-.001-.064-.002-.127-.001-.064s6.416-.881 7.766-1.133c1.35-.25 5.426.787 5.426.787l.003.212.002.127.004.212s-4.044 1.16-5.4.949"/><path fill="#acdaff" d="M28.926 58.679a1.186 1.186 0 1 0 0-2.372 1.186 1.186 0 0 0 0 2.371M17.157 81.705l-5.274 31.59a.597.597 0 0 0 1.172.225l6.905-31.815zM22.255 79.808l-3.716 31.811a.597.597 0 0 0 1.182.167l5.334-32.116zM44.057 81.705l5.273 31.59a.597.597 0 0 1-1.171.225l-6.905-31.815zM38.958 79.808l3.716 31.811a.597.597 0 0 1-1.181.167L36.159 79.67z"/><path fill="#2099ff" d="M48.519 82.441H13.225a1.463 1.463 0 0 1-1.459-1.459c0-.802.657-1.458 1.459-1.458h35.294c.802 0 1.459.656 1.459 1.458 0 .803-.657 1.46-1.46 1.46"/><path fill="#6cb7d8" d="m13.66 106.816-.09-.032c.01-.03 1.053-3.022.452-6.564-.553-3.265-2.66-7.681-9.547-10.173l.032-.09c3.06 1.107 5.446 2.682 7.09 4.681 1.318 1.6 2.165 3.475 2.52 5.57.603 3.565-.447 6.578-.458 6.608"/><path fill="#6cb7d8" d="M5.442 90.37s-1.811.273-2.745-.56.658-1.237 2.745.56M7.32 91.26s-.568-2.397-1.448-2.868-1.004 1.235 1.447 2.867M7.032 91.095s-2.437-.348-3.198.3c-.76.647.784 1.385 3.198-.3M8.53 92.013s-2.438-.347-3.2.3c-.76.647.784 1.386 3.2-.3M10.038 93.078s-2.437-.347-3.198.3c-.76.647.784 1.386 3.198-.3M11.498 94.55s-2.402-.542-3.212.043c-.81.584.67 1.444 3.212-.043M12.832 96.503s-2.233-1.038-3.148-.638c-.916.399.349 1.553 3.148.638M13.804 98.898s-1.783-1.698-2.778-1.613c-.995.086-.167 1.583 2.778 1.613M14.229 101.695s-1.114-2.196-2.08-2.448c-.967-.251-.686 1.437 2.08 2.448M14.12 104.444s-.579-2.393-1.461-2.86-.998 1.24 1.46 2.86M8.998 92.303s.24-2.106-.57-3.232c-.811-1.127-1.084.165-.773.892.311.726 1.343 2.34 1.343 2.34M10.228 93.278s.569-2.041-.053-3.282c-.622-1.24-1.096-.008-.904.758.193.767.956 2.524.956 2.524M11.37 94.427s1.027-1.854.71-3.205c-.318-1.35-1.065-.262-1.056.529.01.79.346 2.676.346 2.676M12.486 95.907s1.027-1.854.71-3.204c-.318-1.351-1.065-.263-1.055.528.01.79.345 2.676.345 2.676M13.458 97.93s1.257-1.706 1.116-3.086-1.021-.397-1.114.387c-.092.786-.003 2.699-.003 2.699M14.112 100.617s1.558-1.436 1.682-2.818-.928-.584-1.167.17c-.24.753-.515 2.648-.515 2.648M14.221 103.059s1.815-1.094 2.214-2.423c.4-1.329-.791-.758-1.177-.068-.386.689-1.037 2.491-1.037 2.491M25.352 102.105l.09-.032c-.01-.03-1.054-3.022-.453-6.564.554-3.265 2.66-7.68 9.547-10.172l-.032-.09c-3.06 1.106-5.446 2.681-7.09 4.68-1.318 1.6-2.165 3.475-2.52 5.57-.603 3.565.447 6.578.458 6.608"/><path fill="#6cb7d8" d="M33.57 85.66s1.81.273 2.744-.56-.657-1.236-2.745.56M31.692 86.548s.567-2.396 1.447-2.867 1.005 1.235-1.447 2.867M31.981 86.384s2.437-.347 3.198.3c.76.647-.784 1.386-3.198-.3M30.482 87.302s2.438-.347 3.199.3-.784 1.386-3.199-.3M28.976 88.368s2.438-.348 3.198.3c.761.646-.783 1.385-3.198-.3M27.514 89.839s2.402-.541 3.211.043c.81.584-.67 1.444-3.211-.043M26.182 91.794s2.232-1.038 3.147-.64c.916.4-.348 1.554-3.147.64M25.21 94.187s1.783-1.698 2.778-1.613c.995.086.167 1.584-2.778 1.613M24.785 96.984s1.113-2.195 2.08-2.447c.966-.252.686 1.436-2.08 2.447M24.894 99.733s.579-2.393 1.461-2.86.998 1.24-1.461 2.86M30.015 87.592s-.239-2.106.571-3.232 1.084.165.772.892c-.31.726-1.343 2.34-1.343 2.34M28.787 88.567s-.57-2.041.052-3.282c.622-1.24 1.096-.008.904.759-.193.766-.956 2.523-.956 2.523M27.643 89.717s-1.027-1.854-.709-3.204 1.064-.263 1.055.528c-.01.79-.346 2.676-.346 2.676M26.527 91.196s-1.027-1.853-.71-3.204c.318-1.351 1.065-.263 1.056.528-.01.79-.346 2.676-.346 2.676M25.556 93.22s-1.257-1.705-1.116-3.086 1.021-.397 1.114.388c.092.785.002 2.698.002 2.698M24.9 95.906s-1.558-1.436-1.681-2.818c-.124-1.382.927-.584 1.167.17.24.753.515 2.648.515 2.648M24.79 98.348s-1.815-1.094-2.214-2.423c-.4-1.329.791-.758 1.178-.068s1.036 2.491 1.036 2.491"/><path fill="#82c4e8" d="M14.859 98.002s-2.117-6.265-.212-8.064-.459-4.352.101-6.016 2.61-2.651 3.505.4c.894 3.051 1.148 3.146 3.395 3.286s2.075 4.666 1.677 6.748c-.397 2.082 1.81-1.207 2.478 1.028s-2.567 6.843-5.968 9.245c-3.402 2.402-7.563-4.429-7.277-6.138s1.534.579 2.3-.49"/><path fill="#6cb7d8" d="M15.158 89.264c-.118.234-.283.46-.511.675-1.905 1.8.211 8.064.211 8.064-.766 1.068-2.015-1.219-2.3.49-.286 1.708 3.875 8.539 7.277 6.137q.273-.195.545-.406c-.394-5.344-2.199-10.467-5.222-14.96"/><path fill="#98cff4" d="M18.676 105.223a.15.15 0 0 1-.26-.129c.016-.085 1.585-8.655-2.378-21.078a.15.15 0 1 1 .287-.091c3.988 12.5 2.403 21.14 2.387 21.226a.15.15 0 0 1-.036.072"/><path fill="#98cff4" d="m17.229 87.7-2.005-1.615a.15.15 0 1 1 .19-.234l1.733 1.397.914-1.532a.15.15 0 1 1 .259.155zM22.13 88.928l-.01.01-3.9 3.568-3.098-2.105a.15.15 0 0 1 .17-.249l2.9 1.971 3.725-3.407a.15.15 0 0 1 .213.212M22.976 93.902l-.005.005-4.133 4.168-4.08-3.253a.15.15 0 1 1 .187-.236l3.87 3.084 3.942-3.975a.15.15 0 0 1 .219.207"/><path fill="#98cff4" d="m24.75 96.84-.003.004-5.901 5.996-5.058-3.538a.151.151 0 0 1 .172-.247l4.85 3.391 5.722-5.813a.15.15 0 0 1 .219.207"/><path fill="#98cff4" d="M13.908 106.055s-4.624-2.314-4.556-4.362-2.651-2.165-3.256-3.397-.01-2.91 2.167-1.707 2.369 1.115 3.694-.044c1.326-1.159 3.72 1.45 4.647 2.824.925 1.376.34-1.666 1.942-.793 1.6.874 2.342 5.214 1.774 8.421-.567 3.206-6.638 1.703-7.42.597s1.17-.524 1.008-1.539"/><path fill="#82c4e8" d="M9.263 101.037c.063.195.096.412.088.656-.068 2.048 4.557 4.362 4.557 4.362.162 1.015-1.79.433-1.008 1.539.781 1.106 6.853 2.609 7.42-.598q.045-.259.079-.526c-3.161-2.75-6.983-4.602-11.136-5.433"/><path fill="#acdaff" d="M20.003 107.963a.118.118 0 0 1-.215.071c-.038-.056-3.884-5.679-12.925-10.397a.118.118 0 1 1 .11-.209c9.097 4.748 12.973 10.418 13.01 10.475a.1.1 0 0 1 .02.06"/><path fill="#acdaff" d="m9.55 99.03-2.002.206a.118.118 0 1 1-.024-.234l1.733-.179-.336-1.353a.118.118 0 1 1 .229-.057zM12.952 97.012v.011l-.202 4.129-2.88.536a.118.118 0 0 1-.043-.232l2.696-.502.193-3.942a.118.118 0 0 1 .236 0M16.158 99.31v.005l-.001 4.589-4.057.441a.12.12 0 0 1-.13-.105.12.12 0 0 1 .105-.13l3.847-.417v-4.378a.118.118 0 0 1 .236-.005"/><path fill="#acdaff" d="M18.763 99.963v.005l.023 6.578-4.756.82a.118.118 0 1 1-.04-.232l4.56-.787-.023-6.378a.118.118 0 0 1 .236-.006"/><path fill="#acdaff" d="M24.303 105.404s6.095-2.563 6.181-5.182 3.565-2.54 4.44-4.06c.875-1.522.257-3.712-2.621-2.361s-3.117 1.224-4.71-.367c-1.595-1.59-4.87 1.536-6.167 3.213s-.295-2.155-2.411-1.175-3.427 6.455-2.972 10.595c.454 4.139 8.327 2.731 9.418 1.386 1.09-1.346-1.45-.767-1.158-2.049"/><path fill="#98cff4" d="M30.651 99.391a2.4 2.4 0 0 0-.167.83c-.086 2.619-6.18 5.182-6.18 5.182-.294 1.282 2.247.703 1.156 2.048s-8.963 2.754-9.418-1.386a14 14 0 0 1-.057-.678c4.265-3.243 9.298-5.285 14.666-5.996"/><path fill="#d2edff" d="M16.364 107.327a.15.15 0 0 0 .057.136c.066.05.16.038.212-.028.053-.068 5.434-6.92 17.366-12.18a.15.15 0 1 0-.121-.275c-12.008 5.292-17.43 12.202-17.484 12.271a.15.15 0 0 0-.03.076"/><path fill="#d2edff" d="m30.453 96.805 2.537.432a.15.15 0 1 0 .05-.297l-2.195-.374.542-1.7a.15.15 0 1 0-.288-.092zM26.285 93.946l-.001.014-.09 5.285 3.63.927a.15.15 0 1 0 .074-.292l-3.398-.868.085-5.047a.15.15 0 0 0-.3-.019M21.998 96.609v.006l-.385 5.857 5.14.902a.15.15 0 0 0 .174-.122.15.15 0 0 0-.122-.175l-4.873-.856.366-5.586a.15.15 0 0 0-.3-.026"/><path fill="#d2edff" d="m18.62 97.221-.002.006-.582 8.392 6 1.447a.15.15 0 0 0 .182-.111.15.15 0 0 0-.11-.182l-5.754-1.387.565-8.138a.15.15 0 0 0-.3-.027"/><path fill="#82c4e8" d="M42.073 97.606s1.763-5.216.176-6.714.383-3.624-.084-5.009c-.466-1.385-2.173-2.207-2.918.333-.744 2.54-.956 2.62-2.827 2.736s-1.727 3.885-1.396 5.618c.33 1.734-1.507-1.004-2.063.856s2.137 5.698 4.97 7.698 6.296-3.688 6.058-5.11-1.278.481-1.916-.408"/><path fill="#6cb7d8" d="M41.822 90.33c.098.194.235.382.425.561 1.586 1.498-.176 6.714-.176 6.714.638.89 1.678-1.015 1.916.408s-3.227 7.109-6.059 5.11a12 12 0 0 1-.454-.339c.328-4.449 1.83-8.714 4.348-12.455"/><path fill="#98cff4" d="M38.893 103.617a.126.126 0 0 0 .216-.108c-.014-.071-1.32-7.206 1.98-17.55a.125.125 0 0 0-.08-.157.125.125 0 0 0-.158.081c-3.321 10.41-2.002 17.602-1.988 17.673a.12.12 0 0 0 .03.061"/><path fill="#98cff4" d="m40.1 89.028 1.669-1.345a.126.126 0 0 0-.158-.195l-1.444 1.163-.761-1.275a.125.125 0 1 0-.216.128zM36.018 90.05l.008.008 3.247 2.971 2.58-1.753a.126.126 0 0 0-.141-.208l-2.416 1.642-3.1-2.837a.126.126 0 0 0-.178.177M35.314 94.192l.004.004 3.441 3.47 3.398-2.709a.125.125 0 1 0-.157-.196L38.78 97.33l-3.283-3.31a.125.125 0 0 0-.182.173"/><path fill="#98cff4" d="m33.835 96.637.004.004 4.913 4.992 4.212-2.945a.126.126 0 0 0 .03-.175.126.126 0 0 0-.174-.031l-4.038 2.824-4.764-4.841a.125.125 0 0 0-.183.172"/><path fill="#98cff4" d="M34.966 104.879s-4.624-2.314-4.556-4.362-2.651-2.165-3.256-3.397-.01-2.91 2.167-1.707c2.176 1.202 2.369 1.115 3.694-.044 1.326-1.16 3.721 1.45 4.647 2.824.925 1.376.34-1.666 1.942-.793 1.6.874 2.342 5.214 1.774 8.42-.567 3.207-6.638 1.704-7.42.598-.782-1.107 1.17-.524 1.008-1.539"/><path fill="#82c4e8" d="M30.322 99.86c.063.195.096.411.088.656-.068 2.048 4.556 4.362 4.556 4.362.163 1.015-1.79.432-1.008 1.538s6.853 2.61 7.42-.597q.044-.258.08-.526c-3.161-2.751-6.984-4.602-11.136-5.433"/><path fill="#acdaff" d="M41.063 106.786a.12.12 0 0 1-.052.104.12.12 0 0 1-.164-.032c-.038-.056-3.884-5.68-12.925-10.397a.118.118 0 1 1 .11-.209c9.097 4.747 12.973 10.418 13.01 10.474a.1.1 0 0 1 .02.06"/><path fill="#acdaff" d="m30.61 97.853-2.002.207a.118.118 0 1 1-.024-.235l1.732-.178-.335-1.354a.117.117 0 0 1 .086-.143.12.12 0 0 1 .143.087zM34.008 95.837v.01l-.202 4.13-2.88.536a.118.118 0 1 1-.043-.232l2.697-.502.193-3.943a.118.118 0 0 1 .235 0M37.218 98.133v4.595l-4.058.44a.118.118 0 1 1-.025-.234l3.846-.417.002-4.378a.118.118 0 0 1 .235-.006"/><path fill="#acdaff" d="M39.822 98.786v.005l.023 6.578-4.757.821a.118.118 0 0 1-.04-.233l4.56-.786-.022-6.379a.118.118 0 0 1 .236-.006"/><path fill="#82c4e8" d="M28.622 106.182s-4.2-.546-4.698-2.148-2.632-.962-3.431-1.752c-.8-.79-.79-2.248 1.217-1.903 2.006.345 2.132.225 2.846-1.028.713-1.253 3.267.12 4.353.935s-.184-1.38 1.29-1.135 3.213 3.403 3.636 6.036-4.676 3.103-5.579 2.457c-.902-.645.765-.72.366-1.462"/><path fill="#6cb7d8" d="M23.68 103.551q.155.198.245.483c.499 1.603 4.697 2.149 4.697 2.149.4.742-1.268.816-.365 1.461.902.646 6.002.176 5.579-2.457a10 10 0 0 0-.08-.428c-3.185-1.278-6.64-1.682-10.075-1.208"/><path fill="#98cff4" d="M33.85 106.019a.1.1 0 0 1-.012.094.096.096 0 0 1-.135.019c-.044-.033-4.532-3.348-12.794-4.566a.097.097 0 0 1 .028-.191c8.314 1.226 12.837 4.569 12.882 4.603a.1.1 0 0 1 .032.041"/><path fill="#98cff4" d="m23.365 101.92-1.494.698a.096.096 0 0 1-.082-.175l1.292-.604-.623-.957a.097.097 0 0 1 .161-.106zM25.451 99.445l.003.008.954 3.248-2.083 1.19a.097.097 0 0 1-.132-.036.096.096 0 0 1 .036-.132l1.951-1.114-.911-3.101a.097.097 0 0 1 .065-.12.1.1 0 0 1 .117.057M28.549 100.36l.001.004 1.234 3.55-3.02 1.431a.096.096 0 0 1-.129-.046.096.096 0 0 1 .046-.128l2.863-1.357-1.176-3.387a.096.096 0 0 1 .18-.067"/><path fill="#98cff4" d="m30.739 100.164.001.004 1.787 5.082-3.459 1.914a.096.096 0 0 1-.13-.038.097.097 0 0 1 .037-.131l3.316-1.835-1.733-4.928a.097.097 0 0 1 .18-.068"/><path fill="#acdaff" d="M45.358 105.404s6.095-2.563 6.18-5.182c.087-2.619 3.566-2.54 4.44-4.06.876-1.522.258-3.712-2.62-2.361s-3.117 1.224-4.711-.367-4.87 1.536-6.166 3.213-.295-2.155-2.411-1.175-3.427 6.455-2.973 10.595c.454 4.139 8.327 2.731 9.418 1.386 1.09-1.346-1.45-.767-1.157-2.049"/><path fill="#98cff4" d="M51.706 99.391a2.4 2.4 0 0 0-.167.83c-.086 2.619-6.181 5.182-6.181 5.182-.293 1.282 2.248.703 1.157 2.048-1.09 1.346-8.964 2.754-9.418-1.386a14 14 0 0 1-.057-.678c4.265-3.243 9.298-5.285 14.666-5.996"/><path fill="#d2edff" d="M37.417 107.327a.15.15 0 0 0 .058.136c.066.05.16.038.212-.028.052-.068 5.434-6.92 17.366-12.18a.15.15 0 0 0-.122-.276c-12.007 5.293-17.43 12.203-17.483 12.272a.15.15 0 0 0-.03.076"/><path fill="#d2edff" d="m51.506 96.805 2.538.432a.15.15 0 1 0 .05-.297l-2.196-.374.542-1.7a.15.15 0 1 0-.288-.092zM47.339 93.946l-.001.014-.09 5.285 3.63.927a.15.15 0 1 0 .074-.292l-3.398-.868.085-5.047a.15.15 0 0 0-.3-.019M43.052 96.609v.006l-.385 5.856 5.14.903a.15.15 0 0 0 .174-.123.15.15 0 0 0-.122-.174l-4.873-.856.366-5.586a.15.15 0 0 0-.3-.026"/><path fill="#d2edff" d="M39.673 97.221v.006l-.584 8.392 6 1.447a.15.15 0 0 0 .183-.111.15.15 0 0 0-.111-.182l-5.753-1.387.565-8.138a.15.15 0 0 0-.3-.027"/><path fill="#f90" d="M54.644 115.19H9.246l-1.14-10.366h47.678z"/><path fill="#ffbc00" d="M54.976 112.177H8.916l.086.784H54.89zM55.281 109.398H8.61l.167 1.52h46.337zM56.412 104.106H7.394v2.442h49.018z"/><path fill="#144182" d="M96.786 117.543H58.23c-2.729 0-6.97-2.052-6.653-4.78l11.776-81.967c.316-2.729 2.785-4.94 5.514-4.94l36.196-1.412c4.401 0 7.043 3.623 6.727 6.352l-9.491 81.806c-.317 2.728-2.786 4.941-5.514 4.941"/><path fill="#2099ff" d="M93.943 116.107H55.39c-2.73 0-4.685-2.212-4.368-4.941l9.49-81.806c.317-2.729 2.786-4.94 5.515-4.94h38.555c2.729 0 4.684 2.211 4.367 4.94l-9.49 81.806c-.317 2.728-2.786 4.941-5.515 4.941"/><path fill="#acdaff" d="M93.934 114.391H55.796c-2.077 0-3.565-1.683-3.324-3.76l9.4-81.017c.24-2.077 2.12-3.76 4.196-3.76h38.138c2.077 0 3.565 1.683 3.324 3.76l-9.4 81.017c-.24 2.077-2.12 3.76-4.196 3.76"/><path fill="#2099ff" d="M78.33 112.353h-7.95c-.92 0-1.586-.753-1.48-1.674s.948-1.673 1.868-1.673h7.95c.92 0 1.586.753 1.48 1.673-.108.921-.948 1.674-1.869 1.674M67.789 29.72c.534-.504.604-1.3.154-1.776s-1.247-.453-1.782.052c-.535.504-.604 1.3-.155 1.776.45.476 1.248.453 1.783-.051M70.833 29.378c.322-.304.364-.783.093-1.07s-.752-.274-1.074.03-.364.784-.093 1.07c.27.288.751.274 1.074-.03"/><path fill="#fff" d="M96.512 107.094H54.594l8.689-74.89H105.2z"/><path fill="#e6f2ff" d="M99.398 43.759H66.442c-1.013 0-1.738-.82-1.62-1.833l.665-5.738c.118-1.012 1.034-1.833 2.046-1.833h32.956c1.012 0 1.737.82 1.62 1.833l-.666 5.738c-.117 1.012-1.033 1.833-2.045 1.833"/><path fill="#acdaff" d="m69.305 39.697.259-2.227h.342l.791 1.625h-.179l1.152-1.625h.343l-.255 2.227h-.394l.184-1.613h.083l-.977 1.358h-.186l-.675-1.358h.096l-.187 1.612zm3.785.022a.9.9 0 0 1-.454-.112.73.73 0 0 1-.287-.311.8.8 0 0 1-.067-.449.93.93 0 0 1 .17-.448 1 1 0 0 1 .36-.309 1.04 1.04 0 0 1 .48-.11q.266 0 .458.11.195.112.288.306.096.195.066.451a.981.981 0 0 1-.53.76 1.05 1.05 0 0 1-.484.112m.04-.34a.6.6 0 0 0 .27-.064.5.5 0 0 0 .2-.185.6.6 0 0 0 .1-.283.53.53 0 0 0-.034-.283.37.37 0 0 0-.158-.184.577.577 0 0 0-.522 0 .56.56 0 0 0-.2.184.6.6 0 0 0-.1.283.54.54 0 0 0 .034.283q.053.121.158.185a.5.5 0 0 0 .252.063m1.258.318.197-1.699h.381l-.053.458-.051-.14a.7.7 0 0 1 .288-.248.9.9 0 0 1 .407-.089q.205 0 .356.08a.5.5 0 0 1 .228.245q.075.162.044.42l-.113.973h-.4l.107-.923q.026-.225-.07-.337-.093-.111-.285-.111-.142 0-.256.057a.5.5 0 0 0-.19.172.7.7 0 0 0-.09.283l-.1.858zm2.916.022a.85.85 0 0 1-.433-.108.7.7 0 0 1-.272-.306.85.85 0 0 1-.059-.458 1 1 0 0 1 .166-.458q.134-.194.342-.302a1 1 0 0 1 .458-.108.7.7 0 0 1 .373.096.56.56 0 0 1 .236.283q.077.19.042.49-.034.295-.153.49a.8.8 0 0 1-.299.285.85.85 0 0 1-.401.096m.087-.34a.55.55 0 0 0 .468-.249.6.6 0 0 0 .103-.283.5.5 0 0 0-.038-.283.4.4 0 0 0-.16-.184.47.47 0 0 0-.25-.064.6.6 0 0 0-.266.064.58.58 0 0 0-.304.467.54.54 0 0 0 .034.283q.057.121.161.185a.5.5 0 0 0 .252.063m.482.318.046-.401.069-.452.02-.451.123-1.056h.397l-.274 2.36zm1.961 0 .04-.344-.014-.073.07-.601q.02-.175-.075-.27-.093-.1-.308-.1a1 1 0 0 0-.29.045.8.8 0 0 0-.249.124l-.123-.289q.15-.105.345-.156a1.5 1.5 0 0 1 .403-.054q.372 0 .552.178.184.175.142.544l-.115.995zm-.54.022a.8.8 0 0 1-.33-.064.46.46 0 0 1-.202-.181.44.44 0 0 1-.046-.264.55.55 0 0 1 .097-.258.56.56 0 0 1 .248-.181q.165-.067.424-.067h.496l-.03.264h-.468q-.204 0-.283.067a.23.23 0 0 0-.089.159.18.18 0 0 0 .067.172q.079.063.232.063a.56.56 0 0 0 .27-.067.45.45 0 0 0 .193-.197l.04.239a.52.52 0 0 1-.235.232.8.8 0 0 1-.384.083m1.457.617a.8.8 0 0 1-.245-.042.5.5 0 0 1-.194-.114l.194-.293a.42.42 0 0 0 .28.118.3.3 0 0 0 .183-.054.6.6 0 0 0 .146-.181l.125-.223.038-.048.82-1.5h.384l-1.013 1.834q-.103.19-.214.302a.6.6 0 0 1-.236.156.8.8 0 0 1-.268.045m.42-.58-.568-1.758h.416l.458 1.466zm2.486-.06.24-2.067.16.188h-.656l.04-.347h.89l-.258 2.227zm1.22 0 .24-2.067.16.188h-.656l.04-.347h.89l-.258 2.227zm1.108.023a.23.23 0 0 1-.178-.073.23.23 0 0 1-.055-.191.28.28 0 0 1 .1-.191.3.3 0 0 1 .194-.073q.108 0 .177.073.069.07.055.19a.293.293 0 0 1-.294.265m1.428.01a.8.8 0 0 1-.465-.134.77.77 0 0 1-.288-.388 1.4 1.4 0 0 1-.05-.624q.043-.365.194-.62.151-.258.378-.39a.97.97 0 0 1 .496-.135q.27 0 .465.134.195.135.287.391.096.255.053.62a1.54 1.54 0 0 1-.197.624q-.15.255-.378.388a.96.96 0 0 1-.495.133m.041-.36a.5.5 0 0 0 .282-.083.65.65 0 0 0 .21-.26q.087-.176.118-.443.031-.27-.016-.442a.45.45 0 0 0-.15-.257.4.4 0 0 0-.262-.086q-.15 0-.278.086a.65.65 0 0 0-.213.257 1.4 1.4 0 0 0-.115.442q-.031.267.013.442a.5.5 0 0 0 .152.261.42.42 0 0 0 .26.083m2.113.36a.8.8 0 0 1-.465-.134.77.77 0 0 1-.288-.388 1.4 1.4 0 0 1-.05-.624q.043-.365.194-.62.151-.258.379-.39a.97.97 0 0 1 .495-.135q.27 0 .465.134.195.135.288.391.094.255.053.62a1.54 1.54 0 0 1-.198.624q-.15.255-.378.388a.96.96 0 0 1-.495.133m.041-.36a.5.5 0 0 0 .282-.083.65.65 0 0 0 .21-.26q.087-.176.118-.443.032-.27-.016-.442a.45.45 0 0 0-.15-.257.4.4 0 0 0-.262-.086q-.15 0-.278.086a.64.64 0 0 0-.213.257 1.4 1.4 0 0 0-.115.442q-.03.267.013.442a.5.5 0 0 0 .152.261.42.42 0 0 0 .26.083m1.91.328 1.266-2.227h.41l.754 2.227h-.436l-.635-2.007h.167l-1.097 2.007zm.523-.516.15-.324h1.21l.075.324zm2.192.516.258-2.227h.342l.791 1.625h-.179l1.152-1.625h.343l-.255 2.227h-.394l.184-1.613h.083l-.977 1.358h-.186l-.675-1.358h.096l-.187 1.612z"/><path fill="#e6f2ff" d="M70.914 54.067h-7.5l.87-7.501h7.5z"/><path fill="#acdaff" d="M80.62 54.067h-7.5l.87-7.5h7.5z"/><path fill="#e6f2ff" d="M90.328 54.067h-7.502l.87-7.501h7.502zM100.034 54.067h-7.501l.87-7.501h7.501zM69.8 63.66h-7.5l.87-7.501h7.501zM79.508 63.66h-7.502l.87-7.501h7.502zM89.214 63.66h-7.502l.87-7.501h7.502zM98.922 63.66H91.42l.87-7.501h7.502zM68.687 73.252h-7.501l.87-7.502h7.502zM78.394 73.252h-7.501l.87-7.502h7.501zM88.101 73.251h-7.5l.87-7.501h7.5zM97.808 73.252h-7.501l.87-7.502h7.501zM67.574 82.844h-7.501l.87-7.501h7.501zM77.28 82.844h-7.501l.87-7.501h7.501zM86.987 82.844h-7.502l.87-7.501h7.502zM96.693 82.844h-7.501l.87-7.501h7.502zM65.73 98.36c.07-.588.603-1.067 1.192-1.067H73.7c.636 0 1.226-.365 1.538-.954.311-.588.258-1.233-.14-1.683l-2.631-2.977a1.36 1.36 0 0 0-1.04-.453h-8.245a.924.924 0 0 1-.924-.715l-.349-1.5c-.077-.33.014-.683.25-.969a1.2 1.2 0 0 1 .922-.449h11.372c.282 0 .536.11.714.308l4.257 4.747q.056-.314.121-.623l-4.003-4.465a1.37 1.37 0 0 0-1.034-.445H63.136c-.507 0-.994.237-1.335.65-.342.414-.474.925-.362 1.404l.349 1.5c.144.62.682 1.036 1.338 1.036h8.245c.285 0 .54.11.718.312l2.631 2.977c.329.371.265.844.096 1.163-.169.318-.536.658-1.062.658h-6.778c-.852 0-1.625.693-1.724 1.545l-.182 1.572c-.1.852.513 1.545 1.365 1.545h7.49c.588 0 1.01.479.94 1.085-.068.588-.602 1.067-1.19 1.067H58.694l-.056.478H73.62c.852 0 1.626-.693 1.727-1.563.098-.852-.514-1.545-1.366-1.545h-7.49c-.587 0-1.01-.479-.942-1.067z"/><path fill="#acdaff" d="M82.207 88.802c-.142 1.22-2.725 4.456-2.725 4.456s-1.832-3.237-1.691-4.456 1.245-2.208 2.464-2.208c1.22 0 2.093.988 1.952 2.208"/><path fill="#fff" d="M80.776 89.517c.505-.477.57-1.227.146-1.676-.424-.45-1.177-.428-1.681.048-.505.476-.57 1.227-.147 1.676.425.45 1.178.428 1.682-.049"/><path fill="#acdaff" d="M60.83 105.142c.788-.744.89-1.917.227-2.619-.662-.702-1.839-.668-2.628.076-.788.744-.89 1.917-.227 2.619.662.702 1.839.668 2.628-.076"/><path fill="#fff" d="M60.248 104.527c.407-.384.46-.989.117-1.352-.342-.362-.949-.345-1.356.039s-.46.99-.118 1.352c.343.363.95.345 1.357-.039"/><path fill="#f90" d="M42.22 69.54s3.94-5.736 4.565-7.1c.625-1.366.693-2.527-.286-3.236-.98-.709-2.784-1.265-4.38.983-1.594 2.248-4.543 9.152-4.664 11.312s9.648 8.7 10.516 9.122c.956-.25 1.362-1.678 1.362-1.678s-6.307-8.008-7.113-9.402"/><path fill="#f79e77" d="M45.453 116.999s.198 1.133-.45 2.842-.683 2.249 0 2.627c.684.377 1.17.485 3.077 0 1.906-.486 4.03-1.547 4.03-1.547s-2.07-1.314-2.573-1.871c-.504-.558-1.565-2.555-1.547-2.843s-2.537.792-2.537.792"/><path fill="#0c2c51" d="M50.638 119.934c-.767.512-1.5 1.071-2.483.93-.788-.197-1.084-.986-1.577-1.577-.34-.272-.868-.357-1.324-.221a8 8 0 0 1-.25.775c-.648 1.709-.684 2.249 0 2.627.683.377 1.169.485 3.076 0 1.906-.486 4.03-1.548 4.03-1.548s-.76-.482-1.472-.986"/><path fill="#ffb797" d="M68.584 57.971 70.972 59c.792-.981 1.387-1.72 1.775-1.801 1.01.135 1.445-.292 1.715-.638.27-.345-.068-.543-.024-.675.28-.41-.194-.572-.118-.67.293-.342.239-.528.062-.621-.177-.094-.475-.181-.42-.353.054-.173.78-.632 1.412-.93.632-.3 1.327-.78.942-1.032-.384-.253-3.972 1.471-4.644 2.207-.671.735-.498 1.518-1.34 2.328-.306.294-.983.73-1.748 1.157"/><path fill="#ffae83" d="M47.947 116.651s.168 2.326-.575 4.221c-.744 1.895-.528 2.735.815 3.119 1.344.384 2.087-.528 3.838-.48s4.078-.144 4.677-1.751c.6-1.607-2.2-.889-3.894-1.392-1.695-.503-.941-3.477-.941-3.477z"/><path fill="#0f3163" d="M52.856 120.335c-.152.509 1.23 1.047.821 1.318-1.479 1.085-3.254-.788-4.93-1.38-.342-.171-.749-.177-1.146-.095q-.096.353-.23.695c-.743 1.895-.527 2.734.816 3.118 1.344.384 2.087-.528 3.838-.479 1.751.048 5.063-.284 5.663-1.891.593-1.591-3.133-.813-4.833-1.286"/><path fill="#0c2c51" d="M57.482 120.853q-.014.056-.036.116c-.6 1.607-3.911 1.939-5.663 1.891-1.75-.048-2.494.864-3.837.48-.461-.132-.786-.319-.988-.583.057.639.455 1.013 1.229 1.234 1.343.383 2.086-.528 3.837-.48s5.063-.284 5.663-1.891c.138-.368.042-.608-.205-.767"/><path fill="#144182" d="M50.778 86.813a4.26 4.26 0 0 1-1.933-1.794c-.792-1.415-.73-3.102-.442-3.963.432-1.295 2.159-4.557 2.159-4.557l-4.246-.786s-1.907 3.292-2.878 5.883c-.972 2.59-.18 5.325.287 7.376.468 2.05 1.656 7.915 1.152 10.11s-1.44 5.541-1.187 8.095 1.51 8.635 1.475 10.002c.425.19.84.255 1.225.246 1.146-.028 2.013-.714 2.013-.714s.288-10.47 1.367-15.075c1.08-4.605 2.16-13.168 1.008-14.823"/><path fill="#0f3163" d="M50.777 86.813a4.26 4.26 0 0 1-1.933-1.794c-1.797-.849-.544-4.146-.69-6.181-.71 1.964-3.433 5.506.287 9.919 1.323 1.229.031 10.873-1.104 15.223-1.017 3.688-.572 9.611-.392 13.379.858-.176 1.457-.647 1.457-.647s.288-10.471 1.367-15.076c1.08-4.605 2.16-13.168 1.008-14.823"/><path fill="#144182" d="M57.566 76.45s1.248 4.75.864 9.835-3.79 13.624-4.173 15.495c-.384 1.871-.912 7.251-1.392 9.67s-.72 4.674-.455 5.297c-1.128 1.199-4.126 1.056-4.798 0 .24-4.941.12-9.186 1.056-12.521.935-3.334.36-4.197.744-6.284.383-2.087.767-8.54.96-9.307.191-.767-1.728-1.151-2.423-2.399s-2.135-4.245 1.847-10.362c4.244-.143 7.77.576 7.77.576"/><path fill="#164e91" d="M57.566 76.45s-3.526-.72-7.771-.576q-.118.183-.23.362c3.502.045 6.184.592 6.184.592s1.247 4.75.863 9.834c-.383 5.085-3.104 13.483-3.487 15.354-.384 1.871-.536 7.007-1.016 9.426-.413 2.086-.489 4.681-.333 5.757.244-.122.462-.269.633-.452-.263-.623-.024-2.878.456-5.297s1.008-7.799 1.391-9.67c.384-1.871 3.79-10.41 4.174-15.495.383-5.086-.864-9.835-.864-9.835"/><path fill="#ffae83" d="M55.383 47.763s.36 4.27-.12 5.588c-.48 1.32-.96 2.28-1.224 2.543-.263.264-1.534-.216-1.786 0s-.228 2.686-.228 2.686l-3.526-.144s.407-4.46.72-5.684c.311-1.224 5.804-5.085 6.164-4.99"/><path fill="#fa0" d="M47.037 58.353s2.734-1.367 4.965-.288c2.23 1.08 5.72 5.613 6.26 6.477s.9 2.806 0 4.569c-.899 1.763-.575 6.944-.108 7.843-3.777 1.115-9.642.396-12.34-.791 1.51-2.195 2.303-3.022 1.223-5.433s-2.375-9.247 0-12.377"/><path fill="#f90" d="M56.563 69.443c.899-1.763.54-3.706 0-4.57-.54-.863-4.03-5.396-6.26-6.476-.771-.373-1.6-.45-2.357-.397-.555.176-.91.352-.91.352-2.375 3.13-1.08 9.967 0 12.377 1.079 2.41.287 3.238-1.224 5.433 2.27 1 6.783 1.667 10.408 1.189q.119-.031.235-.065c-.468-.9-.792-6.08.108-7.843"/><path fill="#ffbc00" d="M60.817 63.57s-5.694-4.002-7.052-4.642c-1.359-.639-2.519-.72-3.238.252-.72.972-1.296 2.77.935 4.39s9.103 4.641 11.262 4.785c2.158.144 8.803-9.553 9.234-10.417-.24-.96-1.664-1.38-1.664-1.38s-8.074 6.22-9.477 7.012"/><path fill="#ff69a6" d="M51.462 63.569c-.076-.055-.14-.107-.21-.16q.1.08.21.16"/><path fill="#ffd815" d="M50.387 60.12c.72-.972 1.88-.892 3.238-.253 1.359.64 6.835 4.218 6.835 4.218 1.403-.791 9.834-7.529 9.834-7.529s-8.074 6.222-9.478 7.013c0 0-5.693-4.002-7.052-4.641s-2.518-.72-3.238.252c-.336.454-.641 1.09-.642 1.803.1-.293.288-.573.503-.864"/><path fill="#144182" d="M55.12 45.748c-1.632-1.631-4.654-2.255-4.654-2.255-2.565-.87-4.557 1.535-5.133 3.694s-.293 4.67-1.175 7.507c-.447 1.383-6.834 11.277 1.54 18.442 2.129 1.052 3.758 1.515 6.059-.26-2.424-5.764-1.658-11.295-1.17-12.954.473-1.603 1.444-1.663 2.336-1.332l.122.048a8 8 0 0 0-.317-.554c-.45-1.338-.027-4.113.892-5.093 1.08-1.151 1.583-3.022 1.763-4.39.252 1.62-.324 2.627-.72 3.203 1.548-1.187 2.087-4.425.456-6.056"/><path fill="#0f3163" d="M44.848 67.197C43.903 60.58 46.55 53.77 49.01 47.53c.736-1.913 2.845-2.795 4.992-2.647-1.607-.991-3.535-1.39-3.535-1.39-2.565-.87-4.557 1.535-5.133 3.694s-.293 4.67-1.175 7.507c-.447 1.383-6.834 11.277 1.54 18.442 1.72.85 3.115 1.316 4.802.525-.72-.128-1.561-.598-1.74-.743-1.891-1.324-3.533-3.451-3.912-5.72"/><path fill="#82c4e8" d="M95.594 73.2s-3.627-10.737-.362-13.82c3.265-3.085-.787-7.461.173-10.312s4.475-4.545 6.007.685 1.967 5.392 5.82 5.633 3.556 7.997 2.875 11.566 3.102-2.068 4.247 1.762c1.144 3.831-4.4 11.73-10.231 15.847S91.161 76.969 91.65 74.04c.49-2.93 2.63.991 3.944-.84"/><path fill="#6cb7d8" d="M96.107 58.222c-.202.401-.485.788-.875 1.157-3.266 3.084.362 13.821.362 13.821-1.314 1.832-3.454-2.088-3.944.84s6.642 14.637 12.473 10.52c.313-.22.625-.455.936-.696-.677-9.16-3.77-17.94-8.952-25.642"/><path fill="#98cff4" d="M102.141 85.578a.258.258 0 0 1-.445-.222c.028-.146 2.717-14.836-4.077-36.13a.258.258 0 1 1 .492-.157c6.837 21.429 4.121 36.237 4.092 36.384a.25.25 0 0 1-.062.125"/><path fill="#98cff4" d="m99.659 55.542-3.436-2.769a.258.258 0 1 1 .324-.402l2.973 2.395 1.567-2.625a.258.258 0 0 1 .444.265zM108.06 57.648q-.008.01-.018.017l-6.685 6.116-5.31-3.609a.258.258 0 1 1 .29-.427l4.973 3.379 6.384-5.84a.258.258 0 0 1 .366.364M109.508 66.174l-.008.009-7.084 7.143-6.994-5.576a.258.258 0 1 1 .322-.405l6.632 5.287 6.757-6.813a.258.258 0 0 1 .375.355"/><path fill="#98cff4" d="m112.557 71.208-.007.008-10.115 10.276-8.67-6.063a.259.259 0 0 1 .295-.424l8.313 5.814 9.809-9.966a.258.258 0 0 1 .375.355M94.101 97.047s-7.926-3.966-7.81-7.476c.115-3.51-4.544-3.71-5.58-5.822s-.018-4.988 3.713-2.927c3.73 2.06 4.06 1.911 6.333-.076 2.272-1.987 6.378 2.484 7.964 4.841s.585-2.857 3.329-1.36 4.014 8.937 3.042 14.433-11.379 2.92-12.719 1.024 2.007-.896 1.728-2.637"/><path fill="#82c4e8" d="M86.14 88.446c.108.334.164.705.15 1.124-.116 3.51 7.81 7.477 7.81 7.477.28 1.74-3.068.742-1.727 2.638s11.746 4.472 12.719-1.024q.077-.444.136-.902c-5.419-4.715-11.97-7.889-19.088-9.313"/><path fill="#acdaff" d="M104.549 100.317a.2.2 0 0 1-.089.176.2.2 0 0 1-.28-.055c-.065-.096-6.66-9.735-22.155-17.82a.202.202 0 1 1 .187-.358c15.595 8.136 22.238 17.856 22.303 17.953a.2.2 0 0 1 .034.104"/><path fill="#acdaff" d="m86.634 85.003-3.432.354a.202.202 0 0 1-.041-.402l2.97-.306-.576-2.32a.202.202 0 0 1 .392-.097zM92.46 81.546v.02l-.345 7.076-4.936.92a.202.202 0 1 1-.074-.397l4.622-.862.33-6.757a.202.202 0 0 1 .404 0M97.96 85.485v.01l-.001 7.866-6.955.754a.202.202 0 0 1-.044-.402l6.594-.715.002-7.504a.202.202 0 0 1 .404-.01"/><path fill="#acdaff" d="M102.423 86.604v.008l.04 11.276-8.153 1.406a.202.202 0 0 1-.069-.398l7.817-1.348-.039-10.935a.202.202 0 0 1 .404-.01"/><path fill="#acdaff" d="M114.78 91.923s6.783-9.08 4.636-13.026c-2.146-3.945 3.065-6.847 3.038-9.855s-2.843-5.71-5.924-1.214c-3.081 4.495-3.544 4.514-7.281 3.547s-5.864 6.499-6.324 10.103-2.307-2.93-4.584.356.54 12.516 4.805 18.239 14.679-3.192 15.123-6.127c.443-2.936-2.808.126-3.489-2.023"/><path fill="#98cff4" d="M118.944 77.526c.068.444.217.9.474 1.372 2.146 3.945-4.637 13.026-4.637 13.026.681 2.148 3.932-.914 3.489 2.022s-10.859 11.852-15.123 6.128a25 25 0 0 1-.673-.953c3.486-8.497 9.153-15.883 16.47-21.595"/><path fill="#d2edff" d="M104.715 101.657a.258.258 0 0 0 .492-.073c.019-.148 2.024-14.946 15.094-33.079a.26.26 0 0 0-.059-.36.257.257 0 0 0-.36.058c-13.153 18.248-15.168 33.167-15.187 33.316a.25.25 0 0 0 .02.138"/><path fill="#d2edff" d="m116.4 73.877 4.126-1.565c.133-.05.2-.2.15-.333a.26.26 0 0 0-.333-.15l-3.57 1.354-.674-2.982a.259.259 0 0 0-.505.114zM107.76 73.269l.011.022 4.456 7.889 6.169-1.782a.258.258 0 1 0-.144-.496l-5.776 1.668-4.255-7.534a.259.259 0 0 0-.461.233M103.736 80.925l.005.01 4.515 8.99 8.381-3.128a.26.26 0 0 0-.181-.485l-7.946 2.967-4.308-8.575a.257.257 0 0 0-.466.221"/><path fill="#d2edff" d="m99.277 84.764.004.01 6.424 12.91 10.125-3.072a.259.259 0 0 0-.15-.495l-9.707 2.945-6.23-12.518a.258.258 0 0 0-.466.22"/><path fill="#f90" d="M92.365 100.858h19.967l-4.153 19.767H95.306z"/><path fill="#ffbc00" d="M110.616 109.025H93.58l.308 2.067h16.294zM109.995 111.985H94.02l.154 1.034h15.604zM112.894 100.53H91.765v2.809h21.129z"/></svg>