<svg xmlns="http://www.w3.org/2000/svg" width="217" height="126" fill="none" viewBox="0 0 217 126"><path fill="#ccd3fe" d="M45.246 123.059c10.643.737 21.23-1.755 31.512-4.59 10.28-2.835 20.574-6.047 31.217-6.804 12.34-.881 24.644 1.582 36.827 3.752s24.665 4.065 36.876 2.068c12.212-1.996 24.301-8.514 30.06-19.467 4.479-8.51 4.692-18.575 4.251-28.18-.34-7.395-1.17-15.218-5.641-21.116-5.488-7.241-15.174-9.86-24.234-10.55-9.059-.69-18.345.055-27.078-2.452-13.289-3.815-23.278-14.495-34.817-22.102C108.711 3.398 89.684-1.367 71.192.34c-10.562.974-21.694 4.524-27.93 13.103C37.83 20.915 36.77 31.31 29.94 37.53c-4.371 3.98-10.39 5.542-15.4 8.679C4.015 52.803-1.04 66.169.177 78.524c2.241 22.733 22.128 42.948 45.068 44.535"/><path fill="#ccd3fe" d="M165.223 33.877c-4.315-.877-8.232-4.572-8.282-8.975-.038-3.637 2.534-6.945 5.77-8.605 4.386-2.25 10.149-1.704 13.82 1.588 10.01 8.975-1.269 18.031-11.308 15.992"/><path fill="#d3d3d3" d="M138.972 126V5.172h-93.53V126z"/><path fill="#fff" d="M138.266 5.877h-92.12v119.418h92.12z"/><path fill="#808285" d="M130.295 36.788H54.12v3.292h76.175zM130.295 58.081H54.12v1.976h76.175z"/><path fill="#f1f2f2" d="M130.295 63.276H54.12v48.808h76.175zM130.295 43.38H54.12v11.4h76.175z"/><path fill="#e6e7e8" d="M130.295 26.406H54.12v8.333h76.175z"/><path fill="#58595b" d="M54.12 13.163h1.51l2.652 7.52-.209.303v-7.823h1.752v11.264h-1.529l-2.62-7.086.202-.309v7.395h-1.764zM63.181 22.381a.65.65 0 0 0 .14.458.55.55 0 0 0 .434.138.5.5 0 0 0 .419-.15.7.7 0 0 0 .14-.478l.108.784q-.195.714-.55 1.066a1.2 1.2 0 0 1-.885.353q-.859 0-1.283-.54t-.422-1.63v-5.998h1.9zm1.133-5.997h1.899v8.052h-1.9zM67.127 16.389h3.646v1.764h-3.646zm1.206 7.547q-.508-.54-.508-1.593v-8.295h1.915v7.984a.6.6 0 0 0 .127.407.45.45 0 0 0 .353.143h.55v1.892h-.844q-1.085 0-1.593-.538M71.918 16.389h1.923v8.047h-1.923zm3.636 1.89h-.272q-.68 0-1.058.412-.377.412-.38 1.116l-.162-2.015c.202-.445.51-.833.895-1.133.342-.266.764-.41 1.198-.41v2.03zM76.725 13.163h1.923v1.908h-1.923zm0 3.226h1.923v8.047h-1.923zM79.408 16.389h3.645v1.764h-3.645zm1.205 7.547q-.508-.54-.508-1.593v-8.295h1.914v7.984a.6.6 0 0 0 .129.407.45.45 0 0 0 .352.143h.55v1.892h-.844q-1.086 0-1.593-.538M84.043 13.163h1.923v1.908h-1.923zm0 3.226h1.923v8.047h-1.923zM88.287 24.292a1.87 1.87 0 0 1-.823-.753 2.3 2.3 0 0 1-.287-1.175v-3.96a2.26 2.26 0 0 1 .287-1.167c.193-.324.48-.581.823-.737a3.49 3.49 0 0 1 2.601 0c.345.154.632.411.823.737.198.356.296.76.284 1.167v3.977a2.3 2.3 0 0 1-.284 1.17c-.19.328-.477.588-.823.745a3 3 0 0 1-1.301.256 3 3 0 0 1-1.3-.26m1.68-1.624a.68.68 0 0 0 .131-.45V18.55a.64.64 0 0 0-.132-.43.54.54 0 0 0-.752 0 .62.62 0 0 0-.139.427v3.666a.67.67 0 0 0 .135.45.54.54 0 0 0 .756 0zM93.361 16.389H95.3v8.047h-1.938zm3.164 2.363a.92.92 0 0 0-.156-.577.55.55 0 0 0-.47-.198.54.54 0 0 0-.454.195.92.92 0 0 0-.152.573l-.16-.953c.128-.438.371-.833.705-1.145a1.54 1.54 0 0 1 1.028-.398 1.38 1.38 0 0 1 1.158.535q.416.534.415 1.504v6.148h-1.923zM103.099 13.163h1.922v11.273h-1.922zm.859 0h4.156v1.845h-4.156zm0 4.853h3.763v1.845h-3.763zM109.385 23.963q-.47-.588-.47-1.713 0-1.288.682-1.97t1.977-.682h.597l.108 1.529h-.604a.87.87 0 0 0-.706.287c-.16.19-.235.47-.235.837a.82.82 0 0 0 .147.527.54.54 0 0 0 .434.178.84.84 0 0 0 .616-.22.86.86 0 0 0 .221-.64l.132.673c.005.335-.06.666-.189.974-.107.249-.287.46-.516.605a1.53 1.53 0 0 1-.814.205q-.907 0-1.38-.59m2.76-5.303a.6.6 0 0 0-.17-.488.6.6 0 0 0-.488-.17.53.53 0 0 0-.422.173.73.73 0 0 0-.152.493h-1.837q0-1.148.639-1.783.638-.635 1.795-.636c.458-.013.913.084 1.326.283.359.18.652.468.84.823.204.404.304.85.291 1.302v5.779h-1.822zM116.495 24.292a1.9 1.9 0 0 1-.864-.76 2.3 2.3 0 0 1-.299-1.198V18.58a2.5 2.5 0 0 1 .299-1.26c.199-.349.5-.628.864-.798a3.1 3.1 0 0 1 1.364-.275c.472-.013.942.081 1.372.275.368.17.673.45.873.802.208.39.31.828.298 1.27v.7h-1.891v-.527a.94.94 0 0 0-.164-.588.62.62 0 0 0-.461-.208.61.61 0 0 0-.461.208.9.9 0 0 0-.163.562v3.442a.67.67 0 0 0 .163.48.6.6 0 0 0 .458.171.58.58 0 0 0 .461-.182.76.76 0 0 0 .158-.515v-.49l1.916.024v.636c.012.424-.093.842-.303 1.21-.206.34-.512.61-.876.77a3.7 3.7 0 0 1-2.744.009zM120.867 16.389h3.646v1.764h-3.646zm1.206 7.547q-.508-.54-.508-1.593v-8.295h1.915v7.984a.6.6 0 0 0 .127.407.46.46 0 0 0 .353.143h.55v1.892h-.844q-1.084 0-1.593-.538M126.465 24.242a2.24 2.24 0 0 1-.892-.865 2.53 2.53 0 0 1-.319-1.283v-.131l1.784-.017v.125a.77.77 0 0 0 .205.547.78.78 0 0 0 1.058.015.69.69 0 0 0 .198-.508.67.67 0 0 0-.144-.434 1.1 1.1 0 0 0-.359-.29 8 8 0 0 0-.75-.326 2 2 0 0 1-.143-.059l-.039-.015-.039-.016a4.2 4.2 0 0 1-.84-.48 2.1 2.1 0 0 1-.588-.728 2.5 2.5 0 0 1-.236-1.133 2.6 2.6 0 0 1 .296-1.252c.186-.355.472-.649.823-.844a2.47 2.47 0 0 1 1.225-.3c.431-.009.858.091 1.24.291.351.188.641.474.833.823.204.379.307.803.299 1.233v.14l-1.791.023v-.163a.65.65 0 0 0-.159-.453.53.53 0 0 0-.415-.175.5.5 0 0 0-.403.187.72.72 0 0 0-.154.48.74.74 0 0 0 .154.484c.108.13.243.235.396.307q.314.146.643.255l.027.012.027.012q.015.008.031.011l.032.012q.49.163.933.43c.269.178.488.42.637.706q.258.47.259 1.256a2.5 2.5 0 0 1-.313 1.271 2.17 2.17 0 0 1-.888.854c-.408.207-.861.31-1.319.302a2.7 2.7 0 0 1-1.309-.304M56.42 52.654q-.744 0-1.154-.312a1.6 1.6 0 0 1-.572-.838 4 4 0 0 1-.16-1.176v-2.476a4.3 4.3 0 0 1 .16-1.237c.09-.332.292-.623.572-.824q.41-.288 1.155-.289.657 0 1.043.242c.257.163.452.407.553.693a3.1 3.1 0 0 1 .169 1.08v.555h-.926v-.493q.003-.346-.039-.688a.75.75 0 0 0-.212-.463q-.174-.165-.58-.165-.415 0-.606.178a.87.87 0 0 0-.247.502q-.058.376-.055.757v2.782a3.2 3.2 0 0 0 .086.835.73.73 0 0 0 .286.438c.162.094.348.139.536.129q.399 0 .571-.176a.85.85 0 0 0 .217-.49q.045-.36.043-.726v-.515h.926v.52a3.7 3.7 0 0 1-.156 1.128c-.09.306-.279.574-.537.762q-.38.266-1.072.267M59.943 52.646a.84.84 0 0 1-.52-.17 1.2 1.2 0 0 1-.353-.431 1.25 1.25 0 0 1-.13-.559 1.8 1.8 0 0 1 .156-.787c.101-.21.247-.395.428-.541q.292-.232.632-.385.36-.164.757-.32V49.1a3 3 0 0 0-.034-.502.5.5 0 0 0-.144-.298.47.47 0 0 0-.324-.1.5.5 0 0 0-.307.087.48.48 0 0 0-.168.247 1.2 1.2 0 0 0-.052.376v.243l-.918-.034q.017-.831.38-1.224.364-.393 1.126-.394.744 0 1.058.407t.312 1.176v2.285c0 .156 0 .306.013.45s.02.279.034.402l.039.353h-.848q-.027-.138-.065-.353a5 5 0 0 1-.056-.384 1.33 1.33 0 0 1-.333.549.9.9 0 0 1-.683.26m.363-.796a.47.47 0 0 0 .26-.078 1.2 1.2 0 0 0 .346-.337v-1.42q-.216.12-.407.243-.178.112-.333.255-.141.13-.224.303a.86.86 0 0 0-.083.385.88.88 0 0 0 .112.476.37.37 0 0 0 .33.173M62.815 52.577v-7.01h.927v7.01zM66.087 52.646a1.5 1.5 0 0 1-.874-.225 1.2 1.2 0 0 1-.455-.64 3.2 3.2 0 0 1-.134-.978V49.35c-.006-.331.039-.66.134-.977.076-.259.236-.484.455-.641.262-.163.567-.24.874-.224.306-.017.61.062.869.225.216.158.375.383.45.64.095.317.14.647.134.978v1.45c.007.33-.039.66-.134.977a1.22 1.22 0 0 1-.45.64 1.48 1.48 0 0 1-.869.229m0-.683a.43.43 0 0 0 .376-.157.83.83 0 0 0 .13-.41c.014-.17.022-.353.022-.533v-1.566q0-.286-.022-.536a.86.86 0 0 0-.13-.412.42.42 0 0 0-.376-.16.44.44 0 0 0-.381.16.8.8 0 0 0-.134.412 6 6 0 0 0-.022.536v1.566q0 .277.022.533a.8.8 0 0 0 .134.41.44.44 0 0 0 .381.157M68.414 52.577v-5.002h.926v.706c.13-.248.321-.459.554-.614.167-.1.358-.154.553-.156h.066a1 1 0 0 1 .082.008v1.022a1.5 1.5 0 0 0-.235-.074q-.135-.03-.273-.03a.8.8 0 0 0-.393.1 1.06 1.06 0 0 0-.353.385v3.651zM71.227 46.831v-.97h.925v.969zm0 5.746v-5.002h.925v5.002zM74.532 52.646q-.588.002-.91-.235a1.2 1.2 0 0 1-.445-.675 4 4 0 0 1-.126-1.095v-1.135a4 4 0 0 1 .13-1.107c.07-.269.23-.505.455-.667.269-.164.581-.242.896-.225q.63 0 .93.26c.212.198.351.461.394.748q.103.584.095 1.176v.403h-1.973V51.1q-.006.25.056.492c.027.112.091.21.182.281.095.065.209.097.324.092a.46.46 0 0 0 .316-.1.5.5 0 0 0 .147-.286q.042-.216.04-.436v-.303h.899v.19q0 .753-.32 1.185t-1.09.432m-.554-3.057h1.064v-.447q.002-.264-.034-.525a.6.6 0 0 0-.143-.32.47.47 0 0 0-.343-.108.5.5 0 0 0-.34.104.6.6 0 0 0-.16.353 4 4 0 0 0-.044.68zM77.951 52.646a1.3 1.3 0 0 1-.986-.386 1.6 1.6 0 0 1-.425-1.015l.77-.236c.024.253.104.497.235.714a.55.55 0 0 0 .485.235.5.5 0 0 0 .38-.143.55.55 0 0 0 .13-.385.8.8 0 0 0-.095-.389 1.3 1.3 0 0 0-.312-.353l-.856-.736a2.3 2.3 0 0 1-.437-.5 1.52 1.52 0 0 1-.018-1.39c.106-.18.263-.325.45-.416.213-.1.446-.148.68-.142q.597 0 .913.384c.212.266.335.591.353.93l-.624.236a2.2 2.2 0 0 0-.103-.454.7.7 0 0 0-.19-.304.46.46 0 0 0-.32-.108.45.45 0 0 0-.353.152.52.52 0 0 0-.135.353q.001.133.056.255c.046.095.113.18.195.247l.882.814q.184.164.342.352c.11.13.199.277.265.433.072.179.107.37.103.562.008.247-.051.49-.172.706-.114.189-.284.339-.485.429a1.75 1.75 0 0 1-.728.155M55.857 32.808c-.28.01-.556-.06-.796-.205a1.3 1.3 0 0 1-.481-.566 2.3 2.3 0 0 1-.192-.841l.683-.184q.02.289.092.567c.04.167.12.32.235.447a.6.6 0 0 0 .458.174.59.59 0 0 0 .454-.167.7.7 0 0 0 .154-.482 1 1 0 0 0-.172-.604 3 3 0 0 0-.43-.461l-.928-.823a1.54 1.54 0 0 1-.403-.523 1.7 1.7 0 0 1-.13-.705q0-.61.353-.94a1.31 1.31 0 0 1 .949-.335q.295-.005.577.085c.158.052.301.143.416.263.119.13.21.282.267.447q.108.308.133.633l-.656.177a2.6 2.6 0 0 0-.081-.502.75.75 0 0 0-.215-.37.63.63 0 0 0-.441-.139.62.62 0 0 0-.447.154.6.6 0 0 0-.161.454.9.9 0 0 0 .086.416q.108.193.276.335l.94.823q.325.286.553.652c.163.27.245.582.236.898.006.247-.053.49-.17.706-.11.194-.274.352-.471.454-.212.11-.449.166-.688.162M58.812 32.808a1.2 1.2 0 0 1-.718-.181.93.93 0 0 1-.352-.533 3.2 3.2 0 0 1-.1-.863v-.902a3.1 3.1 0 0 1 .103-.873.94.94 0 0 1 .353-.527c.212-.129.458-.19.705-.178q.498 0 .734.206c.167.155.276.363.31.588q.082.459.076.925v.321h-1.549v.793q-.006.197.045.39a.4.4 0 0 0 .143.22.42.42 0 0 0 .256.072c.09.007.179-.02.249-.078a.4.4 0 0 0 .117-.225q.035-.172.03-.345v-.235h.706v.15c0 .397-.083.706-.252.941-.17.235-.452.334-.856.334m-.438-2.41h.84v-.353a3 3 0 0 0-.027-.413.45.45 0 0 0-.118-.253.36.36 0 0 0-.27-.086.4.4 0 0 0-.27.083.47.47 0 0 0-.126.276 3 3 0 0 0-.034.536zM60.614 32.75v-3.947h.73v.56c.103-.196.254-.363.438-.485a.9.9 0 0 1 .437-.123h.05a.4.4 0 0 1 .066.007v.805a1 1 0 0 0-.187-.057 1 1 0 0 0-.216-.024.63.63 0 0 0-.311.078.85.85 0 0 0-.277.304v2.882zM63.298 32.75l-.779-3.947h.737l.486 3.175.492-3.175h.705l-.751 3.948zM65.462 28.215v-.764h.732v.764zm0 4.536v-3.948h.732v3.948zM66.98 32.75v-3.947h.73v.39q.197-.187.437-.315c.161-.087.342-.132.526-.13a.5.5 0 0 1 .365.117.7.7 0 0 1 .178.307q.05.185.05.377v3.196h-.73v-2.979a.7.7 0 0 0-.06-.328.26.26 0 0 0-.254-.118.55.55 0 0 0-.256.072q-.136.075-.256.174v3.183zM71.001 33.972a2.6 2.6 0 0 1-.642-.074 1 1 0 0 1-.45-.235.59.59 0 0 1-.164-.43.67.67 0 0 1 .081-.334.9.9 0 0 1 .213-.25q.125-.104.273-.174a.55.55 0 0 1-.287-.174.4.4 0 0 1-.095-.249.6.6 0 0 1 .117-.376 2.4 2.4 0 0 1 .321-.341 1.1 1.1 0 0 1-.34-.438 1.9 1.9 0 0 1-.118-.737 2.1 2.1 0 0 1 .127-.775.97.97 0 0 1 .375-.47c.184-.112.396-.168.611-.161.178-.008.356.03.515.109.132.075.237.19.298.328q.082-.105.184-.188a1.4 1.4 0 0 1 .353-.221l.11-.048.184.47q-.12.021-.235.065a6 6 0 0 0-.273.102.5.5 0 0 0-.16.086q.06.162.085.334.035.192.038.389.005.361-.103.706a.96.96 0 0 1-.337.482 1.1 1.1 0 0 1-.653.174q-.096 0-.191-.014a2 2 0 0 1-.185-.034q-.04.061-.085.143a.34.34 0 0 0-.044.158.13.13 0 0 0 .078.117.6.6 0 0 0 .25.059l.615.054c.256.005.501.105.689.28a1.11 1.11 0 0 1 .075 1.226.9.9 0 0 1-.454.33 2.3 2.3 0 0 1-.776.111m.055-.572c.196.01.392-.021.574-.093a.31.31 0 0 0 .185-.298.43.43 0 0 0-.045-.204.3.3 0 0 0-.161-.13 1.2 1.2 0 0 0-.334-.068l-.622-.055q-.075.076-.144.15a.7.7 0 0 0-.109.162.4.4 0 0 0-.041.18.29.29 0 0 0 .15.266c.173.072.36.101.547.086zm-.034-2.371a.46.46 0 0 0 .25-.058.37.37 0 0 0 .14-.17 1 1 0 0 0 .064-.278q.018-.183.018-.368 0-.187-.018-.372a1.2 1.2 0 0 0-.061-.287.37.37 0 0 0-.137-.181.46.46 0 0 0-.249-.062.47.47 0 0 0-.25.061.38.38 0 0 0-.146.175q-.054.136-.068.28a3 3 0 0 0-.022.386q0 .173.018.345.012.143.068.276.048.113.147.185a.4.4 0 0 0 .25.068zM75.428 32.808a1.03 1.03 0 0 1-.779-.303 1.26 1.26 0 0 1-.335-.803l.608-.184c.019.2.082.392.184.564a.44.44 0 0 0 .383.187.4.4 0 0 0 .3-.118.44.44 0 0 0 .103-.305.6.6 0 0 0-.075-.306 1 1 0 0 0-.246-.28l-.676-.581a1.8 1.8 0 0 1-.345-.396 1.2 1.2 0 0 1-.014-1.097.82.82 0 0 1 .353-.328c.167-.08.35-.12.536-.117a.88.88 0 0 1 .721.304c.168.21.267.466.283.734l-.491.185a2 2 0 0 0-.082-.353.6.6 0 0 0-.15-.235.36.36 0 0 0-.254-.086.35.35 0 0 0-.283.118.41.41 0 0 0-.106.283q0 .106.045.201a.6.6 0 0 0 .154.195l.696.642q.144.13.27.28.129.156.209.341c.056.141.084.293.08.445.007.195-.04.389-.136.56a.85.85 0 0 1-.382.337c-.18.08-.375.12-.571.116M77.113 28.215v-.764h.733v.764zm0 4.536v-3.948h.733v3.948zM78.48 32.75v-.491l1.209-2.91h-1.087v-.546h1.872v.396l-1.217 2.998h1.19v.553zM82.093 32.808a1.2 1.2 0 0 1-.718-.18.94.94 0 0 1-.353-.534 3.2 3.2 0 0 1-.098-.863v-.902a3.2 3.2 0 0 1 .102-.873.94.94 0 0 1 .353-.527 1.23 1.23 0 0 1 .705-.178q.5 0 .735.206c.167.155.276.363.31.588q.082.459.076.925v.322h-1.549v.792q-.005.197.044.39a.4.4 0 0 0 .143.22c.076.051.166.076.257.072.09.007.179-.02.249-.078a.42.42 0 0 0 .117-.225q.033-.172.031-.345v-.235h.706v.15q0 .594-.253.941-.253.348-.857.334m-.437-2.41h.84v-.353a3 3 0 0 0-.027-.413.46.46 0 0 0-.118-.253.37.37 0 0 0-.27-.086.4.4 0 0 0-.27.083.47.47 0 0 0-.125.276 3 3 0 0 0-.034.536zM54.664 73.654v-7.009h1.74c.35-.015.7.066 1.008.235.252.154.445.387.55.662.123.335.181.69.172 1.047.008.33-.058.659-.194.96a1.4 1.4 0 0 1-.576.628 1.9 1.9 0 0 1-.951.22h-.77v3.262zm.978-3.963h.45c.226.008.452-.024.666-.096a.6.6 0 0 0 .346-.332c.08-.215.115-.443.105-.67a3 3 0 0 0-.074-.77.54.54 0 0 0-.307-.374 1.9 1.9 0 0 0-.727-.103h-.459zM58.765 73.654v-5.001h.927v.705c.13-.248.32-.459.554-.614a1.1 1.1 0 0 1 .552-.155h.066q.041 0 .083.008v1.021a1.5 1.5 0 0 0-.236-.073 1.2 1.2 0 0 0-.273-.03.8.8 0 0 0-.392.098 1.06 1.06 0 0 0-.353.386v3.651zM62.893 73.723a1.5 1.5 0 0 1-.874-.224 1.2 1.2 0 0 1-.454-.641 3.2 3.2 0 0 1-.134-.977v-1.454c-.006-.33.04-.661.134-.978.076-.258.236-.484.454-.641.262-.163.567-.241.874-.225.306-.017.61.062.87.225.217.158.375.383.45.64.096.318.14.648.135.98v1.453c.006.33-.04.66-.135.977a1.22 1.22 0 0 1-.45.64c-.26.164-.564.243-.87.225m0-.683a.43.43 0 0 0 .377-.155.84.84 0 0 0 .13-.412 6 6 0 0 0 .02-.532v-1.567q0-.285-.02-.536a.85.85 0 0 0-.13-.41.42.42 0 0 0-.377-.16.43.43 0 0 0-.38.16.8.8 0 0 0-.134.41 6 6 0 0 0-.022.536v1.567q0 .276.022.532c.006.147.053.29.134.412a.44.44 0 0 0 .38.155M66.527 73.723c-.219.01-.436-.04-.628-.147a.84.84 0 0 1-.345-.415 1.7 1.7 0 0 1-.109-.631v-3.262h-.527v-.615h.527V67.19h.927v1.463h.804v.615h-.804v3.2a.7.7 0 0 0 .094.42q.096.126.365.126.069.002.16-.008l.177-.018v.684q-.174.026-.32.038a4 4 0 0 1-.32.013M69.245 73.723q-.588 0-.909-.235a1.2 1.2 0 0 1-.445-.675 4 4 0 0 1-.126-1.094v-1.142a4 4 0 0 1 .13-1.108c.069-.269.23-.505.454-.667.27-.164.582-.242.896-.224q.63 0 .93.26c.213.197.352.46.394.747q.104.584.096 1.176v.406H68.69v1.004a1.8 1.8 0 0 0 .057.494c.027.111.09.21.18.281.097.064.21.096.326.09a.45.45 0 0 0 .316-.1.52.52 0 0 0 .147-.285q.041-.217.039-.436v-.304h.9v.19q0 .754-.32 1.186t-1.09.436m-.554-3.057h1.059v-.45q.003-.263-.035-.524a.57.57 0 0 0-.143-.32.47.47 0 0 0-.342-.108.5.5 0 0 0-.341.104.6.6 0 0 0-.16.353 4 4 0 0 0-.043.68zM71.564 67.908v-.969h.925v.97zm0 5.746v-5.001h.925v5.001zM73.484 73.654v-5.001h.927v.491a2.7 2.7 0 0 1 .554-.397c.204-.11.433-.167.665-.165a.64.64 0 0 1 .464.157c.109.106.187.24.224.389q.066.23.066.47v4.049h-.926v-3.774a.9.9 0 0 0-.078-.416.33.33 0 0 0-.32-.147.7.7 0 0 0-.324.092 2 2 0 0 0-.325.22v4.032zM55.885 84.923l-1.567-7.009h.918l1.107 5.166 1.059-5.166h.89l-1.549 7.009zM59.017 79.177v-.969h.925v.969zm0 5.745v-5h.925v5zM62.27 84.992c-.219.01-.436-.04-.627-.147a.84.84 0 0 1-.346-.415 1.7 1.7 0 0 1-.108-.631v-3.262h-.528v-.615h.528v-1.463h.926v1.463h.804v.615h-.804v3.2a.7.7 0 0 0 .095.42q.094.126.363.126.07.002.16-.008l.178-.018v.683q-.176.027-.32.04a4 4 0 0 1-.321.012M64.503 84.992a.84.84 0 0 1-.52-.168 1.2 1.2 0 0 1-.353-.433 1.25 1.25 0 0 1-.13-.558 1.8 1.8 0 0 1 .156-.787c.101-.21.247-.395.428-.541a3 3 0 0 1 .632-.386q.36-.165.757-.32v-.352a3 3 0 0 0-.034-.502.5.5 0 0 0-.144-.298.46.46 0 0 0-.324-.1.5.5 0 0 0-.307.086.5.5 0 0 0-.168.247 1.2 1.2 0 0 0-.052.376v.252l-.918-.035q.017-.832.38-1.225.364-.392 1.126-.394.745 0 1.058.407.315.408.312 1.176v2.289c0 .155 0 .305.013.449.013.143.02.279.034.402.014.124.027.235.039.353h-.848l-.065-.353a5 5 0 0 1-.056-.385 1.3 1.3 0 0 1-.333.55.9.9 0 0 1-.683.25m.363-.796a.47.47 0 0 0 .26-.078q.12-.076.216-.177a1 1 0 0 0 .13-.16v-1.42q-.216.123-.407.243-.178.112-.333.255c-.093.086-.169.19-.224.303a.9.9 0 0 0-.083.385.87.87 0 0 0 .118.47.37.37 0 0 0 .323.179M67.29 84.923v-5.001h.856v.476c.152-.18.34-.324.553-.425.196-.09.408-.138.624-.138a.9.9 0 0 1 .497.138.8.8 0 0 1 .317.494 1.7 1.7 0 0 1 .587-.48c.207-.1.433-.153.662-.152a.86.86 0 0 1 .443.117.83.83 0 0 1 .32.372c.087.212.127.442.117.671v3.928h-.848v-3.868q0-.364-.117-.489a.4.4 0 0 0-.316-.125.86.86 0 0 0-.398.108 1.4 1.4 0 0 0-.38.298v4.076h-.849v-3.868q0-.364-.118-.489a.41.41 0 0 0-.316-.125.8.8 0 0 0-.393.108 1.5 1.5 0 0 0-.385.298v4.076zM73.234 79.177v-.969h.926v.969zm0 5.745v-5h.926v5zM75.156 84.923V79.92h.926v.494q.251-.235.554-.398a1.4 1.4 0 0 1 .667-.165.63.63 0 0 1 .462.156c.11.107.187.242.226.39q.063.23.065.47v4.049h-.927v-3.778a.9.9 0 0 0-.078-.417.33.33 0 0 0-.32-.147.7.7 0 0 0-.324.092 2 2 0 0 0-.325.22v4.032zM80.113 84.992a1.3 1.3 0 0 1-.987-.385 1.6 1.6 0 0 1-.423-1.017l.77-.235c.025.253.105.496.236.714a.55.55 0 0 0 .485.235.49.49 0 0 0 .38-.142.55.55 0 0 0 .13-.386.8.8 0 0 0-.095-.39 1.3 1.3 0 0 0-.311-.352l-.858-.735a2.3 2.3 0 0 1-.436-.502 1.51 1.51 0 0 1-.017-1.389 1.04 1.04 0 0 1 .45-.415c.212-.1.444-.148.678-.143q.6 0 .914.385c.212.266.335.591.353.93l-.623.236a2.2 2.2 0 0 0-.104-.454.7.7 0 0 0-.19-.302.515.515 0 0 0-.68.042.53.53 0 0 0-.134.36q.001.133.056.255a.7.7 0 0 0 .196.247l.881.813q.183.165.343.352.164.196.263.433c.073.178.109.37.105.562a1.35 1.35 0 0 1-.173.706 1.1 1.1 0 0 1-.486.428 1.7 1.7 0 0 1-.723.149M54.664 96.19v-7.01h2.705v.706h-1.727v2.337h1.341v.692h-1.34v3.275zM58.87 96.26a.84.84 0 0 1-.52-.167 1.26 1.26 0 0 1-.482-.991c-.008-.271.045-.54.155-.787.101-.21.248-.395.43-.541q.29-.233.631-.386.353-.164.757-.32v-.353a3 3 0 0 0-.035-.502.5.5 0 0 0-.142-.297.47.47 0 0 0-.325-.1.5.5 0 0 0-.307.087.48.48 0 0 0-.17.246 1.2 1.2 0 0 0-.05.376v.255l-.918-.035q.018-.832.38-1.224.365-.394 1.125-.394.745 0 1.058.407.315.406.312 1.175v2.285c0 .156 0 .306.013.45.013.143.02.278.035.402.016.123.027.235.04.352h-.849l-.066-.352a5 5 0 0 1-.055-.385c-.065.208-.18.396-.334.55a.9.9 0 0 1-.683.25m.363-.795a.47.47 0 0 0 .259-.078q.12-.076.216-.177a1 1 0 0 0 .13-.16v-1.42q-.216.122-.406.243-.178.111-.333.256-.141.13-.225.302a.9.9 0 0 0-.083.386.86.86 0 0 0 .118.47.37.37 0 0 0 .324.178M62.919 96.26c-.219.011-.436-.04-.627-.146a.84.84 0 0 1-.346-.415 1.7 1.7 0 0 1-.108-.632v-3.262h-.528v-.615h.528v-1.467h.925v1.463h.805v.614h-.804v3.201a.7.7 0 0 0 .095.42q.094.127.363.126c.046 0 .1 0 .16-.008l.178-.018v.683a5 5 0 0 1-.32.04c-.098.007-.205.017-.321.017M56.42 107.539q-.744 0-1.154-.311a1.6 1.6 0 0 1-.572-.84 4 4 0 0 1-.16-1.176v-2.469a4.3 4.3 0 0 1 .16-1.239c.09-.332.292-.622.572-.823q.41-.289 1.155-.29.657 0 1.043.242c.256.163.451.406.553.693.12.348.177.714.169 1.082v.553h-.926v-.492a5 5 0 0 0-.039-.689.74.74 0 0 0-.212-.463q-.174-.162-.58-.164-.407-.002-.606.177a.87.87 0 0 0-.247.503q-.058.376-.055.757v2.773q-.013.423.086.835c.038.176.14.331.286.437a.97.97 0 0 0 .536.129q.399 0 .571-.177a.85.85 0 0 0 .217-.489q.045-.362.043-.727v-.519h.926v.519c.006.382-.046.763-.156 1.129-.09.306-.279.574-.537.762q-.38.279-1.072.277M59.943 107.53a.85.85 0 0 1-.52-.168 1.2 1.2 0 0 1-.353-.433 1.24 1.24 0 0 1-.13-.559c-.008-.27.045-.539.156-.786.1-.21.247-.395.428-.541q.292-.232.632-.386.36-.163.757-.32v-.352a3 3 0 0 0-.034-.503.5.5 0 0 0-.144-.297.46.46 0 0 0-.324-.1.5.5 0 0 0-.307.087.48.48 0 0 0-.168.246 1.2 1.2 0 0 0-.052.376v.252l-.918-.036q.017-.831.38-1.224.364-.393 1.126-.394.744 0 1.058.407t.312 1.176v2.285c0 .155 0 .306.013.449s.02.279.034.403l.039.353h-.848l-.065-.353a5 5 0 0 1-.056-.385 1.3 1.3 0 0 1-.333.549.9.9 0 0 1-.683.254m.363-.796a.47.47 0 0 0 .26-.078q.12-.075.216-.177a1 1 0 0 0 .13-.16v-1.42q-.216.123-.407.243-.178.112-.333.256-.141.13-.224.302a.9.9 0 0 0-.083.386.87.87 0 0 0 .112.47.36.36 0 0 0 .33.178M62.756 107.462v-5.003h.925v.706c.13-.248.321-.46.554-.615.168-.099.36-.153.554-.155h.065q.041 0 .082.008v1.02a1.5 1.5 0 0 0-.508-.103.8.8 0 0 0-.394.1 1.04 1.04 0 0 0-.353.384v3.653zM67.298 107.53a.9.9 0 0 1-.48-.134 2 2 0 0 1-.367-.298v.364h-.927v-7.01h.927v2.406a1.6 1.6 0 0 1 .394-.329c.166-.096.356-.144.549-.139a.9.9 0 0 1 .618.203c.155.139.273.315.342.511q.112.302.147.623.033.269.034.541v1.212q.003.505-.103 1a1.6 1.6 0 0 1-.372.762 1 1 0 0 1-.762.288m-.19-.727a.366.366 0 0 0 .353-.178c.077-.148.121-.312.129-.479q.026-.304.026-.667v-1.211q.001-.288-.034-.575a.9.9 0 0 0-.148-.42.4.4 0 0 0-.353-.156.8.8 0 0 0-.342.078q-.15.072-.281.173v3.21a1.1 1.1 0 0 0 .65.225M70.75 107.529a1.5 1.5 0 0 1-.873-.224 1.2 1.2 0 0 1-.454-.64 3.2 3.2 0 0 1-.134-.978v-1.454c-.006-.331.04-.661.134-.978.076-.258.236-.483.454-.64.261-.163.566-.242.874-.225.306-.018.61.061.87.225.216.158.374.383.45.64.095.317.14.647.134.978v1.454c.006.331-.04.661-.135.978a1.2 1.2 0 0 1-.449.64c-.26.164-.564.242-.87.224m0-.683a.42.42 0 0 0 .377-.155.84.84 0 0 0 .13-.412c.015-.17.022-.352.022-.531v-1.562q0-.285-.021-.537a.85.85 0 0 0-.13-.41.42.42 0 0 0-.377-.16.42.42 0 0 0-.381.16.84.84 0 0 0-.134.41 6 6 0 0 0-.021.537v1.567q0 .276.02.531a.8.8 0 0 0 .135.412.44.44 0 0 0 .38.15M73.08 107.462v-7.01h.925v2.527q.253-.245.562-.415c.212-.117.45-.177.692-.174a.6.6 0 0 1 .454.156c.11.107.187.242.226.389q.065.234.065.477v4.05h-.926v-3.782a.9.9 0 0 0-.079-.415.32.32 0 0 0-.32-.148.7.7 0 0 0-.342.095q-.18.098-.332.235v4.016zM76.826 108.716v-.705q.269.005.536-.031a.54.54 0 0 0 .286-.117.3.3 0 0 0 .087-.236 2 2 0 0 0-.061-.352l-.13-.571-1.004-4.258h.935l.675 3.739.649-3.739h.94l-1.194 5.279a1.14 1.14 0 0 1-.286.575 1.2 1.2 0 0 1-.531.308 2.8 2.8 0 0 1-.783.095zM81.455 107.53q-.632 0-.94-.463c-.205-.308-.312-.832-.312-1.571v-.969a5.5 5.5 0 0 1 .095-1.058 1.6 1.6 0 0 1 .359-.783q.264-.294.775-.295c.16-.001.318.04.458.117q.206.111.372.277v-2.327h.926v7.009h-.926v-.321a1.5 1.5 0 0 1-.353.282.9.9 0 0 1-.454.102m.235-.727a.9.9 0 0 0 .277-.047q.155-.052.294-.144v-3.279a1.4 1.4 0 0 0-.268-.151.8.8 0 0 0-.32-.066.43.43 0 0 0-.433.308 2.2 2.2 0 0 0-.118.74v1.411q-.002.316.04.628c.015.158.07.31.16.441q.067.084.164.125a.4.4 0 0 0 .203.034zM84.147 107.462v-5.003h.925v.706c.13-.248.32-.46.554-.615.168-.099.359-.153.554-.155h.064q.042 0 .083.008v1.02a1.5 1.5 0 0 0-.508-.103.8.8 0 0 0-.394.1 1.04 1.04 0 0 0-.353.384v3.653zM87.798 107.53a.85.85 0 0 1-.52-.168 1.2 1.2 0 0 1-.352-.433 1.25 1.25 0 0 1-.13-.559 1.8 1.8 0 0 1 .156-.786c.1-.21.247-.395.428-.541q.292-.232.631-.386c.235-.109.492-.216.757-.32v-.352a3 3 0 0 0-.034-.503.5.5 0 0 0-.143-.297.46.46 0 0 0-.325-.1.5.5 0 0 0-.307.087.5.5 0 0 0-.168.246 1.2 1.2 0 0 0-.053.376v.252l-.917-.036q.018-.831.381-1.224t1.126-.394q.744 0 1.058.407t.311 1.176v2.285c0 .155 0 .306.013.449s.02.279.034.403c.015.125.028.236.04.353h-.849l-.064-.353a5 5 0 0 1-.057-.385 1.33 1.33 0 0 1-.332.549.9.9 0 0 1-.684.254m.364-.796a.47.47 0 0 0 .26-.078 1.2 1.2 0 0 0 .345-.337v-1.42q-.216.123-.407.243-.178.112-.332.256-.142.13-.225.302a.9.9 0 0 0-.082.386.87.87 0 0 0 .117.47.365.365 0 0 0 .323.178M91.848 107.53a1.2 1.2 0 0 1-.628-.147.85.85 0 0 1-.346-.415 1.7 1.7 0 0 1-.108-.632v-3.262h-.528v-.615h.528v-1.461h.925v1.461h.806v.615h-.806v3.201a.7.7 0 0 0 .096.42q.094.127.364.126c.046 0 .099 0 .16-.009l.177-.017v.684a3.962 3.962 0 0 1-.64.051M94.566 107.53c-.393 0-.697-.076-.91-.236a1.18 1.18 0 0 1-.445-.675 4 4 0 0 1-.126-1.093v-1.143a4 4 0 0 1 .13-1.108c.069-.268.23-.504.454-.665.27-.165.582-.244.897-.226q.63 0 .93.26c.212.198.35.462.394.749q.101.583.094 1.176v.407h-1.972v1.003q-.006.25.055.493a.5.5 0 0 0 .182.281c.096.064.21.096.325.091a.45.45 0 0 0 .316-.099.52.52 0 0 0 .147-.285q.041-.217.039-.438v-.303h.9v.19q0 .752-.32 1.187-.32.434-1.09.434m-.554-3.058h1.058v-.45q.003-.263-.035-.523a.57.57 0 0 0-.143-.32.47.47 0 0 0-.342-.108.5.5 0 0 0-.34.103.6.6 0 0 0-.162.353 4 4 0 0 0-.042.679z"/><path fill="#414042" d="m53.245 75.87-.192-.192-1.43-1.435-1.437-1.435-1.058 1.059-5.155 5.155 4.308 4.306 5.148-5.155 1.059-1.058z"/><path fill="#f45656" d="m48.72 85.81-23.54 23.574a3.6 3.6 0 0 1-3.763.866l-.024-.01a7.2 7.2 0 0 1-2.843-1.908 7.2 7.2 0 0 1-1.452-2.381c0-.007 0-.017-.01-.024a3.6 3.6 0 0 1 .862-3.763l23.541-23.576a7.2 7.2 0 0 1 2.481.435l4.309 4.307c.29.794.44 1.633.44 2.48"/><path fill="#999" d="m54.488 77.112-1.243-1.242-.201-.201-1.059 1.058-5.149 5.154a7.2 7.2 0 0 1 .441 2.481l-23.54 23.578a3.6 3.6 0 0 1-3.764.864l-.024-.008a7.2 7.2 0 0 1-1.851-1.008 7 7 0 0 0 .676.779 7.2 7.2 0 0 0 2.62 1.675l.022.007a3.6 3.6 0 0 0 3.763-.864L48.72 85.81c0-.846-.149-1.686-.44-2.48l5.15-5.157z" opacity=".6" style="mix-blend-mode:multiply"/><path fill="#414042" d="M51.122 42.242a23.89 23.89 0 0 0-6.981 15.7q-.032.59-.033 1.176-.005 1.336.139 2.661c0 .04.008.08.013.118.02.174.04.353.064.521 0 .039.011.079.016.118a24 24 0 0 0 .842 3.765 23.8 23.8 0 0 0 3.94 7.567 24 24 0 0 0 2.922 3.147q.676.608 1.386 1.158c9.407 7.29 22.995 6.606 31.626-2.036 8.789-8.797 9.32-22.718 1.597-32.134a24.3 24.3 0 0 0-3.367-3.367c-9.43-7.74-23.368-7.201-32.164 1.605m11.444-2.47a20.191 20.191 0 1 1-8.738 33.703 20.1 20.1 0 0 1-5.707-11.342c0-.033-.009-.067-.015-.1a26 26 0 0 1-.066-.517l-.01-.099a20.3 20.3 0 0 1-.057-3.86 20.2 20.2 0 0 1 14.598-17.78z"/><path fill="#999" d="M53.645 44.762a20.417 20.417 0 1 0 28.89 28.859 20.417 20.417 0 0 0-28.89-28.86m8.92-4.992a20.193 20.193 0 1 1 11.052 38.843A20.193 20.193 0 0 1 62.566 39.77" opacity=".05" style="mix-blend-mode:multiply"/><path fill="url(#a)" d="M62.566 39.77a20.19 20.19 0 1 0 19.791 5.137 20.11 20.11 0 0 0-19.79-5.137" opacity=".2" style="mix-blend-mode:multiply"/><path fill="#fff" d="M84.688 68.032c.906-2.475.43-4.924-1.062-5.47-1.492-.547-3.436 1.016-4.342 3.491s-.431 4.924 1.061 5.47c1.492.547 3.437-1.016 4.343-3.491" opacity=".2" style="mix-blend-mode:lighten"/><path fill="#fff" d="M53.807 44.92a20.192 20.192 0 0 0 8.604 33.643c3.695-3.49 6.577-9.497 7.496-16.571 1.328-10.207-1.861-19.31-7.34-22.225a20.1 20.1 0 0 0-8.76 5.153" opacity=".1" style="mix-blend-mode:lighten"/><path fill="#e0fee8" d="M170.976 72.48c4.444-4.445 4.444-11.651 0-16.095-4.445-4.445-11.65-4.445-16.095 0-4.444 4.444-4.444 11.65 0 16.094 4.445 4.445 11.65 4.445 16.095 0"/><path fill="#ccd3fe" d="M167.679 62.848h-3.166v-6.333h-3.167v6.333h-6.335v3.168h6.335v6.334h3.167v-6.334h6.334v-3.168z"/><path fill="#e0fee8" d="M180.287 86.723a5.028 5.028 0 1 0 0-10.056 5.028 5.028 0 0 0 0 10.056"/><path fill="#ccd3fe" d="M182.385 80.995h-1.399v-2.798h-1.399v2.799h-2.799v1.399h2.799v2.799h1.399v-2.8h2.799v-1.399z"/><defs><radialGradient id="a" cx="0" cy="0" r="1" gradientTransform="rotate(-95.768 63.597 -3.914)scale(20.088)" gradientUnits="userSpaceOnUse"><stop stop-color="#fff"/><stop offset=".09" stop-color="#f6f6f6"/><stop offset=".24" stop-color="#dedede"/><stop offset=".43" stop-color="#b7b7b7"/><stop offset=".65" stop-color="#818181"/><stop offset=".89" stop-color="#3d3d3d"/><stop offset="1" stop-color="#1a1a1a"/></radialGradient></defs></svg>