<svg xmlns="http://www.w3.org/2000/svg" width="167" height="126" fill="none" viewBox="0 0 167 126"><path fill="#dbeaff" d="M153.015 63.949c-1.747-22.938-7.471-37.388-22.663-45.753s-50.538 3.738-62.563-9.111-37.385-9.922-37.254 14.13c.132 24.05-26.81 22.518-26.41 38.761s15.248 29.308 5.837 36.265c-9.412 6.957-13.766 15.372-5.838 24.968H161.67c13.932-24.285-6.908-36.322-8.654-59.26"/><path fill="#ed56a8" d="M28.185 38.454v3.01a.49.49 0 0 1-.841.342l-4.253-4.345z"/><path fill="#ed56a8" d="M7.93 28.798h20.254a4.828 4.828 0 1 1 0 9.656H7.93a4.828 4.828 0 1 1 0-9.657"/><path fill="#fff" d="M28.373 31.1H7.738a.49.49 0 0 0-.489.49v.443c0 .27.219.489.489.489h20.635c.27 0 .488-.219.488-.49v-.442a.49.49 0 0 0-.488-.49M21.761 34.733H7.738a.49.49 0 0 0-.489.489v.443c0 .27.219.489.489.489h14.024c.27 0 .488-.219.488-.489v-.443a.49.49 0 0 0-.489-.49"/><path fill="#c1d1e5" d="M82.895 126c43.505 0 78.772-1.25 78.772-2.791s-35.267-2.791-78.772-2.791c-43.504 0-78.772 1.25-78.772 2.791S39.391 126 82.895 126"/><path fill="#4a9973" d="M52.316 32.275c-.886-1.476-9.98-5.379-7.633-11.055s4.6-6.117 2.373-8.17-2.983-2.495-1.578-4.988-.393-5.28-1.181-7.041c-.788-1.76 4.64-1.467 6.4 2.64s-.44 3.961 3.667 5.428 2.2 4.4 4.84 5.427c2.641 1.027 2.788 12.226 2.788 12.226zM107.23 78.447s-.379-11.128 5.686-12.079c6.066-.95 6.139-.07 8.559-1.427s2.861-2.164 5.061-1.944 1.996-.513 3.895-1.466c1.899-.954 2.559 2.2.946 5.28s-3.081 4.297-5.721 5.01c-2.641.711-3.154 1.002-4.181 2.36-1.027 1.359-1.281 3.288-2.804 4.267s-1.239.73-2.477 2.767-16.627 11.28-17.434 9.888c-.806-1.394 8.47-12.656 8.47-12.656"/><path fill="#82cc6d" d="M114.655 42.24s-3.227-2.934-5.721 1.907c-2.494 4.84-2.201 3.82-2.604 6.091-.403 2.27-1.503 2.792-2.824 4.218s-2.053 3.016-2.64 6.328.073 8.224-.587 10.536-1.963 4.289-.651 7.37c1.311 3.082 1.531 6.897 3.365 5.65s7.038-8.225 6.709-11.19c-.328-2.966-.716-3.74 1.737-5.334 2.452-1.593 1.309-4.6.575-5.993-.733-1.394-.513-5.199 2.054-7.367s-.514-5.249-.807-7.522 2.127-3.594 1.394-4.694"/><path fill="#5fa847" d="m102.283 73.202-.193-.104c.022-.04 2.217-4.107 4.136-10.16 1.919-6.058 2.956-12.129 2.967-12.19l.216.037c-.011.061-1.05 6.147-2.974 12.219-1.925 6.075-4.13 10.158-4.152 10.198"/><path fill="#bce56c" d="M35.012 13.087s3.344-3.373 6.648 1.322 2.87 3.68 3.555 5.968c.684 2.287 1.978 2.7 3.612 4.018 1.634 1.319 2.623 2.87 3.62 6.207.999 3.338.751 8.456 1.73 10.757.98 2.302 2.65 4.188 1.483 7.5-1.168 3.312-1.03 7.254-3.225 6.177s-8.774-7.665-8.704-10.748.429-3.92-2.5-5.285c-2.928-1.364-1.943-4.58-1.256-6.093.686-1.513.052-5.397-3.064-7.339-3.116-1.941.048-5.449.149-7.817s-2.765-3.456-2.049-4.667"/><path fill="#70bc57" d="m52.108 43.517.207-.13c-.029-.039-2.918-3.971-5.695-9.976-2.78-6.01-4.565-12.13-4.583-12.19l-.24.06c.017.062 1.807 6.198 4.593 12.221 2.787 6.026 5.689 9.975 5.718 10.015"/><path fill="#bce56c" d="M101.22 90.992s4.328 1.111 8.856-3.761c4.527-4.873 1.697-14.606 1.697-14.606s-4.552 2.362-7.505 6.22-3.048 12.147-3.048 12.147"/><path fill="#70bc57" d="M101.822 89.764a.12.12 0 0 1-.095-.048.134.134 0 0 1 .018-.182c.042-.036 4.256-3.669 6.433-8.154 2.157-4.445 2.262-5.54 2.263-5.55.005-.071.068-.134.131-.12a.127.127 0 0 1 .114.137c-.003.043-.088 1.115-2.289 5.65s-6.454 8.202-6.497 8.238a.12.12 0 0 1-.078.03"/><path fill="#82cc6d" d="M56.426 21.183s3.85 2.268 9.552-1.157 5.684-13.56 5.684-13.56-5.03 1.005-8.937 3.892-6.299 10.825-6.299 10.825"/><path fill="#4a9973" d="M57.346 20.17a.12.12 0 0 1-.079-.072.134.134 0 0 1 .068-.17c.05-.023 5.107-2.344 8.443-6.05 3.306-3.671 3.71-4.694 3.715-4.703.024-.067.102-.11.159-.079a.127.127 0 0 1 .072.163c-.015.041-.394 1.047-3.768 4.793s-8.476 6.09-8.528 6.112a.12.12 0 0 1-.082.006"/><path fill="#242754" d="M98.185 19.101H54.697a4.45 4.45 0 0 0-4.45 4.45V118.5a4.45 4.45 0 0 0 4.45 4.45h43.488a4.45 4.45 0 0 0 4.451-4.45V23.552a4.45 4.45 0 0 0-4.45-4.45"/><path fill="#51e5e1" d="M97.887 21.374H82.54c-1.027 0-2.003.549-2.452 1.472a4.051 4.051 0 0 1-7.292 0c-.448-.923-1.425-1.473-2.452-1.473H54.998a2.394 2.394 0 0 0-2.394 2.394v94.514a2.394 2.394 0 0 0 2.394 2.394h42.885a2.395 2.395 0 0 0 2.394-2.394V23.763a2.39 2.39 0 0 0-2.39-2.39"/><path fill="#8179fa" d="M78.89 81.648c-9.44 0-18.362 1.166-26.284 3.237v33.396a2.394 2.394 0 0 0 2.393 2.394h42.885a2.394 2.394 0 0 0 2.394-2.394v-34.53c-6.638-1.354-13.848-2.104-21.389-2.104"/><path fill="#dcdbfd" d="M91.577 77.829c-.396.541-.7.862-.7.862l-.722-.95s2.108-3.406 1.532-5.924c-.577-2.512-3.952-6.033-3.952-6.033V63.95s.915.748 2.029 1.945c1.219 1.307 2.67 3.155 3.397 5.131.994 2.698-.594 5.448-1.584 6.804M67.787 61.604l-1.69 1.615s-2.97-1.32-5.426-3.758c-2.456-2.434-2.786-5.413-2.786-5.413l1.32-1.61s.01.585.4 1.676c.318.876.877 2.077 1.871 3.565 1.118 1.663 2.685 2.64 3.978 3.208 1.307.567 2.333.717 2.333.717"/><path fill="#dcdbfd" d="M60.671 59.46c-2.455-2.433-2.785-5.412-2.785-5.412l1.32-1.61s.009.585.4 1.676c-.338.154-.598.334-.695.559-.502 1.162 2.913 4.62 4.84 5.883.476.313 1.053.392 1.704.33 1.307.568 2.332.718 2.332.718l-1.69 1.615s-2.97-1.32-5.426-3.758M92.466 74.312c-.762 1.848-1.47 2.737-.89 3.516-.395.541-.7.863-.7.863l-.72-.95s2.107-3.407 1.53-5.924c-.576-2.513-3.951-6.033-3.951-6.033v-1.836s.915.749 2.029 1.946c-.031.726.11 1.5.558 2.257 1.54 2.583 3.186 3.626 2.144 6.161" opacity=".5"/><path fill="#dcdbfd" d="M90.878 48.472c-.013 1.1-.238 2.28-.722 3.503-.717 1.822-1.668 3.503-3.147 4.691q-.6.494-1.333.863a18.3 18.3 0 0 1-4.819 1.641c-1.39.26-2.807.352-4.216.251a26 26 0 0 1-2.297-.264c-1.813-.295-3.608-.792-5.254-1.567-3.85-1.817-6.271-7.04-4.405-12.819.224-.69.572-1.28 1.016-1.787.678-.787 1.58-1.368 2.58-1.8 3.757-1.623 8.893-1.09 8.893-1.09s4.62-.22 8.581 1.047c.159.053.317.105.471.167 2.451.968 4.242 3.177 4.59 6.011q.007.032.009.057c.044.352.061.722.053 1.096"/><path fill="#fff" d="M74.344 59.157c-1.813-.295-3.608-.792-5.254-1.567-3.85-1.817-6.271-7.04-4.405-12.819.572-1.76 1.95-2.878 3.595-3.586.564 1.36 1.505 3.454 2.126 4.189.88 1.047 1.267 8.418 2.314 10.676.691 1.496.854 2.24 1.624 3.107M90.878 48.471c-.013 1.1-.238 2.28-.722 3.503-.91 2.32-2.2 4.405-4.48 5.554a18.3 18.3 0 0 1-4.819 1.642c.414-.696.639-1.448 1.167-2.659 1.069-2.437 1.465-10.385 2.363-11.512.523-.655 1.272-2.31 1.84-3.692 2.45.968 4.242 3.177 4.59 6.011q.007.033.008.058.053.555.053 1.095"/><path fill="#413d99" d="M85.813 53.56q-.106.164-.225.29c-.246.26-.528.457-.836.607-.489.237-1.047.347-1.66.356q-.5 0-1.042-.079c-.858-.128-1.782-.405-2.728-.779-1.21-.47-2.13-.58-3.037-.453-.871.123-1.73.466-2.82.92-.155.061-.309.127-.472.193-2.53 1.048-4.568-.325-5.448-3.96-.686-2.826.233-4.52.674-5.127.123-.176.206-.26.206-.26s.484-.255 1.422-.572c1.104-.37 2.843-.827 5.18-1.056.391-.04.796-.07 1.223-.097q.428-.02.884-.035a20 20 0 0 1 1.62.017c.783.04 1.505.124 2.17.238 3.313.568 5.214 1.888 5.711 2.218.62.414.366 5.765-.823 7.578"/><path fill="#2e2e89" d="M85.672 53.487c-.489.238-1.048.348-1.66.356q-.5 0-1.042-.079c-.858-.127-1.783-.405-2.729-.779-1.21-.47-2.13-.58-3.036-.453-.872.123-1.73.467-2.821.92-.154.061-.308.127-.471.193-2.53 1.048-4.568-.325-5.448-3.96-.543-2.232-.082-3.756.352-4.598-.257.111-.392.181-.392.181s-.083.084-.206.26c-.44.607-1.36 2.302-.674 5.127.88 3.635 2.918 5.008 5.448 3.96.163-.066.317-.132.471-.193 1.091-.454 1.95-.797 2.821-.92.907-.128 1.826-.018 3.037.453.946.374 1.87.651 2.728.78q.54.078 1.043.078c.611-.009 1.17-.119 1.659-.356.308-.15.59-.348.836-.607q.12-.126.225-.29.071-.112.138-.24c-.091.058-.182.12-.28.167"/><path fill="#dcdbfd" d="M83.995 57.863a13.3 13.3 0 0 0 3.014-1.197q-.6.494-1.333.863a18.3 18.3 0 0 1-4.82 1.641c-1.39.26-2.807.352-4.215.25a26 26 0 0 1-2.297-.263c-1.813-.295-3.609-.792-5.254-1.567-3.851-1.817-6.272-7.04-4.406-12.819.225-.69.573-1.28 1.017-1.787-.63 2.496-.792 5.875 1.184 9.211 3.855 6.495 10.781 7.371 17.11 5.668" opacity=".5"/><path fill="#413d99" d="M77.46 40.084s.154-1.915-.084-3.601c-.239-1.687-.606-2.842-.606-2.842h-.33s.336 1.21.535 2.897.102 3.546.102 3.546z"/><path fill="#413d99" d="M77.617 32.953a1.114 1.114 0 1 1-2.228 0 1.114 1.114 0 0 1 2.228 0"/><path fill="#fff" d="M88.994 66.114c-.933 4.858-3.041 15.437-4.815 18.346q-.23.385-.453.577c-1.77 1.527-4.005 1.795-6.548 2.006v.031l-.172-.013-.172.013v-.03c-2.548-.212-4.779-.48-6.548-2.007-1.848-1.598-4.26-13.642-5.267-18.923s3.81-6.104 6.05-5.721c1.844.317 4.907.449 5.937.484 1.025-.035 4.088-.167 5.936-.484a6.6 6.6 0 0 1 1.642-.053c2.341.198 5.21 1.584 4.41 5.774"/><path fill="#dcdbfd" d="M84.18 84.46q-.23.385-.454.577c-1.769 1.527-4.004 1.795-6.548 2.007v.03l-.171-.013-.172.013v-.03c-2.548-.212-4.78-.48-6.548-2.007-1.849-1.598-4.26-13.642-5.268-18.923s3.811-6.104 6.051-5.72c1.844.316 4.907.448 5.937.483 1.025-.035 4.088-.167 5.936-.484a6.6 6.6 0 0 1 1.642-.053s-4.194 2.94-7.45 2.284c-3.262-.655-8.177-1.166-9.058 1.4-.88 2.565.577 19.288 9.383 20.903 2.367.436 4.647.163 6.72-.467" opacity=".5"/><path fill="#413d99" d="M53.5 49.619a.66.66 0 0 0-.263.81c.398.96 1.437 2.95 3.363 3.473 2.567.697 3.74-1.583 3.85-2.68.075-.743-.17-2.112-.336-2.916a.66.66 0 0 0-.775-.514.66.66 0 0 0-.522.782c.232 1.09.5 3.23-.786 3.861-1.679.824-2.793-1.432-3.265-2.68a.66.66 0 0 0-.968-.322zM90.41 83.484a.66.66 0 0 0 .758-.388c.398-.96 1.07-3.101.078-4.833-1.323-2.308-3.764-1.526-4.618-.828-.579.473-1.373 1.614-1.824 2.3a.66.66 0 0 0 .184.912.66.66 0 0 0 .923-.184c.606-.935 1.93-2.638 3.286-2.175 1.77.605.963 2.988.413 4.204a.658.658 0 0 0 .458.911z"/><path fill="#b6b6f2" d="M77.132 99.2c7.422 0 13.44-1.219 13.44-2.723s-6.018-2.722-13.44-2.722c-7.423 0-13.44 1.219-13.44 2.722 0 1.504 6.017 2.723 13.44 2.723" opacity=".5"/><path fill="#fefefe" d="M72.442 50.381a1.1 1.1 0 1 0 0-2.2 1.1 1.1 0 0 0 0 2.2M82.343 50.381a1.1 1.1 0 1 0 0-2.2 1.1 1.1 0 0 0 0 2.2"/><path fill="#dcdbfd" d="M72.18 65.793s-.047 12.008 4.033 14.622 6.72-14.786 5.62-15.602-3.264.688-5.465.394-3.903-1.47-4.188.586"/><path fill="#413d99" d="M79.906 69.04a2.78 2.78 0 1 1-5.56 0 2.78 2.78 0 0 1 5.56 0"/><path fill="#fff" d="M78.56 69.04a1.433 1.433 0 1 1-2.867 0 1.433 1.433 0 0 1 2.867 0"/><path fill="#413d99" d="M78.56 74.88a1.433 1.433 0 1 1-2.867 0 1.433 1.433 0 0 1 2.867 0"/><path fill="#ffbf9f" d="M39.803 123.872c-1.355.185-4.62-.295-5.39-.585-.753-.286-.63-1.025-.454-2.869l.013-.141c.185-1.941.185-4.326.185-4.326l3.226-.295s-.366 1.43-.55 2.311c-.18.88.514 2.09 1.06 2.57.198.171.819.391 1.554.624 1.276.41 2.89.872 3.216 1.246.515.585-1.5 1.28-2.86 1.465"/><path fill="#ed56a8" d="M39.804 123.873c-1.355.184-4.62-.295-5.39-.586-.753-.286-.63-1.025-.454-2.869 1.056.73 2.552 1.597 3.608 1.509a3.36 3.36 0 0 0 1.88-.765c1.276.409 2.89.871 3.216 1.245.515.585-1.5 1.281-2.86 1.466"/><path fill="#ffbf9f" d="M18.062 122.112c-1.58-.475-4.77-1.945-5.281-2.895-.462-.854.545-1.739 1.395-2.702q.152-.172.29-.344c.88-1.1 2.346-3.705 2.346-3.705l2.385 1.835s-.695.805-1.21 1.505c-.515.695-.88 1.54-.295 2.786.154.325.383.629.642.92.74.827 1.734 1.535 1.928 2.16.255.845-.625.916-2.2.44"/><path fill="#ed56a8" d="M18.061 122.112c-1.58-.475-4.77-1.945-5.28-2.896-.463-.854.545-1.738 1.394-2.702.141.841.506 1.809 1.391 2.407 1.118.762 2.143.731 2.768.59.74.827 1.734 1.536 1.928 2.161.255.845-.625.915-2.2.44"/><path fill="#572987" d="M37.957 116.062a.5.5 0 0 1-.062.145c-.51.849-3.265.4-3.736.352-.497-.057-.44-.335-.44-1.84s-.603-9.496-.33-13.51c.26-3.793-.564-6.988-.652-7.322q-.01-.032-.008-.031s-.167 1.14-.387 2.953-1.043 3.19-4.287 7.701c-3.247 4.511-8.035 9.901-8.475 10.174-.44.277-2.694-1.206-3.187-1.703-.497-.497 9.242-14.852 9.625-15.565.383-.717-1.76-14.522-1.703-16.283.052-1.76 2.776-8.14 2.776-8.14l8.093.672s3.486 16.103 3.706 21.713c.22 5.611-.66 19.641-.933 20.684"/><path fill="#cc684e" d="M33.557 52.311s1.042-1.242 1.07-2.893c.027-1.65-1.293-1.815-1.348-1.925s-1.568-1.815-3.549-1.953-3.41 1.623-3.41 1.623-3.163-.278-3.796 1.759.798 2.834 0 4.787c-.797 1.953-1.265 4.043-.055 5.28s5.679.607 6.127-.548c.447-1.157.254-3.027.502-4.567s4.459-1.563 4.459-1.563"/><path fill="#ffbf9f" d="M28.363 57.496s.33-.661.24-1.981c-.092-1.32-.257-2.44-.642-2.714-.385-.275-.77-.66-.459-1.284.312-.623.766-.568 1.116-.476s2.038-.715 2.955-1.907c.916-1.192 1.246-1.1 1.632-.66s.421 1.173.421 2.31-.146 3.3-.697 4.107-1.228.935-1.228.935 0 .77.256 1.284c.257.514.366.567.366.567s.918 2.385-.255 3.137c-1.174.751-1.78.513-2.696-.844s-1.01-2.474-1.01-2.474M37.404 70.385c.09.274 1.137 2.255 2.237 2.549s1.577-.616 2.109-1.207c.532-.59 3.575-8.071 4.2-8.805.623-.733 1.888-1.815 2.31-2.915.421-1.1.421-2.09 0-2.145-.422-.055-1.834 1.356-2.09 1.448-.257.092-.166-.44-.33-.66-.166-.22-.808.66-.881 1.394-.074.734-.055 1.944-.257 2.2-.201.257-2.695 3.337-3.447 4.41a28 28 0 0 0-1.411 2.283l-.386-1.081z"/><path fill="#ed56a8" d="M39.255 68.939c-.093.114-.29.303-.52.515h-.004c-.48.44-1.113.98-1.236 1.205-.18.33-1.21-2.785-1.21-2.785s-.071.66-.256 1.87-.515 2.935-.515 3.705c0 .115-.004.207-.022.286-.07.366-.396.41-1.76.524q-.507.04-1.223.106c-2.826.255-5.316-.295-5.686-.405-.321-.097-.475-.594-.176-1.923q.061-.265.14-.568c.476-1.76-1.21-5.83-1.21-5.83l-.004.017c-.066.264-.902 3.547-1.536 3.758a1 1 0 0 1-.11.022c-.686.08-2.455-.682-2.974-1.034a.5.5 0 0 1-.141-.124c-.15-.26 2.345-7.96 3.005-9.206s4.546-1.575 4.546-1.575c.057.695.7 1.668 1.193 2.253.497.59 2.055 1.668 2.64.422.59-1.245.128-2.495.128-2.495s2.9.295 3.74.515c.845.22 3.12 7.957 3.3 8.581.186.625.26 1.065.37 1.43.11.366-.184.366-.48.736"/><path fill="#bf3c8a" d="M35.492 73.735c-.088.458-.572.41-2.984.63-2.825.255-5.316-.295-5.686-.405-.365-.11-.51-.731-.035-2.491.476-1.76-1.21-5.831-1.21-5.831l.854-2.522s-.277 3.41.44 5.035c.713 1.619.576 4.123 2.64 4.04 2.064-.08 3.794-.463 3.657.004-.136.462-.277.867 1.017 1.236.392.11.876.198 1.307.304M38.73 69.454c-.48.44-1.113.981-1.236 1.205-.18.33-1.21-2.785-1.21-2.785s.21-1.237.352-2.117c.136-.88-.15-1.87-.353-2.258-.189-.36-.466-.818-.497-.875.097.083 1.338 1.219 1.206 2.94-.136 1.786.757 4.343 1.738 3.89"/><path fill="#ffbf9f" d="M33.058 73.537c-.55-.325-1.126-.136-.717-.603.414-.466.25-.743-.246-.523-.493.22-.713.66-1.813.497-.643-.097-2.254-.493-3.635-.871-.986-.273-1.857-.533-2.17-.67-.744-.33-1.017-.488-.964-.681.035-.115.242-.744.414-1.25-.687.079-2.456-.682-2.975-1.034-.26.999-.766 3.239-.326 4.229.577 1.293 3.547 1.813 5.145 1.8 1.593-.014 4.18.044 5.223.32 1.048.274 1.99.516 2.504 0 .18-.18.247-.343.234-.492-.022-.277-.317-.506-.674-.722"/><path fill="#ed8772" d="m39.842 68.937-.293.825.146-1.36zM31.701 55.827s-1.174.037-1.687-.404c-.513-.44-.916-1.008-.916-1.008s1.521 3.099 1.943 2.879.66-1.467.66-1.467"/><path fill="#b25644" d="M28.534 54.704s-2.048.243-2.68-.555c-.634-.797-.414-2.585-.276-3.355s.193-1.128.193-1.128-.55.743-.66 3.08 1.925 2.586 2.53 2.613.951 0 .951 0z"/><path fill="#2e1359" d="M37.895 116.206c-.51.849-3.266.4-3.737.352-.497-.057-.44-.334-.44-1.84 0-1.505-.603-9.496-.33-13.51.26-3.793-.563-6.988-.651-7.322-.009-.022-.009-.031-.009-.031s.22-3.921 0-6.949-.44-5.228-.44-5.228.77 2.588 1.928 11.28c1.153 8.69-.335 17.219 0 20.682.21 2.236 2.257 2.592 3.678 2.566"/><path fill="#ed8772" d="M150.376 119.914c.06.995.446 2.051.384 2.538-.075.564-.894.819-2.253.88-1.363.062-4.407.226-4.922-.338-.516-.565 1.493-.744 2.111-1.12.251-.151.598-.355.953-.671.523-.456 1.074-1.152 1.374-2.245.508-1.839-.771-15.136-.771-15.136l4.217-.535s.09 1.266-.243 4.765c-.333 3.497-.769 10.265-.849 11.383a4 4 0 0 0-.001.479"/><path fill="#572987" d="M150.76 122.452c-.075.564-.894.819-2.253.88-1.363.062-4.407.226-4.922-.338-.516-.564 1.493-.744 2.111-1.119.251-.152.598-.356.953-.671.302.245.692.315 1.184.031 1.202-.694 1.91-1.307 2.542-1.32.061.995.447 2.05.385 2.537"/><path fill="#ed8772" d="M138.034 119.142c-.066.995.185 2.09.062 2.566-.146.55-.99.699-2.346.589-1.36-.11-4.401-.33-4.841-.955s1.576-.55 2.236-.845c.268-.118.638-.277 1.03-.545.576-.388 1.21-1.008 1.646-2.055.734-1.761 1.139-15.112 1.139-15.112h4.251s-.07 1.267-.84 4.695-2.055 10.087-2.275 11.187a4 4 0 0 0-.062.475"/><path fill="#572987" d="M138.096 121.708c-.146.55-.99.7-2.346.59-1.36-.11-4.401-.33-4.841-.955s1.576-.55 2.236-.845c.268-.119.638-.277 1.03-.546.268.282.647.401 1.17.181 1.281-.537 2.06-1.057 2.689-.991-.066.995.185 2.091.062 2.566"/><path fill="#ed8772" d="M140.021 74.18s-.957 3.184.869 3.679 3.369-2.78 2.378-3.631c-.991-.852-3.247-.047-3.247-.047"/><path fill="#572987" d="M149.793 104.325c-2.601.11-4.511.039-4.841-.273-.33-.308-.77-12.82-.77-12.82s-.585 1.946-.66 4.291c-.07 2.35-.255 7.116-.66 8.071-.4.951-4.911.181-6.891-.149-.881-.146-1.219-.59-1.263-1.228-.062-.788.33-1.879.673-3.063.625-2.126 1.43-4.801 2.46-10.487 1.025-5.686 3.85-14.487 3.85-14.487l8.762.26s1.14 2.38 1.47 5.17c.33 2.786.18 10.193.291 12.723s1.139 9.206 1.395 10.931c.255 1.721-1.211.951-3.816 1.061"/><path fill="#2e1359" d="M144.181 91.233s-.585 1.945-.66 4.29c-.07 2.35-.255 7.116-.66 8.071-.4.951-4.911.181-6.891-.149-.881-.146-1.219-.59-1.263-1.228 2.693.607 6.865-.308 7.974-4.749 1.32-5.28 1.1-18.298 1.1-18.298z"/><path fill="#ed8772" d="M142.772 48.676s-1.483 6.546.304 9.737c1.786 3.19 6.187 1.65 6.407-1.87s-.461-9.132-3.229-9.132c-2.767 0-2.657-.715-3.482 1.265"/><path fill="#242754" d="M136.577 63.693h1.554c.118 0 .232.048.314.133l1.579 1.613a.44.44 0 0 1-.315.748h-1.748a.44.44 0 0 1-.334-.153l-1.383-1.614a.44.44 0 0 1 .333-.727"/><path fill="#f9c041" d="M150.611 60.824c-.132 1.976.502 5.013.502 5.013s-.66 2.697-1.21 4.017.66 3.85.55 4.586c-.11.73-6.051.77-7.481.62a11 11 0 0 1-.656-.083c-.854-.146-1.012-.317-1.012-.317s-.568.29-1.338.18c-.277-.04-.413-.114-.462-.281-.079-.304.115-.916.277-2.21.093-.726.26-2.583.44-4.713.093-1.065.185-2.196.278-3.287.233-2.825.44-5.382.493-5.791.11-.88 2.13-2.016 2.13-2.016s.07 1.835 1.1 2.275c1.025.44 2.97-.44 3.591-1.1.625-.66 1.8-1.87 1.8-1.87s1.245.33 1.905.695 1.505 1.87 1.505 1.87-.735-.035-1.91.88c-.312.243-.458.82-.502 1.532"/><path fill="#ff8a33" d="M141.25 72.24c-.149 1.1-.774 1.83.053 2.42 0 0-.567.29-1.338.18-.277-.04-.413-.114-.462-.281.484.119.947.048 1.087-.559.33-1.43 1.101-5.136.291-5.906a2.6 2.6 0 0 0-.66-.457c.092-1.065.185-2.196.277-3.288.22.361.343.484.383-.14.075-1.065.81-3.631 1.395-3.411 0 0-1.026 1.795-1.026 3.26 0 1.47.331 2.936.331 3.891 0 .95-.185 3.19-.331 4.29" opacity=".58"/><path fill="#ed8772" d="M144.339 66.747s-1.994-1.472-2.971-1.802c-.976-.33-1.732-.028-1.292.454.44.481.385.495-.385.275s-2.118-.948-1.912-.185 1.912 1.698 2.943 1.986c1.032.29 2.957.454 2.957.454z"/><path fill="#242754" d="M143.623 48.044s1.953-.303 2.86.633c.908.935.745 2.778.36 4.648s-.085 3.867 1.62 3.886 2.724-.805 2.971-3.006c.248-2.2-1.238-2.338-1.54-3.685-.303-1.348-1.341-4.786-3.641-4.786s-2.63.908-2.63.908-1.926.302-2.063 2.255.275 2.255-.523 4.043c-.797 1.788-2.134 3.164-1.534 4.649s1.386 2.047 1.386 2.047-.152-1.22.539-1.826c.69-.605 1.692-1.266 1.692-1.266s1.368-.721 1.383-.853c.017-.15-.062-.849-.062-.849-.857-.364-1.444-1.998-1.585-3.379-.326-3.204.767-3.42.767-3.42"/><path fill="#c96353" d="M144.443 54.84s.144.162.777-.086c.632-.247 1.21-.88 1.21-.88s-.34 1.617-1.926 1.816c.002-.285-.061-.85-.061-.85"/><path fill="#ff8a33" d="M150.452 74.44c-.11.73-6.051.77-7.481.62a11 11 0 0 1-.656-.084c.818-.858 3.912-.792 5.791-1.491 2.368-.88 0-1.928-2.697-3.248-2.702-1.32-2.333-2.13-2.333-1.98-.004.154.951-1.734.951-1.734s.669-.52 2.403.088c1.729.603 3.547.493 3.089-1.672-.458-2.161.532-4.436.532-4.436s.212.114.559.32c-.132 1.977.502 5.013.502 5.013s-.66 2.698-1.21 4.018.66 3.85.55 4.586" opacity=".58"/><path fill="#ffdd50" d="M153.022 58.412s2.347 7.335 2.347 9.462-1.136 3.74-2.127 3.924-8.287-2.2-9.277-2.787c-.991-.587-1.101-.734-.587-1.687.513-.953.99-1.1 1.687-.806.696.293 6.784 1.943 6.637 1.54-.146-.404-1.628-5.92-1.65-7.555-.037-2.787.99-4.621 2.97-2.09"/><path fill="#51e5e1" d="M116.52 45.572h17.397a4.147 4.147 0 1 1 0 8.295H116.52a4.147 4.147 0 0 1 0-8.295"/><path fill="#51e5e1" d="M133.916 53.867v2.584a.42.42 0 0 1-.722.294l-3.653-3.732z"/><path fill="#fff" d="M131.848 50.618a.898.898 0 1 0 0-1.796.898.898 0 0 0 0 1.796M127.281 50.618a.898.898 0 1 0-.001-1.795.898.898 0 0 0 .001 1.795M123.154 50.618a.898.898 0 1 0-.001-1.795.898.898 0 0 0 .001 1.795M117.688 49.72a.898.898 0 1 0 1.795 0 .898.898 0 0 0-1.795 0"/><path fill="#8179fa" d="M104.74 36.042c8.208 0 14.861-3.592 14.861-8.023s-6.653-8.022-14.861-8.022-14.862 3.592-14.862 8.022 6.654 8.023 14.862 8.023"/><path fill="#8179fa" d="M95.053 32.005c-.647 3.018-2.16 5.017-4.189 6.814 6.718-.155 10.011-5.23 10.011-5.23s-5.506-3.06-5.822-1.584"/><path fill="#fff" d="M114.688 25.698H94.936v1.322h19.752zM111.803 29.017H94.936v1.322h16.867z"/><path fill="#38c6bb" d="M87.267 106.541H65.615a3.61 3.61 0 0 0-3.612 3.612v.92a3.61 3.61 0 0 0 3.612 3.612h21.652a3.61 3.61 0 0 0 3.612-3.612v-.92a3.61 3.61 0 0 0-3.612-3.612"/><path fill="#51e5e1" d="M87.267 105.972H65.615a3.61 3.61 0 0 0-3.612 3.612v.92a3.61 3.61 0 0 0 3.612 3.612h21.652a3.61 3.61 0 0 0 3.612-3.612v-.92a3.61 3.61 0 0 0-3.612-3.612"/></svg>