<svg xmlns="http://www.w3.org/2000/svg" width="199" height="126" fill="none" viewBox="0 0 199 126"><path fill="#ffdbdb" d="M169.19 119.199c15.935 0 29.099-12.794 29.146-28.729a28.72 28.72 0 0 0-7.923-19.933c-5.255-5.53-7.902-12.986-7.726-20.613q.01-.425.01-.852c0-18.686-14.12-33.836-31.538-33.836h-.16c-8.534.046-16.74-3.004-23.273-8.493A28.7 28.7 0 0 0 109.202 0q-1.817.001-3.575.22a116.8 116.8 0 0 1-28.689 0 29 29 0 0 0-3.57-.22c-13.75 0-25.25 9.627-28.124 22.51a1.62 1.62 0 0 1-1.579 1.275c-15.917 0-28.82 12.903-28.82 28.82v.123c.029 6.69-2.512 13.091-7.081 17.978A28.72 28.72 0 0 0 0 90.382C0 106.297 12.903 119.2 28.82 119.2z"/><path fill="#ccccce" d="M99.166 126c47.452 0 85.921-3.022 85.921-6.749s-38.469-6.748-85.921-6.748-85.921 3.021-85.921 6.748S51.713 126 99.165 126"/><path fill="#83a9fe" d="M147.772 117.892H53.556a8.633 8.633 0 0 1-8.633-8.633V46.536h111.482v62.723a8.633 8.633 0 0 1-8.633 8.633"/><path fill="#fc4" d="M126.945 82.162c.045 8.17-3.076 15.884-8.785 21.722-5.699 5.829-13.323 9.121-21.466 9.272q-.286.005-.577.005H61.656l2.796-4.222-2.796-4.718h34.46q.208 0 .412-.004a21.76 21.76 0 0 0 15.24-6.583 21.75 21.75 0 0 0 6.237-15.423c-.031-5.833-2.32-11.305-6.446-15.407-4.034-4.012-9.37-6.26-15.06-6.357l.45 1.92-8.913-4.89 5.82-8.334.563 2.407q.85-.046 1.697-.048c8.212 0 15.936 3.183 21.748 8.963s9.037 13.486 9.081 21.697"/><path fill="#f36967" d="m139.669 108.495-7.564-6.79v2.32h-11.497q-.592.672-1.225 1.319a34.7 34.7 0 0 1-10.978 7.582l-.035.039h23.734v2.32zM74.206 82.309c0-10.217 7.055-18.815 16.548-21.185l-4.95-3.003 4.491-5.87C76.16 54.948 65.441 67.399 65.441 82.309c0 7.427 2.66 14.244 7.078 19.549h13.804c-7.176-3.582-12.117-10.999-12.117-19.55"/><path fill="#dfdfdf" d="M77.738 86.062v-7.697H81.6a15 15 0 0 1 1.563-3.77l-2.733-2.733 5.443-5.442 2.733 2.733a15 15 0 0 1 3.77-1.563v-3.864h7.696v3.864a15 15 0 0 1 3.77 1.563l2.733-2.733 5.442 5.442-2.733 2.733a15 15 0 0 1 1.563 3.77h3.864v7.697h-3.863a15 15 0 0 1-1.563 3.77l2.733 2.732-5.443 5.443-2.733-2.733a15 15 0 0 1-3.77 1.563v3.863h-7.696v-3.863a15 15 0 0 1-3.77-1.563l-2.733 2.733-5.442-5.443 2.732-2.732a15 15 0 0 1-1.562-3.77z"/><path fill="#fff" d="M96.227 90.733a8.519 8.519 0 1 0 0-17.038 8.519 8.519 0 0 0 0 17.038"/><path fill="#dfdfdf" d="M132.512 32.55v-3.71h-1.862a7.3 7.3 0 0 0-.753-1.816l1.317-1.317-2.623-2.623-1.317 1.317a7.2 7.2 0 0 0-1.816-.753v-1.862h-3.709v1.862a7.2 7.2 0 0 0-1.817.753l-1.317-1.317-2.623 2.623 1.317 1.317a7.3 7.3 0 0 0-.753 1.817h-1.862v3.709h1.862c.169.645.425 1.254.753 1.816l-1.317 1.317 2.623 2.623 1.317-1.317a7.2 7.2 0 0 0 1.817.753v1.862h3.709v-1.862a7.2 7.2 0 0 0 1.816-.753l1.317 1.317 2.623-2.623-1.317-1.317a7.3 7.3 0 0 0 .753-1.816z"/><path fill="#fff" d="M123.602 34.8a4.105 4.105 0 1 0 0-8.21 4.105 4.105 0 0 0 0 8.21"/><path fill="#dfdfdf" d="M26.257 73.857v-3.71h-1.861a7.3 7.3 0 0 0-.754-1.816l1.317-1.317-2.622-2.623-1.317 1.317a7.2 7.2 0 0 0-1.817-.753v-1.862h-3.709v1.862a7.2 7.2 0 0 0-1.816.753l-1.317-1.317-2.623 2.623 1.317 1.317a7.2 7.2 0 0 0-.753 1.816H8.44v3.71h1.862c.17.644.425 1.254.753 1.816L9.738 76.99l2.623 2.623 1.317-1.317a7.2 7.2 0 0 0 1.817.753v1.862h3.708v-1.862a7.2 7.2 0 0 0 1.817-.753l1.317 1.317 2.623-2.623-1.317-1.317a7.2 7.2 0 0 0 .753-1.817z"/><path fill="#fff" d="M17.348 76.107a4.105 4.105 0 1 0 0-8.21 4.105 4.105 0 0 0 0 8.21"/><path fill="#dfdfdf" d="M189.889 79.092v-3.71h-1.862a7.2 7.2 0 0 0-.753-1.816l1.317-1.317-2.623-2.623-1.317 1.317a7.2 7.2 0 0 0-1.816-.753V68.33h-3.709v1.861a7.2 7.2 0 0 0-1.817.754l-1.317-1.318-2.622 2.623 1.317 1.317a7.2 7.2 0 0 0-.753 1.817h-1.862v3.709h1.862c.169.645.424 1.254.753 1.817l-1.317 1.317 2.622 2.622 1.317-1.317a7.2 7.2 0 0 0 1.817.753v1.862h3.709v-1.862a7.2 7.2 0 0 0 1.817-.753l1.317 1.317 2.622-2.622-1.317-1.317a7.2 7.2 0 0 0 .753-1.817z"/><path fill="#fff" d="M180.982 81.343a4.105 4.105 0 1 0 0-8.21 4.105 4.105 0 0 0 0 8.21"/><path fill="#6b9ee8" d="M156.405 46.535H44.923v-7.19a8.633 8.633 0 0 1 8.633-8.634h94.216a8.633 8.633 0 0 1 8.633 8.633z"/><path fill="#83a9fe" d="M55.663 42.577a3.953 3.953 0 1 0 0-7.907 3.953 3.953 0 0 0 0 7.907M67.522 42.577a3.953 3.953 0 1 0 0-7.907 3.953 3.953 0 0 0 0 7.907M79.38 42.577a3.953 3.953 0 1 0 0-7.907 3.953 3.953 0 0 0 0 7.907M145.181 42.577h-33.149a3.736 3.736 0 0 1-3.736-3.735v-.436a3.736 3.736 0 0 1 3.736-3.736h33.149a3.735 3.735 0 0 1 3.735 3.736v.436a3.735 3.735 0 0 1-3.735 3.735"/><path fill="#5eea6e" d="M168.461 103.79s-3.01-4.446-2.73-8.324c0 0 4.06 3.13 4.62 8.324z"/><path fill="#52db5b" d="M170.694 104.658s-2.145-4.83-1.151-8.613c0 0 3.424 3.688 3.015 8.893z"/><path fill="#5eea6e" d="M172.43 104.573s-2.343-6.949-.264-11.917c0 0 4.404 5.621 2.947 12.628z"/><path fill="#52db5b" d="M174.735 104.751s-.216-7.255 3.253-11.56c0 0 2.594 6.46-.875 12.876z"/><path fill="#dfdfdf" d="M176.85 117.893h-7.707a2.2 2.2 0 0 1-2.2-2.2V103.79h12.107v11.903a2.2 2.2 0 0 1-2.2 2.2"/><path fill="#5eea6e" d="M22.035 103.79s-3.01-4.446-2.73-8.324c0 0 4.06 3.13 4.62 8.324z"/><path fill="#52db5b" d="M24.268 104.658s-2.145-4.83-1.151-8.613c0 0 3.424 3.688 3.015 8.893z"/><path fill="#5eea6e" d="M26.005 104.573s-2.344-6.949-.265-11.917c0 0 4.405 5.621 2.947 12.628z"/><path fill="#52db5b" d="M28.308 104.751s-.215-7.255 3.254-11.56c0 0 2.594 6.46-.875 12.876z"/><path fill="#dfdfdf" d="M30.425 117.893h-7.708a2.2 2.2 0 0 1-2.2-2.2V103.79h12.108v11.903a2.2 2.2 0 0 1-2.2 2.2"/><path fill="#182430" d="M165.352 59.268c-.76-.649-.022-2.371-.156-3.624-.135-1.253-1.701-3.67-4.812-3.446-2.095.15-2.727 1.276-2.917 1.995.481.198 1.437.72 1.184 1.685-.225-.76-1.265-1.084-1.265-1.084s-1.029-.516-1.605-.18c-.575.336-1.663.224-1.998.022-.336-.2-1.611-.424-1.767.336-.158.762-.18.986-1.097 1.231-.918.245-1.254.671-.985 1.477.269.807.784 1.142.649 1.97-.133.825.22 1.228.222 1.231-.068-2.128.354-3.162.853-3.403.604-.29 1.611-1.275 1.611-1.275s.447 1.68 1.522 1.522c1.036-.15 1.811-.146 2.186 1.3q.055.212.136.417c.855 2.211.855 2.065.855 2.065v-1.298s.75-.556 1.343.235c.537.716.179 1.7-.885 1.791 0 0-.163 1.178-.745 1.983.088.026.161.052.211.075.41.187.747.523 1.048.835.366.382.816.715 1.355.451.873-.424 1.366-.469 2.977-.268s2.618-.156 3.356-2.08c.739-1.926-.514-3.314-1.276-3.963"/><path fill="#2f2530" d="M153.829 116.033c-.283-.939-1.581-1.566-1.581-1.566h-.298s-.896.925-1.791 1.492-1.238 1.298-1.029 1.671 4.282.238 4.282.238l1.402-1.689.062.867a.178.178 0 0 0 .356-.012v-.854s.388-1.027-.179-2.116c.179.478-.359 1.402-1.224 1.969"/><path fill="#fdb98c" d="M152.995 113.141a.89.89 0 0 1-.223.761l-.525.564s1.298.627 1.581 1.567c.866-.567 1.403-1.492 1.224-1.969s-.209-.344-.209-1.075c0-.584.247-3.05.347-4.02h-2.943z"/><path fill="#2f2530" d="M160.594 116.033c-.283-.939-1.581-1.566-1.581-1.566h-.298s-.895.925-1.79 1.492c-.896.567-1.239 1.298-1.03 1.671s4.282.238 4.282.238l1.402-1.689.062.867a.178.178 0 0 0 .356-.012v-.854s.388-1.027-.179-2.116c.179.478-.358 1.402-1.224 1.969"/><path fill="#fdb98c" d="M159.762 113.141a.89.89 0 0 1-.223.761l-.525.564s1.298.627 1.582 1.567c.865-.567 1.402-1.492 1.223-1.969s-.209-.344-.209-1.075c0-.584.247-3.05.347-4.02h-2.943z"/><path fill="#feba8d" d="M147.25 78.559s2.166 3.198 4.82 1.498a7.7 7.7 0 0 1-.707-1.498z"/><path fill="#fdb784" d="M154.433 66.43c.023.395.085.742.156 1.029.323 1.232 1.798 1.597 3.123-.089-.299-.698-.487-1.692-.573-2.225-.309.256-1.058.947-2.714 1.06q.001.11.008.225M154.426 65.93a4 4 0 0 0-.002.267c.002-.085.007-.335.012-.465q-.007.094-.01.198M159.311 60.444c-.593-.791-1.342-.236-1.342-.236v1.298s0 .146-.855-2.065a4 4 0 0 1-.137-.416c-.374-1.447-1.15-1.451-2.186-1.3-1.075.157-1.522-1.523-1.522-1.523s-1.007.985-1.611 1.276c-.499.24-.921 1.275-.852 3.403q.02.673.113 1.498c.338 2.986 3.19 3.267 3.495 3.29h.026a6.35 6.35 0 0 0 2.644-.895 1.9 1.9 0 0 0 .597-.557c.582-.805.745-1.983.745-1.983 1.064-.09 1.422-1.075.885-1.79"/><path fill="#fda72e" d="m153.291 78.663-.12-.104h-1.809c.205.6.471 1.112.707 1.498.312.512.573.806.573.806a9.7 9.7 0 0 0 3.357.605 9.75 9.75 0 0 0 3.938-.828c.176-.352.316-.725.427-1.107-1.253-.175-2.768-.005-3.9-.512-1.333-.597-3.173-.358-3.173-.358M154.591 67.46c-3.7.626-4.028 6.295-4.028 6.295l.02.222 1.83 2.255c1.208.194 1.402.865 1.402.865 1.059-.224 2.447-.134 4.64-.075 1.021.028 1.778-.038 2.299-.117.049-1.448-.136-2.583-.136-2.583l.368-.14.013-.006.36-.137.228-.087.176-.067.348-.133.469-.18.011-.004 1.697-.648c-1.014-3.76-3.461-6.027-6.504-5.639l-.07.09c-1.326 1.685-2.801 1.32-3.123.089"/><path fill="#3e2d35" d="M152.642 80.862s-1.745.85-2.215 5.617-.09 12.666.515 15.284c.604 2.618.783 7.206.783 7.206h3.916a49 49 0 0 1-.246-7.005c.061-1.612.183-2.613.492-7.116.098-1.43.174-2.61.224-3.401q.64 2.989 1.187 6.187c.674 3.958 1.16 7.746 1.498 11.334h3.626s.447-1.454 0-4.967c-.448-3.514.29-5.26.29-9.802s-.313-8.95-.872-10.719c-.56-1.768-1.902-2.842-1.902-2.842a9.8 9.8 0 0 1-3.939.828 9.7 9.7 0 0 1-3.357-.604m-.619 22.268-.03.003a.14.14 0 0 1-.136-.109 42.7 42.7 0 0 1-.988-10.327 42.6 42.6 0 0 1 .689-6.556.14.14 0 1 1 .274.05 42.3 42.3 0 0 0-.684 6.513 42.4 42.4 0 0 0 .981 10.26.14.14 0 0 1-.106.166m4.168-12.667a.139.139 0 0 1-.17-.1c-.712-2.713-.809-5.419-.81-5.446a.14.14 0 0 1 .134-.143h.005a.14.14 0 0 1 .139.134c.001.027.097 2.702.801 5.385a.14.14 0 0 1-.099.17m2.266 6.016c-.418-1.104-1.585-8.354-1.635-8.662a.14.14 0 0 1 .116-.16.14.14 0 0 1 .159.115c.013.075 1.212 7.53 1.62 8.608a.139.139 0 1 1-.26.099m-.491-14.096a.14.14 0 0 1 .163.111c.073.39.291 1.14.928 1.778.345.347.775.619 1.242.787a.139.139 0 1 1-.094.262 3.7 3.7 0 0 1-1.346-.852 3.73 3.73 0 0 1-1.004-1.923.14.14 0 0 1 .111-.163m.675 15.747a.14.14 0 0 1 .251.12c-.085.177-.209 1.038.466 5.203l.024.148a.14.14 0 0 1-.118.158l-.02.001a.14.14 0 0 1-.138-.12l-.023-.142c-.505-3.12-.654-4.926-.442-5.368m1.881-14.243c.287.24.636.411 1.006.496a.14.14 0 0 1-.061.271 2.7 2.7 0 0 1-1.124-.553 2.74 2.74 0 0 1-.88-1.399.139.139 0 1 1 .269-.07c.074.285.276.827.79 1.255"/><path fill="#2c202a" d="M155.491 84.91a.14.14 0 0 0-.139-.135h-.005a.14.14 0 0 0-.134.144c.001.027.098 2.732.81 5.446a.14.14 0 0 0 .17.1.14.14 0 0 0 .099-.17c-.703-2.683-.8-5.359-.801-5.386M160.205 85.321a.138.138 0 0 0 .178-.084.14.14 0 0 0-.083-.178 3.4 3.4 0 0 1-1.243-.786 3.45 3.45 0 0 1-.928-1.779.14.14 0 0 0-.274.052c.08.421.315 1.232 1.005 1.923.374.376.839.67 1.345.852M159.563 82.534a.14.14 0 0 0-.1.17c.083.317.308.92.881 1.399.321.267.709.459 1.123.553l.031.003a.14.14 0 0 0 .031-.275 2.4 2.4 0 0 1-1.007-.495 2.46 2.46 0 0 1-.789-1.255.14.14 0 0 0-.17-.1M158.637 96.56a.14.14 0 0 0 .081-.18c-.408-1.077-1.609-8.532-1.62-8.607a.14.14 0 0 0-.16-.115.14.14 0 0 0-.115.16c.049.307 1.216 7.557 1.634 8.662a.14.14 0 0 0 .18.08M159.108 103.641a.14.14 0 0 0 .137.119l.02-.001a.14.14 0 0 0 .119-.158l-.024-.147c-.674-4.166-.551-5.026-.466-5.203a.14.14 0 0 0-.251-.12c-.212.442-.063 2.248.442 5.367zM151.149 92.705a42.5 42.5 0 0 1 .684-6.513.14.14 0 1 0-.274-.05 42.6 42.6 0 0 0-.688 6.555c-.093 3.455.239 6.93.988 10.327a.14.14 0 0 0 .166.106.14.14 0 0 0 .106-.165 42.4 42.4 0 0 1-.982-10.26"/><path fill="#18252e" d="M153.173 78.558s-.913-.15-1.738-.41c-.793-.251-1.563-.505-1.709-1.052-.006-.025-.079-.345.074-.505.071-.076.223-.102.538-.017.836.224 2.626.358 2.626.358l-.553-.701-1.829-2.256-.513-.631-7.384.112 3.737 5.102h6.751"/><path fill="#feba8d" d="m162.111 73.752-.348.133-.176.067-.228.087-.359.137-.014.005-.114.044.767 2.484s-.286.106-.885.196c-.521.079-1.278.145-2.299.117-2.193-.06-3.58-.149-4.64.075 0 0-.194-.671-1.402-.865l.552.7s-1.79-.133-2.625-.357c-.316-.084-.467-.058-.539.017-.152.16-.08.48-.073.505.145.547.915.801 1.708 1.052.825.26 1.738.41 1.738.41l.119.105s1.841-.24 3.174.357c1.131.507 2.646.337 3.9.512q.335.043.639.13c1.343.388 3.297.253 3.849-1.298s-.898-5.319-.898-5.319l-1.365.522-.012.004z"/><path fill="#e4a577" d="m154.441 65.67-.003.063c-.006.13-.011.38-.013.464v.009c1.657-.113 2.405-.805 2.714-1.06-.036-.228-.054-.371-.054-.371a6.338 6.338 0 0 1-2.644.895"/><path fill="#369144" d="M158.65 55.878c.254-.965-.703-1.487-1.183-1.685-.093.348-.081.6-.081.6s1.04.325 1.264 1.085"/><path fill="#657e93" d="M143.78 61.049a8.78 8.78 0 0 1-3.154 5.246 8.8 8.8 0 0 1-6.483 1.882l.898-8.096z"/><path fill="#52db5b" d="M141.998 53.898a8.8 8.8 0 0 1 1.781 7.151l-8.739-.968-.279-.03-5.671-7.083q.246-.23.511-.443a8.82 8.82 0 0 1 12.397 1.373"/><path fill="#5b94d8" d="m135.041 60.081-.898 8.096.619-8.127zM129.09 52.968l5.671 7.083-.619 8.127a8.8 8.8 0 0 1-5.914-3.256 8.82 8.82 0 0 1 .862-11.954"/><path fill="#83a9fe" d="M71.473 26.387c6.034 0 10.926-4.891 10.926-10.925S77.507 4.536 71.473 4.536 60.547 9.427 60.547 15.462c0 6.034 4.892 10.925 10.926 10.925"/><path fill="#fff" d="M71.475 25.136c5.342 0 9.673-4.331 9.673-9.674s-4.33-9.674-9.673-9.674S61.8 10.12 61.8 15.462s4.33 9.674 9.674 9.674"/><path fill="#44528d" d="M71.474 7.935a.759.759 0 1 0 0-1.517.759.759 0 0 0 0 1.517M65.615 10.362a.759.759 0 1 0 0-1.518.759.759 0 0 0 0 1.518M63.19 16.22a.759.759 0 1 0 0-1.517.759.759 0 0 0 0 1.518M65.615 22.078a.759.759 0 1 0 0-1.517.759.759 0 0 0 0 1.517M71.474 24.506a.759.759 0 1 0 0-1.518.759.759 0 0 0 0 1.518M77.333 22.078a.759.759 0 1 0 0-1.517.759.759 0 0 0 0 1.517M79.76 16.22a.759.759 0 1 0 0-1.517.759.759 0 0 0 0 1.518M77.333 10.362a.759.759 0 1 0 0-1.518.759.759 0 0 0 0 1.518M73.908 18.363l-2.71-2.71v-4.327h.506v4.118l2.562 2.561z"/><path fill="#83a9fe" d="m71.469 10.356-1.12 1.938h2.24zM75.024 19.048l-.58-2.162-1.583 1.583z"/></svg>