<svg xmlns="http://www.w3.org/2000/svg" width="140" height="126" fill="none" viewBox="0 0 140 126"><g clip-path="url(#a)"><path fill="#d2e1f9" d="M116.822-.002H15.115a4.893 4.893 0 0 0-4.892 4.893v74.53a4.893 4.893 0 0 0 4.892 4.894h101.707a4.89 4.89 0 0 0 4.893-4.893V4.89a4.89 4.89 0 0 0-4.893-4.893"/><path fill="#aac8f9" d="M121.715 4.89v13.606H10.223V4.891a4.89 4.89 0 0 1 4.892-4.893h101.707a4.89 4.89 0 0 1 4.893 4.893"/><path fill="#96b9ed" d="M19.911 12.848a3.28 3.28 0 1 0 0-6.561 3.28 3.28 0 0 0 0 6.561M31.274 12.847a3.28 3.28 0 1 0 0-6.561 3.28 3.28 0 0 0 0 6.561M42.633 12.847a3.28 3.28 0 1 0 0-6.561 3.28 3.28 0 0 0 0 6.561"/><path fill="#594ca7" d="M22.51 9.455a3.28 3.28 0 1 0-6.476-1.052 3.28 3.28 0 0 0 6.477 1.052M30.634 12.208a3.28 3.28 0 1 0 0-6.561 3.28 3.28 0 0 0 0 6.56M41.994 12.208a3.28 3.28 0 1 0 0-6.561 3.28 3.28 0 0 0 0 6.56M115.95 8.928a1.53 1.53 0 0 1-1.531 1.53h-10.821a1.53 1.53 0 0 1-1.082-2.613 1.53 1.53 0 0 1 1.082-.449h10.821a1.53 1.53 0 0 1 1.415.946c.076.186.116.385.116.586"/><path fill="#ecf0f8" d="M88.035 26.643v28.624a4.55 4.55 0 0 1-4.548 4.547H48.452a4.547 4.547 0 0 1-4.547-4.547V26.643a4.547 4.547 0 0 1 4.547-4.548h35.035a4.55 4.55 0 0 1 4.548 4.548"/><path fill="#c62d6d" d="M76.546 46.422c-.053.474-2.584.16-3.163.21 0 0-3.744.528-4.06.528s-1.008-4.314-1.008-4.314c6.373.955 7.351.449 7.351.449s.932 2.653.88 3.127"/><path fill="#e23886" d="M82.124 52.818a3.03 3.03 0 0 1-2.334 2.718c-3.433.8-10.063 1.433-13.357-4.355-4.56-8.014-8.08-14.79-10.946-11.532v16.4h-2.216s.392-14.814-1.954-17.235c-1.987-2.052-2.851-8.118-.144-11.45a2.03 2.03 0 0 1 3.104-.046c3.29 3.779 11.869 13.62 12.04 13.639.211.019 5.13 6.483 9.348 2.338 0 0 6.237 1.46 6.798 4.173.053.247-.171 3.24-.34 5.35"/><path fill="#bedaeb" d="M88.035 62.8h-44.13v3.664h44.13zM88.035 70.206h-44.13v3.662h44.13zM117.372 62.8h-24.94v3.664h24.94zM117.372 70.206h-24.94v3.662h24.94zM39.507 62.8H14.568v3.664h24.94zM39.507 70.206H14.568v3.662h24.94z"/><path fill="#6a8d9d" d="M47.4 92.78 45.44 76.47a4.41 4.41 0 0 0-4.372-3.878H19.848a4.407 4.407 0 0 0-4.373 3.879l-1.959 16.31-4.258-.512 1.959-16.31a8.7 8.7 0 0 1 8.63-7.657H41.07a8.7 8.7 0 0 1 8.63 7.656l1.959 16.31z"/><path fill="#dbe8f1" d="m57.71 95-4.333 28.303a3.22 3.22 0 0 1-3.176 2.695H10.718a3.216 3.216 0 0 1-3.175-2.695L3.202 95z"/><path fill="#ee4659" d="M60.913 88.087v5.635a1.277 1.277 0 0 1-1.27 1.277H1.277A1.28 1.28 0 0 1 0 93.722v-5.635a1.28 1.28 0 0 1 1.278-1.277h58.364a1.274 1.274 0 0 1 1.27 1.277"/><path fill="#bedaeb" d="M18.66 102.968v15.06a2.31 2.31 0 0 1-3.196 2.136 2.3 2.3 0 0 1-1.25-1.251 2.3 2.3 0 0 1-.177-.885v-15.06a2.31 2.31 0 0 1 1.427-2.135 2.3 2.3 0 0 1 1.77 0 2.3 2.3 0 0 1 1.25 1.251c.116.28.176.581.176.884M28.066 102.968v15.06a2.312 2.312 0 1 1-4.623 0v-15.06a2.31 2.31 0 0 1 2.311-2.311 2.31 2.31 0 0 1 2.312 2.311M37.471 102.969v15.06a2.31 2.31 0 0 1-1.426 2.135 2.31 2.31 0 0 1-2.52-.501 2.3 2.3 0 0 1-.676-1.634v-15.06a2.314 2.314 0 0 1 2.311-2.312 2.313 2.313 0 0 1 2.311 2.312M46.877 102.969v15.06a2.31 2.31 0 0 1-3.946 1.634 2.3 2.3 0 0 1-.677-1.634v-15.06a2.314 2.314 0 0 1 2.311-2.312 2.313 2.313 0 0 1 2.312 2.312"/><path fill="#f7d634" d="M39.776 70.447a2.954 2.954 0 0 1-2.953 2.952h-12.73a2.953 2.953 0 1 1 0-5.906h12.73a2.95 2.95 0 0 1 2.953 2.953"/><path fill="#ecf0f8" d="M37.072 22.095H17.004a2.435 2.435 0 0 0-2.436 2.435v32.85a2.435 2.435 0 0 0 2.436 2.435h20.068a2.435 2.435 0 0 0 2.435-2.436V24.53a2.435 2.435 0 0 0-2.435-2.435M114.936 22.095H94.868a2.435 2.435 0 0 0-2.435 2.435v32.85a2.435 2.435 0 0 0 2.435 2.435h20.068a2.436 2.436 0 0 0 2.436-2.436V24.53a2.436 2.436 0 0 0-2.436-2.435"/><path fill="#ef9330" d="m110.116 55.333-5.811 13.309a.874.874 0 0 1-1.151.451l-21.432-9.356a.875.875 0 0 1-.45-1.151l5.81-13.31a.875.875 0 0 1 1.15-.451l21.432 9.356a.877.877 0 0 1 .452 1.152"/><path fill="#354290" d="M109.444 56.861 86.411 46.803l-1.144 2.62L108.3 59.48z"/><path fill="#fff" d="m92.078 57.872-7.252-3.167-.694 1.589 7.252 3.167zM83.836 56.998l-.693 1.588 3.536 1.544.694-1.588z"/><path fill="#fbd493" d="M119.818 61.153s4.338-5.053 5.694-.885 1.085 16.912.678 21.25c0 0 2.034 3.933-1.491 4.61 0 0-1.045 1.22-1.404 0-.36-1.22 2.081-4.474-.631-9.897s-2.846-15.078-2.846-15.078"/><path fill="#a8d271" d="M126.359 66.306c-.101-3.61-.266-4.245-.85-6.037-1.355-4.169-5.694.885-5.694.885s.053 3.752.75 7.892c2.517-2.711 3.479-4.968 5.794-2.74"/><path fill="#a8d271" d="M108.618 71.37c-.095.46 10.735 3.463 14.182-.261 0 0-.624-8.009-.898-13.076s-8.217-10.27-9.587-8.216c-1.369 2.053-4.108 1.917-3.697 9.724.411 7.806 0 11.829 0 11.829"/><path fill="#fbd493" d="M112.696 117.344h-6.115v5.853h6.115z"/><path fill="#394750" d="M106.581 121.614s-5.757 1.868-5.834 3.278c-.076 1.411 3.165 1.182 7.167.877 4.003-.305 5.003-.879 4.782-3.78.001 0-5.543.845-6.115-.375"/><path fill="#fbd493" d="M127.774 117.344h-6.115v5.853h6.115z"/><path fill="#394750" d="M121.659 121.614s-5.757 1.868-5.833 3.278c-.077 1.411 3.163 1.182 7.166.877s5.003-.879 4.782-3.78c.001 0-5.543.845-6.115-.375"/><path fill="#f3735e" d="M105.823 120.656c0 1.01 7.322 1.01 7.322 0 0 0 2.344-27.056 3.429-28.705 0 0 .142-7.207 1.699 6.85 1.556 14.056 2.688 22.412 2.688 22.412s5.519 1.321 6.887-.377-3.16-32.037-2.736-36.14-.566-12.452-2.311-13.585c0 0-10.36 2.368-14.181.246 0 0-1.723 6.843-1.987 23.87-.265 17.026-.81 25.429-.81 25.429"/><path fill="#4d322c" d="M113.752 56.513c.196-1.172.359-2.482-.318-3.459-.294-.421-.716-.731-1.117-1.053a17 17 0 0 1-2.135-2.038c-.836-.95-1.6-2.104-1.532-3.368.054-1.02.647-1.953.714-2.973.076-1.152-.526-2.289-.346-3.43.121-.759.577-1.423 1.086-2 .488-.553 1.039-1.055 1.666-1.443 1.749-1.083 4.073-1.166 5.895-.21.322.17.636.374.858.663.349.45.434 1.046.507 1.612l.232 1.803c.031.236.066.482.206.673s.373.303.594.403l1.676.757c1.544.698 3.256 1.581 3.723 3.21.173.606.147 1.248.157 1.878.023 1.678.333 3.418 1.32 4.777.656.903 1.611 1.65 1.888 2.732.126.493.096 1.013.065 1.52-.075 1.22-.163 2.485-.743 3.56-.344.637-.847 1.175-1.38 1.667-1.888 1.74-4.504 3.005-6.993 2.375-.416-.105-.824-.265-1.166-.523-.312-.236-.557-.546-.799-.853l-3.221-4.082c-.592-.751-1.216-1.722-.819-2.592"/><path fill="#fbd493" d="M108.072 69.154c-3.972.7-6.775-.778-7.553-1.013s-3.271 1.091-4.442-1.324c0 0-.677-1.398-.233-1.348s.313.294.61.673 2.249.9 2.282-.25c.018-.617.298-.914.556-1.053a.266.266 0 0 1 .395.254c-.045.552-.047 1.415 1.066 1.257 1.635-.234 6.307 1.712 7.165-1.558s-.547-13.005 3.269-12.848c0 0 2.102-.313 2.413 5.917.311 6.231-1.555 10.592-5.528 11.293"/><path fill="#a8d271" d="M113.635 59.207q-.001.297-.008.588c-2.176.873-4.033.392-5.314-.273q.017-.548.044-1.099c.163-3.36.626-6.571 2.831-6.48 0 0 2.102-.313 2.413 5.918q.034.69.034 1.346"/></g><defs><clipPath id="a"><path fill="#fff" d="M0 0h139.395v126H0z"/></clipPath></defs></svg>