<svg width="124" height="124" viewBox="0 0 124 124" fill="none" xmlns="http://www.w3.org/2000/svg">
<path d="M119.219 9.56223C116.584 9.56223 114.438 7.41561 114.438 4.78112C114.438 2.14663 116.584 0 119.219 0C121.853 0 124 2.14663 124 4.78112C124 7.43187 121.853 9.56223 119.219 9.56223ZM124 33.3865C124 30.752 121.853 28.6054 119.219 28.6054C116.584 28.6054 114.438 30.752 114.438 33.3865C114.438 36.021 116.584 38.1676 119.219 38.1676C121.853 38.1676 124 36.0372 124 33.3865ZM124 61.9919C124 59.3574 121.853 57.2108 119.219 57.2108C116.584 57.2108 114.438 59.3574 114.438 61.9919C114.438 64.6264 116.584 66.773 119.219 66.773C121.853 66.7892 124 64.6426 124 61.9919ZM124 90.6135C124 87.979 121.853 85.8324 119.219 85.8324C116.584 85.8324 114.438 87.979 114.438 90.6135C114.438 93.248 116.584 95.3946 119.219 95.3946C121.853 95.3946 124 93.248 124 90.6135ZM124 119.219C124 116.584 121.853 114.438 119.219 114.438C116.584 114.438 114.438 116.584 114.438 119.219C114.438 121.853 116.584 124 119.219 124C121.853 124 124 121.853 124 119.219ZM95.3946 4.78112C95.3946 2.14663 93.248 0 90.6135 0C87.979 0 85.8323 2.14663 85.8323 4.78112C85.8323 7.41561 87.979 9.56223 90.6135 9.56223C93.248 9.56223 95.3946 7.43187 95.3946 4.78112ZM95.3946 33.3865C95.3946 30.752 93.248 28.6054 90.6135 28.6054C87.979 28.6054 85.8323 30.752 85.8323 33.3865C85.8323 36.021 87.979 38.1676 90.6135 38.1676C93.248 38.1676 95.3946 36.0372 95.3946 33.3865ZM95.3946 61.9919C95.3946 59.3574 93.248 57.2108 90.6135 57.2108C87.979 57.2108 85.8323 59.3574 85.8323 61.9919C85.8323 64.6264 87.979 66.773 90.6135 66.773C93.248 66.7892 95.3946 64.6426 95.3946 61.9919ZM95.3946 90.6135C95.3946 87.979 93.248 85.8324 90.6135 85.8324C87.979 85.8324 85.8323 87.979 85.8323 90.6135C85.8323 93.248 87.979 95.3946 90.6135 95.3946C93.248 95.3946 95.3946 93.248 95.3946 90.6135ZM95.3946 119.219C95.3946 116.584 93.248 114.438 90.6135 114.438C87.979 114.438 85.8323 116.584 85.8323 119.219C85.8323 121.853 87.979 124 90.6135 124C93.248 124 95.3946 121.853 95.3946 119.219ZM66.773 4.78112C66.773 2.14663 64.6264 0 61.9919 0C59.3574 0 57.2107 2.14663 57.2107 4.78112C57.2107 7.41561 59.3574 9.56223 61.9919 9.56223C64.6426 9.56223 66.773 7.43187 66.773 4.78112ZM66.773 33.3865C66.773 30.752 64.6264 28.6054 61.9919 28.6054C59.3574 28.6054 57.2107 30.752 57.2107 33.3865C57.2107 36.021 59.3574 38.1676 61.9919 38.1676C64.6426 38.1676 66.773 36.0372 66.773 33.3865ZM66.773 61.9919C66.773 59.3574 64.6264 57.2108 61.9919 57.2108C59.3574 57.2108 57.2107 59.3574 57.2107 61.9919C57.2107 64.6264 59.3574 66.773 61.9919 66.773C64.6426 66.7892 66.773 64.6426 66.773 61.9919ZM66.773 90.6135C66.773 87.979 64.6264 85.8324 61.9919 85.8324C59.3574 85.8324 57.2107 87.979 57.2107 90.6135C57.2107 93.248 59.3574 95.3946 61.9919 95.3946C64.6426 95.3946 66.773 93.248 66.773 90.6135ZM66.773 119.219C66.773 116.584 64.6264 114.438 61.9919 114.438C59.3574 114.438 57.2107 116.584 57.2107 119.219C57.2107 121.853 59.3574 124 61.9919 124C64.6426 124 66.773 121.853 66.773 119.219ZM38.1676 4.78112C38.1676 2.14663 36.0209 0 33.3864 0C30.7519 0 28.6054 2.14663 28.6054 4.78112C28.6054 7.41561 30.7519 9.56223 33.3864 9.56223C36.0372 9.56223 38.1676 7.43187 38.1676 4.78112ZM38.1676 33.3865C38.1676 30.752 36.0209 28.6054 33.3864 28.6054C30.7519 28.6054 28.6054 30.752 28.6054 33.3865C28.6054 36.021 30.7519 38.1676 33.3864 38.1676C36.0372 38.1676 38.1676 36.0372 38.1676 33.3865ZM38.1676 61.9919C38.1676 59.3574 36.0209 57.2108 33.3864 57.2108C30.7519 57.2108 28.6054 59.3574 28.6054 61.9919C28.6054 64.6264 30.7519 66.773 33.3864 66.773C36.0372 66.7892 38.1676 64.6426 38.1676 61.9919ZM38.1676 90.6135C38.1676 87.979 36.0209 85.8324 33.3864 85.8324C30.7519 85.8324 28.6054 87.979 28.6054 90.6135C28.6054 93.248 30.7519 95.3946 33.3864 95.3946C36.0372 95.3946 38.1676 93.248 38.1676 90.6135ZM38.1676 119.219C38.1676 116.584 36.0209 114.438 33.3864 114.438C30.7519 114.438 28.6054 116.584 28.6054 119.219C28.6054 121.853 30.7519 124 33.3864 124C36.0372 124 38.1676 121.853 38.1676 119.219ZM9.56224 4.78112C9.56224 2.14663 7.41561 0 4.78112 0C2.14663 0 0 2.14663 0 4.78112C0 7.41561 2.14663 9.56223 4.78112 9.56223C7.41561 9.56223 9.56224 7.43187 9.56224 4.78112ZM9.56224 33.3865C9.56224 30.752 7.41561 28.6054 4.78112 28.6054C2.14663 28.6054 0 30.752 0 33.3865C0 36.021 2.14663 38.1676 4.78112 38.1676C7.41561 38.1676 9.56224 36.0372 9.56224 33.3865ZM9.56224 61.9919C9.56224 59.3574 7.41561 57.2108 4.78112 57.2108C2.14663 57.2108 0 59.3574 0 61.9919C0 64.6264 2.14663 66.773 4.78112 66.773C7.41561 66.773 9.56224 64.6426 9.56224 61.9919ZM9.56224 90.6135C9.56224 87.979 7.41561 85.8324 4.78112 85.8324C2.14663 85.8324 0 87.979 0 90.6135C0 93.248 2.14663 95.3946 4.78112 95.3946C7.41561 95.3946 9.56224 93.248 9.56224 90.6135ZM9.56224 119.219C9.56224 116.584 7.41561 114.438 4.78112 114.438C2.14663 114.438 0 116.584 0 119.219C0 121.853 2.14663 124 4.78112 124C7.41561 124 9.56224 121.853 9.56224 119.219Z" fill="#263649"/>
</svg>
