<svg width="48" height="48" viewBox="0 0 48 48" fill="none" xmlns="http://www.w3.org/2000/svg">
<rect width="48" height="48" rx="24" fill="#F8F1DD"/>
<path d="M15.2849 23.5C15.2849 23.2236 15.061 23 14.7849 23H10.5C9.67285 23 9 22.3271 9 21.5V12.5C9 11.6729 9.67285 11 10.5 11H22.5C23.0371 11 23.5374 11.2925 23.8057 11.7627C23.9424 12.002 24.2476 12.0859 24.4875 11.9497C24.7275 11.8125 24.811 11.5073 24.6743 11.2676C24.2285 10.4858 23.3953 10 22.5 10H10.5C9.12158 10 8 11.1216 8 12.5V21.5C8 22.8784 9.12158 24 10.5 24H14.7849C15.061 24 15.2849 23.7764 15.2849 23.5Z" fill="#FF6600"/>
<path d="M14.2395 14.0617C14.0842 13.9777 13.896 13.9811 13.7449 14.0705C13.593 14.1608 13.5 14.3244 13.5 14.5006V20.5006C13.5 20.6769 13.593 20.8405 13.7449 20.9308C13.8232 20.9772 13.9116 21.0006 14 21.0006C14.0823 21.0006 14.1648 20.9801 14.2395 20.9396L19.7395 17.9396C19.9001 17.8522 20 17.6837 20 17.5006C20 17.3175 19.9001 17.1491 19.7395 17.0617L14.2395 14.0617ZM14.5 19.6583V15.3429L18.4558 17.5006L14.5 19.6583Z" fill="#FF6600"/>
<path d="M37.5 12.5H24.5C23.1216 12.5 22 13.6216 22 15V21.1299C22 21.4062 22.2239 21.6299 22.5 21.6299C22.7761 21.6299 23 21.4062 23 21.1299V15C23 14.1729 23.6729 13.5 24.5 13.5H37.5C38.3271 13.5 39 14.1729 39 15V25C39 25.8271 38.3271 26.5 37.5 26.5H29.4851C29.209 26.5 28.9851 26.7236 28.9851 27C28.9851 27.2764 29.209 27.5 29.4851 27.5H37.5C38.8784 27.5 40 26.3784 40 25V15C40 13.6216 38.8784 12.5 37.5 12.5Z" fill="#FF6600"/>
<path d="M27.6154 24.5002C27.6154 24.7765 27.8393 25.0002 28.1154 25.0002H37.0004C37.1696 25.0002 37.3273 24.9147 37.4196 24.7726C37.5119 24.6305 37.5261 24.4518 37.4572 24.2971L33.4572 15.2971C33.3789 15.1203 33.2053 15.0046 33.0119 15.0002C32.798 14.986 32.6396 15.1037 32.5532 15.2765L30.4384 19.506L28.9164 17.2228C28.8178 17.0744 28.645 16.9948 28.4694 17.0012C28.2914 17.0124 28.133 17.1174 28.0532 17.2765L25.5432 22.2966C25.4196 22.5436 25.5197 22.8439 25.7668 22.9675C26.0141 23.091 26.3142 22.9909 26.4377 22.7438L28.5624 18.4943L30.0844 20.7775C30.1833 20.926 30.3537 21.0099 30.5314 20.9992C30.7094 20.988 30.8679 20.883 30.9477 20.7238L32.9738 16.6716L36.2311 24.0002H28.1154C27.8393 24.0002 27.6154 24.2238 27.6154 24.5002Z" fill="#FF6600"/>
<path d="M21 22C16.5889 22 13 25.5889 13 30C13 32.2075 13.9019 34.2925 15.4919 35.8013L14.1465 37.1465C14.0034 37.2896 13.9607 37.5044 14.0381 37.6914C14.1155 37.8784 14.2979 38 14.5 38H21C25.4111 38 29 34.4111 29 30C29 25.5889 25.4111 22 21 22ZM21 37H15.707L16.5742 36.1328C16.6738 36.0332 16.7268 35.8965 16.7202 35.7559C16.7136 35.6152 16.6479 35.4839 16.5396 35.394C14.9255 34.0581 14 32.0923 14 30C14 26.1401 17.1401 23 21 23C24.8599 23 28 26.1401 28 30C28 33.8599 24.8599 37 21 37Z" fill="#FF6600"/>
<path d="M22.1903 26.5479C21.7037 26.6416 21.2938 26.8633 20.9996 27.1699C20.7054 26.8633 20.2955 26.6416 19.8089 26.5479C18.7615 26.3448 17.3709 26.7832 16.7962 28.2207C15.3995 31.7202 20.5565 34.3379 20.7767 34.4478C20.8468 34.4824 20.9232 34.5 20.9996 34.5C21.076 34.5 21.1524 34.4824 21.2225 34.4478C21.4427 34.3379 26.5997 31.7202 25.203 28.2207C24.628 26.7837 23.2403 26.3452 22.1903 26.5479ZM20.9996 33.4322C20.096 32.9263 16.806 30.8936 17.7249 28.5918C18.0347 27.8169 18.691 27.499 19.2972 27.499C19.4073 27.499 19.5155 27.5098 19.6199 27.5298C20.0452 27.6118 20.4996 27.8848 20.4996 28.4063C20.4996 28.6826 20.7235 28.9063 20.9996 28.9063C21.2757 28.9063 21.4996 28.6826 21.4996 28.4063C21.4996 27.8848 21.9539 27.6118 22.3792 27.5298C23.0594 27.3994 23.9083 27.6763 24.2742 28.5918C25.1932 30.8936 21.9031 32.9263 20.9996 33.4322Z" fill="#FF6600"/>
</svg>
