<svg width="48" height="48" viewBox="0 0 48 48" fill="none" xmlns="http://www.w3.org/2000/svg">
<rect width="48" height="48" rx="24" fill="#FFEEC7"/>
<path d="M33.0851 35.96C33.0851 35.684 32.8616 35.46 32.5851 35.46H28.1001C27.8236 35.46 27.6001 35.684 27.6001 35.96C27.6001 36.236 27.8236 36.46 28.1001 36.46H32.5851C32.8616 36.46 33.0851 36.236 33.0851 35.96Z" fill="#CDA92D"/>
<path d="M19.895 35.46H15.415C15.1385 35.46 14.915 35.684 14.915 35.96C14.915 36.236 15.1385 36.46 15.415 36.46H19.895C20.1715 36.46 20.395 36.236 20.395 35.96C20.395 35.684 20.1715 35.46 19.895 35.46Z" fill="#CDA92D"/>
<path d="M23.498 22.4642V20.3502H20.933C20.6565 20.3502 20.433 20.1262 20.433 19.8502C20.433 18.9872 19.731 18.2852 18.868 18.2852C18.005 18.2852 17.303 18.9872 17.303 19.8502C17.303 20.1262 17.0795 20.3502 16.803 20.3502H15.042C15.0565 20.4497 15.066 20.5507 15.084 20.6487C15.1 20.7372 15.115 20.8262 15.1335 20.9132C15.1945 21.2022 15.2645 21.4867 15.3535 21.7602C15.9525 23.7112 17.221 25.4162 18.928 26.5707C19.831 27.1747 20.393 28.2557 20.393 29.3902V30.1902H23.498V27.4962C22.322 27.2627 21.433 26.2237 21.433 24.9802C21.433 23.7367 22.322 22.6977 23.498 22.4642Z" fill="#CDA92D"/>
<path d="M23.2785 10.0374C23.135 10.0489 22.9925 10.0639 22.851 10.0824C22.6955 10.1024 22.5415 10.1259 22.389 10.1534C22.2495 10.1789 22.111 10.2069 21.9735 10.2384C21.8235 10.2729 21.6755 10.3114 21.528 10.3534C21.393 10.3919 21.2595 10.4324 21.127 10.4764C20.983 10.5249 20.841 10.5779 20.7005 10.6334C20.571 10.6844 20.4425 10.7364 20.3165 10.7929C20.179 10.8544 20.0445 10.9209 19.9105 10.9889C19.7875 11.0514 19.665 11.1144 19.5455 11.1824C19.415 11.2564 19.2885 11.3354 19.162 11.4159C19.0465 11.4894 18.931 11.5629 18.819 11.6409C18.6965 11.7269 18.578 11.8179 18.46 11.9099C18.3525 11.9934 18.2445 12.0764 18.141 12.1644C18.0265 12.2614 17.9175 12.3644 17.8085 12.4669C17.71 12.5594 17.6105 12.6509 17.5165 12.7474C17.411 12.8559 17.3115 12.9699 17.2115 13.0829C17.123 13.1834 17.033 13.2824 16.9485 13.3864C16.8525 13.5054 16.7635 13.6299 16.6735 13.7539C16.5955 13.8614 16.515 13.9669 16.4415 14.0774C16.356 14.2069 16.2785 14.3419 16.1995 14.4754C16.1325 14.5884 16.0625 14.6999 16.0005 14.8159C15.926 14.9559 15.8605 15.1014 15.793 15.2454C15.7385 15.3624 15.6795 15.4769 15.63 15.5964C15.567 15.7484 15.5145 15.9054 15.4595 16.0614C15.4175 16.1799 15.371 16.2959 15.334 16.4164C15.283 16.5824 15.245 16.7529 15.2035 16.9229C15.175 17.0389 15.1405 17.1529 15.117 17.2709C15.0785 17.4629 15.054 17.6594 15.0275 17.8559C15.014 17.9559 14.9935 18.0539 14.9835 18.1549C14.9535 18.4544 14.9375 18.7574 14.9375 19.0644C14.9375 19.1609 14.9455 19.2544 14.9485 19.3494H16.3515C16.585 18.1734 17.6245 17.2844 18.8675 17.2844C20.1105 17.2844 21.15 18.1734 21.3835 19.3494H23.4975V16.7794C23.4975 16.5034 23.721 16.2794 23.9975 16.2794C24.8605 16.2794 25.5625 15.5774 25.5625 14.7144C25.5625 13.8514 24.8605 13.1494 23.9975 13.1494C23.721 13.1494 23.4975 12.9254 23.4975 12.6494V10.0254C23.4245 10.0294 23.3505 10.0309 23.278 10.0369L23.2785 10.0374Z" fill="#CDA92D"/>
<path d="M26.564 10.391C26.4255 10.3485 26.288 10.3025 26.147 10.267C26.012 10.233 25.874 10.21 25.737 10.1825C25.594 10.1535 25.452 10.121 25.307 10.099C25.1675 10.078 25.0255 10.069 24.8845 10.055C24.756 10.042 24.628 10.0265 24.498 10.0195V12.1985C25.674 12.432 26.563 13.4715 26.563 14.715C26.563 15.9585 25.674 16.9975 24.498 17.231V19.35H27.0685C27.345 19.35 27.5685 19.574 27.5685 19.85C27.5685 20.713 28.2705 21.415 29.1335 21.415C29.9965 21.415 30.6985 20.713 30.6985 19.85C30.6985 19.574 30.922 19.35 31.1985 19.35H33.058C33.058 19.347 33.058 19.344 33.0585 19.341C33.063 19.182 33.0635 19.023 33.0585 18.8655V18.8605C33.0525 18.569 33.0315 18.28 32.9965 17.9945C32.9835 17.886 32.9585 17.781 32.9415 17.674C32.9135 17.4985 32.8895 17.322 32.851 17.15C32.823 17.024 32.7825 16.902 32.7495 16.778C32.709 16.6285 32.674 16.477 32.626 16.3305C32.5845 16.203 32.531 16.08 32.484 15.955C32.432 15.8165 32.385 15.676 32.326 15.541C32.272 15.4165 32.207 15.2975 32.1475 15.1755C32.084 15.0455 32.025 14.9125 31.955 14.7855C31.89 14.667 31.815 14.555 31.745 14.4395C31.6695 14.3155 31.5985 14.1885 31.5175 14.0685C31.4425 13.9575 31.3585 13.853 31.279 13.7455C31.1925 13.6285 31.11 13.5085 31.018 13.3955C30.933 13.291 30.8395 13.194 30.75 13.0935C30.654 12.9855 30.5615 12.874 30.4605 12.77C30.3665 12.6735 30.2645 12.585 30.1665 12.4925C30.0615 12.3935 29.9595 12.291 29.8495 12.197C29.7475 12.1095 29.6385 12.0305 29.533 11.9475C29.419 11.858 29.3075 11.7645 29.1895 11.68C29.08 11.602 28.9645 11.533 28.8515 11.4595C28.73 11.3805 28.6105 11.2975 28.485 11.2245C28.368 11.156 28.246 11.0975 28.126 11.0345C27.998 10.967 27.8715 10.8955 27.74 10.8345C27.617 10.777 27.489 10.7295 27.363 10.6775C27.2285 10.622 27.0965 10.563 26.9595 10.514C26.83 10.468 26.6965 10.432 26.5645 10.392L26.564 10.391Z" fill="#CDA92D"/>
<path d="M19.7499 32.9195H19.8714C19.8799 32.9195 19.8869 32.9145 19.8949 32.9145H28.0999C28.1084 32.9145 28.1154 32.919 28.1239 32.9195H28.2494C28.7294 32.9195 29.1194 32.5295 29.1194 32.0495C29.1194 31.575 28.7294 31.1895 28.2494 31.1895H19.7494C19.2694 31.1895 18.8794 31.575 18.8794 32.0495C18.8794 32.529 19.2699 32.9195 19.7499 32.9195Z" fill="#CDA92D"/>
<path d="M32.6461 21.7656C32.7126 21.5571 32.7681 21.3471 32.8181 21.1361C32.8311 21.0821 32.8431 21.0281 32.8546 20.9741C32.8956 20.7876 32.9306 20.6006 32.9586 20.4131C32.9616 20.3921 32.9661 20.3711 32.9691 20.3496H31.6491C31.4156 21.5256 30.3761 22.4146 29.1331 22.4146C27.8901 22.4146 26.8506 21.5256 26.6171 20.3496H24.4981V22.9146C24.4981 23.1906 24.2746 23.4146 23.9981 23.4146C23.1351 23.4146 22.4331 24.1166 22.4331 24.9796C22.4331 25.8426 23.1351 26.5446 23.9981 26.5446C24.2746 26.5446 24.4981 26.7686 24.4981 27.0446V30.1896H27.5981V29.3996C27.5981 29.2556 27.6066 29.1131 27.6231 28.9726C27.7386 27.9911 28.2501 27.1221 29.0406 26.5936C30.7506 25.4391 32.0316 23.7236 32.6461 21.7646V21.7656Z" fill="#CDA92D"/>
<path d="M20.395 33.9199V37.3899C20.395 37.7264 20.6685 37.9999 21.005 37.9999H26.9905C27.327 37.9999 27.6005 37.7264 27.6005 37.3899V33.9199H20.395Z" fill="#CDA92D"/>
<path d="M35.8279 35.9599C35.8279 35.2039 35.2129 34.5889 34.4569 34.5889C33.7009 34.5889 33.0859 35.2039 33.0859 35.9599C33.0859 36.7159 33.7009 37.3309 34.4569 37.3309C35.2129 37.3309 35.8279 36.7159 35.8279 35.9599Z" fill="#CDA92D"/>
<path d="M13.5429 34.5889C12.7869 34.5889 12.1719 35.2039 12.1719 35.9599C12.1719 36.7159 12.7869 37.3309 13.5429 37.3309C14.2989 37.3309 14.9139 36.7159 14.9139 35.9599C14.9139 35.2039 14.2989 34.5889 13.5429 34.5889Z" fill="#CDA92D"/>
</svg>
