<svg width="73" height="73" viewBox="0 0 73 73" fill="none" xmlns="http://www.w3.org/2000/svg">
<path d="M8.53037 11.101C9.95912 9.07511 12.5745 9.10108 13.6884 9.36081C14.4876 9.72442 16.11 11.023 16.11 13.3606C16.11 16.2954 15.1898 16.6331 15.1898 18.555C15.1898 26.5545 21.4618 30.762 23.3264 33.6969C25.1911 36.6318 23.8834 38.7096 23.3264 40.2939C22.7695 41.9042 19.912 42.5016 19.2823 42.0341C18.6527 41.5666 17.3693 41.0991 15.1898 42.0341C11.3152 43.7482 6.90787 41.5925 5.18852 40.2939C3.61447 39.281 0.393751 35.8786 0.030509 30.2945C-0.405382 23.282 3.9535 18.1395 5.18852 16.9447C6.42355 15.75 6.73837 13.6203 8.53037 11.075V11.101Z" fill="#FFC000"/>
<path d="M38.4352 46.2663C35.6987 47.3311 33.2771 50.1881 32.4053 51.4608C29.3783 54.6034 25.9154 53.123 24.5593 52.0062C23.3242 50.9413 21.3385 47.7207 23.1305 43.4093C24.9225 39.0719 28.894 36.3968 30.6618 35.5916C32.478 34.8904 36.6673 33.4359 38.8226 33.332C41.4864 33.2022 45.482 30.3192 47.0319 29.7998C48.5817 29.2544 51.1971 29.0726 53.1828 28.5271C55.1685 27.9817 58.0987 23.982 60.4718 22.2418C62.3607 20.8653 65.751 20.7354 67.2039 20.8393C68.0515 21.099 70.0372 22.1639 71.127 24.2417C72.5073 26.8389 70.4489 29.0466 71.127 31.3062C73.5002 36.6565 71.3691 39.903 69.7466 41.7211C68.1241 43.5132 66.8891 43.0457 59.4063 41.7211C51.9477 40.3965 48.3395 42.1107 47.0319 42.786C45.7242 43.4612 41.8738 44.9157 38.4352 46.2663Z" fill="#FFC000"/>
<path d="M49.2368 70.0577L45.4106 72.1874L35.0703 52.1627C40.1799 46.6566 48.5587 44.0074 52.0943 43.3841C56.3806 42.6828 65.728 42.7088 68.8276 48.2928C71.3219 54.6301 66.1881 60.5518 60.909 62.9413C55.6299 65.3047 49.2368 59.8505 47.8565 61.1232C46.7425 62.1361 48.3166 67.5124 49.261 70.0577H49.2368Z" fill="#879BB8"/>
<path d="M60.2297 9.49197C59.7212 8.11544 58.1229 7.05058 57.3722 6.68697C56.4278 6.21947 54.2725 5.31042 53.3281 5.41431C50.737 5.57014 47.8552 3.12874 46.7413 1.88206C46.0633 1.2847 44.0049 0.2458 41.22 0.947054C37.7329 1.80414 36.3768 5.07667 37.8055 14.0631C39.2343 23.0496 33.8825 22.8678 35.3113 28.6596C36.74 34.4515 41.22 30.7893 41.9465 29.3868C42.6972 27.9843 45.2399 27.5168 48.8965 27.7246C52.5532 27.9324 54.66 24.9196 56.5246 22.2704C58.3893 19.5952 61.9248 20.4004 63.5958 20.4004C65.2667 20.4004 68.0757 19.3355 67.5188 15.6734C67.0829 12.7385 64.0559 11.6217 62.6029 11.4139C61.9975 11.336 60.6898 10.8685 60.1813 9.49197H60.2297Z" fill="#879BB8"/>
<path d="M23.8578 31.1774C25.0444 34.8135 28.3378 35.1252 29.8392 34.8395C33.4474 33.9305 34.0528 29.8268 33.9075 27.9049C33.7137 27.0738 33.738 24.7362 35.5784 21.9053C37.3946 19.0743 36.3291 15.6199 35.5784 14.2174C34.973 12.5552 33.9801 8.97101 34.973 7.93211C35.9658 6.91919 36.2564 5.15306 36.2806 4.39986C36.2806 3.46486 35.6995 1.33512 33.3263 0.322199C30.3719 -0.950448 27.5144 1.85457 25.3592 3.38694C23.2039 4.91931 20.3706 3.25709 18.0701 4.91932C15.7938 6.58156 16.157 10.0618 17.1499 11.9319C18.1428 13.8019 18.1428 15.1265 17.1499 19.9314C16.3508 23.7753 18.3849 25.8011 19.4989 26.3465C20.4675 26.4245 22.6954 27.5153 23.882 31.1514L23.8578 31.1774Z" fill="#879BB8"/>
<path d="M28.823 30.736L28.3629 30.4243C30.3002 27.1778 29.5979 22.8144 28.5809 18.8406C28.6777 21.2561 28.4355 24.4247 26.7888 25.5675L26.4983 25.1C28.3145 23.8533 28.266 18.9705 27.7817 15.9577L27.7333 15.7499C27.1279 13.6202 26.5467 11.5943 26.4014 9.98405C26.4014 9.90613 26.4014 9.80224 26.4014 9.72433C25.6991 11.1788 24.7305 12.5553 23.5681 13.0488C22.8658 13.3345 22.1878 13.3085 21.5097 12.9449L21.7519 12.4255C22.2846 12.7371 22.8174 12.7631 23.3744 12.5293C24.9242 11.8541 26.135 9.25681 26.5951 7.80236C27.2247 5.46484 29.162 4.01039 30.2518 3.36108C30.8814 2.99747 31.5594 2.65983 32.1648 2.47803L32.3101 3.02345C31.7774 3.20525 31.172 3.46498 30.615 3.80262C29.7432 7.36084 29.3073 11.5684 30.1549 12.5034L29.7675 12.9189C28.484 11.5424 29.5495 6.14014 29.9612 4.24415C28.9199 4.97138 27.5638 6.21804 27.0795 8.01014C26.91 8.63348 26.8615 9.30876 26.9342 9.98405C27.0795 11.5424 27.6606 13.5423 28.266 15.646L28.3387 15.8798C29.6948 20.6327 31.3899 26.5285 28.8472 30.7879L28.823 30.736ZM19.2334 25.074L19.0639 24.5286C19.7904 24.2429 19.6209 22.1911 19.2334 20.5029C19.1608 20.2691 19.1124 20.0354 19.0639 19.8016C18.7975 18.5549 18.7249 17.2303 18.8944 15.8798L19.4271 15.9577C19.2576 17.2304 19.3061 18.503 19.5724 19.6718C19.5967 19.7756 19.6693 20.0094 19.742 20.347C20.3474 22.4508 21.534 23.9312 22.43 24.5805L22.1393 25.048C21.5097 24.5805 20.7348 23.7234 20.1052 22.5807C20.1778 23.7234 20.0325 24.7883 19.2576 25.1L19.2334 25.074ZM32.407 22.1651L31.9953 21.8015C33.2061 20.3211 33.2303 17.8017 33.0366 15.9577C32.7702 14.8669 32.6976 14.0357 32.6734 13.7241C32.4797 12.7891 32.2133 11.8541 31.9469 11.0749L32.4555 10.8671C32.746 11.6722 33.0124 12.6592 33.2061 13.6202C33.3757 14.3734 33.4967 15.1266 33.5694 15.8538C33.8358 16.9447 34.3685 18.451 35.3614 19.5419L34.9739 19.9315C34.4169 19.3081 33.9811 18.5549 33.6663 17.8017C33.642 19.3601 33.3514 21.0223 32.407 22.1651ZM18.8944 10.062C18.6038 9.23084 18.4343 7.95821 18.8944 6.86737C19.2092 6.11417 19.7662 5.56874 20.5653 5.25707L20.759 5.80249C20.1052 6.06221 19.6451 6.50374 19.3787 7.10111C18.9912 8.01014 19.1365 9.15292 19.3787 9.85418L18.8702 10.062H18.8944Z" fill="#556885"/>
<path d="M13.2541 39.1772C11.341 38.5279 9.67008 37.2812 8.31397 35.4891C7.66014 34.632 7.07893 33.6191 6.59461 32.5283C6.37666 33.749 5.84392 35.1775 4.82684 35.593L4.63311 35.0476C5.60175 34.658 6.08607 32.762 6.18294 31.5413C5.57753 29.957 5.11741 28.1909 4.8026 26.2949C4.53622 24.6067 4.41514 22.8665 4.46358 21.3601H4.99633C4.9479 22.8406 5.06898 24.5547 5.33536 26.191C5.50487 26.9961 6.59461 28.7363 9.54898 29.7752L9.37949 30.3206C7.97495 29.8271 6.83677 29.1259 5.9892 28.2428C5.86812 28.113 5.77126 28.0091 5.65018 27.8792C5.91656 29.1259 6.27982 30.2946 6.69149 31.3855C7.24847 32.788 7.90228 34.0347 8.6772 35.0736C9.69428 35.4891 11.8737 36.1125 13.2541 35.6709L13.4236 36.2163C12.2612 36.6059 10.5661 36.2943 9.37949 35.9306C10.5419 37.2293 11.898 38.1383 13.4236 38.6578L13.2541 39.2032V39.1772ZM20.1072 39.1512C18.5332 38.1903 17.1286 37.0475 15.9178 35.7748C14.7313 34.5281 13.7384 33.0997 12.9392 31.5413C12.6729 32.3984 12.237 33.3334 11.5831 33.7749C11.1957 34.0606 10.7598 34.1386 10.2997 34.0347L10.4208 33.4893C10.7356 33.5672 11.0262 33.4893 11.2925 33.3074C11.9948 32.814 12.4307 31.5413 12.576 30.8141C11.8495 29.2557 11.2925 27.5675 10.9535 25.7755C10.6145 24.0872 10.4692 22.2952 10.4934 20.5031C10.0575 21.8277 9.4279 23.334 8.6772 23.8795L8.38662 23.412C9.30683 22.7367 10.227 19.8018 10.6387 17.9837C10.8082 16.3734 11.0988 14.8411 11.4863 13.5165L11.9948 13.6983C11.7284 14.6073 11.3652 16.0877 11.1473 18.0616C10.8809 20.6329 11.0019 23.2301 11.462 25.6456C12.019 27.1 13.6899 29.957 16.16 30.5024L16.0631 31.0478C14.3196 30.6583 12.9393 29.2298 12.019 27.8532C12.3096 28.8142 12.6729 29.7492 13.0846 30.6323C13.9079 32.3724 14.9734 33.9568 16.2569 35.3333C17.5888 36.0086 19.8166 36.58 20.5189 35.4112L20.9548 35.7229C20.5189 36.4501 19.6713 36.7618 18.509 36.6319C18.0731 36.58 17.6614 36.4761 17.2981 36.3722C18.2184 37.2293 19.2597 37.9825 20.3736 38.6837L20.1072 39.1772V39.1512Z" fill="#CC9900"/>
<path d="M38.3671 28.3474L37.8828 28.1397C38.0765 27.6462 38.7546 25.8801 40.038 24.3477C41.3699 22.7634 42.8471 22.0102 44.3001 22.166C46.3827 22.3998 48.3926 21.6985 49.7003 21.0752C50.9838 20.244 53.3569 17.8806 53.3569 14.9457H53.8897C53.8897 16.8417 52.9937 18.4779 52.0008 19.7246C52.6789 19.2311 53.1632 18.7376 53.4296 18.4C54.2045 17.4131 56.2871 16.2183 58.2728 15.621C60.3312 14.9976 62.0505 15.0755 63.116 15.8028L62.8255 16.2962C62.1232 15.8287 61.0819 15.6729 59.8226 15.8547C61.6389 16.2183 64.4237 17.0235 64.4237 18.5818H63.891C63.891 17.7507 61.9537 16.6339 58.3697 16.1924C56.2871 16.8157 54.4467 17.9844 53.8413 18.7636C53.0905 19.7246 51.565 20.8414 49.9425 21.6206C48.5622 22.2699 46.4311 23.0231 44.2517 22.7634C43.0166 22.6075 41.9269 23.2568 41.1278 24.036C41.7332 23.9061 42.5565 23.7503 43.4041 23.7503C44.9055 23.7503 45.9952 24.1919 46.6006 25.023L46.189 25.3866C45.5594 24.5295 44.3243 24.3477 43.4041 24.3477C42.2901 24.3477 41.1278 24.6074 40.3771 24.8412C39.1905 26.2956 38.5366 27.9319 38.3671 28.3994V28.3474ZM48.5863 18.7636C48.0052 18.2442 47.3998 17.6208 46.7944 16.9456C45.5594 15.569 43.84 13.4133 42.6534 10.894C41.9511 9.62134 40.1107 7.15398 38.1007 6.86828L38.1734 6.29688C39.578 6.47869 40.9098 7.62147 41.8543 8.76425C41.4184 7.23188 41.3215 5.82938 41.5879 4.53076L42.0964 4.66061C41.7332 6.37479 42.0964 8.37467 43.1377 10.6083C43.8642 12.1407 44.9297 13.8029 46.2132 15.3872C45.971 14.3224 45.8499 12.738 46.1405 10.6862L46.6733 10.7641C46.2132 14.1146 46.8912 16.0365 47.206 16.53C47.7872 17.1793 48.3926 17.7767 48.9496 18.2961L48.6106 18.7377L48.5863 18.7636ZM56.0207 12.4783C55.7059 11.9848 54.8584 10.7382 53.5265 9.46552C51.686 9.33566 49.5308 9.54343 48.998 10.3486C48.8527 10.5823 48.8527 10.868 48.998 11.2057L48.5137 11.4394C48.2231 10.7641 48.3926 10.2966 48.5621 10.0369C49.2644 8.97203 51.5892 8.86815 52.8484 8.89412C51.4197 7.69939 49.4824 6.5566 47.5209 6.92022L47.424 6.34882C49.894 5.90729 52.243 7.54356 53.7928 8.99802C55.2216 10.3226 56.1176 11.6472 56.4566 12.1666L56.0207 12.4783Z" fill="#556885"/>
<path d="M26.714 50.7092L26.2539 50.3975C26.5687 49.8261 27.0046 49.2028 27.4405 48.5795C28.2639 47.2029 29.2809 44.0083 27.4405 41.7747L27.828 41.3851C29.2325 43.0993 29.1356 45.281 28.6513 46.9692C29.7168 45.6965 31.194 44.1642 32.9376 42.9954C35.117 41.1514 38.0956 37.5412 37.3934 35.1777L37.9019 34.9959C38.6042 37.3594 36.4489 40.1904 34.8506 41.9046C35.4318 41.6448 36.013 41.437 36.57 41.3072C38.6042 40.8397 41.5343 40.1125 45.0457 39.2554C49.0171 37.0737 53.376 34.4765 53.6908 34.0349L54.1509 34.3466C53.8119 34.918 49.7194 37.2815 47.1283 38.7619C49.7436 38.1126 51.7051 37.6191 52.3347 37.4633L52.4558 38.0087C51.6567 38.2165 48.7992 38.9437 45.2152 39.8268C41.6796 40.7098 38.7253 41.4111 36.6911 41.9046C35.5772 42.1643 34.4148 42.7097 33.2282 43.5148C30.7339 45.203 28.7724 47.6445 27.828 48.9431C27.3679 49.5664 26.9804 50.1898 26.6414 50.7352L26.714 50.7092ZM65.4841 39.7229C64.2975 38.2684 60.326 37.9048 57.9286 38.0087V37.4373C58.1708 37.4373 64.128 37.2035 65.8715 39.3593L65.4599 39.7229H65.4841ZM43.9802 35.3595L43.7138 34.866C46.3291 33.2817 52.2621 30.5287 55.8703 31.4117C56.9842 31.6714 58.2677 31.4117 59.7449 30.5806C62.0212 29.3079 64.2733 26.9185 65.4841 25.2822L65.8958 25.6458C64.8061 27.1263 62.893 29.2041 60.8346 30.5806C61.779 30.6325 63.1836 30.7624 64.5154 31.2039C66.4527 31.8273 67.5182 32.8662 67.6151 34.2167L67.0823 34.2687C67.0097 33.1519 66.0895 32.3207 64.3459 31.7493C62.8688 31.2818 61.101 31.126 59.9144 31.152C58.3646 32.0091 56.96 32.2948 55.7492 31.9831C52.2863 31.152 46.5229 33.8531 43.9559 35.3855L43.9802 35.3595Z" fill="#CC9900"/>
<path d="M45.7274 67.3308L38.6562 52.5006L39.1406 52.2409L46.2117 67.0711L45.7274 67.3308ZM45.7274 57.3055L42.1918 50.5267L42.6519 50.241L46.1875 57.0198L45.7274 57.3055ZM58.7557 56.9159C58.2713 56.9159 57.787 56.9159 57.23 56.838C54.6389 56.6042 52.1931 55.9289 51.2728 55.6173L51.4181 55.0719C52.3141 55.3576 54.6389 56.0069 57.1089 56.2406C58.8041 53.6174 60.136 50.1631 59.2884 48.2151C58.8525 47.2022 57.8354 46.6308 56.2856 46.501L56.3341 45.9296C58.0776 46.0854 59.24 46.7607 59.7727 47.9814C60.7414 50.189 59.3368 53.7473 57.7386 56.2926C60.1602 56.4484 61.8553 56.0588 62.6545 55.1757C63.0904 54.6823 63.2599 54.033 63.163 53.2018L63.6957 53.1239C63.8168 54.1109 63.5989 54.942 63.0661 55.5653C62.2912 56.4484 60.8382 56.8899 58.7799 56.8899L58.7557 56.9159ZM48.5122 52.5785L48.1248 52.1889C49.384 50.7604 52.5805 48.5008 55.6802 50.1371L55.438 50.6565C52.6047 49.1501 49.6504 51.2539 48.488 52.5785H48.5122Z" fill="#556885"/>
</svg>
