<svg width="70" height="326" viewBox="0 0 70 326" fill="none" xmlns="http://www.w3.org/2000/svg">
<path d="M68.3521 325.185L1.15205 301.953V291.489L68.3521 268.737V275.841L5.56805 296.577V296.961L68.3521 318.081V325.185ZM46.8481 313.665L41.2801 311.649V282.273L46.8481 280.257V313.665ZM69.5041 249.621C69.5041 253.589 68.8321 256.885 67.4881 259.509C66.0801 262.133 64.2561 264.085 62.0161 265.365C59.7761 266.645 57.3441 267.285 54.7201 267.285C51.3921 267.285 48.608 266.421 46.368 264.693C44.064 262.965 42.336 260.533 41.184 257.397C40.032 254.261 39.456 250.645 39.456 246.549V233.493C36.448 233.493 33.888 234.005 31.776 235.029C29.664 235.989 28.064 237.397 26.976 239.253C25.888 241.109 25.344 243.413 25.344 246.165C25.344 249.493 26.208 252.373 27.936 254.805C29.6 257.237 32.064 258.741 35.328 259.317V266.421C31.872 266.037 28.992 264.853 26.688 262.869C24.32 260.821 22.56 258.325 21.408 255.381C20.192 252.437 19.584 249.365 19.584 246.165C19.584 241.749 20.416 238.133 22.08 235.317C23.744 232.437 26.048 230.293 28.992 228.885C31.872 227.477 35.232 226.773 39.0721 226.773H68.3521V232.917L59.0401 233.685V234.069C60.3841 234.709 61.6961 235.509 62.9761 236.469C64.2561 237.429 65.3761 238.549 66.3361 239.829C67.2961 241.045 68.0641 242.485 68.6401 244.149C69.2161 245.749 69.5041 247.573 69.5041 249.621ZM63.5521 248.949C63.5521 246.709 63.1361 244.661 62.3041 242.805C61.4081 240.885 60.1601 239.253 58.5601 237.909C56.9601 236.501 55.0401 235.413 52.8001 234.645C50.496 233.877 47.968 233.493 45.216 233.493V246.069C45.216 249.525 45.632 252.309 46.464 254.421C47.2961 256.469 48.4161 257.973 49.8241 258.933C51.1681 259.829 52.7361 260.277 54.528 260.277C56.3201 260.277 57.8881 259.861 59.2321 259.029C60.5761 258.133 61.6321 256.853 62.4001 255.189C63.1681 253.461 63.5521 251.381 63.5521 248.949ZM68.3521 219.064H1.15205V196.504C1.15205 191.768 1.92005 187.864 3.45605 184.792C4.99205 181.72 7.04005 179.448 9.60005 177.976C12.16 176.44 15.008 175.672 18.1441 175.672C21.6 175.672 24.48 176.44 26.784 177.976C29.088 179.448 30.848 181.4 32.064 183.832C33.28 186.2 34.048 188.696 34.3681 191.32L33.408 190.072C33.472 187.192 34.2401 184.568 35.7121 182.2C37.1841 179.768 39.168 177.816 41.664 176.344C44.096 174.872 46.88 174.136 50.016 174.136C53.344 174.136 56.416 174.968 59.2321 176.632C61.9841 178.296 64.1921 180.728 65.8561 183.928C67.5201 187.128 68.3521 191.096 68.3521 195.832V219.064ZM62.6881 212.344V196.312C62.6881 191.448 61.5361 187.704 59.2321 185.08C56.928 182.392 53.76 181.048 49.7281 181.048C45.6961 181.048 42.4961 182.456 40.1281 185.272C37.696 188.024 36.48 191.8 36.48 196.6V212.344H62.6881ZM30.912 212.344V196.696C30.912 192.152 29.824 188.664 27.648 186.232C25.472 183.8 22.528 182.584 18.816 182.584C15.232 182.584 12.352 183.768 10.1761 186.136C7.93605 188.504 6.81605 192.12 6.81605 196.984V212.344H30.912ZM69.5041 141.211C69.5041 144.347 68.9921 147.131 67.9681 149.563C66.9441 151.995 65.6001 154.043 63.9361 155.707C62.2721 157.371 60.4481 158.683 58.4641 159.643V160.027L68.3521 160.795V166.939H1.15205V160.219H29.184C26.176 158.555 23.84 156.187 22.176 153.115C20.448 150.043 19.584 146.459 19.584 142.363C19.584 137.563 20.672 133.403 22.848 129.883C24.96 126.299 27.904 123.547 31.68 121.627C35.392 119.643 39.6481 118.651 44.448 118.651C49.12 118.651 53.344 119.579 57.1201 121.435C60.8961 123.291 63.9041 125.915 66.1441 129.307C68.3841 132.699 69.5041 136.667 69.5041 141.211ZM63.6481 142.267C63.6481 138.875 62.8481 135.931 61.2481 133.435C59.6481 130.939 57.4081 128.987 54.528 127.579C51.648 126.171 48.288 125.467 44.448 125.467C40.48 125.467 37.088 126.203 34.272 127.675C31.392 129.147 29.2161 131.163 27.7441 133.723C26.208 136.283 25.44 139.259 25.44 142.651C25.44 145.979 26.208 148.955 27.7441 151.579C29.2161 154.139 31.392 156.155 34.272 157.627C37.088 159.099 40.48 159.835 44.448 159.835C48.288 159.835 51.648 159.067 54.528 157.531C57.4081 155.995 59.6481 153.915 61.2481 151.291C62.8481 148.603 63.6481 145.595 63.6481 142.267ZM69.5041 80.2275C69.5041 86.9475 68.0641 92.7715 65.1841 97.6995C62.2401 102.564 58.1761 106.308 52.992 108.932C47.744 111.556 41.696 112.868 34.8481 112.868C28 112.868 21.952 111.556 16.704 108.932C11.456 106.244 7.36005 102.468 4.41605 97.6035C1.47205 92.7395 4.95911e-05 86.9475 4.95911e-05 80.2275C4.95911e-05 72.0355 2.01605 65.3475 6.04805 60.1635C10.08 54.9795 15.776 51.7155 23.136 50.3715V64.6755C19.552 65.5075 16.768 67.2355 14.784 69.8595C12.736 72.4835 11.712 75.9715 11.712 80.3235C11.712 84.3555 12.672 87.8435 14.5921 90.7875C16.448 93.6675 19.104 95.8755 22.56 97.4115C26.016 98.8835 30.1121 99.6195 34.8481 99.6195C39.5841 99.6195 43.68 98.8835 47.136 97.4115C50.528 95.8755 53.152 93.6675 55.008 90.7875C56.864 87.8435 57.7921 84.3555 57.7921 80.3235C57.7921 75.9715 56.864 72.4835 55.008 69.8595C53.152 67.1715 50.528 65.4115 47.136 64.5795V50.3715C54.1121 51.6515 59.5841 54.9155 63.5521 60.1635C67.5201 65.3475 69.5041 72.0355 69.5041 80.2275ZM69.5041 21.12C69.5041 25.536 68.4801 29.536 66.4321 33.12C64.3201 36.64 61.4081 39.456 57.696 41.568C53.9201 43.616 49.5361 44.64 44.544 44.64C39.488 44.64 35.104 43.616 31.392 41.568C27.68 39.456 24.8 36.64 22.752 33.12C20.64 29.536 19.584 25.536 19.584 21.12C19.584 15.552 21.024 10.912 23.904 7.20004C26.784 3.42404 30.592 1.02404 35.328 3.8147e-05V6.72004C32.128 7.42404 29.664 9.12004 27.936 11.808C26.208 14.432 25.344 17.536 25.344 21.12C25.344 23.936 26.08 26.624 27.552 29.184C28.96 31.744 31.072 33.824 33.888 35.424C36.704 36.96 40.256 37.728 44.544 37.728C47.744 37.728 50.56 37.28 52.992 36.384C55.3601 35.424 57.3761 34.176 59.0401 32.64C60.6401 31.04 61.8561 29.248 62.6881 27.264C63.4561 25.28 63.8401 23.232 63.8401 21.12C63.8401 18.752 63.4561 16.576 62.6881 14.592C61.8561 12.544 60.7041 10.848 59.2321 9.50404C57.7601 8.09604 55.936 7.16804 53.76 6.72004V3.8147e-05C58.3681 0.960037 62.1441 3.32804 65.0881 7.10404C68.0321 10.88 69.5041 15.552 69.5041 21.12Z" fill="black"/>
</svg>
