<svg width="42" height="42" viewBox="0 0 42 42" fill="none" xmlns="http://www.w3.org/2000/svg">
<path d="M23.2896 28.9979H15.0107C14.2939 28.9999 13.597 29.2334 13.0237 29.6637C12.4504 30.0939 12.0315 30.6979 11.8293 31.3855C11.3059 33.1716 10.8674 34.5913 10.5352 35.6528C10.343 36.2573 9.95617 36.7813 9.43502 37.1429C8.91386 37.5045 8.28768 37.6835 7.65412 37.652C7.02057 37.6205 6.41525 37.3802 5.93257 36.9686C5.44988 36.5571 5.11696 35.9973 4.98572 35.3767C3.86147 30.2556 3.64067 24.9775 4.33327 19.7805C4.31994 18.9426 4.50258 18.1133 4.86662 17.3585C5.23066 16.6038 5.76603 15.9446 6.43002 15.4335C6.56779 15.3273 6.65777 15.1708 6.68018 14.9983C6.70259 14.8259 6.6556 14.6516 6.54953 14.5137C6.44346 14.3759 6.28701 14.2858 6.11455 14.2633C5.9421 14.2408 5.76777 14.2877 5.62988 14.3937C4.8274 15.006 4.17596 15.794 3.72562 16.6974C3.27528 17.6007 3.03803 18.5953 3.03211 19.6046C2.30778 24.9498 2.53453 30.3809 3.70187 35.647C3.90291 36.584 4.41858 37.4239 5.16314 38.0271C5.9077 38.6304 6.8363 38.9606 7.79456 38.963C11.7998 38.811 11.9729 35.1825 13.0891 31.752C13.2112 31.3366 13.4642 30.9718 13.8105 30.712C14.1568 30.4521 14.5777 30.3111 15.0107 30.3099H23.2896C23.3759 30.3102 23.4615 30.2934 23.5413 30.2606C23.6211 30.2277 23.6937 30.1795 23.7548 30.1185C23.816 30.0576 23.8645 29.9852 23.8976 29.9054C23.9307 29.8257 23.9477 29.7402 23.9477 29.6539C23.9477 29.5676 23.9307 29.4821 23.8976 29.4024C23.8645 29.3227 23.816 29.2502 23.7548 29.1893C23.6937 29.1284 23.6211 29.0801 23.5413 29.0472C23.4615 29.0144 23.3759 28.9976 23.2896 28.9979Z" fill="url(#paint0_linear_4843_4121)"/>
<path d="M38.9679 19.6047C38.9494 17.8522 38.2407 16.1777 36.9954 14.9446C35.75 13.7115 34.0687 13.0192 32.3161 13.018C30.8707 13.0141 29.4643 13.4867 28.3144 14.3626C27.7432 14.7858 27.0509 15.0136 26.34 15.0122H15.66C14.9502 15.0138 14.2588 14.7867 13.6881 14.3645C12.9301 13.7897 12.0572 13.3849 11.1287 13.1776C10.2002 12.9703 9.23798 12.9655 8.30746 13.1634C8.13984 13.2021 7.99412 13.3051 7.90169 13.4501C7.80926 13.5952 7.77752 13.7708 7.8133 13.9391C7.84908 14.1073 7.94952 14.2548 8.09299 14.3497C8.23646 14.4447 8.41147 14.4794 8.58033 14.4466C9.32716 14.288 10.0994 14.2921 10.8445 14.4587C11.5896 14.6253 12.2901 14.9504 12.8982 15.412C13.6968 16.0052 14.6653 16.3251 15.66 16.3243L26.34 16.3243C28.6227 16.4204 29.9949 14.1437 32.3161 14.33C33.7311 14.3307 35.0879 14.8927 36.089 15.8926C37.0901 16.8925 37.6537 18.2486 37.6562 19.6636C38.3658 24.8988 38.1485 30.2181 37.0142 35.378C36.8741 36.0197 36.5195 36.5945 36.0089 37.0077C35.4983 37.4209 34.8622 37.6478 34.2054 37.651C33.596 37.6538 33.0017 37.4619 32.509 37.1033C32.0163 36.7447 31.651 36.2381 31.4663 35.6574C31.1326 34.5913 30.6941 33.1717 30.1716 31.3882C29.9697 30.7 29.5508 30.0954 28.9773 29.6647C28.4038 29.234 27.7065 29.0001 26.9893 28.998H25.9137C25.8274 28.9977 25.7418 29.0145 25.662 29.0473C25.5822 29.0801 25.5096 29.1284 25.4485 29.1894C25.3873 29.2503 25.3388 29.3227 25.3057 29.4025C25.2726 29.4822 25.2556 29.5676 25.2556 29.654C25.2556 29.7403 25.2726 29.8258 25.3057 29.9055C25.3388 29.9852 25.3873 30.0576 25.4485 30.1186C25.5096 30.1795 25.5822 30.2278 25.662 30.2606C25.7418 30.2935 25.8274 30.3103 25.9137 30.31H26.9893C27.4227 30.3113 27.844 30.4526 28.1905 30.713C28.537 30.9733 28.79 31.3387 28.9119 31.7546C30.041 35.1919 30.1787 38.8026 34.2054 38.963C35.1628 38.9582 36.0899 38.6272 36.834 38.0246C37.578 37.422 38.0944 36.5839 38.2981 35.6484C39.4654 30.3818 39.6922 24.9502 38.9679 19.6047Z" fill="url(#paint1_linear_4843_4121)"/>
<path d="M10.5038 17.134C9.98204 17.1346 9.48179 17.3421 9.11284 17.7111C8.74388 18.08 8.53636 18.5803 8.53579 19.1021V20.4141H7.22377C6.70181 20.4141 6.20124 20.6214 5.83216 20.9905C5.46308 21.3596 5.25574 21.8602 5.25574 22.3821C5.25574 22.9041 5.46308 23.4046 5.83216 23.7737C6.20124 24.1428 6.70181 24.3501 7.22377 24.3501H8.53581V25.6622C8.53581 26.1841 8.74315 26.6847 9.11223 27.0538C9.48131 27.4228 9.98188 27.6302 10.5038 27.6302C11.0258 27.6302 11.5264 27.4228 11.8954 27.0538C12.2645 26.6847 12.4719 26.1841 12.4719 25.6622V24.3502H13.7838C14.3058 24.3502 14.8064 24.1428 15.1754 23.7737C15.5445 23.4047 15.7519 22.9041 15.7519 22.3821C15.7519 21.8602 15.5445 21.3596 15.1754 20.9905C14.8064 20.6214 14.3058 20.4141 13.7838 20.4141H12.4718V19.1021C12.4713 18.5803 12.2637 18.08 11.8948 17.7111C11.5258 17.3421 11.0256 17.1346 10.5038 17.134ZM13.7838 21.7261C13.87 21.7261 13.9553 21.7431 14.0349 21.776C14.1145 21.809 14.1868 21.8573 14.2477 21.9182C14.3086 21.9792 14.3569 22.0515 14.3899 22.1311C14.4229 22.2107 14.4398 22.296 14.4398 22.3821C14.4398 22.4683 14.4229 22.5536 14.3899 22.6331C14.3569 22.7127 14.3086 22.7851 14.2477 22.846C14.1868 22.9069 14.1145 22.9552 14.0349 22.9882C13.9553 23.0211 13.87 23.0381 13.7838 23.0381H11.8158C11.7297 23.0381 11.6443 23.055 11.5647 23.088C11.4851 23.121 11.4128 23.1693 11.3519 23.2302C11.291 23.2911 11.2426 23.3635 11.2097 23.4431C11.1767 23.5227 11.1598 23.608 11.1598 23.6941V25.6622C11.1593 25.8358 11.0899 26.0021 10.9669 26.1247C10.844 26.2473 10.6774 26.3161 10.5038 26.3161C10.3302 26.3161 10.1636 26.2473 10.0407 26.1247C9.91769 26.0021 9.84833 25.8358 9.84778 25.6622V23.6941C9.8478 23.608 9.83085 23.5227 9.79789 23.4431C9.76493 23.3635 9.71661 23.2911 9.65569 23.2302C9.59477 23.1693 9.52245 23.121 9.44285 23.088C9.36324 23.055 9.27793 23.0381 9.19177 23.0381H7.22377C7.13762 23.0381 7.05231 23.0211 6.97272 22.9882C6.89313 22.9552 6.82081 22.9069 6.7599 22.846C6.69898 22.7851 6.65066 22.7127 6.61769 22.6331C6.58473 22.5536 6.56776 22.4683 6.56776 22.3821C6.56776 22.296 6.58473 22.2107 6.61769 22.1311C6.65066 22.0515 6.69898 21.9792 6.7599 21.9182C6.82081 21.8573 6.89313 21.809 6.97272 21.776C7.05231 21.7431 7.13762 21.7261 7.22377 21.7261H9.19179C9.27795 21.7261 9.36326 21.7092 9.44286 21.6762C9.52246 21.6432 9.59479 21.5949 9.65571 21.534C9.71663 21.4731 9.76495 21.4008 9.79791 21.3212C9.83087 21.2416 9.84782 21.1562 9.8478 21.0701V19.1021C9.84835 18.9284 9.91771 18.7621 10.0407 18.6395C10.1636 18.5169 10.3302 18.4481 10.5038 18.4481C10.6774 18.4481 10.844 18.5169 10.9669 18.6395C11.0899 18.7621 11.1593 18.9284 11.1598 19.1021V21.0701C11.1598 21.1562 11.1768 21.2416 11.2097 21.3212C11.2427 21.4008 11.291 21.4731 11.3519 21.534C11.4128 21.5949 11.4852 21.6432 11.5648 21.6762C11.6444 21.7092 11.7297 21.7261 11.8158 21.7261H13.7838Z" fill="url(#paint2_linear_4843_4121)"/>
<path d="M23.6241 26.3181H18.376C18.2897 26.3178 18.2041 26.3346 18.1243 26.3675C18.0445 26.4003 17.9719 26.4486 17.9108 26.5095C17.8496 26.5705 17.8011 26.6429 17.768 26.7226C17.7349 26.8023 17.7179 26.8878 17.7179 26.9741C17.7179 27.0605 17.7349 27.1459 17.768 27.2257C17.8011 27.3054 17.8496 27.3778 17.9108 27.4387C17.9719 27.4997 18.0445 27.548 18.1243 27.5808C18.2041 27.6136 18.2897 27.6304 18.376 27.6301H23.6241C23.7104 27.6304 23.7959 27.6136 23.8757 27.5808C23.9556 27.548 24.0281 27.4997 24.0893 27.4387C24.1504 27.3778 24.1989 27.3054 24.232 27.2257C24.2651 27.1459 24.2821 27.0605 24.2821 26.9741C24.2821 26.8878 24.2651 26.8023 24.232 26.7226C24.1989 26.6429 24.1504 26.5705 24.0893 26.5095C24.0281 26.4486 23.9556 26.4003 23.8757 26.3675C23.7959 26.3346 23.7104 26.3178 23.6241 26.3181Z" fill="url(#paint3_linear_4843_4121)"/>
<path d="M31.4961 17.134C31.1069 17.134 30.7264 17.2495 30.4027 17.4657C30.0791 17.682 29.8268 17.9893 29.6779 18.3489C29.5289 18.7085 29.49 19.1042 29.5659 19.486C29.6418 19.8678 29.8293 20.2184 30.1045 20.4937C30.3797 20.7689 30.7304 20.9563 31.1122 21.0323C31.4939 21.1082 31.8896 21.0692 32.2492 20.9203C32.6088 20.7713 32.9162 20.5191 33.1325 20.1954C33.3487 19.8718 33.4641 19.4913 33.4641 19.1021C33.4636 18.5803 33.256 18.08 32.8871 17.7111C32.5181 17.3421 32.0179 17.1346 31.4961 17.134ZM31.4961 19.7581C31.3664 19.7581 31.2395 19.7196 31.1316 19.6475C31.0238 19.5754 30.9397 19.473 30.89 19.3531C30.8404 19.2332 30.8274 19.1013 30.8527 18.9741C30.878 18.8468 30.9405 18.7299 31.0322 18.6382C31.124 18.5464 31.2409 18.484 31.3681 18.4587C31.4954 18.4333 31.6273 18.4463 31.7472 18.496C31.867 18.5456 31.9695 18.6297 32.0416 18.7376C32.1136 18.8455 32.1521 18.9723 32.1521 19.1021C32.1519 19.276 32.0827 19.4427 31.9597 19.5657C31.8367 19.6887 31.67 19.7578 31.4961 19.7581Z" fill="url(#paint4_linear_4843_4121)"/>
<path d="M26.248 22.3821C26.248 22.7713 26.3635 23.1518 26.5797 23.4755C26.796 23.7991 27.1033 24.0514 27.4629 24.2003C27.8226 24.3493 28.2183 24.3882 28.6 24.3123C28.9818 24.2364 29.3324 24.0489 29.6077 23.7737C29.8829 23.4985 30.0704 23.1478 30.1463 22.766C30.2222 22.3843 30.1833 21.9886 30.0343 21.629C29.8853 21.2693 29.6331 20.962 29.3095 20.7457C28.9858 20.5295 28.6053 20.4141 28.2161 20.4141C27.6943 20.4146 27.1941 20.6222 26.8251 20.9911C26.4561 21.3601 26.2486 21.8603 26.248 22.3821ZM28.8721 22.3821C28.8721 22.5118 28.8336 22.6387 28.7615 22.7466C28.6894 22.8544 28.587 22.9385 28.4671 22.9882C28.3472 23.0378 28.2153 23.0508 28.0881 23.0255C27.9608 23.0002 27.8439 22.9377 27.7522 22.846C27.6605 22.7542 27.598 22.6373 27.5727 22.5101C27.5473 22.3828 27.5603 22.2509 27.61 22.131C27.6596 22.0112 27.7437 21.9087 27.8516 21.8366C27.9595 21.7646 28.0863 21.7261 28.2161 21.7261C28.39 21.7263 28.5568 21.7954 28.6798 21.9184C28.8027 22.0414 28.8719 22.2082 28.8721 22.3821Z" fill="url(#paint5_linear_4843_4121)"/>
<path d="M36.7443 22.3821C36.7443 21.9929 36.6289 21.6124 36.4126 21.2887C36.1964 20.9651 35.889 20.7128 35.5294 20.5639C35.1698 20.4149 34.7741 20.3759 34.3923 20.4519C34.0106 20.5278 33.6599 20.7153 33.3847 20.9905C33.1094 21.2657 32.922 21.6164 32.846 21.9981C32.7701 22.3799 32.8091 22.7756 32.958 23.1352C33.107 23.4948 33.3592 23.8022 33.6829 24.0184C34.0065 24.2347 34.387 24.3501 34.7763 24.3501C35.298 24.3496 35.7983 24.142 36.1672 23.7731C36.5362 23.4041 36.7437 22.9039 36.7443 22.3821ZM34.1202 22.3821C34.1202 22.2523 34.1587 22.1255 34.2308 22.0176C34.3029 21.9098 34.4053 21.8257 34.5252 21.776C34.6451 21.7264 34.777 21.7134 34.9042 21.7387C35.0315 21.764 35.1484 21.8265 35.2401 21.9182C35.3319 22.01 35.3943 22.1269 35.4197 22.2541C35.445 22.3814 35.432 22.5133 35.3823 22.6331C35.3327 22.753 35.2486 22.8555 35.1407 22.9275C35.0328 22.9996 34.906 23.0381 34.7763 23.0381C34.6023 23.0379 34.4356 22.9688 34.3126 22.8458C34.1896 22.7228 34.1204 22.556 34.1202 22.3821Z" fill="url(#paint6_linear_4843_4121)"/>
<path d="M31.4961 23.6941C31.1069 23.6941 30.7264 23.8095 30.4027 24.0258C30.0791 24.242 29.8268 24.5494 29.6779 24.909C29.5289 25.2686 29.49 25.6643 29.5659 26.0461C29.6418 26.4278 29.8293 26.7785 30.1045 27.0537C30.3797 27.329 30.7304 27.5164 31.1122 27.5923C31.4939 27.6683 31.8896 27.6293 32.2492 27.4803C32.6088 27.3314 32.9162 27.0791 33.1325 26.7555C33.3487 26.4319 33.4641 26.0514 33.4641 25.6621C33.4636 25.1403 33.256 24.6401 32.8871 24.2711C32.5181 23.9022 32.0179 23.6947 31.4961 23.6941ZM31.4961 26.3181C31.3664 26.3181 31.2395 26.2797 31.1316 26.2076C31.0238 26.1355 30.9397 26.033 30.89 25.9132C30.8404 25.7933 30.8274 25.6614 30.8527 25.5341C30.878 25.4069 30.9405 25.29 31.0322 25.1982C31.124 25.1065 31.2409 25.044 31.3681 25.0187C31.4954 24.9934 31.6273 25.0064 31.7472 25.056C31.867 25.1057 31.9695 25.1898 32.0416 25.2977C32.1136 25.4055 32.1521 25.5324 32.1521 25.6621C32.1519 25.8361 32.0828 26.0028 31.9598 26.1258C31.8368 26.2488 31.67 26.318 31.4961 26.3181Z" fill="url(#paint7_linear_4843_4121)"/>
<path d="M14.2603 10.509C14.3833 10.632 14.5501 10.7011 14.7241 10.7011C14.8981 10.7011 15.0649 10.632 15.1879 10.509C15.3109 10.386 15.38 10.2191 15.38 10.0451C15.38 9.87117 15.3109 9.70433 15.1879 9.58131L12.7436 7.13697L15.1879 4.69264C15.2488 4.63173 15.2971 4.55942 15.3301 4.47984C15.3631 4.40025 15.38 4.31496 15.38 4.22882C15.38 4.14268 15.3631 4.05738 15.3301 3.9778C15.2971 3.89822 15.2488 3.82591 15.1879 3.765C15.127 3.70409 15.0547 3.65577 14.9751 3.62281C14.8955 3.58984 14.8102 3.57288 14.7241 3.57288C14.6379 3.57288 14.5526 3.58984 14.4731 3.62281C14.3935 3.65577 14.3212 3.70409 14.2603 3.765L11.3521 6.67316C11.2912 6.73405 11.2428 6.80636 11.2099 6.88595C11.1769 6.96553 11.1599 7.05083 11.1599 7.13698C11.1599 7.22312 11.1769 7.30842 11.2099 7.38801C11.2428 7.46759 11.2912 7.5399 11.3521 7.6008L14.2603 10.509Z" fill="url(#paint8_linear_4843_4121)"/>
<path d="M26.8122 10.509C26.8731 10.5699 26.9454 10.6182 27.025 10.6512C27.1046 10.6842 27.1899 10.7011 27.276 10.7011C27.3622 10.7011 27.4475 10.6842 27.527 10.6512C27.6066 10.6182 27.6789 10.5699 27.7398 10.509L30.648 7.6008C30.7089 7.5399 30.7573 7.46759 30.7902 7.38801C30.8232 7.30842 30.8402 7.22312 30.8402 7.13698C30.8402 7.05083 30.8232 6.96553 30.7902 6.88595C30.7573 6.80636 30.7089 6.73405 30.648 6.67316L27.7398 3.765C27.6789 3.70409 27.6066 3.65577 27.527 3.62281C27.4475 3.58984 27.3622 3.57288 27.276 3.57288C27.1899 3.57288 27.1046 3.58984 27.025 3.62281C26.9454 3.65577 26.8731 3.70409 26.8122 3.765C26.7513 3.82591 26.703 3.89822 26.67 3.9778C26.637 4.05738 26.6201 4.14268 26.6201 4.22882C26.6201 4.31496 26.637 4.40025 26.67 4.47984C26.703 4.55942 26.7513 4.63173 26.8122 4.69264L29.2565 7.13697L26.8122 9.5813C26.7513 9.64219 26.7029 9.7145 26.6699 9.79409C26.637 9.87367 26.62 9.95898 26.62 10.0451C26.62 10.1313 26.637 10.2166 26.6699 10.2962C26.7029 10.3757 26.7513 10.4481 26.8122 10.509Z" fill="url(#paint9_linear_4843_4121)"/>
<path d="M19.9798 11.2175C20.1486 11.2596 20.3272 11.233 20.4764 11.1435C20.6256 11.054 20.7331 10.909 20.7754 10.7402L22.4974 3.85213C22.5185 3.7685 22.5228 3.68155 22.5102 3.59625C22.4976 3.51094 22.4683 3.42896 22.424 3.35498C22.3797 3.281 22.3213 3.21649 22.252 3.16512C22.1827 3.11375 22.104 3.07654 22.0204 3.05562C21.9367 3.03469 21.8498 3.03047 21.7645 3.04318C21.6792 3.05589 21.5973 3.08528 21.5233 3.12969C21.4494 3.17409 21.385 3.23263 21.3337 3.30196C21.2824 3.37129 21.2453 3.45005 21.2245 3.53373L19.5025 10.4218C19.4603 10.5906 19.4869 10.7693 19.5764 10.9185C19.6659 11.0677 19.811 11.1753 19.9798 11.2175Z" fill="url(#paint10_linear_4843_4121)"/>
<defs>
<linearGradient id="paint0_linear_4843_4121" x1="2.87173" y1="33.9447" x2="23.6504" y2="33.9076" gradientUnits="userSpaceOnUse">
<stop stop-color="#434AE4"/>
<stop offset="0.5" stop-color="#5441B7"/>
<stop offset="1" stop-color="#E86343"/>
</linearGradient>
<linearGradient id="paint1_linear_4843_4121" x1="8.17494" y1="33.6929" x2="38.9418" y2="33.6154" gradientUnits="userSpaceOnUse">
<stop stop-color="#434AE4"/>
<stop offset="0.5" stop-color="#5441B7"/>
<stop offset="1" stop-color="#E86343"/>
</linearGradient>
<linearGradient id="paint2_linear_4843_4121" x1="5.38069" y1="25.4982" x2="15.6056" y2="25.477" gradientUnits="userSpaceOnUse">
<stop stop-color="#434AE4"/>
<stop offset="0.5" stop-color="#5441B7"/>
<stop offset="1" stop-color="#E86343"/>
</linearGradient>
<linearGradient id="paint3_linear_4843_4121" x1="17.796" y1="27.3636" x2="24.19" y2="27.2974" gradientUnits="userSpaceOnUse">
<stop stop-color="#434AE4"/>
<stop offset="0.5" stop-color="#5441B7"/>
<stop offset="1" stop-color="#E86343"/>
</linearGradient>
<linearGradient id="paint4_linear_4843_4121" x1="29.5749" y1="20.2706" x2="33.4093" y2="20.2626" gradientUnits="userSpaceOnUse">
<stop stop-color="#434AE4"/>
<stop offset="0.5" stop-color="#5441B7"/>
<stop offset="1" stop-color="#E86343"/>
</linearGradient>
<linearGradient id="paint5_linear_4843_4121" x1="26.2949" y1="23.5506" x2="30.1292" y2="23.5427" gradientUnits="userSpaceOnUse">
<stop stop-color="#434AE4"/>
<stop offset="0.5" stop-color="#5441B7"/>
<stop offset="1" stop-color="#E86343"/>
</linearGradient>
<linearGradient id="paint6_linear_4843_4121" x1="32.8551" y1="23.5506" x2="36.6894" y2="23.5427" gradientUnits="userSpaceOnUse">
<stop stop-color="#434AE4"/>
<stop offset="0.5" stop-color="#5441B7"/>
<stop offset="1" stop-color="#E86343"/>
</linearGradient>
<linearGradient id="paint7_linear_4843_4121" x1="29.5749" y1="26.8306" x2="33.4093" y2="26.8227" gradientUnits="userSpaceOnUse">
<stop stop-color="#434AE4"/>
<stop offset="0.5" stop-color="#5441B7"/>
<stop offset="1" stop-color="#E86343"/>
</linearGradient>
<linearGradient id="paint8_linear_4843_4121" x1="11.2102" y1="9.25318" x2="15.3212" y2="9.24814" gradientUnits="userSpaceOnUse">
<stop stop-color="#434AE4"/>
<stop offset="0.5" stop-color="#5441B7"/>
<stop offset="1" stop-color="#E86343"/>
</linearGradient>
<linearGradient id="paint9_linear_4843_4121" x1="26.6702" y1="9.25322" x2="30.7814" y2="9.24818" gradientUnits="userSpaceOnUse">
<stop stop-color="#434AE4"/>
<stop offset="0.5" stop-color="#5441B7"/>
<stop offset="1" stop-color="#E86343"/>
</linearGradient>
<linearGradient id="paint10_linear_4843_4121" x1="19.519" y1="9.57121" x2="22.475" y2="9.56894" gradientUnits="userSpaceOnUse">
<stop stop-color="#434AE4"/>
<stop offset="0.5" stop-color="#5441B7"/>
<stop offset="1" stop-color="#E86343"/>
</linearGradient>
</defs>
</svg>
