<svg width="42" height="42" viewBox="0 0 42 42" fill="none" xmlns="http://www.w3.org/2000/svg">
<g clip-path="url(#clip0_4844_4138)">
<path d="M41.8015 35.4243L37.9355 31.5583V9.48388C37.9355 9.10978 37.6322 8.80646 37.2581 8.80646H27.7742V8.03285C28.9669 7.72488 29.8018 6.65117 29.8065 5.41937V4.74195C29.8076 4.63712 29.7844 4.53347 29.7387 4.43914L27.7065 0.374623C27.5911 0.143878 27.3548 -0.00142892 27.0968 1.0598e-05H14.9032C14.6465 -7.40794e-05 14.4117 0.144978 14.2969 0.374623L12.2647 4.43914C12.2178 4.53322 12.1935 4.63686 12.1935 4.74195V5.41937C12.1982 6.65117 13.0331 7.72488 14.2258 8.03285V8.80646H4.74194C4.36783 8.80646 4.06452 9.10978 4.06452 9.48388V31.5583L0.198484 35.4243C0.0714677 35.5513 0 35.7236 0 35.9032C0.00372581 39.2688 2.73119 41.9963 6.09677 42H35.9032C39.2688 41.9963 41.9963 39.2688 42 35.9032C42 35.7236 41.9285 35.5513 41.8015 35.4243ZM21.6774 13.5484H20.3226V10.8387H21.6774V13.5484ZM22.3548 9.48388H19.6452C19.2711 9.48388 18.9677 9.7872 18.9677 10.1613V13.5484H15.5806V8.03488C16.1045 7.90118 16.5763 7.61378 16.9355 7.20978C17.9225 8.33218 19.6325 8.44193 20.7549 7.45493C20.8417 7.37855 20.9236 7.29666 21 7.20978C21.987 8.33218 23.6971 8.44193 24.8194 7.45493C24.9063 7.37855 24.9881 7.29666 25.0645 7.20978C25.4237 7.61378 25.8955 7.90118 26.4194 8.03488V13.5484H23.0323V10.1613C23.0323 9.7872 22.7289 9.48388 22.3548 9.48388ZM21.6774 4.06453V1.35485H23.2219L24.1249 4.06453H21.6774ZM24.3871 5.41937C24.3871 6.16766 23.7806 6.7742 23.0323 6.7742C22.284 6.7742 21.6774 6.16766 21.6774 5.41937H24.3871ZM20.3226 4.06453H17.8751L18.7781 1.35485H20.3226V4.06453ZM20.3226 5.41937C20.3226 6.16766 19.716 6.7742 18.9677 6.7742C18.2194 6.7742 17.6129 6.16766 17.6129 5.41937H20.3226ZM27.0968 6.7742C26.3485 6.7742 25.7419 6.16766 25.7419 5.41937H28.4516C28.4516 6.16766 27.8451 6.7742 27.0968 6.7742ZM28.033 4.06453H25.5523L24.6493 1.35485H26.6781L28.033 4.06453ZM15.3219 1.35485H17.3541L16.4477 4.06453H13.967L15.3219 1.35485ZM13.5484 5.41937H16.2581C16.2581 6.16766 15.6515 6.7742 14.9032 6.7742C14.1549 6.7742 13.5484 6.16766 13.5484 5.41937ZM14.2258 10.1613V14.2258C14.2258 14.5999 14.5291 14.9032 14.9032 14.9032H27.0968C27.4709 14.9032 27.7742 14.5999 27.7742 14.2258V10.1613H36.5806V31.1613H5.41935V10.1613H14.2258ZM5.02239 32.5161H36.9776L39.6873 35.2258H2.31271L5.02239 32.5161ZM27.3555 36.5807L26.6781 37.9355H15.3219L14.6445 36.5807H27.3555ZM35.9032 40.6452H6.09677C3.74113 40.642 1.74419 38.9118 1.40565 36.5807H13.1297L14.2969 38.9157C14.4117 39.1454 14.6465 39.2904 14.9032 39.2903H27.0968C27.3548 39.2918 27.5911 39.1465 27.7065 38.9157L28.8703 36.5807H40.5944C40.2558 38.9118 38.2589 40.642 35.9032 40.6452ZM14.3227 26.0908C14.5155 26.4114 14.9317 26.5151 15.2524 26.3222C15.3473 26.2652 15.4267 26.1857 15.4838 26.0908L17.516 22.7037C17.7087 22.383 17.6049 21.9669 17.2842 21.7741C17.1789 21.7109 17.0584 21.6774 16.9355 21.6774H15.7568C16.5041 18.7811 19.4579 17.0391 22.3542 17.7864C23.3903 18.0537 24.3239 18.6221 25.0374 19.4196L26.0468 18.5159C23.552 15.7278 19.2694 15.49 16.4814 17.9847C15.3961 18.9557 14.6527 20.2506 14.3613 21.6774H12.871C12.4969 21.6775 12.1936 21.9808 12.1937 22.355C12.1937 22.4779 12.2272 22.5985 12.2904 22.7037L14.3227 26.0908ZM15.7385 23.0323L14.9032 24.4257L14.068 23.0323H15.7385ZM24.4772 24.7211C24.5971 24.9327 24.8212 25.0638 25.0645 25.0645H26.0251C24.9032 27.8393 21.7443 29.1793 18.9694 28.0574C18.2006 27.7465 17.5132 27.2633 16.9605 26.6449L15.9512 27.5486C18.4451 30.3375 22.7276 30.5766 25.5164 28.0827C26.4251 27.2701 27.0977 26.2274 27.4633 25.0645H29.129C29.5031 25.0644 29.8064 24.7611 29.8063 24.3869C29.8063 24.2641 29.7728 24.1435 29.7096 24.0382L27.6773 20.6511C27.4569 20.3306 27.0183 20.2493 26.6976 20.4698C26.6266 20.5186 26.5651 20.5801 26.5162 20.6511L24.484 24.0382C24.3581 24.2476 24.3548 24.5085 24.4752 24.7211H24.4772ZM27.0968 22.3162L27.932 23.7097H26.2615L27.0968 22.3162Z" fill="url(#paint0_linear_4844_4138)"/>
</g>
<defs>
<linearGradient id="paint0_linear_4844_4138" x1="0.5" y1="33.4688" x2="41.4145" y2="33.384" gradientUnits="userSpaceOnUse">
<stop stop-color="#434AE4"/>
<stop offset="0.5" stop-color="#5441B7"/>
<stop offset="1" stop-color="#E86343"/>
</linearGradient>
<clipPath id="clip0_4844_4138">
<rect width="42" height="42" fill="white"/>
</clipPath>
</defs>
</svg>
