<svg width="42" height="42" viewBox="0 0 42 42" fill="none" xmlns="http://www.w3.org/2000/svg">
<path d="M25.7695 27.974C25.6225 27.974 25.4756 27.9179 25.3634 27.8058C25.1391 27.5815 25.1391 27.2178 25.3634 26.9935L27.5445 24.8124C28.6472 23.7098 30.4436 23.7094 31.5488 24.8119C31.7552 25.0182 31.9283 25.257 32.0638 25.522C32.2082 25.8044 32.0963 26.1504 31.8139 26.2948C31.5314 26.4394 31.1854 26.3274 31.0411 26.045C30.9603 25.8869 30.858 25.7455 30.7371 25.6246C30.0802 24.9694 29.0121 24.9692 28.3567 25.6246L26.1756 27.8058C26.0635 27.9179 25.9165 27.974 25.7695 27.974Z" fill="url(#paint0_linear_4838_4005)"/>
<path d="M27.5066 30.4039C27.3596 30.4039 27.2127 30.3478 27.1005 30.2357C26.8762 30.0114 26.8762 29.6477 27.1005 29.4234L31.6395 24.8845C32.173 24.3508 32.8842 24.057 33.6419 24.057C34.3996 24.057 35.1107 24.3508 35.6443 24.8845C36.0362 25.2762 36.3026 25.7733 36.4148 26.3219C36.4783 26.6327 36.2779 26.9361 35.9671 26.9996C35.6559 27.0631 35.3528 26.8627 35.2893 26.552C35.2225 26.2247 35.0643 25.9289 34.8321 25.6967C34.5153 25.3801 34.0927 25.2057 33.6418 25.2057C33.1909 25.2057 32.7683 25.3801 32.4517 25.6966L27.9126 30.2357C27.8005 30.3477 27.6535 30.4039 27.5065 30.4039H27.5066Z" fill="url(#paint1_linear_4838_4005)"/>
<path d="M25.3457 37.8436C25.0432 37.8436 24.7393 37.8035 24.4405 37.7225L16.0881 35.4848C15.5158 35.3588 15.3681 35.3544 14.9912 35.5725L13.6795 36.3307C13.4051 36.4895 13.0536 36.3955 12.8949 36.1208C12.7361 35.8462 12.8301 35.4948 13.1048 35.3362L14.4162 34.5781C15.1597 34.148 15.6639 34.2147 16.3481 34.3658C16.3565 34.3676 16.3648 34.3696 16.373 34.3718L24.7394 36.6133C25.3385 36.7756 25.9677 36.6918 26.513 36.3775L38.7042 29.3391C39.0921 29.1153 39.3701 28.7521 39.4871 28.316C39.604 27.8801 39.5453 27.4272 39.3219 27.0404C39.098 26.6523 38.7348 26.3744 38.2987 26.2573C37.8628 26.1403 37.4098 26.199 37.0232 26.4226L28.0775 31.5871C27.1111 32.1447 26.6919 32.2874 25.9525 32.0943L24.9473 31.8267C24.9466 31.8265 24.946 31.8263 24.9453 31.8261C24.6388 31.7445 24.4565 31.4299 24.5381 31.1234C24.6196 30.8168 24.9344 30.6344 25.2409 30.7161C25.9928 30.9162 26.736 30.4961 26.9334 29.7598C27.1335 29.0123 26.6864 28.2398 25.9367 28.0379L17.5476 25.7895C17.537 25.7867 17.5265 25.7835 17.516 25.78C17.0733 25.6337 16.4833 25.6934 16.0813 25.9252L9.77281 29.5666C9.49817 29.7253 9.14683 29.6311 8.98826 29.3564C8.82969 29.0816 8.92387 28.7304 9.19859 28.5719L15.5071 24.9304C16.1878 24.5378 17.1094 24.4416 17.8599 24.6841L26.2347 26.9286C27.5957 27.2952 28.4066 28.6986 28.043 30.0572C28.0175 30.1521 27.9872 30.2442 27.9523 30.3333L36.4487 25.4281C37.1011 25.0509 37.8638 24.9514 38.5965 25.1481C39.3289 25.3446 39.9399 25.8128 40.3168 26.4662C40.6937 27.1185 40.7932 27.8813 40.5966 28.6138C40.4001 29.3464 39.9319 29.9572 39.2784 30.3342L27.0871 37.3727C26.5462 37.6845 25.9488 37.8436 25.3459 37.8436L25.3457 37.8436Z" fill="url(#paint2_linear_4838_4005)"/>
<path d="M25.1165 31.8527C25.0679 31.8527 25.0184 31.8465 24.9692 31.8335L18.6374 30.1569C18.3307 30.0757 18.148 29.7614 18.2291 29.4547C18.3104 29.1481 18.6249 28.9654 18.9314 29.0464L25.2632 30.723C25.5698 30.8042 25.7526 31.1185 25.6715 31.4252C25.6033 31.6826 25.3708 31.8527 25.1166 31.8527H25.1165Z" fill="url(#paint3_linear_4838_4005)"/>
<path d="M10.1887 41.1569C9.66618 41.1569 9.13708 40.8967 8.73341 40.4079L1.70185 31.8975C1.43648 31.5761 1.33337 31.1611 1.41138 30.7286C1.50153 30.2289 1.81957 29.7782 2.26212 29.5227L6.91034 26.8394C7.71039 26.3758 8.74062 26.6507 9.20582 27.4533L14.6498 36.8809C15.1135 37.6844 14.8365 38.7154 14.0326 39.1795L10.9749 40.9444C10.7268 41.0875 10.4586 41.157 10.1888 41.157L10.1887 41.1569ZM7.74534 27.7647C7.65609 27.7647 7.56635 27.7869 7.48555 27.8337L2.83642 30.5176C2.68975 30.6023 2.57146 30.769 2.54193 30.9326C2.52446 31.0297 2.5398 31.1082 2.58754 31.1659L9.61918 39.6764C9.66069 39.7268 10.0347 40.1609 10.4008 39.9494L13.4585 38.1845C13.7139 38.0371 13.8021 37.71 13.655 37.4552L8.21161 28.0286C8.11407 27.8603 7.93065 27.7647 7.74534 27.7647Z" fill="url(#paint4_linear_4838_4005)"/>
<path d="M6.90961 32.7898C6.71117 32.7898 6.51815 32.6868 6.41176 32.5026L5.43518 30.8122C5.27645 30.5375 5.37054 30.1863 5.64518 30.0276C5.91982 29.8689 6.27116 29.9629 6.42981 30.2376L7.40639 31.928C7.56512 32.2027 7.47103 32.554 7.19639 32.7126C7.10591 32.765 7.00706 32.7898 6.90961 32.7898Z" fill="url(#paint5_linear_4838_4005)"/>
<path d="M27.037 21.4807C26.4443 21.4807 25.8792 21.1597 25.5856 20.6071L24.4254 18.4237C24.3604 18.3005 24.2728 18.2273 24.1403 18.1846L21.7878 17.4192C20.9861 17.1591 20.5127 16.3393 20.6873 15.5126L21.2014 13.0937C21.2309 12.9563 21.2113 12.8467 21.1361 12.7259L19.8254 10.6321C19.3784 9.9135 19.5441 8.98065 20.2099 8.4609L22.156 6.94028C22.2676 6.85251 22.324 6.75612 22.3429 6.61905L22.6872 4.1691C22.8021 3.3515 23.497 2.75095 24.316 2.75095C24.335 2.75095 24.3539 2.75127 24.3731 2.75201L26.8459 2.84036C26.9858 2.84413 27.0892 2.80681 27.1915 2.71346L29.0341 1.05725C29.6614 0.493938 30.6071 0.49402 31.2342 1.057L31.2346 1.05749L33.0717 2.71075C33.1776 2.80632 33.2835 2.84479 33.4246 2.84028L35.892 2.75201C36.7384 2.72379 37.4638 3.33263 37.5812 4.16918L37.9254 6.61774C37.9446 6.75653 38.0008 6.85349 38.1137 6.94324L40.0585 8.4609C40.7259 8.98196 40.8901 9.91547 40.4406 10.6325L39.1319 12.7268C39.0571 12.8469 39.0376 12.9565 39.0668 13.0925L39.581 15.5121C39.7557 16.3395 39.2825 17.1592 38.4803 17.4195L36.1274 18.1843C35.9936 18.2274 35.9093 18.2985 35.844 18.4222L34.6827 20.6073C34.2877 21.3513 33.398 21.6756 32.6135 21.3617L30.3208 20.433C30.1923 20.3821 30.0754 20.3819 29.9453 20.4339L27.6546 21.3609C27.4523 21.4422 27.2428 21.481 27.0369 21.481L27.037 21.4807ZM30.1339 19.2469C30.3405 19.2469 30.5471 19.2868 30.7484 19.3667L33.0425 20.296C33.2789 20.3905 33.549 20.293 33.6683 20.0683L34.8288 17.8847C35.0316 17.4999 35.3587 17.2249 35.7738 17.0912L38.1254 16.3269C38.3676 16.2483 38.5101 16.0004 38.4572 15.75L37.9435 13.3324C37.8526 12.9096 37.9264 12.4894 38.1573 12.1187L39.4669 10.0229C39.6031 9.80572 39.5534 9.52369 39.3517 9.36619L37.4032 7.84558C37.0582 7.57159 36.8466 7.20286 36.7878 6.77622L36.4438 4.3289C36.4082 4.07559 36.1874 3.89069 35.9322 3.89996L33.4638 3.98822C33.0199 4.00274 32.6302 3.85976 32.3026 3.56379L30.4667 1.91152C30.2772 1.74131 29.9914 1.74155 29.8019 1.91152L27.9628 3.56453C27.645 3.85468 27.244 4.00233 26.807 3.98814L24.3332 3.89971C24.0776 3.89118 23.8604 4.07551 23.8249 4.32865L23.4808 6.77737C23.4218 7.20442 23.2087 7.57381 22.8647 7.84427L20.9171 9.36603C20.7151 9.52369 20.6649 9.80645 20.8001 10.0238L22.1107 12.1175C22.3422 12.4894 22.416 12.9094 22.325 13.3336L21.8113 15.7505C21.7586 16.0001 21.9011 16.2481 22.143 16.3265L24.4943 17.0917C24.9095 17.2254 25.2374 17.5002 25.4409 17.8862L26.6003 20.0682C26.7197 20.2929 26.9886 20.3907 27.2253 20.2954L29.5168 19.3681C29.7189 19.2872 29.9266 19.2468 30.1342 19.2468L30.1339 19.2469Z" fill="url(#paint6_linear_4838_4005)"/>
<path d="M30.1343 17.8427C26.3916 17.8427 23.3468 14.7989 23.3468 11.0575C23.3468 7.31605 26.3916 4.2699 30.1343 4.2699C33.877 4.2699 36.9195 7.31482 36.9195 11.0575C36.9195 14.8002 33.8758 17.8427 30.1343 17.8427ZM30.1343 5.41866C27.0251 5.41866 24.4955 7.94826 24.4955 11.0575C24.4955 14.1667 27.0251 16.6939 30.1343 16.6939C33.2435 16.6939 35.7708 14.1655 35.7708 11.0575C35.7708 7.94949 33.2423 5.41866 30.1343 5.41866Z" fill="url(#paint7_linear_4838_4005)"/>
<path d="M29.2066 13.4943C29.0594 13.4943 28.9124 13.4381 28.8004 13.3261L26.7402 11.2659C26.516 11.0416 26.516 10.6779 26.7402 10.4536C26.9645 10.2294 27.3281 10.2294 27.5524 10.4536L29.2165 12.1178L32.7265 8.77868C32.9563 8.56006 33.3199 8.56917 33.5384 8.79894C33.7571 9.02879 33.748 9.39227 33.5181 9.61097L29.6023 13.3361C29.4913 13.4417 29.3488 13.4943 29.2065 13.4943H29.2066Z" fill="url(#paint8_linear_4838_4005)"/>
<path d="M9.97137 24.3601C9.45523 24.3601 8.93884 24.3138 8.42565 24.2212C8.17275 24.1755 7.98096 23.9674 7.95602 23.7116L7.87383 22.8672C7.37672 22.7206 6.89626 22.5214 6.43795 22.2717L5.78342 22.8093C5.58532 22.9719 5.30338 22.9838 5.09239 22.838C4.23476 22.2454 3.49959 21.5102 2.907 20.6525C2.76131 20.4416 2.77304 20.1597 2.93571 19.9616L3.47326 19.307C3.22364 18.8488 3.02439 18.3683 2.87771 17.8711L2.03337 17.7889C1.77767 17.764 1.56956 17.5723 1.52387 17.3194C1.3384 16.2942 1.3384 15.2545 1.52387 14.2292C1.56964 13.9764 1.77767 13.7847 2.03337 13.7598L2.87755 13.6776C3.02389 13.181 3.22323 12.7004 3.47326 12.2416L2.93571 11.5871C2.77304 11.389 2.76131 11.107 2.907 10.8961C3.50156 10.0355 4.23681 9.29948 5.09239 8.70836C5.30362 8.56251 5.58598 8.57449 5.784 8.73757L6.43795 9.2761C6.89364 9.02738 7.37418 8.82829 7.87391 8.68121L7.9561 7.83695C7.98104 7.58117 8.17283 7.37306 8.42573 7.32737C9.45211 7.14206 10.4917 7.14198 11.5157 7.32737C11.7685 7.37314 11.9601 7.58117 11.9851 7.83686L12.0673 8.68096C12.5664 8.82764 13.047 9.02681 13.5033 9.27602L14.1572 8.73748C14.3553 8.57441 14.6376 8.56243 14.8488 8.70828C15.7073 9.30145 16.4433 10.0375 17.0364 10.8961C17.1823 11.1072 17.1703 11.3896 17.0072 11.5877L16.4687 12.2415C16.7179 12.6978 16.917 13.1784 17.0637 13.6776L17.9077 13.7598C18.1634 13.7847 18.3715 13.9764 18.4172 14.2292C18.6027 15.2545 18.6027 16.2942 18.4172 17.3194C18.3714 17.5723 18.1634 17.764 17.9077 17.7889L17.0635 17.8711C16.9165 18.3709 16.7174 18.8514 16.4687 19.307L17.0072 19.961C17.1703 20.1591 17.1823 20.4414 17.0364 20.6526C16.4454 21.5082 15.7093 22.2435 14.8488 22.8381C14.6378 22.9839 14.3559 22.9721 14.1577 22.8094L13.5032 22.2717C13.0443 22.5218 12.5637 22.7212 12.0673 22.8675L11.9851 23.7117C11.9601 23.9674 11.7685 24.1754 11.5157 24.2212C11.0036 24.3138 10.4877 24.3602 9.97145 24.3602L9.97137 24.3601ZM9.05598 23.1552C9.66498 23.23 10.2773 23.2299 10.885 23.1554L10.9626 22.3584C10.9865 22.1133 11.164 21.9107 11.4039 21.8548C12.0551 21.7029 12.6788 21.4444 13.2574 21.0863C13.4663 20.9571 13.7342 20.9751 13.9241 21.1308L14.5423 21.6385C15.0272 21.2611 15.4605 20.8286 15.8366 20.3464L15.3276 19.7284C15.1708 19.5382 15.153 19.269 15.2834 19.0597C15.6387 18.4891 15.897 17.8658 16.0511 17.2072C16.1072 16.9675 16.3098 16.7902 16.5547 16.7664L17.3516 16.6889C17.4263 16.0805 17.4263 15.4681 17.3516 14.8597L16.5547 14.7822C16.3096 14.7583 16.107 14.5808 16.051 14.341C15.8977 13.6839 15.6395 13.0608 15.2834 12.4889C15.153 12.2795 15.1708 12.0104 15.3276 11.8201L15.8367 11.2021C15.4597 10.7184 15.0266 10.2851 14.5428 9.90823L13.9248 10.4172C13.7345 10.574 13.4654 10.5919 13.2561 10.4615C12.6841 10.1054 12.0609 9.84712 11.4039 9.69389C11.164 9.63794 10.9866 9.43541 10.9627 9.19021L10.8851 8.39328C10.2773 8.3188 9.6649 8.31863 9.05606 8.39345L8.97846 9.19021C8.95459 9.43516 8.77732 9.63769 8.53762 9.6938C7.879 9.84794 7.25572 10.1062 6.68503 10.4615C6.47561 10.5918 6.20654 10.5739 6.01631 10.4172L5.39837 9.90832C4.91611 10.2844 4.48356 10.7177 4.10621 11.2026L4.61391 11.8208C4.76985 12.0106 4.78773 12.2786 4.65845 12.4875C4.30046 13.0659 4.0419 13.6895 3.88998 14.3411C3.83403 14.5809 3.63142 14.7584 3.38631 14.7823L2.58946 14.8598C2.51473 15.4681 2.51473 16.0806 2.58946 16.6889L3.38631 16.7665C3.63125 16.7903 3.83387 16.9676 3.8899 17.2073C4.04272 17.8603 4.30128 18.484 4.65845 19.0612C4.78773 19.2701 4.76985 19.538 4.61391 19.7279L4.1063 20.3461C4.48282 20.8295 4.91545 21.2621 5.39878 21.6386L6.01689 21.131C6.20671 20.9752 6.47478 20.9574 6.68364 21.0865C7.26097 21.4437 7.88474 21.7024 8.53754 21.855C8.77716 21.9111 8.95451 22.1136 8.97838 22.3586L9.05598 23.1554V23.1552Z" fill="url(#paint9_linear_4838_4005)"/>
<path d="M10.1136 19.2216C8.13392 19.2216 6.52332 17.611 6.52332 15.6313C6.52332 13.6515 8.13392 12.041 10.1136 12.041C12.0932 12.041 13.7038 13.6516 13.7038 15.6313C13.7038 17.6109 12.0932 19.2216 10.1136 19.2216ZM10.1136 13.1899C8.76728 13.1899 7.672 14.2851 7.672 15.6314C7.672 16.9776 8.76728 18.0729 10.1136 18.0729C11.4599 18.0729 12.5552 16.9777 12.5552 15.6314C12.5552 14.2851 11.4599 13.1899 10.1136 13.1899Z" fill="url(#paint10_linear_4838_4005)"/>
<defs>
<linearGradient id="paint0_linear_4838_4005" x1="25.2777" y1="27.1638" x2="32.0302" y2="27.1395" gradientUnits="userSpaceOnUse">
<stop stop-color="#434AE4"/>
<stop offset="0.5" stop-color="#5441B7"/>
<stop offset="1" stop-color="#E86343"/>
</linearGradient>
<linearGradient id="paint1_linear_4838_4005" x1="27.0453" y1="29.1147" x2="36.2941" y2="29.0861" gradientUnits="userSpaceOnUse">
<stop stop-color="#434AE4"/>
<stop offset="0.5" stop-color="#5441B7"/>
<stop offset="1" stop-color="#E86343"/>
</linearGradient>
<linearGradient id="paint2_linear_4838_4005" x1="9.28964" y1="35.1438" x2="40.2515" y2="34.9904" gradientUnits="userSpaceOnUse">
<stop stop-color="#434AE4"/>
<stop offset="0.5" stop-color="#5441B7"/>
<stop offset="1" stop-color="#E86343"/>
</linearGradient>
<linearGradient id="paint3_linear_4838_4005" x1="18.2989" y1="31.2788" x2="25.5862" y2="31.2388" gradientUnits="userSpaceOnUse">
<stop stop-color="#434AE4"/>
<stop offset="0.5" stop-color="#5441B7"/>
<stop offset="1" stop-color="#E86343"/>
</linearGradient>
<linearGradient id="paint4_linear_4838_4005" x1="1.54656" y1="38.203" x2="14.6865" y2="38.1777" gradientUnits="userSpaceOnUse">
<stop stop-color="#434AE4"/>
<stop offset="0.5" stop-color="#5441B7"/>
<stop offset="1" stop-color="#E86343"/>
</linearGradient>
<linearGradient id="paint5_linear_4838_4005" x1="5.38334" y1="32.213" x2="7.45391" y2="32.2098" gradientUnits="userSpaceOnUse">
<stop stop-color="#434AE4"/>
<stop offset="0.5" stop-color="#5441B7"/>
<stop offset="1" stop-color="#E86343"/>
</linearGradient>
<linearGradient id="paint6_linear_4838_4005" x1="19.8265" y1="17.2466" x2="40.3989" y2="17.2034" gradientUnits="userSpaceOnUse">
<stop stop-color="#434AE4"/>
<stop offset="0.5" stop-color="#5441B7"/>
<stop offset="1" stop-color="#E86343"/>
</linearGradient>
<linearGradient id="paint7_linear_4838_4005" x1="23.5084" y1="15.0857" x2="36.7303" y2="15.0584" gradientUnits="userSpaceOnUse">
<stop stop-color="#434AE4"/>
<stop offset="0.5" stop-color="#5441B7"/>
<stop offset="1" stop-color="#E86343"/>
</linearGradient>
<linearGradient id="paint8_linear_4838_4005" x1="26.6568" y1="12.5043" x2="33.5973" y2="12.4833" gradientUnits="userSpaceOnUse">
<stop stop-color="#434AE4"/>
<stop offset="0.5" stop-color="#5441B7"/>
<stop offset="1" stop-color="#E86343"/>
</linearGradient>
<linearGradient id="paint9_linear_4838_4005" x1="1.58919" y1="20.8722" x2="18.317" y2="20.8375" gradientUnits="userSpaceOnUse">
<stop stop-color="#434AE4"/>
<stop offset="0.5" stop-color="#5441B7"/>
<stop offset="1" stop-color="#E86343"/>
</linearGradient>
<linearGradient id="paint10_linear_4838_4005" x1="6.6088" y1="17.7631" x2="13.6037" y2="17.7486" gradientUnits="userSpaceOnUse">
<stop stop-color="#434AE4"/>
<stop offset="0.5" stop-color="#5441B7"/>
<stop offset="1" stop-color="#E86343"/>
</linearGradient>
</defs>
</svg>
