<svg width="297" height="116" viewBox="0 0 297 116" fill="none" xmlns="http://www.w3.org/2000/svg">
<path d="M8.28 16.08V33.36C8.28 35.2533 8.77333 36.7067 9.76 37.72C10.7467 38.7067 12.1333 39.2 13.92 39.2C15.7333 39.2 17.1333 38.7067 18.12 37.72C19.1067 36.7067 19.6 35.2533 19.6 33.36V16.08H25.24V33.32C25.24 35.6933 24.72 37.7067 23.68 39.36C22.6667 40.9867 21.2933 42.2133 19.56 43.04C17.8533 43.8667 15.9467 44.28 13.84 44.28C11.76 44.28 9.86667 43.8667 8.16 43.04C6.48 42.2133 5.14667 40.9867 4.16 39.36C3.17333 37.7067 2.68 35.6933 2.68 33.32V16.08H8.28ZM47.3706 44L41.3306 34.6L35.8506 44H29.5306L38.3306 29.92L29.4106 16.08H35.8506L41.8906 25.44L47.3306 16.08H53.6506L44.8906 30.12L53.8106 44H47.3706ZM66.2438 30C66.2438 27.2533 66.8571 24.8 68.0838 22.64C69.3371 20.4533 71.0304 18.76 73.1638 17.56C75.3238 16.3333 77.7371 15.72 80.4038 15.72C83.5238 15.72 86.2571 16.52 88.6038 18.12C90.9504 19.72 92.5904 21.9333 93.5238 24.76H87.0838C86.4438 23.4267 85.5371 22.4267 84.3638 21.76C83.2171 21.0933 81.8838 20.76 80.3638 20.76C78.7371 20.76 77.2838 21.1467 76.0038 21.92C74.7504 22.6667 73.7638 23.7333 73.0438 25.12C72.3504 26.5067 72.0038 28.1333 72.0038 30C72.0038 31.84 72.3504 33.4667 73.0438 34.88C73.7638 36.2667 74.7504 37.3467 76.0038 38.12C77.2838 38.8667 78.7371 39.24 80.3638 39.24C81.8838 39.24 83.2171 38.9067 84.3638 38.24C85.5371 37.5467 86.4438 36.5333 87.0838 35.2H93.5238C92.5904 38.0533 90.9504 40.28 88.6038 41.88C86.2838 43.4533 83.5504 44.24 80.4038 44.24C77.7371 44.24 75.3238 43.64 73.1638 42.44C71.0304 41.2133 69.3371 39.52 68.0838 37.36C66.8571 35.2 66.2438 32.7467 66.2438 30ZM96.8669 32.84C96.8669 30.6 97.3069 28.6133 98.1869 26.88C99.0935 25.1467 100.307 23.8133 101.827 22.88C103.374 21.9467 105.094 21.48 106.987 21.48C108.64 21.48 110.08 21.8133 111.307 22.48C112.56 23.1467 113.56 23.9867 114.307 25V21.84H119.947V44H114.307V40.76C113.587 41.8 112.587 42.6667 111.307 43.36C110.054 44.0267 108.6 44.36 106.947 44.36C105.08 44.36 103.374 43.88 101.827 42.92C100.307 41.96 99.0935 40.6133 98.1869 38.88C97.3069 37.12 96.8669 35.1067 96.8669 32.84ZM114.307 32.92C114.307 31.56 114.04 30.4 113.507 29.44C112.974 28.4533 112.254 27.7067 111.347 27.2C110.44 26.6667 109.467 26.4 108.427 26.4C107.387 26.4 106.427 26.6533 105.547 27.16C104.667 27.6667 103.947 28.4133 103.387 29.4C102.854 30.36 102.587 31.5067 102.587 32.84C102.587 34.1733 102.854 35.3467 103.387 36.36C103.947 37.3467 104.667 38.1067 105.547 38.64C106.454 39.1733 107.414 39.44 108.427 39.44C109.467 39.44 110.44 39.1867 111.347 38.68C112.254 38.1467 112.974 37.4 113.507 36.44C114.04 35.4533 114.307 34.28 114.307 32.92ZM133.896 44.36C132.083 44.36 130.456 44.04 129.016 43.4C127.576 42.7333 126.43 41.84 125.576 40.72C124.75 39.6 124.296 38.36 124.216 37H129.856C129.963 37.8533 130.376 38.56 131.096 39.12C131.843 39.68 132.763 39.96 133.856 39.96C134.923 39.96 135.75 39.7467 136.336 39.32C136.95 38.8933 137.256 38.3467 137.256 37.68C137.256 36.96 136.883 36.4267 136.136 36.08C135.416 35.7067 134.256 35.3067 132.656 34.88C131.003 34.48 129.643 34.0667 128.576 33.64C127.536 33.2133 126.63 32.56 125.856 31.68C125.11 30.8 124.736 29.6133 124.736 28.12C124.736 26.8933 125.083 25.7733 125.776 24.76C126.496 23.7467 127.51 22.9467 128.816 22.36C130.15 21.7733 131.71 21.48 133.496 21.48C136.136 21.48 138.243 22.1467 139.816 23.48C141.39 24.7867 142.256 26.56 142.416 28.8H137.056C136.976 27.92 136.603 27.2267 135.936 26.72C135.296 26.1867 134.43 25.92 133.336 25.92C132.323 25.92 131.536 26.1067 130.976 26.48C130.443 26.8533 130.176 27.3733 130.176 28.04C130.176 28.7867 130.55 29.36 131.296 29.76C132.043 30.1333 133.203 30.52 134.776 30.92C136.376 31.32 137.696 31.7333 138.736 32.16C139.776 32.5867 140.67 33.2533 141.416 34.16C142.19 35.04 142.59 36.2133 142.616 37.68C142.616 38.96 142.256 40.1067 141.536 41.12C140.843 42.1333 139.83 42.9333 138.496 43.52C137.19 44.08 135.656 44.36 133.896 44.36ZM167.813 32.44C167.813 33.24 167.76 33.96 167.653 34.6H151.453C151.586 36.2 152.146 37.4533 153.133 38.36C154.12 39.2667 155.333 39.72 156.773 39.72C158.853 39.72 160.333 38.8267 161.213 37.04H167.253C166.613 39.1733 165.386 40.9333 163.573 42.32C161.76 43.68 159.533 44.36 156.893 44.36C154.76 44.36 152.84 43.8933 151.133 42.96C149.453 42 148.133 40.6533 147.173 38.92C146.24 37.1867 145.773 35.1867 145.773 32.92C145.773 30.6267 146.24 28.6133 147.173 26.88C148.106 25.1467 149.413 23.8133 151.093 22.88C152.773 21.9467 154.706 21.48 156.893 21.48C159 21.48 160.88 21.9333 162.533 22.84C164.213 23.7467 165.506 25.04 166.413 26.72C167.346 28.3733 167.813 30.28 167.813 32.44ZM162.013 30.84C161.986 29.4 161.466 28.2533 160.453 27.4C159.44 26.52 158.2 26.08 156.733 26.08C155.346 26.08 154.173 26.5067 153.213 27.36C152.28 28.1867 151.706 29.3467 151.493 30.84H162.013ZM191.072 44.28C189.125 44.28 187.365 43.9467 185.792 43.28C184.245 42.6133 183.019 41.6533 182.112 40.4C181.205 39.1467 180.739 37.6667 180.712 35.96H186.712C186.792 37.1067 187.192 38.0133 187.912 38.68C188.659 39.3467 189.672 39.68 190.952 39.68C192.259 39.68 193.285 39.3733 194.032 38.76C194.779 38.12 195.152 37.2933 195.152 36.28C195.152 35.4533 194.899 34.7733 194.392 34.24C193.885 33.7067 193.245 33.2933 192.472 33C191.725 32.68 190.685 32.3333 189.352 31.96C187.539 31.4267 186.059 30.9067 184.912 30.4C183.792 29.8667 182.819 29.08 181.992 28.04C181.192 26.9733 180.792 25.56 180.792 23.8C180.792 22.1467 181.205 20.7067 182.032 19.48C182.859 18.2533 184.019 17.32 185.512 16.68C187.005 16.0133 188.712 15.68 190.632 15.68C193.512 15.68 195.845 16.3867 197.632 17.8C199.445 19.1867 200.445 21.1333 200.632 23.64H194.472C194.419 22.68 194.005 21.8933 193.232 21.28C192.485 20.64 191.485 20.32 190.232 20.32C189.139 20.32 188.259 20.6 187.592 21.16C186.952 21.72 186.632 22.5333 186.632 23.6C186.632 24.3467 186.872 24.9733 187.352 25.48C187.859 25.96 188.472 26.36 189.192 26.68C189.939 26.9733 190.979 27.32 192.312 27.72C194.125 28.2533 195.605 28.7867 196.752 29.32C197.899 29.8533 198.885 30.6533 199.712 31.72C200.539 32.7867 200.952 34.1867 200.952 35.92C200.952 37.4133 200.565 38.8 199.792 40.08C199.019 41.36 197.885 42.3867 196.392 43.16C194.899 43.9067 193.125 44.28 191.072 44.28ZM212.327 26.44V37.16C212.327 37.9067 212.5 38.4533 212.847 38.8C213.22 39.12 213.834 39.28 214.687 39.28H217.287V44H213.767C209.047 44 206.687 41.7067 206.687 37.12V26.44H204.047V21.84H206.687V16.36H212.327V21.84H217.287V26.44H212.327ZM242.235 21.84V44H236.595V41.2C235.875 42.16 234.928 42.92 233.755 43.48C232.608 44.0133 231.355 44.28 229.995 44.28C228.261 44.28 226.728 43.92 225.395 43.2C224.061 42.4533 223.008 41.3733 222.235 39.96C221.488 38.52 221.115 36.8133 221.115 34.84V21.84H226.715V34.04C226.715 35.8 227.155 37.16 228.035 38.12C228.915 39.0533 230.115 39.52 231.635 39.52C233.181 39.52 234.395 39.0533 235.275 38.12C236.155 37.16 236.595 35.8 236.595 34.04V21.84H242.235ZM246.32 32.84C246.32 30.6 246.76 28.6133 247.64 26.88C248.547 25.1467 249.773 23.8133 251.32 22.88C252.867 21.9467 254.587 21.48 256.48 21.48C257.92 21.48 259.293 21.8 260.6 22.44C261.907 23.0533 262.947 23.88 263.72 24.92V14.4H269.4V44H263.72V40.72C263.027 41.8133 262.053 42.6933 260.8 43.36C259.547 44.0267 258.093 44.36 256.44 44.36C254.573 44.36 252.867 43.88 251.32 42.92C249.773 41.96 248.547 40.6133 247.64 38.88C246.76 37.12 246.32 35.1067 246.32 32.84ZM263.76 32.92C263.76 31.56 263.493 30.4 262.96 29.44C262.427 28.4533 261.707 27.7067 260.8 27.2C259.893 26.6667 258.92 26.4 257.88 26.4C256.84 26.4 255.88 26.6533 255 27.16C254.12 27.6667 253.4 28.4133 252.84 29.4C252.307 30.36 252.04 31.5067 252.04 32.84C252.04 34.1733 252.307 35.3467 252.84 36.36C253.4 37.3467 254.12 38.1067 255 38.64C255.907 39.1733 256.867 39.44 257.88 39.44C258.92 39.44 259.893 39.1867 260.8 38.68C261.707 38.1467 262.427 37.4 262.96 36.44C263.493 35.4533 263.76 34.28 263.76 32.92ZM296.069 21.84L282.349 54.48H276.389L281.189 43.44L272.309 21.84H278.589L284.309 37.32L290.109 21.84H296.069Z" fill="#004C99"/>
<path fill-rule="evenodd" clip-rule="evenodd" d="M109.924 84.9652C108.135 85.3439 106.357 85.7404 104.591 86.1561C103.948 86.3073 103.58 86.8294 103.767 87.3218L103.776 87.3411C94.1147 87.9028 84.4593 88.5354 74.8127 89.2407C60.8774 90.2599 46.8683 91.538 33.0161 93.1695C19.3268 94.7818 15.5438 95.2082 3.81267 97.405C3.47719 97.4677 2.82454 97.494 2.47785 97.5852C2.14816 97.6719 1.91639 97.8077 1.76996 97.9369C1.58231 98.1009 1.47952 98.2846 1.44285 98.4823C1.40442 98.6977 1.43445 98.9574 1.68875 99.2376C2.4059 100.024 3.50238 100.2 4.81413 99.9683C5.94278 99.7691 7.2874 99.1822 8.36115 99.074C26.2362 97.2731 44.0928 95.364 61.9708 93.583C89.3401 90.8566 116.672 88.9248 144.023 87.2764C172.816 86.181 201.629 85.6933 230.424 85.768C249.178 85.816 267.917 86.2955 286.662 86.6095C286.652 86.6734 286.653 86.7395 286.661 86.8067C286.731 87.318 287.329 87.6832 287.995 87.6221C288.668 87.5601 294.69 87.1577 295.79 86.897C296.42 86.7477 296.651 86.4341 296.726 86.3008C296.93 85.9356 296.921 85.5491 296.4 85.2033C296.298 85.137 296.107 85.0286 295.764 84.9693C295.471 84.9169 294.749 84.8664 293.442 84.8487C272.451 84.551 251.468 83.9568 230.467 83.9014C221.091 83.8781 211.713 83.9128 202.331 84.0107C215.033 83.3138 227.738 82.5995 240.459 81.8173C241.007 81.7849 241.269 81.7044 241.318 81.686C242.003 81.4224 242.027 80.9951 242 80.7549C241.992 80.669 241.857 79.9636 240.826 79.91C240.222 79.8784 235.878 79.9591 234.206 79.9658C226.168 79.9928 226.358 80.0368 218.139 80.1175C200.065 80.297 182.029 80.6862 163.95 81.1579C156.742 81.3462 149.536 81.5608 142.329 81.8045C163.007 79.5136 184.195 78.6187 204.375 77.5456C214.785 76.9921 225.2 76.4885 235.621 76.1246C240.288 75.9618 244.958 75.8592 249.626 75.7143C251.076 75.6692 252.523 75.6503 253.973 75.6119C254.144 75.6072 256.391 75.5207 256.759 75.498C257.723 75.4385 257.907 74.7675 257.914 74.7406C257.948 74.6144 258.057 73.7177 256.851 73.6343C239.42 72.428 221.292 73.7071 203.782 74.1689C173.136 74.977 142.447 76.4758 111.876 78.5809C98.3544 79.5119 84.8962 80.7924 71.4132 82.0706C64.6794 82.7091 57.9288 83.3683 51.287 84.4873C50.6207 84.5997 49.1048 84.7525 48.3726 84.8832C48.0002 84.9498 47.7374 85.0404 47.618 85.0995C47.0949 85.3563 47.0077 85.7035 47.0129 85.9439C47.0178 86.1241 47.1036 86.7553 48.2197 86.8993C64.1668 88.9598 81.5862 86.3908 97.6135 85.5667C101.716 85.3557 105.818 85.1555 109.924 84.9652ZM123.295 84.3818C118.571 85.1544 113.9 86.0296 109.303 87.0279C120.839 86.3898 132.381 85.8526 143.934 85.4133C162.968 84.2662 182.01 83.256 201.073 82.2111C188.72 82.4155 176.368 82.6997 163.998 83.0227C150.429 83.3767 136.86 83.8253 123.295 84.3818ZM189.023 76.4774C163.346 77.3388 137.661 78.676 112.06 80.4389C98.5621 81.3684 85.1324 82.6466 71.6756 83.9223C66.3806 84.4243 61.0717 84.9381 55.8177 85.6842C69.5415 86.3651 84.011 84.398 97.4867 83.7052C105.997 83.2676 114.515 82.8753 123.032 82.5256C144.539 79.0269 167.135 77.6304 189.023 76.4774Z" fill="#004C99"/>
</svg>
