<svg xmlns="http://www.w3.org/2000/svg" width="163" height="126" fill="none" viewBox="0 0 163 126"><path fill="#3f9896" d="M93.534 26.84s1.699-6.902 10.589-8.026c0 0-3.045 10.182-10.589 8.026"/><path fill="#7fc6a6" d="M91.762 29.675s-7.324-9.806.897-22.873c0 0 10.215 15.183-.898 22.873"/><path fill="#feefdc" d="M35.128 126c-11.39-.279-21.85-6.083-27.584-15.392C2.956 103.157-.62 92.421.09 77.284c1.8-38.337 36.674-64.743 58.467-66.01 26.586-1.546 20.565 13.945 49.789 16.485 13.663 1.187 30.955 7.514 41.901 27.144 6.724 12.057 12.13 28.18-.94 53.587-5.514 10.717-17.026 17.51-29.632 17.51z"/><path fill="#fecc86" d="M38.688 86.793a5.8 5.8 0 0 0-1.744-.719l-.284-1.52-1.057.002-1.057.003-.277 1.522a5.8 5.8 0 0 0-1.74.727l-1.276-.875-.746.75-.745.75.88 1.272a5.8 5.8 0 0 0-.718 1.746l-1.52.284.003 1.058.003 1.057 1.521.277c.144.608.386 1.196.726 1.742l-.873 1.276.749.746.75.746 1.27-.881a5.8 5.8 0 0 0 1.745.718l.284 1.52 1.057-.002 1.057-.003.277-1.522a5.8 5.8 0 0 0 1.74-.727l1.276.875.746-.75.745-.75-.88-1.271a5.8 5.8 0 0 0 .718-1.746l1.52-.284-.003-1.058-.003-1.058-1.521-.276a5.8 5.8 0 0 0-.727-1.742l.874-1.276-.749-.746-.75-.746zm-.255 7.78a3.965 3.965 0 0 1-5.61.014 3.97 3.97 0 0 1-.014-5.612 3.965 3.965 0 0 1 5.61-.014 3.97 3.97 0 0 1 .014 5.612"/><path fill="#fff" d="M8.058 62.513h22.946c.733 0 1.327.594 1.327 1.328v11.12c0 .734-.594 1.328-1.327 1.328h-1.955l.89 2.433-3.516-2.433H8.058a1.327 1.327 0 0 1-1.327-1.328v-11.12c0-.734.594-1.328 1.327-1.328"/><path fill="#b1e8fc" d="M9.14 71.19h21.347a.268.268 0 0 0 0-.535H9.141a.268.268 0 0 0 0 .535M16.616 65.11h13.87a.268.268 0 0 0 0-.535h-13.87a.268.268 0 0 0 0 .535M24.49 74.229h5.997a.268.268 0 0 0 0-.536H24.49a.268.268 0 0 0 0 .536M9.14 74.229h13.474a.268.268 0 0 0 0-.536H9.141a.268.268 0 0 0 0 .536M8.985 65.11h5.535a.268.268 0 0 0 0-.535H8.985a.268.268 0 0 0 0 .535M21.766 68.15h8.718a.268.268 0 0 0 0-.536h-8.719a.268.268 0 0 0 0 .535M8.985 68.15h10.832a.268.268 0 0 0 0-.536H8.985a.268.268 0 0 0 0 .535"/><path fill="#aac9f8" d="M11.074 28.814h19.479c.622 0 1.126.505 1.126 1.128v9.44c0 .622-.504 1.127-1.126 1.127h-1.66l.757 2.065-2.986-2.065h-15.59a1.127 1.127 0 0 1-1.127-1.127v-9.44c0-.623.505-1.128 1.127-1.128"/><path fill="#fff" d="M11.988 36.178h18.12a.227.227 0 1 0 0-.454h-18.12a.227.227 0 1 0 0 .454M18.325 31.018H30.1a.227.227 0 1 0 0-.455H18.325a.227.227 0 0 0 0 .455M25.017 38.76h5.091a.227.227 0 1 0 0-.455h-5.09a.227.227 0 1 0 0 .454M11.988 38.76h11.438a.227.227 0 1 0 0-.455H11.988a.227.227 0 1 0 0 .455M11.843 31.017h4.698a.227.227 0 1 0 0-.454h-4.698a.227.227 0 1 0 0 .454M22.702 33.599h7.401a.227.227 0 1 0 0-.454h-7.4a.227.227 0 1 0 0 .454M11.843 33.599h9.195a.227.227 0 0 0 0-.454h-9.195a.227.227 0 1 0 0 .454"/><path fill="#aac9f8" d="M120.714 23.367h-17.239a1 1 0 0 0-.997.997v8.354c0 .551.447.998.997.998h1.468l-.669 1.828 2.642-1.828h13.798c.55 0 .997-.447.997-.998v-8.354a1 1 0 0 0-.997-.998"/><path fill="#fff" d="M119.899 29.884h-16.037a.201.201 0 0 1 0-.402h16.037a.201.201 0 0 1 0 .402M114.282 25.317h-10.42a.201.201 0 0 1 0-.402h10.42a.201.201 0 0 1 0 .402M108.367 32.168h-4.505a.201.201 0 1 1 0-.402h4.505a.201.201 0 0 1 0 .402M119.902 32.167h-10.123a.201.201 0 0 1 0-.402h10.123a.201.201 0 0 1 0 .402M120.022 25.317h-4.158a.201.201 0 0 1 0-.402h4.158a.201.201 0 0 1 0 .402M110.412 27.6h-6.55a.201.201 0 0 1 0-.402h6.55a.201.201 0 1 1 0 .402M120.017 27.6h-8.138a.201.201 0 0 1 0-.402h8.138a.201.201 0 1 1 0 .402"/><path fill="#fecc86" d="M52.15 114.218c9.846 0 17.827-.547 17.827-1.223s-7.981-1.223-17.827-1.223c-9.845 0-17.826.547-17.826 1.223s7.981 1.223 17.826 1.223M108.346 114.218c9.845 0 17.827-.547 17.827-1.223s-7.982-1.223-17.827-1.223-17.827.547-17.827 1.223 7.982 1.223 17.827 1.223" opacity=".5"/><path fill="#5780bc" d="m64.632 44.485-25.476-2.803c-1.795-.185-3.266 1.268-3.266 3.03v58.704c0 1.762 1.47 3.2 3.266 3.015l25.476-2.788c1.498-.154 2.701-1.564 2.701-3.15V47.634c0-1.586-1.203-2.995-2.7-3.15m1.595 55.6c0 .865-.657 1.63-1.472 1.708l-25.744 2.489c-.974.094-1.038-.601-1.038-1.554V44.869c0-1.063.155-1.837 1.24-1.73l25.37 2.512c.91.09 1.644.945 1.644 1.91z"/><path fill="#d8ecfe" d="M67.658 46.955q0-.027-.003-.052c-.032-.588-.47-1.098-1.02-1.187l-.049-.008-.016-.002-26.587-2.631-.019-.002q-.03 0-.059-.003c-.66-.027-1.188.435-1.227 1.075l-.003.057-.002.019v59.118c0 .616.514 1.064 1.143 1.003l8.475-.819.086-.009.021-.001 6.288-.608.037-.004.056-.005.054-.005 6.138-.594.035-.003.073-.007 5.631-.544c.525-.051.948-.544.948-1.103V46.955m-28.964.39V45.56l1.902.172q.084.045.179.054a.4.4 0 0 0 .178-.021l.984.089a.45.45 0 0 0 .354.032l.976.089a.5.5 0 0 0 .175.053.4.4 0 0 0 .176-.022l19.196 1.74v.036l2.923.264v-.034l1.912.173v1.622z"/><path fill="#49263e" d="m65 101.908-.054.005.02.072.06-.013z"/><path fill="#273359" d="m66.552 45.704-26.55-2.628c-.733-.072-1.33.448-1.33 1.163v3.105l.02.002 28.955 2.46.01.001V46.99c0-.65-.494-1.224-1.105-1.285"/><path fill="#fff" d="M41.208 45.402a.38.38 0 0 1-.256.363.4.4 0 0 1-.178.022.5.5 0 0 1-.178-.054.47.47 0 0 1-.258-.411c0-.235.196-.407.436-.385s.434.23.434.465M42.54 45.525c0 .171-.104.31-.254.362a.4.4 0 0 1-.176.021.472.472 0 0 1-.432-.463c0-.234.193-.405.432-.383.238.022.43.23.43.463M43.869 45.646c0 .171-.103.309-.252.36a.4.4 0 0 1-.175.022.47.47 0 0 1-.428-.46.38.38 0 0 1 .428-.382.475.475 0 0 1 .427.46M62.666 46.953v1.094l2.935.115v-.34l.152.006v-.484l-.152-.006v-.282zm2.833 1.115-2.734-.106v-.916l2.734.097z"/><path fill="#fff" d="m62.93 47.82.288.01v-.626l-.288-.01zM63.406 47.84l.289.01v-.628l-.29-.01zM63.907 47.857l.29.011v-.629l-.29-.01z"/><path fill="#5780bc" d="m36.233 56.56-.691-.038V51.02l.691.05zM36.233 63.188l-.691-.024V57.66l.691.036zM37.318 44.711v58.706c0 1.761 1.471 3.037 3.266 2.852l6.44-.664.205-.021 18.466-1.903.03-.003.336-.035c1.498-.155 2.7-1.563 2.7-3.149v-52.86c0-1.586-1.202-2.995-2.7-3.15L40.584 41.86c-1.795-.185-3.266 1.09-3.266 2.852m1.353.159c0-1.064.886-1.837 1.97-1.73l25.371 2.511c.91.09 1.644.945 1.644 1.91v52.524c0 .865-.658 1.63-1.472 1.708l-.49.047-.03.004-.557.053-.107.01.025.065-.06.012-.02-.071-20.458 1.978-.374.036-2.818.272-.856.083c-.974.094-1.768-.602-1.768-1.554z"/><path fill="#49263e" d="m65.052 102.026-.033-.12-.096.009.014.115z"/><path fill="#5780bc" d="m65.829 101.828-21.341 2.063v1.976l21.737-2.246z"/><path fill="#feefdc" d="M28.278 106.735c.184-.453.289-.925.317-1.399l1.102-.405-.136-.792-.136-.792-1.174-.014a4.4 4.4 0 0 0-.765-1.213l.493-1.067-.656-.463-.655-.464-.841.821a4.4 4.4 0 0 0-1.398-.317l-.405-1.103-.791.136-.792.136-.014 1.175a4.4 4.4 0 0 0-1.212.765l-1.066-.493-.464.656-.463.657.82.841a4.4 4.4 0 0 0-.316 1.398l-1.103.405.136.792.136.792 1.175.015c.184.437.44.847.764 1.212l-.493 1.067.656.464.656.464.84-.821a4.4 4.4 0 0 0 1.398.316l.405 1.103.792-.136.791-.136.014-1.175a4.4 4.4 0 0 0 1.212-.765l1.067.493.463-.656.464-.656zm-5.857.794a3.016 3.016 0 0 1-.721-4.202 3.01 3.01 0 0 1 4.2-.722 3.016 3.016 0 0 1 .72 4.202 3.01 3.01 0 0 1-4.199.722"/><path fill="#fecc86" d="M63.514 16.958C63.67 11.533 59.4 7.01 53.98 6.855c-5.42-.155-9.941 4.117-10.096 9.541a9.8 9.8 0 0 0 2.635 6.983s2.88 3.264 3.784 6.758c0 0 1.698.631 2.992.7 1.295.006 3.027-.528 3.027-.528 1.102-3.436 4.163-6.53 4.163-6.53a9.8 9.8 0 0 0 3.03-6.821"/><path fill="#4cb7d8" d="M53.144 35.996a1.527 1.527 0 0 1-1.482-1.57l3.051.087a1.527 1.527 0 0 1-1.569 1.483"/><path fill="#4cb7d8" d="M53.182 34.886a3.274 3.274 0 0 1-3.179-3.368l.062-2.172 6.544.188-.062 2.172a3.274 3.274 0 0 1-3.365 3.18"/><path fill="#fecc86" d="M63.514 16.958a9.8 9.8 0 0 0-1.483-5.482c-3.073 6.996-7.788 11.626-14.436 13.284.8 1.114 1.854 2.787 2.468 4.586l6.54.187c1.267-3.112 3.88-5.754 3.88-5.754a9.8 9.8 0 0 0 3.03-6.821" opacity=".3"/><path fill="#f99247" d="m54.931 29.524-.278-.085a96 96 0 0 0 1.755-6.806c1.273-5.954.675-7.242.206-7.48-.48-.242-.863-.212-1.14.09q-.03.034-.058.07c.674.424.823 1.051.855 1.304.089.698-.242 1.383-.737 1.527-.12.034-.349.047-.538-.257-.3-.484-.364-1.675.01-2.456-.334-.148-.742-.233-1.213-.247l-.283-.008c-.47-.013-.884.048-1.225.177.329.802.197 1.986-.13 2.452-.207.293-.435.268-.553.226-.486-.172-.777-.874-.648-1.566.047-.25.23-.868.928-1.253a1 1 0 0 0-.054-.073c-.259-.318-.64-.37-1.133-.155-.482.21-1.152 1.462-.221 7.48a96 96 0 0 0 1.363 6.895l-.283.069c-.008-.034-.83-3.439-1.368-6.919-.743-4.803-.615-7.352.392-7.792.782-.34 1.234-.059 1.476.238q.051.062.095.132c.347-.136.794-.219 1.37-.202l.282.008c.575.016 1.017.124 1.356.28q.048-.067.102-.127c.258-.282.726-.537 1.487-.152.98.496.963 3.048-.053 7.801a96 96 0 0 1-1.762 6.83m-2.911-14.05c-.421.23-.694.586-.78 1.044-.112.604.147 1.128.46 1.238.028.01.106.038.216-.119.28-.399.382-1.47.104-2.163m3.244.092c-.318.676-.277 1.752-.02 2.167.1.162.18.14.21.13.317-.092.605-.6.528-1.21-.06-.462-.311-.833-.718-1.086"/><path fill="#21111d" d="M50.009 29.412a6 6 0 0 0-.177-.49l-.04-.1c-1.143-2.899-3.308-5.37-3.33-5.395l-.006-.008a9.84 9.84 0 0 1-2.647-7.026c.156-5.456 4.719-9.768 10.171-9.612a9.87 9.87 0 0 1 8.151 4.719l-.124.076a9.73 9.73 0 0 0-8.03-4.649c-5.373-.154-9.869 4.095-10.022 9.47a9.7 9.7 0 0 0 2.616 6.932l.092.099-.007.001c.414.49 2.248 2.745 3.272 5.34l.04.099c.072.185.106.27.18.5z"/><path fill="#21111d" d="m46.968 11.947-.139-.044c.008-.024.803-2.421 3.27-3.26l.047.138c-2.396.815-3.17 3.143-3.178 3.166M47.395 12.834l-.138-.045c.007-.024.802-2.421 3.27-3.26l.047.138c-2.397.815-3.171 3.143-3.179 3.167M53.535 34.969l-.713-.02a2.994 2.994 0 0 1-2.903-3.076l.074-2.602 6.617.19-.004.146-6.471-.186-.07 2.456a2.85 2.85 0 0 0 2.76 2.926l.714.02a2.83 2.83 0 0 0 2.017-.76l.099.107a2.97 2.97 0 0 1-2.12.799"/><path fill="#21111d" d="M53.182 36.07c-1.418-.041-1.584-1.424-1.585-1.438l.145-.016c.006.053.16 1.3 1.492 1.308l-.001.146zM60.279 22.369l-.084-.12c1.323-.924 1.573-2.524 1.575-2.54l.144.02c-.002.017-.26 1.678-1.636 2.64M60.012 21.66l-.083-.119c.964-.674 1.147-1.84 1.148-1.852l.145.02c-.008.051-.193 1.24-1.21 1.952M49.724 30.647l.002-.145c.056 0 5.576.087 7.342-.515l.047.138c-1.79.61-7.163.526-7.391.522M49.691 31.877l.002-.145c.06 0 6.052.053 7.188-.515l.065.13c-1.167.584-7.007.533-7.255.53M49.956 33.148l.003-.146c.054.001 5.429.098 6.89-.605l.063.132c-1.492.718-6.734.623-6.956.619"/><path fill="#f99247" d="M41.42 14.78h-.018l-3.465-.396a.219.219 0 0 1 .05-.434l3.464.395a.218.218 0 0 1-.03.436M43.387 9.292a.2.2 0 0 1-.122-.041l-2.821-2.053a.219.219 0 0 1 .257-.353l2.82 2.052a.219.219 0 0 1-.134.395M48.695 5.47a.22.22 0 0 1-.198-.142l-1.22-3.269a.219.219 0 1 1 .41-.153l1.22 3.27a.22.22 0 0 1-.212.295M65.874 16.11a.219.219 0 0 1-.001-.438l3.485-.13a.22.22 0 0 1 .016.437l-3.485.13zM64.34 10.489a.218.218 0 0 1-.109-.405L67.2 8.253a.218.218 0 1 1 .229.372l-2.969 1.832a.2.2 0 0 1-.12.032M60.02 5.78a.219.219 0 0 1-.192-.31l1.465-3.167a.219.219 0 0 1 .397.183l-1.465 3.168a.22.22 0 0 1-.205.126M54.464 3.924h-.003a.22.22 0 0 1-.21-.229L54.406.21A.22.22 0 0 1 54.63 0h.003c.121.006.215.108.21.228l-.154 3.487a.22.22 0 0 1-.225.209"/><path fill="#f3fffe" d="M60.428 12.13c-.36.524-1.539.339-2.635-.413S56.1 9.93 56.46 9.407s1.538-.339 2.634.413 1.693 1.786 1.335 2.31" opacity=".5"/><path fill="#fdba68" d="M80.944 29.783a5.75 5.75 0 0 0-5.746 5.75 5.75 5.75 0 0 0 5.746 5.75 5.75 5.75 0 0 0 5.747-5.75 5.75 5.75 0 0 0-5.747-5.75m0 11.059a5.307 5.307 0 0 1-5.306-5.31 5.307 5.307 0 0 1 5.306-5.308 5.307 5.307 0 0 1 5.306 5.309 5.307 5.307 0 0 1-5.306 5.309"/><path fill="#fff" d="M81.55 37.93a.457.457 0 0 1-.734 0l-3.155-4.258a.955.955 0 0 1 1.533-1.137l1.986 2.681 3.981-5.403a.954.954 0 1 1 1.536 1.133z"/><path fill="#fe9f73" d="m103.44 111.137 4.285.058.066-4.489-4.267-.585zM117.06 109.956l4.288-.854-.896-4.401-4.384.335z"/><path fill="#102e5b" d="M110.94 72.278c-.158 4.635-.848 22.769-2.306 34.633a1.57 1.57 0 0 1-1.566 1.37 12.3 12.3 0 0 1-3.477-.515 1.57 1.57 0 0 1-1.127-1.469l-.605-36.098a1.4 1.4 0 0 1 .018-.262l.028-.178c.152-.983 1.186-1.575 2.127-1.22l5.895 2.232a1.56 1.56 0 0 1 1.013 1.507"/><path fill="#133671" d="M116.287 70.183s.082 9.21 1.403 19.367c.734 5.64 2.827 11.496 3.167 16.408.045.651-.4 1.234-1.046 1.376-.914.201-2.324.39-3.972.2a1.33 1.33 0 0 1-1.145-1.008l-4.6-15.543-2.789-15.715-2.988-8.546z"/><path fill="#000" d="M114.551 106.03q.01 0 .019-.002a.067.067 0 0 0 .046-.083l-4.432-14.976-2.079-11.715a.07.07 0 0 0-.078-.055.066.066 0 0 0-.055.078l2.08 11.722.001.004 4.433 14.98a.07.07 0 0 0 .065.047M119.174 96.973l.015-.002a.067.067 0 0 0 .051-.08c-.507-2.163-1.24-6.413-1.633-8.753l-.026-.145h-.001q0-.045-.008-.136l-1.02-12.162a.067.067 0 0 0-.073-.061.067.067 0 0 0-.062.072c.01.121 1.02 12.15 1.031 12.298v.004l.008.065h.003l.015.087c.392 2.342 1.126 6.594 1.634 8.76.007.032.035.052.066.052M102.435 105.139h.001a.067.067 0 0 0 .067-.068l-.49-29.26a.066.066 0 0 0-.069-.066.067.067 0 0 0-.067.068l.49 29.26a.07.07 0 0 0 .068.066"/><path fill="#ef3a4c" d="m107.835 111.733-3.757.002-1.524-1.637-2.786 1.638h-.6a.44.44 0 0 0-.435.338.423.423 0 0 0 .42.505l8.736-.002a.116.116 0 0 0 .116-.115v-.561a.17.17 0 0 0-.17-.168"/><path fill="#49263e" d="m107.811 111.739-.001-1.522s-.633-.84-1.596-.411c0 0-1.457 1.021-2.742-.213l-3.19 1.397s-.874.288-1.111.751z"/><path fill="#000" d="M107.842 110.216h-.064v1.513h.064zM104.905 110.237c-.122 0-.196-.01-.198-.01l.009-.063c.008.001.761.105 1.477-.381l.036.052a2.4 2.4 0 0 1-1.324.402M107.04 111.455l-.035-.052.407-.271.036.052zM106.75 111.376l-.036-.052.407-.272.036.053z"/><path fill="#000" d="M98.845 112.505a.452.452 0 0 1 .297-.8l8.638-.002c.136 0 .247.109.247.243v.42h-.064v-.42a.18.18 0 0 0-.183-.18l-8.638.003a.393.393 0 0 0-.396.39c0 .115.051.223.14.297z"/><path fill="#000" d="m99.193 111.749-.058-.027c.007-.014.182-.368.835-.643.642-.27 3.464-1.506 3.492-1.518l.026.057a523 523 0 0 1-3.493 1.519c-.628.265-.8.609-.802.612"/><path fill="#ef3a4c" d="m121.541 109.377-3.611 1.026-1.923-1.156-2.218 2.334-.577.163c-.198.057-.342.241-.323.444a.427.427 0 0 0 .545.371l8.395-2.386a.114.114 0 0 0 .079-.142l-.157-.539a.17.17 0 0 0-.21-.115"/><path fill="#49263e" d="m121.518 109.389-.427-1.461s-.844-.635-1.65.04c0 0-1.114 1.378-2.695.543l-2.673 2.213s-.76.516-.857 1.025z"/><path fill="#000" d="M118.307 108.735a1.4 1.4 0 0 1-.193.044l-.008-.062c.007-.001.76-.107 1.312-.769l.049.04a2.36 2.36 0 0 1-1.16.747M113.151 112.574a.453.453 0 0 1 .062-.849l8.3-2.36a.247.247 0 0 1 .305.167l.118.404-.061.017-.118-.404a.184.184 0 0 0-.226-.123l-8.301 2.36a.39.39 0 0 0-.052.73z"/><path fill="#000" d="m113.245 111.758-.063-.01c.002-.017.071-.404.622-.847.54-.434 2.906-2.392 2.929-2.411l.042.048c-.024.02-2.39 1.977-2.931 2.412-.53.426-.599.804-.599.808"/><path fill="#fe9f73" d="M89.983 62.533c.024-.199-.002-.438-.097-.514l-1.327-1.717a.335.335 0 0 0-.504.42c.124.232.217.48.303.727l.209.596c-.153.018-.91.3-1.427.322v1.332l-.074-.011c.03.282.06.578.075.844.018.305-.067.57.182.728.145.09.9.09 1.169.07l1.945-.019c-.05-.533-.09-.835-.454-2.778M106.757 58.102s-2.158 4.678-3.123 5.597c-.966.918-12.252 1.642-12.252 1.642l-.298-3.48 9.081-2.08 2.381-4.505z"/><path fill="#f07162" d="M101.878 61.181a.14.14 0 0 1-.066-.024l-1.725-1.246a.134.134 0 0 1-.03-.187.134.134 0 0 1 .187-.03l1.725 1.245a.134.134 0 0 1-.091.242"/><path fill="#fe9f73" d="M86.598 63.48c.05.222.237.359.287.348l1.68-.37a.37.37 0 0 0 .293-.413.363.363 0 0 0-.437-.3l-1.723.38s-.15.134-.1.355"/><path fill="#fe9f73" d="M86.748 64.179c.045.222.23.363.28.353l1.687-.338a.37.37 0 0 0 .3-.407.363.363 0 0 0-.43-.308l-1.73.347s-.152.13-.107.353"/><path fill="#fe9f73" d="M86.964 64.814c.04.208.21.34.257.332l1.575-.296a.346.346 0 0 0 .284-.375.34.34 0 0 0-.398-.293l-1.615.305s-.143.12-.103.327"/><path fill="#f07162" d="M86.878 63.89a.068.068 0 0 1-.015-.135l1.68-.365a.3.3 0 0 0 .24-.334.293.293 0 0 0-.354-.244l-1.536.339a.068.068 0 1 1-.03-.133l1.536-.34a.433.433 0 0 1 .52.357.44.44 0 0 1-.346.489l-1.68.364z"/><path fill="#fe9f73" d="M86.598 62.749c.047.21.225.342.273.331l1.603-.353c.18-.04.308-.21.28-.393a.346.346 0 0 0-.417-.287l-1.644.363s-.142.128-.095.339"/><path fill="#f07162" d="M86.869 63.14a.065.065 0 0 1-.014-.129l1.603-.348a.29.29 0 0 0 .229-.319.28.28 0 0 0-.339-.233l-1.465.324a.065.065 0 0 1-.028-.127l1.465-.324a.413.413 0 0 1 .496.34.42.42 0 0 1-.33.467l-1.604.347zM87.08 64.552a.068.068 0 0 1-.013-.136l1.649-.306c.16-.032.257-.161.237-.314a.29.29 0 0 0-.35-.25l-1.73.346a.068.068 0 1 1-.027-.134l1.73-.346a.43.43 0 0 1 .512.366.415.415 0 0 1-.347.466l-1.65.307z"/><path fill="#f07162" d="M87.226 65.214a.068.068 0 0 1-.013-.135l1.575-.297a.277.277 0 0 0 .23-.3.27.27 0 0 0-.11-.185.27.27 0 0 0-.209-.048l-1.615.304a.068.068 0 1 1-.025-.134l1.615-.304a.41.41 0 0 1 .479.351.413.413 0 0 1-.34.45l-1.575.297z"/><path fill="#fe9f73" d="M89.207 61.596s.878.389 1.12.374 1.243-.22 1.243-.22l.488 3.546s-.744.088-2.034.02-.817-3.72-.817-3.72"/><path fill="#7fc6a6" d="M109.225 50.402s-6.044-2.36-7.43-.225c-1.385 2.135-3.675 7.959-3.64 8.11.376 1.638 2.359 3.398 3.574 4.046 1.134.605 1.489.186 2.234-.727 1.273-1.562 1.83-8.432 1.848-8.378.016.05 3.414-2.826 3.414-2.826"/><path fill="#7fc6a6" d="M116.376 50.491c.446.633.976 2.429 1.644 4.358.885 2.558 1.873 5.291 1.873 5.291s.152.772-3.466 1.11l.242 12.343s-6.954 2.373-15.126-.027c0 0-.364-21.92.761-23.627s12.187-2.122 14.072.552"/><path fill="#fe9f73" d="m106.862 42.715-.093 3.55s-.078 1.141.917 1.31l-.226 1.518c-.085.564.24 1.115.778 1.302.264.09.58.16.939.17 1.141.03 1.782-.81 1.888-1.235s-.125-2.479-.125-2.479l.061-1.004-.028-3.897z"/><path fill="#f07162" d="M110.051 46.669s-.117 1.909-2.506 2.029l.167-1.12s1.538.351 2.339-.91"/><path fill="#000" d="M109.57 44.653a.05.05 0 0 0 .033-.013.047.047 0 0 0 .003-.067c-.006-.007-.642-.693-1.252-.227a.047.047 0 0 0 .057.076c.541-.413 1.102.19 1.125.215q.014.015.034.016M111.231 44.193l-1.031.187-.191.187s.134-1.718.336-2.052c.202-.333.886 1.678.886 1.678M107.618 44.316a.048.048 0 0 0 .033-.083c-.019-.017-.462-.417-.755-.179a.047.047 0 0 0-.007.067c.016.02.046.024.066.007.23-.187.628.172.632.175q.014.012.031.013M108.625 44.817a.143.143 0 1 0 .285.007.143.143 0 0 0-.285-.008M107.109 44.636a.143.143 0 0 0 .286.008.143.143 0 0 0-.139-.146.144.144 0 0 0-.147.138"/><path fill="#fe9f73" d="M109.796 44.797a.857.857 0 1 0 1.713.045.857.857 0 0 0-1.713-.045"/><path fill="#f07162" d="M110.793 45.301c.178.005.3-.126.343-.258.05-.157.001-.312-.125-.395a.4.4 0 0 0-.45.004.38.38 0 0 1 .178-.206c.171-.089.379-.015.381-.015a.023.023 0 0 0 .03-.014.023.023 0 0 0-.014-.03c-.009-.004-.228-.081-.418.016a.46.46 0 0 0-.227.306l-.023.083.062-.059c.009-.008.218-.2.455-.045.131.086.139.237.105.34-.034.107-.132.23-.296.226h-.005c-.013 0-.023.01-.024.022 0 .013.01.025.023.025zM108.075 45.77q.016 0 .023-.016a.024.024 0 0 0-.015-.03l-.472-.17.18-1.118a.024.024 0 0 0-.02-.028.023.023 0 0 0-.027.02l-.187 1.157.51.184z"/><path fill="#fbfdfc" d="M108.436 46.242c-.014-.003-.94-.05-.94-.05s.106.387.45.405.49-.355.49-.355"/><path fill="#000" d="M111.223 44.195s.333-1.66-.161-2.295c-.494-.634-3.393-1.799-3.756-1.497-.363.3-.018.688-.018.688s-1.166-.409-1.459.627 2.223 1.547 3.744 1.098c0 0 .99.317 1.65 1.378"/><path fill="#fe9f73" d="M105.019 65.721c.141.027 6.279.821 10.32-.527 1.407-.47 2.717-1.563 3.362-2.446.979-1.34.34-3.908-.569-5.746l-2.157 2.319c-.241.26-.519.482-.824.66-1.124.659-3.746 2.135-6.386 2.35z"/><path fill="#7fc6a6" d="M119.893 60.14s-.067.11-.407.337c-.4.267-1.201.665-3.06.774 0 0-1.975.034-4.31-1.11s2.81-5.468 2.81-5.468l2.455.917 1.108.911z"/><path fill="#000" d="M99.864 60.98a.063.063 0 0 0 .04-.112c-1.396-1.116-1.659-2.441-1.683-2.579.478-1.915 3.247-7.906 4.039-8.496.81-.603 5.002-1.153 5.044-1.158a.06.06 0 0 0 .054-.07.063.063 0 0 0-.07-.055c-.174.022-4.267.56-5.103 1.182-.864.644-3.663 6.848-4.089 8.58l-.003.011.002.012c.002.015.226 1.468 1.73 2.672q.017.013.039.013"/><path fill="#000" d="M106.16 74.542c-2.776-.304-4.618-.91-4.637-.916l-.039-.013-.004-.042c-.435-5.646.305-21.117.312-21.273.002-.035.032-.063.066-.06a.063.063 0 0 1 .06.066c-.007.155-.743 15.542-.315 21.215.281.09 2.032.62 4.571.897 2.55.28 6.438.353 10.476-.883a.063.063 0 1 1 .037.12c-2.639.808-5.214 1.06-7.397 1.06a29 29 0 0 1-3.13-.171M116.684 61.235c1.189 0 2.446-.236 3.254-1.05l.028-.029-.014-.037-3.263-9.215c-.015-.05-.414-1.318-2.476-1.752-2.029-.427-2.844-.526-2.852-.527a.063.063 0 0 0-.07.055.063.063 0 0 0 .055.07c.008.001.819.1 2.841.525 1.99.419 2.379 1.656 2.383 1.668l3.25 9.18c-1.75 1.712-5.756.677-6.218.55-.061-1.41-1.052-7.692-1.062-7.756a.063.063 0 0 0-.072-.052.063.063 0 0 0-.052.072c.01.064 1.022 6.481 1.062 7.786l.001.046.044.013c.105.03 1.572.453 3.161.453"/><path fill="#000" d="M112.75 54.736a.063.063 0 0 0 .049-.103l-.632-.776a.06.06 0 0 0-.088-.01.063.063 0 0 0-.009.09l.632.775a.06.06 0 0 0 .048.023M113.628 72.18q.023 0 .042-.017l1.609-1.446a.06.06 0 0 0 .005-.088.063.063 0 0 0-.089-.005l-1.609 1.445a.06.06 0 0 0-.004.09.06.06 0 0 0 .046.02M114.051 72.964a.06.06 0 0 0 .045-.019l1.185-1.175a.064.064 0 0 0 0-.089.063.063 0 0 0-.089 0l-1.185 1.175a.06.06 0 0 0 0 .089.06.06 0 0 0 .044.019"/><path fill="#c2fbff" d="M105.473 65.637h-2.281c-.231 0-.418-.216-.418-.481v-5.273c0-.266.187-.482.418-.482h2.281c.231 0 .418.216.418.482v5.273c0 .265-.187.48-.418.48"/><path fill="#21111d" d="M105.476 65.72a.083.083 0 1 1 0-.166c.185 0 .336-.178.336-.398v-5.273c0-.22-.151-.398-.336-.398h-2.281a.083.083 0 0 1-.082-.083c0-.046.037-.083.082-.083h2.281c.276 0 .501.253.501.564v5.273c0 .311-.225.564-.501.564"/><path fill="#fe9f73" d="M102.593 62.886c-.27-.421.142-.797.142-.797-.016-.555.174-.757.174-.757s1.357.736 2.116 1.214c.479.029.69-.164.69-.164l.008.022c.094-.4.212-.902.224-.958.02-.096.206-.218.382.137.175.355.401 1.033.401 1.033l2.854-.392-1.177 3.759s-2.996-.203-3.451-.266c-.454-.062-1.935-.759-2.318-1.24-.383-.483-.21-.805-.21-.805-.257-.488.165-.786.165-.786"/><path fill="#f07162" d="M103.607 62.818a.054.054 0 0 0 .059-.027.055.055 0 0 0-.02-.075c-.37-.213-.873-.662-.878-.666a.055.055 0 0 0-.078.004.056.056 0 0 0 .004.078c.021.019.517.461.897.68zM103.464 63.5a.055.055 0 0 0 .032-.105c-.48-.2-.865-.546-.869-.55a.055.055 0 0 0-.078.004.056.056 0 0 0 .004.078 3.5 3.5 0 0 0 .911.572M103.178 64.254a.056.056 0 0 0 .062-.032.055.055 0 0 0-.028-.073c-.409-.183-.746-.513-.75-.517a.055.055 0 1 0-.077.079 3 3 0 0 0 .793.543"/><path fill="#fff" d="M103.034 60.215a.379.379 0 1 0 .758-.001.379.379 0 0 0-.758 0" opacity=".3"/><path fill="#fff" d="M144.008 48.31h-16.919a.98.98 0 0 0-.979.979v8.2c0 .54.438.978.979.978h1.441l-.657 1.794 2.593-1.794h13.542a.98.98 0 0 0 .979-.979v-8.2c0-.54-.438-.979-.979-.979"/><path fill="#b1e8fc" d="M143.218 54.706h-15.74a.197.197 0 0 1 0-.394h15.74a.197.197 0 0 1 0 .394M137.705 50.223h-10.227a.197.197 0 0 1 0-.395h10.227a.197.197 0 0 1 0 .395M131.9 56.948h-4.422a.197.197 0 0 1 0-.395h4.422a.197.197 0 0 1 0 .395M143.21 56.948h-9.935a.197.197 0 0 1 0-.395h9.935a.197.197 0 0 1 0 .395M143.334 50.223h-4.081a.197.197 0 0 1 0-.395h4.081a.197.197 0 0 1 0 .395M133.906 52.465h-6.428a.197.197 0 0 1 0-.394h6.428a.197.197 0 0 1 0 .394M143.329 52.465h-7.987a.197.197 0 0 1 0-.394h7.987a.197.197 0 0 1 0 .394"/><path fill="#aac9f8" d="M134.268 76.005v10.27c0 .949.768 1.718 1.716 1.718h24.817c.948 0 1.716-.77 1.716-1.717V75.994c0-.883-.665-1.61-1.521-1.706h-25.012c-.948 0-1.716.769-1.716 1.717"/><path fill="#aac9f8" d="M143.454 87.25c-.035.087-4.211 4.213-4.215 4.074s-.004-.14 1.088-4.898z"/><path fill="#fff" d="M143.057 80.959a3.426 3.426 0 0 1-3.423 3.424 3.425 3.425 0 0 1 0-6.85 3.424 3.424 0 0 1 3.423 3.426"/><path fill="#8cd2f9" d="M142.821 80.959a3.19 3.19 0 1 1-3.19-3.191 3.19 3.19 0 0 1 3.19 3.191"/><path fill="#fe9f73" d="m141.099 83.802-.047.024a3.18 3.18 0 0 1-2.28.205l.025-.166.108-.723c-.642-.109-.593-.845-.593-.845l.06-2.251.001-.042 2.654-.494.008 1.036.001.2.001.114.001.126.006.879.001.162-.039.648s.073.644.093 1.127"/><path fill="#f07162" d="M140.403 82.551s-.075 1.233-1.618 1.31l.108-.723s.993.227 1.51-.587"/><path fill="#000" d="m141.174 80.958-.666.12-.123.121s.086-1.11.217-1.325c.13-.215.572 1.084.572 1.084"/><path fill="#fe9f73" d="M140.252 81.347a.553.553 0 1 0 1.106.029.553.553 0 0 0-1.106-.03"/><path fill="#000" d="M141.176 80.957s.215-1.072-.104-1.482-2.191-1.161-2.426-.967c-.234.195-.011.444-.011.444s-.753-.263-.942.406c-.19.669 1.435.998 2.417.709 0 0 .64.204 1.066.89"/><path fill="#fff" d="m144.65 76.37.378.766.845.123-.612.596.145.842-.756-.398-.756.398.144-.842-.611-.596.845-.123zM148.329 76.37l.378.766.845.123-.612.596.144.842-.755-.398-.756.398.144-.842-.611-.596.845-.123zM152.006 76.37l.377.766.845.123-.611.596.144.842-.755-.398-.756.398.144-.842-.611-.596.845-.123zM155.682 76.37l.378.766.845.123-.612.596.145.842-.756-.398-.756.398.145-.842-.612-.596.845-.123zM159.361 76.37l.378.766.845.123-.611.596.144.842-.756-.398-.755.398.144-.842-.612-.596.845-.123zM157.918 79.849h-13.727v.33h13.727zM160.358 81.332h-16.167v.33h16.167zM160.358 82.814h-16.167v.331h16.167z"/><path fill="#223749" d="m60.532 75.039.351-1.271c.028.007 2.83.75 5.667-.5l.53 1.207c-3.279 1.444-6.416.6-6.548.564"/><path fill="#374169" d="M75.273 68.661a.453.453 0 1 1-.704-.57l1.025-1.265a.453.453 0 1 1 .704.57zM74.984 67.086a.57.57 0 1 1-.926-.665l1.193-1.665a.57.57 0 1 1 .926.665zM73.015 66.398a.57.57 0 0 1-.22-.776l.995-1.79a.57.57 0 1 1 .996.555l-.996 1.79a.57.57 0 0 1-.775.22M71.181 66.611a.57.57 0 0 1-.22-.775l.995-1.79a.57.57 0 1 1 .996.554l-.995 1.79a.57.57 0 0 1-.776.221M70.165 68.176a.66.66 0 0 1-.782-.507l-.495-2.316a.66.66 0 0 1 1.289-.276l.494 2.317a.66.66 0 0 1-.506.782"/><path fill="#8cd2f9" d="M67.115 75.38s-1.368-2.424-.774-3.364c.594-.939 3.144-4.526 3.512-5.251s2.63-1.612 4.264-.469 1.808 2.116-.545 4.9-6.155 4.783-6.457 4.185"/><path fill="#1d1d1b" d="M73.612 71.231c1.345-1.59 1.875-2.608 1.772-3.4-.072-.55-.441-1.022-1.236-1.578a3 3 0 0 0-.25-.156c-.731-.407-1.647-.51-2.56-.281-.728.183-1.344.554-1.532.925-.18.356-.917 1.444-1.538 2.35-.214.314-.432.631-.644.939a88 88 0 0 0-1.327 1.959c-.602.952.708 3.304.772 3.417q.057.11.223.13c.92.108 4.254-1.86 6.32-4.305m-.08-.068c-2.182 2.582-5.432 4.362-6.227 4.268a.3.3 0 0 1-.096-.027.1.1 0 0 1-.047-.047v-.002c-.014-.024-1.346-2.408-.776-3.31.23-.362.761-1.136 1.325-1.955l.644-.938c.662-.967 1.363-2.003 1.545-2.363.172-.34.774-.698 1.463-.87.992-.25 1.986-.096 2.725.42.768.538 1.124.988 1.191 1.506.1.76-.423 1.752-1.747 3.318"/><path fill="#1d1d1b" d="M72.237 69.104c-.602-.78-1.636-1.179-3.072-1.185v-.105c.94.004 1.714.174 2.312.507q.508.282.844.719c.959 1.242.52 3.007.516 3.025l-.103-.026c.005-.017.43-1.734-.497-2.935"/><path fill="#111e28" d="M52.06 69.204h-3.475v1.315h7.067v-1.315H52.06"/><path fill="#223749" d="M46.505 84.95c0 .556.268 1.016.619 1.1H50.9c.35-.084.619-.544.619-1.1v-1.9h-5.014z"/><path fill="#374169" d="M52.714 84.95c0 .556.268 1.016.62 1.1h3.775c.35-.084.619-.544.619-1.1v-1.9h-5.014z"/><path fill="#49b3e2" d="m58.781 72.325-.054-.51a1.734 1.734 0 0 0-1.678-1.296h-9.863c-.806 0-1.484.55-1.678 1.297l-.054.51-.916 8.546-.049.454v.002c.024.937.79 1.69 1.733 1.69h11.791c.942 0 1.71-.753 1.733-1.69v-.002l-.049-.454z"/><path fill="#223749" d="M47.554 72.027a.66.66 0 0 0-.869-.465c-1.077.395-3.172 1.38-4.745 3.458l1.05.796c1.367-1.807 3.236-2.675 4.154-3.014a.66.66 0 0 0 .41-.775"/><path fill="#374169" d="M38.132 83.717a.453.453 0 0 0-.524.368l-.281 1.603a.453.453 0 1 0 .892.157l.28-1.604a.453.453 0 0 0-.367-.525M39.26 84.82a.57.57 0 0 0-.63.5l-.234 2.036a.57.57 0 1 0 1.132.13l.233-2.035a.57.57 0 0 0-.5-.632M40.681 84.965a.57.57 0 0 0-.57.57v2.048a.57.57 0 1 0 1.14 0v-2.048a.57.57 0 0 0-.57-.57M42.178 83.887a.57.57 0 0 0-.57.57v2.048a.57.57 0 1 0 1.14 0v-2.048a.57.57 0 0 0-.57-.57M43.23 82.09a.659.659 0 1 0-.991.867l1.558 1.783a.659.659 0 1 0 .992-.867z"/><path fill="#8cd2f9" d="M41.468 74.246c-.555-.376-2.905 3.219-3.608 6.798-.703 3.578-.078 4.344 1.905 4.547s3.53-1.672 3.499-2.485.453-5.188.515-6.297c.063-1.11-2.311-2.563-2.311-2.563"/><path fill="#223749" d="M50.23 86.05h-2.296v4.353h2.296zM59.491 86.05h-2.296v4.353h2.296z"/><path fill="#374169" d="M55.252 69.204h-3.475v1.315h7.067v-1.315h-3.592M49.698 84.951c0 .555.268 1.015.619 1.1h3.775c.351-.085.62-.545.62-1.1v-1.9h-5.015z"/><path fill="#8cd2f9" d="M52.128 95.63v-3.445c0-1.65-1.526-2.887-3.136-2.529-.952.212-1.79.671-1.948 1.614-.399 2.367-.54 7.337-.54 7.337h8.06s.094-2.25-2.437-2.977"/><path fill="#223749" d="M54.91 98.607h-8.622v.703h8.621z"/><path fill="#374169" d="M55.906 84.951c0 .555.268 1.015.62 1.1H60.3c.35-.085.619-.545.619-1.1v-1.9h-5.014z"/><path fill="#8cd2f9" d="m61.973 72.325-.054-.51a1.734 1.734 0 0 0-1.678-1.296h-9.863c-.806 0-1.484.55-1.678 1.297l-.054.51-.916 8.546-.049.454v.002c.024.937.79 1.69 1.733 1.69h11.791c.942 0 1.709-.753 1.733-1.69v-.002l-.049-.454zM61.388 95.63v-3.445c0-1.65-1.525-2.887-3.136-2.529-.951.212-1.79.671-1.948 1.614-.398 2.367-.539 7.337-.539 7.337h8.06s.093-2.25-2.437-2.977"/><path fill="#223749" d="M64.17 98.607h-8.62v.703h8.62z"/><path fill="#111e28" d="M63.605 56.63h-.324v4.791h.324z"/><path fill="#374169" d="M65.083 63.305a.464.464 0 1 0 0 .928.464.464 0 0 0 0-.928"/><path fill="#111e28" d="M65.084 62.738h-.594V64.8h.594z"/><path fill="#374169" d="M63.643 60.864h-1.46v5.837h1.46c.427 0 .78-.312.845-.721v-4.395a.855.855 0 0 0-.845-.72M64.238 56.749a.82.82 0 1 0-1.602-.346.82.82 0 0 0 1.602.346"/><path fill="#49b3e2" d="M58.772 56.505c-.784-.477-5.668-.438-6.184-.433-.516-.005-5.4-.044-6.184.433-.828.505-1.836 6.413-1.944 7.818-.108 1.4.07 5.088 8.083 5.472v.004l.045-.002.045.002v-.004c8.013-.384 8.191-4.072 8.084-5.472-.108-1.405-1.117-7.313-1.945-7.818"/><path fill="#8cd2f9" d="M61.225 56.505c-.784-.477-5.668-.438-6.184-.433-.516-.005-5.4-.044-6.184.433-.828.505-1.837 6.413-1.945 7.818-.107 1.4-1.174 5.17 6.838 5.554h1.881c8.013-.384 7.646-4.154 7.538-5.554-.108-1.405-1.116-7.313-1.944-7.818"/><path fill="#111e28" d="M44.884 57.088h-.17v3.787h.17z"/><path fill="#111e28" d="M45.45 60.865h-1.045a.856.856 0 0 0-.838.683.4.4 0 0 0-.007.075v4.32q0 .037.007.075c.08.39.424.683.838.683h1.045a.415.415 0 0 0 .415-.415V61.28a.415.415 0 0 0-.415-.415"/><path fill="#111e28" d="M45.206 56.63h-.324v4.791h.324z"/><path fill="#374169" d="M43.227 63.305a.464.464 0 1 0 0 .928.464.464 0 0 0 0-.928"/><path fill="#111e28" d="M43.823 62.738h-.595V64.8h.595z"/><path fill="#374169" d="M45.891 60.864h-1.045a.855.855 0 0 0-.838.684.4.4 0 0 0-.007.075v4.319q0 .037.007.076c.08.39.424.683.838.683h1.045a.415.415 0 0 0 .415-.415v-5.007a.415.415 0 0 0-.415-.415M45.756 56.992a.82.82 0 1 0-1.411-.833.82.82 0 0 0 1.41.833M59.684 58.095c-.585-.357-4.2-.331-4.645-.326-.445-.005-4.06-.03-4.644.325-.624.38-1.383 4.828-1.464 5.886-.08 1.052.054 3.823 6.063 4.118v.004l.045-.002.045.002v-.004c6.01-.295 6.144-3.066 6.063-4.118-.081-1.058-.84-5.506-1.463-5.885"/><path fill="#fff" d="M51.627 63.893a.958.958 0 1 0 0-1.916.958.958 0 0 0 0 1.916M58.453 61.976a.958.958 0 1 0 0 1.917.958.958 0 0 0 0-1.917M53.434 64.686c.91 1.637 2.623 1.575 3.478-.126h-3.548z"/><path fill="#49b3e2" d="m58.282 73.348-.003-.026c-.11-.599-.512-1.017-.98-1.017H52.98c-.468 0-.87.418-.979 1.017l-.45 5.993v.025c.013.731.455 1.304 1.007 1.304h5.164c.551 0 .994-.573 1.007-1.304v-.015l-.423-5.657zm-.56 6.8h-5.164c-.268 0-.5-.37-.51-.807l.42-5.636.023-.306c.067-.347.271-.598.489-.598h4.32c.217 0 .421.25.488.598l.444 5.942c-.01.438-.243.806-.51.806"/><path fill="#1d1d1b" d="M52.182 95.59v-3.405c0-.807-.36-1.56-.99-2.064a2.6 2.6 0 0 0-2.21-.516c-1.178.262-1.847.82-1.988 1.656-.395 2.344-.538 7.295-.54 7.344l-.001.055h8.163l.002-.05c.002-.024.066-2.278-2.436-3.02m2.331 2.964h-7.952c.017-.547.166-5.071.537-7.275.133-.79.774-1.32 1.907-1.572a2.5 2.5 0 0 1 2.12.496 2.53 2.53 0 0 1 .952 1.982v3.485l.038.01c1.285.37 1.868 1.144 2.131 1.728.236.525.265.995.267 1.146"/><path fill="#1d1d1b" d="m46.463 98.575.084.063c1.883-2.483 5.55-2.952 5.587-2.956l-.013-.105c-.037.005-3.747.478-5.658 2.998M61.44 95.59v-3.405c0-.807-.36-1.56-.99-2.065a2.6 2.6 0 0 0-2.21-.516c-1.178.263-1.847.82-1.988 1.657-.394 2.344-.538 7.294-.54 7.344l-.001.054h8.164l.002-.05c0-.023.066-2.278-2.437-3.019m2.332 2.964h-7.953c.017-.548.166-5.071.537-7.276.133-.79.775-1.319 1.908-1.57a2.5 2.5 0 0 1 2.12.495 2.53 2.53 0 0 1 .951 1.982v3.484l.038.011c1.285.37 1.869 1.143 2.132 1.728.236.524.264.995.267 1.146"/><path fill="#1d1d1b" d="m55.721 98.575.084.063c1.883-2.483 5.55-2.952 5.587-2.956l-.013-.105c-.037.005-3.747.478-5.658 2.998M60.867 84.815c0 1.072-.524 1.176-.57 1.183H47.126v.105h13.181c.027-.003.665-.09.665-1.288V83.05h-.105z"/><path fill="#1d1d1b" d="M45.973 82.95v.105l15.392.052v-.105zM48.53 72.884l-.83 7.752.106.012.83-7.752zM60.872 80.339l-.652.906.085.062.652-.907zM61.531 80.922l-.652.906.086.062.652-.907zM41.496 74.2q-.103-.068-.259-.004c-.855.353-2.812 3.694-3.429 6.837-.401 2.044-.37 3.19.105 3.833.33.446.882.678 1.847.777q.147.015.295.015c.836 0 1.686-.356 2.373-1 .547-.514.904-1.139.888-1.554-.015-.399.1-1.707.201-2.802l.108-1.137c.094-.99.182-1.925.207-2.354.063-1.125-2.225-2.542-2.336-2.61m2.23 2.605c-.024.427-.112 1.361-.206 2.35l-.108 1.137c-.108 1.166-.217 2.413-.201 2.816.015.38-.337.986-.855 1.473-.746.7-1.688 1.05-2.586.957-.931-.095-1.462-.315-1.772-.735-.456-.616-.482-1.737-.087-3.75.652-3.317 2.627-6.454 3.367-6.76a.3.3 0 0 1 .096-.022q.037 0 .064.018l.002.001c.023.014 2.346 1.45 2.286 2.515"/><path fill="#1d1d1b" d="M40.047 82.222c-1.394-.599-1.857-2.306-1.861-2.323l-.102.026c.005.018.48 1.774 1.921 2.393q.507.218 1.087.218c.684 0 1.443-.228 2.267-.682l-.051-.093c-1.259.694-2.356.85-3.26.46M63.21 64.32c-.103-1.35-1.105-7.327-1.963-7.85-.792-.481-5.654-.444-6.205-.438-.552-.006-5.413-.043-6.205.439-.858.522-1.86 6.499-1.964 7.85q-.013.155-.035.343c-.096.845-.24 2.123.695 3.223 1.02 1.199 3.111 1.882 6.218 2.03h1.883c3.277-.156 5.525-.902 6.683-2.215 1.062-1.205.955-2.595.897-3.342zm-.954 3.328c-1.143 1.297-3.372 2.033-6.624 2.189h-1.879c-3.082-.148-5.154-.822-6.158-2.003-.913-1.073-.77-2.33-.677-3.16q.023-.19.036-.348c.111-1.45 1.125-7.299 1.925-7.786.634-.386 4.013-.43 5.505-.43.325 0 .56.002.658.003.55-.006 5.39-.044 6.163.427.8.487 1.814 6.336 1.925 7.786l.003.04c.057.735.163 2.103-.877 3.282M46.346 61.22c-.045-.353-.443-.395-.447-.396h-.002l-1.18.01v.082l1.176-.01c.03.003.335.044.372.321l.004 4.855h.081l-.004-4.858z"/><path fill="#1d1d1b" d="m63.704 60.825-1.08-.001v.08h1.068c.05.012.603.145.736.618l.078-.022c-.153-.541-.775-.67-.802-.675M64.524 61.582h-.081l.045 4.113h.081zM58.58 67.43c-.985.376-2.193.593-3.495.627-2.63.069-4.827-1.274-4.849-1.287l-.043.069c.022.013 2.128 1.302 4.694 1.302q.1 0 .2-.003c2.682-.07 4.834-.89 5.616-2.138l-.068-.043c-.372.593-1.082 1.102-2.055 1.474M51.083 57.88l.003.081c.054-.002 5.452-.215 7.584-.038l.007-.081c-2.137-.177-7.54.036-7.594.038"/><path fill="#5780bc" d="M38.693 63.617h-2.46v29.365h2.46z"/></svg>