<svg width="149" height="126" viewBox="0 0 149 126" fill="none" xmlns="http://www.w3.org/2000/svg">
<path d="M120.255 99.3932C111.579 110.444 98.8748 118.259 85.0954 121.013C75.226 122.988 66.506 126.156 56.8658 125.994C55.3524 125.971 53.8187 125.859 52.2513 125.654C41.1685 124.188 30.6586 118.893 22.7678 110.987C20.9072 109.123 19.1915 107.114 17.6477 104.974C9.5648 93.7717 8.98166 79.1383 8.82998 65.3239C8.66819 51.0039 14.4253 36.7109 24.4633 26.4959C34.4979 16.2842 48.6919 10.2785 63.014 10.1841C79.0012 10.0796 96.3131 10.9593 109.56 19.9139C122.803 28.8685 132.134 43.8557 132.986 59.817C133.738 73.8437 128.928 88.3423 120.255 99.3932Z" fill="#D8DBFF"/>
<path d="M133.126 88.8795H92.9764C91.3938 88.8795 90.1939 87.4533 90.4645 85.8942L102.499 16.6088C102.805 14.8462 104.336 13.5591 106.125 13.5591H146.274C147.857 13.5591 149.057 14.9853 148.786 16.5444L136.752 85.8299C136.445 87.5925 134.915 88.8795 133.126 88.8795Z" fill="#2A2A59"/>
<path d="M127.833 15.7864C127.455 17.9642 125.565 19.5539 123.354 19.5539H122.867C120.87 19.5539 119.356 17.7536 119.697 15.7864H104.049L92.5625 81.914H133.19L144.676 15.7864H127.833Z" fill="#060305"/>
<path d="M123.599 17.5212C124.337 17.5212 124.935 16.9232 124.935 16.1856C124.935 15.4479 124.337 14.85 123.599 14.85C122.862 14.85 122.264 15.4479 122.264 16.1856C122.264 16.9232 122.862 17.5212 123.599 17.5212Z" fill="#814EFF"/>
<path d="M146.63 13.5592L133.482 88.8797" stroke="#060305" stroke-width="0.337019" stroke-miterlimit="10" stroke-linecap="round" stroke-linejoin="round"/>
<path d="M109.591 85.5775C111.863 85.5964 114.134 85.6153 116.406 85.6345" stroke="#060305" stroke-width="0.337019" stroke-miterlimit="10" stroke-linecap="round" stroke-linejoin="round"/>
<path d="M107.278 5.87158H56.7246V17.1129H96.8885L98.9231 20.6364L100.958 17.1129H107.278V5.87158Z" fill="#F6921E"/>
<path d="M38.6995 24.2468H89.2525V35.4884H49.0886L47.0537 39.0116L45.0195 35.4884H38.6995V24.2468Z" fill="white"/>
<path d="M83.561 108.228L86.9068 110.159V106.297L83.561 108.228Z" fill="#814EFF"/>
<path d="M133.971 96.9019L132.039 100.247H135.903L133.971 96.9019Z" fill="#814EFF"/>
<path d="M9.20372 33.4259L11.1355 30.0807H7.27197L9.20372 33.4259Z" fill="#814EFF"/>
<path d="M68.827 93.9823C69.1231 93.9823 69.3632 93.7422 69.3632 93.4461C69.3632 93.15 69.1231 92.9099 68.827 92.9099C68.5308 92.9099 68.2908 93.15 68.2908 93.4461C68.2908 93.7422 68.5308 93.9823 68.827 93.9823Z" fill="#814EFF"/>
<path d="M75.6341 91.6229C75.9302 91.6229 76.1703 91.3829 76.1703 91.0867C76.1703 90.7906 75.9302 90.5505 75.6341 90.5505C75.338 90.5505 75.0979 90.7906 75.0979 91.0867C75.0979 91.3829 75.338 91.6229 75.6341 91.6229Z" fill="#814EFF"/>
<path d="M67.0108 112.478C67.3069 112.478 67.547 112.238 67.547 111.942C67.547 111.646 67.3069 111.406 67.0108 111.406C66.7147 111.406 66.4746 111.646 66.4746 111.942C66.4746 112.238 66.7147 112.478 67.0108 112.478Z" fill="#814EFF"/>
<path d="M110.532 93.4461C110.532 93.1499 110.292 92.9099 109.996 92.9099C109.7 92.9099 109.46 93.1499 109.46 93.4461C109.46 93.7424 109.7 93.9823 109.996 93.9823C110.292 93.9823 110.532 93.742 110.532 93.4461Z" fill="#814EFF"/>
<path d="M88.5023 66.2952C88.7984 66.2952 89.0385 66.0551 89.0385 65.759C89.0385 65.4628 88.7984 65.2228 88.5023 65.2228C88.2061 65.2228 87.9661 65.4628 87.9661 65.759C87.9661 66.0551 88.2061 66.2952 88.5023 66.2952Z" fill="#814EFF"/>
<path d="M128.32 105.884C128.616 105.884 128.856 105.644 128.856 105.348C128.856 105.052 128.616 104.812 128.32 104.812C128.024 104.812 127.784 105.052 127.784 105.348C127.784 105.644 128.024 105.884 128.32 105.884Z" fill="#814EFF"/>
<path d="M140.127 92.1592C140.423 92.1592 140.663 91.9191 140.663 91.623C140.663 91.3268 140.423 91.0868 140.127 91.0868C139.83 91.0868 139.59 91.3268 139.59 91.623C139.59 91.9191 139.83 92.1592 140.127 92.1592Z" fill="#814EFF"/>
<path d="M80.7503 50.3524C81.0464 50.3524 81.2865 50.1124 81.2865 49.8162C81.2865 49.5201 81.0464 49.28 80.7503 49.28C80.4542 49.28 80.2141 49.5201 80.2141 49.8162C80.2141 50.1124 80.4542 50.3524 80.7503 50.3524Z" fill="#814EFF"/>
<path d="M118.888 6.30604C119.184 6.30604 119.424 6.06597 119.424 5.76984C119.424 5.47371 119.184 5.23364 118.888 5.23364C118.591 5.23364 118.351 5.47371 118.351 5.76984C118.351 6.06597 118.591 6.30604 118.888 6.30604Z" fill="#814EFF"/>
<path d="M19.9505 45.0221C20.2466 45.0221 20.4867 44.782 20.4867 44.4859C20.4867 44.1898 20.2466 43.9497 19.9505 43.9497C19.6544 43.9497 19.4143 44.1898 19.4143 44.4859C19.4143 44.782 19.6544 45.0221 19.9505 45.0221Z" fill="#814EFF"/>
<path d="M13.922 98.5744C13.922 98.2782 13.682 98.0382 13.3858 98.0382C13.0896 98.0382 12.8496 98.2782 12.8496 98.5744C12.8496 98.8706 13.0896 99.1106 13.3858 99.1106C13.6817 99.1109 13.922 98.8706 13.922 98.5744Z" fill="#814EFF"/>
<path d="M9.7411 107.404C9.7411 107.108 9.50114 106.868 9.2049 106.868C8.90866 106.868 8.6687 107.108 8.6687 107.404C8.6687 107.7 8.90866 107.94 9.2049 107.94C9.50114 107.94 9.7411 107.7 9.7411 107.404Z" fill="#814EFF"/>
<path d="M6.08673 48.922C6.38287 48.922 6.62293 48.6819 6.62293 48.3858C6.62293 48.0897 6.38287 47.8496 6.08673 47.8496C5.7906 47.8496 5.55054 48.0897 5.55054 48.3858C5.55054 48.6819 5.7906 48.922 6.08673 48.922Z" fill="#814EFF"/>
<path d="M112.093 0.536198C112.093 0.239958 111.853 0 111.556 0C111.26 0 111.02 0.239958 111.02 0.536198C111.02 0.832438 111.26 1.0724 111.556 1.0724C111.853 1.07273 112.093 0.832438 112.093 0.536198Z" fill="#814EFF"/>
<path d="M81.9981 21.1726C82.2942 21.1726 82.5343 20.9326 82.5343 20.6364C82.5343 20.3403 82.2942 20.1002 81.9981 20.1002C81.702 20.1002 81.4619 20.3403 81.4619 20.6364C81.4619 20.9326 81.702 21.1726 81.9981 21.1726Z" fill="#814EFF"/>
<path d="M47.2512 17.5211C46.9182 18.5558 45.4539 18.5558 45.1209 17.5211C44.7879 16.4865 43.324 16.4865 42.9906 17.5211C42.6576 18.5558 41.1937 18.5558 40.8603 17.5211C40.5273 16.4865 39.0634 16.4865 38.7304 17.5211C38.3974 18.5558 36.9335 18.5558 36.6004 17.5211C36.2674 16.4865 34.8035 16.4865 34.4705 17.5211C34.1375 18.5558 32.6732 18.5558 32.3402 17.5211C32.0072 16.4865 30.543 16.4865 30.2099 17.5211C29.8769 18.5558 28.413 18.5558 28.08 17.5211C27.747 16.4865 26.2827 16.4865 25.9497 17.5211" stroke="#060305" stroke-width="0.337019" stroke-miterlimit="10" stroke-linecap="round" stroke-linejoin="round"/>
<path d="M120.061 106.867C119.728 107.902 118.264 107.902 117.931 106.867C117.598 105.833 116.134 105.833 115.801 106.867C115.468 107.902 114.004 107.902 113.671 106.867C113.338 105.833 111.874 105.833 111.541 106.867C111.208 107.902 109.744 107.902 109.411 106.867C109.078 105.833 107.614 105.833 107.281 106.867C106.948 107.902 105.484 107.902 105.151 106.867C104.818 105.833 103.354 105.833 103.021 106.867C102.688 107.902 101.223 107.902 100.89 106.867C100.557 105.833 99.0935 105.833 98.7605 106.867" stroke="#060305" stroke-width="0.337019" stroke-miterlimit="10" stroke-linecap="round" stroke-linejoin="round"/>
<path d="M76.4053 41.8879C76.0723 42.9226 74.6081 42.9226 74.275 41.8879C73.942 40.8533 72.4781 40.8533 72.1448 41.8879C71.8117 42.9226 70.3478 42.9226 70.0145 41.8879C69.6815 40.8533 68.2176 40.8533 67.8845 41.8879C67.5515 42.9226 66.0873 42.9226 65.7542 41.8879C65.4212 40.8533 63.9573 40.8533 63.624 41.8879C63.2909 42.9226 61.827 42.9226 61.494 41.8879C61.161 40.8533 59.6971 40.8533 59.3637 41.8879C59.0307 42.9226 57.5668 42.9226 57.2335 41.8879C56.9004 40.8533 55.4365 40.8533 55.1035 41.8879" stroke="#060305" stroke-width="0.337019" stroke-miterlimit="10" stroke-linecap="round" stroke-linejoin="round"/>
<path d="M72.8112 65.1229C70.4831 62.4449 67.0817 60.9991 63.8033 59.6399L59.3635 72.4429C60.3932 72.8821 61.423 73.3215 62.4527 73.7607C58.1416 77.8683 54.2815 82.3762 51.0715 87.3914C52.0302 90.309 53.0741 93.1029 54.5208 95.8122C55.895 95.9524 57.2312 96.1896 58.6057 96.3298C59.3304 95.3451 59.9452 94.4341 60.6703 93.4493C60.1185 92.9556 58.9873 93.3867 58.7379 94.0836C58.6347 93.605 58.568 93.0244 58.4652 92.5458C63.321 89.1908 67.8451 85.2355 72.0572 81.101C74.1399 79.0566 75.496 76.1063 75.6257 73.1914C75.7552 70.2759 74.7258 67.3249 72.8112 65.1229Z" fill="#FF9A7D"/>
<path d="M62.3723 73.771C62.7518 73.4215 63.1316 73.0724 63.5111 72.7229" stroke="#060305" stroke-width="0.337019" stroke-miterlimit="10" stroke-linecap="round" stroke-linejoin="round"/>
<path d="M58.2046 91.0839C58.305 91.6443 58.4051 92.2048 58.5052 92.7652" stroke="#060305" stroke-width="0.337019" stroke-miterlimit="10" stroke-linecap="round" stroke-linejoin="round"/>
<path d="M56.865 125.994C55.3516 125.971 53.8179 125.859 52.2505 125.654C41.1677 124.188 30.6578 118.893 22.767 110.987C22.7164 102.244 24.058 93.492 26.7444 85.1778C35.4172 81.6862 45.1687 80.8066 54.1246 83.4691C57.0908 97.4082 57.9638 111.775 56.865 125.994Z" fill="#814EFF"/>
<path d="M43.0154 98.0107C43.7754 103.066 44.535 108.122 45.295 113.177C45.8244 116.699 45.7631 120.096 44.6745 123.401" stroke="#060305" stroke-width="0.337019" stroke-miterlimit="10" stroke-linecap="round" stroke-linejoin="round"/>
<path d="M25.9648 87.9326C35.4992 87.5373 45.0336 87.142 54.5679 86.7463" stroke="#060305" stroke-width="0.337019" stroke-miterlimit="10" stroke-linecap="round" stroke-linejoin="round"/>
<path d="M32.1403 87.7676C31.1935 91.1732 28.7201 94.1231 25.5317 95.6498" stroke="#060305" stroke-width="0.337019" stroke-miterlimit="10" stroke-linecap="round" stroke-linejoin="round"/>
<path d="M50.7256 86.9799C52.5522 89.8556 54.3791 92.7311 56.2057 95.6069" stroke="#060305" stroke-width="0.337019" stroke-miterlimit="10" stroke-linecap="round" stroke-linejoin="round"/>
<path d="M22.0006 82.7851C19.8022 81.2018 17.6538 79.546 15.4554 77.9627C16.5785 76.9968 17.7016 76.0309 18.8251 75.0653L7.42099 65.6851C5.75788 67.3172 3.88276 68.9279 2.46808 70.7794C1.07666 72.601 -0.00904409 74.7718 5.67973e-05 77.0638C0.00747234 79.0246 0.82453 80.9214 2.00832 82.4848C3.19211 84.0479 4.66039 85.4475 6.36259 86.4212C11.3398 89.2673 16.2822 92.5148 21.043 95.7094C20.6011 96.1381 20.1589 96.5668 19.717 96.9955C19.5852 97.1232 19.449 97.2577 19.3893 97.4313C19.3297 97.6048 19.3587 97.7943 19.5205 97.8812C20.0692 97.7194 20.7467 97.5543 21.2955 97.3922C20.9281 97.6722 20.5836 97.983 20.2677 98.32C20.1474 98.4484 20.0264 98.59 19.9954 98.7632C19.9644 98.9364 20.0645 99.1642 20.2384 99.1909C22.2015 98.8818 24.2391 98.5795 26.2022 98.2705C26.7378 95.3596 27.2549 92.4468 27.7901 89.5363C26.2979 86.9921 24.3945 84.5089 22.0006 82.7851Z" fill="#FF9A7D"/>
<path d="M13.6299 76.7861C14.3123 77.1906 14.9951 77.595 15.6776 77.9994" stroke="#060305" stroke-width="0.337019" stroke-miterlimit="10" stroke-linecap="round" stroke-linejoin="round"/>
<path d="M20.9265 95.6838C21.5524 96.0916 22.1785 96.4994 22.8044 96.9072" stroke="#060305" stroke-width="0.337019" stroke-miterlimit="10" stroke-linecap="round" stroke-linejoin="round"/>
<path d="M20.998 97.5566C21.3624 97.29 21.727 97.0238 22.0913 96.7572" stroke="#060305" stroke-width="0.337019" stroke-miterlimit="10" stroke-linecap="round" stroke-linejoin="round"/>
<path d="M65.3779 58.7188C60.2264 56.7637 55.0197 54.8936 49.5555 54.1855C45.6296 53.677 41.6364 53.0791 37.7105 52.5702C37.3913 53.4633 36.4721 54.1056 35.5236 54.0982C34.5751 54.0912 33.6306 53.4144 33.3249 52.5166C28.8479 54.2883 24.3713 56.06 19.8943 57.8317C14.7992 59.8481 10.1503 62.8971 5.5918 65.937C9.88674 69.3844 14.2043 72.9376 18.4996 76.385C20.0548 75.3315 21.5716 74.3615 23.1269 73.308C24.342 77.6876 25.3522 81.2775 26.5673 85.6574L54.5003 84.3056C54.477 79.8047 54.5138 76.1535 54.4905 71.6529C56.1786 72.2835 58.02 72.9966 59.708 73.6268C61.6128 68.6629 63.4728 63.6827 65.3779 58.7188Z" fill="white"/>
<path d="M30.3696 54.0246C30.9224 55.5597 32.1389 56.8215 33.617 57.3928C35.095 57.964 36.8093 57.8343 38.1923 57.047C39.5757 56.2597 40.6037 54.8284 40.9371 53.2262" stroke="#060305" stroke-width="0.337019" stroke-miterlimit="10" stroke-linecap="round" stroke-linejoin="round"/>
<path d="M17.0559 59.2963C20.4772 63.3445 22.6476 68.4345 23.2004 73.7055" stroke="#060305" stroke-width="0.337019" stroke-miterlimit="10" stroke-linecap="round" stroke-linejoin="round"/>
<path d="M54.6243 71.8511C54.3972 66.299 54.17 60.747 53.9429 55.1946" stroke="#060305" stroke-width="0.337019" stroke-miterlimit="10" stroke-linecap="round" stroke-linejoin="round"/>
<path d="M7.6897 64.6383C11.5862 68.3128 15.4824 71.9877 19.3789 75.6622" stroke="#060305" stroke-width="0.337019" stroke-miterlimit="10" stroke-linecap="round" stroke-linejoin="round"/>
<path d="M63.4705 58.2548C62.0478 63.2716 60.4969 68.2524 58.8203 73.1904" stroke="#060305" stroke-width="0.337019" stroke-miterlimit="10" stroke-linecap="round" stroke-linejoin="round"/>
<path d="M39.759 53.3845C39.3943 53.3437 38.9955 53.2641 38.6308 53.2234C38.6399 52.4944 38.5287 51.8136 38.5378 51.0846C36.6869 51.0627 34.9851 51.0182 33.1339 50.9963C33.0634 51.7253 32.993 52.4546 32.9229 53.1836C32.4881 53.3659 31.9005 53.6187 31.4661 53.801C32.1948 55.5768 33.8906 56.8396 35.8062 56.7135C37.7214 56.5878 39.2686 55.2404 39.759 53.3845Z" fill="#FF9A7D"/>
<path d="M33.4282 42.9504C33.6092 42.3367 34.0005 41.7867 34.5208 41.4142C35.0412 41.0418 35.6879 40.8487 36.3273 40.8754" stroke="#060305" stroke-width="0.337019" stroke-miterlimit="10" stroke-linecap="round" stroke-linejoin="round"/>
<path d="M31.2805 45.6994C31.0598 45.6886 30.839 45.6782 30.6179 45.6677" stroke="#060305" stroke-width="0.337019" stroke-miterlimit="10" stroke-linecap="round" stroke-linejoin="round"/>
<path d="M39.393 52.3358C40.5626 51.6523 41.2472 50.223 41.0473 48.8833C40.9843 48.46 40.7878 48.0401 40.3678 47.9565C40.1099 47.3276 39.7533 46.7116 39.4954 46.083C39.7327 46.0153 39.9185 45.7939 39.9434 45.5482C39.9683 45.3025 39.8325 45.0511 39.6138 44.9372C39.8723 44.8313 40.0233 44.5152 39.9431 44.2476C39.8625 43.98 39.5763 43.8938 39.3023 43.948C39.0165 42.7358 37.9813 41.7341 36.7601 41.4888C35.5389 41.2434 34.1745 41.8356 33.4423 42.8433C33.1187 42.6798 32.7011 42.724 32.419 42.9514C32.1369 43.1793 32.0506 43.6265 32.1423 43.9773C31.731 43.9369 31.3067 44.1735 31.125 44.5445C30.9433 44.9156 31.0077 45.4218 31.2918 45.7221C30.7165 46.11 30.3919 46.839 30.4883 47.5262C30.5847 48.2133 31.0977 48.8247 31.7577 49.039C32.1453 50.5364 33.2502 51.8231 34.6615 52.4567C36.0718 53.0897 38.0575 53.1163 39.393 52.3358Z" fill="#060305"/>
<path d="M33.4479 47.7313C32.9733 47.673 32.4749 47.7586 32.0705 48.0137C31.6664 48.2685 31.3668 48.7005 31.3155 49.1757C31.2478 49.8016 31.6354 50.4368 32.2039 50.7075C32.7721 50.9778 33.4805 50.8928 33.9989 50.5359L33.4479 47.7313Z" fill="#FF9A7D"/>
<path d="M32.1655 48.8384C32.5022 48.9007 32.8389 48.9631 33.1752 49.0254" stroke="#060305" stroke-width="0.337019" stroke-miterlimit="10" stroke-linecap="round" stroke-linejoin="round"/>
<path d="M40.5502 48.3867C40.4683 47.3561 40.1333 46.2308 39.4207 45.4816C38.9124 44.9471 38.1837 44.7307 37.4458 44.7277C37.3228 45.0424 37.0609 45.3003 36.744 45.4182C36.4272 45.5362 36.1262 45.4708 35.8272 45.3134C35.6958 46.281 34.9394 47.134 33.9939 47.3797C34.2362 48.1214 34.4304 48.8622 34.6731 49.604C36.2465 48.3051 38.6401 47.6702 40.5502 48.3867Z" fill="#FF9A7D"/>
<path d="M36.2843 47.8862C36.4704 47.8862 36.6213 47.7353 36.6213 47.5492C36.6213 47.363 36.4704 47.2122 36.2843 47.2122C36.0982 47.2122 35.9473 47.363 35.9473 47.5492C35.9473 47.7353 36.0982 47.8862 36.2843 47.8862Z" fill="#060305"/>
<path d="M39.3407 47.3053C39.5268 47.3053 39.6777 47.1544 39.6777 46.9682C39.6777 46.7821 39.5268 46.6312 39.3407 46.6312C39.1546 46.6312 39.0037 46.7821 39.0037 46.9682C39.0037 47.1544 39.1546 47.3053 39.3407 47.3053Z" fill="#060305"/>
<path d="M38.1625 48.8298L37.2836 48.7883C37.2246 49.0428 37.4373 49.3242 37.6981 49.3363C37.959 49.3488 38.1976 49.089 38.1625 48.8298Z" fill="white"/>
<path d="M35.6543 46.4746C35.8676 46.2292 36.2448 46.1429 36.5437 46.271" stroke="#060305" stroke-width="0.337019" stroke-miterlimit="10" stroke-linecap="round" stroke-linejoin="round"/>
<path d="M38.4438 45.3293C38.58 45.2949 38.7158 45.2605 38.8516 45.2258" stroke="#060305" stroke-width="0.337019" stroke-miterlimit="10" stroke-linecap="round" stroke-linejoin="round"/>
<path d="M37.9942 46.8158C38.1761 47.1616 38.3578 47.5077 38.5398 47.8535C38.3608 47.9165 38.1461 48.0304 37.9675 48.0934" stroke="#060305" stroke-width="0.337019" stroke-miterlimit="10" stroke-linecap="round" stroke-linejoin="round"/>
<path d="M37.4421 44.5056C37.5847 44.7931 37.5651 45.1547 37.3926 45.4253" stroke="#060305" stroke-width="0.337019" stroke-miterlimit="10" stroke-linecap="round" stroke-linejoin="round"/>
<path d="M105.62 57.8169C104.899 57.8169 104.188 57.5682 103.621 57.1081C101.819 55.6462 98.6985 54.2017 94.0669 55.6249C93.6893 55.7412 93.2892 55.5289 93.1733 55.1511C93.0573 54.7736 93.2697 54.3736 93.6472 54.2576C98.8809 52.6511 102.45 54.3169 104.523 55.9977C104.9 56.304 105.371 56.4365 105.85 56.3711C106.324 56.3057 106.738 56.0543 107.014 55.663L109.816 51.6983C110.045 51.3761 110.491 51.2986 110.814 51.5271C111.136 51.7549 111.213 52.2015 110.985 52.5237L108.182 56.4884C107.675 57.2066 106.916 57.6679 106.046 57.7876C105.904 57.8071 105.762 57.8169 105.62 57.8169Z" fill="#9E97FF"/>
<path d="M102.907 54.9685C102.718 55.4103 102.529 55.8518 102.339 56.2933" stroke="#060305" stroke-width="0.337019" stroke-miterlimit="10" stroke-linecap="round" stroke-linejoin="round"/>
<path d="M103.846 55.6602C103.677 56.1225 103.508 56.5853 103.34 57.0477" stroke="#060305" stroke-width="0.337019" stroke-miterlimit="10" stroke-linecap="round" stroke-linejoin="round"/>
<path d="M104.973 56.1656C104.93 56.6071 104.888 57.049 104.846 57.4905" stroke="#060305" stroke-width="0.337019" stroke-miterlimit="10" stroke-linecap="round" stroke-linejoin="round"/>
<path d="M105.974 56.4872C106.044 56.8855 106.113 57.2842 106.182 57.6826" stroke="#060305" stroke-width="0.337019" stroke-miterlimit="10" stroke-linecap="round" stroke-linejoin="round"/>
<path d="M106.883 55.9137C107.136 56.3131 107.389 56.7124 107.642 57.1118" stroke="#060305" stroke-width="0.337019" stroke-miterlimit="10" stroke-linecap="round" stroke-linejoin="round"/>
<path d="M107.555 55.1189C107.898 55.406 108.24 55.6932 108.583 55.98" stroke="#060305" stroke-width="0.337019" stroke-miterlimit="10" stroke-linecap="round" stroke-linejoin="round"/>
<path d="M89.8754 53.5066C88.6545 54.0805 88.003 55.3736 88.187 56.6429L90.7777 55.4249L91.5203 57.0041L88.9296 58.2221C89.7898 59.1735 91.2014 59.4967 92.4223 58.9228C93.9182 58.2198 94.5607 56.4373 93.8572 54.9416C93.1537 53.4459 91.371 52.8035 89.8754 53.5066Z" fill="#814EFF"/>
<path d="M91.1721 58.6361C91.8431 58.6115 92.4986 58.296 92.9361 57.7868C93.3735 57.2776 93.5869 56.582 93.51 55.9147" stroke="#060305" stroke-width="0.337019" stroke-miterlimit="10" stroke-linecap="round" stroke-linejoin="round"/>
<path d="M121.985 64.0739C118.023 64.9633 114.048 63.011 112.634 59.481L109.064 50.5679L127.892 46.3417L128.475 55.9252C128.706 59.7203 125.947 63.1846 121.985 64.0739Z" fill="#814EFF"/>
<path d="M123.471 62.5293C125.832 61.7198 127.603 59.4152 127.777 56.9257" stroke="white" stroke-width="0.337019" stroke-miterlimit="10" stroke-linecap="round" stroke-linejoin="round"/>
<path d="M121.942 51.931C121.843 51.4878 121.403 51.2094 120.96 51.3088C120.516 51.4083 120.238 51.8481 120.338 52.2912C120.437 52.7344 120.877 53.0128 121.32 52.9134C121.763 52.814 122.041 52.3741 121.942 51.931Z" fill="white"/>
<path d="M119.75 52.0035C119.708 51.3986 120.284 50.8273 120.888 50.8742" stroke="#060305" stroke-width="0.337019" stroke-miterlimit="10" stroke-linecap="round" stroke-linejoin="round"/>
<path d="M124.838 51.2817C124.739 50.8385 124.299 50.5601 123.856 50.6595C123.413 50.759 123.134 51.1988 123.234 51.642C123.333 52.0851 123.773 52.3635 124.216 52.2641C124.659 52.1643 124.938 51.7245 124.838 51.2817Z" fill="#F6921E"/>
<path d="M122.647 51.2464C122.619 50.5778 123.324 49.9836 123.978 50.1252" stroke="#060305" stroke-width="0.337019" stroke-miterlimit="10" stroke-linecap="round" stroke-linejoin="round"/>
<path d="M133.215 62.8659C132.827 62.8659 132.508 62.5555 132.5 62.1656C132.32 53.3707 127.387 50.5597 127.177 50.4444C126.832 50.2547 126.704 49.8209 126.892 49.4751C127.08 49.1293 127.512 49.0003 127.858 49.1866C128.098 49.3157 133.732 52.4611 133.93 62.1363C133.939 62.5313 133.625 62.8578 133.23 62.8659C133.225 62.8659 133.22 62.8659 133.215 62.8659Z" fill="#9E97FF"/>
<path d="M130.607 54.0165C131.069 53.7836 131.531 53.5507 131.993 53.3175" stroke="#060305" stroke-width="0.337019" stroke-miterlimit="10" stroke-linecap="round" stroke-linejoin="round"/>
<path d="M130.857 54.5109C131.276 54.36 131.696 54.209 132.115 54.058" stroke="#060305" stroke-width="0.337019" stroke-miterlimit="10" stroke-linecap="round" stroke-linejoin="round"/>
<path d="M131.23 55.0689C131.652 54.8839 132.075 54.6985 132.497 54.5132" stroke="#060305" stroke-width="0.337019" stroke-miterlimit="10" stroke-linecap="round" stroke-linejoin="round"/>
<path d="M131.301 55.8401C131.806 55.6722 132.311 55.5044 132.816 55.3369" stroke="#060305" stroke-width="0.337019" stroke-miterlimit="10" stroke-linecap="round" stroke-linejoin="round"/>
<path d="M131.619 56.4797C132.103 56.3318 132.586 56.1838 133.069 56.0359" stroke="#060305" stroke-width="0.337019" stroke-miterlimit="10" stroke-linecap="round" stroke-linejoin="round"/>
<path d="M129.265 63.6782C128.72 64.9121 129.076 66.3154 130.048 67.1532L131.205 64.5353L132.801 65.2407L131.644 67.8586C132.917 68.013 134.195 67.3315 134.74 66.0974C135.408 64.5858 134.724 62.8188 133.213 62.1509C131.7 61.4829 129.934 62.1667 129.265 63.6782Z" fill="#814EFF"/>
<path d="M132.499 67.1515C133.602 66.9584 134.44 65.8 134.278 64.6923" stroke="#060305" stroke-width="0.337019" stroke-miterlimit="10" stroke-linecap="round" stroke-linejoin="round"/>
<path d="M116.807 69.9338C117.234 69.3106 118.026 68.9595 118.774 69.0616C119.685 69.1859 120.41 69.8974 121.294 70.1498C122.424 70.4727 123.743 69.9149 124.298 68.8789" stroke="white" stroke-width="0.337019" stroke-miterlimit="10" stroke-linecap="round" stroke-linejoin="round"/>
<path d="M117.035 73.101C117.038 72.1755 118.158 71.6252 119.076 71.7394C119.995 71.8537 120.805 72.3831 121.691 72.6504C122.577 72.9176 123.723 72.8162 124.175 72.009" stroke="white" stroke-width="0.337019" stroke-miterlimit="10" stroke-linecap="round" stroke-linejoin="round"/>
<path d="M98.1112 28.9856L96.2131 27.5182" stroke="white" stroke-width="0.337019" stroke-miterlimit="10" stroke-linecap="round" stroke-linejoin="round"/>
<path d="M100.22 33.643C101.771 33.643 103.028 32.3859 103.028 30.8353C103.028 29.2846 101.771 28.0276 100.22 28.0276C98.6691 28.0276 97.4119 29.2846 97.4119 30.8353C97.4119 32.3859 98.6691 33.643 100.22 33.643Z" fill="#814EFF"/>
<path d="M95.5982 27.7778C96.025 27.7778 96.371 27.4318 96.371 27.005C96.371 26.5782 96.025 26.2322 95.5982 26.2322C95.1714 26.2322 94.8254 26.5782 94.8254 27.005C94.8254 27.4318 95.1714 27.7778 95.5982 27.7778Z" fill="#814EFF"/>
<path d="M111.249 23.8113C102.435 23.8113 95.2896 32.901 95.2896 44.1137H127.21C127.209 32.901 120.064 23.8113 111.249 23.8113Z" fill="#9E97FF"/>
<path d="M99.5261 32.4588C101.192 29.031 104.267 26.3143 107.874 25.0831" stroke="white" stroke-width="0.337019" stroke-miterlimit="10" stroke-linecap="round" stroke-linejoin="round"/>
<path d="M104.204 37.8208H115.795C115.795 37.8208 110.713 43.5896 104.204 37.8208Z" fill="white"/>
<path d="M111.015 32.1705C111.015 31.1911 110.221 30.3967 109.241 30.3967C108.261 30.3967 107.467 31.1907 107.467 32.1705C107.467 33.1502 108.261 33.9442 109.241 33.9442C110.221 33.9442 111.015 33.1502 111.015 32.1705Z" fill="#814EFF"/>
<path d="M106.682 31.7482C106.997 30.5687 108.119 29.6526 109.338 29.5798" stroke="#060305" stroke-width="0.337019" stroke-miterlimit="10" stroke-linecap="round" stroke-linejoin="round"/>
<path d="M124.42 32.6473C124.834 32.1583 125.084 31.5257 125.084 30.8348C125.084 29.2842 123.827 28.0271 122.276 28.0271C121.894 28.0271 121.531 28.1029 121.2 28.2404C121.2 28.2404 120.918 31.5415 124.42 32.6473Z" fill="#814EFF"/>
<path d="M124.424 29.0288L126.25 27.5179" stroke="white" stroke-width="0.337019" stroke-miterlimit="10" stroke-linecap="round" stroke-linejoin="round"/>
<path d="M126.817 27.8073C127.244 27.8073 127.59 27.4613 127.59 27.0345C127.59 26.6077 127.244 26.2617 126.817 26.2617C126.391 26.2617 126.045 26.6077 126.045 27.0345C126.045 27.4613 126.391 27.8073 126.817 27.8073Z" fill="#814EFF"/>
</svg>
