<svg width="110" height="126" viewBox="0 0 110 126" fill="none" xmlns="http://www.w3.org/2000/svg">
<path d="M40.5963 36.0173C40.7703 38.167 33.634 40.4926 24.6568 41.2116C15.6795 41.9307 8.26115 40.7709 8.08691 38.6212" stroke="#DEA94D" stroke-width="0.327087" stroke-miterlimit="10"/>
<path d="M39.234 30.7103C40.1176 32.6798 34.1663 37.2354 25.9414 40.8857C17.7167 44.536 10.333 45.8984 9.44971 43.9289" stroke="#DEA94D" stroke-width="0.327087" stroke-miterlimit="10"/>
<path d="M51.8701 10.2367L67.9712 0.576962C70.8137 -1.12826 74.4979 1.07278 76.1416 5.52851L109.305 95.4262C110.949 99.882 109.57 103.931 106.293 104.459L87.7323 107.451C84.9244 107.903 81.4917 105.013 80.0128 101.004L50.1742 20.1198C48.6953 16.1108 49.4343 11.6981 51.8701 10.2367Z" fill="#404040"/>
<path d="M49.5193 12.7034L64.8673 3.56531C67.5852 1.94702 71.1223 4.10502 72.7132 8.41758L104.811 95.4273C106.402 99.7399 105.108 103.661 101.983 104.176L84.3353 107.081C81.6428 107.524 78.335 104.72 76.8985 100.826L47.9149 22.2585C46.4781 18.3643 47.1776 14.0979 49.5193 12.7034Z" fill="#A0BAFE"/>
<path d="M47.4029 21.6764L76.8866 101.6C78.3479 105.561 81.7134 108.421 84.4541 107.979L102.553 105.062C105.745 104.547 107.071 100.557 105.449 96.1603L72.7229 7.44902C71.1009 3.05211 67.4954 0.86197 64.7265 2.52329L49.026 11.9426C46.6488 13.369 45.9415 17.7151 47.4029 21.6764ZM48.4621 21.0813C47.3608 18.0961 47.9036 14.8182 49.6967 13.7598L65.4424 4.46351C67.5197 3.23718 70.2205 4.89391 71.4309 8.17524L103.991 96.438C105.202 99.7196 104.22 102.721 101.838 103.122L83.784 106.162C81.7281 106.508 79.1828 104.357 78.0817 101.372L48.4621 21.0813Z" fill="#191919"/>
<path d="M64.1212 5.9274L63.615 4.5553L49.8262 12.7514L50.3042 14.0469C50.8641 15.5645 52.506 16.1137 53.9884 15.2638L62.2673 10.5171C63.8757 9.59493 64.7143 7.53506 64.1212 5.9274Z" fill="#191919"/>
<path d="M88.4703 45.0063C88.8277 44.8666 89.0239 44.4893 88.9053 44.1679L82.8043 27.6299C82.6858 27.3085 82.3027 27.1794 81.9539 27.3421C81.606 27.5045 81.4185 27.899 81.5365 28.2187L87.6084 44.6778C87.7263 44.9977 88.1138 45.1455 88.4703 45.0063Z" fill="#191919"/>
<path d="M80.8935 24.4682C81.2408 24.3015 81.4288 23.9018 81.3103 23.5805L78.3397 15.5281C78.2211 15.2067 77.843 15.0905 77.5 15.2692C77.1579 15.4477 76.9753 15.8549 77.0933 16.1748L80.0497 24.1887C80.1677 24.5087 80.547 24.6346 80.8935 24.4682Z" fill="#191919"/>
<path d="M74.6324 45.6785L52.4984 55.6266L44.5542 30.0121L64.7598 17.6612L74.6324 45.6785Z" fill="white"/>
<path d="M65.8721 20.8174L45.453 32.9104L44.5542 30.0121L64.7598 17.6612L65.8721 20.8174Z" fill="#814BD9"/>
<path d="M52.6389 33.3544C53.0696 34.6915 52.441 36.3204 51.2471 36.9797C50.0681 37.6308 48.7882 37.0845 48.3766 35.7724C47.967 34.4662 48.5661 32.8698 49.726 32.1943C50.9006 31.51 52.21 32.0236 52.6389 33.3544Z" fill="#DAE4FE"/>
<path d="M60.7242 28.2873L53.3603 32.4828L52.9062 31.0803L60.2338 26.8412L60.7242 28.2873Z" fill="#DAE4FE"/>
<path d="M65.2252 28.4768L54.0733 34.6777L53.6155 33.2648L64.712 26.9968L65.2252 28.4768Z" fill="#DAE4FE"/>
<path d="M58.0099 37.0383L49.6537 41.4886L49.3748 40.596L57.705 36.1124L58.0099 37.0383Z" fill="#DAE4FE"/>
<path d="M67.7057 31.8735L58.5124 36.7697L58.2061 35.8421L67.3696 30.91L67.7057 31.8735Z" fill="#DAE4FE"/>
<path d="M58.4877 38.4934L50.0912 42.8912L49.8108 41.9942L58.1814 37.5629L58.4877 38.4934Z" fill="#DAE4FE"/>
<path d="M68.2334 33.3884L58.9934 38.228L58.6853 37.2958L67.8956 32.4197L68.2334 33.3884Z" fill="#DAE4FE"/>
<path d="M58.9711 39.9557L50.5335 44.3007L50.2517 43.3998L58.663 39.0206L58.9711 39.9557Z" fill="#DAE4FE"/>
<path d="M68.7665 34.9106L59.4794 39.6931L59.1699 38.7563L68.427 33.937L68.7665 34.9106Z" fill="#DAE4FE"/>
<path d="M59.4529 41.4252L50.9744 45.7165L50.6914 44.8113L59.1434 40.4852L59.4529 41.4252Z" fill="#DAE4FE"/>
<path d="M69.2994 36.4411L59.9648 41.166L59.6538 40.2243L68.9579 35.4624L69.2994 36.4411Z" fill="#DAE4FE"/>
<path d="M59.9404 42.9022L51.4207 47.1396L51.1362 46.2297L59.6294 41.9576L59.9404 42.9022Z" fill="#DAE4FE"/>
<path d="M69.8355 37.9795L60.4533 42.6458L60.1406 41.6995L69.4926 36.9956L69.8355 37.9795Z" fill="#DAE4FE"/>
<path d="M60.4267 44.3861L51.8655 48.5689L51.5796 47.6548L60.1143 43.4369L60.4267 44.3861Z" fill="#DAE4FE"/>
<path d="M70.3772 39.526L60.9465 44.1336L60.6323 43.1821L70.0322 38.537L70.3772 39.526Z" fill="#DAE4FE"/>
<path d="M60.92 45.8778L52.3166 50.0056L52.0293 49.0869L60.6059 44.9241L60.92 45.8778Z" fill="#DAE4FE"/>
<path d="M70.919 41.0806L61.4399 45.6285L61.124 44.6724L70.572 40.0864L70.919 41.0806Z" fill="#DAE4FE"/>
<path d="M61.4133 47.3772L52.7678 51.449L52.479 50.526L61.0977 46.4186L61.4133 47.3772Z" fill="#DAE4FE"/>
<path d="M71.4637 42.6437L61.9358 47.131L61.6182 46.1703L71.1149 41.6443L71.4637 42.6437Z" fill="#DAE4FE"/>
<path d="M61.9083 48.8839L53.2201 52.8992L52.9302 51.9719L61.5913 47.9204L61.9083 48.8839Z" fill="#DAE4FE"/>
<path d="M72.0108 44.2148L62.4335 48.641L62.1145 47.6752L71.6603 43.21L72.0108 44.2148Z" fill="#DAE4FE"/>
<path d="M72.5075 70.4711L50.7956 77.7456L42.9912 51.4278L62.8288 41.5718L72.5075 70.4711Z" fill="white"/>
<path d="M63.9197 44.829L43.8748 54.4067L42.9912 51.4278L62.8288 41.5718L63.9197 44.829Z" fill="#6073C9"/>
<path d="M69.8053 69.1645L51.7761 75.3989L45.7573 55.2831L62.596 47.402L69.8053 69.1645Z" fill="#A0BAFE"/>
<path d="M69.8057 69.1644L51.7768 75.3988L49.4189 67.5186C49.6018 66.5387 49.9982 65.2226 50.9758 64.5322C51.8781 63.8953 52.5534 64.2972 53.6492 64.0043C55.8684 63.4109 56.2679 60.9419 57.8651 59.6556C59.1427 58.6266 61.6125 58.0118 66.9765 60.6231C67.9108 63.4439 68.8538 66.2908 69.8057 69.1644Z" fill="#5F823C"/>
<path d="M69.8057 69.1645L51.7765 75.3989L49.4189 67.5187L66.9762 60.6232L69.8057 69.1645Z" fill="#8DA664"/>
<path d="M54.4612 57.2575C54.957 58.8442 54.2336 60.6094 52.8608 61.185C51.5076 61.7519 50.0416 60.9425 49.5709 59.3911C49.1024 57.8474 49.7875 56.1201 51.1159 55.5178C52.463 54.9066 53.9679 55.6788 54.4612 57.2575Z" fill="#DEA94D"/>
<path d="M51.5449 46.0537C52.031 47.6439 51.3225 49.4435 49.9889 50.0461C48.6888 50.6337 47.2956 49.8495 46.8513 48.3202C46.4111 46.804 47.0556 45.0716 48.3147 44.4245C49.6053 43.7612 51.0632 44.4779 51.5449 46.0537Z" fill="#DD5325"/>
<path d="M73.7341 53.4595L63.8658 57.5474C63.5306 57.6863 63.1597 57.5015 63.0408 57.1374L60.9942 50.8723C60.8779 50.5162 61.0493 50.103 61.3764 49.9532L70.994 45.5483C71.3549 45.383 71.7567 45.552 71.8862 45.9247L74.1671 52.486C74.3001 52.8679 74.1045 53.3063 73.7341 53.4595Z" fill="#F2CC65"/>
<path d="M74.1665 52.4789L66.8843 50.2133L63.0405 57.1303" stroke="#DEA94D" stroke-width="0.327087" stroke-miterlimit="10" stroke-linecap="round" stroke-linejoin="round"/>
<path d="M60.9441 50.7081L67.7985 52.9218L71.8301 45.7528" fill="#F1C754"/>
<path d="M60.9441 50.7081L67.7985 52.9217L71.8301 45.7528" stroke="#DEA94D" stroke-width="0.327087" stroke-miterlimit="10" stroke-linecap="round" stroke-linejoin="round"/>
<path d="M78.518 28.6115L66.0019 35.1317C64.1676 36.0872 62.17 35.3102 61.5362 33.4316C60.9065 31.5652 61.8362 29.2367 63.6279 28.2302L75.8425 21.3688C77.8984 20.2139 80.228 20.8888 80.9875 22.9019C81.7523 24.9291 80.6261 27.5131 78.518 28.6115Z" fill="#FDCDE1"/>
<path d="M64.3794 33.348L65.7955 37.4853L67.9788 32.2144L64.3794 33.348Z" fill="#FDCDE1"/>
<path opacity="0.5" d="M67.5501 28.9822L63.4943 31.2016L63.2122 30.3767L67.2564 28.1438L67.5501 28.9822Z" fill="#FE6CA8"/>
<path opacity="0.5" d="M77.979 23.2754L67.8739 28.8051L67.5791 27.9655L77.6545 22.4028L77.979 23.2754Z" fill="#FE6CA8"/>
<path opacity="0.5" d="M69.8631 29.3173L63.9444 32.5103L63.6609 31.6816L69.5625 28.4689L69.8631 29.3173Z" fill="#FE6CA8"/>
<path opacity="0.5" d="M76.4927 25.7401L70.1921 29.1388L69.8906 28.2892L76.1725 24.8699L76.4927 25.7401Z" fill="#FE6CA8"/>
<path opacity="0.5" d="M66.6652 32.6166L64.3924 33.8249L64.1077 32.9925L66.3741 31.7765L66.6652 32.6166Z" fill="#FE6CA8"/>
<path opacity="0.5" d="M75.0265 28.1708L66.9856 32.4461L66.6934 31.6048L74.7109 27.3029L75.0265 28.1708Z" fill="#FE6CA8"/>
<path d="M78.6949 1.99754L77.1502 2.8612L76.4242 0.50522C76.3131 0.144836 75.9713 -0.00235877 75.6615 0.175825C75.4235 0.31269 75.2657 0.609089 75.2674 0.914956L75.2821 3.45457C75.2873 4.3627 74.82 5.23182 74.1205 5.61946L73.8139 5.78932L75.2943 10.6869L79.9786 8.21416C80.4355 7.97286 80.7087 7.3858 80.6233 6.82657L79.9965 2.72835C79.8892 2.0248 79.2672 1.67762 78.6949 1.99754ZM71.6391 12.8573L74.3259 11.4421L72.7131 6.07654L70.0662 7.54734L71.6391 12.8573Z" fill="white"/>
<path d="M70.6325 14.134C71.7353 17.1557 71.951 20.0261 67.1147 22.8251C62.4984 25.4967 61.0648 23.4847 60.0722 20.5859C59.0897 17.716 59.3011 14.767 63.348 12.1639C67.5664 9.45073 69.5415 11.1445 70.6325 14.134Z" fill="#DD5325"/>
<path d="M67.4166 15.704L63.0879 15.8398C62.7657 15.8498 62.4317 16.4819 62.5574 16.8423L64.0078 20.9982C64.1001 21.2627 64.3935 21.2105 64.6081 20.8903L67.4803 16.6064C67.7498 16.2044 67.7137 15.6949 67.4166 15.704Z" fill="white"/>
<path d="M77.5257 35.1319C78.3204 37.2431 77.1619 39.7816 74.9838 40.7603C72.8607 41.7143 70.5867 40.8093 69.8624 38.7776C69.1444 36.7636 70.1953 34.3264 72.25 33.2946C74.3572 32.2367 76.7385 33.0401 77.5257 35.1319Z" stroke="#495AAB" stroke-width="0.364126" stroke-miterlimit="10"/>
<path d="M76.1129 35.8035C76.8944 37.9004 76.3818 40.1316 74.983 40.7603C73.607 41.3786 71.9066 40.2005 71.1704 38.1549C70.4409 36.1275 70.9177 33.9632 72.2492 33.2946C73.6027 32.6152 75.3387 33.7262 76.1129 35.8035Z" stroke="#495AAB" stroke-width="0.364126" stroke-miterlimit="10"/>
<path d="M72.2488 33.2946L74.9825 40.7602" stroke="#495AAB" stroke-width="0.364126" stroke-miterlimit="10"/>
<path d="M69.863 38.7776L77.5263 35.1318" stroke="#495AAB" stroke-width="0.364126" stroke-miterlimit="10"/>
<mask id="mask0_830_38932" style="mask-type:luminance" maskUnits="userSpaceOnUse" x="69" y="32" width="9" height="10">
<path d="M77.5298 35.1319C78.3245 37.2431 77.1661 39.7816 74.9879 40.7603C72.8648 41.7143 70.5909 40.8093 69.8665 38.7776C69.1486 36.7636 70.1994 34.3264 72.2541 33.2946C74.3614 32.2367 76.7426 33.0401 77.5298 35.1319Z" fill="white"/>
</mask>
<g mask="url(#mask0_830_38932)">
<path d="M77.391 29.7837C78.0291 31.4605 76.048 34.046 73.0606 35.4991C70.1775 36.9013 67.4549 36.7042 66.8933 35.1126C66.3357 33.5322 68.0936 31.0915 70.9029 29.6058C73.8121 28.0673 76.7576 28.1195 77.391 29.7837Z" stroke="#495AAB" stroke-width="0.364126" stroke-miterlimit="10"/>
<path d="M80.9174 39.0468C81.5823 40.7942 79.5183 43.3223 76.4078 44.6368C73.4078 45.9044 70.5769 45.5498 69.9933 43.8956C69.4138 42.2532 71.2412 39.8634 74.1624 38.5045C77.1898 37.0962 80.2574 37.3126 80.9174 39.0468Z" stroke="#495AAB" stroke-width="0.364126" stroke-miterlimit="10"/>
</g>
<path d="M99.5366 95.7107L72.195 100.887L60.3989 63.8879L84.5476 54.4878L99.5366 95.7107Z" fill="white"/>
<path d="M85.8906 58.1817L61.4634 67.226L60.3989 63.8879L84.5476 54.4878L85.8906 58.1817Z" fill="#DD5325"/>
<path d="M69.1208 69.8014L65.7351 70.9655C64.9857 71.2232 64.1601 70.7589 63.8962 69.9377C63.6328 69.1185 64.0214 68.2325 64.7636 67.9648L68.1164 66.7563C68.8894 66.4776 69.7545 66.9347 70.0341 67.7763C70.3147 68.6199 69.9017 69.5332 69.1208 69.8014Z" fill="#DAE4FE"/>
<path d="M76.2694 72.1147L67.066 75.0721C66.3068 75.316 65.4702 74.8319 65.2028 73.9998C64.9363 73.1697 65.3295 72.286 66.0815 72.0318L75.194 68.9521C76.0216 68.6724 76.9484 69.155 77.2479 70.0293C77.5481 70.9056 77.1056 71.8458 76.2694 72.1147Z" fill="#DAE4FE"/>
<path d="M75.7547 77.039L68.4128 79.2331C67.6435 79.463 66.796 78.9585 66.5248 78.1153C66.2545 77.2743 66.6532 76.3928 67.4153 76.1524L74.6845 73.8592C75.5084 73.5993 76.4303 74.1025 76.7286 74.9814C77.0274 75.8623 76.5867 76.7902 75.7547 77.039Z" fill="#DAE4FE"/>
<path d="M89.129 77.8812L78.8026 80.7451C77.9531 80.9806 77.0176 80.4441 76.7188 79.5563C76.4208 78.6711 76.8604 77.7478 77.7013 77.5008L87.9195 74.4969C88.8503 74.2232 89.8928 74.7612 90.23 75.6968C90.5684 76.6351 90.0699 77.6201 89.129 77.8812Z" fill="#A4B883"/>
<path d="M90.7863 82.5188L85.5712 83.8479C84.6674 84.0783 83.6725 83.5107 83.3546 82.5908C83.0376 81.6735 83.5052 80.7281 84.3997 80.485L89.5591 79.0845C90.5036 78.828 91.5617 79.3916 91.9038 80.341C92.2467 81.2936 91.7411 82.2755 90.7863 82.5188Z" fill="#A4B883"/>
<path d="M92.4706 87.225L81.8427 89.6944C80.969 89.8975 80.0073 89.3136 79.6998 88.4009C79.3931 87.4907 79.8454 86.5731 80.7102 86.3576L91.2253 83.7397C92.1838 83.501 93.2575 84.0906 93.6048 85.0544C93.9527 86.0211 93.4395 86.9998 92.4706 87.225Z" fill="#A4B883"/>
<path d="M95.8043 95.2847L74.5723 99.4082C73.6123 99.5947 72.5571 98.8825 72.2199 97.8303C71.8839 96.7816 72.3797 95.7616 73.3282 95.5587L94.2974 91.076C95.4567 90.8281 96.7577 91.5736 97.1791 92.7385C97.602 93.9083 96.9792 95.0566 95.8043 95.2847Z" stroke="#DAE4FE" stroke-width="0.327087" stroke-miterlimit="10"/>
<path d="M96.3114 92.8874C96.5958 93.6768 96.1807 94.4455 95.3886 94.6021C94.602 94.7577 93.7429 94.2486 93.4654 93.4685C93.1888 92.69 93.5932 91.928 94.3729 91.7638C95.1581 91.598 96.0279 92.1001 96.3114 92.8874Z" fill="#DAE4FE"/>
<path d="M48.1819 45.6887L49.2088 45.2471L49.8157 47.4277L48.8001 47.892L48.1819 45.6887Z" fill="white"/>
<path d="M48.8887 48.2609L49.9156 47.8193L50.1859 48.6468L49.1705 49.1114L48.8887 48.2609Z" fill="white"/>
<path d="M74.905 44.2953C75.3911 45.8854 74.6826 47.685 73.3491 48.2876C72.049 48.8752 70.6554 48.0911 70.2114 46.5617C69.7712 45.0456 70.4157 43.3131 71.6748 42.6661C72.9657 42.0027 74.4233 42.7197 74.905 44.2953Z" fill="#DD5325"/>
<path d="M71.5361 43.9304L72.5631 43.4888L73.1697 45.6694L72.1543 46.134L71.5361 43.9304Z" fill="white"/>
<path d="M72.2454 46.5027L73.2723 46.0614L73.5429 46.8886L72.5272 47.3532L72.2454 46.5027Z" fill="white"/>
<path d="M92.184 57.6143L82.1741 61.2428C80.0357 62.0181 77.7101 60.9008 76.9731 58.787C76.2413 56.6878 77.3222 54.3049 79.4069 53.4642L89.1586 49.5312C91.4828 48.5938 94.1196 49.6414 94.9804 51.8921C95.8478 54.1594 94.5713 56.7489 92.184 57.6143Z" fill="#A17AEC"/>
<path d="M80.282 59.0911L81.9328 63.756L84.482 58.3657L80.282 59.0911Z" fill="#A17AEC"/>
<path opacity="0.5" d="M82.5601 55.3668L79.2543 56.6519L78.9258 55.7232L82.2215 54.4257L82.5601 55.3668Z" fill="#814BD9"/>
<path opacity="0.5" d="M90.9136 52.1188L82.8217 55.265L82.4824 54.3227L90.5487 51.147L90.9136 52.1188Z" fill="#814BD9"/>
<path opacity="0.5" d="M84.5902 56.2915L79.7749 58.1262L79.4446 57.1928L84.2452 55.3401L84.5902 56.2915Z" fill="#814BD9"/>
<path opacity="0.5" d="M89.9044 54.2665L84.8566 56.1898L84.5107 55.2375L89.5427 53.2955L89.9044 54.2665Z" fill="#814BD9"/>
<path opacity="0.5" d="M82.1552 58.9141L80.2973 59.6074L79.9658 58.6697L81.818 57.969L82.1552 58.9141Z" fill="#814BD9"/>
<path opacity="0.5" d="M88.9052 56.3952L82.4177 58.8166L82.0796 57.8706L88.5466 55.425L88.9052 56.3952Z" fill="#814BD9"/>
<path d="M70.1222 87.2691C70.0884 87.1193 70.048 86.9696 70.0001 86.8198C69.2187 84.3751 66.8472 82.9448 64.7392 83.5956C63.0871 84.1054 62.0816 85.7475 62.1133 87.585C61.9728 87.5979 61.8326 87.6209 61.6941 87.6614C60.3612 88.0516 59.6735 89.6202 60.1437 91.1771C60.6162 92.7417 62.0873 93.7322 63.4445 93.3781C64.1279 93.2 70.5139 91.5338 71.0917 91.3831C72.105 91.1189 72.6373 89.982 72.2726 88.8504C71.9487 87.8441 71.0276 87.196 70.1222 87.2691Z" fill="#6073C9"/>
<path d="M68.6128 94.3854L66.3294 94.9543L65.4585 92.1444L67.7218 91.5459L68.6128 94.3854Z" fill="#DD5325"/>
<path d="M68.127 96.7921L69.6556 93.1154L64.7581 94.3601L68.127 96.7921Z" fill="#DD5325"/>
<path d="M80.3968 47.5715L78.1136 48.6185L77.2424 45.9908L79.5057 44.9186L80.3968 47.5715Z" fill="white"/>
<path d="M79.9109 50.0801L81.4395 46.0831L76.5422 48.3536L79.9109 50.0801Z" fill="white"/>
<path d="M100.011 55.1763C100.749 57.5888 99.4267 63.3768 98.505 63.6674C97.5923 63.9552 93.5195 60.0708 92.8365 57.74C92.1586 55.4265 93.1506 52.975 95.0839 52.235C97.0584 51.4795 99.2793 52.7825 100.011 55.1763Z" fill="#DD5325"/>
<path d="M98.167 55.8361C98.5279 57.0295 98.0011 58.2833 96.9987 58.6288C96.007 58.9705 94.9282 58.2908 94.5806 57.1178C94.2344 55.9492 94.7404 54.7142 95.7188 54.3521C96.7077 53.986 97.8076 54.6471 98.167 55.8361Z" fill="white"/>
<path d="M27.3174 34.8756C34.0752 36.0147 35.5316 43.6746 34.7614 45.8624C33.9912 48.0502 43.7845 52.8133 37.1026 59.363C30.4206 65.9128 18.7203 62.5195 15.4177 57.607C12.6107 53.4322 14.8284 48.6192 16.9417 46.7143C19.0549 44.8094 15.896 31.7997 27.3174 34.8756Z" fill="#762F0E"/>
<path d="M8.24754 96.9175C9.16831 104.989 13.4139 111.262 30.9498 106.398C47.1773 106.824 51.12 100.128 50.1992 92.0574C49.2784 83.9861 39.7765 86.209 27.6264 87.5802C15.4764 88.9514 7.32677 88.8461 8.24754 96.9175Z" fill="#DD5325"/>
<path d="M50.6585 91.9869C44.1753 71.546 52.8814 50.131 24.5631 53.493C-1.59381 56.5981 10.9249 72.4857 7.67102 95.6794C14.3207 90.9537 40.7983 85.1494 50.6585 91.9869Z" fill="#42474B"/>
<path d="M40.4711 54.386C54.0156 60.3917 65.1017 73.0341 49.9765 80.9072C36.8275 66.5177 40.4711 54.386 40.4711 54.386Z" fill="#E89F8D"/>
<path d="M40.7954 70.642L52.0563 59.8887C52.0563 59.8887 44.8924 52.4383 32.9875 53.3473C33.3669 63.8816 40.7954 70.642 40.7954 70.642Z" fill="#42474B"/>
<path d="M12.1875 59.317C0.340029 68.1886 -6.83288 83.4713 9.6813 87.7736C19.2548 70.8192 12.1875 59.317 12.1875 59.317Z" fill="#E89F8D"/>
<path d="M13.0397 73.7745L1.85547 68.9513C1.85547 68.9513 4.94634 56.9467 16.7534 55.1792C18.7565 65.5305 13.0397 73.7745 13.0397 73.7745Z" fill="#42474B"/>
<path d="M40.568 62.2639L40.0474 68.5531" stroke="#21262B" stroke-width="0.327087" stroke-miterlimit="10"/>
<path d="M12.5315 64.8484L14.1532 71.403" stroke="#21262B" stroke-width="0.327087" stroke-miterlimit="10"/>
<path d="M41.5964 68.0888C45.7139 72.2607 49.1484 95.3457 49.1484 95.3457L9.61575 99.9521C9.61575 99.9521 9.39709 78.2429 11.8787 73.1812C14.3604 68.1198 26.0826 77.6636 29.9821 77.3684C33.8815 77.0731 33.544 62.6222 41.5964 68.0888Z" fill="#DD5325"/>
<path d="M25.0605 99.9673L36.8214 116.477L46.9615 110.054L35.3148 89.9233L25.0605 99.9673Z" fill="#E89F8D"/>
<path d="M50.4397 112.959C48.5626 111.202 46.9966 109.088 45.9838 106.664C45.3327 105.105 44.4443 103.697 43.3582 103.693C43.0103 103.691 41.757 109.788 33.0933 111.308C32.9139 112 33.2231 112.73 33.9939 113.664C35.5334 115.529 36.7882 117.652 37.5541 119.987C39.1276 124.786 41.7134 125.459 48.1628 122.289C54.0876 118.278 53.6468 115.962 50.4397 112.959Z" fill="#8DA664"/>
<path d="M42.5735 119.348C42.5735 119.348 39.4728 115.054 36.6868 110.319C33.9012 105.583 39.3496 103.611 41.7779 107.668C44.2065 111.725 46.8251 116.531 46.8251 116.531L42.5735 119.348Z" fill="#98AF74"/>
<path d="M51.2754 117.256C51.2754 117.256 47.4884 115.218 44.3376 117.367C41.1867 119.516 41.6286 122.437 41.6286 122.437C41.6286 122.437 40.2668 122.708 37.8218 120.733C38.1815 121.658 38.622 122.495 39.1579 123.204C40.7174 124.865 43.5267 125.7 48.2543 123.377C52.8308 121.127 53.1478 118.219 52.8763 116.159C52.5971 115.49 52.2013 114.863 51.7262 114.307C51.7666 116.015 51.2754 117.256 51.2754 117.256Z" fill="white"/>
<path d="M39.8936 117.157C39.8936 117.157 41.8588 113.434 46.2637 113.039" stroke="white" stroke-width="0.327087" stroke-miterlimit="10"/>
<path d="M38.4185 115.083C38.4185 115.083 40.3838 111.36 44.7886 110.964" stroke="white" stroke-width="0.327087" stroke-miterlimit="10"/>
<path d="M37.1794 113.116C37.1794 113.116 39.1447 109.393 43.5496 108.997" stroke="white" stroke-width="0.327087" stroke-miterlimit="10"/>
<path d="M36.0747 110.99C36.0747 110.99 38.04 107.267 42.4448 106.871" stroke="white" stroke-width="0.327087" stroke-miterlimit="10"/>
<path d="M41.6267 122.438C45.0894 123.187 50.8809 119.518 51.4264 116.959" stroke="#DAE4FE" stroke-width="0.327087" stroke-miterlimit="10"/>
<path d="M12.2229 72.0555L2.3584 67.4637" stroke="#21262B" stroke-width="0.327087" stroke-miterlimit="10"/>
<path d="M30.9336 108.622L43.1359 99.5707C43.1359 99.5707 26.1339 61.5582 15.7562 68.2041C3.4351 76.0947 20.0794 93.8028 30.9336 108.622Z" fill="#DD5325"/>
<path d="M38.948 90.8456L43.1359 99.5705L41.2897 101.158" stroke="#AB3A15" stroke-width="0.327087" stroke-miterlimit="10"/>
<path d="M34.4007 98.601L25.5143 116.716L14.4446 111.942L22.621 90.27L34.4007 98.601Z" fill="#E89F8D"/>
<path d="M11.4898 115.348C13.0529 113.323 14.25 110.994 14.8498 108.445C15.2351 106.806 15.8802 105.279 16.9515 105.106C17.2945 105.051 19.5376 110.876 28.3409 111.038C28.6322 111.694 28.4476 112.462 27.8407 113.503C26.6285 115.582 25.7398 117.871 25.3691 120.295C24.6073 125.275 22.1657 126.339 15.2758 124.206C8.7658 121.162 8.81888 118.807 11.4898 115.348Z" fill="#8DA664"/>
<path d="M20.3086 120.439C20.3086 120.439 22.6613 115.722 24.6301 110.617C26.5988 105.511 20.8948 104.406 19.1669 108.786C17.439 113.167 15.6465 118.316 15.6465 118.316L20.3086 120.439Z" fill="#98AF74"/>
<path d="M11.3729 119.719C11.3729 119.719 14.775 117.122 18.24 118.756C21.705 120.39 21.7509 123.343 21.7509 123.343C21.7509 123.343 23.1398 123.4 25.2277 121.072C25.0252 122.041 24.7284 122.936 24.3162 123.718C23.0507 125.598 20.4153 126.858 15.3652 125.294C10.4766 123.78 9.68364 120.959 9.61182 118.883C9.77711 118.18 10.0644 117.5 10.4417 116.877C10.6829 118.57 11.3729 119.719 11.3729 119.719Z" fill="white"/>
<path d="M22.5921 117.863C22.5921 117.863 20.0378 114.491 15.624 114.781" stroke="white" stroke-width="0.327087" stroke-miterlimit="10"/>
<path d="M23.7066 115.587C23.7066 115.587 21.1523 112.215 16.7385 112.505" stroke="white" stroke-width="0.327087" stroke-miterlimit="10"/>
<path d="M24.6046 113.454C24.6046 113.454 22.0502 110.082 17.6365 110.372" stroke="white" stroke-width="0.327087" stroke-miterlimit="10"/>
<path d="M25.3458 111.185C25.3458 111.185 22.7914 107.813 18.3777 108.103" stroke="white" stroke-width="0.327087" stroke-miterlimit="10"/>
<path d="M21.751 123.343C18.4564 124.619 12.1339 121.891 11.1733 119.45" stroke="#DAE4FE" stroke-width="0.327087" stroke-miterlimit="10"/>
<path d="M50.9902 58.9868L41.595 68.0888" stroke="#21262B" stroke-width="0.327087" stroke-miterlimit="10"/>
<path d="M29.9652 108.051L16.4263 101.001C16.4263 101.001 26.939 60.849 38.2802 65.8063C51.7447 71.6918 38.2352 91.7445 29.9652 108.051Z" fill="#DD5325"/>
<path d="M27.2375 73.0024C25.2685 77.1371 23.2946 81.6554 21.3976 86.5504C19.4369 91.6101 17.7994 96.4518 16.4263 101.001L18.6408 101.831" stroke="#AB3A15" stroke-width="0.327087" stroke-miterlimit="10"/>
<path d="M42.7305 83.1737L29.9631 108.051" stroke="#AB3A15" stroke-width="0.327087" stroke-miterlimit="10"/>
<path d="M1.11793 74.6708C-4.54516 87.0337 21.685 91.6725 30.0363 95.5882C32.8185 96.8926 37.3148 84.8662 34.3318 84.1211C21.2644 80.8561 5.6964 64.6753 1.11793 74.6708Z" fill="#E89F8D"/>
<path d="M23.3682 90.9982C24.6962 95.223 31.1385 99.0377 32.4839 96.2737C34.9168 96.2425 34.5769 94.0265 34.5769 94.0265C36.9839 94.0652 36.5509 91.5557 36.5509 91.5557C39.9853 89.959 35.841 87.2819 35.841 87.2819C35.841 87.2819 37.1976 85.7101 35.4919 84.2571C33.7522 82.7754 30.5102 80.6533 26.7844 83.2391" fill="#E89F8D"/>
<path d="M32.4866 96.2739L31.4521 95.364" stroke="#AB6453" stroke-width="0.327087" stroke-miterlimit="10" stroke-linecap="round" stroke-linejoin="round"/>
<path d="M34.5781 94.0266L33.7378 93.1506" stroke="#AB6453" stroke-width="0.327087" stroke-miterlimit="10" stroke-linecap="round" stroke-linejoin="round"/>
<path d="M36.5516 91.5559L35.5547 90.5669" stroke="#AB6453" stroke-width="0.327087" stroke-miterlimit="10" stroke-linecap="round" stroke-linejoin="round"/>
<path d="M35.8418 87.2821L33.7378 85.6644" stroke="#AB6453" stroke-width="0.327087" stroke-miterlimit="10" stroke-linecap="round" stroke-linejoin="round"/>
<path d="M56.0236 70.0822C60.545 82.9019 34.0015 85.1732 25.3298 88.3254C22.4408 89.3756 19.0511 76.9954 22.0895 76.5203C35.3991 74.4383 52.3682 59.7174 56.0236 70.0822Z" fill="#E89F8D"/>
<path d="M32.0362 84.7039C29.9642 88.6213 22.9361 91.2178 22.1137 88.2581C19.7264 87.791 20.4623 85.6723 20.4623 85.6723C18.0879 85.2786 18.9686 82.8879 18.9686 82.8879C15.8797 80.7012 20.4415 78.8115 20.4415 78.8115C20.4415 78.8115 19.3918 77.0222 21.3331 75.8992C23.3128 74.7537 26.8866 73.2479 30.0825 76.4595" fill="#E89F8D"/>
<path d="M22.114 88.2577L23.2964 87.5485" stroke="#AB6453" stroke-width="0.327087" stroke-miterlimit="10" stroke-linecap="round" stroke-linejoin="round"/>
<path d="M20.4639 85.6724L21.4493 84.9611" stroke="#AB6453" stroke-width="0.327087" stroke-miterlimit="10" stroke-linecap="round" stroke-linejoin="round"/>
<path d="M18.9702 82.888L20.1298 82.0938" stroke="#AB6453" stroke-width="0.327087" stroke-miterlimit="10" stroke-linecap="round" stroke-linejoin="round"/>
<path d="M20.4414 78.8117L22.8045 77.5977" stroke="#AB6453" stroke-width="0.327087" stroke-miterlimit="10" stroke-linecap="round" stroke-linejoin="round"/>
<path d="M42.8044 68.6765L48.6325 66.1351" stroke="#AB6453" stroke-width="0.327087" stroke-miterlimit="10" stroke-linecap="round" stroke-linejoin="round"/>
<path d="M36.6644 85.4117C34.3729 85.9704 32.1549 86.4694 30.1859 86.9494C27.2937 89.4632 22.7649 90.5983 22.1147 88.2578C19.7274 87.7907 20.4632 85.672 20.4632 85.672C18.0889 85.2783 18.9696 82.8876 18.9696 82.8876C15.8807 80.7009 20.4425 78.8112 20.4425 78.8112C20.4425 78.8112 20.18 78.3639 20.1603 77.7762" stroke="#AB6453" stroke-width="0.327087" stroke-miterlimit="10" stroke-linecap="round" stroke-linejoin="round"/>
<path d="M19.3627 54.5628C15.9317 56.6335 29.0461 61.064 33.4073 53.3097C29.5774 52.1491 20.4291 53.9189 19.3627 54.5628Z" fill="#E89F8D"/>
<path d="M29.587 44.1182L29.9941 53.3894C29.9941 53.3894 27.8343 55.1747 25.6409 55.2711C23.4474 55.3675 21.9434 54.1762 21.9434 54.1762L21.9924 46.6099L29.587 44.1182Z" fill="#E89F8D"/>
<path d="M26.2116 37.3403C29.8012 37.9199 31.6243 38.27 29.7178 44.4705C27.8114 50.6711 25.0609 51.6822 22.1085 51.2556C18.9426 50.7979 18.2168 48.1877 19.2242 43.3067C20.2456 38.3581 20.1317 36.3584 26.2116 37.3403Z" fill="#E89F8D"/>
<path d="M23.9715 43.6174C24.045 43.2616 24.4884 43.4031 24.3445 43.8848C24.1619 44.496 23.3069 44.0702 23.5699 43.2737C23.8391 42.4588 24.9828 42.812 24.7596 43.9477C24.5622 44.9508 23.5924 45.1594 23.3022 44.3233" stroke="#373C40" stroke-width="0.245308" stroke-miterlimit="10" stroke-linecap="round" stroke-linejoin="round"/>
<path d="M20.3829 42.9896C20.4564 42.6338 20.8998 42.7753 20.7558 43.257C20.5732 43.8682 19.7182 43.4424 19.9813 42.6459C20.2505 41.831 21.3942 42.1842 21.1706 43.3199C20.9733 44.323 20.0035 44.5316 19.7136 43.6954" stroke="#373C40" stroke-width="0.245308" stroke-miterlimit="10" stroke-linecap="round" stroke-linejoin="round"/>
<path d="M31.2688 49.1177C30.5975 49.1177 30.0535 48.5766 30.0535 47.9089C30.0535 47.2412 30.5975 46.7001 31.2688 46.7001" stroke="white" stroke-width="0.327087" stroke-miterlimit="10" stroke-linecap="round" stroke-linejoin="round"/>
<path d="M30.2291 43.5886C34.2419 41.2303 32.2827 49.6787 28.9971 47.9396L30.2291 43.5886Z" fill="#E89F8D"/>
<path d="M31.269 46.7007C31.9403 46.7007 32.4843 47.2418 32.4843 47.9095C32.4843 48.5772 31.9403 49.1184 31.269 49.1184" stroke="white" stroke-width="0.327087" stroke-miterlimit="10" stroke-linecap="round" stroke-linejoin="round"/>
<path d="M21.1402 41.3496C21.1402 41.3496 20.5286 41.1756 20.1548 41.5567" stroke="#4D170C" stroke-width="0.327087" stroke-miterlimit="10"/>
<path d="M24.8601 42.4612C24.8601 42.4612 24.5673 41.8997 24.0337 41.889" stroke="#4D170C" stroke-width="0.327087" stroke-miterlimit="10"/>
<path d="M23.4265 47.063C23.4265 47.063 22.1512 46.656 21.1589 47.1605" stroke="#AB6453" stroke-width="0.327087" stroke-miterlimit="10" stroke-linecap="round" stroke-linejoin="round"/>
<path d="M26.1122 50.4237C24.0883 51.3585 22.4288 51.4845 21.9485 51.2739" stroke="#AB6453" stroke-width="0.327087" stroke-miterlimit="10" stroke-linecap="round" stroke-linejoin="round"/>
<path d="M21.4403 45.44C20.66 44.8274 21.2413 43.9698 21.8404 44.4294" stroke="#AB6453" stroke-width="0.327087" stroke-miterlimit="10" stroke-linecap="round" stroke-linejoin="round"/>
<path d="M28.15 42.1668C28.8216 46.9313 29.4576 48.149 30.1072 43.6835C30.5613 40.562 32.7103 36.5355 27.3544 35.193C21.9986 33.8504 19.8919 36.5421 19.5815 38.853C20.3549 39.5052 21.3674 40.6504 28.15 42.1668Z" fill="#762F0E"/>
<path d="M34.6059 53.3184C31.9062 59.5069 18.9983 60.8308 17.873 54.8956" stroke="#21262B" stroke-width="0.327087" stroke-miterlimit="10"/>
<path d="M23.1802 45.1796C23.1802 45.1796 23.254 45.6791 23.6856 45.8203" stroke="#AB6453" stroke-width="0.327087" stroke-miterlimit="10" stroke-linecap="round" stroke-linejoin="round"/>
<path d="M20.6462 44.9066C20.6462 44.9066 20.1509 45.2939 19.8521 45.1687" stroke="#AB6453" stroke-width="0.327087" stroke-miterlimit="10" stroke-linecap="round" stroke-linejoin="round"/>
<path d="M26.9974 35.8857C26.9974 35.8857 25.0976 37.1296 24.5339 39.9438" stroke="#66290C" stroke-width="0.327087" stroke-miterlimit="10"/>
<path d="M25.0746 35.777C25.0746 35.777 22.3054 37.1715 22.3542 39.8967" stroke="#66290C" stroke-width="0.327087" stroke-miterlimit="10"/>
<path d="M22.7062 35.6093C22.7062 35.6093 20.6255 36.1515 20.3982 38.8978" stroke="#66290C" stroke-width="0.327087" stroke-miterlimit="10"/>
<path d="M28.664 37.0184C28.664 37.0184 27.4248 39.0981 27.3406 40.23" stroke="#66290C" stroke-width="0.327087" stroke-miterlimit="10"/>
<path d="M30.0328 38.3269C30.0328 38.3269 28.2547 40.3412 28.975 42.4951" stroke="#66290C" stroke-width="0.327087" stroke-miterlimit="10"/>
<path d="M8.08661 38.6212C7.91267 36.4716 15.0489 34.146 24.0262 33.427C33.0034 32.7079 40.4221 33.8677 40.596 36.0174" stroke="#DEA94D" stroke-width="0.327087" stroke-miterlimit="10"/>
<path d="M9.44924 43.9287C8.56568 41.9592 14.5169 37.4036 22.7419 33.7533C30.9665 30.103 38.3503 28.7407 39.2336 30.7101" stroke="#DEA94D" stroke-width="0.327087" stroke-miterlimit="10"/>
<path d="M11.0428 36.1153C11.0428 36.1153 11.4879 35.8731 11.7723 37.133C12.0568 38.3929 12.6475 37.8256 12.3219 36.7603C11.9962 35.6952 13.5917 35.7847 13.4593 35.2806C13.2983 34.6671 12.0469 35.7796 11.6968 34.4448C11.3466 33.11 10.8576 33.0526 11.1285 34.5922C11.4112 36.1976 9.62098 35.5873 9.7355 36.0232C9.85031 36.4607 11.0428 36.1153 11.0428 36.1153Z" fill="white"/>
<path d="M9.27273 44.4123C9.27273 44.4123 9.58398 44.243 9.78273 45.1239C9.98148 46.0045 10.3946 45.608 10.167 44.8634C9.93937 44.1188 11.0546 44.1813 10.962 43.829C10.8495 43.4 9.97485 44.1776 9.72994 43.2448C9.48504 42.3117 9.1435 42.2715 9.33273 43.3478C9.53033 44.47 8.27898 44.0433 8.35917 44.348C8.43907 44.6539 9.27273 44.4123 9.27273 44.4123Z" fill="white"/>
<path d="M37.4398 38.6836C37.4398 38.6836 37.8849 38.4414 38.1693 39.7016C38.4537 40.9615 39.0445 40.3943 38.7188 39.3289C38.3932 38.2638 39.9886 38.3533 39.8562 37.8492C39.6953 37.2357 38.4439 38.3482 38.0937 37.0134C37.7435 35.6786 37.2546 35.6212 37.5255 37.1608C37.8082 38.7662 36.018 38.1559 36.1325 38.592C36.2473 39.029 37.4398 38.6836 37.4398 38.6836Z" fill="white"/>
<path d="M14.1635 41.4964C14.1635 41.4964 14.5198 41.3025 14.7477 42.3113C14.9753 43.3202 15.4486 42.8659 15.1876 42.0129C14.9268 41.1601 16.2044 41.2316 16.0985 40.8282C15.9696 40.3369 14.9678 41.2276 14.6874 40.1588C14.407 39.0899 14.0156 39.044 14.2325 40.277C14.4586 41.5624 13.0256 41.0738 13.117 41.4227C13.2087 41.773 14.1635 41.4964 14.1635 41.4964Z" fill="white"/>
<path d="M31.1073 30.8138C31.1073 30.8138 31.5524 30.5717 31.8368 31.8319C32.1212 33.0918 32.7123 32.5245 32.3863 31.4591C32.0606 30.394 33.6561 30.4836 33.5237 29.9794C33.3628 29.366 32.1114 30.4784 31.7612 29.1436C31.411 27.8088 30.9221 27.7514 31.1929 29.2911C31.4756 30.8965 29.6854 30.2862 29.8 30.722C29.9148 31.1593 31.1073 30.8138 31.1073 30.8138Z" fill="white"/>
<path d="M26.9532 29.6047L26.4028 24.6885L28.2963 25.2087L28.9843 20.4307L32.2332 21.8866L29.8136 27.1142L28.2891 26.5902L26.9532 29.6047Z" fill="#DD5325"/>
<path d="M22.9351 30.0378L18.8173 24.8673L20.5611 24.0057L18.7209 21.722L20.5674 20.1651L23.3825 24.8799L21.4605 25.9978L22.9351 30.0378Z" fill="#DD5325"/>
<path d="M18.3214 32.4644L14.5711 31.0091L15.2423 30.0217L13.5747 29.3856L14.0919 28.0015L17.0103 29.6166L16.3209 30.7933L18.3214 32.4644Z" fill="#DD5325"/>
</svg>
