<svg xmlns="http://www.w3.org/2000/svg" width="127" height="126" fill="none" viewBox="0 0 127 126"><path fill="#f4f7fa" d="M124.843 53.819C121.409 31.339 107.328 3.721 79.51.83c0 0-21.12-2.569-41.941 1.325-12.357 2.31-23.193 9.19-30.049 19.077-6.856 9.886-9.146 21.942-6.367 33.435C2.96 62.133 4.178 69.86 3.843 77.53c-.421 9.674-1.216 19.846 3.06 28.867 6.266 13.218 21.555 17.111 34.896 18.353 4.916.458 9.85.642 14.77 1.031 9.44.746 20.025-.461 29.123-2.919 46.363-12.524 42.586-46.564 39.151-69.043"/><path fill="url(#a)" d="M112.067 47.15c-.381-.046-.746-.083-1.079-.12-1.033-.115-3.382.032-3.935-1.137-.911-1.929 2.888-4.075 3.961-5.172 1.328-1.358 2.933-2.843 3.534-4.705.915-2.83-.244-7.165-2.373-9.193-2.938-2.797-7.953-2.37-11.418-.961-5.02 2.04-9.138 6.284-11.467 11.13-2.51 5.225-1.848 11.32-3.558 16.79-2.687 8.599-12.77-5.2-15.198 18.388-.536 5.208-.835 10.965 1.108 15.934.806 2.06 2.649 5.076 5.045 5.429 3.396.5 4.245-4.276 5.747-6.247 1.755-2.304 4.303-3.88 6.979-4.896 3.404-1.293 7.243-2.282 9.2-5.664 1.27-2.197.617-4.871-.487-7.02-.608-1.185-2.116-2.71-1.54-4.145.478-1.19 2.407-1.733 3.45-2.194 3.207-1.418 6.37-3.007 9.348-4.863 2.672-1.666 7.113-4.11 7.539-7.642.343-2.842-2.543-3.436-4.856-3.713"/><mask id="b" width="47" height="70" x="70" y="24" maskUnits="userSpaceOnUse" style="mask-type:luminance"><path fill="#fff" d="M112.069 47.15c-.381-.046-.746-.083-1.079-.12-1.033-.115-3.382.032-3.935-1.137-.911-1.929 2.888-4.075 3.961-5.172 1.328-1.358 2.933-2.843 3.534-4.705.915-2.83-.244-7.165-2.373-9.193-2.938-2.797-7.953-2.37-11.418-.961-5.02 2.04-9.138 6.284-11.467 11.13-2.51 5.225-1.848 11.32-3.558 16.79-2.687 8.599-12.77-5.2-15.198 18.388-.536 5.208-.835 10.965 1.108 15.934.806 2.06 2.649 5.076 5.045 5.429 3.396.5 4.245-4.276 5.747-6.247 1.755-2.304 4.302-3.88 6.979-4.896 3.404-1.293 7.243-2.282 9.2-5.664 1.27-2.197.617-4.871-.487-7.02-.609-1.185-2.116-2.71-1.54-4.145.478-1.19 2.407-1.733 3.449-2.194 3.208-1.418 6.371-3.007 9.349-4.863 2.672-1.666 7.113-4.11 7.539-7.642.343-2.842-2.543-3.436-4.856-3.713"/></mask><g fill="#fff" mask="url(#b)" opacity=".8"><path d="M82.077 100.962a.17.17 0 0 1-.092-.052c-4.863-5.294-6.243-12.103-4.218-20.818 1.766-7.597 5.746-15.406 9.595-22.958 3.031-5.947 5.894-11.564 7.194-16.286 1.042-3.783 2.868-7.03 5.429-9.648 2.048-2.095 4.566-3.794 7.485-5.05 4.964-2.136 9.435-2.251 9.48-2.252a.173.173 0 1 1 .007.348c-.044 0-4.457.115-9.361 2.229-4.514 1.945-10.383 6.034-12.704 14.465-1.31 4.757-4.18 10.389-7.22 16.352-7.574 14.861-16.16 31.705-5.431 43.383a.173.173 0 0 1-.164.287"/><path d="M95.129 39.617a.2.2 0 0 1-.051-.02c-.043-.024-1.056-.616-1.95-2.284-.814-1.521-1.679-4.273-1.17-8.74a.174.174 0 1 1 .345.04c-.496 4.359.335 7.033 1.118 8.509.846 1.592 1.82 2.168 1.83 2.174a.174.174 0 0 1-.123.321M91.174 49.955a.174.174 0 0 1 .054-.343c.03.003 3.016.304 7.197-.579a30.5 30.5 0 0 0 14.765-7.812.174.174 0 1 1 .24.252 30.85 30.85 0 0 1-14.947 7.904c-4.232.891-7.261.584-7.292.581zM79.543 74.758a.2.2 0 0 1-.054-.022c-.11-.067-2.707-1.672-4.431-5.002-1.013-1.957-1.505-4.1-1.462-6.371.053-2.83.941-5.865 2.64-9.021a.174.174 0 1 1 .307.165c-3.778 7.016-2.73 12.058-1.184 15.052 1.677 3.25 4.284 4.864 4.31 4.88a.174.174 0 0 1-.126.319M81.736 69.223a.174.174 0 0 1 .05-.344c.14.011 14.035 1.02 18.422-3.395a.174.174 0 0 1 .247.246c-1.895 1.906-5.621 3.074-11.076 3.47-4.044.293-7.585.029-7.62.026z"/></g><path fill="url(#c)" d="M125.335 58.918c-1.199-4.321-4.995-7.594-9.338-8.724-2.645-.688-5.873-.92-8.57-.45-3.793.66-6.925 3.134-9.366 6.002-2.867 3.37-3.136 7.547-4.16 11.695-.202.813-1.528 5.292-2.531 2.667-1.4-3.66-4.522-3.014-4.523-3.014-2.442.505-4.32 2.299-5.223 4.556-2.412 6.029-1.667 13.86-1.157 20.18.24 2.973.61 5.93 1.05 8.877a1.882 1.882 0 0 0 3.29.946 24 24 0 0 1 1.504-1.586c4.647-4.523 11.924-5.193 18.064-5.463 3.585-.158 6.539-.386 9.663-2.311 1.298-.8 2.708-1.782 3.31-3.244.544-1.323.65-3.587-.17-4.817-1.021-1.531-3.288-1.435-4.638-2.563-2.181-1.823 3.523-3.092 4.672-3.46 1.832-.59 3.047-2.05 4.419-3.318 1.048-.967 2.034-2.02 2.795-3.232 2.323-3.703 2.038-8.673.909-12.741"/><mask id="d" width="48" height="54" x="79" y="49" maskUnits="userSpaceOnUse" style="mask-type:luminance"><path fill="#fff" d="M125.332 58.918c-1.199-4.321-4.995-7.594-9.339-8.724-2.644-.688-5.872-.92-8.569-.45-3.794.66-6.925 3.134-9.366 6.002-2.868 3.37-3.136 7.547-4.161 11.695-.201.813-1.527 5.292-2.53 2.667-1.4-3.66-4.522-3.014-4.523-3.014-2.443.505-4.32 2.299-5.223 4.556-2.413 6.029-1.667 13.86-1.157 20.18.24 2.973.61 5.93 1.05 8.877a1.882 1.882 0 0 0 3.29.946 24 24 0 0 1 1.504-1.586c4.647-4.523 11.924-5.193 18.064-5.463 3.585-.158 6.539-.386 9.662-2.311 1.298-.8 2.709-1.782 3.311-3.244.544-1.323.65-3.587-.17-4.817-1.021-1.531-3.288-1.435-4.638-2.563-2.181-1.823 3.523-3.092 4.672-3.46 1.832-.59 3.047-2.05 4.419-3.318 1.048-.967 2.034-2.02 2.795-3.232 2.323-3.703 2.038-8.673.909-12.741"/></mask><g fill="#fff" mask="url(#d)" opacity=".8"><path d="M80.79 103.79a.173.173 0 0 1-.157-.248c.057-.122 5.812-12.281 13.754-24.744 4.667-7.323 9.166-13.318 13.371-17.818 5.273-5.641 10.105-8.941 14.362-9.808a.174.174 0 1 1 .069.341c-4.184.852-8.954 4.117-14.177 9.705-4.191 4.484-8.676 10.462-13.332 17.767-7.93 12.444-13.675 24.584-13.733 24.705a.17.17 0 0 1-.157.1"/><path d="M101.48 68.992q-.015 0-.028-.002a.173.173 0 0 1-.144-.2c.026-.163 2.588-16.43.044-19.175a.174.174 0 0 1 .255-.236c2.659 2.868.152 18.79.044 19.467a.174.174 0 0 1-.171.146M131.885 60.57a.17.17 0 0 1-.092-.026c-6.822-4.264-21.013-2.037-21.156-2.014a.173.173 0 0 1-.199-.144.173.173 0 0 1 .144-.2c.036-.005 3.644-.58 8.055-.613 4.082-.032 9.711.408 13.34 2.676a.174.174 0 0 1-.092.321M86.518 92.684a.174.174 0 0 1-.17-.213c1.862-8.046-5.119-19.777-5.19-19.894a.174.174 0 0 1 .298-.18c.018.03 1.803 3.013 3.33 6.96 1.415 3.655 2.892 8.91 1.901 13.192a.174.174 0 0 1-.17.135M92.29 82.672a.174.174 0 0 1-.055-.34c.063-.02 6.325-2.074 13.909-3.562 7.013-1.375 16.625-2.534 22.593-.244a.174.174 0 0 1-.125.325c-5.89-2.261-15.433-1.106-22.401.26-7.563 1.484-13.805 3.531-13.867 3.552a.2.2 0 0 1-.054.009"/></g><path fill="url(#e)" d="M83.071 111.144c0 2.011-1.427 3.73-3.186 3.833l-67.875 3.962c-2.016.117-3.661-1.546-3.661-3.709V17.864c0-2.163 1.645-3.856 3.661-3.775l67.875 2.75c1.759.072 3.186 1.766 3.186 3.777z"/><path fill="url(#f)" d="M85.064 111.144c0 2.011-1.426 3.73-3.186 3.833l-67.874 3.962c-2.016.117-3.662-1.546-3.662-3.709V17.864c0-2.163 1.646-3.856 3.662-3.775l67.874 2.75c1.76.072 3.186 1.766 3.186 3.777z"/><path fill="url(#g)" d="M12.045 17.926v97.21c0 1.156.876 2.044 1.954 1.983l53.681-3.041 14.194-.805c.942-.053 1.705-.97 1.705-2.049V20.561c0-1.078-.763-1.982-1.705-2.018l-14.706-.57-53.169-2.064c-1.078-.042-1.954.861-1.954 2.017"/><path fill="#eaedf3" d="M82.6 20.493v86.539c0 .401-.3.744-.695.765l-6.95.356-61.013 3.119c-.45.023-.814-.308-.814-.735V17.929c0-.43.368-.765.82-.748l.722.027 67.235 2.529c.395.016.695.354.695.756"/><path fill="#d8dee8" d="m74.965 108.153-61.017 3.119c-.452.023-.82-.308-.82-.735V17.929c0-.43.368-.765.82-.748l.722.027c2.088 2.844 6.42 6.123 15.163 8.931 20.607 6.618-2.756 35.5 23.29 44.789 21.203 7.562 10.39 27.424 21.842 37.225"/><path fill="url(#h)" d="m55.92 113.06-13.804.759c-.738.041-1.337-.471-1.337-1.143v-.05c0-.672.599-1.248 1.337-1.287l13.803-.726c.717-.038 1.298.468 1.298 1.129v.049c0 .661-.58 1.229-1.298 1.269"/><path fill="url(#i)" d="M49.77 17.297c0 .358-.316.635-.706.62-.391-.015-.708-.317-.708-.675s.317-.635.708-.62.706.318.706.675"/><path fill="url(#j)" d="M67.088 116.028c-17.297-2.794-21.11-4.73-22.874-8.276-2.56-5.148-.699-13.481 3.687-18.615 3.847-4.504 8.652-5.39 8.511-8.514-.115-2.57-3.408-2.899-5.825-7.728-.705-1.408-2.074-4.142-1.478-7.436.872-4.823 5.324-7.357 5.685-7.556 4.66-2.56 7.319.382 10.834-1.914 4.402-2.876 2.405-8.911 6.534-10.664 3.006-1.276 6.851.742 7.855 1.269 3.35 1.757 2.998 3.542 5.828 4.633 3.323 1.28 4.91-.755 8.776.056 3.194.67 5.508 2.875 7.397 5.095 4.248 4.993 2.136 7.962 5.274 14.126 4.421 8.682 11.102 7.682 12.289 14.651.62 3.645-.973 5.297.25 10.88.827 3.772 1.867 4.449 2.051 6.668.531 6.38-7.119 11.963-8.546 12.944-9.066 6.231-21.583 4.366-46.248.381"/><path fill="url(#k)" d="M95.188 99.353c-11.656-.837-19.522 9.662-22.636 7.051-2.95-2.473 5.386-10.82 2.537-20.582-2.796-9.577-13.744-11.567-12.88-16.96.978-6.105 15.665-7.694 15.319-12.197-.204-2.657-5.401-3.217-6.44-7.433-.281-1.144-.188-2.279.107-3.34-2.856 2.238-1.558 7.478-5.567 10.097-3.516 2.296-6.175-.646-10.834 1.914-.361.199-4.813 2.734-5.685 7.556-.596 3.294.773 6.028 1.478 7.437 2.417 4.829 5.71 5.157 5.825 7.727.14 3.123-4.664 4.01-8.511 8.514-4.386 5.134-6.248 13.467-3.687 18.615 1.764 3.546 5.577 5.482 22.874 8.276 24.665 3.985 37.182 5.85 46.248-.381 3.52-2.419 7.673-6.555 8.564-10.245-1.779 1.573-3.523 2.336-5.149 2.622-7.562 1.33-11.052-7.917-21.563-8.671" opacity=".3"/><path fill="url(#l)" d="M53.078 117.671c-2.343-3.526-.915-9.026-.614-10.185 1.175-4.526 3.947-7.325 4.958-8.32 6.94-6.84 17.537-6.775 25.563-6.727 8.009.049 12.487.076 17.368 2.843 8.808 4.994 14.865 16.606 11.333 22.304-2.199 3.548-6.468 2.145-31.823 3.028-16.438.573-23.844 1.483-26.785-2.943"/><path fill="url(#m)" d="M78.77 78.863S80.465 91 71.893 93.407c-.988.277-1.291 1.53-.544 2.233l10.57 9.934a1.57 1.57 0 0 0 2.24-.09l9.593-10.598a1.322 1.322 0 0 0-.527-2.128c-3.079-1.133-8.589-4.426-7.433-13.31z"/><path fill="url(#n)" d="M73.516 72.125c.003.133 2.312 11.976 8.242 11.976 5.618 0 7.753-8.721 8.448-12.794l.221-2.078a4.33 4.33 0 0 1-2.465.071c-.258-.07-1.889-.512-2.494-1.856-.674-1.497.566-2.689-.14-3.998-.41-.759-1.236-1.114-1.865-1.296.42.615 1.233 1.987.773 3.234-.31.838-1.174 1.64-3.104 2.13-5.518 1.397-7.67 1.928-7.616 4.611"/><path fill="url(#o)" d="M74.965 73.542s-3.056-2.584-3.323-1.002c-.555 3.297 2.059 5.118 3.478 4.132 1.418-.986-.155-3.13-.155-3.13"/><path fill="url(#p)" d="M88.44 73.542s3.056-2.584 3.322-1.002c.556 3.297-2.058 5.118-3.477 4.132-1.418-.986.155-3.13.155-3.13"/><path fill="#fff" d="M78.935 79.246s2.435 2.896 5.66.18c0 0-4.67.016-5.66-.18"/><path fill="url(#q)" d="M62.01 63.225a.774.774 0 0 1-.773-.774V51.927c0-.428.346-.774.774-.774h8.512a.774.774 0 0 1 0 1.547h-7.738v9.75a.774.774 0 0 1-.774.775"/><path fill="url(#r)" d="M70.523 94.642H62.01a.774.774 0 0 1-.774-.774V83.344a.774.774 0 1 1 1.547 0v9.75h7.739a.774.774 0 1 1 0 1.548"/><path fill="url(#s)" d="M102.554 63.225a.774.774 0 0 1-.774-.774V52.7h-7.738a.774.774 0 0 1 0-1.548h8.512c.427 0 .774.346.774.774V62.45a.774.774 0 0 1-.774.774"/><path fill="url(#t)" d="M102.554 94.642h-8.512a.774.774 0 1 1 0-1.548h7.738v-9.75a.774.774 0 0 1 1.548 0v10.524a.774.774 0 0 1-.774.774"/><path fill="url(#u)" d="M107.039 38.429a2.323 2.323 0 0 1-2.323 2.323H62.443a2.323 2.323 0 0 1-2.323-2.324V13.622a2.323 2.323 0 0 1 2.323-2.323h42.273a2.323 2.323 0 0 1 2.323 2.323z"/><path fill="url(#v)" d="M107.039 13.707v2.386h-46.92v-2.386c0-1.284 1.04-2.408 2.324-2.408h42.29c1.283 0 2.306 1.124 2.306 2.408"/><path fill="#fff" d="M63.35 14.946a1.093 1.093 0 1 0 0-2.185 1.093 1.093 0 0 0 0 2.185M72.026 35.532c-4.342 0-7.875-3.533-7.875-7.875s3.533-7.876 7.875-7.876 7.876 3.533 7.876 7.876c0 4.342-3.533 7.875-7.876 7.875m0-15.066c-3.964 0-7.19 3.226-7.19 7.19 0 3.966 3.226 7.191 7.19 7.191s7.19-3.226 7.19-7.19-3.225-7.19-7.19-7.19M93.51 23.209a.59.59 0 0 1-.59.59h-8.752a.59.59 0 0 1-.59-.59v-.019a.59.59 0 0 1 .59-.59h8.751a.59.59 0 0 1 .59.59zM103.441 28.175a.59.59 0 0 1-.59.59H84.168a.59.59 0 0 1-.59-.59v-.019a.59.59 0 0 1 .59-.59h18.683a.59.59 0 0 1 .59.59zM103.441 30.4a.59.59 0 0 1-.59.59H84.168a.59.59 0 0 1-.59-.59v-.018a.59.59 0 0 1 .59-.59h18.683a.59.59 0 0 1 .59.59zM103.441 32.799a.59.59 0 0 1-.59.59H84.168a.59.59 0 0 1-.59-.59v-.019a.59.59 0 0 1 .59-.59h18.683a.59.59 0 0 1 .59.59z"/><path fill="#fff" d="M69.241 26.186a1.005 1.005 0 1 0-1.984-.323 1.005 1.005 0 0 0 1.984.323M76.429 26.735a1.005 1.005 0 1 0-1.422-1.422 1.005 1.005 0 0 0 1.422 1.422M75.916 28.936c0 1.712-1.73 3.015-3.862 3.015s-3.862-1.303-3.862-3.015z"/><path fill="url(#w)" d="M20.267 63.242s-1.872 1.092-1.314 2.378c.336.773 1.155 1.044 1.755 1.138a.667.667 0 0 0 .764-.594l.108-1.064z"/><path fill="url(#x)" d="M42.737 52.462c-.113 1.048.648 4.07 1.697 4.182l8.637-1.149.41-3.797-8.64-.93a1.91 1.91 0 0 0-2.104 1.694"/><path fill="url(#y)" d="M59.385 45.235a1.91 1.91 0 0 0-2.685.282l-5.469 6.754 2.968 2.403 5.469-6.754a1.91 1.91 0 0 0-.283-2.685"/><path fill="url(#z)" d="M52.612 56.298a2.77 2.77 0 1 0 0-5.541 2.77 2.77 0 0 0 0 5.541"/><path fill="url(#A)" d="M48.716 44.503c2.365 0 4.283-2.695 4.283-6.019s-1.918-6.018-4.283-6.018-4.283 2.694-4.283 6.018 1.918 6.019 4.283 6.019"/><path fill="url(#B)" d="M35.63 23.9h-8.061c-8.265 0-14.965 6.7-14.965 14.965a7.986 7.986 0 0 0 7.985 7.986h22.02a7.986 7.986 0 0 0 7.986-7.986c0-8.265-6.7-14.966-14.965-14.966"/><path fill="url(#C)" d="M35.033 67.758h-6.68c-6.852 0-12.405-5.553-12.405-12.404a6.62 6.62 0 0 1 6.619-6.619h18.251a6.62 6.62 0 0 1 6.62 6.619c0 6.85-5.554 12.404-12.405 12.404"/><path fill="url(#D)" d="M42.943 43.623H27.62c-2.077 0-3.78-1.591-3.78-3.555v-3.01c0-1.964 1.703-3.501 3.78-3.435l15.322.49c1.854.058 3.34 1.585 3.34 3.41v2.797c0 1.824-1.486 3.303-3.34 3.303"/><path fill="#fff" d="M32.525 39.083a.6.6 0 0 1-.01.145h-5.019c-.014-.155-.021-.144-.021-.248 0-1.331 1.145-2.38 2.545-2.341 1.388.039 2.505 1.133 2.505 2.444M42.886 39.228h-4.711c-.001 0-.002 0-.002-.03a2.303 2.303 0 0 1 2.375-2.294c1.294.037 2.334 1.086 2.338 2.324"/><path fill="#fff" d="M37.16 44.752c-2.28-2.678-1.266-4.819-4.246-8.447-4.099-4.993-8.88-4.428-9.976-7.814-.304-.938-.338-2.226.476-4.006-6.244 1.8-10.81 7.557-10.81 14.38a7.986 7.986 0 0 0 7.985 7.986h19.19c-1.149-.627-1.989-1.358-2.62-2.1" opacity=".3"/><path fill="url(#E)" d="M14.753 44.46c2.365 0 4.282-2.694 4.282-6.018s-1.917-6.019-4.282-6.019-4.283 2.695-4.283 6.019 1.917 6.018 4.283 6.018"/><path fill="url(#F)" d="M11.366 41.073c1.034 0 1.872-1.178 1.872-2.632 0-1.453-.838-2.632-1.872-2.632s-1.873 1.179-1.873 2.632.838 2.632 1.873 2.632"/><path fill="url(#G)" d="M36.679 60.93c-.917-4.305-11.056-4.202-11.332-7.015-.212-2.17 5.609-4.317 6.34-4.587q.94-.344 1.862-.593H22.567a6.62 6.62 0 0 0-6.619 6.619c0 6.85 5.553 12.404 12.404 12.404h6.681q.964-.001 1.888-.143c-.581-.72-.96-1.509-1.052-2.369-.203-1.907 1.165-2.648.81-4.317" opacity=".3"/><path fill="url(#H)" d="M31.862 50.38c5.828 0 10.552-.572 10.552-1.277 0-.706-4.724-1.278-10.552-1.278s-10.552.572-10.552 1.278c0 .705 4.725 1.277 10.552 1.277"/><path fill="url(#I)" d="m10.778 55.68 6.533-3.982a2.069 2.069 0 1 1 2.117 3.556L12.8 59.106z"/><path fill="url(#J)" d="m23.681 60.815.278 1.65a.777.777 0 0 1-.834.9c-1.073-.087-2.7.03-3.338 1.382-.168.356-.202.761-.108 1.143l.153.622s-2.995-.987-1.58-4.38c1.112-2.664 3.778-2.24 4.871-1.936.29.08.508.321.558.619"/><path fill="url(#K)" d="m12.118 56.673 6.514 4.014a2.069 2.069 0 1 1-2.207 3.5l-6.442-4.156z"/><path fill="url(#L)" d="M11.434 60.793a2.77 2.77 0 1 0 0-5.542 2.77 2.77 0 0 0 0 5.542"/><path fill="url(#M)" d="m58.75 42.022-1.87-1.346s-.633 1.933-.423 2.457 2.198 2.302 2.198 2.302-.164-1.502.306-2.67a.625.625 0 0 0-.212-.743"/><path fill="url(#N)" d="M56.877 40.676c.172 0 .295.167.241.33-.28.862-.794 3.143 1.43 3.644 2.073.468 2.943-.682 3.667-2.458a.486.486 0 0 1 .659-.255l1.615.77c.27.128.363.467.193.713-.757 1.097-2.883 3.613-5.872 2.591-3.651-1.248-2.487-4.452-2.165-5.184a.25.25 0 0 1 .232-.151"/><path fill="#fff" d="M74.766 64.37a.66.66 0 1 0-.934-.935.66.66 0 0 0 .934.935M77.55 72.417a.66.66 0 1 0-.935-.934.66.66 0 0 0 .934.934M70.28 71.8a.66.66 0 1 0-.935-.935.66.66 0 0 0 .935.934M73.528 81.278a.66.66 0 1 0 0-1.321.66.66 0 0 0 0 1.32M82.45 64.513a.66.66 0 1 0-.506-1.22.66.66 0 0 0 .505 1.22M81.728 86.849a.66.66 0 1 0 0-1.321.66.66 0 0 0 0 1.32M90.706 64.37a.66.66 0 1 0-.935-.935.66.66 0 0 0 .935.935M86.396 72.111a.66.66 0 1 0-1.286-.303.66.66 0 0 0 1.286.303M94.58 72.417a.66.66 0 1 0-.935-.934.66.66 0 0 0 .934.934M89.776 81.278a.66.66 0 1 0 0-1.321.66.66 0 0 0 0 1.32"/><path fill="#fff" d="m81.727 86.283-.044-.03-8.22-5.584-3.733-9.342 4.54-7.496 16.015.005.021.044 3.886 8.077-.017.034-4.342 8.679-.016.011zm-8.138-5.715 8.137 5.528 7.987-5.53 4.307-8.61-3.832-7.965h-7.964l-7.867-.005-4.455 7.355z"/><path fill="#fff" d="M81.737 86.456 77.002 71.94l.02-.03 5.22-8.16 3.594 8.195-.008.027zm-4.565-14.494 4.555 13.962 3.945-13.968-3.456-7.878z"/><path fill="#fff" d="M85.785 72.04h-8.703l-7.254-.617.013-.154 7.248.616h8.713l8.34-.006v.155z"/><path fill="#fff" d="m73.416 80.697.045-.107 3.733-8.937-2.947-7.717.144-.055 2.97 7.774-.013.029-3.7 8.858 16.012-.001-3.993-8.892 4.705-7.786.133.08-4.664 7.716 4.058 9.037z"/><path fill="url(#O)" d="M35.835 110.213c1.442.732 3.254.06 4.047-1.501.793-1.562.266-3.422-1.176-4.154a3 3 0 0 0-.228-.1 18 18 0 0 0 .606-2.606q.123 0 .25-.009c1.645-.147 2.951-1.659 2.917-3.378-.035-1.718-1.397-2.993-3.042-2.846q-.128.013-.255.036a17 17 0 0 0-.704-2.488q.114-.066.225-.142c1.407-.986 1.858-2.933 1.005-4.348s-2.685-1.762-4.093-.776a3 3 0 0 0-.207.16 15 15 0 0 0-1.825-1.704q.07-.113.132-.234c.793-1.561 1.83-3.267.376-3.977-3.363-1.641-4.805-.236-5.598 1.326q-.061.121-.11.245a15 15 0 0 0-2.454-.468q.01-.13.008-.262c-.035-1.718.475-2.649-1.177-2.68-3.601-.07-4.817 1.493-4.782 3.211q.005.135.018.265-1.24.353-2.425.9a3 3 0 0 0-.12-.227c-.853-1.415-2.686-1.762-4.093-.776s-1.858 2.933-1.006 4.348q.067.107.14.207-.936.936-1.746 2.026a3 3 0 0 0-.216-.124c-1.442-.732-3.254-.06-4.047 1.502-.792 1.561-.266 3.42 1.176 4.153q.113.056.228.1-.402 1.298-.606 2.607-.124-.001-.25.009c-1.645.146-2.951 1.658-2.917 3.377s1.397 2.993 3.042 2.846q.128-.013.254-.036.259 1.279.705 2.489-.114.065-.225.141c-1.407.986-1.857 2.933-1.005 4.348s3.675 2.072 5.083 1.086c.072-.05-.85-.415-.783-.47a15 15 0 0 0 1.825 1.704 4 4 0 0 0-.132.234c-.793 1.561-.267 3.421 1.175 4.153s3.254.06 4.047-1.501q.061-.122.11-.246 1.217.339 2.454.468a3 3 0 0 0-.008.262c.035 1.719 1.397 2.993 3.042 2.846 1.646-.146 2.952-1.658 2.917-3.377a3 3 0 0 0-.018-.265 17 17 0 0 0 2.425-.9q.055.116.12.227c.853 1.415 2.686 1.763 4.093.776s1.858-2.933 1.006-4.347a3 3 0 0 0-.14-.208 18 18 0 0 0 1.746-2.026q.104.066.216.124m-17.979.228c-5.236-2.658-7.147-9.41-4.269-15.08 2.88-5.67 9.458-8.11 14.694-5.452 5.236 2.659 7.148 9.41 4.269 15.08s-9.457 8.111-14.694 5.452"/><path fill="url(#P)" d="M39.334 101.843c1.646-.147 2.952-1.659 2.917-3.377-.034-1.719-1.396-2.993-3.042-2.846q-.129.011-.254.036a17 17 0 0 0-.704-2.49 3 3 0 0 0 .224-.14c1.408-.987 3.15-3.37 2.156-4.69-1.885-2.505-3.836-1.42-5.243-.435q-.107.076-.207.16a15 15 0 0 0-1.826-1.703q.07-.113.133-.234c.431-.85.47-1.787.184-2.584a469 469 0 0 0-4.018 7.213c4.177 3.06 5.507 9.093 2.896 14.236-2.212 4.358-6.611 6.805-10.906 6.499-.191.497-.38.996-.584 1.488-.557 1.336-1.19 2.643-1.823 3.949q.597.114 1.2.177-.01.13-.008.262c.035 1.718 1.078 3.178 4.06 3.02 1.65-.088 1.933-1.833 1.899-3.552a3 3 0 0 0-.019-.264 17 17 0 0 0 2.425-.9q.056.114.122.226c.852 1.415 3.81 2.017 5.217 1.03 1.408-.986.733-3.186-.12-4.601a3 3 0 0 0-.14-.207 18 18 0 0 0 1.747-2.027q.104.067.215.124c1.442.733 3.254.06 4.047-1.501.793-1.562.267-3.421-1.175-4.154a3 3 0 0 0-.228-.1 18 18 0 0 0 .605-2.606q.124 0 .25-.009"/><path fill="url(#Q)" d="M37.388 110.389c1.442.733 3.254.06 4.047-1.501.792-1.562.266-3.422-1.176-4.154a3 3 0 0 0-.228-.1 18 18 0 0 0 .606-2.606q.123 0 .25-.009c1.645-.147 2.951-1.659 2.917-3.378-.035-1.718-1.397-2.992-3.042-2.846q-.128.013-.255.037a17 17 0 0 0-.704-2.49q.113-.066.225-.14c1.407-.987 1.857-2.934 1.005-4.349s-2.685-1.762-4.093-.776q-.107.076-.207.16a15 15 0 0 0-1.825-1.703q.07-.114.133-.234c.792-1.562.266-3.422-1.176-4.154-1.443-.732-3.254-.06-4.047 1.502q-.061.121-.11.245a15 15 0 0 0-2.454-.468q.01-.13.008-.262c-.035-1.718-1.397-2.993-3.042-2.846-1.646.147-2.952 1.659-2.917 3.377q.005.135.018.265-1.24.353-2.425.9a3 3 0 0 0-.12-.227c-.853-1.415-2.686-1.762-4.094-.776-1.407.986-1.857 2.933-1.005 4.348q.067.107.14.207-.936.936-1.746 2.027a3 3 0 0 0-.216-.125c-1.442-.732-3.254-.06-4.047 1.502-.792 1.561-.266 3.421 1.176 4.153q.113.056.228.1a18 18 0 0 0-.606 2.607 3 3 0 0 0-.25.009c-1.645.147-2.951 1.658-2.917 3.377s1.397 2.993 3.042 2.846q.129-.013.254-.036.259 1.28.705 2.489-.114.065-.225.141c-1.407.987-1.857 2.933-1.005 4.348s2.685 1.763 4.093.776a3 3 0 0 0 .207-.16 15 15 0 0 0 1.825 1.704 3 3 0 0 0-.132.234c-.793 1.562-.267 3.421 1.175 4.153s3.254.06 4.047-1.501a4 4 0 0 0 .11-.246q1.217.339 2.454.468-.01.13-.008.262c.035 1.719 1.397 2.993 3.042 2.846 1.646-.146 2.952-1.658 2.917-3.377a3 3 0 0 0-.018-.265 17 17 0 0 0 2.425-.9q.055.116.12.227c.853 1.415 2.686 1.763 4.093.776s1.858-2.932 1.006-4.347a3 3 0 0 0-.14-.208 18 18 0 0 0 1.746-2.026q.104.067.216.124m-17.979.228c-5.236-2.658-7.147-9.41-4.269-15.08s9.457-8.11 14.694-5.452c5.236 2.659 7.147 9.41 4.269 15.08-2.88 5.67-9.458 8.111-14.694 5.452"/><defs><linearGradient id="a" x1="102.126" x2="71.951" y1="-3.585" y2="230.023" gradientUnits="userSpaceOnUse"><stop stop-color="#ff9085"/><stop offset="1" stop-color="#fb6fbb"/></linearGradient><linearGradient id="c" x1="108.897" x2="85.44" y1="27.569" y2="209.174" gradientUnits="userSpaceOnUse"><stop stop-color="#ffc444"/><stop offset=".996" stop-color="#f36f56"/></linearGradient><linearGradient id="e" x1="12.651" x2="78.454" y1="31.464" y2="103.975" gradientUnits="userSpaceOnUse"><stop offset=".004" stop-color="#26264f"/><stop offset="1" stop-color="#444b8c"/></linearGradient><linearGradient id="f" x1="11.796" x2="94.492" y1="66.572" y2="64.268" gradientUnits="userSpaceOnUse"><stop stop-color="#444b8c"/><stop offset=".996" stop-color="#26264f"/></linearGradient><linearGradient id="g" x1="70.317" x2="20.249" y1="86.242" y2="45.277" gradientUnits="userSpaceOnUse"><stop stop-color="#444b8c"/><stop offset=".996" stop-color="#26264f"/></linearGradient><linearGradient id="h" x1="49.668" x2="48.301" y1="107.104" y2="117.517" gradientUnits="userSpaceOnUse"><stop stop-color="#444b8c"/><stop offset=".996" stop-color="#26264f"/></linearGradient><linearGradient id="i" x1="48.713" x2="49.487" y1="16.884" y2="17.737" gradientUnits="userSpaceOnUse"><stop stop-color="#ff9085"/><stop offset="1" stop-color="#fb6fbb"/></linearGradient><linearGradient id="j" x1="108.494" x2="87.775" y1="40.013" y2="80.586" gradientUnits="userSpaceOnUse"><stop stop-color="#40447e"/><stop offset=".996" stop-color="#3c3b6b"/></linearGradient><linearGradient id="k" x1="108.459" x2="87.802" y1="40.294" y2="80.749" gradientUnits="userSpaceOnUse"><stop stop-color="#40447e"/><stop offset=".996" stop-color="#3c3b6b"/></linearGradient><linearGradient id="l" x1="85.399" x2="79.757" y1="136.077" y2="95.178" gradientUnits="userSpaceOnUse"><stop stop-color="#ff9085"/><stop offset="1" stop-color="#fb6fbb"/></linearGradient><linearGradient id="m" x1="83.107" x2="81.806" y1="107.256" y2="79.025" gradientUnits="userSpaceOnUse"><stop stop-color="#ffc444"/><stop offset=".996" stop-color="#f36f56"/></linearGradient><linearGradient id="n" x1="81.158" x2="84.048" y1="82.846" y2="39.183" gradientUnits="userSpaceOnUse"><stop stop-color="#ffc444"/><stop offset=".996" stop-color="#f36f56"/></linearGradient><linearGradient id="o" x1="73.117" x2="76.006" y1="82.315" y2="38.651" gradientUnits="userSpaceOnUse"><stop stop-color="#ffc444"/><stop offset=".996" stop-color="#f36f56"/></linearGradient><linearGradient id="p" x1="89.179" x2="92.069" y1="83.378" y2="39.715" gradientUnits="userSpaceOnUse"><stop stop-color="#ffc444"/><stop offset=".996" stop-color="#f36f56"/></linearGradient><linearGradient id="q" x1="67.74" x2="61.795" y1="59.187" y2="51.124" gradientUnits="userSpaceOnUse"><stop stop-color="#aa80f9"/><stop offset=".996" stop-color="#6165d7"/></linearGradient><linearGradient id="r" x1="67.74" x2="61.795" y1="86.607" y2="94.67" gradientUnits="userSpaceOnUse"><stop stop-color="#aa80f9"/><stop offset=".996" stop-color="#6165d7"/></linearGradient><linearGradient id="s" x1="96.824" x2="102.77" y1="59.187" y2="51.124" gradientUnits="userSpaceOnUse"><stop stop-color="#aa80f9"/><stop offset=".996" stop-color="#6165d7"/></linearGradient><linearGradient id="t" x1="96.824" x2="102.77" y1="86.607" y2="94.67" gradientUnits="userSpaceOnUse"><stop stop-color="#aa80f9"/><stop offset=".996" stop-color="#6165d7"/></linearGradient><linearGradient id="u" x1="60.12" x2="107.039" y1="26.025" y2="26.025" gradientUnits="userSpaceOnUse"><stop stop-color="#aa80f9"/><stop offset=".996" stop-color="#6165d7"/></linearGradient><linearGradient id="v" x1="60.12" x2="107.039" y1="13.696" y2="13.696" gradientUnits="userSpaceOnUse"><stop stop-color="#444b8c"/><stop offset=".996" stop-color="#26264f"/></linearGradient><linearGradient id="w" x1="18.849" x2="21.58" y1="65.004" y2="65.004" gradientUnits="userSpaceOnUse"><stop stop-color="#311944"/><stop offset="1" stop-color="#893976"/></linearGradient><linearGradient id="x" x1="42.726" x2="53.48" y1="53.7" y2="53.7" gradientUnits="userSpaceOnUse"><stop stop-color="#fcb148"/><stop offset=".052" stop-color="#fdba46"/><stop offset=".142" stop-color="#ffc244"/><stop offset=".318" stop-color="#ffc444"/><stop offset=".485" stop-color="#fdb946"/><stop offset=".775" stop-color="#f99c4d"/><stop offset=".866" stop-color="#f8924f"/><stop offset="1" stop-color="#f8924f"/></linearGradient><linearGradient id="y" x1="51.231" x2="60.093" y1="49.742" y2="49.742" gradientUnits="userSpaceOnUse"><stop stop-color="#fcb148"/><stop offset=".052" stop-color="#fdba46"/><stop offset=".142" stop-color="#ffc244"/><stop offset=".318" stop-color="#ffc444"/><stop offset=".485" stop-color="#fdb946"/><stop offset=".775" stop-color="#f99c4d"/><stop offset=".866" stop-color="#f8924f"/><stop offset="1" stop-color="#f8924f"/></linearGradient><linearGradient id="z" x1="52.221" x2="53.288" y1="49.897" y2="59.809" gradientUnits="userSpaceOnUse"><stop stop-color="#311944"/><stop offset="1" stop-color="#893976"/></linearGradient><linearGradient id="A" x1="44.433" x2="52.999" y1="38.484" y2="38.484" gradientUnits="userSpaceOnUse"><stop stop-color="#fcb148"/><stop offset=".052" stop-color="#fdba46"/><stop offset=".142" stop-color="#ffc244"/><stop offset=".318" stop-color="#ffc444"/><stop offset=".485" stop-color="#fdb946"/><stop offset=".775" stop-color="#f99c4d"/><stop offset=".866" stop-color="#f8924f"/><stop offset="1" stop-color="#f8924f"/></linearGradient><linearGradient id="B" x1="12.604" x2="50.595" y1="35.375" y2="35.375" gradientUnits="userSpaceOnUse"><stop stop-color="#fcb148"/><stop offset=".052" stop-color="#fdba46"/><stop offset=".142" stop-color="#ffc244"/><stop offset=".318" stop-color="#ffc444"/><stop offset=".485" stop-color="#fdb946"/><stop offset=".775" stop-color="#f99c4d"/><stop offset=".866" stop-color="#f8924f"/><stop offset="1" stop-color="#f8924f"/></linearGradient><linearGradient id="C" x1="15.948" x2="47.437" y1="58.246" y2="58.246" gradientUnits="userSpaceOnUse"><stop stop-color="#fcb148"/><stop offset=".052" stop-color="#fdba46"/><stop offset=".142" stop-color="#ffc244"/><stop offset=".318" stop-color="#ffc444"/><stop offset=".485" stop-color="#fdb946"/><stop offset=".775" stop-color="#f99c4d"/><stop offset=".866" stop-color="#f8924f"/><stop offset="1" stop-color="#f8924f"/></linearGradient><linearGradient id="D" x1="23.841" x2="46.284" y1="38.622" y2="38.622" gradientUnits="userSpaceOnUse"><stop stop-color="#311944"/><stop offset="1" stop-color="#893976"/></linearGradient><linearGradient id="E" x1="10.47" x2="19.035" y1="38.442" y2="38.442" gradientUnits="userSpaceOnUse"><stop stop-color="#fcb148"/><stop offset=".052" stop-color="#fdba46"/><stop offset=".142" stop-color="#ffc244"/><stop offset=".318" stop-color="#ffc444"/><stop offset=".485" stop-color="#fdb946"/><stop offset=".775" stop-color="#f99c4d"/><stop offset=".866" stop-color="#f8924f"/><stop offset="1" stop-color="#f8924f"/></linearGradient><linearGradient id="F" x1="9.493" x2="13.239" y1="38.441" y2="38.441" gradientUnits="userSpaceOnUse"><stop stop-color="#fcb148"/><stop offset=".052" stop-color="#fdba46"/><stop offset=".142" stop-color="#ffc244"/><stop offset=".318" stop-color="#ffc444"/><stop offset=".485" stop-color="#fdb946"/><stop offset=".775" stop-color="#f99c4d"/><stop offset=".866" stop-color="#f8924f"/><stop offset="1" stop-color="#f8924f"/></linearGradient><linearGradient id="G" x1="15.948" x2="36.921" y1="58.246" y2="58.246" gradientUnits="userSpaceOnUse"><stop stop-color="#fcb148"/><stop offset=".052" stop-color="#fdba46"/><stop offset=".142" stop-color="#ffc244"/><stop offset=".318" stop-color="#ffc444"/><stop offset=".485" stop-color="#fdb946"/><stop offset=".775" stop-color="#f99c4d"/><stop offset=".866" stop-color="#f8924f"/><stop offset="1" stop-color="#f8924f"/></linearGradient><linearGradient id="H" x1="21.31" x2="42.414" y1="49.103" y2="49.103" gradientUnits="userSpaceOnUse"><stop stop-color="#fcb148"/><stop offset=".052" stop-color="#fdba46"/><stop offset=".142" stop-color="#ffc244"/><stop offset=".318" stop-color="#ffc444"/><stop offset=".485" stop-color="#fdb946"/><stop offset=".775" stop-color="#f99c4d"/><stop offset=".866" stop-color="#f8924f"/><stop offset="1" stop-color="#f8924f"/></linearGradient><linearGradient id="I" x1="10.778" x2="20.457" y1="55.251" y2="55.251" gradientUnits="userSpaceOnUse"><stop stop-color="#fcb148"/><stop offset=".052" stop-color="#fdba46"/><stop offset=".142" stop-color="#ffc244"/><stop offset=".318" stop-color="#ffc444"/><stop offset=".485" stop-color="#fdb946"/><stop offset=".775" stop-color="#f99c4d"/><stop offset=".866" stop-color="#f8924f"/><stop offset="1" stop-color="#f8924f"/></linearGradient><linearGradient id="J" x1="18.965" x2="22.445" y1="60.994" y2="64.448" gradientUnits="userSpaceOnUse"><stop stop-color="#311944"/><stop offset="1" stop-color="#893976"/></linearGradient><linearGradient id="K" x1="9.983" x2="19.616" y1="60.596" y2="60.596" gradientUnits="userSpaceOnUse"><stop stop-color="#fcb148"/><stop offset=".052" stop-color="#fdba46"/><stop offset=".142" stop-color="#ffc244"/><stop offset=".318" stop-color="#ffc444"/><stop offset=".485" stop-color="#fdb946"/><stop offset=".775" stop-color="#f99c4d"/><stop offset=".866" stop-color="#f8924f"/><stop offset="1" stop-color="#f8924f"/></linearGradient><linearGradient id="L" x1="11.043" x2="12.111" y1="54.392" y2="64.304" gradientUnits="userSpaceOnUse"><stop stop-color="#311944"/><stop offset="1" stop-color="#893976"/></linearGradient><linearGradient id="M" x1="60.387" x2="56.495" y1="41.53" y2="43.797" gradientUnits="userSpaceOnUse"><stop stop-color="#311944"/><stop offset="1" stop-color="#893976"/></linearGradient><linearGradient id="N" x1="56.212" x2="64.768" y1="43.463" y2="43.463" gradientUnits="userSpaceOnUse"><stop stop-color="#311944"/><stop offset="1" stop-color="#893976"/></linearGradient><linearGradient id="O" x1="45.64" x2="23.076" y1="113.038" y2="99.813" gradientUnits="userSpaceOnUse"><stop stop-color="#311944"/><stop offset="1" stop-color="#893976"/></linearGradient><linearGradient id="P" x1="18.301" x2="23.315" y1="97.479" y2="99.736" gradientUnits="userSpaceOnUse"><stop stop-color="#311944"/><stop offset="1" stop-color="#893976"/></linearGradient><linearGradient id="Q" x1="39.728" x2="-15.428" y1="119.487" y2="49.622" gradientUnits="userSpaceOnUse"><stop stop-color="#aa80f9"/><stop offset=".996" stop-color="#6165d7"/></linearGradient></defs></svg>