<svg width="167" height="126" viewBox="0 0 167 126" fill="none" xmlns="http://www.w3.org/2000/svg">
<path d="M148.071 124.185C148.071 124.185 150.313 115.261 155.901 112.506C161.489 109.752 167.453 113.523 165.938 117.488C164.632 120.907 159.263 116.703 155.085 118.356C150.907 120.01 150.248 124.185 150.248 124.185H148.071Z" fill="#40A87B"/>
<path d="M164.858 115.11C164.858 115.11 158.861 111.699 154.411 114.853C149.962 118.007 148.553 124.186 148.553 124.186" stroke="#6ADB6A" stroke-width="0.251314" stroke-miterlimit="10"/>
<path d="M163.893 113.515L162.497 114.122" stroke="#6ADB6A" stroke-width="0.251314" stroke-miterlimit="10"/>
<path d="M161.878 112.214L159.099 113.515" stroke="#6ADB6A" stroke-width="0.251314" stroke-miterlimit="10"/>
<path d="M157.7 112.214L156.254 113.919" stroke="#6ADB6A" stroke-width="0.251314" stroke-miterlimit="10"/>
<path d="M154.962 113.356L154.312 114.926" stroke="#6ADB6A" stroke-width="0.251314" stroke-miterlimit="10"/>
<path d="M163.192 117.283L161.05 113.745" stroke="#6ADB6A" stroke-width="0.251314" stroke-miterlimit="10"/>
<path d="M159.409 116.776L157.445 113.627" stroke="#6ADB6A" stroke-width="0.251314" stroke-miterlimit="10"/>
<path d="M156.074 116.293L153.121 115.927" stroke="#6ADB6A" stroke-width="0.251314" stroke-miterlimit="10"/>
<path d="M152.634 118.079L150.941 118.634" stroke="#6ADB6A" stroke-width="0.251314" stroke-miterlimit="10"/>
<path d="M147.067 123.905C147.067 123.905 145.485 93.9889 159.801 97.844C174.117 101.699 148.634 117.822 148.655 123.905H147.067Z" fill="#6ADB6A"/>
<path d="M147.647 123.904C147.647 123.904 148.147 108.274 158.352 100.546" stroke="#40A87B" stroke-width="0.251314" stroke-miterlimit="10"/>
<path d="M153.878 105.078L154.133 99.6885" stroke="#40A87B" stroke-width="0.251314" stroke-miterlimit="10"/>
<path d="M161.884 102.845L154.986 103.742" stroke="#40A87B" stroke-width="0.251314" stroke-miterlimit="10"/>
<path d="M159.203 107.445L151.91 108.293" stroke="#40A87B" stroke-width="0.251314" stroke-miterlimit="10"/>
<path d="M155.555 112.004L149.921 112.798" stroke="#40A87B" stroke-width="0.251314" stroke-miterlimit="10"/>
<path d="M149.382 107.744L150.673 110.875" stroke="#40A87B" stroke-width="0.251314" stroke-miterlimit="10"/>
<path d="M151.501 102.663L152.602 107.071" stroke="#40A87B" stroke-width="0.251314" stroke-miterlimit="10"/>
<path d="M148.176 112.971L149.205 115.017" stroke="#40A87B" stroke-width="0.251314" stroke-miterlimit="10"/>
<path d="M152.602 116.229L148.565 117.499" stroke="#40A87B" stroke-width="0.251314" stroke-miterlimit="10"/>
<path d="M134.939 123.279C134.939 123.279 181.794 -8.40353 95.811 0.510012C58.984 4.32772 65.8589 27.489 49.594 49.1599C39.0513 63.2067 18.7745 51.7156 11.176 63.9901C3.57752 76.2647 12.507 111.264 15.6394 123.279H134.939Z" fill="#E5F0F8"/>
<path d="M103.766 122.686H33.85C31.3094 122.686 29.2498 120.63 29.2498 118.094V18.4629C29.2498 15.9271 31.3094 13.8714 33.85 13.8714H103.766C106.307 13.8714 108.366 15.9271 108.366 18.4629V118.094C108.366 120.63 106.307 122.686 103.766 122.686Z" fill="#586773"/>
<path d="M106.414 122.686H36.4977C33.9571 122.686 31.8975 120.63 31.8975 118.094V18.4629C31.8975 15.9271 33.9571 13.8714 36.4977 13.8714H106.414C108.954 13.8714 111.014 15.9271 111.014 18.4629V118.094C111.014 120.63 108.955 122.686 106.414 122.686Z" fill="#93ACBF"/>
<path d="M106.43 113.061H36.4788C36.4225 113.061 36.3661 113.052 36.3145 113.033C36.0703 112.967 35.8918 112.743 35.8918 112.475V18.4466C35.8918 18.1184 36.1548 17.8561 36.4788 17.8561H106.43C106.759 17.8561 107.022 18.1184 107.022 18.4466V112.475C107.022 112.799 106.759 113.061 106.43 113.061Z" fill="#586773"/>
<path d="M106.278 18.5968H36.6335V112.322H106.278V18.5968Z" fill="#E5F0F8"/>
<path d="M63.6682 117.888C63.6682 116.773 64.5818 115.861 65.6984 115.861H77.2129C78.3295 115.861 79.243 116.773 79.243 117.888C79.243 119.002 78.3294 119.914 77.2129 119.914H65.6984C64.5818 119.914 63.6682 119.002 63.6682 117.888Z" fill="#BBDBF3"/>
<path d="M106.278 18.5968H36.6335V25.0809H106.278V18.5968Z" fill="#BBDBF3"/>
<path d="M41.6852 22.1285C41.8473 21.4479 41.4258 20.765 40.7439 20.6033C40.062 20.4416 39.3778 20.8622 39.2158 21.5428C39.0537 22.2234 39.4752 22.9063 40.1571 23.068C40.839 23.2297 41.5232 22.8091 41.6852 22.1285Z" fill="white"/>
<path d="M45.3581 22.1285C45.5201 21.4479 45.0987 20.765 44.4168 20.6033C43.7348 20.4416 43.0507 20.8622 42.8886 21.5428C42.7266 22.2234 43.148 22.9063 43.8299 23.068C44.5118 23.2297 45.196 22.8091 45.3581 22.1285Z" fill="white"/>
<path d="M49.0321 22.1285C49.1942 21.4479 48.7727 20.765 48.0908 20.6033C47.4089 20.4416 46.7248 20.8622 46.5627 21.5428C46.4007 22.2234 46.8221 22.9063 47.504 23.068C48.1859 23.2297 48.8701 22.8091 49.0321 22.1285Z" fill="white"/>
<path d="M36.4479 71.7335L38.6123 72.6956L39.9839 69.6214L37.8195 68.6594L36.4479 71.7335Z" fill="#F2BB16"/>
<path d="M38.3186 67.5119L40.491 68.4774L41.905 66.3098L38.9706 65.0056L38.3186 67.5119Z" fill="#F2BB16"/>
<path d="M35.8131 69.2608L40.8702 71.5085C41.1058 71.6133 41.3819 71.5075 41.4868 71.2723L42.3487 69.3405C42.4537 69.1053 42.3477 68.8298 42.1121 68.725L37.0549 66.4773C36.8192 66.3726 36.5432 66.4783 36.4383 66.7136L35.5764 68.6454C35.4715 68.8806 35.5774 69.1561 35.8131 69.2608Z" fill="#F9E181"/>
<path d="M41.4248 69.1392L40.7209 70.7181L40.9265 70.8094L41.6303 69.2305L41.4248 69.1392Z" fill="#F2BB16"/>
<path d="M40.6903 68.8103L39.9861 70.3888L40.1916 70.4801L40.8958 68.9017L40.6903 68.8103Z" fill="#F2BB16"/>
<path d="M39.9522 68.4817L39.2478 70.0604L39.4533 70.1518L40.1577 68.5731L39.9522 68.4817Z" fill="#F2BB16"/>
<path d="M39.2138 68.1542L38.5095 69.7327L38.715 69.824L39.4193 68.2455L39.2138 68.1542Z" fill="#F2BB16"/>
<path d="M38.4756 67.8251L37.7712 69.4038L37.9767 69.4951L38.6811 67.9165L38.4756 67.8251Z" fill="#F2BB16"/>
<path d="M37.7373 67.4961L37.033 69.0748L37.2384 69.1662L37.9428 67.5875L37.7373 67.4961Z" fill="#F2BB16"/>
<path d="M36.9991 67.1679L36.2947 68.7467L36.5002 68.838L37.2046 67.2593L36.9991 67.1679Z" fill="#F2BB16"/>
<path d="M38.4602 64.86L42.3829 66.6035C42.5237 66.666 42.6887 66.6029 42.7515 66.4622L42.7654 66.4312C42.8281 66.2907 42.7648 66.126 42.6239 66.0633L38.701 64.3198C38.5602 64.2572 38.3952 64.3204 38.3324 64.461L38.3186 64.492C38.256 64.6327 38.3193 64.7974 38.4602 64.86Z" fill="#F9E181"/>
<path d="M14.7127 73.1102L16.8423 72.0737L15.3645 69.0491L13.2349 70.0856L14.7127 73.1102Z" fill="#F2BB16"/>
<path d="M12.6772 68.9628L14.8146 67.9224L14.0598 65.448L11.1726 66.8533L12.6772 68.9628Z" fill="#F2BB16"/>
<path d="M12.4132 72.0023L17.3891 69.5804C17.6209 69.4676 17.7172 69.1885 17.6041 68.9571L16.6755 67.0565C16.5624 66.8251 16.2828 66.729 16.051 66.8418L11.0752 69.2637C10.8433 69.3765 10.747 69.6555 10.8601 69.8869L11.7888 71.7877C11.9017 72.019 12.1814 72.1151 12.4132 72.0023Z" fill="#F9E181"/>
<path d="M16.1387 67.5335L15.9365 67.632L16.696 69.1851L16.8981 69.0867L16.1387 67.5335Z" fill="#F2BB16"/>
<path d="M15.4075 67.8841L15.2053 67.9825L15.9641 69.5356L16.1663 69.4372L15.4075 67.8841Z" fill="#F2BB16"/>
<path d="M14.6814 68.237L14.4792 68.3354L15.2382 69.8888L15.4404 69.7904L14.6814 68.237Z" fill="#F2BB16"/>
<path d="M13.9556 68.5913L13.7534 68.6897L14.5122 70.2428L14.7144 70.1444L13.9556 68.5913Z" fill="#F2BB16"/>
<path d="M13.2298 68.9446L13.0276 69.043L13.7865 70.5963L13.9887 70.4979L13.2298 68.9446Z" fill="#F2BB16"/>
<path d="M12.5017 69.2983L12.2996 69.3967L13.0585 70.9501L13.2607 70.8517L12.5017 69.2983Z" fill="#F2BB16"/>
<path d="M11.7723 69.6523L11.5701 69.7507L12.329 71.3041L12.5312 71.2057L11.7723 69.6523Z" fill="#F2BB16"/>
<path d="M10.7315 67.153L14.5911 65.2744C14.7296 65.2069 14.7872 65.0401 14.7197 64.9018L14.7047 64.8713C14.6371 64.733 14.47 64.6755 14.3314 64.743L10.4718 66.6216C10.3333 66.689 10.2757 66.8558 10.3432 66.9941L10.3581 67.0246C10.4258 67.163 10.5929 67.2204 10.7315 67.153Z" fill="#F9E181"/>
<path d="M25.4292 70.0217L27.7981 69.9806L27.7394 66.616L25.3705 66.6572L25.4292 70.0217Z" fill="#F2BB16"/>
<path d="M25.8269 58.5086L26.9919 58.4884L26.9651 56.9476L25.8001 56.9678L25.8269 58.5086Z" fill="#F2BB16"/>
<path d="M27.0593 122.685C42.0038 122.685 54.1187 110.594 54.1187 95.6779C54.1187 80.762 42.0038 68.6703 27.0593 68.6703C12.1149 68.6703 0 80.762 0 95.6779C0 110.594 12.1149 122.685 27.0593 122.685Z" fill="#F9E181"/>
<path d="M27.4891 120.455C41.1776 120.218 52.1205 108.909 51.8824 95.2467C51.6443 81.5844 40.3141 70.6632 26.6255 70.9009C12.937 71.1386 1.99495 82.4463 2.23306 96.1087C2.47109 109.771 13.8005 120.693 27.4891 120.455Z" fill="#F2BB16"/>
<path d="M22.4302 60.1796L22.4918 63.7137C22.495 63.8936 22.6148 64.0535 22.7872 64.1134L26.5315 65.3798L30.2296 63.9841C30.3996 63.9182 30.5138 63.7543 30.5107 63.5744L30.4491 60.0403C30.4462 59.8784 30.3538 59.7361 30.2082 59.6667L26.5982 57.8313C26.471 57.7705 26.327 57.773 26.1927 57.8383L22.6489 59.7979C22.5151 59.8723 22.4275 60.0177 22.4302 60.1796ZM23.1997 60.3642L26.4132 58.5902L29.6868 60.2516L29.7408 63.3451L26.5174 64.5704L23.2536 63.4577L23.1997 60.3642Z" fill="#F9E181"/>
<path d="M47.1773 108.183C43.0634 114.771 35.8106 119.203 27.4756 119.339C14.392 119.567 3.57729 109.137 3.34551 96.0909C3.2338 89.5273 5.826 83.5322 10.0889 79.1673C14.2986 74.8438 20.1469 72.1138 26.6509 72.0106C39.718 71.7922 50.5455 82.2257 50.7643 95.2678C50.8432 100.004 49.5309 104.445 47.1773 108.183Z" fill="#E5F0F8"/>
<path d="M27.0703 95.678L26.853 72.0123C26.7862 72.0128 26.7203 72.0094 26.6533 72.0106C20.1494 72.1139 14.301 74.8439 10.0914 79.1674C7.75095 82.9088 6.42557 87.3463 6.5043 92.0822C6.73616 105.128 17.5638 115.561 30.6344 115.33C37.1253 115.223 42.9736 112.493 47.1797 108.183C49.4647 104.554 50.7566 100.259 50.7586 95.6779L27.0703 95.678Z" fill="white"/>
<path d="M50.7606 95.6781C50.7606 95.5407 50.7711 95.4058 50.7688 95.2679C50.5511 82.2927 39.8321 71.9036 26.855 72.0124L27.0723 95.6781L50.7606 95.6781Z" fill="white"/>
<path d="M25.5859 74.9448C25.5966 75.5589 26.104 76.048 26.7193 76.0374C27.3346 76.0267 27.8246 75.5202 27.814 74.9061C27.8033 74.292 27.2958 73.8029 26.6806 73.8135C26.0653 73.8242 25.5752 74.3307 25.5859 74.9448Z" fill="#BBDBF3"/>
<path d="M42.5628 81.0854C42.7519 80.501 42.4305 79.8742 41.8449 79.6855C41.2593 79.4967 40.6313 79.8175 40.4422 80.402C40.2531 80.9864 40.5746 81.6132 41.1601 81.8019C41.7457 81.9907 42.3737 81.6699 42.5628 81.0854Z" fill="#BBDBF3"/>
<path d="M47.8319 94.205C47.2167 94.2157 46.7266 94.7222 46.7372 95.3363C46.7479 95.9504 47.2554 96.4395 47.8707 96.4289C48.4859 96.4182 48.976 95.9117 48.9654 95.2976C48.9546 94.6835 48.4472 94.1943 47.8319 94.205Z" fill="#BBDBF3"/>
<path d="M43.0973 110.401C43.263 109.81 42.9169 109.196 42.3243 109.031C41.7317 108.865 41.1169 109.211 40.9512 109.802C40.7855 110.394 41.1316 111.007 41.7242 111.173C42.3168 111.338 42.9316 110.993 43.0973 110.401Z" fill="#BBDBF3"/>
<path d="M25.3427 65.4006L27.7204 65.3593L28.0841 62.7983L24.8723 62.8541L25.3427 65.4006Z" fill="#F2BB16"/>
<path d="M28.5404 116.482C28.5746 115.869 28.1043 115.344 27.4898 115.31C26.8754 115.276 26.3496 115.745 26.3154 116.359C26.2812 116.972 26.7515 117.497 27.3659 117.531C27.9804 117.565 28.5062 117.096 28.5404 116.482Z" fill="#BBDBF3"/>
<path d="M12.6827 111.716C13.2966 111.674 13.7598 111.143 13.7174 110.53C13.6749 109.918 13.1429 109.455 12.529 109.498C11.9151 109.54 11.4519 110.071 11.4944 110.684C11.5368 111.296 12.0689 111.759 12.6827 111.716Z" fill="#BBDBF3"/>
<path d="M7.37249 96.2055C7.46806 95.5988 7.05273 95.0296 6.44483 94.9342C5.83692 94.8389 5.26664 95.2534 5.17108 95.8601C5.07552 96.4669 5.49086 97.0361 6.09876 97.1314C6.70666 97.2268 7.27693 96.8123 7.37249 96.2055Z" fill="#BBDBF3"/>
<path d="M13.1541 81.6089C13.3452 81.0251 13.026 80.3972 12.4411 80.2065C11.8562 80.0157 11.2271 80.3343 11.036 80.9181C10.8449 81.5019 11.1641 82.1297 11.749 82.3205C12.3339 82.5113 12.963 82.1927 13.1541 81.6089Z" fill="#BBDBF3"/>
<path d="M28.5579 96.9953C29.2831 96.1711 29.2015 94.9163 28.3758 94.1925C27.5501 93.4687 26.2929 93.5501 25.5677 94.3742C24.8425 95.1984 24.924 96.4532 25.7497 97.177C26.5755 97.9008 27.8327 97.8194 28.5579 96.9953Z" fill="#F9E181"/>
<path d="M27.565 81.2793L26.7721 79.1678L26.053 81.3056L26.5438 81.297L26.7946 95.6827L27.3255 95.6734L27.0747 81.2878L27.565 81.2793Z" fill="#F9E181"/>
<path d="M27.0579 95.4134L27.0579 95.9434L36.0438 95.9439L36.0439 96.4192L38.1729 95.6649L36.0439 94.9099V95.4139L27.0579 95.4134Z" fill="#F9E181"/>
<path d="M23.8067 68.0426L29.3417 67.9465C29.5996 67.942 29.805 67.7297 29.8006 67.4723L29.7637 65.3581C29.7592 65.1006 29.5465 64.8956 29.2887 64.9001L23.7536 64.9962C23.4957 65.0006 23.2903 65.213 23.2947 65.4703L23.3316 67.5846C23.336 67.842 23.5487 68.047 23.8067 68.0426Z" fill="#F9E181"/>
<path d="M29.0758 65.5563L28.8513 65.5603L28.882 67.2882L29.1064 67.2842L29.0758 65.5563Z" fill="#F2BB16"/>
<path d="M28.2589 65.5735L28.0344 65.5774L28.0644 67.305L28.2888 67.3011L28.2589 65.5735Z" fill="#F2BB16"/>
<path d="M27.4486 65.5876L27.2241 65.5914L27.2541 67.3193L27.4785 67.3154L27.4486 65.5876Z" fill="#F2BB16"/>
<path d="M26.6395 65.6017L26.415 65.6056L26.445 67.3332L26.6695 67.3293L26.6395 65.6017Z" fill="#F2BB16"/>
<path d="M25.8329 65.6155L25.6084 65.6194L25.6384 67.3472L25.8628 67.3433L25.8329 65.6155Z" fill="#F2BB16"/>
<path d="M25.0226 65.6295L24.7981 65.6334L24.8281 67.3612L25.0525 67.3574L25.0226 65.6295Z" fill="#F2BB16"/>
<path d="M24.2154 65.6432L23.991 65.6471L24.0209 67.3749L24.2454 67.371L24.2154 65.6432Z" fill="#F2BB16"/>
<path d="M24.3428 62.9391L28.6362 62.8646C28.7904 62.8619 28.9132 62.735 28.9105 62.5811L28.9099 62.5473C28.9072 62.3934 28.7801 62.2709 28.6259 62.2735L24.3325 62.348C24.1783 62.3507 24.0554 62.4776 24.0581 62.6315L24.0587 62.6653C24.0614 62.8192 24.1885 62.9417 24.3428 62.9391Z" fill="#F9E181"/>
<path d="M25.8278 57.1049L26.9504 57.0854C27.029 57.0841 27.0922 57.0187 27.0908 56.9403C27.0895 56.8618 27.024 56.7988 26.9454 56.8002L25.8228 56.8196C25.7442 56.821 25.681 56.8863 25.6824 56.9647C25.6837 57.0432 25.7491 57.1062 25.8278 57.1049Z" fill="#F9E181"/>
<path d="M84.7619 41.7794L73.4653 41.5879L74.0571 29.749L74.3396 24.0875L74.3557 23.8056L83.1945 20.0969L83.4824 24.0982L83.6956 27.014L84.7619 41.7794Z" fill="#F5AC97"/>
<path d="M83.8706 74.3127C83.8706 74.3127 83.6814 75.3543 83.3592 77.1275C83.2351 77.8091 83.0902 78.6028 82.9306 79.485C81.8693 85.3477 80.0927 95.2113 78.579 103.85V103.859C78.047 106.91 77.5443 109.808 77.1186 112.321H58.5657L61.1849 90.697L62.5417 79.485L62.6689 78.4257L74.6207 76.1066L77.2073 75.605L83.8706 74.3127Z" fill="#088CFC"/>
<path d="M97.2506 112.321H79.4544L78.5793 103.853V103.85L78.1802 99.9704L76.1079 96.9136L76.0814 90.815L76.0311 79.4849L76.0222 77.6202L77.2225 77.5405L83.3595 77.1275L85.4968 76.9829L87.3769 76.859L93.4696 76.4489L93.7889 79.4849L94.5899 87.0885L94.9122 90.1392L97.2506 112.321Z" fill="#088CFC"/>
<path d="M79.2579 36.8282C83.4027 36.9194 85.4201 34.6499 85.8545 33.6491L84.0524 33.1632L73.9007 32.8414L72.6692 33.2349C73.1889 34.2007 75.0233 36.7352 79.2579 36.8282Z" fill="#F5AC97"/>
<path d="M101.362 77.5818L99.8064 80.6206C99.7408 80.7488 99.7414 80.9009 99.8083 81.0286L101.207 83.7C101.299 83.8761 101.497 83.9697 101.692 83.9294L104.279 83.394C104.616 83.3242 104.902 83.6469 104.791 83.9725L104.1 85.9962C104.053 86.1352 103.94 86.2418 103.798 86.2812L101.171 87.0096C101.1 87.0294 101.025 87.0311 100.953 87.0147L95.5112 85.7742L92.5818 75.7014L96.8411 72.5521L101.362 77.5818Z" fill="#EA9D85"/>
<path d="M104.663 84.3479L101.196 85.1875L99.7974 84.0613" stroke="#332B27" stroke-width="0.195513" stroke-miterlimit="10"/>
<path d="M104.31 85.3877L101.182 86.0123L99.1477 84.8226" stroke="#332B27" stroke-width="0.195513" stroke-miterlimit="10"/>
<path d="M93.9657 62.567L93.7875 79.4852H62.5376L62.6818 36.8326L73.6312 32.8837C73.7539 33.1081 73.8868 33.3429 74.0503 33.5877L74.0911 33.6387C74.6841 34.3938 75.8189 35.1081 78.9985 35.1795C81.6463 35.2408 82.9447 34.8734 83.6807 34.3938L83.691 34.3836C84.0897 34.1183 84.4066 33.5944 84.5907 33.3088L94.8448 35.7918L94.1496 57.3222L93.9657 62.567Z" fill="#BBDBF3"/>
<path d="M85.8528 33.649C85.8528 33.649 84.966 49.4333 85.0936 58.5569C85.2214 67.6805 85.8528 90.7372 85.8528 90.7372C85.8528 90.7372 91.6418 90.8593 96.9668 89.7831C96.9668 89.7831 97.047 79.3378 95.5789 72.1342C94.1107 64.9305 94.1344 35.2369 94.1344 35.2369L85.8528 33.649Z" fill="#F74242"/>
<path d="M116.131 60.5331L116.086 60.5876C114.083 62.9841 110.479 63.3093 108.078 61.3102L88.5144 45.0217C86.1133 43.0226 85.7876 39.4262 87.7905 37.0297L87.836 36.9751C89.839 34.5786 93.4423 34.2535 95.8433 36.2526L115.407 52.541C117.808 54.5403 118.134 58.1366 116.131 60.5331Z" fill="#F74242"/>
<path d="M85.4075 17.462C85.4075 17.462 86.9094 13.7195 85.0689 14.0622C83.2284 14.4049 85.4075 17.462 85.4075 17.462Z" fill="#322A28"/>
<path d="M72.6681 33.2349C72.6681 33.2349 76.9415 55.3469 77.0851 66.3372C77.2287 77.3274 77.2287 77.3274 77.2287 77.3274L76.7393 90.737C76.7393 90.737 64.8334 92.2101 60.6709 90.5157C60.6709 90.5157 60.3804 74.5977 61.4866 68.9617C62.5929 63.3257 62.6825 36.8326 62.6825 36.8326L72.6681 33.2349Z" fill="#F74242"/>
<path d="M84.0038 31.3286L77.6538 26.7074L83.6922 27.0139L84.0038 31.3286Z" fill="#E99C84"/>
<path d="M22.4712 53.0797C22.6361 52.6065 25.6783 52.5694 27.7962 53.2359C29.5916 53.7986 33.5908 55.5408 34.7659 56.0627L32.7128 63.242C31.966 63.129 30.4176 63.0463 29.7131 62.8959C27.8386 62.4956 24.2374 61.0446 24.3243 60.3473C24.4048 59.656 27.6792 60.2425 27.4755 59.9218C27.2717 59.6012 24.852 58.3635 23.765 58.2934C22.672 58.2169 20.3126 58.4386 19.969 57.904C19.6192 57.3629 20.2599 56.6735 20.2599 56.6735C20.2599 56.6735 19.3666 56.8622 19.3507 56.2842C19.3348 55.7061 20.6508 55.0657 20.6508 55.0657C20.6508 55.0657 20.171 55.2264 20.3113 54.5865C20.4578 53.9406 22.7394 53.6607 22.7394 53.6607C22.7394 53.6607 22.2939 53.5525 22.4712 53.0797Z" fill="#F5AC97"/>
<path d="M74.8659 87.491C74.8659 87.491 66.1996 88.9235 62.1621 87.491" stroke="white" stroke-width="0.301893" stroke-miterlimit="10" stroke-linecap="round" stroke-linejoin="round"/>
<path d="M85.2842 14.5192C85.2842 14.5192 85.6437 18.2911 85.8986 20.967L86.1093 23.1785C86.2758 24.9259 86.0318 27.5645 84.1186 28.3512C82.2117 29.1372 79.427 28.5753 77.3459 26.7103C75.2641 24.839 70.1982 16.0031 75.6938 12.0397C81.1959 8.0758 85.0626 13.6293 85.2842 14.5192Z" fill="#F5AC97"/>
<path d="M74.1547 27.2217C74.1547 27.2217 75.5869 24.8319 75.4902 23.5299C75.3934 22.228 76.8887 20.7631 76.6475 18.7635C76.4063 16.7639 76.3098 15.9214 77.3469 16.0176C78.3839 16.1139 85.7156 17.7508 85.9085 14.2845C86.1015 10.8182 77.439 7.47237 73.9441 13.3458C73.9441 13.3458 71.6205 13.2396 72.3304 18.1565C73.0403 23.0732 74.0737 23.9108 74.1547 27.2217Z" fill="#322A28"/>
<path d="M76.3552 22.5792C77.1405 23.5826 77.3946 24.3172 76.6054 24.9326C75.816 25.5479 74.4026 25.5114 73.6173 24.508C72.8321 23.5045 72.8353 22.1923 73.6247 21.5769C74.4139 20.9615 75.5699 21.5758 76.3552 22.5792Z" fill="#F5AC97"/>
<path d="M80.5162 19.9229C80.5548 20.3283 80.7991 20.6367 81.0617 20.6116C81.3245 20.5867 81.5061 20.2379 81.4675 19.8326C81.4289 19.4272 81.1846 19.1189 80.9219 19.1439C80.6592 19.1689 80.4775 19.5177 80.5162 19.9229Z" fill="#332B27"/>
<path d="M102.548 79.7891L116.662 60.1328C118.268 57.7479 117.375 54.309 114.669 52.4833C111.962 50.6646 108.427 51.1271 106.814 53.5104L93.3054 74.2815L102.548 79.7891Z" fill="#F74242"/>
<path d="M85.0248 20.2329C85.2875 20.2079 85.4691 19.8591 85.4305 19.4538C85.3918 19.0485 85.1476 18.7401 84.8849 18.7651C84.6222 18.79 84.4405 19.1388 84.4791 19.5441C84.5178 19.9495 84.762 20.2578 85.0248 20.2329Z" fill="#332B27"/>
<path d="M81.5293 22.5275C81.4398 22.9118 80.7468 23.0793 79.9813 22.9018C79.2159 22.7243 78.6679 22.2688 78.7574 21.8846C78.8468 21.5003 79.5399 21.3328 80.3053 21.5103C81.0709 21.6879 81.6188 22.1434 81.5293 22.5275Z" fill="#E99C84"/>
<path d="M85.8977 20.9671L86.0348 22.405C85.4344 22.5335 84.9209 22.4131 84.8068 22.1052C84.6807 21.7397 85.1668 21.2316 85.8977 20.9671Z" fill="#E99C84"/>
<path d="M74.4943 23.6577C75.1456 23.4698 75.7028 23.543 75.7028 23.543C75.0066 22.4951 74.1555 22.7055 74.1555 22.7055" stroke="#E99C84" stroke-width="0.294129" stroke-miterlimit="10" stroke-linecap="round" stroke-linejoin="round"/>
<path d="M82.5635 20.0118L83.7064 22.5149C83.8221 22.7685 83.75 23.0682 83.5314 23.2417L83.193 23.5101L82.8462 23.7853" stroke="#322A28" stroke-width="0.188144" stroke-miterlimit="10"/>
<path d="M79.8403 19.1548C79.8403 19.1548 80.6281 18.2145 81.6704 18.3947" stroke="#322A28" stroke-width="0.188144" stroke-miterlimit="10"/>
<path d="M85.7503 18.1564C85.7503 18.1564 84.9934 17.5632 84.0808 18.0972" stroke="#322A28" stroke-width="0.188144" stroke-miterlimit="10"/>
<path d="M53.8777 71.9593L53.9453 71.9816C56.9139 72.9618 60.1462 71.3396 61.1284 68.3768L69.1304 44.2353C70.1125 41.2724 68.4872 38.0463 65.5186 37.066L65.4511 37.0437C62.4826 36.0634 59.2502 37.6856 58.2681 40.6485L50.266 64.79C49.2839 67.7528 50.9092 70.979 53.8777 71.9593Z" fill="#F74242"/>
<path d="M31.5618 64.7431L54.6482 72.1917C57.4249 72.9514 60.4062 71.0101 61.2778 67.8688C62.1424 64.7281 60.5766 61.5312 57.7992 60.7645L33.8317 54.3135L31.5618 64.7431Z" fill="#F74242"/>
<path d="M78.5791 103.858L80.0002 99.1224H81.3618L83.53 93.261" stroke="white" stroke-width="0.15306" stroke-miterlimit="10" stroke-linecap="round" stroke-linejoin="round"/>
<path d="M81.5169 24.5081L83.6624 25.2609C83.6624 25.2609 83.2218 26.3538 82.1382 26.0404C81.0547 25.7271 81.5169 24.5081 81.5169 24.5081Z" fill="white"/>
<path d="M70.842 35.4017C70.842 35.4017 72.4698 48.9157 73.4633 55.5912C74.4567 62.2668 74.6287 78.7209 74.8646 84.8171" stroke="white" stroke-width="0.301893" stroke-miterlimit="10" stroke-linecap="round" stroke-linejoin="round"/>
<path d="M87.9155 38.0066C87.9155 38.0066 87.0556 51.8053 86.7514 57.9111C86.4473 64.0168 87.9155 85.5089 87.9155 85.5089" stroke="white" stroke-width="0.301893" stroke-miterlimit="10" stroke-linecap="round" stroke-linejoin="round"/>
<path d="M96.2332 86.6895C96.2332 86.6895 92.0734 88.0734 87.9136 86.9744" stroke="white" stroke-width="0.301893" stroke-miterlimit="10" stroke-linecap="round" stroke-linejoin="round"/>
<path d="M88.6885 63.7323C89.1165 63.7323 89.4634 63.386 89.4634 62.9589C89.4634 62.5317 89.1165 62.1854 88.6885 62.1854C88.2605 62.1854 87.9136 62.5317 87.9136 62.9589C87.9136 63.386 88.2605 63.7323 88.6885 63.7323Z" fill="white"/>
<path d="M88.6885 70.8367C89.1165 70.8367 89.4634 70.4904 89.4634 70.0632C89.4634 69.6361 89.1165 69.2898 88.6885 69.2898C88.2605 69.2898 87.9136 69.6361 87.9136 70.0632C87.9136 70.4904 88.2605 70.8367 88.6885 70.8367Z" fill="white"/>
<path d="M89.2593 76.4504C89.6873 76.4504 90.0342 76.1042 90.0342 75.677C90.0342 75.2498 89.6873 74.9036 89.2593 74.9036C88.8313 74.9036 88.4844 75.2498 88.4844 75.677C88.4844 76.1042 88.8313 76.4504 89.2593 76.4504Z" fill="white"/>
<path d="M89.6668 83.0138C90.0947 83.0138 90.4417 82.6675 90.4417 82.2403C90.4417 81.8132 90.0947 81.4669 89.6668 81.4669C89.2388 81.4669 88.8918 81.8132 88.8918 82.2403C88.8918 82.6675 89.2388 83.0138 89.6668 83.0138Z" fill="white"/>
<path d="M75.1666 25.9086C76.1997 25.7663 76.8764 24.4885 76.6781 23.0545C76.4799 21.6205 75.4817 20.5734 74.4486 20.7156C73.4156 20.8579 72.7389 22.1357 72.9371 23.5697C73.1354 25.0037 74.1336 26.0508 75.1666 25.9086Z" fill="#088CFC"/>
<path d="M74.4685 25.3327C75.1664 25.2366 75.6123 24.2914 75.4644 23.2215C75.3165 22.1517 74.6308 21.3624 73.9329 21.4585C73.235 21.5546 72.7891 22.4998 72.937 23.5697C73.0849 24.6395 73.7706 25.4288 74.4685 25.3327Z" fill="#2EC6FC"/>
<path d="M75.4341 25.3025C75.4341 25.3025 78.2506 28.3366 82.5635 27.8977" stroke="#088CFC" stroke-width="0.285918" stroke-miterlimit="10"/>
<path d="M82.8489 28.4669C83.3748 28.4669 83.8011 28.2218 83.8011 27.9194C83.8011 27.6171 83.3748 27.3719 82.8489 27.3719C82.323 27.3719 81.8967 27.6171 81.8967 27.9194C81.8967 28.2218 82.323 28.4669 82.8489 28.4669Z" fill="#088CFC"/>
<path d="M74.8103 20.9671C74.8103 20.9671 73.0306 13.0026 78.6926 10.2017C78.6926 10.2017 76.8101 9.89743 75.6246 11.4355C75.6246 11.4355 72.4229 14.7575 73.4626 21.3309L74.8103 20.9671Z" fill="#088CFC"/>
<path d="M62.0625 65.5633L66.5711 51.9611" stroke="white" stroke-width="0.301893" stroke-miterlimit="10" stroke-linecap="round" stroke-linejoin="round"/>
<path d="M111.81 40.2374L109.618 41.2576C109.127 41.4866 108.545 41.2798 108.305 40.798L102.737 28.8802C102.504 28.3829 102.72 27.7917 103.218 27.5592L105.41 26.5391C105.908 26.3066 106.5 26.522 106.733 27.0192L112.291 38.9181C112.524 39.4154 112.308 40.0067 111.81 40.2374Z" fill="#1D1D1B"/>
<path d="M108.405 41.01L108.234 40.9724L105.025 40.2597L104.198 40.0769L104.183 40.0444L102.961 37.4282L100.642 32.4639L101.829 30.1842L102.628 28.6479L102.738 28.8804L108.306 40.798L108.405 41.01Z" fill="#0775EF"/>
<path d="M104.185 40.0443H104.183L102.528 40.8167C102.403 40.8748 102.254 40.8202 102.196 40.6954L98.8586 33.5506C98.8003 33.4258 98.8534 33.2771 98.9784 33.219L100.593 32.4688V32.4671L100.636 32.4484L100.643 32.4638L102.966 37.4332C102.966 37.4332 102.966 37.4332 102.966 37.4349L104.185 40.0443Z" fill="#2EC6FC"/>
<path d="M144.927 28.8699L139.364 40.7773C139.133 41.2746 138.541 41.49 138.042 41.2575L135.851 40.2373C135.352 40.0067 135.137 39.4154 135.368 38.9181L140.927 27.0192C141.16 26.522 141.753 26.3066 142.251 26.5391L144.442 27.5592C144.937 27.7898 145.153 28.3743 144.927 28.8699Z" fill="#93ACBF"/>
<path d="M147.02 32.4636L146.982 32.5422V32.5439C146.981 32.5456 146.979 32.549 146.979 32.5507V32.5524L144.902 36.9971C144.9 37.0006 144.9 37.0023 144.899 37.004C144.899 37.0057 144.897 37.0056 144.897 37.0073C144.897 37.009 144.895 37.009 144.895 37.0108C144.895 37.0108 144.895 37.0125 144.894 37.0125L143.479 40.044L143.464 40.0765L142.562 40.2765L139.348 40.9891L139.257 41.0096L139.365 40.7772L144.928 28.8697L145.032 28.6476L145.791 30.1036L147.013 32.4499L147.02 32.4636Z" fill="#0775EF"/>
<path d="M145.137 40.8161L143.48 40.0451L147.029 32.4482L148.686 33.2192C148.811 33.2774 148.865 33.4258 148.807 33.5507L145.469 40.6954C145.41 40.8203 145.262 40.8743 145.137 40.8161Z" fill="#2EC6FC"/>
<path d="M142.565 40.2767C138.634 44.9283 132.997 48.0966 126.618 48.8245C126.626 48.7579 126.631 48.6895 126.631 48.6195V47.7104C126.631 47.4507 126.57 47.2046 126.46 46.9876C131.422 46.4099 135.896 44.2346 139.351 40.9894L142.565 40.2767Z" fill="#0775EF"/>
<path d="M148.34 24.4919C148.34 27.2774 147.875 29.9551 147.015 32.4501L145.793 30.1038C146.251 28.3094 146.495 26.4297 146.495 24.4918C146.495 11.9828 136.335 1.84063 123.802 1.84063C111.269 1.84063 101.107 11.9828 101.107 24.4918C101.107 26.4587 101.359 28.3658 101.83 30.184L100.643 32.4637L100.636 32.4482L100.594 32.467C99.7306 29.9669 99.2632 27.284 99.2632 24.4917C99.2632 10.9643 110.248 0.00012207 123.802 0.00012207C137.353 0.0002905 148.34 10.9644 148.34 24.4919Z" fill="#0775EF"/>
<path d="M111.81 40.2374L109.618 41.2576C109.127 41.4866 108.545 41.2798 108.305 40.798L102.737 28.8802C102.504 28.3829 102.72 27.7917 103.218 27.5592L105.41 26.5391C105.908 26.3066 106.5 26.522 106.733 27.0192L112.291 38.9181C112.524 39.4154 112.308 40.0067 111.81 40.2374Z" fill="#088CFC"/>
<path d="M139.364 40.7773C139.133 41.2746 138.541 41.49 138.042 41.2575L135.851 40.2373C135.352 40.0067 135.137 39.4154 135.368 38.9181L140.927 27.0192C141.16 26.522 141.753 26.3066 142.251 26.5391L144.442 27.5592C144.937 27.7899 145.153 28.3743 144.927 28.87L139.364 40.7773Z" fill="#088CFC"/>
<path d="M126.628 47.7104V48.6195C126.628 48.6896 126.623 48.758 126.614 48.8246C126.518 49.5834 125.893 50.1831 125.109 50.231L120.036 50.5437C119.104 50.6019 118.317 49.8636 118.317 48.9323V47.3977C118.317 47.0799 118.408 46.7859 118.565 46.5365C118.87 46.0546 119.421 45.747 120.036 45.7846L125.109 46.0973C125.703 46.1348 126.206 46.4869 126.456 46.9876C126.566 47.2046 126.628 47.4507 126.628 47.7104Z" fill="#2EC6FC"/>
<path d="M128.056 35.8488C130.287 35.8488 132.096 34.8337 132.096 33.5816C132.096 32.3294 130.287 31.3143 128.056 31.3143C125.825 31.3143 124.016 32.3294 124.016 33.5816C124.016 34.8337 125.825 35.8488 128.056 35.8488Z" fill="white"/>
<path d="M126.627 40.1285C127.919 40.1285 128.967 39.4442 128.967 38.6001C128.967 37.756 127.919 37.0717 126.627 37.0717C125.334 37.0717 124.287 37.756 124.287 38.6001C124.287 39.4442 125.334 40.1285 126.627 40.1285Z" fill="white"/>
<path d="M121.076 44.9715C121.632 44.9715 122.083 44.6862 122.083 44.3343C122.083 43.9823 121.632 43.697 121.076 43.697C120.519 43.697 120.069 43.9823 120.069 44.3343C120.069 44.6862 120.519 44.9715 121.076 44.9715Z" fill="white"/>
<path d="M124.286 43.3395C125.235 43.3395 126.004 42.8529 126.004 42.2526C126.004 41.6524 125.235 41.1658 124.286 41.1658C123.338 41.1658 122.569 41.6524 122.569 42.2526C122.569 42.8529 123.338 43.3395 124.286 43.3395Z" fill="white"/>
<path d="M123.377 30.6289C132.147 30.6289 139.255 25.4225 139.255 19.0002C139.255 12.5778 132.147 7.37146 123.377 7.37146C114.608 7.37146 107.499 12.5778 107.499 19.0002C107.499 25.4225 114.608 30.6289 123.377 30.6289Z" fill="white"/>
<path d="M124.392 20.9788C125.487 20.5259 126.007 19.2724 125.553 18.179C125.1 17.0857 123.844 16.5665 122.748 17.0194C121.653 17.4723 121.133 18.7258 121.586 19.8191C122.04 20.9125 123.296 21.4317 124.392 20.9788Z" fill="#E5F0F8"/>
<path d="M131.671 20.9787C132.766 20.5258 133.287 19.2723 132.833 18.179C132.379 17.0856 131.123 16.5664 130.028 17.0193C128.932 17.4722 128.412 18.7257 128.866 19.8191C129.32 20.9124 130.575 21.4316 131.671 20.9787Z" fill="#E5F0F8"/>
<path d="M116.736 20.9788C117.831 20.5259 118.351 19.2724 117.897 18.179C117.444 17.0857 116.188 16.5665 115.092 17.0194C113.997 17.4723 113.477 18.7258 113.93 19.8191C114.384 20.9125 115.64 21.4317 116.736 20.9788Z" fill="#E5F0F8"/>
<path d="M146.21 87.0614L119.362 104.874L92.5195 87.0614H146.21Z" fill="#F2BB16"/>
<path d="M146.21 87.0614V122.686H92.5195V87.0614L119.362 104.874L146.21 87.0614Z" fill="#F2BB16"/>
<path d="M92.5195 122.686L119.362 104.874L146.21 122.686H92.5195Z" fill="#F2BB16"/>
<path d="M148.26 87.0614L121.412 104.874L94.5696 87.0614H148.26Z" fill="#F9ECB8"/>
<path d="M148.26 87.0614V122.686H94.5696V87.0614L121.412 104.874L148.26 87.0614Z" fill="#F9E181"/>
<path d="M94.5696 122.686L121.412 104.874L148.26 122.686H94.5696Z" fill="#F9ECB8"/>
<path d="M152.506 87.0604C152.506 88.1695 152.081 89.1813 151.377 89.9413C150.602 90.7763 149.496 91.3021 148.261 91.3021C145.914 91.3021 144.011 89.4022 144.011 87.0604C144.011 85.4123 144.954 83.9807 146.335 83.2826C146.915 82.9865 147.566 82.823 148.261 82.823C150.607 82.8231 152.506 84.7187 152.506 87.0604Z" fill="#40A87B"/>
<path d="M152.51 87.0603C152.51 88.1693 152.085 89.1811 151.382 89.9411C150.802 90.2371 150.147 90.405 149.452 90.405C147.105 90.405 145.202 88.5095 145.202 86.1678C145.202 85.0544 145.636 84.0381 146.339 83.2826C146.919 82.9865 147.57 82.823 148.265 82.823C150.611 82.8229 152.51 84.7185 152.51 87.0603Z" fill="#6ADB6A"/>
<path d="M153.322 126H11.4121C10.5975 126 9.93726 125.341 9.93726 124.528V124.163C9.93726 123.35 10.5976 122.691 11.4121 122.691H153.322C154.136 122.691 154.796 123.35 154.796 124.163V124.528C154.796 125.341 154.136 126 153.322 126Z" fill="#0775EF"/>
<path d="M140.511 64.7956C140.511 64.7956 142.05 62.8373 139.758 61.8846C138.602 61.4041 138.275 60.7813 138.599 59.9085C138.923 59.0356 138.561 58.0883 137.644 57.5831C136.727 57.0779 136.332 55.5747 134.418 56.4566C134.418 56.4566 132.005 57.4016 132.102 58.8734C132.2 60.3451 132.18 60.2202 131.665 61.2214C131.15 62.2226 132.223 63.42 132.263 64.0204C132.303 64.6071 132.045 64.7955 132.045 64.7955L140.511 64.7956Z" fill="#322A28"/>
<path d="M125.544 78.0649C126.606 78.7156 128.008 78.3806 128.66 77.3206L133.56 69.3529C134.212 68.2929 133.877 66.8932 132.815 66.2426C131.753 65.592 130.35 65.9269 129.698 66.9869L124.798 74.9546C124.146 76.0146 124.482 77.4143 125.544 78.0649Z" fill="#F74242"/>
<path d="M140.538 80.8767C140.538 80.8767 141.199 81.6255 141.461 82.2363C141.724 82.8471 138.588 82.5103 138.588 82.5103L138.93 79.5764L140.538 80.8767Z" fill="#088CFF"/>
<path d="M119.63 93.7307C120.855 95.4351 123.254 95.8295 124.962 94.6071L136.889 86.0688C138.597 84.8464 138.992 82.4518 137.767 80.7474C136.543 79.0431 134.143 78.6487 132.436 79.8711L120.508 88.4094C118.801 89.6318 118.406 92.0263 119.63 93.7307Z" fill="#0775EF"/>
<path d="M123.066 94.7992C124.291 96.5036 126.69 96.8979 128.397 95.6756L140.325 87.1373C142.033 85.9149 142.428 83.5202 141.203 81.8159C139.978 80.1116 137.579 79.7172 135.871 80.9396L123.944 89.4779C122.236 90.7002 121.841 93.0949 123.066 94.7992Z" fill="#088CFF"/>
<path d="M137.295 64.9845L141.26 66.8483C141.26 66.8483 140.378 76.9647 140.287 78.0791C140.196 79.1935 140.538 80.8766 140.538 80.8766H131.035C131.035 80.8766 131.149 75.4181 130.511 73.8943C130.079 72.862 129.782 72.234 130.033 71.0514C130.283 69.8688 131.126 68.0947 130.83 66.0479L133.268 65.0699L137.295 64.9845Z" fill="#F74242"/>
<path d="M119.997 112.414L120.727 109.845L116.758 109.273L116.437 111.864L119.997 112.414Z" fill="#A06753"/>
<path d="M133.268 60.4692V65.0708C133.268 65.0708 133.268 65.1271 133.279 65.217C133.327 65.5926 133.57 66.5575 134.823 66.544C135.968 66.5305 136.768 65.6916 137.108 65.2508C137.232 65.0933 137.295 64.9854 137.295 64.9854L136.718 60.4692H133.268Z" fill="#A06753"/>
<path d="M133.41 111.967L129.874 112.648L129.124 110.409L133.051 109.824L133.41 111.967Z" fill="#A06753"/>
<path d="M133.268 65.0699L135.318 62.4577L133.268 62.0637V65.0699Z" fill="#824C3A"/>
<path d="M133.178 63.2593C133.994 63.5248 135.126 63.2014 135.927 62.3622C136.727 61.523 138.526 58.381 136.125 56.9175C133.721 55.4548 132.302 57.8766 132.24 58.2515C132.24 58.2515 132.216 59.5731 132.201 60.5044C132.196 60.7413 132.192 60.9519 132.19 61.1105C132.191 61.1362 132.188 61.1597 132.188 61.1827C132.177 61.9124 132.363 62.9966 133.178 63.2593Z" fill="#A06753"/>
<path d="M145.221 79.3213C146.345 78.7851 146.826 77.4282 146.288 76.3059L142.25 67.8702C141.713 66.748 140.354 66.2685 139.229 66.8047C138.105 67.3409 137.624 68.6977 138.162 69.8201L142.2 78.2557C142.737 79.378 144.096 79.8574 145.221 79.3213Z" fill="#F74242"/>
<path d="M123.758 88.5233C125.662 89.2055 126.652 91.299 125.969 93.1995L121.177 110.409L115.274 109.493L118.864 91.7517L118.865 91.7519C118.885 91.411 118.952 91.0671 119.073 90.7293C119.757 88.8288 121.854 87.8412 123.758 88.5233Z" fill="#0775EF"/>
<path d="M134.027 114.665L132.353 114.96L132.055 113.9L131.333 115.139L127.384 115.834L129.875 112.648L133.412 111.966L134.027 114.665Z" fill="#322A28"/>
<path d="M125.347 88.7611C127.339 88.4105 129.239 89.7382 129.59 91.7267L134.124 110.085L128.469 111.175L122.702 93.9875L122.704 93.9871C122.551 93.6812 122.438 93.3499 122.376 92.9964C122.024 91.0079 123.355 89.1117 125.347 88.7611Z" fill="#088CFF"/>
<path d="M130.992 113.154L129.412 113.427" stroke="#D1DDFF" stroke-width="0.224912" stroke-miterlimit="10"/>
<path d="M134.422 56.4565C134.422 56.4565 132.232 56.527 131.951 58.6205L133.063 58.6743C133.063 58.6743 133.045 57.9564 133.604 57.6423C133.604 57.6423 133.21 58.1904 133.345 58.7271L134.633 58.8544C134.633 58.8544 134.689 58.0747 134.62 57.7667C134.62 57.7667 134.931 58.4791 134.941 58.9047L135.847 59.1524C135.847 59.1524 135.841 59.8805 136.169 60.142C136.497 60.4035 136.936 61.5713 136.936 61.5713C136.936 61.5713 137.876 58.9973 137.46 58.1774C137.045 57.3575 136.301 56.0409 134.422 56.4565Z" fill="#322A28"/>
<path d="M130.704 113.764L129.124 114.037" stroke="#D1DDFF" stroke-width="0.224912" stroke-miterlimit="10"/>
<path d="M119.695 115.128L118.017 114.859L118.083 113.76L116.995 114.695L113.035 114.059L116.436 111.864L119.996 112.414L119.695 115.128Z" fill="#322A28"/>
<path d="M117.325 112.707L115.742 112.448" stroke="#D1DDFF" stroke-width="0.224912" stroke-miterlimit="10"/>
<path d="M116.856 113.19L115.274 112.931" stroke="#D1DDFF" stroke-width="0.224912" stroke-miterlimit="10"/>
<path d="M132.887 83.0748C132.887 83.0748 126.609 87.4927 125.396 88.3351C124.183 89.1776 122.391 90.1293 122.321 92.1535C122.251 94.1777 124.302 98.6776 124.302 98.6776" stroke="#E5F0F8" stroke-width="0.112452" stroke-miterlimit="10"/>
<path d="M136.31 60.7544C136.168 61.1844 136.171 61.4607 136.51 61.5718C136.848 61.6829 137.316 61.5009 137.458 61.0708C137.6 60.6407 137.441 60.2021 137.102 60.091C136.764 59.9799 136.451 60.3243 136.31 60.7544Z" fill="#A06753"/>
<path d="M137.168 60.5239C137.168 60.5239 136.625 60.4981 136.578 60.9562C136.578 60.9562 136.756 60.7934 137.027 60.8416" stroke="#724638" stroke-width="0.0562302" stroke-miterlimit="10" stroke-linecap="round" stroke-linejoin="round"/>
<path d="M134.304 60.1329C134.305 60.3078 134.214 60.4501 134.1 60.4508C133.987 60.4514 133.894 60.3102 133.893 60.1353C133.892 59.9604 133.983 59.8181 134.096 59.8174C134.21 59.8167 134.303 59.9579 134.304 60.1329Z" fill="#322A28"/>
<path d="M132.808 60.0061C132.809 60.1811 132.718 60.3234 132.604 60.3241C132.491 60.3247 132.398 60.1835 132.397 60.0086C132.396 59.8337 132.487 59.6913 132.6 59.6907C132.714 59.69 132.807 59.8312 132.808 60.0061Z" fill="#322A28"/>
<path d="M133.75 62.1639C133.543 62.2355 133.318 62.1263 133.246 61.9199L133.995 61.6606C134.066 61.8671 133.957 62.0923 133.75 62.1639Z" fill="white"/>
<path d="M134.703 59.7792C134.703 59.7792 134.349 59.3454 133.94 59.5056" stroke="#2C3447" stroke-width="0.0834737" stroke-miterlimit="10"/>
<path d="M132.773 59.4345C132.773 59.4345 132.517 59.3885 132.247 59.6663" stroke="#2C3447" stroke-width="0.0834737" stroke-miterlimit="10"/>
<path d="M133.337 60.028C133.337 60.028 133.322 60.8947 132.813 61.0038C132.813 61.0038 132.976 61.1501 133.179 61.2095" stroke="#2C3447" stroke-width="0.0834737" stroke-miterlimit="10"/>
<path d="M134.029 61.0869C134.072 61.2534 134.357 61.3244 134.666 61.2454C134.975 61.1664 135.192 60.9674 135.149 60.8009C135.106 60.6343 134.821 60.5634 134.512 60.6423C134.202 60.7213 133.986 60.9204 134.029 61.0869Z" fill="#A14C53"/>
<path d="M132.188 61.1106C132.374 61.1177 132.523 61.0595 132.56 60.9466C132.609 60.7993 132.452 60.6152 132.199 60.5045C132.194 60.7414 132.19 60.952 132.188 61.1106Z" fill="#A14C53"/>
<path d="M128.869 76.7381C129.413 75.4877 128.953 74.0729 127.847 73.5938L117.766 70.733C117.451 70.5639 117.097 70.3568 116.825 70.1497C116.193 69.6683 114.321 68.5627 114.164 68.8328C114.006 69.1031 115.135 70.12 114.975 70.1793C114.816 70.2387 113.814 69.6856 113.405 69.4159C112.997 69.1462 112.214 68.4273 111.945 68.5252C111.676 68.6231 111.714 69.0424 111.714 69.0424C111.714 69.0424 111.449 68.7316 111.286 68.9341C111.124 69.1366 111.419 69.721 111.419 69.721C111.419 69.721 111.289 69.5329 111.166 69.8007C111.042 70.0684 111.78 70.7872 111.78 70.7872C111.78 70.7872 111.59 70.7058 111.524 70.9217C111.458 71.1375 112.532 71.9746 113.468 72.3114C114.302 72.612 116.366 73.1063 116.799 73.209L125.87 78.1403C126.975 78.6193 128.325 77.9883 128.869 76.7381Z" fill="#A06753"/>
<path d="M140.475 74.6552L139.13 71.8456" stroke="#2C3447" stroke-width="0.115602" stroke-miterlimit="10"/>
<path d="M134.561 86.2117L138.114 83.0748H127.604L123.695 86.2117H134.561Z" fill="#89A5C7"/>
<path d="M136.411 61.7152C136.412 61.8991 136.562 62.047 136.747 62.0456C136.931 62.0443 137.079 61.8941 137.078 61.7103C137.076 61.5264 136.926 61.3785 136.742 61.3799C136.557 61.3812 136.409 61.5314 136.411 61.7152Z" stroke="white" stroke-width="0.0952132" stroke-miterlimit="10"/>
<path d="M123.696 86.2116H134.562L131.726 78.0902H120.86L123.696 86.2116Z" fill="#A5BBD6"/>
<path d="M134.44 85.8175L137.994 82.6805H127.484L123.574 85.8175H134.44Z" fill="#89A5C7"/>
<path d="M123.897 86.0319H134.764L131.928 77.9105H121.062L123.897 86.0319Z" fill="#A5BBD6"/>
<path d="M121.065 77.9105L120.86 78.0902H131.726L134.562 86.2117L134.767 86.0319L131.931 77.9105H121.065Z" fill="#89A5C7"/>
<path d="M137.995 82.6805L138.113 83.0748L134.56 86.2118L134.422 85.8175L137.995 82.6805Z" fill="#586773"/>
<path d="M126.045 82.2432C126.045 82.5371 126.584 82.7754 127.25 82.7754C127.915 82.7754 128.454 82.5371 128.454 82.2432C128.454 81.9493 127.915 81.7109 127.25 81.7109C126.584 81.7109 126.045 81.9492 126.045 82.2432Z" fill="#89A5C7"/>
<path d="M146.294 76.0716C145.653 74.868 144.258 74.3453 143.194 74.91L134.67 80.9974C134.341 81.1381 133.958 81.2851 133.627 81.3683C132.856 81.5618 130.823 82.3339 130.937 82.6252C131.05 82.9165 132.55 82.6693 132.497 82.8307C132.445 82.9921 131.387 83.4298 130.921 83.5807C130.455 83.7316 129.404 83.8946 129.313 84.1656C129.222 84.4367 129.574 84.6686 129.574 84.6686C129.574 84.6686 129.165 84.6818 129.223 84.9347C129.28 85.1878 129.922 85.3215 129.922 85.3215C129.922 85.3215 129.694 85.3056 129.827 85.5689C129.959 85.8322 130.983 85.7038 130.983 85.7038C130.983 85.7038 130.8 85.8015 130.928 85.9875C131.056 86.1735 132.382 85.8566 133.228 85.3363C133.984 84.8718 135.657 83.5692 136.008 83.2947L145.524 79.2866C146.589 78.722 146.935 77.2752 146.294 76.0716Z" fill="#A06753"/>
<path d="M130.547 73.9818C130.547 73.9818 129.833 72.4824 129.949 71.7037C130.065 70.9249 130.7 68.8207 130.784 68.1746" stroke="#2C3447" stroke-width="0.115602" stroke-miterlimit="10"/>
<path d="M51.7609 9.09365C51.4825 8.73094 50.5244 7.91406 49.9181 7.98666C49.3911 8.04973 49.0474 8.90038 48.5164 8.92236C48.1637 8.93693 47.4338 8.60319 46.9059 7.91229C46.9059 7.91229 45.775 6.69817 45.8499 6.10934C45.9247 5.52051 46.894 5.42594 46.9257 4.62505C46.9426 4.19665 46.2888 3.07508 45.7552 2.70327C45.559 2.56651 45.2974 2.56735 45.1032 2.70673C44.6118 3.05925 43.6012 3.96877 43.7239 5.41945C43.8852 7.32717 45.5703 8.88523 45.5703 8.88523C45.5703 8.88523 47.2321 10.7542 48.7145 11.0492C50.3318 11.3711 51.2347 10.7022 51.6864 10.1479C52.138 9.59364 52.0394 9.45645 51.7609 9.09365Z" fill="#E5F0F8"/>
<path d="M13.6973 34.1975L15.2636 32.6452C15.3187 32.5939 15.372 32.5379 15.4236 32.4773C15.4751 32.4168 15.521 32.3534 15.5615 32.2874C15.6019 32.2213 15.634 32.1517 15.658 32.0782C15.6819 32.0049 15.6938 31.9277 15.6938 31.847C15.6938 31.7516 15.6763 31.6654 15.6415 31.5883C15.6064 31.5113 15.5588 31.4462 15.498 31.393C15.4374 31.3398 15.3656 31.2986 15.2829 31.2691C15.2002 31.2398 15.1128 31.225 15.021 31.225C14.8298 31.225 14.6716 31.2783 14.5467 31.3847C14.4216 31.4912 14.3426 31.6379 14.3096 31.8251L13.736 31.7755C13.7616 31.6031 13.8123 31.4534 13.8876 31.3269C13.963 31.2003 14.0567 31.0948 14.1689 31.0104C14.281 30.926 14.4097 30.8636 14.5549 30.8232C14.7002 30.7829 14.8573 30.7627 15.0265 30.7627C15.1955 30.7627 15.3547 30.7857 15.5035 30.8315C15.6524 30.8775 15.7829 30.9453 15.8952 31.0352C16.0072 31.1252 16.0955 31.2371 16.1599 31.371C16.2242 31.505 16.2564 31.6619 16.2564 31.8417C16.2564 31.9702 16.2371 32.0903 16.1984 32.2022C16.1598 32.3142 16.1092 32.4196 16.0468 32.5187C15.9843 32.6178 15.9126 32.7114 15.8317 32.7994C15.7507 32.8875 15.6663 32.9738 15.578 33.0581L14.293 34.2967H16.2564V34.7591H13.6973V34.1975Z" fill="#BBDBF3"/>
<path d="M18.362 33.9005H16.6963V33.3611L18.2516 30.8619H18.8914V33.4381H19.4429V33.9005H18.8914V34.7592H18.362V33.9005ZM18.362 31.4895H18.351L17.1596 33.4382H18.362V31.4895Z" fill="#BBDBF3"/>
<path d="M19.9637 35.0013L19.5776 34.8581L21.3425 30.6195L21.7231 30.7627L19.9637 35.0013Z" fill="#BBDBF3"/>
<path d="M23.8473 31.3242H21.9556V30.8618H24.4099V31.3132L22.8546 34.7591H22.259L23.8473 31.3242Z" fill="#BBDBF3"/>
<path d="M15.9048 39.2386C13.4247 38.0276 11.884 35.5645 11.884 32.8105C11.884 28.8669 15.0986 25.6584 19.0498 25.6584C23.0009 25.6584 26.2155 28.8669 26.2155 32.8105C26.2155 35.1274 25.0828 37.311 23.1857 38.6515L22.9497 38.3188C24.7388 37.0545 25.807 34.9953 25.807 32.8105C25.807 29.0916 22.7757 26.0661 19.0498 26.0661C15.3238 26.0661 12.2925 29.0916 12.2925 32.8105C12.2925 35.4076 13.7455 37.7304 16.0844 38.8723L15.9048 39.2386Z" fill="#BBDBF3"/>
<path d="M22.3765 38.9519L24.3499 38.7569L23.194 37.1487L22.3765 38.9519Z" fill="#BBDBF3"/>
<path d="M126.08 64.5002C126.08 65.4323 125.422 66.2495 124.432 66.7103C123.893 66.9621 123.254 67.1073 122.571 67.1073C122.175 67.1073 121.795 67.058 121.44 66.9687L118.86 68.0697L119.599 65.8877C119.258 65.4858 119.06 65.0104 119.06 64.5002C119.06 63.0601 120.632 61.8931 122.57 61.8931C123.957 61.8931 125.156 62.4904 125.726 63.3575C125.953 63.7025 126.08 64.0902 126.08 64.5002Z" fill="white"/>
<path d="M142.395 53.83C141.678 53.641 140.977 53.4287 140.362 53.2164C140.251 53.177 140.141 53.1376 140.039 53.1376C138.778 53.0906 137.698 52.1623 137.698 50.4554C137.698 48.7566 138.738 47.6633 140.173 47.6633C141.615 47.6633 142.553 48.7803 142.553 50.3452C142.553 51.7062 141.922 52.5792 141.039 52.8859V52.9173C141.568 53.0511 142.143 53.177 142.592 53.2558L142.395 53.83ZM141.827 50.3769C141.827 49.315 141.276 48.2218 140.149 48.2218C138.99 48.2218 138.423 49.2913 138.431 50.4396C138.423 51.5646 139.046 52.5791 140.117 52.5791C141.213 52.5791 141.827 51.588 141.827 50.3769Z" fill="white"/>
<path d="M69.3102 6.27122L69.022 6.13706L69.0207 6.13967L69.0196 6.1374C69.1691 5.70336 69.2501 5.23757 69.2501 4.75308C69.2501 2.39995 67.3389 0.492737 64.9816 0.492737C62.6239 0.492737 60.7131 2.39995 60.7131 4.75308C60.7131 5.23883 60.7944 5.70555 60.9445 6.14043V6.14077L60.6636 6.2713C60.6419 6.2814 60.6327 6.30726 60.6428 6.32899L61.2233 7.57183C61.2334 7.59356 61.2593 7.60307 61.2811 7.59297L61.5691 7.45865L61.5718 7.46429L61.7156 7.49612L62.2738 7.62009L62.3036 7.62666C62.3036 7.62666 62.4293 7.7096 62.5148 7.66977L62.896 7.49233C62.9826 7.45216 63.0202 7.34934 62.9797 7.26285L62.0128 5.19276C61.9723 5.10628 61.8693 5.0688 61.7825 5.10922L61.4013 5.28666C61.3147 5.32709 61.2986 5.47598 61.2986 5.47598L61.1595 5.74319C61.0776 5.42688 61.0338 5.09515 61.0338 4.75299C61.0338 2.57705 62.8014 0.812752 64.9816 0.812752C67.1617 0.812752 68.929 2.57696 68.929 4.75299C68.929 5.0901 68.8868 5.41711 68.8069 5.72921L68.675 5.47598C68.675 5.47598 68.6586 5.32675 68.5725 5.28666L68.1913 5.10922C68.1047 5.0688 68.0016 5.10628 67.9611 5.19276L66.994 7.26259C66.9538 7.34908 66.9913 7.45199 67.078 7.49208L67.4592 7.66952C67.5458 7.70994 67.6704 7.6264 67.6704 7.6264L67.6862 7.62286C67.0852 8.18735 66.3069 8.56582 65.4438 8.66628C65.4003 8.57921 65.3127 8.51798 65.2094 8.51141L64.3269 8.45701C64.22 8.45044 64.1241 8.504 64.0711 8.5878C64.0437 8.63117 64.0279 8.68228 64.0279 8.73761V9.00458C64.0279 9.16661 64.1649 9.29503 64.3269 9.28493L65.2094 9.23052C65.3458 9.22219 65.4545 9.11784 65.4712 8.98588C66.5809 8.85922 67.5614 8.30812 68.2452 7.49898L68.4022 7.4642L68.4048 7.45873L68.6928 7.59272C68.7145 7.60282 68.7404 7.59347 68.7506 7.57174L69.3313 6.3289C69.3413 6.30718 69.3319 6.28132 69.3102 6.27122ZM69.0186 6.14447L69.0142 6.15365V6.1534L69.0186 6.14447ZM69.0137 6.15475L69.0136 6.155L69.0137 6.15475Z" fill="#E5F0F8"/>
<path d="M54.1424 34.5162C54.2109 30.9549 51.3739 28.0123 47.8056 27.9439C44.2374 27.8755 41.2893 30.7072 41.2208 34.2686C41.1522 37.83 43.9893 40.7725 47.5575 40.8409C51.1257 40.9093 54.0739 38.0776 54.1424 34.5162Z" fill="#40A87B"/>
<path d="M53.1165 38.9515C55.6401 36.4327 55.6401 32.349 53.1165 29.8302C50.5929 27.3115 46.5014 27.3115 43.9778 29.8302C41.4542 32.349 41.4542 36.4327 43.9778 38.9515C46.5014 41.4703 50.5929 41.4703 53.1165 38.9515Z" fill="#6ADB6A"/>
<path d="M51.9502 35.9285C51.7243 35.6342 50.947 34.9716 50.4552 35.0304C50.0277 35.0816 49.7489 35.7717 49.3181 35.7895C49.032 35.8013 48.4399 35.5306 48.0116 34.9701C48.0116 34.9701 47.0942 33.9852 47.1549 33.5076C47.2157 33.0299 48.002 32.9532 48.0276 32.3035C48.0414 31.9559 47.511 31.0461 47.0781 30.7445C46.919 30.6336 46.7067 30.6342 46.5491 30.7473C46.1505 31.0333 45.3307 31.7711 45.4302 32.9479C45.561 34.4955 46.9281 35.7595 46.9281 35.7595C46.9281 35.7595 48.2763 37.2757 49.4787 37.515C50.7907 37.7762 51.5231 37.2335 51.8896 36.7838C52.2561 36.3341 52.1761 36.2227 51.9502 35.9285Z" fill="white"/>
<path d="M16.7805 0.0771484H12.3311V4.51796H16.7805V0.0771484Z" fill="#E5F0F8"/>
<path d="M16.7805 5.40637H12.3311V9.84719H16.7805V5.40637Z" fill="#E5F0F8"/>
<path d="M16.7805 10.7353H12.3311V15.1761H16.7805V10.7353Z" fill="#E5F0F8"/>
<path d="M12.5881 2.54117L14.0521 3.83042L16.3773 0.908081" stroke="white" stroke-width="0.281808" stroke-miterlimit="10"/>
<path d="M12.5881 7.84141L14.0521 9.13065L16.3773 6.20831" stroke="white" stroke-width="0.281808" stroke-miterlimit="10"/>
<path d="M12.7063 11.165L16.2084 14.6604" stroke="white" stroke-width="0.281808" stroke-miterlimit="10"/>
<path d="M16.2084 11.165L12.7063 14.6604" stroke="white" stroke-width="0.281808" stroke-miterlimit="10"/>
<path d="M34.834 0.0770264H18.3604V0.907892H34.834V0.0770264Z" fill="#E5F0F8"/>
<path d="M34.834 1.53839H18.3604V2.36926H34.834V1.53839Z" fill="#E5F0F8"/>
<path d="M27.5275 2.99957H18.3604V3.83044H27.5275V2.99957Z" fill="#E5F0F8"/>
<path d="M34.834 5.40637H18.3604V6.23724H34.834V5.40637Z" fill="#E5F0F8"/>
<path d="M34.834 6.86737H18.3604V7.69824H34.834V6.86737Z" fill="#E5F0F8"/>
<path d="M27.5275 8.32874H18.3604V9.1596H27.5275V8.32874Z" fill="#E5F0F8"/>
<path d="M34.834 10.7353H18.3604V11.5662H34.834V10.7353Z" fill="#E5F0F8"/>
<path d="M34.834 12.1965H18.3604V13.0274H34.834V12.1965Z" fill="#E5F0F8"/>
<path d="M27.5275 13.6577H18.3604V14.4885H27.5275V13.6577Z" fill="#E5F0F8"/>
</svg>
