<svg width="80" height="80" viewBox="0 0 80 80" fill="none" xmlns="http://www.w3.org/2000/svg">
<g clip-path="url(#clip0_830_56995)">
<path fill-rule="evenodd" clip-rule="evenodd" d="M13.5567 39.0921C14.4471 39.092 15.3175 39.3559 16.0579 39.8505C16.7982 40.3451 17.3753 41.0481 17.7161 41.8707C18.0569 42.6932 18.1461 43.5984 17.9725 44.4717C17.7988 45.3449 17.3701 46.1471 16.7405 46.7767C16.111 47.4063 15.3088 47.8351 14.4356 48.0088C13.5623 48.1825 12.6572 48.0933 11.8346 47.7526C11.012 47.4118 10.309 46.8348 9.81432 46.0945C9.31969 45.3541 9.05572 44.4838 9.05578 43.5934C9.05727 42.4001 9.53195 41.2561 10.3757 40.4123C11.2195 39.5685 12.3634 39.0937 13.5567 39.0921ZM13.5567 50.5948C14.9415 50.5948 16.2952 50.1842 17.4466 49.4149C18.5981 48.6456 19.4955 47.5521 20.0254 46.2727C20.5554 44.9933 20.6941 43.5855 20.4239 42.2273C20.1538 40.8692 19.4869 39.6216 18.5077 38.6424C17.5285 37.6632 16.281 36.9964 14.9228 36.7262C13.5646 36.4561 12.1568 36.5947 10.8774 37.1247C9.59805 37.6546 8.50455 38.5521 7.73522 39.7035C6.96589 40.8549 6.55528 42.2086 6.55531 43.5934C6.55721 45.4497 7.29547 47.2295 8.60807 48.5421C9.92067 49.8547 11.7004 50.593 13.5567 50.595V50.5948ZM2.50109 42.6482V44.5389L3.60766 44.7851C3.83731 44.8359 4.0479 44.9506 4.21512 45.116C4.38234 45.2814 4.49936 45.4907 4.55266 45.7198C4.78059 46.6869 5.16367 47.6108 5.68703 48.4554C5.81095 48.6554 5.87593 48.8863 5.87449 49.1215C5.87306 49.3568 5.80526 49.5868 5.67891 49.7853L5.06953 50.7428L6.40734 52.0809L7.36484 51.4715C7.56335 51.3453 7.79346 51.2776 8.02871 51.2763C8.26396 51.275 8.49479 51.3401 8.69469 51.4642C9.53967 51.9883 10.4644 52.3712 11.4325 52.5979C11.6612 52.652 11.8701 52.7694 12.0353 52.9367C12.2005 53.1039 12.3152 53.3143 12.3664 53.5437L12.6119 54.6517H14.5025L14.7495 53.5437C14.8008 53.3143 14.9156 53.104 15.0808 52.9368C15.2459 52.7696 15.4547 52.6521 15.6834 52.5979C16.6512 52.3702 17.5758 51.9874 18.4212 51.4642C18.6208 51.3402 18.8514 51.2751 19.0864 51.2764C19.3213 51.2777 19.5512 51.3453 19.7494 51.4715L20.7069 52.0809L22.0441 50.7429L21.4347 49.7854C21.3083 49.587 21.2405 49.3569 21.2391 49.1217C21.2377 48.8864 21.3026 48.6556 21.4266 48.4556C21.9507 47.6113 22.3339 46.6874 22.5611 45.72C22.6148 45.4911 22.7319 45.2819 22.8991 45.1166C23.0662 44.9513 23.2766 44.8364 23.5061 44.7853L24.6141 44.539V42.6484L23.5061 42.4015C23.2766 42.3503 23.0663 42.2354 22.8991 42.07C22.732 41.9047 22.6148 41.6956 22.5611 41.4667C22.334 40.4993 21.9508 39.5753 21.4266 38.7312C21.3026 38.5312 21.2377 38.3004 21.2391 38.0651C21.2405 37.8299 21.3083 37.5998 21.4347 37.4014L22.0441 36.4437L20.7069 35.1059L19.7494 35.7153C19.5512 35.8416 19.3215 35.9094 19.0865 35.9108C18.8515 35.9123 18.6209 35.8473 18.4212 35.7234C17.5761 35.1996 16.6514 34.8165 15.6834 34.589C15.4547 34.5348 15.2458 34.4174 15.0807 34.2501C14.9156 34.0828 14.8008 33.8725 14.7495 33.6431L14.5025 32.5353H12.6119L12.3664 33.6431C12.315 33.8724 12.2002 34.0827 12.0351 34.25C11.87 34.4172 11.6612 34.5347 11.4325 34.589C10.4645 34.8163 9.53981 35.1995 8.69469 35.7234C8.49472 35.8473 8.26384 35.9123 8.02859 35.9109C7.79335 35.9094 7.56328 35.8416 7.36484 35.7153L6.40734 35.1057L5.07016 36.4436L5.67953 37.4012C5.80589 37.5996 5.87368 37.8297 5.87512 38.065C5.87656 38.3002 5.81158 38.5311 5.68766 38.7311C5.16457 39.5758 4.7815 40.4995 4.55328 41.4665C4.49998 41.6956 4.38296 41.905 4.21574 42.0704C4.04853 42.2358 3.83794 42.3505 3.60828 42.4014L2.50109 42.6482ZM3.16531 49.0807L2.42297 50.2484C2.27034 50.4883 2.20404 50.773 2.23501 51.0556C2.26597 51.3382 2.39234 51.6018 2.59328 51.8029L5.34953 54.5578C5.55076 54.7585 5.81437 54.8848 6.09693 54.9157C6.3795 54.9466 6.66417 54.8804 6.90406 54.7279L8.06953 53.9857C8.71504 54.327 9.39099 54.6074 10.0886 54.8231L10.3886 56.1714C10.4505 56.4489 10.6051 56.6971 10.8268 56.8751C11.0485 57.0532 11.3242 57.1505 11.6086 57.1511H15.5058C15.7903 57.151 16.0662 57.0538 16.288 56.8757C16.5098 56.6976 16.6643 56.4491 16.7258 56.1714L17.0258 54.8231C17.7234 54.6075 18.3994 54.3272 19.0448 53.9857L20.2119 54.7279C20.4518 54.8804 20.7364 54.9466 21.019 54.9157C21.3016 54.8847 21.5652 54.7585 21.7664 54.5578L24.5213 51.8029C24.7225 51.602 24.849 51.3383 24.88 51.0556C24.911 50.7729 24.8445 50.4882 24.6916 50.2484L23.9492 49.0807C24.2907 48.4355 24.571 47.7598 24.7866 47.0623L26.137 46.7623C26.4145 46.7002 26.6626 46.5455 26.8404 46.3236C27.0183 46.1017 27.1152 45.8259 27.1153 45.5415V41.645C27.1152 41.3606 27.0183 41.0848 26.8404 40.8629C26.6626 40.641 26.4145 40.4862 26.137 40.4242L24.7866 40.125C24.5712 39.4272 24.2909 38.7513 23.9492 38.1059L24.6916 36.9382C24.8445 36.6986 24.911 36.4139 24.88 36.1313C24.849 35.8487 24.7225 35.5852 24.5213 35.3843L21.7667 32.6296C21.5659 32.4282 21.3022 32.3015 21.0195 32.2705C20.7367 32.2396 20.4519 32.3062 20.2122 32.4593L19.0452 33.2017C18.3998 32.8599 17.7238 32.5793 17.0261 32.3636L16.7261 31.0153C16.6646 30.7375 16.5102 30.4891 16.2883 30.3109C16.0665 30.1328 15.7906 30.0357 15.5061 30.0356H11.6084C11.3241 30.0361 11.0484 30.1334 10.8266 30.3115C10.6049 30.4895 10.4504 30.7377 10.3884 31.0153L10.0884 32.3636C9.39079 32.5795 8.71484 32.8601 8.06938 33.2017L6.90391 32.4593C6.66424 32.3061 6.37938 32.2395 6.09662 32.2705C5.81385 32.3014 5.55018 32.4282 5.34937 32.6296L2.59313 35.3843C2.39219 35.5853 2.2658 35.8488 2.23484 36.1313C2.20387 36.4139 2.27018 36.6985 2.42281 36.9382L3.16516 38.1059C2.82355 38.7512 2.54315 39.427 2.32766 40.1246L0.97875 40.4239C0.70119 40.4858 0.453056 40.6406 0.275312 40.8626C0.097567 41.0846 0.000838182 41.3606 0.00109363 41.645V45.5415C0.000901381 45.8258 0.0976404 46.1017 0.275349 46.3237C0.453057 46.5456 0.701115 46.7003 0.978594 46.7623L2.3275 47.0623C2.54315 47.7597 2.82354 48.4355 3.165 49.0807H3.16531ZM66.4433 40.9071C65.5528 40.9078 64.6821 40.6444 63.9414 40.1501C63.2006 39.6559 62.6231 38.9531 62.2819 38.1306C61.9407 37.3081 61.851 36.4028 62.0244 35.5294C62.1977 34.6559 62.6262 33.8535 63.2557 33.2236C63.8851 32.5937 64.6872 32.1647 65.5606 31.9907C66.4339 31.8168 67.3392 31.9058 68.1619 32.2464C68.9847 32.5871 69.6879 33.1641 70.1827 33.9045C70.6774 34.6449 70.9415 35.5154 70.9414 36.4059C70.9399 37.5987 70.4656 38.7423 69.6224 39.586C68.7792 40.4297 67.6359 40.9048 66.4431 40.907L66.4433 40.9071ZM66.4433 29.4045C65.0586 29.405 63.7052 29.8162 62.5542 30.5858C61.4031 31.3555 60.5062 32.4492 59.9767 33.7287C59.4472 35.0081 59.3089 36.4158 59.5794 37.7738C59.8499 39.1318 60.517 40.3791 61.4963 41.358C62.4756 42.3369 63.7232 43.0034 65.0813 43.2733C66.4394 43.5432 67.847 43.4044 69.1262 42.8743C70.4054 42.3443 71.4987 41.4469 72.2679 40.2955C73.0371 39.1441 73.4477 37.7906 73.4477 36.4059C73.4458 34.549 72.7071 32.7688 71.3938 31.4561C70.0805 30.1434 68.3 29.4055 66.4431 29.4043L66.4433 29.4045ZM77.5022 37.3511V35.4604L76.3964 35.2142C76.1659 35.1638 75.9544 35.0494 75.7861 34.884C75.6179 34.7186 75.4998 34.5091 75.4455 34.2795C75.2198 33.3113 74.8363 32.3869 74.3103 31.5432C74.1885 31.3427 74.1247 31.1122 74.126 30.8776C74.1273 30.6429 74.1936 30.4132 74.3177 30.214L74.9295 29.2557L73.5948 27.9184L72.6364 28.5278C72.4371 28.654 72.2063 28.7217 71.9704 28.723C71.7344 28.7243 71.5029 28.6592 71.3022 28.5351C70.4585 28.0109 69.5349 27.6279 68.5678 27.4014C68.3391 27.3473 68.1303 27.2299 67.9652 27.0626C67.8002 26.8953 67.6856 26.685 67.6345 26.4556L67.3876 25.3476H65.497L65.2511 26.4559C65.1994 26.6852 65.0844 26.8954 64.9192 27.0626C64.7539 27.2298 64.5451 27.3473 64.3164 27.4017C63.349 27.6291 62.4248 28.012 61.58 28.5354C61.3803 28.6595 61.1495 28.7246 60.9144 28.7233C60.6793 28.722 60.4493 28.6543 60.2509 28.5281L59.2934 27.9187L57.9555 29.2559L58.5648 30.2142C58.6912 30.4125 58.7589 30.6425 58.7602 30.8777C58.7615 31.1129 58.6964 31.3436 58.5723 31.5434C58.0487 32.3879 57.6658 33.3119 57.4386 34.2793C57.3849 34.5083 57.2676 34.7175 57.1003 34.8829C56.933 35.0482 56.7224 35.163 56.4928 35.214L55.3848 35.4603V37.3509L56.4928 37.5979C56.7223 37.6493 56.9327 37.7641 57.0999 37.9294C57.2672 38.0947 57.3846 38.3038 57.4386 38.5326C57.6656 39.4999 58.0485 40.4238 58.5723 41.2681C58.6964 41.468 58.7614 41.6988 58.7601 41.9341C58.7588 42.1693 58.6911 42.3994 58.5648 42.5979L57.9555 43.5556L59.2934 44.8936L60.2509 44.2842C60.4492 44.1578 60.6792 44.09 60.9143 44.0886C61.1494 44.0871 61.3802 44.1521 61.58 44.2761C62.4244 44.8004 63.3487 45.1836 64.3164 45.4106C64.5452 45.4645 64.7542 45.5817 64.9195 45.7488C65.0848 45.9159 65.1997 46.1262 65.2511 46.3556L65.4973 47.4642H67.388L67.6348 46.3556C67.686 46.1263 67.8007 45.9161 67.9657 45.749C68.1308 45.5819 68.3395 45.4646 68.5681 45.4106C69.5351 45.1834 70.4587 44.8002 71.3025 44.2761C71.5033 44.1521 71.7348 44.0871 71.9708 44.0886C72.2067 44.09 72.4375 44.1578 72.6367 44.2842L73.5952 44.8936L74.9294 43.5556L74.3175 42.5979C74.1935 42.3986 74.1271 42.1688 74.1258 41.934C74.1245 41.6993 74.1883 41.4688 74.3102 41.2681C74.839 40.4262 75.2227 39.5015 75.4453 38.5326C75.4996 38.303 75.6177 38.0935 75.786 37.9281C75.9542 37.7627 76.1658 37.6483 76.3962 37.5979L77.502 37.3509L77.5022 37.3511ZM79.0208 33.237L77.6717 32.937C77.457 32.2399 77.1782 31.5643 76.8387 30.9187L77.5759 29.7511C77.729 29.5113 77.7956 29.2266 77.7647 28.9439C77.7339 28.6612 77.6075 28.3975 77.4064 28.1964L74.6494 25.4417C74.4481 25.2407 74.1843 25.1143 73.9016 25.0833C73.6188 25.0523 73.3339 25.1187 73.0939 25.2714L71.9292 26.0136C71.2837 25.6719 70.6075 25.3915 69.9095 25.1762L69.6127 23.8279C69.5508 23.5502 69.3962 23.3019 69.1743 23.1238C68.9524 22.9458 68.6765 22.8486 68.392 22.8482H64.4948C64.2104 22.8486 63.9344 22.9458 63.7126 23.1238C63.4907 23.3019 63.3361 23.5502 63.2742 23.8279L62.9742 25.1762C62.2768 25.3918 61.601 25.6721 60.9558 26.0136L59.7881 25.2714C59.5482 25.1189 59.2635 25.0527 58.981 25.0837C58.6984 25.1146 58.4348 25.2409 58.2336 25.4417L55.4787 28.1964C55.2778 28.3975 55.1514 28.6611 55.1204 28.9438C55.0894 29.2264 55.1558 29.5112 55.3084 29.7511L56.0508 30.9187C55.7093 31.5639 55.4289 32.2396 55.2134 32.937L53.8652 33.237C53.5876 33.2988 53.3393 33.4533 53.1612 33.6751C52.9832 33.8968 52.8859 34.1726 52.8855 34.457V38.3543C52.8858 38.6389 52.9829 38.9148 53.161 39.1367C53.3391 39.3586 53.5874 39.5132 53.8652 39.5751L55.2134 39.8743C55.4288 40.5721 55.7091 41.248 56.0508 41.8934L55.3084 43.0611C55.1558 43.3009 55.0894 43.5857 55.1204 43.8683C55.1514 44.151 55.2778 44.4146 55.4787 44.6157L58.2336 47.3698C58.4345 47.5711 58.6981 47.6978 58.9808 47.7289C59.2635 47.76 59.5483 47.6936 59.7881 47.5407L60.9558 46.7976C61.601 47.1394 62.2767 47.42 62.9742 47.6359L63.2742 48.984C63.3361 49.2617 63.4907 49.5101 63.7125 49.6881C63.9344 49.8662 64.2103 49.9634 64.4948 49.9637H68.3917C68.6762 49.9634 68.9521 49.8662 69.174 49.6881C69.3959 49.5101 69.5505 49.2617 69.6123 48.984L69.9092 47.6359C70.6072 47.4203 71.2834 47.1396 71.9289 46.7976L73.0936 47.5407C73.3335 47.6938 73.6185 47.7603 73.9014 47.7293C74.1843 47.6982 74.4481 47.5713 74.6491 47.3698L77.4061 44.6157C77.6072 44.4146 77.7336 44.1509 77.7644 43.8682C77.7952 43.5855 77.7286 43.3008 77.5756 43.0611L76.8384 41.8934C77.178 41.2476 77.4569 40.5717 77.6714 39.8743L79.0205 39.5751C79.2985 39.5138 79.5473 39.3593 79.7256 39.1373C79.9039 38.9153 80.0011 38.6391 80.0011 38.3543V34.457C80.001 34.1724 79.9037 33.8964 79.7255 33.6746C79.5472 33.4528 79.2987 33.2984 79.0208 33.237ZM31.9695 69.7995C31.9688 70.2143 31.8036 70.6119 31.5101 70.9051C31.2166 71.1982 30.8187 71.3629 30.4039 71.3631H18.5133V62.8839H30.4039C30.819 62.8844 31.217 63.0496 31.5105 63.3431C31.804 63.6366 31.9692 64.0345 31.9698 64.4496V69.7998L31.9695 69.7995ZM12.232 69.8121V64.4371H15.9091C15.943 64.4371 15.9791 64.4342 16.013 64.4326V69.8121H12.232ZM48.0306 10.1995C48.0315 9.7847 48.1967 9.38717 48.4902 9.09406C48.7837 8.80095 49.1815 8.63619 49.5962 8.6359H61.4869V17.1139H49.5962C49.1814 17.1135 48.7836 16.9486 48.4901 16.6553C48.1967 16.3621 48.0314 15.9645 48.0306 15.5496V10.1995ZM64.0931 10.187H67.7678V15.5621H63.9866V10.1825C64.0227 10.184 64.0566 10.187 64.0927 10.187H64.0931ZM71.9733 52.312H40.0011C38.5341 52.312 37.1272 51.7292 36.0899 50.6919C35.0526 49.6546 34.4698 48.2477 34.4698 46.7807C34.4698 45.3138 35.0526 43.9069 36.0899 42.8696C37.1272 41.8322 38.5341 41.2495 40.0011 41.2495C42.1311 41.2495 44.1739 40.4033 45.68 38.8972C47.1862 37.391 48.0323 35.3483 48.0323 33.2182C48.0323 31.0882 47.1862 29.0454 45.68 27.5393C44.1739 26.0331 42.1311 25.187 40.0011 25.187H8.03109C6.56412 25.187 5.15722 24.6042 4.11991 23.5669C3.0826 22.5296 2.49984 21.1227 2.49984 19.6557C2.49984 18.1888 3.0826 16.7819 4.11991 15.7446C5.15722 14.7072 6.56412 14.1245 8.03109 14.1245H45.5311V15.5496C45.5326 16.6273 45.9614 17.6603 46.7236 18.4222C47.4857 19.1841 48.5189 19.6126 49.5966 19.6137H62.7372C63.0687 19.6137 63.3866 19.482 63.6211 19.2476C63.8555 19.0132 63.9872 18.6952 63.9872 18.3637V18.0621H69.0184C69.1828 18.0625 69.3456 18.0304 69.4975 17.9677C69.6494 17.905 69.7875 17.813 69.9038 17.6969C70.0202 17.5808 70.1124 17.4429 70.1754 17.291C70.2384 17.1392 70.2708 16.9765 70.2708 16.8121V8.93715C70.2708 8.7728 70.2384 8.61006 70.1754 8.45825C70.1124 8.30644 70.0202 8.16854 69.9038 8.05243C69.7875 7.93633 69.6494 7.84431 69.4975 7.78163C69.3456 7.71894 69.1828 7.68684 69.0184 7.68715H64.0934C64.0573 7.68715 64.0234 7.68996 63.9873 7.69152V7.38574C63.9873 7.05422 63.8556 6.73628 63.6212 6.50186C63.3868 6.26744 63.0689 6.13574 62.7373 6.13574H49.5967C48.5191 6.13702 47.486 6.56557 46.7239 7.32741C45.9618 8.08925 45.5329 9.12221 45.5312 10.1998V11.6246H8.03125C5.90123 11.6246 3.85845 12.4708 2.3523 13.9769C0.846147 15.4831 0 17.5259 0 19.6559C0 21.7859 0.846147 23.8287 2.3523 25.3349C3.85845 26.841 5.90123 27.6871 8.03125 27.6871H40.0011C41.4681 27.6871 42.875 28.2699 43.9123 29.3072C44.9496 30.3445 45.5323 31.7514 45.5323 33.2184C45.5323 34.6854 44.9496 36.0923 43.9123 37.1296C42.875 38.1669 41.4681 38.7496 40.0011 38.7496C37.8711 38.7496 35.8283 39.5958 34.3221 41.1019C32.816 42.6081 31.9698 44.6509 31.9698 46.7809C31.9698 48.9109 32.816 50.9537 34.3221 52.4598C35.8283 53.966 37.8711 54.8121 40.0011 54.8121H71.9733C73.4403 54.8121 74.8472 55.3949 75.8845 56.4322C76.9218 57.4695 77.5045 58.8764 77.5045 60.3434C77.5045 61.8104 76.9218 63.2173 75.8845 64.2546C74.8472 65.2919 73.4403 65.8746 71.9733 65.8746H34.4698V64.4496C34.4682 63.3718 34.0393 62.3386 33.2771 61.5765C32.5149 60.8144 31.4816 60.3856 30.4037 60.3842H17.2631C16.9316 60.3842 16.6137 60.5159 16.3792 60.7503C16.1448 60.9847 16.0131 61.3027 16.0131 61.6342V61.9423C15.9792 61.9407 15.9431 61.9379 15.9092 61.9379H10.9819C10.8177 61.9378 10.6551 61.97 10.5034 62.0328C10.3516 62.0956 10.2138 62.1876 10.0977 62.3037C9.98157 62.4198 9.8895 62.5577 9.82673 62.7094C9.76397 62.8611 9.73173 63.0237 9.73188 63.1879V71.0629C9.73175 71.2271 9.764 71.3897 9.82677 71.5414C9.88955 71.6931 9.98162 71.831 10.0977 71.9471C10.2138 72.0632 10.3517 72.1553 10.5034 72.218C10.6551 72.2808 10.8177 72.313 10.9819 72.3129H16.0131V72.6143C16.0131 72.9459 16.1448 73.2638 16.3792 73.4982C16.6137 73.7326 16.9316 73.8643 17.2631 73.8643H30.4037C31.4814 73.8631 32.5146 73.4346 33.2768 72.6728C34.039 71.9109 34.4681 70.8779 34.4698 69.8003V68.3746H71.9733C74.1033 68.3746 76.1461 67.5285 77.6522 66.0223C79.1584 64.5162 80.0045 62.4734 80.0045 60.3434C80.0045 58.2134 79.1584 56.1706 77.6522 54.6644C76.1461 53.1583 74.1033 52.312 71.9733 52.312Z" fill="#21ABE1"/>
</g>
<defs>
<clipPath id="clip0_830_56995">
<rect width="80" height="80" fill="white" transform="translate(0 -0.000244141)"/>
</clipPath>
</defs>
</svg>
