<svg width="80" height="80" viewBox="0 0 80 80" fill="none" xmlns="http://www.w3.org/2000/svg">
<path d="M79.9983 16.5919C79.9983 9.34222 74.1002 3.44409 66.8505 3.44409C59.6008 3.44409 53.7027 9.34222 53.7027 16.5919C53.7027 16.9177 53.7187 17.2397 53.742 17.5596H4.59906C2.06531 17.5596 0.00390625 19.621 0.00390625 22.1549V45.9525C0.00390625 48.4864 2.06531 50.5478 4.59906 50.5478H40.6633V53.6969L40.6191 58.0633C40.6075 59.1363 40.9391 60.1049 41.6012 60.9381L46.8108 67.5594V75.4639C46.8108 76.0669 47.2995 76.5556 47.9025 76.5556H66.7617C67.3647 76.5556 67.8534 76.0669 67.8534 75.4639V67.4688C69.1727 65.1285 70.13 62.5108 70.775 59.4756C70.793 59.3911 70.8008 59.3047 70.7984 59.2185L70.5153 49.051V45.2085C70.5153 43.2264 69.0603 41.5783 67.1625 41.2749V29.7317C74.2684 29.5649 79.9983 23.7369 79.9983 16.5919ZM66.8505 5.62753C72.8961 5.62753 77.8147 10.5461 77.8147 16.5919C77.8147 22.6377 72.8961 27.5563 66.8505 27.5563C60.8047 27.5563 55.8861 22.6377 55.8861 16.5919C55.8861 10.5461 60.8048 5.62753 66.8505 5.62753ZM2.18734 45.9525V22.1549C2.18734 20.825 3.26922 19.7432 4.59906 19.7432H54.087C55.3569 24.8847 59.6583 28.8425 64.9792 29.6044V41.5421C64.7726 41.6299 64.5739 41.7325 64.3869 41.8525C63.765 40.4607 62.3676 39.4885 60.7472 39.4885C59.94 39.4885 59.1881 39.7297 58.5598 40.1439C57.9184 38.8014 56.5472 37.8717 54.9627 37.8717C54.318 37.8717 53.7084 38.0257 53.1691 38.2988C53.1573 35.1683 53.0372 31.9786 52.3173 28.8522C52.3131 28.8317 52.3066 28.8124 52.3019 28.7921H55.8483C56.4512 28.7921 56.94 28.3033 56.94 27.7003C56.94 27.0974 56.4512 26.6086 55.8483 26.6086H51.02C50.2681 25.9294 49.2778 25.5189 48.2123 25.5189C47.1286 25.5189 46.1397 25.9319 45.3942 26.6086H23.7411C23.2452 24.4796 21.3331 22.8882 19.0553 22.8882C16.7753 22.8882 14.8616 24.4796 14.3652 26.6086H11.3136C10.7106 26.6086 10.2219 27.0974 10.2219 27.7003C10.2219 28.3033 10.7106 28.7921 11.3136 28.7921H14.3653C14.8614 30.9236 16.7753 32.5169 19.0556 32.5169C21.3339 32.5169 23.2461 30.9235 23.7417 28.7921H44.1198C44.0528 29.0894 44.0162 29.3982 44.0162 29.7155C44.0162 30.4217 44.1944 31.1185 44.532 31.7361C45.1998 33.4464 45.2984 36.491 45.2745 39.3113H39.5136C39.0172 37.1822 37.1034 35.5907 34.8234 35.5907C32.5434 35.5907 30.6297 37.1821 30.1333 39.3113H11.3136C10.7106 39.3113 10.2219 39.8 10.2219 40.403C10.2219 41.006 10.7106 41.4947 11.3136 41.4947H30.1331C30.6292 43.6261 32.5431 45.2196 34.8234 45.2196C37.1037 45.2196 39.0178 43.6261 39.5139 41.4947H45.2378C45.2353 41.6053 45.233 41.715 45.2305 41.8233C45.2166 42.4413 45.2033 43.0336 45.1975 43.5666L41.855 46.3264C41.2161 46.8569 40.8169 47.5681 40.7001 48.3644H4.59906C3.26922 48.3642 2.18734 47.2824 2.18734 45.9525ZM21.6844 27.7002C21.6844 29.1521 20.5052 30.3333 19.0556 30.3333C17.6037 30.3333 16.4225 29.1521 16.4225 27.7002C16.4225 26.2508 17.6037 25.0714 19.0556 25.0714C20.5052 25.0714 21.6844 26.2507 21.6844 27.7002ZM37.4566 40.403C37.4566 41.8549 36.2753 43.0361 34.8233 43.0361C33.3714 43.0361 32.1902 41.8549 32.1902 40.403C32.1902 38.9535 33.3714 37.7742 34.8233 37.7742C36.2753 37.7741 37.4566 38.9535 37.4566 40.403ZM65.6702 74.3722H48.9944V68.2733H65.6702V74.3722ZM68.332 45.2085V49.0661C68.332 49.0763 68.3322 49.0864 68.3323 49.0964L68.6122 59.148C68.0434 61.7758 67.2255 64.0542 66.1214 66.0896H48.4328L43.3141 59.5838C42.9589 59.1367 42.7962 58.6611 42.8025 58.0861L42.8469 53.7078V48.858C42.8469 48.505 42.975 48.2344 43.2475 48.008L45.1944 46.4007V56.4186C45.1944 57.0216 45.6831 57.5103 46.2861 57.5103C46.8891 57.5103 47.3778 57.0216 47.3778 56.4186V44.0835C47.3778 43.4538 47.3951 42.6857 47.4134 41.8724C47.4973 38.1389 47.6019 33.4925 46.5314 30.855C46.513 30.8096 46.4914 30.7653 46.467 30.7228C46.2897 30.4132 46.1997 30.0742 46.1997 29.7155C46.1997 28.6055 47.1026 27.7024 48.2127 27.7024C49.1612 27.7024 49.9895 28.3775 50.182 29.3077C50.1836 29.3158 50.1855 29.3239 50.1873 29.3319C51.0094 32.8953 50.9973 36.6697 50.983 40.3216C50.9809 40.3486 50.9789 40.3755 50.9789 40.403C50.9789 40.4275 50.9809 40.4514 50.9825 40.4755C50.9806 40.9358 50.9789 41.396 50.9789 41.8557V47.9722C50.9789 48.5752 51.4677 49.0639 52.0706 49.0639C52.6736 49.0639 53.1623 48.5752 53.1623 47.9722V41.8557C53.1623 40.8628 53.97 40.0552 54.9628 40.0552C55.9556 40.0552 56.7633 40.8628 56.7633 41.8557V43.4722V48.7428C56.7633 49.3458 57.252 49.8346 57.855 49.8346C58.458 49.8346 58.9467 49.3458 58.9467 48.7428V43.4722C58.9467 42.4794 59.7544 41.6719 60.7472 41.6719C61.74 41.6719 62.5476 42.4796 62.5476 43.4722V45.2085V49.5356C62.5476 50.1386 63.0364 50.6274 63.6394 50.6274C64.2423 50.6274 64.7311 50.1386 64.7311 49.5356V45.2085C64.7311 44.2156 65.5387 43.408 66.5316 43.408C67.5244 43.408 68.332 44.2156 68.332 45.2085ZM65.7587 17.6549V10.2803C65.7587 9.67737 66.2475 9.18862 66.8505 9.18862C67.4534 9.18862 67.9422 9.67737 67.9422 10.2803V17.6547C67.9422 18.2577 67.4534 18.7464 66.8505 18.7464C66.2475 18.7464 65.7587 18.2578 65.7587 17.6549ZM65.7587 22.9035V22.8414C65.7587 22.2385 66.2475 21.7497 66.8505 21.7497C67.4534 21.7497 67.9422 22.2385 67.9422 22.8414V22.9035C67.9422 23.5064 67.4534 23.9952 66.8505 23.9952C66.2475 23.9952 65.7587 23.5063 65.7587 22.9035Z" fill="#21ABE1"/>
</svg>
