<svg width="80" height="80" viewBox="0 0 80 80" fill="none" xmlns="http://www.w3.org/2000/svg">
<path d="M65.7384 46.1096H54.4034C58.3431 42.3227 60.7991 37.0027 60.7991 31.1196C60.7991 24.6849 57.7842 18.5768 52.7033 14.6499V2.49976C52.7033 1.80944 52.1436 1.24976 51.4533 1.24976H28.5469C27.8566 1.24976 27.2969 1.80944 27.2969 2.49976V14.6499C22.2158 18.5766 19.2011 24.6849 19.2011 31.1196C19.2011 37.0027 21.657 42.3227 25.5967 46.1096H14.2617C13.5714 46.1096 13.0117 46.6693 13.0117 47.3596V74.3748C13.0117 75.0651 13.5714 75.6248 14.2617 75.6248H34.3009L34.3031 75.768C34.3281 77.4216 35.6811 78.7498 37.3292 78.7498C37.3445 78.7498 37.36 78.7496 37.3753 78.7494L42.9406 78.6655C43.7472 78.6535 44.5019 78.3266 45.0661 77.7452C45.6227 77.1716 45.9245 76.4194 45.9208 75.6246H65.7384C66.4287 75.6246 66.9884 75.0649 66.9884 74.3746V47.3596C66.9884 46.6693 66.4287 46.1096 65.7384 46.1096ZM64.4884 48.6096V59.6171H45.5009C45.3456 59.2051 45.103 58.8271 44.7769 58.5105C44.4742 58.2168 44.1211 57.996 43.7391 57.8513L43.7075 51.5871C46.4417 51.0932 48.9916 50.0627 51.2444 48.6094H64.4884V48.6096ZM36.29 54.5538H20.3106V53.6727H36.2855L36.29 54.5538ZM38.8059 57.7121L38.7766 51.8815C39.1814 51.9051 39.5892 51.9184 40 51.9184C40.4058 51.9184 40.8086 51.9054 41.2087 51.8823L41.238 57.6754L38.8059 57.7121ZM28.5469 35.949H51.4531C52.1434 35.949 52.7031 35.3893 52.7031 34.699V26.2915C53.2852 27.824 53.5938 29.4602 53.5938 31.1196C53.5938 38.6152 47.4956 44.7133 40 44.7133C32.5044 44.7133 26.4064 38.6152 26.4064 31.1196C26.4064 29.4602 26.715 27.8241 27.2969 26.2916V34.699C27.2969 35.3894 27.8566 35.949 28.5469 35.949ZM29.7969 3.74976H50.2031V33.449H29.7969V3.74976ZM21.7011 31.1196C21.7011 26.1374 23.7566 21.3783 27.2969 17.9529V21.243C25.1091 24.056 23.9064 27.5435 23.9064 31.1198C23.9064 39.9938 31.1259 47.2135 40 47.2135C48.8741 47.2135 56.0938 39.9938 56.0938 31.1198C56.0938 27.5438 54.8911 24.0562 52.7031 21.243V17.9529C56.2434 21.3783 58.2989 26.1374 58.2989 31.1196C58.2989 41.2096 50.09 49.4185 40 49.4185C29.91 49.4185 21.7011 41.2096 21.7011 31.1196ZM28.7558 48.6096C30.5019 49.736 32.4269 50.6074 34.4775 51.1729H19.0606C18.3703 51.1729 17.8106 51.7326 17.8106 52.4229V55.804C17.8106 56.4943 18.3703 57.054 19.0606 57.054H36.3025L36.3064 57.8483C35.7903 57.9894 35.3175 58.2635 34.9339 58.6588C34.6605 58.9405 34.4497 59.2657 34.3048 59.6173H15.5117V48.6098H28.7558V48.6096ZM34.1872 68.0615H20.3106V67.1804H34.1739L34.1872 68.0615ZM15.5117 73.1248V62.1173H34.0977L34.1362 64.6805H19.0606C18.3703 64.6805 17.8106 65.2402 17.8106 65.9305V69.3116C17.8106 70.0019 18.3703 70.5616 19.0606 70.5616H34.2247L34.2634 73.1248H15.5117ZM43.2717 76.0044C43.2144 76.0635 43.0903 76.163 42.9031 76.1658L37.3378 76.2498C37.3352 76.2498 37.3328 76.2498 37.3302 76.2498C37.0478 76.2498 36.807 76.0135 36.8028 75.7304L36.5778 60.7732C36.5748 60.586 36.6708 60.4588 36.7281 60.3998C36.7856 60.3407 36.9098 60.241 37.097 60.2382L42.6622 60.1544H42.6702C42.8531 60.1544 42.9775 60.2483 43.0358 60.3049C43.0948 60.3623 43.1945 60.4863 43.1972 60.6737L43.422 75.631C43.4248 75.8182 43.3292 75.9454 43.2717 76.0044ZM45.8847 73.1248L45.8097 68.128C46.0572 69.8983 47.5805 71.2654 49.418 71.2654C51.4275 71.2654 53.0625 69.6305 53.0625 67.6208C53.0625 65.6112 51.4275 63.9763 49.418 63.9763C47.5436 63.9763 45.9959 65.3988 45.7959 67.2207L45.7192 62.1169H64.4884V73.1248H45.8847ZM48.2734 67.6208C48.2734 66.9898 48.7867 66.4763 49.4178 66.4763C50.0489 66.4763 50.5623 66.9898 50.5623 67.6208C50.5623 68.2519 50.0489 68.7654 49.4178 68.7654C48.7867 68.7654 48.2734 68.2519 48.2734 67.6208ZM58.545 63.9765C56.5355 63.9765 54.9006 65.6113 54.9006 67.621C54.9006 69.6307 56.5355 71.2655 58.545 71.2655C60.5545 71.2655 62.1895 69.6307 62.1895 67.621C62.1895 65.6113 60.5545 63.9765 58.545 63.9765ZM58.545 68.7654C57.9139 68.7654 57.4006 68.2519 57.4006 67.6208C57.4006 66.9898 57.9139 66.4763 58.545 66.4763C59.1761 66.4763 59.6895 66.9898 59.6895 67.6208C59.6895 68.2519 59.1761 68.7654 58.545 68.7654ZM58.545 57.7579C60.5545 57.7579 62.1895 56.123 62.1895 54.1133C62.1895 52.1037 60.5545 50.4688 58.545 50.4688C56.5355 50.4688 54.9006 52.1037 54.9006 54.1133C54.9006 56.123 56.5353 57.7579 58.545 57.7579ZM58.545 52.9688C59.1761 52.9688 59.6895 53.4823 59.6895 54.1133C59.6895 54.7444 59.1761 55.2579 58.545 55.2579C57.9139 55.2579 57.4006 54.7444 57.4006 54.1133C57.4006 53.4823 57.9137 52.9688 58.545 52.9688ZM49.4178 57.7579C51.4273 57.7579 53.0623 56.123 53.0623 54.1133C53.0623 52.1037 51.4273 50.4688 49.4178 50.4688C47.4083 50.4688 45.7734 52.1037 45.7734 54.1133C45.7734 56.123 47.4083 57.7579 49.4178 57.7579ZM49.4178 52.9688C50.0489 52.9688 50.5623 53.4823 50.5623 54.1133C50.5623 54.7444 50.0489 55.2579 49.4178 55.2579C48.7867 55.2579 48.2734 54.7444 48.2734 54.1133C48.2734 53.4823 48.7867 52.9688 49.4178 52.9688ZM78.75 31.1196V60.8671C78.75 61.1987 78.6183 61.5166 78.3839 61.751C78.1494 61.9854 77.8316 62.1171 77.5 62.1171H72.4397L72.6945 62.3162C73.2386 62.7412 73.3353 63.5266 72.9103 64.0707C72.6639 64.3863 72.2959 64.5513 71.9242 64.5515C71.6552 64.5515 71.3842 64.4649 71.1558 64.2866L68.0387 61.8523C67.7355 61.6154 67.5581 61.2519 67.5581 60.8671C67.5581 60.4823 67.7355 60.1188 68.0387 59.8819L71.1558 57.4477C71.6997 57.0227 72.4853 57.1194 72.9103 57.6635C73.3352 58.2076 73.2386 58.9932 72.6944 59.418L72.4394 59.6171H76.2498V32.3696H64.5289C63.8386 32.3696 63.2789 31.8099 63.2789 31.1196C63.2789 30.4293 63.8386 29.8696 64.5289 29.8696H77.5C78.1903 29.8696 78.75 30.4293 78.75 31.1196ZM12.4419 60.8669C12.4419 61.2518 12.2645 61.6152 11.9613 61.8521L8.84422 64.2865C8.61578 64.4649 8.34484 64.5513 8.07578 64.5513C7.70406 64.5513 7.33625 64.3863 7.08969 64.0705C6.66469 63.5265 6.76125 62.741 7.30547 62.316L7.56031 62.1169H2.5C2.16844 62.1169 1.85063 61.9852 1.61609 61.7509C1.38172 61.5165 1.25 61.1985 1.25 60.8669V31.1196C1.25 30.4293 1.80969 29.8696 2.5 29.8696H15.4709C16.1613 29.8696 16.7209 30.4293 16.7209 31.1196C16.7209 31.8099 16.1613 32.3696 15.4709 32.3696H3.75V59.6171H7.56047L7.30547 59.418C6.76141 58.9932 6.66469 58.2076 7.08953 57.6635C7.51469 57.1194 8.30016 57.0226 8.84406 57.4477L11.9611 59.8819C12.2645 60.1187 12.4419 60.4821 12.4419 60.8669ZM48.3214 29.3915C48.3214 30.0818 47.7617 30.6415 47.0714 30.6415H32.9286C32.2383 30.6415 31.6786 30.0818 31.6786 29.3915C31.6786 28.7012 32.2383 28.1415 32.9286 28.1415H47.0714C47.7617 28.1415 48.3214 28.7012 48.3214 29.3915ZM31.6786 13.2033C31.6786 12.513 32.2383 11.9533 32.9286 11.9533H35.5672C36.2575 11.9533 36.8172 12.513 36.8172 13.2033C36.8172 13.8937 36.2575 14.4533 35.5672 14.4533H32.9286C32.2383 14.4533 31.6786 13.8937 31.6786 13.2033ZM48.3214 13.2033C48.3214 13.8937 47.7617 14.4533 47.0714 14.4533H39.9573C39.267 14.4533 38.7073 13.8937 38.7073 13.2033C38.7073 12.513 39.267 11.9533 39.9573 11.9533H47.0714C47.7617 11.9533 48.3214 12.5129 48.3214 13.2033ZM31.6786 23.9954C31.6786 23.3051 32.2383 22.7454 32.9286 22.7454H41.2392C41.9295 22.7454 42.4892 23.3051 42.4892 23.9954C42.4892 24.6857 41.9295 25.2454 41.2392 25.2454H32.9286C32.2383 25.2454 31.6786 24.6859 31.6786 23.9954ZM48.3214 7.80726C48.3214 8.49757 47.7617 9.05726 47.0714 9.05726H32.9286C32.2383 9.05726 31.6786 8.49757 31.6786 7.80726C31.6786 7.11694 32.2383 6.55726 32.9286 6.55726H47.0714C47.7617 6.55726 48.3214 7.11694 48.3214 7.80726ZM48.3214 18.5994C48.3214 19.2898 47.7617 19.8494 47.0714 19.8494H32.9286C32.2383 19.8494 31.6786 19.2898 31.6786 18.5994C31.6786 17.9091 32.2383 17.3494 32.9286 17.3494H47.0714C47.7617 17.3494 48.3214 17.909 48.3214 18.5994ZM48.3214 23.9954C48.3214 24.6857 47.7617 25.2454 47.0714 25.2454H45.0078C44.3175 25.2454 43.7578 24.6857 43.7578 23.9954C43.7578 23.3051 44.3175 22.7454 45.0078 22.7454H47.0714C47.7617 22.7454 48.3214 23.3051 48.3214 23.9954Z" fill="#21ABE1"/>
</svg>
