<svg width="80" height="80" viewBox="0 0 80 80" fill="none" xmlns="http://www.w3.org/2000/svg">
<path fill-rule="evenodd" clip-rule="evenodd" d="M34.5309 53.7574V68.9932C34.5309 70.5323 33.2829 71.7804 31.7438 71.7804H11.1871C9.64872 71.7804 8.39617 70.5315 8.39617 68.9932V52.6531C8.39617 51.1212 9.64872 49.8658 11.1871 49.8658H11.8128V47.5938C11.8128 42.8255 15.3177 38.8354 19.8784 38.0727C19.7761 37.7665 19.6815 37.4573 19.5949 37.1459L16.8119 36.0747C16.3273 35.8882 16.0078 35.4226 16.0078 34.9036V29.3753C16.0078 28.8561 16.3273 28.3905 16.8119 28.204L19.5944 27.1331C20.0071 25.646 20.5982 24.2198 21.359 22.8801L20.1468 20.1533C19.9358 19.6788 20.0388 19.1234 20.406 18.7561L24.3143 14.8479C24.6815 14.4807 25.2369 14.3776 25.7115 14.5886C25.7115 14.5886 28.4382 15.801 28.438 15.801C29.778 15.0401 31.2035 14.4495 32.6868 14.0404L33.7626 11.2528C33.9493 10.7687 34.4147 10.4496 34.9333 10.4496H40.4617C40.9811 10.4496 41.4468 10.7695 41.6332 11.2543C41.6332 11.2543 42.7038 14.0407 42.7036 14.0407C44.1868 14.4498 45.6119 15.0402 46.9513 15.801L49.6781 14.5886C50.1526 14.3776 50.708 14.4807 51.0752 14.8479L54.9835 18.7561C55.3502 19.1229 55.4536 19.6776 55.2435 20.1517C55.2435 20.1517 54.0354 22.8791 54.0354 22.879C54.7968 24.2195 55.3875 25.6462 55.7968 27.1339L58.5777 28.204C58.825 28.2992 59.0294 28.4672 59.1701 28.6779C59.6053 28.5409 60.0683 28.4672 60.5485 28.4672C62.3546 28.4672 63.9162 29.5086 64.6677 31.0222H68.1157C68.8087 31.0222 69.3706 31.5841 69.3706 32.2771V33.6705H75.6804C77.4531 33.6705 78.9016 35.119 78.9016 36.8917V73.0495C78.9016 74.8226 77.4534 76.2683 75.6804 76.2683H45.4191C43.6459 76.2683 42.1977 74.8226 42.1977 73.0495V51.5518L41.6329 53.0195C41.4464 53.5041 40.9808 53.8236 40.4617 53.8236H34.9333C34.7938 53.8236 34.6583 53.8005 34.5309 53.7574ZM14.3226 49.8658H15.6597V47.5938C15.6597 44.4056 18.2815 41.7845 21.4653 41.7845C24.6492 41.7845 27.271 44.4056 27.271 47.5938V49.8658H28.6045V47.5938C28.6045 43.6658 25.3933 40.451 21.4653 40.451C17.5372 40.451 14.3226 43.6656 14.3226 47.5938V49.8658ZM18.1695 49.8658H24.7612V47.5938C24.7612 45.7834 23.2732 44.2943 21.4653 44.2943C19.6575 44.2943 18.1695 45.7834 18.1695 47.5938V49.8658ZM31.1143 49.8658H31.4986C31.37 49.8208 31.2418 49.7743 31.1143 49.7267V49.8658ZM22.5185 37.9988C27.1452 38.5069 30.8131 42.3204 31.0967 47.0089C32.004 47.4121 32.9482 47.7325 33.9199 47.9627C34.3229 48.0583 34.653 48.3464 34.8018 48.7331L35.7951 51.3138H39.6001L40.5933 48.7331C40.7421 48.3467 41.0716 48.0586 41.4743 47.9629C41.7171 47.9052 41.9582 47.8419 42.1977 47.7732V42.0689C40.825 42.6925 39.3005 43.0397 37.6947 43.0397C31.6737 43.0397 26.7973 38.1577 26.7973 32.1367C26.7973 26.1154 31.6733 21.2391 37.6947 21.2391C43.7159 21.2391 48.5979 26.1155 48.5979 32.1367C48.5979 32.6572 48.5613 33.1693 48.4906 33.6705H51.7289V32.2771C51.7289 31.5841 52.2906 31.0222 52.9838 31.0222H56.4316C56.5568 30.7701 56.7044 30.531 56.8719 30.3078V30.2369L54.2912 29.2437C53.9046 29.0948 53.6164 28.7648 53.5209 28.3618C53.1231 26.683 52.4619 25.087 51.558 23.62C51.3411 23.2678 51.3115 22.8316 51.479 22.4534L52.6001 19.9223L49.91 17.2321L47.3795 18.3572C47.0012 18.5256 46.564 18.4962 46.2114 18.279C44.7442 17.375 43.148 16.7136 41.4743 16.3158C41.0713 16.2201 40.7416 15.9317 40.593 15.545L39.5996 12.9594H35.7941L34.7959 15.5467C34.6468 15.9326 34.3176 16.2203 33.9152 16.3158C32.2415 16.7136 30.6453 17.375 29.1781 18.279C28.8255 18.4962 28.3883 18.5256 28.01 18.3572L25.4795 17.2321L22.7902 19.9213L23.9154 22.4518C24.0837 22.8302 24.0544 23.2674 23.8371 23.62C22.9325 25.0881 22.271 26.6854 21.8679 28.3652C21.7714 28.7668 21.4837 29.0953 21.0983 29.2437L18.5176 30.2369V34.0419L21.0983 35.0352C21.4834 35.1834 21.7711 35.5114 21.8675 35.9127C22.0385 36.6227 22.2559 37.3199 22.5185 37.9988ZM69.3706 36.1803V37.387C69.3706 38.0801 68.8087 38.6419 68.1157 38.6419H52.9838C52.2906 38.6419 51.7289 38.0801 51.7289 37.387V36.1803H45.4191C45.0275 36.1803 44.7075 36.5001 44.7075 36.8917V73.0495C44.7075 73.4405 45.028 73.7585 45.4191 73.7585H75.6804C76.0715 73.7585 76.3918 73.4405 76.3918 73.0495V36.8917C76.3918 36.5001 76.0719 36.1803 75.6804 36.1803H69.3706ZM42.1977 39.2208V36.8917C42.1977 35.119 43.6464 33.6705 45.4191 33.6705H45.9483C46.0401 33.1731 46.0881 32.6605 46.0881 32.1367C46.0881 27.5019 42.3295 23.7489 37.6947 23.7489C33.0602 23.7489 29.3071 27.502 29.3071 32.1367C29.3071 36.7714 33.06 40.5299 37.6947 40.5299C39.3516 40.5299 40.8967 40.0498 42.1977 39.2208ZM11.1871 52.3756C11.033 52.3756 10.906 52.4997 10.906 52.6531V68.9932C10.906 69.1472 11.033 69.2706 11.1871 69.2706H31.7438C31.8969 69.2706 32.0211 69.1464 32.0211 68.9932V52.6531C32.0211 52.5005 31.8969 52.3756 31.7438 52.3756H11.1871ZM21.4653 53.7375C23.8078 53.7375 25.7068 55.6399 25.7068 57.9823C25.7068 59.2443 25.1599 60.3753 24.2881 61.1521V65.0859C24.2881 66.6413 23.0144 67.9086 21.4653 67.9086C19.9099 67.9086 18.6426 66.6413 18.6426 65.0859V61.1522C17.77 60.3756 17.2205 59.2441 17.2205 57.9823C17.2205 55.6404 19.1234 53.7375 21.4653 53.7375ZM21.4653 56.2473C20.508 56.2473 19.7303 57.0252 19.7303 57.9823C19.7303 58.6077 20.0608 59.1544 20.5562 59.4598C20.9267 59.6884 21.1524 60.0926 21.1524 60.5281V65.0859C21.1524 65.2584 21.2929 65.3988 21.4653 65.3988C21.6371 65.3988 21.7783 65.2584 21.7783 65.0859V60.5281C21.7783 60.0926 22.004 59.6884 22.3745 59.4598C22.8697 59.1546 23.197 58.6074 23.197 57.9823C23.197 57.0255 22.4222 56.2473 21.4653 56.2473ZM54.2387 33.532V36.1321H66.8608V33.532H63.7973C63.2175 33.532 62.7132 33.1348 62.5773 32.571C62.3568 31.6564 61.532 30.977 60.5485 30.977C59.5667 30.977 58.7425 31.6565 58.5221 32.571C58.3863 33.1348 57.882 33.532 57.3021 33.532H54.2387ZM60.5485 33.3442C60.0625 33.3442 59.6668 32.9483 59.6668 32.4625C59.6668 31.974 60.0625 31.5783 60.5485 31.5783C61.037 31.5783 61.4327 31.974 61.4327 32.4625C61.4327 32.9483 61.037 33.3442 60.5485 33.3442ZM61.0763 44.8967C60.3836 44.8967 59.8214 44.3343 59.8214 43.6418C59.8214 42.9492 60.3836 42.3869 61.0763 42.3869H69.8194C70.5121 42.3869 71.0743 42.9492 71.0743 43.6418C71.0743 44.3343 70.5121 44.8967 69.8194 44.8967H61.0763ZM61.0763 54.2412C60.3836 54.2412 59.8214 53.6788 59.8214 52.9863C59.8214 52.2936 60.3836 51.7314 61.0763 51.7314H69.8194C70.5121 51.7314 71.0743 52.2936 71.0743 52.9863C71.0743 53.6788 70.5121 54.2412 69.8194 54.2412H61.0763ZM61.0763 57.5726C60.3836 57.5726 59.8214 57.0103 59.8214 56.3177C59.8214 55.6252 60.3836 55.0628 61.0763 55.0628H65.4478C66.1405 55.0628 66.7027 55.6252 66.7027 56.3177C66.7027 57.0103 66.1405 57.5726 65.4478 57.5726H61.0763ZM61.0763 48.2281C60.3836 48.2281 59.8214 47.6659 59.8214 46.9732C59.8214 46.2807 60.3836 45.7183 61.0763 45.7183H65.4478C66.1405 45.7183 66.7027 46.2807 66.7027 46.9732C66.7027 47.6659 66.1405 48.2281 65.4478 48.2281H61.0763ZM61.0763 65.6983C60.3836 65.6983 59.8214 65.1359 59.8214 64.4434C59.8214 63.7506 60.3836 63.1885 61.0763 63.1885H69.8194C70.5121 63.1885 71.0743 63.7506 71.0743 64.4434C71.0743 65.1359 70.5121 65.6983 69.8194 65.6983H61.0763ZM61.0763 69.0297C60.3836 69.0297 59.8214 68.4674 59.8214 67.7748C59.8214 67.0823 60.3836 66.5199 61.0763 66.5199H65.4478C66.1405 66.5199 66.7027 67.0823 66.7027 67.7748C66.7027 68.4674 66.1405 69.0297 65.4478 69.0297H61.0763ZM51.0412 40.9757H54.7491C56.1149 40.9757 57.2283 42.0892 57.2283 43.455V47.1629C57.2283 48.523 56.1149 49.6421 54.7491 49.6421H51.0412C49.6801 49.6421 48.5646 48.5238 48.5646 47.1629V43.455C48.5646 42.0884 49.6801 40.9757 51.0412 40.9757ZM51.0744 43.4855V47.1323H54.7185V43.4855H51.0744ZM51.0412 61.7773H54.7491C56.1157 61.7773 57.2283 62.8928 57.2283 64.2537V67.9618C57.2283 69.3274 56.1149 70.4408 54.7491 70.4408H51.0412C49.6801 70.4408 48.5646 69.3282 48.5646 67.9618V64.2537C48.5646 62.892 49.6793 61.7773 51.0412 61.7773ZM51.0744 64.2871V67.931H54.7185V64.2871H51.0744ZM51.0412 51.3765H54.7491C56.1149 51.3765 57.2283 52.4899 57.2283 53.8556V57.5637C57.2283 58.9246 56.1157 60.0401 54.7491 60.0401H51.0412C49.6793 60.0401 48.5646 58.9254 48.5646 57.5637V53.8556C48.5646 52.4892 49.6801 51.3765 51.0412 51.3765ZM51.0744 53.8863V57.5303H54.7185V53.8863H51.0744ZM9.33358 3.7312C13.879 3.7312 17.5695 7.42155 17.5695 11.9671C17.5695 16.5127 13.879 20.203 9.33358 20.203C4.78801 20.203 1.09766 16.5127 1.09766 11.9671C1.09766 7.42155 4.78801 3.7312 9.33358 3.7312ZM9.33358 6.241C6.17326 6.241 3.60746 8.80681 3.60746 11.9671C3.60746 15.1274 6.17326 17.6932 9.33358 17.6932C12.4939 17.6932 15.0597 15.1274 15.0597 11.9671C15.0597 8.80681 12.4939 6.241 9.33358 6.241ZM5.53373 13.0305C5.0437 12.5412 5.04291 11.7461 5.53232 11.2559C6.02158 10.7657 6.81687 10.7651 7.30707 11.2543L8.16072 12.1067L11.4037 9.16634C11.9168 8.70108 12.7111 8.73999 13.1764 9.25308C13.6415 9.76618 13.6028 10.5604 13.0897 11.0256L8.96197 14.7681C8.4666 15.2172 7.70581 15.199 7.23256 14.7265L5.53373 13.0305ZM66.1799 3.7312C70.7253 3.7312 74.4156 7.42155 74.4156 11.9671C74.4156 16.5127 70.7253 20.203 66.1799 20.203C61.6343 20.203 57.9439 16.5127 57.9439 11.9671C57.9439 7.42155 61.6343 3.7312 66.1799 3.7312ZM66.1799 6.241C63.0195 6.241 60.4537 8.80681 60.4537 11.9671C60.4537 15.1274 63.0195 17.6932 66.1799 17.6932C69.3402 17.6932 71.9058 15.1274 71.9058 11.9671C71.9058 8.80681 69.3402 6.241 66.1799 6.241ZM62.38 13.0305C61.89 12.5412 61.8892 11.7461 62.3786 11.2559C62.8679 10.7657 63.6632 10.7651 64.1532 11.2543L65.007 12.1067L68.25 9.16634C68.7631 8.70108 69.5574 8.73999 70.0227 9.25308C70.4878 9.76618 70.4489 10.5604 69.9358 11.0256L65.8082 14.7681C65.3129 15.2172 64.5521 15.199 64.0788 14.7265L62.38 13.0305Z" fill="#21ABE1"/>
</svg>
