<svg width="80" height="80" viewBox="0 0 80 80" fill="none" xmlns="http://www.w3.org/2000/svg">
<path fill-rule="evenodd" clip-rule="evenodd" d="M11.7159 54.9906L9.70806 57.0808C9.35324 57.4501 8.80971 57.5668 8.33457 57.3756C7.85943 57.1844 7.54821 56.7237 7.54821 56.2115V50.3797H5.8599C3.2519 50.3797 1.125 48.2579 1.125 45.6499V28.2176C1.125 25.6101 3.25253 23.4826 5.8599 23.4826H9.15135V15.865C9.15135 15.3632 9.45049 14.9095 9.91182 14.7117L41.4251 1.19943C41.7408 1.06406 42.0983 1.06406 42.4141 1.19943L73.935 14.7116C74.3964 14.9094 74.6955 15.363 74.6955 15.865V28.1306C77.0444 28.4057 78.8778 30.4128 78.8778 32.8333V50.2656C78.8778 52.8738 76.7509 54.9955 74.1429 54.9955H72.4546V60.8272C72.4546 61.3394 72.1433 61.8001 71.6682 61.9914C71.1931 62.1826 70.6495 62.0659 70.2947 61.6965L69.3366 60.6992C63.8133 69.939 54.4486 76.7348 43.2841 78.6791L42.1391 78.8826C41.994 78.9083 41.8453 78.9083 41.7002 78.8826L40.5551 78.6791C27.2039 76.353 16.4248 67.0819 11.7159 54.9906ZM11.6612 23.4826H16.8395V20.7008C16.8395 20.1988 17.1388 19.745 17.6001 19.5474L41.4251 9.33543C41.7407 9.20021 42.098 9.20021 42.4136 9.33543L66.2466 19.5472C66.7081 19.745 67.0073 20.1986 67.0073 20.7008V28.0983H72.1857C72.1857 24.8997 72.1857 16.6925 72.1857 16.6925L41.9197 3.71817L11.6612 16.6923V23.4826ZM19.3493 23.4826H31.3319C33.9394 23.4826 36.067 25.6101 36.067 28.2176V45.6499C36.067 48.2579 33.9399 50.3797 31.3319 50.3797H20.8439C24.0179 59.6528 31.9606 66.9048 41.9197 68.8888C50.1597 67.2482 57.0177 62.0044 60.9402 54.9955H48.6709C46.0629 54.9955 43.9358 52.8738 43.9358 50.2656V32.8333C43.9358 30.2258 46.0634 28.0983 48.6709 28.0983H64.4975C64.4975 25.8871 64.4975 21.5282 64.4975 21.5282L41.9195 11.8542L19.3493 21.5282V23.4826ZM18.2037 50.3797H16.1454L13.6472 52.9801C17.8059 64.8085 28.1161 73.9652 40.9882 76.207C40.9896 76.2073 40.991 76.2074 40.9924 76.2077L41.9197 76.3725L42.847 76.2077C42.8484 76.2074 42.8499 76.2073 42.8513 76.207C53.5165 74.3503 62.4215 67.75 67.5294 58.8179L63.8574 54.9955H63.7804C59.6055 63.3153 51.7187 69.5809 42.1539 71.4001C41.9989 71.4296 41.8398 71.4296 41.6848 71.4001C30.4273 69.2576 21.4922 60.9475 18.2037 50.3797ZM33.5572 45.6499V28.2176C33.5572 26.9922 32.5573 25.9924 31.3319 25.9924H5.8599C4.63465 25.9924 3.6348 26.9922 3.6348 28.2176V45.6499C3.6348 46.8747 4.63512 47.8699 5.8599 47.8699H8.80312C9.49614 47.8699 10.058 48.4317 10.058 49.1248V53.0937L14.7057 48.2554C14.9424 48.0092 15.2692 47.8699 15.6106 47.8699H31.3319C32.5568 47.8699 33.5572 46.8747 33.5572 45.6499ZM9.16108 38.2492C8.46853 38.2492 7.90618 37.687 7.90618 36.9943C7.90618 36.3017 8.46853 35.7394 9.16108 35.7394H27.7255C28.418 35.7394 28.9804 36.3017 28.9804 36.9943C28.9804 37.687 28.418 38.2492 27.7255 38.2492H9.16108ZM9.16108 43.767C8.46853 43.767 7.90618 43.2046 7.90618 42.5121C7.90618 41.8194 8.46853 41.2572 9.16108 41.2572H27.7255C28.418 41.2572 28.9804 41.8194 28.9804 42.5121C28.9804 43.2046 28.418 43.767 27.7255 43.767H9.16108ZM9.16108 32.7262C8.46853 32.7262 7.90618 32.164 7.90618 31.4713C7.90618 30.7787 8.46853 30.2164 9.16108 30.2164H27.7255C28.418 30.2164 28.9804 30.7787 28.9804 31.4713C28.9804 32.164 28.418 32.7262 27.7255 32.7262H9.16108ZM46.4456 50.2656C46.4456 51.4906 47.4459 52.4857 48.6709 52.4857H64.3921C64.7336 52.4857 65.0604 52.6248 65.2971 52.8713L69.9448 57.7094V53.7406C69.9448 53.0474 70.5066 52.4857 71.1997 52.4857H74.1429C75.3677 52.4857 76.368 51.4906 76.368 50.2656V32.8333C76.368 31.6079 75.3681 30.6081 74.1429 30.6081H48.6709C47.4455 30.6081 46.4456 31.6079 46.4456 32.8333V50.2656ZM70.8417 40.3552C71.5342 40.3552 72.0966 40.9175 72.0966 41.6101C72.0966 42.3026 71.5342 42.865 70.8417 42.865H52.2773C51.5848 42.865 51.0224 42.3026 51.0224 41.6101C51.0224 40.9175 51.5848 40.3552 52.2773 40.3552H70.8417ZM70.8417 34.8322C71.5342 34.8322 72.0966 35.3946 72.0966 36.0871C72.0966 36.7797 71.5342 37.342 70.8417 37.342H52.2773C51.5848 37.342 51.0224 36.7797 51.0224 36.0871C51.0224 35.3946 51.5848 34.8322 52.2773 34.8322H70.8417ZM70.8417 45.8728C71.5342 45.8728 72.0966 46.4352 72.0966 47.1277C72.0966 47.8203 71.5342 48.3826 70.8417 48.3826H52.2773C51.5848 48.3826 51.0224 47.8203 51.0224 47.1277C51.0224 46.4352 51.5848 45.8728 52.2773 45.8728H70.8417Z" fill="#21ABE1"/>
</svg>
