<svg width="80" height="80" viewBox="0 0 80 80" fill="none" xmlns="http://www.w3.org/2000/svg">
<path d="M46.25 41.2495H65V52.4995H67.5V39.9995C67.5 39.668 67.3683 39.35 67.1339 39.1156C66.8995 38.8812 66.5815 38.7495 66.25 38.7495H46.25V41.2495Z" fill="#21ABE1"/>
<path d="M15 41.2495H33.75V38.7495H13.75C13.4185 38.7495 13.1005 38.8812 12.8661 39.1156C12.6317 39.35 12.5 39.668 12.5 39.9995V52.4995H15V41.2495Z" fill="#21ABE1"/>
<path d="M41.2512 52.4995V43.5195C41.9819 43.265 42.6152 42.7893 43.0634 42.1586C43.5116 41.5278 43.7524 40.7733 43.7524 39.9995C43.7524 39.2258 43.5116 38.4712 43.0634 37.8404C42.6152 37.2097 41.9819 36.7341 41.2512 36.4795V31.2495H38.7512V36.4795C38.0205 36.7341 37.3871 37.2097 36.939 37.8404C36.4908 38.4712 36.25 39.2258 36.25 39.9995C36.25 40.7733 36.4908 41.5278 36.939 42.1586C37.3871 42.7893 38.0205 43.265 38.7512 43.5195V52.4995H41.2512ZM40.0012 38.7495C40.2484 38.7495 40.4901 38.8228 40.6956 38.9602C40.9012 39.0975 41.0614 39.2928 41.156 39.5212C41.2506 39.7496 41.2754 40.0009 41.2272 40.2434C41.1789 40.4859 41.0599 40.7086 40.8851 40.8834C40.7103 41.0582 40.4875 41.1773 40.245 41.2255C40.0026 41.2737 39.7512 41.249 39.5228 41.1544C39.2944 41.0597 39.0992 40.8995 38.9618 40.694C38.8245 40.4884 38.7512 40.2467 38.7512 39.9995C38.7512 39.668 38.8829 39.35 39.1173 39.1156C39.3517 38.8812 39.6697 38.7495 40.0012 38.7495Z" fill="#21ABE1"/>
<path d="M7.5 46.2495H10V48.7495H7.5V46.2495Z" fill="#21ABE1"/>
<path d="M7.5 41.2495H10V43.7495H7.5V41.2495Z" fill="#21ABE1"/>
<path d="M70 46.2495H72.5V48.7495H70V46.2495Z" fill="#21ABE1"/>
<path d="M70 41.2495H72.5V43.7495H70V41.2495Z" fill="#21ABE1"/>
<path d="M52.5 33.7495H55V36.2495H52.5V33.7495Z" fill="#21ABE1"/>
<path d="M57.5 33.7495H60V36.2495H57.5V33.7495Z" fill="#21ABE1"/>
<path d="M62.5 33.7495H65V36.2495H62.5V33.7495Z" fill="#21ABE1"/>
<path d="M25 33.7495H27.5V36.2495H25V33.7495Z" fill="#21ABE1"/>
<path d="M20 33.7495H22.5V36.2495H20V33.7495Z" fill="#21ABE1"/>
<path d="M15 33.7495H17.5V36.2495H15V33.7495Z" fill="#21ABE1"/>
<path d="M47.25 55.4995C47.1336 55.3443 46.9826 55.2183 46.809 55.1315C46.6354 55.0447 46.4441 54.9995 46.25 54.9995H33.75C33.5559 54.9995 33.3646 55.0447 33.191 55.1315C33.0174 55.2183 32.8664 55.3443 32.75 55.4995L29 60.4995C28.8377 60.7159 28.75 60.979 28.75 61.2495V63.7495C28.7516 64.2739 28.8638 64.7921 29.0792 65.2703C29.2946 65.7484 29.6083 66.1758 30 66.5245V74.9995C30 75.6626 30.2634 76.2984 30.7322 76.7673C31.2011 77.2361 31.837 77.4995 32.5 77.4995H47.5C48.163 77.4995 48.7989 77.2361 49.2678 76.7673C49.7366 76.2984 50 75.6626 50 74.9995V66.5245C50.3917 66.1758 50.7054 65.7484 50.9208 65.2703C51.1362 64.7921 51.2484 64.2739 51.25 63.7495V61.2495C51.25 60.979 51.1623 60.7159 51 60.4995L47.25 55.4995ZM34.375 57.4995H45.625L47.5 59.9995H32.5L34.375 57.4995ZM47.5 64.9995C47.1685 64.9995 46.8505 64.8678 46.6161 64.6334C46.3817 64.399 46.25 64.081 46.25 63.7495H43.75C43.75 64.081 43.6183 64.399 43.3839 64.6334C43.1495 64.8678 42.8315 64.9995 42.5 64.9995C42.1685 64.9995 41.8505 64.8678 41.6161 64.6334C41.3817 64.399 41.25 64.081 41.25 63.7495H38.75C38.75 64.081 38.6183 64.399 38.3839 64.6334C38.1495 64.8678 37.8315 64.9995 37.5 64.9995C37.1685 64.9995 36.8505 64.8678 36.6161 64.6334C36.3817 64.399 36.25 64.081 36.25 63.7495H33.75C33.75 64.081 33.6183 64.399 33.3839 64.6334C33.1495 64.8678 32.8315 64.9995 32.5 64.9995C32.1685 64.9995 31.8505 64.8678 31.6161 64.6334C31.3817 64.399 31.25 64.081 31.25 63.7495V62.4995H48.75V63.7495C48.75 64.081 48.6183 64.399 48.3839 64.6334C48.1495 64.8678 47.8315 64.9995 47.5 64.9995ZM41.25 74.9995H38.75V72.4995H41.25V74.9995ZM47.5 74.9995H43.75V71.2495C43.75 70.918 43.6183 70.6 43.3839 70.3656C43.1495 70.1312 42.8315 69.9995 42.5 69.9995H37.5C37.1685 69.9995 36.8505 70.1312 36.6161 70.3656C36.3817 70.6 36.25 70.918 36.25 71.2495V74.9995H32.5V67.4995C33.4255 67.4963 34.3167 67.1487 35 66.5245C35.6816 67.1515 36.5739 67.4996 37.5 67.4996C38.4261 67.4996 39.3184 67.1515 40 66.5245C40.6816 67.1515 41.5739 67.4996 42.5 67.4996C43.4261 67.4996 44.3184 67.1515 45 66.5245C45.6833 67.1487 46.5745 67.4963 47.5 67.4995V74.9995Z" fill="#21ABE1"/>
<path d="M21 55.4995C20.8836 55.3443 20.7326 55.2183 20.559 55.1315C20.3854 55.0447 20.1941 54.9995 20 54.9995H7.5C7.30594 54.9995 7.11455 55.0447 6.94098 55.1315C6.76741 55.2183 6.61643 55.3443 6.5 55.4995L2.75 60.4995C2.58772 60.7159 2.5 60.979 2.5 61.2495V63.7495C2.50164 64.2739 2.61382 64.7921 2.8292 65.2703C3.04458 65.7484 3.35834 66.1758 3.75 66.5245V74.9995C3.75 75.6626 4.01339 76.2984 4.48223 76.7673C4.95107 77.2361 5.58696 77.4995 6.25 77.4995H21.25C21.913 77.4995 22.5489 77.2361 23.0178 76.7673C23.4866 76.2984 23.75 75.6626 23.75 74.9995V66.5245C24.1417 66.1758 24.4554 65.7484 24.6708 65.2703C24.8862 64.7921 24.9984 64.2739 25 63.7495V61.2495C25 60.979 24.9123 60.7159 24.75 60.4995L21 55.4995ZM8.125 57.4995H19.375L21.25 59.9995H6.25L8.125 57.4995ZM21.25 64.9995C20.9185 64.9995 20.6005 64.8678 20.3661 64.6334C20.1317 64.399 20 64.081 20 63.7495H17.5C17.5 64.081 17.3683 64.399 17.1339 64.6334C16.8995 64.8678 16.5815 64.9995 16.25 64.9995C15.9185 64.9995 15.6005 64.8678 15.3661 64.6334C15.1317 64.399 15 64.081 15 63.7495H12.5C12.5 64.081 12.3683 64.399 12.1339 64.6334C11.8995 64.8678 11.5815 64.9995 11.25 64.9995C10.9185 64.9995 10.6005 64.8678 10.3661 64.6334C10.1317 64.399 10 64.081 10 63.7495H7.5C7.5 64.081 7.3683 64.399 7.13388 64.6334C6.89946 64.8678 6.58152 64.9995 6.25 64.9995C5.91848 64.9995 5.60054 64.8678 5.36612 64.6334C5.1317 64.399 5 64.081 5 63.7495V62.4995H22.5V63.7495C22.5 64.081 22.3683 64.399 22.1339 64.6334C21.8995 64.8678 21.5815 64.9995 21.25 64.9995ZM15 74.9995H12.5V72.4995H15V74.9995ZM21.25 74.9995H17.5V71.2495C17.5 70.918 17.3683 70.6 17.1339 70.3656C16.8995 70.1312 16.5815 69.9995 16.25 69.9995H11.25C10.9185 69.9995 10.6005 70.1312 10.3661 70.3656C10.1317 70.6 10 70.918 10 71.2495V74.9995H6.25V67.4995C7.1755 67.4963 8.06667 67.1487 8.75 66.5245C9.43157 67.1515 10.3239 67.4996 11.25 67.4996C12.1761 67.4996 13.0684 67.1515 13.75 66.5245C14.4316 67.1515 15.3239 67.4996 16.25 67.4996C17.1761 67.4996 18.0684 67.1515 18.75 66.5245C19.4333 67.1487 20.3245 67.4963 21.25 67.4995V74.9995Z" fill="#21ABE1"/>
<path d="M77.25 60.4995L73.5 55.4995C73.3836 55.3443 73.2326 55.2183 73.059 55.1315C72.8854 55.0447 72.6941 54.9995 72.5 54.9995H60C59.8059 54.9995 59.6146 55.0447 59.441 55.1315C59.2674 55.2183 59.1164 55.3443 59 55.4995L55.25 60.4995C55.0877 60.7159 55 60.979 55 61.2495V63.7495C55.0016 64.2739 55.1138 64.7921 55.3292 65.2703C55.5446 65.7484 55.8583 66.1758 56.25 66.5245V74.9995C56.25 75.6626 56.5134 76.2984 56.9822 76.7673C57.4511 77.2361 58.087 77.4995 58.75 77.4995H73.75C74.413 77.4995 75.0489 77.2361 75.5178 76.7673C75.9866 76.2984 76.25 75.6626 76.25 74.9995V66.5245C76.6417 66.1758 76.9554 65.7484 77.1708 65.2703C77.3862 64.7921 77.4984 64.2739 77.5 63.7495V61.2495C77.5 60.979 77.4123 60.7159 77.25 60.4995ZM60.625 57.4995H71.875L73.75 59.9995H58.75L60.625 57.4995ZM73.75 64.9995C73.4185 64.9995 73.1005 64.8678 72.8661 64.6334C72.6317 64.399 72.5 64.081 72.5 63.7495H70C70 64.081 69.8683 64.399 69.6339 64.6334C69.3995 64.8678 69.0815 64.9995 68.75 64.9995C68.4185 64.9995 68.1005 64.8678 67.8661 64.6334C67.6317 64.399 67.5 64.081 67.5 63.7495H65C65 64.081 64.8683 64.399 64.6339 64.6334C64.3995 64.8678 64.0815 64.9995 63.75 64.9995C63.4185 64.9995 63.1005 64.8678 62.8661 64.6334C62.6317 64.399 62.5 64.081 62.5 63.7495H60C60 64.081 59.8683 64.399 59.6339 64.6334C59.3995 64.8678 59.0815 64.9995 58.75 64.9995C58.4185 64.9995 58.1005 64.8678 57.8661 64.6334C57.6317 64.399 57.5 64.081 57.5 63.7495V62.4995H75V63.7495C75 64.081 74.8683 64.399 74.6339 64.6334C74.3995 64.8678 74.0815 64.9995 73.75 64.9995ZM67.5 74.9995H65V72.4995H67.5V74.9995ZM73.75 74.9995H70V71.2495C70 70.918 69.8683 70.6 69.6339 70.3656C69.3995 70.1312 69.0815 69.9995 68.75 69.9995H63.75C63.4185 69.9995 63.1005 70.1312 62.8661 70.3656C62.6317 70.6 62.5 70.918 62.5 71.2495V74.9995H58.75V67.4995C59.6755 67.4963 60.5667 67.1487 61.25 66.5245C61.9316 67.1515 62.8239 67.4996 63.75 67.4996C64.6761 67.4996 65.5684 67.1515 66.25 66.5245C66.9316 67.1515 67.8239 67.4996 68.75 67.4996C69.6761 67.4996 70.5684 67.1515 71.25 66.5245C71.9333 67.1487 72.8245 67.4963 73.75 67.4995V74.9995Z" fill="#21ABE1"/>
<path d="M27.5 28.7496H52.5C54.4891 28.7496 56.3968 27.9594 57.8033 26.5529C59.2098 25.1463 60 23.2387 60 21.2496C60 19.2604 59.2098 17.3528 57.8033 15.9463C56.3968 14.5397 54.4891 13.7496 52.5 13.7496H52.4212C52.719 11.3389 52.1292 8.90229 50.7619 6.89468C49.3946 4.88708 47.3434 3.44575 44.9912 2.83983C42.639 2.23391 40.1467 2.50483 37.9797 3.602C35.8126 4.69916 34.119 6.54757 33.215 8.80206C32.9783 8.76699 32.7393 8.74945 32.5 8.74956C31.1739 8.74956 29.9021 9.27634 28.9645 10.214C28.0268 11.1517 27.5 12.4235 27.5 13.7496C25.5109 13.7496 23.6032 14.5397 22.1967 15.9463C20.7902 17.3528 20 19.2604 20 21.2496C20 23.2387 20.7902 25.1463 22.1967 26.5529C23.6032 27.9594 25.5109 28.7496 27.5 28.7496ZM27.5 16.2496H28.98C29.18 16.2494 29.377 16.2013 29.5546 16.1093C29.7321 16.0173 29.885 15.884 30.0004 15.7206C30.1157 15.5572 30.1902 15.3686 30.2175 15.1705C30.2449 14.9723 30.2243 14.7706 30.1575 14.5821C30.0575 14.3157 30.0042 14.0341 30 13.7496C29.9977 13.3321 30.1004 12.9209 30.2989 12.5536C30.4973 12.1864 30.785 11.875 31.1355 11.6483C31.4859 11.4215 31.8878 11.2866 32.3041 11.256C32.7204 11.2254 33.1377 11.3002 33.5175 11.4733C33.6838 11.5481 33.8645 11.5855 34.0468 11.5831C34.2291 11.5806 34.4087 11.5383 34.573 11.4591C34.7372 11.3799 34.8821 11.2657 34.9976 11.1246C35.113 10.9834 35.1962 10.8188 35.2413 10.6421C35.4709 9.65769 35.8971 8.72989 36.4943 7.91439C37.0915 7.0989 37.8475 6.41255 38.7166 5.89656C39.5858 5.38058 40.5503 5.04561 41.5522 4.91179C42.5541 4.77797 43.5727 4.84804 44.5469 5.11782C45.521 5.38759 46.4305 5.85149 47.2209 6.48164C48.0112 7.1118 48.666 7.89521 49.1459 8.78481C49.6258 9.67441 49.921 10.6518 50.0136 11.6584C50.1063 12.6649 49.9945 13.6798 49.685 14.6421C49.6293 14.8286 49.618 15.0256 49.6519 15.2173C49.6858 15.409 49.7641 15.5902 49.8804 15.7463C49.9967 15.9024 50.1478 16.0292 50.3218 16.1166C50.4958 16.204 50.6878 16.2495 50.8825 16.2496H52.5C53.8261 16.2496 55.0979 16.7763 56.0355 17.714C56.9732 18.6517 57.5 19.9235 57.5 21.2496C57.5 22.5756 56.9732 23.8474 56.0355 24.7851C55.0979 25.7228 53.8261 26.2496 52.5 26.2496H27.5C26.1739 26.2496 24.9021 25.7228 23.9645 24.7851C23.0268 23.8474 22.5 22.5756 22.5 21.2496C22.5 19.9235 23.0268 18.6517 23.9645 17.714C24.9021 16.7763 26.1739 16.2496 27.5 16.2496Z" fill="#21ABE1"/>
<path d="M38.75 21.2493H41.25V23.7493H38.75V21.2493Z" fill="#21ABE1"/>
<path d="M35.582 18.0802L37.3495 19.8477C38.0638 19.1659 39.0133 18.7855 40.0008 18.7855C40.9882 18.7855 41.9377 19.1659 42.652 19.8477L44.4195 18.0802C43.2475 16.9085 41.6581 16.2502 40.0008 16.2502C38.3435 16.2502 36.7541 16.9085 35.582 18.0802Z" fill="#21ABE1"/>
<path d="M46.1855 16.312L47.953 14.5445C45.8412 12.4384 42.9805 11.2556 39.998 11.2556C37.0155 11.2556 34.1547 12.4384 32.043 14.5445L33.8105 16.312C35.4529 14.6736 37.6781 13.7535 39.998 13.7535C42.3179 13.7535 44.543 14.6736 46.1855 16.312Z" fill="#21ABE1"/>
</svg>
