<svg width="80" height="80" viewBox="0 0 80 80" fill="none" xmlns="http://www.w3.org/2000/svg">
<path d="M35.2697 3.74976H40.6439V8.42601H40.0616C39.3577 8.42601 38.7295 8.81897 38.4223 9.45148C38.1152 10.0841 38.1948 10.8207 38.6305 11.3741L43.0431 16.979C43.3906 17.4202 43.912 17.6733 44.4736 17.6735H44.4741C45.0358 17.6735 45.5572 17.4205 45.9053 16.979L50.3178 11.3741C50.7531 10.821 50.833 10.0844 50.5258 9.45179C50.2186 8.81913 49.5906 8.42616 48.8867 8.42616H48.3042V3.74976H53.6783C54.3686 3.74976 54.9283 3.19007 54.9283 2.49976C54.9283 1.80944 54.3686 1.24976 53.6783 1.24976H35.2697C34.5794 1.24976 34.0197 1.80944 34.0197 2.49976C34.0197 3.19007 34.5794 3.74976 35.2697 3.74976ZM47.0544 10.9262H47.4888L44.4741 14.7554L41.4594 10.9262H41.8937C42.5841 10.9262 43.1437 10.3665 43.1437 9.67616V3.74976H45.8042V9.67601C45.8044 10.3665 46.3641 10.9262 47.0544 10.9262ZM73.3073 28.6193H59.9492L62.8783 24.3248C62.9453 24.2265 62.997 24.1207 63.033 24.0109C63.3338 23.6288 63.5133 23.1474 63.5133 22.6252V21.1118C63.5133 19.8738 62.5061 18.8666 61.2681 18.8666H27.6802C26.442 18.8666 25.4348 19.8738 25.4348 21.1118V22.6252C25.4348 23.1646 25.6266 23.6605 25.9455 24.0483C25.9806 24.1448 26.0278 24.2376 26.0872 24.3248L29.0163 28.6193H15.6408C14.9505 28.6193 14.3908 29.179 14.3908 29.8693V45.4643L12.7902 44.7533C12.3173 44.5434 11.7647 44.6462 11.3989 45.0119L8.64688 47.764C8.28125 48.1296 8.17859 48.6826 8.38844 49.1552L9.16609 50.9063C8.68875 51.7744 8.30953 52.6894 8.03312 53.6391L6.24625 54.3269C5.76375 54.5127 5.44531 54.9765 5.44531 55.4935V59.3854C5.44531 59.9026 5.76375 60.3662 6.24625 60.5519L8.03281 61.2396C8.30938 62.1899 8.68859 63.1051 9.16594 63.9732L8.38844 65.7238C8.17859 66.1963 8.28125 66.7494 8.64688 67.1151L11.3989 69.8671C11.7647 70.2327 12.3175 70.3355 12.7902 70.1257L14.3908 69.4148V77.4998C14.3908 78.1901 14.9505 78.7498 15.6408 78.7498H73.3073C73.9977 78.7498 74.5573 78.1901 74.5573 77.4998V29.8693C74.5573 29.1788 73.9977 28.6193 73.3073 28.6193ZM48.4758 52.1249V54.8999L40.6177 50.6516V41.5784C40.6177 41.3271 40.542 41.0816 40.4003 40.8741L29.4853 24.8705H59.4798L48.5648 40.8741C48.4203 41.086 48.3445 41.3371 48.3477 41.5935L48.4758 52.1249ZM61.0134 21.3666V22.3704H27.9347V21.3666H61.0134ZM12.5597 67.4924L11.0214 65.9541L11.7097 64.4043C11.8769 64.0276 11.8478 63.5924 11.6316 63.2415C11.0153 62.2407 10.565 61.1546 10.2933 60.013C10.198 59.6121 9.91094 59.284 9.52641 59.136L7.94516 58.5273V56.3518L9.52688 55.7429C9.91156 55.5948 10.1984 55.2666 10.2938 54.8657C10.5652 53.7251 11.0155 52.6391 11.6317 51.638C11.848 51.2869 11.877 50.8521 11.7098 50.4754L11.0214 48.9249L12.5597 47.3866L14.1105 48.0754C14.4869 48.2426 14.922 48.2135 15.2733 47.9973C16.2742 47.3808 17.36 46.9305 18.5005 46.6591C18.9012 46.5637 19.2295 46.2768 19.3775 45.8921L19.9864 44.3101H22.1619L22.7708 45.8919C22.9188 46.2766 23.2469 46.5635 23.6478 46.659C24.7883 46.9304 25.8741 47.3807 26.8753 47.9971C27.2263 48.2134 27.6616 48.2423 28.038 48.0752L29.5888 47.3865L31.127 48.9248L30.4386 50.4746C30.2714 50.8515 30.3005 51.2865 30.5167 51.6376C31.1333 52.6387 31.5836 53.7248 31.8548 54.8657C31.9503 55.2666 32.2372 55.5949 32.6219 55.7429L34.2033 56.3516V58.5271L32.6214 59.136C32.2369 59.284 31.9498 59.6121 31.8545 60.013C31.583 61.1537 31.1328 62.2396 30.5164 63.2405C30.3003 63.5916 30.2713 64.0265 30.4384 64.4032L31.127 65.9538L29.5888 67.4923L28.0388 66.8038C27.6622 66.6365 27.2272 66.6655 26.8759 66.8819C25.8748 67.4985 24.7887 67.9488 23.6478 68.2202C23.2469 68.3155 22.9186 68.6026 22.7706 68.9873L22.1619 70.5687H19.9864L19.3775 68.9868C19.2295 68.6021 18.9012 68.3151 18.5003 68.2198C17.3603 67.9485 16.2745 67.4984 15.273 66.8818C14.9217 66.6655 14.4867 66.6366 14.1103 66.8038L12.5597 67.4924ZM72.0573 76.2498H16.8908V70.3626C17.018 70.4037 17.1456 70.4434 17.2741 70.4807L17.9619 72.2677C18.1475 72.7504 18.6113 73.0687 19.1284 73.0687H23.0203C23.5375 73.0687 24.0011 72.7502 24.1869 72.2677L24.8745 70.4812C25.8245 70.2048 26.7398 69.8254 27.608 69.348L29.3586 70.1255C29.8309 70.3354 30.3841 70.2329 30.7498 69.8671L33.5019 67.1149C33.8675 66.7493 33.9702 66.1963 33.7603 65.7237L32.9825 63.9723C33.4597 63.1043 33.8389 62.1894 34.1153 61.2399L35.9025 60.5519C36.385 60.3663 36.7034 59.9026 36.7034 59.3854V55.4935C36.7034 54.9763 36.385 54.5127 35.9025 54.3269L34.1159 53.6393C33.8395 52.6891 33.4602 51.774 32.9827 50.9057L33.7603 49.1551C33.9702 48.6824 33.8675 48.1294 33.5017 47.7638L30.7497 45.0118C30.3841 44.6462 29.8314 44.5434 29.3586 44.7532L27.6072 45.5312C26.7392 45.0538 25.8242 44.6746 24.8747 44.3982L24.1869 42.611C24.0012 42.1283 23.5375 41.8101 23.0203 41.8101H19.1284C18.6113 41.8101 18.1477 42.1285 17.9619 42.611L17.2739 44.3982C17.1455 44.4355 17.0178 44.4752 16.8908 44.5163V31.1191H30.7213L38.1177 41.9638V51.3966C38.1177 51.8557 38.3692 52.2779 38.7731 52.4962L49.1312 58.0962C49.3169 58.1966 49.5214 58.2466 49.7258 58.2466C49.9475 58.2466 50.1691 58.1877 50.3659 58.0704C50.7442 57.8449 50.9758 57.4371 50.9758 56.9966L50.9756 52.1096L50.8523 41.9569L58.2442 31.1191H72.0573V76.2498ZM68.6747 45.6726C69.365 45.6726 69.9247 46.2323 69.9247 46.9226C69.9247 47.6129 69.365 48.1726 68.6747 48.1726H53.3492C52.6589 48.1726 52.0992 47.6129 52.0992 46.9226C52.0992 46.2323 52.6589 45.6726 53.3492 45.6726H68.6747ZM69.9247 51.6201C69.9247 52.3104 69.365 52.8701 68.6747 52.8701H53.3492C52.6589 52.8701 52.0992 52.3104 52.0992 51.6201C52.0992 50.9298 52.6589 50.3701 53.3492 50.3701H68.6747C69.365 50.3701 69.9247 50.9298 69.9247 51.6201ZM69.9247 56.3177C69.9247 57.008 69.365 57.5677 68.6747 57.5677H53.3492C52.6589 57.5677 52.0992 57.008 52.0992 56.3177C52.0992 55.6274 52.6589 55.0677 53.3492 55.0677H68.6747C69.365 55.0677 69.9247 55.6273 69.9247 56.3177ZM69.9247 61.0152C69.9247 61.7055 69.365 62.2652 68.6747 62.2652H39.297C38.6067 62.2652 38.047 61.7055 38.047 61.0152C38.047 60.3249 38.6067 59.7652 39.297 59.7652H68.6747C69.365 59.7652 69.9247 60.3248 69.9247 61.0152ZM69.9247 65.7127C69.9247 66.403 69.365 66.9627 68.6747 66.9627H37.9361C37.2458 66.9627 36.6861 66.403 36.6861 65.7127C36.6861 65.0224 37.2458 64.4627 37.9361 64.4627H68.6747C69.365 64.4627 69.9247 65.0224 69.9247 65.7127ZM69.9247 70.4102C69.9247 71.1005 69.365 71.6602 68.6747 71.6602H34.6806C33.9903 71.6602 33.4306 71.1005 33.4306 70.4102C33.4306 69.7199 33.9903 69.1602 34.6806 69.1602H68.6747C69.365 69.1602 69.9247 69.7199 69.9247 70.4102ZM21.067 65.5082C25.5003 65.5082 29.1072 61.9015 29.1072 57.468C29.1072 53.0346 25.5003 49.4277 21.067 49.4277C16.6338 49.4277 13.027 53.0346 13.027 57.468C13.027 61.9015 16.6338 65.5082 21.067 65.5082ZM21.067 51.9279C24.1219 51.9279 26.6072 54.4132 26.6072 57.4682C26.6072 60.523 24.1219 63.0084 21.067 63.0084C18.0122 63.0084 15.527 60.523 15.527 57.4682C15.527 54.4133 18.0123 51.9279 21.067 51.9279Z" fill="#21ABE1"/>
</svg>
