<svg width="80" height="80" viewBox="0 0 80 80" fill="none" xmlns="http://www.w3.org/2000/svg">
<g clip-path="url(#clip0_830_57029)">
<path d="M67.9859 38.6808C74.0991 38.6899 79.2412 34.1009 79.9246 28.0261C80.608 21.9513 76.6145 16.334 70.6516 14.9849C70.6516 14.8846 70.6516 14.7864 70.6516 14.6887C70.6458 9.53811 66.472 5.36436 61.3214 5.35851C60.3107 5.35786 59.3065 5.52447 58.3504 5.85313C55.3195 1.83169 50.4331 -0.349229 45.4153 0.079665C40.3974 0.509209 35.9529 3.48804 33.6483 7.96571C29.1687 4.86128 23.3354 4.50202 18.5088 7.03438C13.683 9.56609 10.6631 14.5703 10.6716 20.0203V20.0938C4.34168 20.7967 -0.335798 26.3242 0.0189017 32.684C0.372951 39.0433 5.63552 44.0169 12.0045 44.0123H29.3321V41.3465H12.0045C6.85191 41.3283 2.68924 37.1363 2.70811 31.9831C2.72633 26.8299 6.9183 22.6679 12.0715 22.6861C12.4484 22.6861 12.807 22.5266 13.0601 22.2474C13.3127 21.9682 13.435 21.5946 13.3979 21.2198C13.3589 20.8202 13.3374 20.4206 13.3374 20.0203C13.3335 14.6965 16.8414 10.008 21.9498 8.5085C27.0581 7.009 32.5432 9.05845 35.4173 13.54C35.7811 14.1056 36.5094 14.3113 37.1153 14.0197C38.0128 13.583 38.9975 13.3558 39.9952 13.3558C43.6743 13.3604 46.6557 16.3418 46.6596 20.0203C46.6583 20.4127 46.6212 20.8039 46.549 21.1892C46.4839 21.5523 46.5718 21.9266 46.7924 22.222C47.013 22.5182 47.3462 22.7095 47.7127 22.7505C51.9534 23.2321 55.326 26.5305 55.9033 30.7589C56.4806 34.9873 54.1148 39.0686 50.1585 40.6697L51.1581 43.1396C53.3937 42.2388 55.3052 40.6853 56.6433 38.6808H67.9859ZM49.3254 20.3216C49.3254 20.2201 49.3254 20.1205 49.3254 20.0203C49.3195 14.8697 45.1458 10.6959 39.9952 10.6901C38.9838 10.6894 37.9783 10.8554 37.0203 11.1821C36.6363 10.6784 36.2197 10.1993 35.7739 9.74897C37.5722 5.74249 41.4231 3.04482 45.8031 2.72397C50.1825 2.40311 54.3856 4.51048 56.7487 8.21238C57.1138 8.78055 57.846 8.98556 58.4532 8.68943C59.3462 8.25142 60.3276 8.02364 61.3214 8.02429C63.298 8.00932 65.1782 8.87882 66.446 10.3952C67.7138 11.911 68.2371 13.9149 67.8726 15.8576C67.8095 16.2201 67.8987 16.5924 68.1186 16.8866C68.3393 17.1807 68.6712 17.3708 69.0363 17.4118C73.9617 17.9604 77.5985 22.263 77.3194 27.2106C77.0401 32.1582 72.9419 36.0247 67.9859 36.015H57.9508C59.1112 32.7914 58.8307 29.2243 57.1802 26.222C55.5297 23.2191 52.6693 21.0701 49.3254 20.3216Z" fill="#21ABE1"/>
<path d="M67.5931 47.0686L63.5944 43.0699C63.0744 42.5499 62.2303 42.5499 61.7096 43.0699L57.7109 47.0686L59.5957 48.9534L61.3191 47.23V57.3412H63.9849V47.23L65.7083 48.9534L67.5931 47.0686Z" fill="#21ABE1"/>
<path d="M61.3203 60.0066H63.9861V62.6724H61.3203V60.0066Z" fill="#21ABE1"/>
<path d="M61.3203 65.3386H63.9861V68.0044H61.3203V65.3386Z" fill="#21ABE1"/>
<path d="M71.0416 51.067L67.043 55.0657L68.9278 56.9505L70.6511 55.2271V65.3383H73.3169V55.2271L75.0403 56.9505L76.9251 55.0657L72.9264 51.067C72.4064 50.547 71.5623 50.547 71.0416 51.067Z" fill="#21ABE1"/>
<path d="M70.6523 68.0042H73.3181V70.6699H70.6523V68.0042Z" fill="#21ABE1"/>
<path d="M70.6523 73.3357H73.3181V76.0015H70.6523V73.3357Z" fill="#21ABE1"/>
<path d="M16.3932 47.0685L12.3945 51.0671L14.2793 52.9519L16.0027 51.2285V61.3398H18.6685V51.2285L20.3919 52.9519L22.2767 51.0671L18.278 47.0685C17.758 46.5485 16.9139 46.5485 16.3932 47.0685Z" fill="#21ABE1"/>
<path d="M16.0039 64.0056H18.6697V66.6714H16.0039V64.0056Z" fill="#21ABE1"/>
<path d="M16.0039 69.3367H18.6697V72.0024H16.0039V69.3367Z" fill="#21ABE1"/>
<path d="M7.06508 55.0655L3.06641 59.0642L4.9512 60.949L6.67458 59.2256V69.3368H9.34036V59.2256L11.0637 60.949L12.9485 59.0642L8.94987 55.0655C8.42986 54.5455 7.58574 54.5455 7.06508 55.0655Z" fill="#21ABE1"/>
<path d="M6.67188 72.0029H9.33765V74.6687H6.67188V72.0029Z" fill="#21ABE1"/>
<path d="M6.67188 77.3345H9.33765V80.0003H6.67188V77.3345Z" fill="#21ABE1"/>
<path d="M51.2235 51.9407C50.6996 50.559 49.4591 49.5769 47.9935 49.3843V41.5932C47.9993 40.2591 47.5991 38.9548 46.8461 37.853C42.8526 32.0164 40.7029 32.0164 39.9961 32.0164C39.29 32.0164 37.139 32.0164 33.1469 37.8517C32.3945 38.9542 31.9943 40.2591 31.9988 41.5932V49.3843C30.5345 49.5769 29.294 50.5584 28.7694 51.9394L26.0945 59.0744C25.7886 59.8925 25.9032 60.8089 26.4011 61.5267C26.8989 62.2446 27.717 62.6728 28.5911 62.6728H33.3317C33.8374 62.6735 34.2988 62.3878 34.5247 61.9361L35.2178 60.5498L36.0658 63.0939C35.167 64.0688 34.6672 65.3458 34.6646 66.6715C34.6646 69.4173 36.7414 74.6688 39.9961 74.6688C43.2516 74.6688 45.3277 69.4173 45.3277 66.6715C45.3245 65.3464 44.8233 64.0708 43.9245 63.0972L44.7732 60.5511L45.4663 61.9387C45.6935 62.3897 46.1556 62.6741 46.6606 62.6728H51.4019C52.2759 62.6728 53.094 62.2446 53.5919 61.5267C54.0898 60.8089 54.2043 59.8925 53.8984 59.0744L51.2235 51.9407ZM38.2916 61.3399L37.8465 60.007H42.1465L41.7013 61.3399H38.2916ZM34.6646 41.5932C34.6607 40.7966 34.8982 40.017 35.346 39.3583C37.8771 35.659 39.495 34.6821 39.9961 34.6821C40.4973 34.6821 42.1159 35.659 44.6469 39.3596C45.0947 40.0176 45.3323 40.7966 45.3277 41.5932V57.3413H41.329V49.3439H38.6633V57.3413H34.6646V41.5932ZM28.5911 60.007L31.2647 52.8747C31.3974 52.5362 31.663 52.2668 31.9988 52.1288V58.6742C32.004 59.1245 32.2403 59.5404 32.6243 59.7753L32.5084 60.007H28.5911ZM39.9961 72.0031C38.9997 72.0031 37.3304 68.6643 37.3304 66.6715C37.3304 65.1993 38.524 64.0057 39.9961 64.0057C41.469 64.0057 42.6619 65.1993 42.6619 66.6715C42.6619 68.6708 40.9932 72.0031 39.9961 72.0031ZM47.4845 60.007L47.3687 59.7753C47.7527 59.5404 47.9883 59.1245 47.9935 58.6742V52.1288C48.33 52.2661 48.5955 52.5362 48.727 52.8747L51.4019 60.007H47.4845Z" fill="#21ABE1"/>
<path d="M39.9948 45.3452C42.2037 45.3452 43.9934 43.5548 43.9934 41.3466C43.9934 39.1383 42.2037 37.3479 39.9948 37.3479C37.7865 37.3479 35.9961 39.1383 35.9961 41.3466C35.9961 43.5548 37.7865 45.3452 39.9948 45.3452ZM39.9948 40.0137C40.7315 40.0137 41.3277 40.6105 41.3277 41.3466C41.3277 42.0827 40.7315 42.6795 39.9948 42.6795C39.2587 42.6795 38.6619 42.0827 38.6619 41.3466C38.6619 40.6105 39.2587 40.0137 39.9948 40.0137Z" fill="#21ABE1"/>
</g>
<defs>
<clipPath id="clip0_830_57029">
<rect width="80" height="80" fill="white" transform="translate(0 -0.000244141)"/>
</clipPath>
</defs>
</svg>
