<svg width="49" height="49" viewBox="0 0 49 49" fill="none" xmlns="http://www.w3.org/2000/svg">
<g clip-path="url(#clip0_829_41414)">
<path d="M48.5 0.279785H0.5V48.2798H48.5V0.279785Z" fill="url(#paint0_linear_829_41414)"/>
<path fill-rule="evenodd" clip-rule="evenodd" d="M32.9212 15.9007C32.9212 16.2367 32.6476 16.5103 32.311 16.5103C31.9756 16.5103 31.702 16.2367 31.702 15.9007C31.702 15.5647 31.9756 15.2911 32.311 15.2911C32.6476 15.2911 32.9212 15.5647 32.9212 15.9007ZM29.302 21.8808C29.302 21.5502 29.5708 21.2808 29.902 21.2808C30.2332 21.2808 30.502 21.5502 30.502 21.8808C30.502 22.2114 30.2332 22.4808 29.902 22.4808C29.5708 22.4808 29.302 22.2114 29.302 21.8808ZM29.302 33.2807C29.302 32.9501 29.5708 32.6807 29.902 32.6807C30.2332 32.6807 30.502 32.9501 30.502 33.2807C30.502 33.6113 30.2332 33.8807 29.902 33.8807C29.5708 33.8807 29.302 33.6113 29.302 33.2807ZM35.302 25.4808C35.302 25.8114 35.0332 26.0808 34.702 26.0808C34.3708 26.0808 34.102 25.8114 34.102 25.4808C34.102 25.1502 34.3708 24.8808 34.702 24.8808C35.0332 24.8808 35.302 25.1502 35.302 25.4808ZM39.5008 27.444L36.4786 25.71C36.4882 25.6344 36.502 25.5594 36.502 25.4808C36.502 24.4884 35.6944 23.6808 34.702 23.6808C33.709 23.6808 32.902 24.4884 32.902 25.4808C32.902 26.4732 33.709 27.2808 34.702 27.2808C35.1814 27.2808 35.6146 27.0894 35.9374 26.7834L38.8324 28.4441L36.2338 29.7437C36.0304 29.8457 35.902 30.0533 35.902 30.2807V35.3452L28.6906 39.7828L25.1026 37.7326V33.8807H28.2124C28.4608 34.5773 29.1208 35.0807 29.902 35.0807C30.8944 35.0807 31.702 34.2731 31.702 33.2807C31.702 32.2877 30.8944 31.4807 29.902 31.4807C29.1208 31.4807 28.4608 31.9835 28.2124 32.6807H25.1026V24.2808C25.1026 24.0702 24.9916 23.8746 24.811 23.766L21.8104 21.966L21.193 22.995L23.9026 24.6204V26.385L20.302 29.1545V26.6808C20.302 26.4984 20.2192 26.3256 20.077 26.2122L17.302 23.9922V21.0018L20.6344 18.7801C20.8018 18.6685 20.902 18.4813 20.902 18.2809V14.6809H19.702V17.9599L16.7086 19.9549L13.702 17.9587V13.2253L16.702 11.4758V16.4809H17.902V10.7756L20.3038 9.3746L23.9014 11.45L23.902 18.8809C23.902 19.0963 24.0172 19.2949 24.2044 19.4017L28.126 21.6426C28.1152 21.7212 28.102 21.7992 28.102 21.8808C28.102 22.8732 28.909 23.6808 29.902 23.6808C30.8944 23.6808 31.702 22.8732 31.702 21.8808C31.702 20.8884 30.8944 20.0809 29.902 20.0809C29.4256 20.0809 28.9948 20.2698 28.6726 20.5728L25.102 18.5323L25.1014 11.4512L28.6792 9.3866L35.302 13.8019V15.2809H34.0114C33.7582 14.5873 33.0916 14.0911 32.311 14.0911C31.3132 14.0911 30.502 14.9029 30.502 15.9007C30.502 16.8985 31.3132 17.7103 32.311 17.7103C33.1066 17.7103 33.7834 17.1949 34.0258 16.4809H35.302V18.2809C35.302 18.4963 35.4172 18.6949 35.6044 18.8017L39.5008 21.0288V27.444ZM20.3128 39.7828L18.421 38.6188L21.8506 36.169L21.1534 35.1922L17.3116 37.936L13.102 35.3452V30.6203L15.8104 28.9949L15.193 27.9659L12.4756 29.5967L9.50198 28.1099L9.50138 24.651L12.7702 23.0172L12.2338 21.9438L9.50138 23.3094L9.50198 21.0288L13.0786 18.9853L16.102 20.9922V23.9688L12.7702 26.181L13.4338 27.1806L16.6756 25.0278L19.102 26.9688V30.0779L16.336 32.2049L17.0674 33.1559L23.9026 27.8987V37.732L20.3128 39.7828ZM40.3984 20.1601L36.502 17.9329V13.4809C36.502 13.2799 36.4018 13.0927 36.2344 12.9818L29.0344 8.18182C28.8448 8.05582 28.6 8.04742 28.402 8.16142L24.5032 10.4114L20.602 8.16142C20.4148 8.05342 20.185 8.05342 19.9996 8.16262L12.7996 12.3626C12.6148 12.47 12.502 12.6674 12.502 12.881V17.9329L8.60438 20.1601C8.41718 20.2663 8.30198 20.4654 8.30198 20.6808V20.931C8.30138 20.9436 8.30078 20.9556 8.30078 20.9682V27.4986C8.30078 27.5106 8.30138 27.5226 8.30198 27.534V28.4807C8.30198 28.7081 8.43038 28.9157 8.63378 29.0171L11.902 30.6515V35.6806C11.902 35.8888 12.0094 36.082 12.187 36.1912L19.987 40.9912C20.0836 41.0506 20.1928 41.0806 20.302 41.0806C20.4046 41.0806 20.5072 41.0542 20.5996 41.0014L24.5026 38.7718L28.4044 41.0014C28.5934 41.11 28.8286 41.1058 29.0164 40.9912L36.8164 36.1912C36.994 36.082 37.102 35.8888 37.102 35.6806V30.6515L40.369 29.0171C40.5724 28.9157 40.7008 28.7081 40.7008 28.4807V20.6808C40.7008 20.4654 40.585 20.2669 40.3984 20.1601Z" fill="white"/>
</g>
<defs>
<linearGradient id="paint0_linear_829_41414" x1="0.5" y1="4800.28" x2="4800.5" y2="0.279785" gradientUnits="userSpaceOnUse">
<stop stop-color="#055F4E"/>
<stop offset="1" stop-color="#56C0A7"/>
</linearGradient>
<clipPath id="clip0_829_41414">
<rect width="48" height="48" fill="white" transform="translate(0.5 0.279785)"/>
</clipPath>
</defs>
</svg>
