<svg width="80" height="81" viewBox="0 0 80 81" fill="none" xmlns="http://www.w3.org/2000/svg">
<path d="M50.5601 76.2803H42.9515C42.2969 76.2803 41.7664 75.7499 41.7664 75.0953V71.9395C41.7664 70.5677 40.9027 69.3253 39.5659 68.7725C38.1504 68.18 36.6507 68.4465 35.6787 69.4187L33.4476 71.6497C32.9849 72.1126 32.235 72.1126 31.772 71.6497L26.3926 66.2701C25.9297 65.8072 25.9297 65.0574 26.3926 64.5945L28.6236 62.3635C29.5966 61.3904 29.8612 59.8926 29.2984 58.5467C28.7171 57.1385 27.4737 56.2749 26.1027 56.2749H22.9468C22.2923 56.2749 21.7617 55.7445 21.7617 55.0899V47.4821C21.7617 46.8275 22.2921 46.2969 22.9468 46.2969H26.1027C27.4745 46.2969 28.7179 45.4333 29.2696 44.0955C29.8612 42.6801 29.5964 41.1814 28.6235 40.2088L26.3924 37.9782C26.1702 37.756 26.0452 37.4549 26.0452 37.1405C26.0452 36.8262 26.1702 36.5249 26.3924 36.3027L31.7718 30.9227C32.2348 30.4598 32.9846 30.4598 33.4475 30.9227L35.6785 33.1533C36.6524 34.1262 38.1502 34.391 39.4963 33.8291C40.9025 33.2481 41.7662 32.0048 41.7662 30.6329V27.4765C41.7662 26.8221 42.2966 26.2915 42.9513 26.2915H50.56C51.2144 26.2915 51.7449 26.8219 51.7449 27.4765V30.6329C51.7449 32.0048 52.6088 33.2481 53.9444 33.8C55.3608 34.392 56.8598 34.1262 57.8326 33.1533L60.0636 30.9227C60.5265 30.4598 61.2763 30.4598 61.7392 30.9227L67.1188 36.3027C67.5817 36.7656 67.5817 37.5155 67.1188 37.9784L64.8886 40.2089C63.9156 41.1824 63.65 42.6803 64.2129 44.0262C64.7934 45.4334 66.0376 46.2971 67.4096 46.2971H70.5652C71.2198 46.2971 71.7504 46.8275 71.7504 47.4822V55.0901C71.7504 55.7445 71.22 56.275 70.5652 56.275H67.4096C66.0376 56.275 64.7942 57.1387 64.2416 58.4765C63.6502 59.8918 63.9158 61.3905 64.8886 62.3637L67.1188 64.5947C67.5817 65.0576 67.5817 65.8073 67.1188 66.2702L61.7392 71.6499C61.2763 72.1128 60.5265 72.1128 60.0636 71.6499L57.8326 69.4189C56.8606 68.4478 55.3617 68.183 54.0148 68.743C52.6088 69.3254 51.7448 70.5678 51.7448 71.9397V75.0955C51.7449 75.7499 51.2145 76.2803 50.5601 76.2803ZM44.1363 73.9105H49.3752V71.9395C49.3752 69.6048 50.8136 67.5024 53.0401 66.5821C55.3416 65.624 57.854 66.0888 59.5084 67.743L60.9017 69.1363L64.6056 65.4323L63.2132 64.0392C61.5579 62.384 61.0913 59.8686 62.0262 57.632C62.9716 55.3435 65.0747 53.9049 67.4096 53.9049H69.3804V48.667H67.4096C65.0739 48.667 62.9705 47.2275 62.0512 45.0011C61.0913 42.7043 61.5568 40.1891 63.2131 38.5333L64.6054 37.1405L60.9016 33.4361L59.5083 34.8289C57.852 36.4832 55.3377 36.9489 53.1019 36.0157C50.8136 35.0712 49.3752 32.9683 49.3752 30.6331V28.6617H44.1363V30.6331C44.1363 32.9683 42.6976 35.0712 40.4704 35.9904C38.1737 36.9512 35.6584 36.4848 34.0032 34.8289L32.6099 33.4361L28.906 37.1405L30.2992 38.5333C31.9544 40.1885 32.4201 42.7033 31.4851 44.9409C30.5409 47.2275 28.4376 48.667 26.1028 48.667H24.1318V53.9049H26.1028C28.4376 53.9049 30.5398 55.3435 31.4601 57.5709C31.4648 57.5829 31.4972 57.6608 31.5019 57.6736C32.4201 59.8696 31.9544 62.3838 30.2992 64.0392L28.906 65.4323L32.6099 69.1363L34.0032 67.743C35.6566 66.0878 38.1718 65.6195 40.4092 66.5563C42.6977 67.5024 44.1363 69.6048 44.1363 71.9395V73.9105Z" fill="#2B7575"/>
<path d="M46.7584 65.2233C39.0726 65.2233 32.8203 58.9709 32.8203 51.2853C32.8203 43.6006 39.0726 37.3481 46.7584 37.3481C54.4429 37.3481 60.6955 43.6005 60.6955 51.2853C60.6953 58.9709 54.4429 65.2233 46.7584 65.2233ZM46.7584 39.7179C40.3798 39.7179 35.1901 44.9067 35.1901 51.2853C35.1901 57.6638 40.3798 62.8534 46.7584 62.8534C53.1368 62.8534 58.3254 57.6637 58.3254 51.2853C58.3254 44.9069 53.1368 39.7179 46.7584 39.7179Z" fill="#2B7575"/>
<path d="M12.1095 11.9982C9.9812 11.9982 8.25 10.2668 8.25 8.13866C8.25 6.01083 9.9812 4.27979 12.1095 4.27979C14.2377 4.27979 15.9689 6.01083 15.9689 8.13882C15.9689 10.267 14.2377 11.9982 12.1095 11.9982ZM12.1095 6.64955C11.2882 6.64955 10.6198 7.31755 10.6198 8.13866C10.6198 8.95963 11.2882 9.6281 12.1095 9.6281C12.9306 9.6281 13.599 8.95963 13.599 8.13866C13.599 7.31755 12.9305 6.64955 12.1095 6.64955Z" fill="#2B7575"/>
<path d="M22.9025 11.9983C20.7743 11.9983 19.043 10.267 19.043 8.13882C19.043 6.01099 20.7743 4.27979 22.9025 4.27979C25.0308 4.27979 26.762 6.01083 26.762 8.13882C26.762 10.2671 25.0308 11.9983 22.9025 11.9983ZM22.9025 6.64971C22.0814 6.64971 21.413 7.3177 21.413 8.13882C21.413 8.95978 22.0815 9.62826 22.9025 9.62826C23.7238 9.62826 24.3919 8.95978 24.3919 8.13882C24.3921 7.3177 23.7238 6.64971 22.9025 6.64971Z" fill="#2B7575"/>
<path d="M33.6945 11.9982C31.5671 11.9982 29.8359 10.2668 29.8359 8.13866C29.8359 6.01083 31.5671 4.27979 33.6945 4.27979C35.8227 4.27979 37.554 6.01083 37.554 8.13882C37.554 10.267 35.8227 11.9982 33.6945 11.9982ZM33.6945 6.64955C32.8734 6.64955 32.2059 7.31755 32.2059 8.13866C32.2059 8.95963 32.8734 9.6281 33.6945 9.6281C34.5156 9.6281 35.1839 8.95963 35.1839 8.13866C35.1839 7.31755 34.5156 6.64955 33.6945 6.64955Z" fill="#2B7575"/>
<path d="M61.7295 17.435H9.43496C8.78056 17.435 8.25 16.9046 8.25 16.2501C8.25 15.5955 8.78056 15.0649 9.43496 15.0649H61.7295C62.3841 15.0649 62.9146 15.5953 62.9146 16.2501C62.9146 16.9046 62.3841 17.435 61.7295 17.435Z" fill="#2B7575"/>
<path d="M24.2377 44.3638H9.43496C8.78056 44.3638 8.25 43.8334 8.25 43.1786V23.8124C8.25 23.158 8.78056 22.6274 9.43496 22.6274H35.5828C36.2372 22.6274 36.7678 23.1578 36.7678 23.8124V28.2894C36.7678 28.9439 36.2372 29.4745 35.5828 29.4745C34.9282 29.4745 34.3977 28.9441 34.3977 28.2894V24.9975H10.6198V41.9937H24.2377C24.8921 41.9937 25.4226 42.5241 25.4226 43.1786C25.4226 43.8332 24.8921 44.3638 24.2377 44.3638Z" fill="#2B7575"/>
<path d="M61.7295 24.9975H53.982C53.3274 24.9975 52.7969 24.4671 52.7969 23.8124C52.7969 23.158 53.3273 22.6274 53.982 22.6274H61.7295C62.3841 22.6274 62.9146 23.1578 62.9146 23.8124C62.9146 24.4671 62.3841 24.9975 61.7295 24.9975Z" fill="#2B7575"/>
</svg>
