<svg width="49" height="49" viewBox="0 0 49 49" fill="none" xmlns="http://www.w3.org/2000/svg">
<g clip-path="url(#clip0_829_41469)">
<path d="M0.0820312 48.6649V-0.706543H49.4535V48.6649H0.0820312Z" fill="#FFD600"/>
<path d="M32.3601 36.2498C33.3091 37.7913 34.3404 39.2684 36.5251 39.2684C38.3601 39.2684 39.3228 38.3564 39.3228 37.0946C39.3228 35.5847 38.3271 35.0485 36.3084 34.1694L35.2017 33.6976C32.0076 32.3426 29.8832 30.6448 29.8832 27.0585C29.8832 23.7534 32.4135 21.2382 36.3674 21.2382C39.1829 21.2382 41.2058 22.2133 42.665 24.7669L39.2172 26.9708C38.4588 25.6158 37.6387 25.0823 36.3674 25.0823C35.07 25.0823 34.2485 25.901 34.2485 26.9708C34.2485 28.2928 35.0714 28.8277 36.9708 29.6464L38.0775 30.1182C41.8421 31.7214 43.9651 33.3589 43.9651 37.0398C43.9651 41.006 40.8327 43.1797 36.6279 43.1797C32.515 43.1797 30.1795 41.1157 28.8794 38.5607L32.3601 36.2498ZM16.4707 36.3623C17.1646 37.6048 18.2192 38.5607 19.736 38.5607C21.187 38.5607 22.0222 37.9874 22.0222 35.7589V21.2368H26.5932V36.461C26.5932 41.0786 23.9148 43.1797 20.0035 43.1797C16.4693 43.1797 13.9184 40.7852 12.8789 38.5607L16.4707 36.3623Z" fill="#000001"/>
</g>
<defs>
<clipPath id="clip0_829_41469">
<rect width="48" height="48" fill="white" transform="translate(0.5 0.279785)"/>
</clipPath>
</defs>
</svg>
