<svg width="48" height="49" viewBox="0 0 48 49" fill="none" xmlns="http://www.w3.org/2000/svg">
<g clip-path="url(#clip0_829_41345)">
<path d="M23.7169 0.280178C21.7592 0.289271 19.8897 0.45624 18.2448 0.747334C13.399 1.60346 12.5191 3.3953 12.5191 6.6999V11.0642H23.9704V12.519H12.5191H8.22153C4.8935 12.519 1.97928 14.5193 1.06784 18.3247C0.0164345 22.6865 -0.0301592 25.4085 1.06784 29.9629C1.88187 33.353 3.82578 35.7686 7.15381 35.7686H11.091V30.5367C11.091 26.757 14.3613 23.423 18.2448 23.423H29.6828C32.8667 23.423 35.4084 20.8015 35.4084 17.604V6.6999C35.4084 3.59658 32.7903 1.2653 29.6828 0.747334C27.7156 0.419865 25.6745 0.271084 23.7169 0.280178ZM17.5241 3.79037C18.7069 3.79037 19.6728 4.77212 19.6728 5.97915C19.6728 7.18196 18.7069 8.15462 17.5241 8.15462C16.337 8.15462 15.3753 7.18196 15.3753 5.97915C15.3753 4.77202 16.337 3.79037 17.5241 3.79037Z" fill="url(#paint0_linear_829_41345)"/>
<path d="M36.8369 12.519V17.604C36.8369 21.5464 33.4945 24.8645 29.6832 24.8645H18.2452C15.1122 24.8645 12.5195 27.5459 12.5195 30.6835V41.5876C12.5195 44.6909 15.2181 46.5163 18.2452 47.4066C21.8701 48.4725 25.3461 48.6651 29.6832 47.4066C32.5661 46.572 35.4088 44.8922 35.4088 41.5876V37.2232H23.9708V35.7684H35.4088H41.1345C44.4625 35.7684 45.7027 33.4471 46.8602 29.9628C48.0557 26.3757 48.0048 22.9262 46.8602 18.3245C46.0377 15.0114 44.4668 12.5188 41.1345 12.5188H36.8369V12.519ZM30.4039 40.1329C31.591 40.1329 32.5527 41.1055 32.5527 42.3083C32.5527 43.5155 31.591 44.4972 30.4039 44.4972C29.2211 44.4972 28.2552 43.5155 28.2552 42.3083C28.2551 41.1055 29.221 40.1329 30.4039 40.1329Z" fill="url(#paint1_linear_829_41345)"/>
</g>
<defs>
<linearGradient id="paint0_linear_829_41345" x1="-0.860604" y1="1.64484" x2="25.5508" y2="24.1682" gradientUnits="userSpaceOnUse">
<stop stop-color="#5A9FD4"/>
<stop offset="1" stop-color="#306998"/>
</linearGradient>
<linearGradient id="paint1_linear_829_41345" x1="35.4886" y1="38.169" x2="26.0172" y2="24.8867" gradientUnits="userSpaceOnUse">
<stop stop-color="#FFD43B"/>
<stop offset="1" stop-color="#FFE873"/>
</linearGradient>
<clipPath id="clip0_829_41345">
<rect width="48" height="48" fill="white" transform="translate(0 0.279785)"/>
</clipPath>
</defs>
</svg>
