<svg width="80" height="81" viewBox="0 0 80 81" fill="none" xmlns="http://www.w3.org/2000/svg">
<path d="M35.1992 3.48877H3.19922V48.2888H35.1992V3.48877ZM31.9992 45.0888H6.39922V6.68877H31.9992V45.0888Z" fill="#2B7575"/>
<path d="M11.1992 16.2896H27.1992V19.4896H11.1992V16.2896Z" fill="#2B7575"/>
<path d="M11.1992 9.88721H27.1992V13.0872H11.1992V9.88721Z" fill="#2B7575"/>
<path d="M11.1992 22.688H27.1992V25.888H11.1992V22.688Z" fill="#2B7575"/>
<path d="M19.2008 29.0884C15.6719 29.0884 12.8008 31.9595 12.8008 35.4884C12.8008 39.0173 15.6719 41.8884 19.2008 41.8884C22.7297 41.8884 25.6008 39.0173 25.6008 35.4884C25.6008 31.9595 22.7297 29.0884 19.2008 29.0884ZM19.2008 38.6884C17.4359 38.6884 16.0008 37.2532 16.0008 35.4884C16.0008 33.7235 17.4359 32.2884 19.2008 32.2884C20.9656 32.2884 22.4008 33.7235 22.4008 35.4884C22.4008 37.2532 20.9656 38.6884 19.2008 38.6884Z" fill="#2B7575"/>
<path d="M38.3828 69.0704H51.1914V73.8704H47.9828V77.0704H67.1828V73.8704H63.9914V69.0704H76.7992V37.0884H38.3828V69.0704ZM60.7914 73.8704H54.3914V69.0704H60.7914V73.8704ZM41.5828 40.2884H73.5992V65.8704C51.637 65.8704 58.1056 65.8704 41.5828 65.8704V40.2884Z" fill="#2B7575"/>
<path d="M11.2031 51.6509V73.8751H33.4109V70.6751H14.4031V51.6509H11.2031Z" fill="#2B7575"/>
<path d="M67.1891 28.8978V6.68994H44.9648V9.88994H63.9891V28.8978H67.1891Z" fill="#2B7575"/>
<path d="M68.7828 51.4704C68.7828 48.8235 66.6297 46.6704 63.9828 46.6704C63.8038 46.6704 50.4667 46.6704 51.1828 46.6704C48.5359 46.6704 46.3828 48.8235 46.3828 51.4704C46.3828 54.1167 48.5353 56.2712 51.1828 56.2712H63.9828C66.6297 56.2712 68.7828 54.1173 68.7828 51.4704ZM63.9828 49.8704C64.8648 49.8704 65.5828 50.5884 65.5828 51.4704C65.5828 52.3532 64.8648 53.0712 63.9828 53.0712H60.7828V49.8704H63.9828ZM51.1828 49.8704H57.5828V53.0704H51.1828C50.3008 53.0704 49.5828 52.3524 49.5828 51.4704C49.5828 50.5884 50.3008 49.8704 51.1828 49.8704Z" fill="#2B7575"/>
</svg>
