<svg width="48" height="49" viewBox="0 0 48 49" fill="none" xmlns="http://www.w3.org/2000/svg">
<g clip-path="url(#clip0_829_41398)">
<path d="M48 0.279785H0V48.2798H48V0.279785Z" fill="url(#paint0_linear_829_41398)"/>
<path fill-rule="evenodd" clip-rule="evenodd" d="M36.5024 26.0148L36.7328 24.3924C38.8574 25.665 38.885 26.1906 38.8844 26.205C38.8808 26.208 38.5184 26.5104 36.5024 26.0148ZM35.3366 25.6908C31.6646 24.5796 26.5508 22.2336 24.4814 21.2556C24.4814 21.2472 24.4838 21.2394 24.4838 21.231C24.4838 20.436 23.837 19.7892 23.0414 19.7892C22.247 19.7892 21.6002 20.436 21.6002 21.231C21.6002 22.026 22.247 22.6728 23.0414 22.6728C23.3906 22.6728 23.7074 22.5426 23.9576 22.3356C26.3924 23.4882 31.4666 25.8 35.1656 26.892L33.7028 37.2156C33.6986 37.2438 33.6968 37.272 33.6968 37.3002C33.6968 38.2092 29.6726 39.879 23.0972 39.879C16.4522 39.879 12.3854 38.2092 12.3854 37.3002C12.3854 37.2726 12.3836 37.2456 12.38 37.2186L9.32358 14.8944C11.969 16.7154 17.6588 17.679 23.1008 17.679C28.5344 17.679 34.2146 16.719 36.8654 14.9034L35.3366 25.6908ZM9.00078 12.5658C9.04398 11.7762 13.5812 8.679 23.1008 8.679C32.6192 8.679 37.157 11.7756 37.2008 12.5658V12.8352C36.6788 14.6058 30.7988 16.479 23.1008 16.479C15.3896 16.479 9.50658 14.5998 9.00078 12.8268V12.5658ZM38.4008 12.579C38.4008 10.5 32.4404 7.479 23.1008 7.479C13.7612 7.479 7.80078 10.5 7.80078 12.579L7.85718 13.0314L11.186 37.3458C11.2658 40.065 18.5174 41.079 23.0972 41.079C28.7804 41.079 34.8182 39.7722 34.8962 37.3476L36.3338 27.2094C37.1336 27.4008 37.7918 27.4986 38.3204 27.4986C39.0302 27.4986 39.5102 27.3252 39.8012 26.9784C40.04 26.694 40.1312 26.3496 40.0628 25.983C39.9074 25.1526 38.9216 24.2574 36.914 23.112L38.3396 13.0548L38.4008 12.579Z" fill="white"/>
</g>
<defs>
<linearGradient id="paint0_linear_829_41398" x1="0" y1="4800.28" x2="4800" y2="0.279785" gradientUnits="userSpaceOnUse">
<stop stop-color="#1B660F"/>
<stop offset="1" stop-color="#6CAE3E"/>
</linearGradient>
<clipPath id="clip0_829_41398">
<rect width="48" height="48" fill="white" transform="translate(0 0.279785)"/>
</clipPath>
</defs>
</svg>
