<svg width="80" height="81" viewBox="0 0 80 81" fill="none" xmlns="http://www.w3.org/2000/svg">
<path d="M23.1323 49.3335C23.313 53.3296 27.0728 56.5308 31.6663 56.5308C32.9422 56.5501 34.2075 56.2955 35.3766 55.7841C36.5458 55.2727 37.5917 54.5164 38.4436 53.5663C38.6413 53.3391 38.7502 53.0479 38.75 52.7466V22.815C38.7502 22.5137 38.6414 22.2226 38.4436 21.9953C37.5917 21.0452 36.5458 20.2889 35.3767 19.7775C34.2075 19.2661 32.9422 19.0115 31.6663 19.0308C26.9568 19.0308 23.125 22.3951 23.125 26.5308C23.1249 26.8419 23.1507 27.1524 23.2019 27.4592C21.9081 28.0127 20.8006 28.9264 20.0113 30.0915C19.222 31.2566 18.7842 32.624 18.75 34.0308C18.7566 35.6318 19.3241 37.1799 20.354 38.4058C19.3241 39.6317 18.7566 41.1798 18.75 42.7808C18.7869 44.1755 19.2182 45.5311 19.9937 46.6908C20.7693 47.8505 21.8575 48.7668 23.1323 49.3335ZM22.5961 39.6839H26.7016C26.9888 40.3419 27.4938 40.8809 28.1316 41.2104C28.7695 41.5399 29.5014 41.6396 30.2042 41.493C30.907 41.3463 31.5378 40.9621 31.9907 40.405C32.4435 39.8479 32.6907 39.1518 32.6907 38.4339C32.6907 37.7159 32.4435 37.0199 31.9907 36.4628C31.5378 35.9057 30.907 35.5215 30.2042 35.3748C29.5014 35.2281 28.7695 35.3279 28.1316 35.6574C27.4938 35.9868 26.9888 36.5259 26.7016 37.1839H22.6493C22.219 36.7771 21.8738 36.2889 21.6336 35.7476C21.3934 35.2064 21.263 34.6228 21.25 34.0308C21.313 32.9537 21.7169 31.9246 22.4033 31.0922C23.0897 30.2598 24.023 29.6672 25.0684 29.4001C25.1233 29.3742 25.1761 29.344 25.2264 29.31L27.5546 29.9177C27.6759 30.6289 28.0385 31.2767 28.5814 31.7518C29.1243 32.227 29.8143 32.5006 30.5354 32.5266C31.2564 32.5526 31.9643 32.3294 32.54 31.8945C33.1157 31.4597 33.524 30.8397 33.6962 30.1391C33.8683 29.4384 33.7938 28.6999 33.4852 28.0477C33.1766 27.3956 32.6527 26.8697 32.0018 26.5586C31.3508 26.2475 30.6126 26.1701 29.9113 26.3396C29.21 26.509 28.5885 26.9149 28.1514 27.489L25.6546 26.8373C25.6447 26.7354 25.625 26.6284 25.625 26.5308C25.625 23.7738 28.335 21.5308 31.6663 21.5308C33.3679 21.5017 35.0133 22.1402 36.25 23.3094V52.2522C35.0133 53.4214 33.3679 54.0599 31.6663 54.0308C30.2895 54.1251 28.9255 53.7153 27.8287 52.8779C26.7318 52.0406 25.9771 50.8328 25.7052 49.4799L28.185 48.8054C28.6294 49.367 29.2536 49.7585 29.9527 49.9141C30.6517 50.0697 31.383 49.98 32.0237 49.6599C32.6644 49.3399 33.1754 48.8091 33.4709 48.1567C33.7663 47.5044 33.8282 46.7702 33.6462 46.0775C33.4641 45.3849 33.0492 44.776 32.4712 44.3533C31.8931 43.9305 31.1871 43.7195 30.4719 43.7559C29.7567 43.7923 29.0757 44.0737 28.5435 44.553C28.0114 45.0322 27.6603 45.68 27.5495 46.3875L24.5292 47.209C23.6078 46.875 22.8054 46.2768 22.2221 45.4892C21.6389 44.7016 21.3007 43.7595 21.25 42.7808C21.2753 41.6119 21.7587 40.4998 22.5961 39.6839ZM28.9368 38.4339C28.9368 38.3103 28.9734 38.1894 29.0421 38.0867C29.1108 37.9839 29.2084 37.9038 29.3226 37.8565C29.4368 37.8092 29.5625 37.7968 29.6837 37.8209C29.805 37.845 29.9163 37.9045 30.0037 37.9919C30.0911 38.0794 30.1507 38.1907 30.1748 38.312C30.1989 38.4332 30.1865 38.5589 30.1392 38.6731C30.0919 38.7873 30.0118 38.8849 29.909 38.9536C29.8062 39.0222 29.6854 39.0589 29.5618 39.0589C29.3961 39.0587 29.2372 38.9928 29.1201 38.8756C29.0029 38.7584 28.937 38.5996 28.9368 38.4339ZM30 29.3769C30 29.2533 30.0367 29.1324 30.1053 29.0297C30.174 28.9269 30.2716 28.8468 30.3858 28.7995C30.5 28.7522 30.6257 28.7398 30.7469 28.7639C30.8682 28.788 30.9795 28.8475 31.0669 28.9349C31.1544 29.0224 31.2139 29.1337 31.238 29.255C31.2621 29.3762 31.2497 29.5019 31.2024 29.6161C31.1551 29.7303 31.075 29.8279 30.9722 29.8966C30.8694 29.9652 30.7486 30.0019 30.625 30.0019C30.4593 30.0017 30.3005 29.9358 30.1833 29.8186C30.0661 29.7014 30.0002 29.5426 30 29.3769ZM30 46.8769C30 46.7533 30.0367 46.6324 30.1053 46.5296C30.174 46.4269 30.2716 46.3468 30.3858 46.2995C30.5 46.2522 30.6257 46.2398 30.7469 46.2639C30.8682 46.288 30.9795 46.3475 31.0669 46.4349C31.1544 46.5223 31.2139 46.6337 31.238 46.7549C31.2621 46.8762 31.2497 47.0019 31.2024 47.1161C31.1551 47.2303 31.075 47.3279 30.9722 47.3966C30.8694 47.4652 30.7486 47.5019 30.625 47.5019C30.4593 47.5017 30.3005 47.4357 30.1833 47.3186C30.0661 47.2014 30.0002 47.0426 30 46.8769Z" fill="#2B7575"/>
<path d="M48.8306 19.7228C47.2179 19.2472 45.5435 19.014 43.8623 19.0306C43.3569 19.0379 42.8577 19.0687 42.3645 19.1228C42.0583 19.1563 41.7752 19.3016 41.5695 19.5309C41.3639 19.7603 41.2501 20.0574 41.25 20.3655V31.4531C41.25 31.6483 41.2957 31.8407 41.3834 32.0151C41.4712 32.1894 41.5985 32.3407 41.7552 32.457C41.912 32.5733 42.0938 32.6513 42.286 32.6847C42.4783 32.7181 42.6757 32.706 42.8625 32.6494C43.2606 32.5282 43.6744 32.4667 44.0905 32.4669C45.4182 32.5519 46.6587 33.1578 47.542 34.1526C48.4254 35.1475 48.8801 36.4509 48.8074 37.7794C48.8801 39.1078 48.4254 40.4113 47.542 41.4061C46.6587 42.401 45.4183 43.0069 44.0906 43.0919C43.6745 43.0921 43.2606 43.0306 42.8625 42.9094C42.6758 42.8528 42.4784 42.8407 42.2861 42.8741C42.0938 42.9075 41.912 42.9855 41.7553 43.1018C41.5986 43.218 41.4712 43.3694 41.3835 43.5437C41.2958 43.718 41.2501 43.9105 41.25 44.1056V55.1945C41.2501 55.5032 41.3643 55.801 41.5708 56.0305C41.7772 56.2601 42.0612 56.4051 42.3682 56.4378C42.9456 56.4989 43.5258 56.5294 44.1065 56.5294C44.1773 56.5294 44.248 56.5288 44.3188 56.5281C45.8475 56.5 47.3653 56.2643 48.8306 55.8275C49.0896 55.7514 49.3171 55.5934 49.4788 55.3772C49.6406 55.1609 49.7279 54.8981 49.7278 54.6281V52.5188C49.7173 52.331 49.7572 52.1438 49.8435 51.9767C49.9298 51.8095 50.0593 51.6686 50.2185 51.5685C50.9715 51.195 51.6897 50.755 52.3645 50.2537C52.4944 50.1666 52.6473 50.1202 52.8037 50.1207C52.9601 50.1211 53.1128 50.1683 53.2422 50.2563L54.9609 51.3122C55.2044 51.4619 55.4919 51.5236 55.7754 51.4869C56.0588 51.4503 56.3212 51.3175 56.5185 51.1107C58.8161 48.6887 60.4357 45.7046 61.2146 42.4584C61.2769 42.2015 61.2563 41.9315 61.1556 41.6871C61.055 41.4426 60.8795 41.2364 60.6543 41.0979L58.3789 39.7002C58.54 38.4248 58.54 37.1341 58.3789 35.8587L60.6531 34.4616C60.8782 34.3232 61.0537 34.117 61.1543 33.8727C61.255 33.6284 61.2757 33.3585 61.2134 33.1017C60.4389 29.8541 58.8226 26.8677 56.5271 24.4433C56.3296 24.2367 56.0673 24.104 55.7839 24.0674C55.5005 24.0307 55.213 24.0923 54.9695 24.2418L53.2422 25.3026C53.1131 25.3905 52.9606 25.4377 52.8045 25.4383C52.6483 25.4388 52.4955 25.3926 52.3658 25.3057C51.6909 24.8044 50.9727 24.3642 50.2198 23.9904C50.0601 23.8906 49.9303 23.7497 49.8437 23.5825C49.7572 23.4154 49.7171 23.228 49.7278 23.0401V20.9221C49.728 20.6521 49.6406 20.3893 49.4788 20.1731C49.3171 19.9568 49.0896 19.7989 48.8306 19.7228ZM50.8752 27.3131C51.4053 27.6992 52.0392 27.917 52.6946 27.9383C53.35 27.9597 53.9967 27.7835 54.5508 27.4328L55.3894 26.9176C56.8343 28.6489 57.9095 30.6578 58.5486 32.8203L56.366 34.1606C56.1528 34.2915 55.9839 34.4834 55.8809 34.7113C55.778 34.9393 55.7458 35.1929 55.7886 35.4393C56.0701 36.9865 56.0701 38.5717 55.7886 40.1189C55.7458 40.3654 55.7779 40.6191 55.8808 40.8472C55.9838 41.0753 56.1528 41.2672 56.366 41.3982L58.5486 42.7391C57.906 44.9004 56.828 46.9073 55.3809 48.6364L54.5508 48.1261C53.9965 47.7752 53.3496 47.599 52.6939 47.6204C52.0382 47.6419 51.4042 47.86 50.874 48.2463C50.3183 48.6594 49.7267 49.022 49.1065 49.3297C48.5299 49.6365 48.0493 50.0968 47.7177 50.6595C47.3862 51.2223 47.2167 51.8657 47.2278 52.5188V53.6638C46.2628 53.8892 45.2767 54.0113 44.2859 54.0282C44.1113 54.0307 43.9294 54.0294 43.75 54.0251V45.5833C44.7646 45.5875 45.7695 45.3866 46.7045 44.9927C47.6396 44.5989 48.4854 44.0202 49.1912 43.2913C49.897 42.5625 50.4483 41.6985 50.8119 40.7514C51.1756 39.8042 51.3441 38.7933 51.3074 37.7794C51.3438 36.7655 51.175 35.7548 50.8113 34.8078C50.4475 33.8607 49.8962 32.9969 49.1905 32.2682C48.4847 31.5394 47.639 30.9606 46.7042 30.5667C45.7693 30.1727 44.7645 29.9716 43.75 29.9754V21.5337C43.7988 21.5324 43.8477 21.5312 43.8977 21.5306C45.0181 21.5134 46.1365 21.6333 47.2278 21.8877V23.04C47.2165 23.6933 47.3861 24.3371 47.7179 24.9C48.0496 25.4629 48.5306 25.9231 49.1077 26.2297C49.728 26.5373 50.3196 26.8999 50.8752 27.3131Z" fill="#2B7575"/>
<path d="M70.8008 64.3198C70.6183 64.1676 70.3962 64.0706 70.1605 64.0401C69.9248 64.0096 69.6853 64.047 69.4701 64.1477C69.2549 64.2485 69.0728 64.4085 68.9453 64.609C68.8178 64.8095 68.75 65.0422 68.75 65.2799V67.7799H62.5C62.3358 67.7798 62.1733 67.8121 62.0216 67.8749C61.8699 67.9377 61.7321 68.0298 61.616 68.1459C61.4999 68.262 61.4079 68.3998 61.3451 68.5515C61.2823 68.7031 61.25 68.8657 61.25 69.0299V74.0299C61.25 74.194 61.2823 74.3566 61.3451 74.5083C61.4079 74.6599 61.4999 74.7978 61.616 74.9138C61.7321 75.0299 61.8699 75.122 62.0216 75.1848C62.1733 75.2476 62.3358 75.2799 62.5 75.2799H68.75V77.7799C68.75 78.0175 68.8178 78.2502 68.9454 78.4507C69.0729 78.6512 69.2549 78.8112 69.4701 78.9119C69.6854 79.0127 69.9248 79.05 70.1605 79.0195C70.3961 78.9891 70.6183 78.8921 70.8008 78.74L78.3008 72.49C78.4414 72.3726 78.5545 72.2258 78.6321 72.0599C78.7098 71.894 78.75 71.713 78.75 71.5299C78.75 71.3467 78.7098 71.1658 78.6321 70.9999C78.5545 70.834 78.4414 70.6871 78.3008 70.5698L70.8008 64.3198ZM71.25 75.1108V74.0299C71.25 73.8657 71.2177 73.7031 71.1549 73.5515C71.0921 73.3998 71.0001 73.262 70.884 73.1459C70.7679 73.0298 70.6301 72.9377 70.4784 72.8749C70.3267 72.8121 70.1642 72.7798 70 72.7799H63.75V70.2799H70C70.1642 70.2799 70.3267 70.2476 70.4784 70.1848C70.6301 70.122 70.7679 70.0299 70.884 69.9138C71.0001 69.7978 71.0921 69.6599 71.1549 69.5083C71.2177 69.3566 71.25 69.194 71.25 69.0299V67.9489L75.5469 71.5299L71.25 75.1108Z" fill="#2B7575"/>
<path d="M11.7798 64.1483C11.5644 64.0485 11.3251 64.0117 11.0897 64.0421C10.8542 64.0726 10.6322 64.1691 10.4492 64.3204L2.94923 70.5704C2.80861 70.6877 2.69549 70.8346 2.61786 71.0005C2.54024 71.1664 2.5 71.3473 2.5 71.5305C2.5 71.7136 2.54024 71.8945 2.61786 72.0605C2.69549 72.2264 2.80861 72.3732 2.94923 72.4905L10.4492 78.7405C10.6317 78.8927 10.8539 78.9897 11.0895 79.0202C11.3252 79.0507 11.5647 79.0134 11.7799 78.9126C11.9951 78.8118 12.1772 78.6518 12.3047 78.4513C12.4322 78.2508 12.5 78.0181 12.5 77.7805V75.2805H18.75C18.9142 75.2805 19.0767 75.2482 19.2284 75.1854C19.3801 75.1226 19.5179 75.0305 19.634 74.9144C19.7501 74.7984 19.8421 74.6605 19.9049 74.5089C19.9677 74.3572 20 74.1946 20 74.0305V69.0305C20 68.8663 19.9677 68.7037 19.9049 68.5521C19.8421 68.4004 19.7501 68.2626 19.634 68.1465C19.5179 68.0304 19.3801 67.9383 19.2284 67.8755C19.0767 67.8127 18.9142 67.7804 18.75 67.7805H12.5V65.2805C12.5 65.0428 12.4323 64.8101 12.3047 64.6095C12.1771 64.409 11.9951 64.249 11.7798 64.1483ZM17.5 70.2805V72.7805H11.25C11.0858 72.7804 10.9233 72.8127 10.7716 72.8755C10.6199 72.9383 10.4821 73.0304 10.366 73.1465C10.2499 73.2626 10.1579 73.4004 10.0951 73.552C10.0323 73.7037 9.99996 73.8663 10 74.0305V75.1114L5.70311 71.5305L10 67.9495V69.0305C9.99996 69.1946 10.0323 69.3572 10.0951 69.5089C10.1579 69.6605 10.2499 69.7984 10.366 69.9144C10.4821 70.0305 10.6199 70.1226 10.7716 70.1854C10.9233 70.2482 11.0858 70.2805 11.25 70.2805H17.5Z" fill="#2B7575"/>
<path d="M72.5019 37.7798C72.5068 31.8179 70.8685 25.97 67.7668 20.8785L65.6331 22.1798C69.2594 28.15 70.6845 35.2001 69.6618 42.1101C68.6391 49.0201 65.2329 55.3552 60.0327 60.0191C54.8325 64.6831 48.1655 67.3823 41.1853 67.6499C34.2052 67.9174 27.3511 65.7364 21.8092 61.4842C16.2673 57.232 12.3862 51.1762 10.8375 44.3648C9.28892 37.5533 10.1702 30.4148 13.3289 24.1845C16.4875 17.9542 21.7249 13.0241 28.1345 10.2474C34.5442 7.47065 41.7229 7.02201 48.4284 8.97909L49.1291 6.57919C42.5806 4.6622 35.5948 4.85461 29.1617 7.12914C22.7286 9.40367 17.1744 13.645 13.2862 19.2521C9.39789 24.8592 7.37273 31.5477 7.49764 38.3699C7.62255 45.1921 9.89119 51.802 13.9821 57.2631C18.073 62.7241 23.7788 66.7592 30.2908 68.7967C36.8029 70.8342 43.791 70.7708 50.2649 68.6154C56.7389 66.46 62.3704 62.3219 66.3615 56.7875C70.3526 51.2531 72.5009 44.6031 72.5019 37.7798Z" fill="#2B7575"/>
<path d="M60 21.5298C61.9778 21.5298 63.9112 20.9433 65.5557 19.8445C67.2002 18.7457 68.4819 17.1839 69.2388 15.3566C69.9957 13.5294 70.1937 11.5187 69.8079 9.57889C69.422 7.63908 68.4696 5.85725 67.0711 4.45872C65.6725 3.0602 63.8907 2.10779 61.9509 1.72194C60.0111 1.33608 58.0004 1.53412 56.1732 2.29099C54.3459 3.04787 52.7841 4.3296 51.6853 5.97409C50.5865 7.61858 50 9.55198 50 11.5298C50.003 14.181 51.0576 16.7228 52.9323 18.5975C54.807 20.4722 57.3488 21.5268 60 21.5298ZM60 4.02979C61.4834 4.02979 62.9334 4.46966 64.1668 5.29377C65.4001 6.11788 66.3614 7.28922 66.9291 8.65966C67.4968 10.0301 67.6453 11.5381 67.3559 12.993C67.0665 14.4478 66.3522 15.7842 65.3033 16.8331C64.2544 17.882 62.918 18.5963 61.4632 18.8857C60.0083 19.1751 58.5003 19.0265 57.1299 18.4589C55.7594 17.8912 54.5881 16.9299 53.764 15.6966C52.9399 14.4632 52.5 13.0132 52.5 11.5298C52.5022 9.54133 53.293 7.63494 54.6991 6.22889C56.1052 4.82284 58.0115 4.03196 60 4.02979Z" fill="#2B7575"/>
<path d="M59.123 16.2794C59.3173 16.2797 59.5089 16.2346 59.6826 16.1478C59.8564 16.0611 60.0075 15.9349 60.124 15.7795L65.3743 8.78002L63.3748 7.27979L58.874 13.2795L56.374 11.4051L54.875 13.4047L58.3748 16.0292C58.5902 16.1919 58.853 16.2798 59.123 16.2794Z" fill="#2B7575"/>
</svg>
