<svg width="80" height="81" viewBox="0 0 80 81" fill="none" xmlns="http://www.w3.org/2000/svg">
<path d="M71.5125 9.98369C71.4975 9.96744 71.4938 9.94619 71.4775 9.93119C71.4613 9.91619 71.4412 9.91119 71.425 9.89619C67.7063 6.19869 62.585 3.90869 56.9387 3.90869C51.2925 3.90869 46.1725 6.19869 42.4525 9.89619C42.4363 9.91119 42.4162 9.91494 42.4 9.93119C42.3837 9.94744 42.38 9.96744 42.365 9.98369C41.3112 11.0437 40.3862 12.2274 39.5825 13.4949H9.3875C5.59 13.4949 2.5 16.5849 2.5 20.3824V53.7324C2.5 57.5299 5.59 60.6199 9.3875 60.6199H24.845L20.9163 68.4562C20.03 70.2249 20.1213 72.2849 21.16 73.9687C22.1987 75.6512 24 76.6549 25.9775 76.6549H44.9125C46.89 76.6549 48.6912 75.6499 49.73 73.9687C50.7687 72.2849 50.86 70.2249 49.9738 68.4562L46.045 60.6199H60.8738C64.6788 60.6199 67.7738 57.5299 67.7738 53.7324V41.9099C69.0938 41.0874 70.3238 40.1349 71.4225 39.0437C71.4388 39.0287 71.4613 39.0237 71.4775 39.0074C71.4938 38.9912 71.4987 38.9699 71.5137 38.9524C75.21 35.2337 77.4987 30.1137 77.4987 24.4687C77.4987 18.8237 75.21 13.7024 71.5125 9.98369ZM47.6025 72.6537C47.0225 73.5937 46.0163 74.1537 44.9125 74.1537H25.9775C24.8725 74.1537 23.8675 73.5937 23.2875 72.6537C22.7075 71.7137 22.6562 70.5624 23.1512 69.5749L27.64 60.6199H43.25L47.7388 69.5749C48.2338 70.5624 48.1825 71.7137 47.6025 72.6537ZM72.5887 25.7187H74.9362C74.6575 29.7574 73.0525 33.4287 70.545 36.3074L68.8887 34.6512C68.4 34.1624 67.61 34.1624 67.1212 34.6512C66.6325 35.1399 66.6325 35.9299 67.1212 36.4187L68.7775 38.0749C65.9 40.5824 62.2275 42.1874 58.19 42.4649V40.1187C58.19 39.4274 57.63 38.8687 56.94 38.8687C56.25 38.8687 55.69 39.4274 55.69 40.1187V42.4649C51.6512 42.1862 47.98 40.5824 45.1012 38.0737L46.7575 36.4174C47.2462 35.9287 47.2462 35.1387 46.7575 34.6499C46.2687 34.1612 45.4788 34.1612 44.99 34.6499L43.3337 36.3062C40.8262 33.4274 39.2212 29.7562 38.9425 25.7174H41.29C41.98 25.7174 42.54 25.1587 42.54 24.4674C42.54 23.7762 41.98 23.2174 41.29 23.2174H38.9425C39.2212 19.1799 40.825 15.5074 43.3325 12.6299L44.9888 14.2862C45.2325 14.5299 45.5525 14.6524 45.8725 14.6524C46.1925 14.6524 46.5125 14.5299 46.7562 14.2862C47.245 13.7974 47.245 13.0074 46.7562 12.5187L45.1 10.8624C47.9775 8.35494 51.65 6.74994 55.6887 6.47244V8.81869C55.6887 9.50994 56.2487 10.0687 56.9387 10.0687C57.6287 10.0687 58.1887 9.50994 58.1887 8.81869V6.47244C62.2275 6.75119 65.8988 8.35494 68.7763 10.8624L67.12 12.5187C66.6312 13.0074 66.6312 13.7974 67.12 14.2862C67.3637 14.5299 67.6837 14.6524 68.0038 14.6524C68.3238 14.6524 68.6438 14.5299 68.8875 14.2862L70.5438 12.6299C73.0513 15.5074 74.6562 19.1799 74.935 23.2174H72.5875C71.8975 23.2174 71.3375 23.7762 71.3375 24.4674C71.3375 25.1587 71.8975 25.7174 72.5875 25.7174L72.5887 25.7187ZM60.8738 58.1187H9.3875C6.96875 58.1187 5 56.1512 5 53.7312V50.6462H65.275V53.7312C65.275 56.1512 63.3 58.1187 60.8738 58.1187ZM65.2738 48.1462H5V20.3812C5 17.9612 6.96875 15.9937 9.3875 15.9937H38.23C37.0525 18.5812 36.38 21.4449 36.38 24.4674C36.38 30.1124 38.6687 35.2324 42.365 38.9512C42.38 38.9674 42.385 38.9899 42.4013 39.0062C42.4175 39.0224 42.4388 39.0274 42.4562 39.0424C46.175 42.7387 51.2937 45.0274 56.94 45.0274C59.9087 45.0274 62.7238 44.3824 65.275 43.2449V48.1449L65.2738 48.1462Z" fill="#2B7575"/>
<path d="M63.8296 16.2671L56.9358 23.1084L52.1471 18.3946C51.6558 17.9109 50.8633 17.9159 50.3783 18.4096C49.8946 18.9021 49.9008 19.6921 50.3921 20.1771L56.0608 25.7571C56.3046 25.9959 56.6208 26.1159 56.9383 26.1159C57.2571 26.1159 57.5746 25.9946 57.8196 25.7534L65.5896 18.0421C66.0796 17.5546 66.0821 16.7646 65.5958 16.2746C65.1096 15.7846 64.3196 15.7809 63.8271 16.2671H63.8296Z" fill="#2B7575"/>
<path d="M12.2109 26.1157H27.2934C27.9834 26.1157 28.5434 25.557 28.5434 24.8657C28.5434 24.1745 27.9834 23.6157 27.2934 23.6157H12.2109C11.5209 23.6157 10.9609 24.1745 10.9609 24.8657C10.9609 25.557 11.5209 26.1157 12.2109 26.1157Z" fill="#2B7575"/>
<path d="M12.2109 33.8228H30.8784C31.5684 33.8228 32.1284 33.264 32.1284 32.5728C32.1284 31.8815 31.5684 31.3228 30.8784 31.3228H12.2109C11.5209 31.3228 10.9609 31.8815 10.9609 32.5728C10.9609 33.264 11.5209 33.8228 12.2109 33.8228Z" fill="#2B7575"/>
<path d="M35.1334 39.0298H12.2109C11.5209 39.0298 10.9609 39.5885 10.9609 40.2798C10.9609 40.971 11.5209 41.5298 12.2109 41.5298H35.1334C35.8234 41.5298 36.3834 40.971 36.3834 40.2798C36.3834 39.5885 35.8234 39.0298 35.1334 39.0298Z" fill="#2B7575"/>
</svg>
