<svg width="48" height="49" viewBox="0 0 48 49" fill="none" xmlns="http://www.w3.org/2000/svg">
<g clip-path="url(#clip0_829_41384)">
<path d="M48 0.279785H0V48.2798H48V0.279785Z" fill="url(#paint0_linear_829_41384)"/>
<path fill-rule="evenodd" clip-rule="evenodd" d="M9.24762 8.679L14.8234 14.2548L13.975 15.1032L8.39922 9.5274V14.079H7.19922V8.079C7.19922 7.7478 7.46742 7.479 7.79922 7.479H13.7992V8.679H9.24762ZM40.7992 8.079V14.079H39.5992V9.5274L34.0234 15.1032L33.175 14.2548L38.7508 8.679H34.1992V7.479H40.1992C40.531 7.479 40.7992 7.7478 40.7992 8.079ZM39.5992 34.479H40.7992V40.479C40.7992 40.8102 40.531 41.079 40.1992 41.079H34.1992V39.879H38.7508L33.175 34.3032L34.0234 33.4548L39.5992 39.0306V34.479ZM39.2992 23.8068C39.2992 21.8154 37 19.848 33.1492 18.5442L33.5338 17.4078C37.96 18.906 40.4992 21.2382 40.4992 23.8068C40.4992 26.376 37.96 28.7088 33.5332 30.2064L33.1486 29.0694C37 27.7662 39.2992 25.7994 39.2992 23.8068ZM8.73282 23.8068C8.73282 25.7148 10.885 27.63 14.4904 28.9308L14.083 30.0594C9.92022 28.5576 7.53282 26.2788 7.53282 23.8068C7.53282 21.3354 9.92022 19.0566 14.083 17.5542L14.4904 18.6828C10.885 19.9842 8.73282 21.8994 8.73282 23.8068ZM14.8234 34.3032L9.24762 39.879H13.7992V41.079H7.79922C7.46742 41.079 7.19922 40.8102 7.19922 40.479V34.479H8.39922V39.0306L13.975 33.4548L14.8234 34.3032ZM23.9992 19.0506C19.7116 19.0506 17.3992 17.943 17.3992 17.4906C17.3992 17.0376 19.7116 15.9306 23.9992 15.9306C28.2862 15.9306 30.5992 17.0376 30.5992 17.4906C30.5992 17.943 28.2862 19.0506 23.9992 19.0506ZM24.0166 23.6976C19.9114 23.6976 17.3992 22.5762 17.3992 21.966V19.0494C18.877 19.8648 21.4984 20.2506 23.9992 20.2506C26.5 20.2506 29.1214 19.8648 30.5992 19.0494V21.966C30.5992 22.5768 28.1002 23.6976 24.0166 23.6976ZM24.0166 28.2792C19.9114 28.2792 17.3992 27.1578 17.3992 26.5476V23.5962C18.8578 24.4536 21.4444 24.8976 24.0166 24.8976C26.5744 24.8976 29.146 24.4542 30.5992 23.5992V26.5476C30.5992 27.1584 28.1002 28.2792 24.0166 28.2792ZM23.9992 32.3898C19.729 32.3898 17.3992 31.242 17.3992 30.6522V28.1778C18.8578 29.0352 21.4444 29.4792 24.0166 29.4792C26.5744 29.4792 29.146 29.0364 30.5992 28.1808V30.6522C30.5992 31.242 28.2694 32.3898 23.9992 32.3898ZM23.9992 14.7306C20.2426 14.7306 16.1992 15.594 16.1992 17.4906V30.6522C16.1992 32.5806 20.1232 33.5898 23.9992 33.5898C27.8752 33.5898 31.7992 32.5806 31.7992 30.6522V17.4906C31.7992 15.594 27.7558 14.7306 23.9992 14.7306Z" fill="white"/>
</g>
<defs>
<linearGradient id="paint0_linear_829_41384" x1="0" y1="4800.28" x2="4800" y2="0.279785" gradientUnits="userSpaceOnUse">
<stop stop-color="#2E27AD"/>
<stop offset="1" stop-color="#527FFF"/>
</linearGradient>
<clipPath id="clip0_829_41384">
<rect width="48" height="48" fill="white" transform="translate(0 0.279785)"/>
</clipPath>
</defs>
</svg>
