<svg width="80" height="81" viewBox="0 0 80 81" fill="none" xmlns="http://www.w3.org/2000/svg">
<path fill-rule="evenodd" clip-rule="evenodd" d="M9.16693 16.9898C9.16693 16.3845 9.65845 15.8929 10.2639 15.8929L18.0645 15.8927C18.6698 15.8927 19.1615 16.3844 19.1615 16.9897C19.1615 17.5969 18.6698 18.0866 18.0645 18.0866L10.2639 18.0868C9.65861 18.0868 9.16709 17.597 9.16693 16.9898ZM70.8348 16.9884C70.8348 17.5956 70.3432 18.0853 69.7378 18.0853L61.9381 18.0855C61.3319 18.0855 60.8421 17.5957 60.8421 16.9885C60.8421 16.3833 61.3319 15.8916 61.9381 15.8916L69.7378 15.8914C70.3431 15.8914 70.8348 16.3831 70.8348 16.9884ZM9.16709 22.8397C9.16709 22.2345 9.65861 21.7428 10.264 21.7428L18.0647 21.7426C18.67 21.7426 19.1616 22.2343 19.1616 22.8396C19.1616 23.4468 18.67 23.9365 18.0647 23.9365L10.264 23.9367C9.65877 23.9367 9.16709 23.4468 9.16709 22.8397ZM70.8349 22.8381C70.8349 23.4453 70.3434 23.9351 69.738 23.9351L61.9381 23.9353C61.3319 23.9353 60.8421 23.4455 60.8421 22.8383C60.8421 22.233 61.3319 21.7413 61.9381 21.7413L69.738 21.7412C70.3432 21.7412 70.8349 22.2329 70.8349 22.8381ZM35.004 16.9893C35.004 16.3841 35.4957 15.8924 36.101 15.8924L43.9007 15.8922C44.5069 15.8922 44.9967 16.3839 44.9967 16.9892C44.9967 17.5964 44.5069 18.0861 43.9007 18.0861L36.101 18.0863C35.4957 18.0863 35.004 17.5964 35.004 16.9893ZM35.0042 22.8391C35.0042 22.2338 35.4959 21.7421 36.1012 21.7421L43.9008 21.742C44.5071 21.742 44.9968 22.2337 44.9968 22.8389C44.9968 23.4461 44.5071 23.9359 43.9008 23.9359L36.1012 23.9361C35.4959 23.9361 35.0042 23.4463 35.0042 22.8391ZM70.6324 55.0869C65.6735 59.4351 54.4066 67.1521 49.104 69.8311C47.1005 70.8431 44.8799 71.393 42.1157 71.5613C36.4858 71.9034 31.8864 71.6393 27.4384 71.3834C23.7373 71.17 20.2208 70.9677 16.2064 71.0908L16.2061 58.4745C18.1472 57.7343 19.7482 57.0492 21.3175 56.286C25.0629 54.4847 26.7708 53.6621 31.0551 53.322C35.8532 52.9402 38.2642 53.7895 42.1845 55.9703C42.4664 56.1274 44.9284 57.5524 44.3943 59.1567C44.3714 59.298 44.1559 59.6524 44.0228 59.8249C43.1495 60.9541 41.1386 60.5911 39.9991 60.0727C38.1077 59.2106 34.8396 58.3041 32.9109 58.3087C31.9368 58.3133 30.8677 58.5148 29.7328 58.9066C29.1599 59.1044 28.8549 59.7292 29.0527 60.3021C29.2514 60.8741 29.876 61.1781 30.4482 60.9804C31.3637 60.6637 32.2021 60.5026 32.9434 60.5026C34.4728 60.5026 37.4957 61.3407 39.09 62.0669C41.4447 63.141 44.576 63.205 46.0839 60.6916C49.6215 60.9817 54.1239 59.3754 57.3935 57.9106C61.4495 56.0917 65.6136 53.5633 68.0015 51.4692C68.8956 50.6837 70.198 50.8418 70.9236 51.7796C71.6858 52.7645 71.5519 54.2801 70.6324 55.0869ZM14.0127 73.5461C14.0127 73.8871 13.7261 74.1754 13.3861 74.1754L8.59349 74.1756C8.25253 74.1756 7.96421 73.8873 7.96405 73.5463L7.96373 57.4977C7.96373 57.1567 8.25205 56.8684 8.59301 56.8684L13.3856 56.8682C13.7256 56.8682 14.0122 57.1565 14.0122 57.4975L14.0127 73.5461ZM69.7109 48.7908C68.5584 48.6799 67.4384 49.046 66.5549 49.8194C62.3685 53.4877 52.2885 58.6901 46.6687 58.5309C46.5892 56.6151 44.9719 55.01 43.252 54.0525C39.0924 51.7386 36.1805 50.7111 30.8805 51.1335C26.0661 51.5175 24.0188 52.5577 20.1431 54.4172C18.876 55.0281 17.4788 55.6279 15.9069 56.2378C15.4429 55.3119 14.4884 54.6751 13.3858 54.6751L8.59317 54.6753C7.03685 54.6753 5.76997 55.9413 5.76997 57.4977L5.77029 73.5463C5.77029 75.1026 7.03733 76.3695 8.59365 76.3695L13.3863 76.3693C14.9426 76.3693 16.2068 75.1023 16.2066 73.546V73.2845C23.4252 73.0597 29.3954 73.9228 36.6791 73.9189C38.4322 73.917 40.2776 73.8708 42.2488 73.7506C45.3216 73.5629 47.814 72.94 50.0938 71.7893C55.621 68.9956 66.9212 61.2593 72.0788 56.7356C73.8706 55.1645 74.1303 52.3394 72.658 50.4367C71.9232 49.4876 70.8781 48.9036 69.7109 48.7908ZM72.9559 27.5909C73.5335 27.5909 74.0039 27.1215 74.0039 26.542L74.0036 11.9193L69.5668 11.9194C68.9615 11.9194 68.4698 11.4297 68.4698 10.8225L68.4697 6.38565L58.7208 6.38581C58.1432 6.38581 57.6719 6.85621 57.6719 7.43381L57.6724 26.5423C57.6724 27.1217 58.1437 27.5911 58.7213 27.5911L72.9559 27.5909ZM70.6636 7.93733L72.4519 9.72549H70.6637L70.6636 7.93733ZM75.8757 10.0471L70.3418 4.51349C70.1367 4.30741 69.8575 4.19189 69.5665 4.19189L58.7207 4.19221C56.9333 4.19221 55.4788 5.64693 55.4789 7.43413L55.4794 26.5426C55.4794 28.3317 56.9341 29.7853 58.7213 29.7853L64.7402 29.7852L64.7404 35.3929L53.6508 35.3932C53.0455 35.3932 52.5538 35.8839 52.5538 36.4893L52.554 44.5653L50.8618 42.8733C50.434 42.4445 49.7389 42.4445 49.3101 42.8733C48.8823 43.3021 48.8823 43.9962 49.3101 44.425L52.8941 48.0069C52.8941 48.0079 52.8951 48.0079 52.8951 48.0079L52.8968 48.0106C53.3356 48.4175 54.0012 48.4074 54.417 47.9996V47.9977C54.4189 47.9977 54.4189 47.9977 54.4189 47.9959H54.4207L54.4234 47.994C54.4234 47.9921 54.4253 47.9921 54.4253 47.9921C54.4253 47.9903 54.4263 47.9903 54.4263 47.9893L57.9916 44.4249C58.4204 43.9961 58.4204 43.302 57.9916 42.8732C57.5637 42.4444 56.8696 42.4444 56.4418 42.8732L54.7479 44.5653L54.7477 37.5863L65.8383 37.586C66.4445 37.586 66.9343 37.0953 66.9343 36.489L66.9341 29.7853L72.9559 29.7852C74.7432 29.7852 76.1976 28.3314 76.1976 26.5423L76.1973 10.8226C76.1973 10.5313 76.0818 10.2541 75.8757 10.0471ZM5.99925 26.5437C5.99925 27.1231 6.46869 27.5925 7.04821 27.5925L21.2808 27.5922C21.8594 27.5922 22.3288 27.1228 22.3288 26.5433L22.3285 11.9205L17.8917 11.9207C17.2864 11.9207 16.7948 11.4309 16.7948 10.8237L16.7946 6.38693L7.04773 6.38725C6.46837 6.38725 5.99877 6.85765 5.99877 7.43525L5.99925 26.5437ZM18.9885 7.93861L20.7786 9.72677H18.9885V7.93861ZM13.0671 29.7863L13.0672 36.49C13.0672 37.0962 13.5589 37.5869 14.1642 37.5869L25.2538 37.5866L25.254 44.5657L23.5618 42.8736C23.134 42.4449 22.4389 42.4449 22.0101 42.8736C21.5823 43.3025 21.5823 43.9965 22.0101 44.4253L25.5802 47.9953C25.5821 47.9953 25.5821 47.9953 25.5839 47.9962C25.5839 47.998 25.5848 47.998 25.5848 47.9999C25.7946 48.2004 26.0596 48.3113 26.3509 48.3113C26.6354 48.3113 26.9188 48.1981 27.1189 47.998C27.1189 47.998 27.1207 47.998 27.1207 47.9962L30.6933 44.4252C31.1221 43.9964 31.1221 43.3023 30.6933 42.8735C30.2645 42.4447 29.5696 42.4447 29.1416 42.8735L27.4477 44.5657L27.4476 36.4897C27.4476 35.8844 26.9578 35.3937 26.3506 35.3937L15.261 35.394L15.2608 29.7863L21.2807 29.7861C23.0688 29.7861 24.5226 28.3324 24.5224 26.5433L24.5221 10.8236C24.5221 10.5325 24.4066 10.2553 24.2015 10.0482L18.6676 4.51461C18.4615 4.30853 18.1823 4.19301 17.8912 4.19301L7.04741 4.19333C5.25829 4.19333 3.80469 5.64805 3.80469 7.43525L3.80517 26.5437C3.80517 28.3329 5.25893 29.7865 7.04805 29.7865L13.0671 29.7863ZM31.8349 7.43461L31.8354 26.5431C31.8354 27.1225 32.3058 27.5919 32.8844 27.5919L47.118 27.5916C47.6956 27.5916 48.1668 27.1221 48.1668 26.5426L48.1665 11.9199L43.7296 11.9201C43.1234 11.9201 42.6317 11.4303 42.6317 10.8231L42.6316 6.38629L32.8837 6.38645C32.3053 6.38661 31.8349 6.85717 31.8349 7.43461ZM44.8256 7.93797L46.6148 9.72613H44.8256V7.93797ZM32.8844 29.7858L38.9052 29.7857L38.9055 44.5653L37.2116 42.8733C36.7828 42.4445 36.0887 42.4445 35.6599 42.8733C35.233 43.3021 35.233 43.9962 35.6599 44.425C36.1204 44.8863 39.1287 47.9303 39.3575 48.1002C39.7887 48.4204 40.3993 48.3661 40.777 47.9893L44.3421 44.4249C44.7709 43.9961 44.7709 43.302 44.3421 42.8732C43.9143 42.4444 43.2192 42.4444 42.7914 42.8732L41.0994 44.5653L41.0991 29.7857L47.118 29.7855C48.9053 29.7855 50.3607 28.3317 50.3607 26.5426L50.3604 10.8229C50.3604 10.5319 50.2448 10.2546 50.0378 10.0476L44.5039 4.51397C44.2996 4.30789 44.0196 4.19237 43.7295 4.19237L32.8837 4.19269C31.0964 4.19269 29.641 5.64741 29.641 7.43461L29.6415 26.5431C29.6415 28.3322 31.0972 29.786 32.8844 29.7858Z" fill="#2B7575"/>
</svg>
