<svg width="80" height="81" viewBox="0 0 80 81" fill="none" xmlns="http://www.w3.org/2000/svg">
<path d="M73.8377 17.7796H72.4377C72.125 13.7007 70.2839 9.89008 67.2826 7.11009C64.2813 4.33009 60.3412 2.78564 56.2502 2.78564C52.1592 2.78564 48.2191 4.33009 45.2178 7.11009C42.2165 9.89008 40.3754 13.7007 40.0627 17.7796H6.16271C5.18015 17.7925 4.24279 18.1945 3.55621 18.8975C2.86962 19.6005 2.48986 20.5471 2.50021 21.5296V61.5297C2.48986 62.5122 2.86962 63.4588 3.55621 64.1618C4.24279 64.8648 5.18015 65.2668 6.16271 65.2797H31.0252L30.1877 70.2796H28.7502C28.5564 70.281 28.3655 70.3268 28.1921 70.4134C28.0187 70.5001 27.8676 70.6254 27.7502 70.7797L24.0002 75.7797C23.8609 75.9654 23.7761 76.1862 23.7553 76.4174C23.7344 76.6486 23.7784 76.881 23.8822 77.0887C23.986 77.2963 24.1456 77.4709 24.343 77.593C24.5405 77.715 24.7681 77.7796 25.0002 77.7796H55.0002C55.2323 77.7796 55.4599 77.715 55.6574 77.593C55.8548 77.4709 56.0144 77.2963 56.1182 77.0887C56.2221 76.881 56.266 76.6486 56.2452 76.4174C56.2243 76.1862 56.1395 75.9654 56.0002 75.7797L52.2502 70.7797C52.1328 70.6254 51.9817 70.5001 51.8083 70.4134C51.635 70.3268 51.444 70.281 51.2502 70.2796H49.8127L48.9752 65.2797H73.8377C74.8203 65.2668 75.7576 64.8648 76.4442 64.1618C77.1308 63.4588 77.5106 62.5122 77.5002 61.5297V21.5296C77.5106 20.5471 77.1308 19.6005 76.4442 18.8975C75.7576 18.1945 74.8203 17.7925 73.8377 17.7796ZM56.2502 5.27965C58.9697 5.27965 61.6281 6.08607 63.8893 7.59694C66.1505 9.10781 67.9128 11.2553 68.9535 13.7678C69.9943 16.2802 70.2665 19.0449 69.736 21.7121C69.2055 24.3794 67.8959 26.8294 65.9729 28.7524C64.05 30.6753 61.5999 31.9849 58.9327 32.5154C56.2655 33.046 53.5008 32.7737 50.9883 31.733C48.4758 30.6923 46.3284 28.9299 44.8175 26.6687C43.3066 24.4076 42.5002 21.7491 42.5002 19.0296C42.5025 15.3836 43.9519 11.8876 46.53 9.30949C49.1082 6.73137 52.6042 5.28197 56.2502 5.27965ZM50.6252 72.7796L52.5002 75.2796H27.5002L29.3752 72.7796H50.6252ZM32.7252 70.2796L33.5627 65.2797H46.4377L47.2752 70.2796H32.7252ZM75.0002 61.5297C75.0059 61.8479 74.8879 62.156 74.6711 62.3891C74.4543 62.6223 74.1556 62.7622 73.8377 62.7797H6.16271C5.84484 62.7622 5.54611 62.6223 5.32932 62.3891C5.11252 62.156 4.99455 61.8479 5.00021 61.5297V57.7797H75.0002V61.5297ZM75.0002 55.2797H5.00021V21.5296C4.99455 21.2114 5.11252 20.9033 5.32932 20.6702C5.54611 20.437 5.84484 20.2971 6.16271 20.2796H40.0627C40.3754 24.3586 42.2165 28.1692 45.2178 30.9492C48.2191 33.7292 52.1592 35.2737 56.2502 35.2737C60.3412 35.2737 64.2813 33.7292 67.2826 30.9492C70.2839 28.1692 72.125 24.3586 72.4377 20.2796H73.8377C74.1556 20.2971 74.4543 20.437 74.6711 20.6702C74.8879 20.9033 75.0059 21.2114 75.0002 21.5296V55.2797Z" fill="#2B7575"/>
<path d="M36.25 35.2806H26.25V29.0306H33.2375L31.6125 30.6431L33.3875 32.4181L37.1375 28.6681C37.3717 28.4321 37.5031 28.113 37.5031 27.7806C37.5031 27.4481 37.3717 27.1291 37.1375 26.8931L33.3875 23.1431L31.6125 24.9181L33.2375 26.5306H25C24.6685 26.5306 24.3505 26.6623 24.1161 26.8967C23.8817 27.1311 23.75 27.449 23.75 27.7806V35.2806H13.75C12.7564 35.2835 11.8042 35.6796 11.1016 36.3822C10.399 37.0848 10.003 38.0369 10 39.0306V49.0306C10.003 50.0242 10.399 50.9763 11.1016 51.6789C11.8042 52.3816 12.7564 52.7776 13.75 52.7806H36.25C37.2436 52.7776 38.1958 52.3816 38.8984 51.6789C39.601 50.9763 39.997 50.0242 40 49.0306V39.0306C39.997 38.0369 39.601 37.0848 38.8984 36.3822C38.1958 35.6796 37.2436 35.2835 36.25 35.2806ZM37.5 49.0306C37.5 49.3621 37.3683 49.68 37.1339 49.9144C36.8995 50.1489 36.5815 50.2806 36.25 50.2806H13.75C13.4185 50.2806 13.1005 50.1489 12.8661 49.9144C12.6317 49.68 12.5 49.3621 12.5 49.0306V39.0306C12.5 38.699 12.6317 38.3811 12.8661 38.1467C13.1005 37.9123 13.4185 37.7806 13.75 37.7806H36.25C36.5815 37.7806 36.8995 37.9123 37.1339 38.1467C37.3683 38.3811 37.5 38.699 37.5 39.0306V49.0306Z" fill="#2B7575"/>
<path d="M15 40.2798H35V42.7798H15V40.2798Z" fill="#2B7575"/>
<path d="M15 45.2798H35V47.7798H15V45.2798Z" fill="#2B7575"/>
<path d="M38.75 59.0298H41.25V61.5298H38.75V59.0298Z" fill="#2B7575"/>
<path d="M52.5 19.0298C52.5 19.7715 52.7199 20.4965 53.132 21.1132C53.544 21.7299 54.1297 22.2105 54.8149 22.4943C55.5002 22.7782 56.2542 22.8524 56.9816 22.7077C57.709 22.563 58.3772 22.2059 58.9016 21.6814C59.4261 21.157 59.7833 20.4888 59.9279 19.7614C60.0726 19.0339 59.9984 18.2799 59.7145 17.5947C59.4307 16.9095 58.9501 16.3238 58.3334 15.9118C57.7167 15.4997 56.9917 15.2798 56.25 15.2798C55.2554 15.2798 54.3016 15.6749 53.5984 16.3781C52.8951 17.0814 52.5 18.0352 52.5 19.0298ZM57.5 19.0298C57.5 19.277 57.4267 19.5187 57.2893 19.7242C57.152 19.9298 56.9568 20.09 56.7284 20.1846C56.4999 20.2792 56.2486 20.304 56.0061 20.2558C55.7637 20.2075 55.5409 20.0885 55.3661 19.9137C55.1913 19.7389 55.0722 19.5161 55.024 19.2736C54.9758 19.0312 55.0005 18.7798 55.0952 18.5514C55.1898 18.323 55.35 18.1278 55.5555 17.9904C55.7611 17.8531 56.0028 17.7798 56.25 17.7798C56.5815 17.7798 56.8995 17.9115 57.1339 18.1459C57.3683 18.3803 57.5 18.6983 57.5 19.0298Z" fill="#2B7575"/>
<path d="M56.25 29.0298C58.9013 29.0268 61.4431 27.9723 63.3178 26.0976C65.1925 24.2228 66.247 21.681 66.25 19.0298H63.75C63.748 21.0183 62.9572 22.9248 61.5511 24.3309C60.145 25.737 58.2385 26.5278 56.25 26.5298V29.0298Z" fill="#2B7575"/>
<path d="M56.25 11.5298V9.02979C53.5987 9.03276 51.0569 10.0873 49.1822 11.962C47.3075 13.8367 46.253 16.3785 46.25 19.0298H48.75C48.752 17.0413 49.5428 15.1348 50.9489 13.7287C52.355 12.3226 54.2615 11.5318 56.25 11.5298Z" fill="#2B7575"/>
<path d="M47.5 42.7798H50V45.2798H47.5V42.7798Z" fill="#2B7575"/>
<path d="M52.5 42.7798H65V45.2798H52.5V42.7798Z" fill="#2B7575"/>
<path d="M47.5 37.7798H52.5V40.2798H47.5V37.7798Z" fill="#2B7575"/>
<path d="M55 37.7798H65V40.2798H55V37.7798Z" fill="#2B7575"/>
<path d="M47.5 47.7798H57.5V50.2798H47.5V47.7798Z" fill="#2B7575"/>
<path d="M60 47.7798H65V50.2798H60V47.7798Z" fill="#2B7575"/>
</svg>
