<svg width="48" height="49" viewBox="0 0 48 49" fill="none" xmlns="http://www.w3.org/2000/svg">
<g clip-path="url(#clip0_829_41421)">
<path d="M48 0.279785H0V48.2798H48V0.279785Z" fill="url(#paint0_linear_829_41421)"/>
<path fill-rule="evenodd" clip-rule="evenodd" d="M16.8053 39.879H9.35522L17.5949 22.6566L21.3284 30.3426L16.8053 39.879ZM18.1326 21.0108C18.0315 20.8038 17.8211 20.6724 17.5913 20.6724H17.5895C17.358 20.673 17.1475 20.8056 17.0483 21.0138L7.85955 40.2204C7.77054 40.4064 7.78317 40.6248 7.89383 40.7994C8.00328 40.9734 8.19573 41.079 8.40201 41.079H17.186C17.4187 41.079 17.6298 40.9452 17.7296 40.7358L22.539 30.5958C22.6166 30.4314 22.616 30.2412 22.536 30.078L18.1326 21.0108ZM38.998 39.879H31.596L19.7209 15.021C19.6216 14.8122 19.4099 14.679 19.1778 14.679H14.3348L14.3402 8.679H23.8326L35.653 33.5364C35.7523 33.7452 35.964 33.879 36.1961 33.879H38.998V39.879ZM39.5994 32.679H36.5768L24.7564 7.8216C24.6571 7.6128 24.4454 7.479 24.2127 7.479H13.7394C13.408 7.479 13.1386 7.7472 13.138 8.0784L13.1314 15.2784C13.1314 15.438 13.1939 15.5904 13.3076 15.7032C13.42 15.816 13.5728 15.879 13.7328 15.879H18.7983L30.6741 40.737C30.7739 40.9458 30.9844 41.079 31.2165 41.079H39.5994C39.932 41.079 40.2008 40.8102 40.2008 40.479V33.279C40.2008 32.9478 39.932 32.679 39.5994 32.679Z" fill="white"/>
</g>
<defs>
<linearGradient id="paint0_linear_829_41421" x1="0" y1="4800.28" x2="4800" y2="0.279785" gradientUnits="userSpaceOnUse">
<stop stop-color="#C8511B"/>
<stop offset="1" stop-color="#FF9900"/>
</linearGradient>
<clipPath id="clip0_829_41421">
<rect width="48" height="48" fill="white" transform="translate(0 0.279785)"/>
</clipPath>
</defs>
</svg>
