<svg width="48" height="49" viewBox="0 0 48 49" fill="none" xmlns="http://www.w3.org/2000/svg">
<g clip-path="url(#clip0_829_41435)">
<path d="M48 0.279785H0V48.2798H48V0.279785Z" fill="url(#paint0_linear_829_41435)"/>
<path fill-rule="evenodd" clip-rule="evenodd" d="M19.7984 14.0806H20.9984V12.8806H19.7984V14.0806ZM18.5984 14.6806V12.2806C18.5984 11.9494 18.8666 11.6806 19.1984 11.6806H21.5984C21.9302 11.6806 22.1984 11.9494 22.1984 12.2806V14.6806C22.1984 15.0118 21.9302 15.2806 21.5984 15.2806H19.1984C18.8666 15.2806 18.5984 15.0118 18.5984 14.6806ZM24.5984 10.4806H25.7984V9.28057H24.5984V10.4806ZM23.3984 11.0806V8.68057C23.3984 8.34937 23.6666 8.08057 23.9984 8.08057H26.3984C26.7302 8.08057 26.9984 8.34937 26.9984 8.68057V11.0806C26.9984 11.4118 26.7302 11.6806 26.3984 11.6806H23.9984C23.6666 11.6806 23.3984 11.4118 23.3984 11.0806ZM25.7984 16.4806H26.9984V15.2806H25.7984V16.4806ZM25.1984 14.0806H27.5984C27.9302 14.0806 28.1984 14.3494 28.1984 14.6806V17.0806C28.1984 17.4118 27.9302 17.6806 27.5984 17.6806H25.1984C24.8666 17.6806 24.5984 17.4118 24.5984 17.0806V14.6806C24.5984 14.3494 24.8666 14.0806 25.1984 14.0806ZM23.9984 20.3806C22.9418 20.3806 19.1108 20.3356 16.619 19.723L22.706 29.3602C22.766 29.4562 22.7984 29.5672 22.7984 29.6806V31.0468C23.6408 31.291 24.419 31.2934 25.1984 31.0564V29.6806C25.1984 29.5672 25.2308 29.4562 25.2908 29.3602L31.3778 19.723C28.886 20.3356 25.055 20.3806 23.9984 20.3806ZM14.5508 18.6958C14.4554 18.5566 14.3984 18.4066 14.3984 18.2428C14.3984 16.5358 20.0288 16.2202 23.3852 16.1836L23.3978 17.3836C19.2746 17.4286 16.7552 17.899 15.8672 18.2494C16.8092 18.643 19.5842 19.1806 23.9984 19.1806C28.4012 19.1806 31.1726 18.646 32.1218 18.253C31.7342 18.0964 30.9314 17.8648 29.3258 17.6686L29.471 16.4776C33.1082 16.9216 33.5984 17.6188 33.5984 18.2428C33.5984 18.4066 33.5414 18.5566 33.446 18.6958L26.3984 29.8546V31.4806C26.3984 31.7254 26.2496 31.9462 26.0222 32.0374C25.3676 32.3002 24.71 32.431 24.038 32.431C23.372 32.431 22.6928 32.302 21.9908 32.0434C21.7556 31.9564 21.5984 31.732 21.5984 31.4806V29.8546L14.5508 18.6958ZM28.1528 36.0508C28.2458 36.2752 28.1942 36.5332 28.0226 36.7048L24.4226 40.3048C24.3056 40.4218 24.152 40.4806 23.9984 40.4806C23.8448 40.4806 23.6912 40.4218 23.5742 40.3048L19.9742 36.7048C19.8026 36.5332 19.751 36.2752 19.844 36.0508C19.9364 35.827 20.156 35.6806 20.3984 35.6806H22.1984V33.8806H23.3984V36.2806C23.3984 36.6118 23.1302 36.8806 22.7984 36.8806H21.8468L23.9984 39.0322L26.15 36.8806H25.1984C24.8666 36.8806 24.5984 36.6118 24.5984 36.2806V33.8806H25.7984V35.6806H27.5984C27.8408 35.6806 28.0604 35.827 28.1528 36.0508Z" fill="white"/>
</g>
<defs>
<linearGradient id="paint0_linear_829_41435" x1="0" y1="4800.28" x2="4800" y2="0.279785" gradientUnits="userSpaceOnUse">
<stop stop-color="#4D27A8"/>
<stop offset="1" stop-color="#A166FF"/>
</linearGradient>
<clipPath id="clip0_829_41435">
<rect width="48" height="48" fill="white" transform="translate(0 0.279785)"/>
</clipPath>
</defs>
</svg>
