<svg width="48" height="49" viewBox="0 0 48 49" fill="none" xmlns="http://www.w3.org/2000/svg">
<g clip-path="url(#clip0_829_41449)">
<path d="M48 0.279785H0V48.2798H48V0.279785Z" fill="url(#paint0_linear_829_41449)"/>
<path fill-rule="evenodd" clip-rule="evenodd" d="M29.4008 30.879H33.0008V29.679H29.4008V30.879ZM31.8008 37.479H33.6008V35.679H31.8008V37.479ZM34.8008 35.079V38.079C34.8008 38.4102 34.5326 38.679 34.2008 38.679H31.2008C30.8696 38.679 30.6008 38.4102 30.6008 38.079V35.079C30.6008 34.7478 30.8696 34.479 31.2008 34.479H34.2008C34.5326 34.479 34.8008 34.7478 34.8008 35.079ZM31.2008 33.279H33.0008V32.079H31.2008V33.279ZM35.4008 32.079H37.2008V30.279H35.4008V32.079ZM37.8008 33.279H34.8008C34.4696 33.279 34.2008 33.0102 34.2008 32.679V29.679C34.2008 29.3478 34.4696 29.079 34.8008 29.079H36.5858C35.5838 28.329 34.346 27.879 33.0008 27.879C30.32 27.879 28.0442 29.6472 27.2774 32.079H30.0008V33.279H27.0314C27.0116 33.4764 27.0008 33.6768 27.0008 33.879C27.0008 34.0812 27.0116 34.2816 27.0314 34.479H29.4008V35.679H27.2774C27.4112 36.102 27.5942 36.5022 27.8132 36.879H29.4008V38.079H28.7234C29.813 39.1884 31.3268 39.879 33.0008 39.879C34.6748 39.879 36.1892 39.1884 37.2782 38.079H36.0008V36.879H38.189C38.408 36.5022 38.591 36.102 38.7242 35.679H36.0008V34.479H38.9708C38.9906 34.2816 39.0008 34.0812 39.0008 33.879C39.0008 32.9472 38.7812 32.0682 38.4008 31.281V32.679C38.4008 33.0102 38.1326 33.279 37.8008 33.279ZM40.2008 33.879C40.2008 37.8492 36.9716 41.079 33.0008 41.079C29.0306 41.079 25.8008 37.8492 25.8008 33.879C25.8008 29.9088 29.0306 26.679 33.0008 26.679C36.9716 26.679 40.2008 29.9088 40.2008 33.879ZM28.877 26.5692C20.0612 27.4218 11.4008 29.511 11.4008 37.479H12.6008C12.6008 33.6588 14.4008 29.6058 27.0212 27.99C27.5684 27.4338 28.1942 26.9562 28.877 26.5692ZM15.0008 41.079H16.2008C16.2008 37.59 16.208 33.3198 25.0814 31.1052C25.25 30.6252 25.4582 30.165 25.7072 29.7294C15.0092 32.1072 15.0008 37.4682 15.0008 41.079ZM9.00078 15.879H7.80078C7.80078 20.3166 13.8242 23.127 25.7366 24.279C13.8242 25.431 7.80078 28.2414 7.80078 32.679H9.00078C9.00078 29.766 13.0544 24.879 40.2008 24.879V23.679C13.0544 23.679 9.00078 18.792 9.00078 15.879ZM12.6008 11.079H11.4008C11.4008 16.7166 14.8226 22.479 40.2008 22.479V21.279C15.8798 21.279 12.6008 16.1226 12.6008 11.079ZM40.2008 18.879V20.079C29.1986 20.079 22.0376 18.6636 18.3068 15.7518C15.0008 13.1718 15.0008 9.8814 15.0008 7.479H16.2008C16.2008 12.0186 16.2008 18.879 40.2008 18.879Z" fill="white"/>
</g>
<defs>
<linearGradient id="paint0_linear_829_41449" x1="0" y1="4800.28" x2="4800" y2="0.279785" gradientUnits="userSpaceOnUse">
<stop stop-color="#4D27A8"/>
<stop offset="1" stop-color="#A166FF"/>
</linearGradient>
<clipPath id="clip0_829_41449">
<rect width="48" height="48" fill="white" transform="translate(0 0.279785)"/>
</clipPath>
</defs>
</svg>
