<svg width="46" height="49" viewBox="0 0 46 49" fill="none" xmlns="http://www.w3.org/2000/svg">
<path fill-rule="evenodd" clip-rule="evenodd" d="M14.8023 0.279785H31.0565L45.4096 14.6301V42.1923C45.4096 45.5419 42.669 48.2798 39.3222 48.2798H14.8023C11.4554 48.2798 8.71484 45.542 8.71484 42.1923V6.36444C8.71494 3.01766 11.4554 0.279785 14.8023 0.279785Z" fill="#FF6600"/>
<path fill-rule="evenodd" clip-rule="evenodd" d="M31.0586 0.279785L45.4117 14.6301H32.6086C31.7554 14.6301 31.0586 13.9333 31.0586 13.0828V0.279785Z" fill="#CC5100"/>
<path fill-rule="evenodd" clip-rule="evenodd" d="M1.92588 20.7173H34.9857C35.7209 20.7173 36.3217 21.318 36.3217 22.0533V34.1816C36.3217 34.9168 35.721 35.5203 34.9857 35.5203H1.92588C1.19069 35.5203 0.589844 34.9168 0.589844 34.1816V22.0533C0.589938 21.3181 1.19069 20.7173 1.92588 20.7173Z" fill="#CC5100"/>
<path d="M9.65838 23.9688V32.2702C9.65838 32.6982 9.31141 33.0452 8.88344 33.0452C8.45538 33.0452 8.10841 32.6982 8.10841 32.2702V28.8944H4.67106V32.2702C4.67106 32.6982 4.32409 33.0452 3.89603 33.0452C3.46797 33.0452 3.12109 32.6982 3.12109 32.2702V23.9688C3.12109 23.5407 3.46806 23.1939 3.89603 23.1939C4.324 23.1939 4.67106 23.5408 4.67106 23.9688V27.3445H8.10841V23.9688C8.10841 23.5407 8.45538 23.1939 8.88344 23.1939C9.31141 23.1939 9.65838 23.5408 9.65838 23.9688ZM16.6004 23.1939H11.6103C11.1822 23.1939 10.8352 23.5408 10.8352 23.9688C10.8352 24.3968 11.1822 24.7438 11.6103 24.7438H13.3289V32.2703C13.3289 32.6983 13.6758 33.0453 14.1038 33.0453C14.5318 33.0453 14.8788 32.6983 14.8788 32.2703V24.7438H16.6003C17.0283 24.7438 17.3753 24.3969 17.3753 23.9688C17.3753 23.5407 17.0284 23.1939 16.6004 23.1939ZM25.7321 23.6112C25.6835 23.5178 25.6153 23.433 25.5286 23.3637C25.4576 23.3068 25.3763 23.2622 25.2881 23.233C25.1921 23.2011 25.0922 23.1891 24.9934 23.1955C24.8815 23.2029 24.7761 23.2338 24.6822 23.2836C24.5907 23.3319 24.5076 23.3992 24.4395 23.4843C24.4267 23.5001 24.4146 23.5165 24.4031 23.5333L22.1393 26.7677L19.8779 23.5339C19.8662 23.5167 19.8539 23.5 19.8408 23.4839C19.7712 23.3969 19.686 23.3287 19.5919 23.2803C19.4998 23.2327 19.3968 23.2029 19.2878 23.1958C19.194 23.1891 19.0988 23.2001 19.007 23.2286C18.9133 23.2576 18.8272 23.3039 18.7524 23.3638C18.6655 23.4333 18.5972 23.5181 18.5486 23.6118C18.5003 23.7044 18.4703 23.808 18.4631 23.9178C18.4617 23.9385 18.4611 23.9593 18.4614 23.98V32.2704C18.4614 32.6985 18.8084 33.0455 19.2364 33.0455C19.6645 33.0455 20.0114 32.6985 20.0114 32.2704V26.4297L21.5038 28.5639C21.6487 28.7712 21.8857 28.8946 22.1388 28.8947H22.1389C22.3919 28.8947 22.6289 28.7712 22.7738 28.5641L24.269 26.4279V32.2704C24.269 32.6985 24.616 33.0455 25.044 33.0455C25.472 33.0455 25.819 32.6985 25.819 32.2704V23.9799C25.8193 23.9594 25.8187 23.9389 25.8174 23.9185C25.8106 23.8081 25.7805 23.7041 25.7321 23.6112ZM33.0082 31.4952H28.7958V23.9688C28.7958 23.5407 28.4489 23.1939 28.0208 23.1939C27.5927 23.1939 27.2458 23.5408 27.2458 23.9688V32.2702C27.2458 32.6982 27.5927 33.0452 28.0208 33.0452H33.0082C33.4363 33.0452 33.7832 32.6982 33.7832 32.2702C33.7832 31.8422 33.4363 31.4952 33.0082 31.4952Z" fill="white"/>
</svg>
