<svg width="49" height="48" viewBox="0 0 49 48" fill="none" xmlns="http://www.w3.org/2000/svg">
<g clip-path="url(#clip0_830_57103)">
<path d="M48.6667 -0.000244141H0.666748V47.9998H48.6667V-0.000244141Z" fill="url(#paint0_linear_830_57103)"/>
<path fill-rule="evenodd" clip-rule="evenodd" d="M30.9573 27.5763C30.9573 26.5817 30.1507 25.7723 29.1596 25.7723C28.1686 25.7723 27.362 26.5817 27.362 27.5763C27.362 28.5708 28.1686 29.3802 29.1596 29.3802C30.1507 29.3802 30.9573 28.5708 30.9573 27.5763ZM24.366 21.5631C25.3571 21.5631 26.1636 20.7537 26.1636 19.7592C26.1636 18.7646 25.3571 17.9552 24.366 17.9552C23.3749 17.9552 22.5683 18.7646 22.5683 19.7592C22.5683 20.7537 23.3749 21.5631 24.366 21.5631ZM18.9731 28.1776C19.9642 28.1776 20.7707 27.3682 20.7707 26.3736C20.7707 25.3791 19.9642 24.5697 18.9731 24.5697C17.982 24.5697 17.1755 25.3791 17.1755 26.3736C17.1755 27.3682 17.982 28.1776 18.9731 28.1776ZM32.1557 27.5763C32.1557 29.0284 31.1245 30.2425 29.7589 30.5221V34.1907C29.7589 34.5227 29.491 34.7921 29.1596 34.7921H24.9652V38.4H23.7668V31.7855H18.9731C18.6417 31.7855 18.3739 31.5161 18.3739 31.1842V29.3195C17.0083 29.0399 15.9771 27.8258 15.9771 26.3736C15.9771 24.7158 17.3211 23.3671 18.9731 23.3671C20.6251 23.3671 21.9691 24.7158 21.9691 26.3736C21.9691 27.8258 20.9379 29.0399 19.5723 29.3195V30.5828H23.7668V22.705C22.4012 22.4254 21.3699 21.2113 21.3699 19.7592C21.3699 18.1013 22.714 16.7526 24.366 16.7526C26.018 16.7526 27.362 18.1013 27.362 19.7592C27.362 21.2113 26.3308 22.4254 24.9652 22.705V33.5894H28.5604V30.5221C27.1948 30.2425 26.1636 29.0284 26.1636 27.5763C26.1636 25.9184 27.5076 24.5697 29.1596 24.5697C30.8117 24.5697 32.1557 25.9184 32.1557 27.5763ZM40.8652 24.607C40.8652 29.0128 37.5917 30.5828 34.5286 30.5828V29.3802C36.0733 29.3802 39.6668 28.9148 39.6668 24.607C39.6668 21.3839 37.2244 20.2156 35.1757 19.8031C34.9085 19.7495 34.7113 19.5216 34.6951 19.2492C34.5465 16.7249 33.0809 15.829 31.8699 15.829C31.0513 15.829 30.2838 16.2204 29.7642 16.9035C29.6318 17.0785 29.4137 17.1675 29.198 17.1338C28.9823 17.1013 28.8007 16.9528 28.7252 16.7466C28.256 15.4676 27.5825 14.396 26.7227 13.5614C24.5134 11.4117 21.4916 10.8284 18.6381 12.0028C16.2689 12.9709 14.4137 15.77 14.4137 18.3755C14.4137 18.6636 14.4311 18.9528 14.4665 19.2354C14.5036 19.5379 14.3101 19.8205 14.0158 19.8933C12.6143 20.2414 10.2636 21.3106 10.2636 24.5619C10.2636 24.6851 10.269 24.803 10.275 24.9142C10.4152 27.4175 12.6251 29.3802 15.3065 29.3802H15.9771V30.5828H15.3065C11.9899 30.5828 9.25394 28.1217 9.07837 24.9798C9.07178 24.8463 9.06519 24.7074 9.06519 24.5619C9.06519 20.7838 11.6759 19.3725 13.2297 18.8686C13.2195 18.7045 13.2153 18.5397 13.2153 18.3755C13.2153 15.2649 15.3521 12.0467 18.1857 10.8897C21.491 9.53017 24.9945 10.2048 27.5562 12.6973C28.3441 13.4616 28.9937 14.3918 29.494 15.4706C30.1693 14.9264 30.998 14.6263 31.8699 14.6263C33.6453 14.6263 35.5113 15.8975 35.851 18.7219C39.0891 19.5144 40.8652 21.5908 40.8652 24.607Z" fill="white"/>
</g>
<defs>
<linearGradient id="paint0_linear_830_57103" x1="0.666748" y1="4800" x2="4800.67" y2="-0.000244141" gradientUnits="userSpaceOnUse">
<stop stop-color="#C8511B"/>
<stop offset="1" stop-color="#FF9900"/>
</linearGradient>
<clipPath id="clip0_830_57103">
<rect width="48" height="48" fill="white" transform="translate(0.666748 -0.000244141)"/>
</clipPath>
</defs>
</svg>
