<svg width="48" height="48" viewBox="0 0 48 48" fill="none" xmlns="http://www.w3.org/2000/svg">
<g clip-path="url(#clip0_830_57110)">
<path d="M48 -0.000244141H0V47.9998H48V-0.000244141Z" fill="url(#paint0_linear_830_57110)"/>
<path fill-rule="evenodd" clip-rule="evenodd" d="M36.5024 25.7353L36.7328 24.1129C38.8574 25.3855 38.885 25.9111 38.8844 25.9255C38.8808 25.9285 38.5184 26.2309 36.5024 25.7353ZM35.3366 25.4113C31.6646 24.3001 26.5508 21.9541 24.4814 20.9761C24.4814 20.9677 24.4838 20.9599 24.4838 20.9515C24.4838 20.1565 23.837 19.5097 23.0414 19.5097C22.247 19.5097 21.6002 20.1565 21.6002 20.9515C21.6002 21.7465 22.247 22.3933 23.0414 22.3933C23.3906 22.3933 23.7074 22.2631 23.9576 22.0561C26.3924 23.2087 31.4666 25.5205 35.1656 26.6125L33.7028 36.9361C33.6986 36.9643 33.6968 36.9925 33.6968 37.0207C33.6968 37.9297 29.6726 39.5995 23.0972 39.5995C16.4522 39.5995 12.3854 37.9297 12.3854 37.0207C12.3854 36.9931 12.3836 36.9661 12.38 36.9391L9.32358 14.6149C11.969 16.4359 17.6588 17.3995 23.1008 17.3995C28.5344 17.3995 34.2146 16.4395 36.8654 14.6239L35.3366 25.4113ZM9.00078 12.2863C9.04398 11.4967 13.5812 8.39946 23.1008 8.39946C32.6192 8.39946 37.157 11.4961 37.2008 12.2863V12.5557C36.6788 14.3263 30.7988 16.1995 23.1008 16.1995C15.3896 16.1995 9.50658 14.3203 9.00078 12.5473V12.2863ZM38.4008 12.2995C38.4008 10.2205 32.4404 7.19946 23.1008 7.19946C13.7612 7.19946 7.80078 10.2205 7.80078 12.2995L7.85718 12.7519L11.186 37.0663C11.2658 39.7855 18.5174 40.7995 23.0972 40.7995C28.7804 40.7995 34.8182 39.4927 34.8962 37.0681L36.3338 26.9299C37.1336 27.1213 37.7918 27.2191 38.3204 27.2191C39.0302 27.2191 39.5102 27.0457 39.8012 26.6989C40.04 26.4145 40.1312 26.0701 40.0628 25.7035C39.9074 24.8731 38.9216 23.9779 36.914 22.8325L38.3396 12.7753L38.4008 12.2995Z" fill="white"/>
</g>
<defs>
<linearGradient id="paint0_linear_830_57110" x1="0" y1="4800" x2="4800" y2="-0.000244141" gradientUnits="userSpaceOnUse">
<stop stop-color="#1B660F"/>
<stop offset="1" stop-color="#6CAE3E"/>
</linearGradient>
<clipPath id="clip0_830_57110">
<rect width="48" height="48" fill="white" transform="translate(0 -0.000244141)"/>
</clipPath>
</defs>
</svg>
