<svg width="49" height="48" viewBox="0 0 49 48" fill="none" xmlns="http://www.w3.org/2000/svg">
<g clip-path="url(#clip0_830_57118)">
<path d="M48.3335 -0.000244141H0.333496V47.9998H48.3335V-0.000244141Z" fill="url(#paint0_linear_830_57118)"/>
<path fill-rule="evenodd" clip-rule="evenodd" d="M33.3683 28.0662C33.3683 25.7206 31.4472 23.8123 29.086 23.8123C26.7247 23.8123 24.8043 25.7206 24.8043 28.0662C24.8043 30.4118 26.7247 32.32 29.086 32.32C31.4472 32.32 33.3683 30.4118 33.3683 28.0662ZM34.5745 28.0662C34.5745 31.0726 32.1125 33.5183 29.086 33.5183C26.06 33.5183 23.598 31.0726 23.598 28.0662C23.598 25.0597 26.06 22.6141 29.086 22.6141C32.1125 22.6141 34.5745 25.0597 34.5745 28.0662ZM39.6385 36.2839L35.4334 32.5213C35.0938 32.9964 34.7012 33.4302 34.2651 33.8179L38.4642 37.5798C38.8225 37.9009 39.3798 37.871 39.7036 37.5151C40.0257 37.1592 39.9968 36.6062 39.6385 36.2839ZM29.086 34.5967C32.7114 34.5967 35.6608 31.667 35.6608 28.0662C35.6608 24.4648 32.7114 21.5356 29.086 21.5356C25.4611 21.5356 22.5117 24.4648 22.5117 28.0662C22.5117 31.667 25.4611 34.5967 29.086 34.5967ZM40.5999 38.3173C40.1886 38.7697 39.6198 38.9998 39.0498 38.9998C38.5529 38.9998 38.0547 38.8248 37.6572 38.4701L33.291 34.559C32.0769 35.3379 30.636 35.795 29.086 35.795C24.7958 35.795 21.3054 32.3278 21.3054 28.0662C21.3054 23.8045 24.7958 20.3374 29.086 20.3374C33.3767 20.3374 36.8671 23.8045 36.8671 28.0662C36.8671 29.289 36.5721 30.4417 36.0607 31.4705L40.4461 35.3942C41.2977 36.1593 41.3665 37.4696 40.5999 38.3173ZM13.1009 17.6353C13.1009 17.9468 13.1202 18.2572 13.157 18.5573C13.1781 18.7281 13.125 18.8988 13.0104 19.0277C12.9194 19.1301 12.7969 19.1978 12.663 19.2206C11.1799 19.601 8.739 20.7526 8.739 24.2072C8.739 26.8158 10.1871 28.2555 11.4025 29.0044C11.8174 29.2644 12.3084 29.4028 12.8265 29.4082L20.0998 29.4148L20.0986 30.6131L12.8198 30.6065C12.0726 30.5987 11.3633 30.3962 10.7631 30.0205C9.55866 29.2782 7.53271 27.5335 7.53271 24.2072C7.53271 20.1972 10.2927 18.7149 11.9127 18.1913C11.9007 18.0067 11.8946 17.821 11.8946 17.6353C11.8946 14.3592 14.1317 10.9615 17.0979 9.73271C20.5672 8.2888 24.2427 9.00476 26.9285 11.6463C27.7609 12.4648 28.4454 13.4587 28.9708 14.6085C29.6764 14.0279 30.5462 13.7074 31.4629 13.7074C33.2645 13.7074 35.2923 15.0656 35.6536 18.0361C37.3405 18.4225 40.9051 19.773 40.9051 24.2533C40.9051 26.0423 40.3406 27.5198 39.2266 28.6449L38.3665 27.8044C39.2507 26.9116 39.6988 25.717 39.6988 24.2533C39.6988 20.3344 36.396 19.3596 34.975 19.1229C34.8134 19.096 34.6704 19.0049 34.5782 18.8707C34.4883 18.7413 34.4539 18.5825 34.481 18.4285C34.2838 15.996 32.829 14.9056 31.4629 14.9056C30.601 14.9056 29.7928 15.3226 29.2452 16.05C29.1119 16.2261 28.8954 16.316 28.6734 16.2836C28.4545 16.2513 28.2705 16.1015 28.1951 15.8948C27.7011 14.5354 26.9894 13.3922 26.0799 12.4983C23.7524 10.209 20.5696 9.58832 17.5629 10.8387C15.0605 11.8752 13.1009 14.8601 13.1009 17.6353Z" fill="white"/>
</g>
<defs>
<linearGradient id="paint0_linear_830_57118" x1="0.333496" y1="4800" x2="4800.33" y2="-0.000244141" gradientUnits="userSpaceOnUse">
<stop stop-color="#B0084D"/>
<stop offset="1" stop-color="#FF4F8B"/>
</linearGradient>
<clipPath id="clip0_830_57118">
<rect width="48" height="48" fill="white" transform="translate(0.333496 -0.000244141)"/>
</clipPath>
</defs>
</svg>
