<svg width="73" height="48" viewBox="0 0 73 48" fill="none" xmlns="http://www.w3.org/2000/svg">
<g clip-path="url(#clip0_830_57091)">
<path d="M8.00048 31.6647C8.00048 34.4291 8.60613 36.5426 9.39776 37.8243C9.81961 38.5539 10.4271 39.159 11.1585 39.5778C11.8899 39.9967 12.7191 40.2146 13.5619 40.2092C15.5975 40.2092 17.4597 39.7066 21.0484 34.7407C23.9234 30.7625 27.3111 25.191 29.5929 21.6726L33.453 15.7417C36.1345 11.6228 39.2331 7.04394 42.7967 3.93023C45.6993 1.40709 48.8331 -0.000244141 51.9871 -0.000244141C57.2822 -0.000244141 62.3259 3.06824 66.186 8.82321C70.4105 15.126 72.4688 23.0649 72.4688 31.2576C72.4688 36.1279 71.5087 39.7066 69.8752 42.5338C68.2995 45.268 65.2135 47.9998 60.039 47.9998V40.2092C64.4696 40.2092 65.5678 36.138 65.5678 31.4787C65.5678 24.8391 64.0197 17.4708 60.6095 12.2058C58.1894 8.47138 55.053 6.18949 51.6026 6.18949C47.8706 6.18949 44.8675 9.00415 41.4924 14.0228C39.6981 16.6892 37.856 19.9386 35.7877 23.6052L33.5108 27.6261C28.937 35.7359 27.7785 37.583 25.4916 40.6314C21.4907 45.9893 18.0679 47.9998 13.5619 47.9998C8.2166 47.9998 4.8365 45.6852 2.75566 42.197C1.0342 39.3547 0.194824 35.6253 0.194824 31.3757L8.00048 31.6647Z" fill="#0081FB"/>
<path d="M6.34741 9.37358C9.92605 3.85735 15.0904 -0.000244141 21.0138 -0.000244141C24.4442 -0.000244141 27.8544 1.00499 31.4155 3.92269C35.3108 7.10174 39.4574 12.3365 44.6419 20.9639L46.499 24.0601C50.9824 31.529 53.5357 35.369 55.0259 37.1834C56.9459 39.5105 58.293 40.1991 60.037 40.1991C64.4676 40.1991 65.5658 36.1279 65.5658 31.4687L72.4517 31.2525C72.4517 36.1229 71.4917 39.7015 69.8582 42.5288C68.2976 45.268 65.2115 47.9998 60.037 47.9998C56.8203 47.9998 53.9704 47.3011 50.819 44.3281C48.3964 42.0462 45.5642 37.9926 43.3853 34.3487L36.9041 23.5223C33.6521 18.089 30.6691 14.0379 28.9426 12.2134C27.0829 10.2305 24.698 7.84813 20.8881 7.84813C17.8046 7.84813 15.1859 10.0119 12.9945 13.3216L6.34741 9.37358Z" fill="url(#paint0_linear_830_57091)"/>
<path d="M20.8901 7.84813C17.8066 7.84813 15.1879 10.0119 12.9965 13.3216C9.89786 17.9985 8.00048 24.9648 8.00048 31.6647C8.00048 34.4291 8.60613 36.5426 9.39776 37.8243L2.7431 42.197C1.0342 39.3547 0.194824 35.6253 0.194824 31.3757C0.194824 23.6479 2.31587 15.5935 6.34938 9.37358C9.92802 3.85735 15.0924 -0.000244141 21.0158 -0.000244141L20.8901 7.84813Z" fill="url(#paint1_linear_830_57091)"/>
</g>
<defs>
<linearGradient id="paint0_linear_830_57091" x1="15.8595" y1="22.7558" x2="65.6186" y2="25.2689" gradientUnits="userSpaceOnUse">
<stop stop-color="#0064E1"/>
<stop offset="0.4" stop-color="#0064E1"/>
<stop offset="0.83" stop-color="#0073EE"/>
<stop offset="1" stop-color="#0082FB"/>
</linearGradient>
<linearGradient id="paint1_linear_830_57091" x1="10.604" y1="34.9317" x2="10.604" y2="16.5861" gradientUnits="userSpaceOnUse">
<stop stop-color="#0082FB"/>
<stop offset="1" stop-color="#0064E0"/>
</linearGradient>
<clipPath id="clip0_830_57091">
<rect width="72.2664" height="48" fill="white" transform="translate(0.194824 -0.000244141)"/>
</clipPath>
</defs>
</svg>
