<svg width="48" height="48" viewBox="0 0 48 48" fill="none" xmlns="http://www.w3.org/2000/svg">
<g clip-path="url(#clip0_830_57083)">
<path d="M44.4492 19.6694C45.5297 16.4278 45.1588 12.8797 43.4332 9.92839C40.8367 5.41264 35.6113 3.09027 30.515 4.17083C29.3904 2.91058 28.0109 1.90371 26.4678 1.21697C24.9247 0.530223 23.2532 0.179278 21.5642 0.187393C16.3551 0.187393 11.7264 3.54186 10.1137 8.49299C6.75919 9.18646 3.87234 11.283 2.17894 14.2505C-0.43369 18.7662 0.163029 24.4431 3.66262 28.3137C2.58215 31.5554 2.95303 35.1035 4.67869 38.0387C7.27519 42.5705 12.5005 44.8928 17.613 43.8123C19.8709 46.3604 23.1286 47.8281 26.5477 47.8119C31.7568 47.8119 36.3854 44.4574 37.9982 39.5062C41.3527 38.8128 44.2395 36.7162 45.9168 33.7488C48.5455 29.233 47.9489 23.5561 44.4492 19.6855V19.6694ZM40.7398 11.4927C41.772 13.299 42.1591 15.4117 41.8042 17.4599C41.7397 17.4115 41.6107 17.347 41.5301 17.2986L32.0471 11.8152C31.8085 11.6804 31.539 11.6096 31.2649 11.6096C30.9908 11.6096 30.7214 11.6804 30.4827 11.8152L19.3709 18.2341V13.5248L28.5474 8.21886C32.8212 5.75136 38.2723 7.21892 40.7398 11.4927ZM19.3709 21.2821L24.0479 18.5727L28.7248 21.2821V26.6849L24.0479 29.3943L19.3709 26.6849V21.2821ZM21.5481 3.29989C23.6447 3.29989 25.6606 4.02571 27.2734 5.36427C27.2089 5.39652 27.0799 5.47714 26.983 5.52552L17.5001 10.9928C17.0163 11.267 16.7259 11.7831 16.7259 12.3475V25.1851L12.6457 22.8305V12.2184C12.6457 7.28342 16.6292 3.29999 21.5642 3.28386L21.5481 3.29989ZM4.88831 15.8151C5.93662 14.0087 7.56553 12.6217 9.53306 11.896V23.1691C9.53306 23.7335 9.8234 24.2335 10.3072 24.5238L21.4029 30.9264L17.3065 33.2972L8.14612 28.0073C3.88847 25.5398 2.42081 20.0887 4.88831 15.815V15.8151ZM7.38815 36.5066C6.33984 34.7165 5.96887 32.5877 6.32372 30.5394C6.38822 30.5878 6.51722 30.6523 6.59784 30.7007L16.0808 36.1841C16.3195 36.3189 16.5889 36.3898 16.863 36.3898C17.1371 36.3898 17.4066 36.3189 17.6452 36.1841L28.7409 29.7653V34.4746L19.5644 39.7644C15.2906 42.2158 9.83953 40.7643 7.37203 36.5066H7.38815ZM26.5638 44.6994C24.4833 44.6994 22.4512 43.9737 20.8546 42.6351C20.9529 42.5841 21.0497 42.5303 21.1449 42.4738L30.6279 37.0066C31.1117 36.7325 31.4182 36.2163 31.402 35.6519V22.8304L35.4823 25.185V35.7808C35.4823 40.7158 31.4827 44.7155 26.5638 44.7155V44.6993V44.6994ZM43.2396 32.1844C42.1912 33.9906 40.5462 35.3776 38.5948 36.0872V24.8141C38.5948 24.2496 38.3045 23.7335 37.8207 23.4594L26.7089 17.0406L30.7892 14.686L39.9657 19.9758C44.2395 22.4433 45.691 27.8945 43.2235 32.1682L43.2397 32.1844H43.2396Z" fill="black"/>
</g>
<defs>
<clipPath id="clip0_830_57083">
<rect width="48" height="48" fill="white" transform="translate(0 -0.000244141)"/>
</clipPath>
</defs>
</svg>
