<svg width="50" height="50" viewBox="0 0 50 50" fill="none" xmlns="http://www.w3.org/2000/svg">
<path d="M43.8965 23.9476L43.0566 20.8128C42.9883 20.557 42.7559 20.3792 42.4912 20.3792H38.9268C39.0176 19.4701 39.0195 18.554 38.9297 17.6439H42.4912C42.7559 17.6439 42.9883 17.4662 43.0566 17.2103L43.8965 14.0755C44.9961 13.8597 45.8281 12.889 45.8281 11.7279C45.8281 10.4085 44.7549 9.33432 43.4346 9.33432C42.1143 9.33432 41.041 10.4076 41.041 11.7279C41.041 12.7923 41.7393 13.6956 42.7021 14.0062L42.041 16.474H38.7607C38.4297 14.6976 37.7461 12.973 36.707 11.4134H39.6357C39.959 11.4134 40.2217 11.1517 40.2217 10.8275C40.2217 10.5033 39.96 10.2415 39.6357 10.2415H35.833C35.6279 9.99545 35.4131 9.75424 35.1875 9.51889C34.9658 9.28744 34.7363 9.06674 34.5029 8.85483H39.5635C39.8867 8.85483 40.1494 8.59311 40.1494 8.26889C40.1494 7.94467 39.8877 7.68295 39.5635 7.68295H33.0176C32.4482 7.29526 31.8564 6.95541 31.2461 6.66244L32.0957 3.49741H34.6494C34.7012 4.50619 35.3926 5.4144 36.4199 5.69174C36.626 5.74643 36.832 5.7728 37.0361 5.7728C38.0918 5.7728 39.0635 5.06674 39.3516 3.99838C39.6914 2.72592 38.9326 1.41147 37.6582 1.06674C36.5381 0.766937 35.3848 1.32065 34.8906 2.32553H31.6465C31.3818 2.32553 31.1494 2.50326 31.0811 2.75912L30.1582 6.19662C26.9902 5.00326 23.4609 5.01889 20.2959 6.25815L19.3594 2.75912C19.291 2.50326 19.0586 2.32553 18.7939 2.32553H15.5479C15.0557 1.31967 13.9033 0.766937 12.7803 1.06674C11.5078 1.41049 10.749 2.72494 11.0889 3.99936C11.377 5.06576 12.3477 5.77182 13.4053 5.77182C13.6084 5.77182 13.8154 5.74545 14.0215 5.69076C15.0488 5.41342 15.7402 4.50522 15.79 3.49643H18.3447L19.2129 6.73764C18.6592 7.01205 18.1201 7.32748 17.6006 7.68198H10.4453C10.1221 7.68198 9.85938 7.94369 9.85938 8.26791C9.85938 8.59213 10.1211 8.85385 10.4453 8.85385H16.1143C16.0166 8.94272 15.9189 9.03256 15.8232 9.12533C15.4531 9.4808 15.1064 9.85385 14.7822 10.2415H10.9775C10.6543 10.2415 10.3916 10.5033 10.3916 10.8275C10.3916 11.1517 10.6533 11.4134 10.9775 11.4134H13.9043C12.8818 12.9427 12.1836 14.6576 11.8457 16.474H7.96387L7.30273 14.0062C8.26562 13.6956 8.96387 12.7923 8.96387 11.7279C8.96387 10.4085 7.89063 9.33432 6.57129 9.33432C5.25195 9.33432 4.17773 10.4076 4.17773 11.7279C4.17773 12.89 5.00977 13.8607 6.10937 14.0755L6.94922 17.2103C7.01758 17.4662 7.25 17.6439 7.51465 17.6439H11.6768C11.6416 18.0023 11.6191 18.3636 11.6123 18.7279C11.6006 19.2835 11.623 19.8343 11.6768 20.3792H7.51465C7.25 20.3792 7.01758 20.557 6.94922 20.8128L6.10937 23.9476C5.00977 24.1634 4.17773 25.1322 4.17773 26.2933C4.17773 27.6126 5.25098 28.6859 6.57129 28.6859C7.89063 28.6859 8.96387 27.6126 8.96387 26.2933C8.96387 25.2298 8.26562 24.3275 7.30273 24.0179L7.96387 21.5501H11.8438C12.1768 23.3333 12.8594 25.0238 13.8613 26.5384H10.9746C10.6514 26.5384 10.3887 26.8001 10.3887 27.1244C10.3887 27.4486 10.6504 27.7103 10.9746 27.7103H14.7266C14.9482 27.9788 15.1807 28.2396 15.4238 28.4935C15.7891 28.8744 16.1729 29.2298 16.5732 29.5619H8.45312C8.12988 29.5619 7.86719 29.8236 7.86719 30.1478C7.86719 30.472 8.12891 30.7337 8.45312 30.7337H18.2158C20.25 31.9681 22.583 32.6527 25.0264 32.7025C25.1221 32.7044 25.2178 32.7054 25.3135 32.7054C26.2432 32.7054 27.1602 32.6117 28.0518 32.431L28.9326 34.889L27.7422 35.3158C27.5957 35.3685 27.4766 35.4769 27.4102 35.6165C27.3438 35.7572 27.3359 35.9183 27.3887 36.0638L31.4414 47.3656C31.6641 47.9896 32.1182 48.4896 32.7207 48.7738C33.0596 48.9339 33.4209 49.014 33.7842 49.014C34.0654 49.014 34.3486 48.9652 34.6211 48.8685L36.6162 48.1517C37.2402 47.929 37.7402 47.4749 38.0244 46.8734C38.3086 46.2728 38.3418 45.598 38.1191 44.9749L34.0693 33.6693C34.0166 33.5228 33.9082 33.4037 33.7686 33.3372C33.6279 33.2708 33.4668 33.263 33.3213 33.3158L32.0791 33.7611L31.2217 31.3675C31.6221 31.1751 32.0137 30.9632 32.3945 30.7318H42.1582C42.4814 30.7318 42.7441 30.4701 42.7441 30.1458C42.7441 29.8216 42.4824 29.5599 42.1582 29.5599H34.0371C34.2949 29.346 34.5459 29.1214 34.79 28.8871C35.1816 28.5111 35.5449 28.1165 35.8818 27.7074H39.6357C39.959 27.7074 40.2217 27.4456 40.2217 27.1214C40.2217 26.7972 39.96 26.5355 39.6357 26.5355H36.7461C37.7578 24.9994 38.4287 23.3001 38.7578 21.5472H42.04L42.7012 24.015C41.7383 24.3246 41.04 25.2279 41.04 26.2904C41.04 27.6097 42.1133 28.683 43.4336 28.683C44.7539 28.683 45.8271 27.6097 45.8271 26.2904C45.8281 25.1322 44.9961 24.1634 43.8965 23.9476ZM42.2129 11.7269C42.2129 11.0531 42.7607 10.5042 43.4355 10.5042C44.1104 10.5042 44.6582 11.0521 44.6582 11.7269C44.6582 12.4007 44.1104 12.9486 43.4355 12.9486C42.7607 12.9486 42.2129 12.4007 42.2129 11.7269ZM35.8564 3.06381C36.0332 2.41342 36.7051 2.02573 37.3525 2.19858C38.0039 2.37436 38.3926 3.04623 38.2188 3.69565C38.043 4.34701 37.3711 4.73569 36.7217 4.56186C36.0713 4.38608 35.6826 3.7142 35.8564 3.06381ZM13.7168 4.56186C13.0664 4.73471 12.3936 4.34701 12.2188 3.6976C12.0449 3.04721 12.4336 2.37534 13.083 2.19955C13.1885 2.17123 13.2939 2.15756 13.3984 2.15756C13.9375 2.15756 14.4326 2.51791 14.5781 3.06381V3.06479C14.7539 3.7142 14.3662 4.38608 13.7168 4.56186ZM6.57129 12.9486C5.89746 12.9486 5.34863 12.4007 5.34863 11.7269C5.34863 11.0531 5.89648 10.5042 6.57129 10.5042C7.24512 10.5042 7.79297 11.0521 7.79297 11.7269C7.79297 12.4007 7.24512 12.9486 6.57129 12.9486ZM7.79297 26.2933C7.79297 26.9671 7.24512 27.515 6.57129 27.515C5.89746 27.515 5.34863 26.9671 5.34863 26.2933C5.34863 25.6214 5.89648 25.0746 6.56934 25.0736H6.57129H6.57227C7.24609 25.0746 7.79297 25.6214 7.79297 26.2933ZM33.166 34.6156L37.0186 45.3695C37.1357 45.6976 37.1182 46.054 36.9678 46.3724C36.8174 46.6908 36.5537 46.931 36.2236 47.0482L34.2285 47.765C33.8984 47.8831 33.541 47.8646 33.2227 47.7142C32.9043 47.5638 32.6641 47.3001 32.5459 46.9701L28.6904 36.2191L33.166 34.6156ZM29.1953 32.1468C29.5156 32.0521 29.832 31.9466 30.1436 31.8285L30.9775 34.1556L30.0361 34.4925L29.1953 32.1468ZM33.9805 28.0443C33.3545 28.6449 32.6777 29.1732 31.96 29.6244C31.9297 29.64 31.9004 29.6576 31.873 29.6781C31.3701 29.9886 30.8477 30.2621 30.3096 30.4974C30.3037 30.4994 30.2969 30.5013 30.291 30.5033C30.2598 30.514 30.2305 30.5287 30.2031 30.5443C29.6035 30.7992 28.9834 31.0062 28.3486 31.1644C28.3115 31.1693 28.2754 31.1781 28.2393 31.1908C27.208 31.4369 26.1396 31.5531 25.0508 31.5306C22.7783 31.4847 20.6104 30.8382 18.7275 29.6722C18.7031 29.6546 18.6787 29.639 18.6523 29.6253C17.792 29.0843 16.9922 28.4339 16.2695 27.681C16.0068 27.4066 15.7578 27.1224 15.5234 26.8304C15.4951 26.7806 15.459 26.7367 15.418 26.6976C13.6533 24.4369 12.7246 21.6605 12.7842 18.7523C12.8525 15.4056 14.2197 12.2874 16.6328 9.97104C19.0566 7.64389 22.1826 6.48764 25.3047 6.48764C28.5977 6.48764 31.8877 7.77475 34.3438 10.3314C39.125 15.3128 38.9619 23.2601 33.9805 28.0443ZM43.4346 27.515C42.7607 27.515 42.2119 26.9671 42.2119 26.2933C42.2119 25.6214 42.7588 25.0746 43.4326 25.0736H43.4336H43.4355C44.1084 25.0746 44.6562 25.6214 44.6562 26.2933C44.6572 26.9671 44.1094 27.515 43.4346 27.515ZM32.0811 13.2806C31.6064 12.9085 31.0146 12.7455 30.416 12.8187C29.8193 12.8919 29.2881 13.1927 28.9199 13.6664L23.9346 20.0287L21.3848 17.8558C20.9277 17.4652 20.3457 17.2757 19.7451 17.3216C19.1436 17.3685 18.5977 17.6458 18.208 18.1029C17.8154 18.5599 17.625 19.1429 17.6719 19.7445C17.7187 20.3451 17.9971 20.8919 18.4551 21.2826L22.2363 24.5072C22.2412 24.5111 22.2461 24.515 22.251 24.5189L22.3066 24.5628C22.3145 24.5687 22.3213 24.5746 22.3291 24.5794L22.3408 24.5872C22.8682 24.9955 23.502 25.2113 24.1543 25.2113C24.2637 25.2113 24.374 25.2054 24.4834 25.1927C25.2549 25.1068 25.9521 24.7298 26.4473 24.1312C26.4619 24.1126 26.4766 24.0941 26.4893 24.0736C26.4922 24.0697 26.4951 24.0658 26.498 24.0619L32.4707 16.4398C32.8418 15.9662 33.0049 15.3753 32.9316 14.7777C32.8564 14.182 32.5547 13.6497 32.0811 13.2806ZM31.5469 15.7201L25.5732 23.3441C25.5684 23.3509 25.5625 23.3578 25.5576 23.3646L25.5566 23.3656C25.543 23.3822 25.5293 23.3997 25.5176 23.4183C25.2187 23.763 24.8066 23.9808 24.3525 24.0316C23.8887 24.0833 23.4248 23.9515 23.0498 23.6585C23.0439 23.6546 23.0391 23.6497 23.0332 23.6458L23.0254 23.64L19.2139 20.3919C18.9941 20.2044 18.8604 19.9417 18.8379 19.6537C18.8154 19.3646 18.9072 19.0853 19.0957 18.8646C19.2832 18.6449 19.5449 18.5121 19.834 18.4896C20.124 18.4681 20.4033 18.5589 20.624 18.7474L23.6387 21.3167C23.7598 21.4203 23.918 21.4701 24.0771 21.4535C24.2363 21.4378 24.3809 21.3578 24.4795 21.2318L29.8418 14.389L29.8428 14.388C30.0186 14.1615 30.2734 14.0179 30.5596 13.9828C30.8467 13.9476 31.1309 14.0257 31.3604 14.2054C31.5879 14.3822 31.7324 14.638 31.7676 14.9242C31.8027 15.2103 31.7246 15.4935 31.5469 15.7201Z" fill="url(#paint0_linear_3878_5910)"/>
<defs>
<linearGradient id="paint0_linear_3878_5910" x1="4.67357" y1="39.2582" x2="45.2476" y2="39.1853" gradientUnits="userSpaceOnUse">
<stop stop-color="#434AE4"/>
<stop offset="0.5" stop-color="#5441B7"/>
<stop offset="1" stop-color="#E86343"/>
</linearGradient>
</defs>
</svg>
