<svg width="80" height="80" viewBox="0 0 80 80" fill="none" xmlns="http://www.w3.org/2000/svg">
<path d="M40 76C59.8823 76 76 59.8823 76 40C76 20.1177 59.8823 4 40 4C20.1177 4 4 20.1177 4 40C4 59.8823 20.1177 76 40 76Z" stroke="white" stroke-opacity="0.1" stroke-width="4"/>
<g clip-path="url(#clip0_3878_5830)">
<path d="M17.5 63.25H47.5C47.6989 63.25 47.8897 63.171 48.0303 63.0303C48.171 62.8897 48.25 62.6989 48.25 62.5V58C48.25 57.8011 48.171 57.6103 48.0303 57.4697C47.8897 57.329 47.6989 57.25 47.5 57.25H43.75V41.5C43.75 41.3011 43.671 41.1103 43.5303 40.9697C43.3897 40.829 43.1989 40.75 43 40.75H37.75V34.75C37.75 34.5511 37.671 34.3603 37.5303 34.2197C37.3897 34.079 37.1989 34 37 34H31C30.8011 34 30.6103 34.079 30.4697 34.2197C30.329 34.3603 30.25 34.5511 30.25 34.75V40.75H25C24.8011 40.75 24.6103 40.829 24.4697 40.9697C24.329 41.1103 24.25 41.3011 24.25 41.5V46H19C18.8011 46 18.6103 46.079 18.4697 46.2197C18.329 46.3603 18.25 46.5511 18.25 46.75V57.25H17.5C17.3011 57.25 17.1103 57.329 16.9697 57.4697C16.829 57.6103 16.75 57.8011 16.75 58V62.5C16.75 62.6989 16.829 62.8897 16.9697 63.0303C17.1103 63.171 17.3011 63.25 17.5 63.25ZM42.25 42.25V57.25H37.75V42.25H42.25ZM31.75 35.5H36.25V57.25H31.75V35.5ZM25.75 42.25H30.25V57.25H25.75V42.25ZM19.75 47.5H24.25V57.25H19.75V47.5ZM18.25 58.75H46.75V61.75H18.25V58.75Z" fill="white"/>
<path d="M21.25 39.25C21.7801 39.251 22.2935 39.0644 22.6992 38.7232C23.1049 38.3819 23.3767 37.9081 23.4665 37.3857C23.5564 36.8632 23.4584 36.3258 23.19 35.8687C22.9215 35.4115 22.5 35.0642 22 34.888V33.25C22 32.8522 22.158 32.4707 22.4393 32.1894C22.7206 31.9081 23.1022 31.75 23.5 31.75H25.138C25.2907 32.1885 25.5761 32.5685 25.9545 32.8374C26.333 33.1063 26.7857 33.2508 27.25 33.2508C27.7142 33.2508 28.167 33.1063 28.5454 32.8374C28.9239 32.5685 29.2092 32.1885 29.362 31.75H31.75C32.5456 31.75 33.3087 31.434 33.8713 30.8714C34.4339 30.3088 34.75 29.5457 34.75 28.75V25.612C35.2504 25.4351 35.6722 25.087 35.9407 24.6292C36.2093 24.1714 36.3073 23.6334 36.2176 23.1102C36.1278 22.5871 35.856 22.1126 35.4502 21.7705C35.0444 21.4284 34.5308 21.2407 34 21.2407C33.4692 21.2407 32.9555 21.4284 32.5497 21.7705C32.1439 22.1126 31.8721 22.5871 31.7824 23.1102C31.6926 23.6334 31.7907 24.1714 32.0593 24.6292C32.3278 25.087 32.7496 25.4351 33.25 25.612V28.75C33.25 29.1479 33.0919 29.5294 32.8106 29.8107C32.5293 30.092 32.1478 30.25 31.75 30.25H29.362C29.2092 29.8116 28.9239 29.4316 28.5454 29.1627C28.167 28.8938 27.7142 28.7493 27.25 28.7493C26.7857 28.7493 26.333 28.8938 25.9545 29.1627C25.5761 29.4316 25.2907 29.8116 25.138 30.25H23.5C22.7043 30.25 21.9413 30.5661 21.3787 31.1287C20.8161 31.6913 20.5 32.4544 20.5 33.25V34.888C20 35.0642 19.5784 35.4115 19.31 35.8687C19.0416 36.3258 18.9436 36.8632 19.0334 37.3857C19.1233 37.9081 19.3951 38.3819 19.8008 38.7232C20.2065 39.0644 20.7199 39.251 21.25 39.25ZM34 22.75C34.1483 22.75 34.2933 22.794 34.4167 22.8764C34.54 22.9589 34.6361 23.076 34.6929 23.213C34.7497 23.3501 34.7645 23.5009 34.7356 23.6464C34.7066 23.7918 34.6352 23.9255 34.5303 24.0304C34.4254 24.1353 34.2918 24.2067 34.1463 24.2356C34.0008 24.2646 33.85 24.2497 33.713 24.193C33.5759 24.1362 33.4588 24.0401 33.3764 23.9167C33.294 23.7934 33.25 23.6484 33.25 23.5C33.25 23.3011 33.329 23.1104 33.4697 22.9697C33.6103 22.8291 33.8011 22.75 34 22.75ZM27.25 30.25C27.3983 30.25 27.5433 30.294 27.6667 30.3764C27.79 30.4589 27.8861 30.576 27.9429 30.713C27.9997 30.8501 28.0145 31.0009 27.9856 31.1464C27.9566 31.2918 27.8852 31.4255 27.7803 31.5304C27.6754 31.6353 27.5418 31.7067 27.3963 31.7356C27.2508 31.7646 27.1 31.7497 26.963 31.693C26.8259 31.6362 26.7088 31.5401 26.6264 31.4167C26.544 31.2934 26.5 31.1484 26.5 31C26.5 30.8011 26.579 30.6104 26.7197 30.4697C26.8603 30.3291 27.0511 30.25 27.25 30.25ZM21.25 36.25C21.3983 36.25 21.5433 36.294 21.6667 36.3764C21.79 36.4589 21.8861 36.576 21.9429 36.713C21.9997 36.8501 22.0145 37.0009 21.9856 37.1464C21.9566 37.2918 21.8852 37.4255 21.7803 37.5304C21.6754 37.6353 21.5418 37.7067 21.3963 37.7356C21.2508 37.7646 21.1 37.7497 20.963 37.693C20.8259 37.6362 20.7088 37.5401 20.6264 37.4167C20.544 37.2934 20.5 37.1484 20.5 37C20.5 36.8011 20.579 36.6104 20.7197 36.4697C20.8603 36.3291 21.0511 36.25 21.25 36.25Z" fill="white"/>
<path d="M50.4996 16.75C50.3007 16.75 50.11 16.829 49.9693 16.9697C49.8287 17.1103 49.7496 17.3011 49.7496 17.5V18.2883C46.9007 18.4718 44.2285 19.733 42.2758 21.8155C40.3231 23.8981 39.2363 26.6459 39.2363 29.5007C39.2363 32.3556 40.3231 35.1034 42.2758 37.186C44.2285 39.2685 46.9007 40.5297 49.7496 40.7132V46C49.7496 46.1989 49.8287 46.3897 49.9693 46.5303C50.11 46.671 50.3007 46.75 50.4996 46.75H62.4996V45.25H51.2496V40.7118C53.9635 40.5274 56.5188 39.366 58.4422 37.4426C60.3656 35.5191 61.527 32.9639 61.7114 30.25H62.4996C62.6985 30.25 62.8893 30.171 63.03 30.0303C63.1706 29.8897 63.2496 29.6989 63.2496 29.5C63.2459 26.1196 61.9014 22.8788 59.5111 20.4886C57.1208 18.0983 53.88 16.7538 50.4996 16.75ZM51.2496 39.2118V35.5H49.7496V39.2118C47.3005 39.0265 45.0119 37.9228 43.3419 36.1218C41.672 34.3208 40.7441 31.9553 40.7441 29.4993C40.7441 27.0432 41.672 24.6777 43.3419 22.8767C45.0119 21.0757 47.3005 19.972 49.7496 19.7867V29.5C49.7496 29.6989 49.8287 29.8897 49.9693 30.0303C50.11 30.171 50.3007 30.25 50.4996 30.25H60.2114C60.0306 32.5666 59.0283 34.7425 57.3852 36.3856C55.7422 38.0287 53.5663 39.0309 51.2496 39.2118ZM51.2496 28.75V18.2747C53.9668 18.4599 56.525 19.623 58.4508 21.5488C60.3767 23.4746 61.5397 26.0328 61.7249 28.75H51.2496Z" fill="white"/>
<path d="M62.5 42.25H52.75V43.75H62.5V42.25Z" fill="white"/>
</g>
<defs>
<clipPath id="clip0_3878_5830">
<rect width="48" height="48" fill="white" transform="translate(16 16)"/>
</clipPath>
</defs>
</svg>
