<svg width="50" height="50" viewBox="0 0 50 50" fill="none" xmlns="http://www.w3.org/2000/svg">
<path d="M32.7148 31.9299C32.6875 31.9338 32.6562 31.9417 32.6289 31.9495C32.1758 32.051 31.6953 32.1448 31.1523 32.2346L31.3516 33.3909C31.9063 33.2971 32.4063 33.1995 32.875 33.094L32.9414 33.0784C34.1602 32.8049 35.2461 32.4729 36.1602 32.094L35.7148 31.012C34.8672 31.3596 33.8555 31.6682 32.7148 31.9299Z" fill="url(#paint0_linear_3878_5199)"/>
<path d="M32.7148 39.7424C32.6875 39.7463 32.6562 39.7542 32.6289 39.762C32.1758 39.8635 31.6953 39.9573 31.1523 40.0471L31.3516 41.2034C31.9063 41.1096 32.4063 41.012 32.875 40.9065L32.9414 40.8909C34.1602 40.6174 35.2461 40.2854 36.1602 39.9065L35.7148 38.8245C34.8672 39.1721 33.8555 39.4807 32.7148 39.7424Z" fill="url(#paint1_linear_3878_5199)"/>
<path d="M42.1875 7.61719C40.1406 7.61719 38.4766 9.28125 38.4766 11.3281C38.4766 11.9531 38.6328 12.5391 38.9062 13.0547L33.7891 16.8945V20.7227C32.3047 20.3359 30.5898 20.0469 28.7109 19.8828V15.7188L30.1172 11.5039C30.2344 11.5156 30.3516 11.5234 30.4688 11.5234C32.5156 11.5234 34.1797 9.85938 34.1797 7.8125C34.1797 5.76563 32.5156 4.10156 30.4688 4.10156C28.4219 4.10156 26.7578 5.76563 26.7578 7.8125C26.7578 9.32812 27.6719 10.6328 28.9805 11.2109L27.5391 15.5312V19.8008C26.7188 19.7539 25.8711 19.7266 25 19.7266C24.1289 19.7266 23.2812 19.7539 22.4609 19.8008V15.5312L21.0195 11.2109C22.3242 10.6367 23.2422 9.33203 23.2422 7.8125C23.2422 5.76563 21.5781 4.10156 19.5312 4.10156C17.4844 4.10156 15.8203 5.76563 15.8203 7.8125C15.8203 9.85938 17.4844 11.5234 19.5312 11.5234C19.6523 11.5234 19.7695 11.5156 19.8828 11.5039L21.2891 15.7188V19.8828C19.4102 20.0469 17.6953 20.3359 16.2109 20.7227V16.8945L11.0938 13.0547C11.3672 12.5391 11.5234 11.9492 11.5234 11.3281C11.5234 9.28125 9.85938 7.61719 7.8125 7.61719C5.76563 7.61719 4.10156 9.28125 4.10156 11.3281C4.10156 13.375 5.76563 15.0391 7.8125 15.0391C8.8125 15.0391 9.72266 14.6406 10.3906 13.9922L15.0391 17.4805V21.0664C12.125 22.0156 10.3516 23.4062 10.3516 25V40.625C10.3516 43.6328 16.6484 45.8984 25 45.8984C33.3516 45.8984 39.6484 43.6328 39.6484 40.625V25C39.6484 23.4062 37.875 22.0156 34.9609 21.0664V17.4805L39.6094 13.9922C40.2773 14.6367 41.1836 15.0391 42.1875 15.0391C44.2344 15.0391 45.8984 13.375 45.8984 11.3281C45.8984 9.28125 44.2344 7.61719 42.1875 7.61719ZM27.9297 7.8125C27.9297 6.41406 29.0703 5.27344 30.4688 5.27344C31.8672 5.27344 33.0078 6.41406 33.0078 7.8125C33.0078 9.21094 31.8672 10.3516 30.4688 10.3516C29.0703 10.3516 27.9297 9.21094 27.9297 7.8125ZM16.9922 7.8125C16.9922 6.41406 18.1328 5.27344 19.5312 5.27344C20.9297 5.27344 22.0703 6.41406 22.0703 7.8125C22.0703 9.21094 20.9297 10.3516 19.5312 10.3516C18.1328 10.3516 16.9922 9.21094 16.9922 7.8125ZM5.27344 11.3281C5.27344 9.92969 6.41406 8.78906 7.8125 8.78906C9.21094 8.78906 10.3516 9.92969 10.3516 11.3281C10.3516 12.7266 9.21094 13.8672 7.8125 13.8672C6.41406 13.8672 5.27344 12.7266 5.27344 11.3281ZM25 44.7266C17.0586 44.7266 11.5234 42.5664 11.5234 40.625V34.9531C12.6484 35.9141 14.5469 36.7227 17.0977 37.2891C19.4336 37.8086 22.1641 38.0859 25 38.0859C27.8359 38.0859 30.5664 37.8125 32.8984 37.2891C35.4531 36.7227 37.3516 35.9141 38.4766 34.9531V40.625C38.4766 42.5664 32.9414 44.7266 25 44.7266ZM32.6445 36.1484C30.3906 36.6523 27.7461 36.9141 25 36.9141C22.2539 36.9141 19.6094 36.6484 17.3516 36.1484C13.8086 35.3633 11.5234 34.0547 11.5234 32.8125V27.1406C13.7148 29.0195 18.7891 30.2734 25 30.2734C31.2109 30.2734 36.2852 29.0195 38.4766 27.1406V32.8125C38.4766 34.0508 36.1875 35.3633 32.6445 36.1484ZM38.4766 25C38.4766 26.9414 32.9414 29.1016 25 29.1016C17.0586 29.1016 11.5234 26.9414 11.5234 25C11.5234 23.0586 17.0586 20.8984 25 20.8984C32.9414 20.8984 38.4766 23.0586 38.4766 25ZM42.1875 13.8672C41.5703 13.8672 41.0039 13.6445 40.5625 13.2773L40.5703 13.2695L40.0664 12.7266C39.8008 12.3242 39.6445 11.8438 39.6445 11.3281C39.6445 9.92969 40.7852 8.78906 42.1836 8.78906C43.582 8.78906 44.7227 9.92969 44.7227 11.3281C44.7227 12.7266 43.582 13.8672 42.1836 13.8672H42.1875Z" fill="url(#paint2_linear_3878_5199)"/>
<defs>
<linearGradient id="paint0_linear_3878_5199" x1="31.212" y1="32.9077" x2="36.0903" y2="32.8864" gradientUnits="userSpaceOnUse">
<stop stop-color="#434AE4"/>
<stop offset="0.5" stop-color="#5441B7"/>
<stop offset="1" stop-color="#E86343"/>
</linearGradient>
<linearGradient id="paint1_linear_3878_5199" x1="31.212" y1="40.7202" x2="36.0903" y2="40.6989" gradientUnits="userSpaceOnUse">
<stop stop-color="#434AE4"/>
<stop offset="0.5" stop-color="#5441B7"/>
<stop offset="1" stop-color="#E86343"/>
</linearGradient>
<linearGradient id="paint2_linear_3878_5199" x1="4.59914" y1="37.4085" x2="45.3158" y2="37.3241" gradientUnits="userSpaceOnUse">
<stop stop-color="#434AE4"/>
<stop offset="0.5" stop-color="#5441B7"/>
<stop offset="1" stop-color="#E86343"/>
</linearGradient>
</defs>
</svg>
