<svg width="50" height="51" viewBox="0 0 50 51" fill="none" xmlns="http://www.w3.org/2000/svg">
<path d="M46.3088 11.5547C47.5686 8.00981 44.6194 4.11333 40.8694 4.38677C39.0627 -0.427686 31.9534 0.793017 31.885 5.9688V28.4981C31.885 30.8516 33.6428 32.795 35.9182 33.0977V37.4239H14.2776V33.0684C16.4553 32.6875 18.1155 30.793 18.1155 28.4981V5.9688C18.0471 0.793017 10.9377 -0.437452 9.12134 4.377C5.3811 4.11333 2.42212 8.00981 3.69165 11.5547C-1.10327 13.7227 -1.0935 20.754 3.69165 22.9219C2.44165 26.4571 5.34204 30.3731 9.1311 30.0899C9.69751 31.6426 11.0647 32.7754 12.6858 33.0684V37.4239H5.86939C4.8147 37.4239 3.95532 38.2833 3.95532 39.3379V44.6407C1.22095 45.5489 1.83618 49.6114 4.7561 49.6407C7.66626 49.6114 8.29126 45.5391 5.55689 44.6407V39.3477C5.55689 39.1719 5.70337 39.0254 5.87915 39.0254H24.219V44.6407C21.4846 45.5489 22.0999 49.6114 25.0198 49.6407C27.9299 49.6114 28.5549 45.5391 25.8206 44.6407V39.0254H44.1604C44.3362 39.0254 44.4827 39.1719 44.4827 39.3477V44.6407C41.7483 45.5489 42.3635 49.6114 45.2835 49.6407C48.1936 49.6114 48.8186 45.5391 46.0842 44.6407V39.3477C46.0842 38.293 45.2249 37.4336 44.1702 37.4336H37.5393V33.0196C39.0823 32.6778 40.3616 31.584 40.9084 30.0899C44.6975 30.3731 47.5979 26.4571 46.3479 22.9219C51.1038 20.754 51.1038 13.7227 46.3088 11.5547ZM4.74634 48.0489C3.46704 48.0293 3.46704 46.1153 4.74634 46.0958C6.0354 46.1153 6.0354 48.0196 4.74634 48.0489ZM10.4983 29.0743C10.3909 28.7032 10.4299 27.3262 11.4553 27.0137C12.4221 26.6231 11.8752 25.168 10.8889 25.5293C9.63892 25.9493 8.86743 27.3165 8.8772 28.5079C6.01587 28.6153 4.06275 25.334 5.44946 22.8536C5.6936 22.4336 5.44946 21.8477 4.98071 21.711C0.595948 20.4122 0.595948 14.0743 4.98071 12.7657C5.29321 12.668 5.90845 12.5411 6.6311 12.7559C7.36353 12.9708 7.82251 13.42 8.03735 13.6739C8.72095 14.4649 9.91235 13.459 9.25806 12.6485C8.35962 11.5059 6.57251 10.8516 5.22485 11.0958C3.76978 6.89653 9.56079 3.89849 12.012 7.74614C12.2366 8.127 12.7249 8.25395 13.1057 8.02935C14.4924 7.03325 11.6995 4.98247 10.7327 4.7188C12.0608 1.76958 16.5139 2.71685 16.5237 5.9688V12.4825C15.4788 11.7305 13.7014 10.9786 13.4475 12.2579C13.3889 12.6973 13.7014 13.0977 14.1409 13.1465C14.4631 13.1856 15.0784 13.3223 15.6448 13.8106C16.1721 14.2598 16.4163 14.7969 16.5237 15.129V28.4981C16.4553 32.17 11.26 32.668 10.4983 29.0743ZM25.0002 48.0489C23.7209 48.0293 23.7209 46.1153 25.0002 46.0958C26.2893 46.1153 26.2795 48.0196 25.0002 48.0489ZM45.2542 46.086C46.5334 46.1055 46.5334 48.0196 45.2542 48.0391C43.9651 48.0196 43.9651 46.1153 45.2542 46.086ZM45.0198 21.711C44.551 21.8379 44.3069 22.4239 44.551 22.8438C45.9377 25.3145 43.9846 28.6055 41.1233 28.4981C41.1331 27.3067 40.3616 25.9395 39.1116 25.5196C38.1252 25.1583 37.5686 26.6231 38.5452 27.004C38.7502 27.0821 38.9358 27.1993 39.0823 27.3458C39.678 27.9512 39.5217 28.9473 39.5022 29.0645C38.7405 32.6583 33.5452 32.1602 33.4768 28.4883V15.1387C33.5842 14.8067 33.8284 14.2696 34.3557 13.8204C34.9221 13.3321 35.5471 13.1954 35.8596 13.1563C36.2991 13.0977 36.6018 12.7071 36.553 12.2676C36.2991 10.9883 34.5217 11.7403 33.4768 12.4922V5.9688C33.4963 2.70708 37.9495 1.76958 39.2776 4.7188C38.3108 4.98247 35.5178 7.03325 36.9045 8.02935C37.2756 8.25395 37.7737 8.127 37.9983 7.74614C40.4495 3.88872 46.2405 6.89653 44.7854 11.0958C43.4377 10.8614 41.6506 11.5059 40.7522 12.6485C40.0881 13.459 41.2795 14.4649 41.9729 13.6739C42.1877 13.42 42.6467 12.9708 43.3792 12.7559C44.1018 12.5508 44.717 12.668 45.0295 12.7657C49.4045 14.0743 49.4045 20.4122 45.0198 21.711ZM24.2092 21.8672L19.8245 24.9727C19.385 25.2657 19.3752 25.9786 19.8245 26.2715L24.2092 29.377C24.7073 29.7579 25.4885 29.3477 25.469 28.7227V27.9122H29.7268C30.1663 27.9122 30.5276 27.5508 30.5276 27.1114V24.1329C30.5276 23.6934 30.1663 23.3321 29.7268 23.3321H25.469V22.5215C25.4788 21.8868 24.7073 21.4864 24.2092 21.8672ZM28.926 24.9239V26.3106H24.6682C24.1995 26.3106 23.8381 26.711 23.8674 27.1797L21.6604 25.6172L23.8674 24.0547C23.8381 24.5137 24.1995 24.9239 24.6682 24.9239H28.926ZM20.2834 11.1543H24.5413C24.5608 11.6426 24.4045 12.4336 24.9709 12.6778C25.2346 12.8145 25.5569 12.795 25.801 12.6192L30.176 9.51372C30.6155 9.22075 30.6252 8.50786 30.176 8.21489L25.7913 5.10942C25.2932 4.72856 24.512 5.12895 24.5315 5.76372V6.57427H20.2737C19.8342 6.57427 19.4729 6.9356 19.4729 7.37505V10.3536C19.4827 10.793 19.844 11.1543 20.2834 11.1543ZM21.0745 8.16606H25.3323C25.801 8.16606 26.1624 7.76567 26.1331 7.29692L28.3401 8.85942L26.1331 10.4219C26.1624 9.96294 25.801 9.55278 25.3323 9.55278H21.0745V8.16606ZM8.55493 18.0586C8.23267 18.0196 7.5979 18.0098 6.93384 18.3418C6.25025 18.6836 5.86939 19.211 5.71314 19.4942C5.48853 19.875 5.00025 20.002 4.62915 19.7872C3.51587 19.0352 5.01978 17.5606 6.23071 16.9161C7.05103 16.5157 9.48267 15.8711 9.4436 17.3653C9.38501 17.795 8.98462 18.1075 8.55493 18.0586ZM44.9905 19.8848C44.717 19.8848 44.4436 19.7383 44.2971 19.4844C44.1311 19.2012 43.76 18.6739 43.0764 18.3321C42.4026 18 41.7678 18.0196 41.4553 18.0489C41.0256 18.1075 40.6252 17.7852 40.5667 17.3555C40.5276 15.8516 42.969 16.5059 43.7795 16.9063C45.1272 17.5606 46.8069 19.5235 44.9905 19.8848ZM13.9846 22.9415C14.4924 23.8594 13.1448 24.6309 12.5979 23.7325C12.4417 23.4493 12.0706 22.9317 11.4065 22.5899C10.7327 22.2383 10.0784 22.2481 9.7561 22.2872C9.32642 22.336 8.92603 22.0235 8.8772 21.584C8.82837 21.1446 9.14087 20.754 9.58032 20.7051C11.2405 20.4024 13.3889 21.6524 13.9846 22.9415ZM41.1233 21.5938C41.0745 22.0333 40.6741 22.3458 40.2444 22.2969C39.9221 22.2579 39.2678 22.2481 38.594 22.5997C37.9299 22.9415 37.5588 23.459 37.4026 23.7422C36.8655 24.6407 35.5178 23.8692 36.0159 22.9512C36.3186 22.4239 36.885 21.6915 37.8616 21.1836C38.6819 20.7637 41.1526 20.0801 41.1233 21.5938Z" fill="url(#paint0_linear_3878_4597)"/>
<defs>
<linearGradient id="paint0_linear_3878_4597" x1="0.692107" y1="39.8322" x2="49.2156" y2="39.7285" gradientUnits="userSpaceOnUse">
<stop stop-color="#434AE4"/>
<stop offset="0.5" stop-color="#5441B7"/>
<stop offset="1" stop-color="#E86343"/>
</linearGradient>
</defs>
</svg>
