<svg width="52" height="52" viewBox="0 0 52 52" fill="none" xmlns="http://www.w3.org/2000/svg">
<path d="M27.0829 7.61605C27.0829 7.01805 26.5987 6.53271 25.9996 6.53271C20.0261 6.53271 15.1663 11.3925 15.1663 17.366C15.1663 17.964 15.6505 18.4494 16.2496 18.4494C16.8487 18.4494 17.3329 17.964 17.3329 17.366C17.3329 12.5875 21.221 8.69938 25.9996 8.69938C26.5987 8.69938 27.0829 8.21405 27.0829 7.61605Z" fill="#D84426"/>
<path d="M24.0994 49.6061H25.9996H27.8998C29.6894 49.6061 31.1487 48.149 31.1498 46.3561V45.1655C32.2678 44.6509 33.051 43.5275 33.051 42.2178V38.1878C33.2417 37.7739 33.3554 37.3189 33.3554 36.8336C33.3554 35.7329 33.6003 34.6669 34.0824 33.6627C34.5601 32.6671 35.2589 31.7647 36.1017 31.0529C40.1599 27.6242 42.2864 22.3982 41.7892 17.0682C41.0309 9.07861 34.4084 2.78011 26.3354 2.41611L25.9996 2.40527L25.6161 2.41719C17.5908 2.78011 10.9684 9.07861 10.2089 17.0704C9.71277 22.3971 11.8394 27.6242 15.8975 31.0519C16.7404 31.7647 17.4391 32.6671 17.9169 33.6627C18.3989 34.6669 18.6438 35.7329 18.6438 36.8336C18.6438 37.3179 18.7575 37.7739 18.9482 38.1878V42.2189C18.9482 43.5286 19.7304 44.6531 20.8494 45.1666V46.3583C20.8505 48.149 22.3098 49.6061 24.0994 49.6061ZM28.9831 46.3561C28.9831 46.9541 28.4967 47.4394 27.8998 47.4394H25.9996H24.0994C23.5025 47.4394 23.0161 46.953 23.0161 46.3561V45.4678H25.9996H28.9831V46.3561ZM30.8844 42.2189C30.8844 42.8158 30.399 43.3022 29.801 43.3022H25.9996H22.1982C21.6002 43.3022 21.1149 42.8158 21.1149 42.2189V39.9785C21.3662 40.0414 21.624 40.0836 21.8938 40.0836H25.9996H30.1054C30.3752 40.0836 30.633 40.0414 30.8844 39.9785V42.2189ZM20.8104 36.8336C20.8104 35.4058 20.4941 34.0224 19.8701 32.7245C19.2602 31.4559 18.3697 30.3054 17.2961 29.3976C13.7785 26.4271 11.9358 21.8944 12.3659 17.274C13.0234 10.3526 18.7608 4.89586 25.6638 4.58277L25.9996 4.57194L26.2867 4.58169C33.2384 4.89586 38.9758 10.3526 39.6323 17.2719C40.0634 21.8944 38.2207 26.4271 34.7031 29.3976C33.6295 30.3054 32.739 31.4559 32.1291 32.7245C31.5051 34.0224 31.1888 35.4058 31.1888 36.8336C31.1888 37.4305 30.7034 37.9169 30.1054 37.9169H25.9996H21.8938C21.2958 37.9169 20.8104 37.4305 20.8104 36.8336Z" fill="#D84426"/>
</svg>
