<svg width="50" height="50" viewBox="0 0 50 50" fill="none" xmlns="http://www.w3.org/2000/svg">
<path d="M0.90625 45.6799C0.734375 45.9456 0.742188 46.2893 0.929688 46.5471C1.07813 46.7581 1.32031 46.8831 1.57031 46.8831C1.625 46.8831 1.67969 46.8831 1.74219 46.8674L8.92188 45.2737C10.9922 46.3284 13.3125 46.8831 15.6406 46.8831C23.7422 46.8831 30.3438 40.3518 30.4688 32.2737C33.9844 33.2268 37.8359 32.8674 41.1016 31.2112L48.2812 32.7971C48.3359 32.8127 48.3906 32.8127 48.4531 32.8127C48.7031 32.8127 48.9453 32.6877 49.0938 32.4768C49.2734 32.219 49.2812 31.8752 49.1172 31.6096L46.1875 26.9768C48.1562 24.4065 49.2344 21.2268 49.2344 17.9612C49.2344 9.77368 42.5781 3.11743 34.3906 3.11743C26.2031 3.11743 19.6875 9.64868 19.5625 17.719C18.3125 17.3752 17 17.1799 15.6406 17.1799C7.4375 17.1877 0.78125 23.844 0.78125 32.0315C0.78125 35.2893 1.85937 38.469 3.83594 41.0471L0.90625 45.6799ZM34.375 4.68774C41.6953 4.68774 47.6562 10.6487 47.6562 17.969C47.6562 21.0549 46.5781 24.0627 44.6094 26.4299C44.3906 26.6877 44.3672 27.0627 44.5469 27.344L46.7734 30.8596L41.1484 29.6174C40.9688 29.5784 40.7734 29.6018 40.6094 29.6877C37.4922 31.344 33.7344 31.6643 30.3906 30.6174C29.8594 24.9846 26.1562 20.2581 21.0938 18.2424C21.0938 18.1487 21.0859 18.0549 21.0859 17.9612C21.0859 10.6409 27.0469 4.67993 34.3672 4.67993L34.375 4.68774ZM2.34375 32.0315C2.34375 24.7112 8.30469 18.7502 15.625 18.7502C22.9453 18.7502 28.9062 24.7112 28.9062 32.0315C28.9062 39.3518 22.9453 45.3127 15.625 45.3127C13.4531 45.3127 11.2969 44.7737 9.38281 43.7502C9.26562 43.6877 9.14062 43.6565 9.01562 43.6565C8.96094 43.6565 8.90625 43.6565 8.84375 43.6721L3.21875 44.9143L5.44531 41.3987C5.625 41.1096 5.60156 40.7424 5.39062 40.4846C3.42188 38.1096 2.34375 35.1018 2.34375 32.0159V32.0315Z" fill="url(#paint0_linear_3878_4628)"/>
<path d="M28.125 12.5H40.625V14.0625H28.125V12.5Z" fill="url(#paint1_linear_3878_4628)"/>
<path d="M28.125 17.1875H40.625V18.75H28.125V17.1875Z" fill="url(#paint2_linear_3878_4628)"/>
<path d="M31.25 21.875H40.625V23.4375H31.25V21.875Z" fill="url(#paint3_linear_3878_4628)"/>
<path d="M10.6711 33.5938H13.4993L14.3196 36.7188H15.9368L13.6243 27.9297C13.5305 27.5859 13.2258 27.3438 12.8665 27.3438H11.304C10.9524 27.3438 10.6399 27.5859 10.5461 27.9297L8.23364 36.7188H9.85083L10.6711 33.5938ZM11.9055 28.9062H12.2649L13.0852 32.0312H11.0852L11.9055 28.9062Z" fill="url(#paint4_linear_3878_4628)"/>
<path d="M23.0164 35.1562H21.0632V28.9062H23.0164V27.3438H17.5476V28.9062H19.5007V35.1562H17.5476V36.7188H23.0164V35.1562Z" fill="url(#paint5_linear_3878_4628)"/>
<defs>
<linearGradient id="paint0_linear_3878_4628" x1="1.35808" y1="37.9932" x2="48.5592" y2="37.885" gradientUnits="userSpaceOnUse">
<stop stop-color="#434AE4"/>
<stop offset="0.5" stop-color="#5441B7"/>
<stop offset="1" stop-color="#E86343"/>
</linearGradient>
<linearGradient id="paint1_linear_3878_4628" x1="28.2738" y1="13.7451" x2="40.4475" y2="13.5434" gradientUnits="userSpaceOnUse">
<stop stop-color="#434AE4"/>
<stop offset="0.5" stop-color="#5441B7"/>
<stop offset="1" stop-color="#E86343"/>
</linearGradient>
<linearGradient id="paint2_linear_3878_4628" x1="28.2738" y1="18.4326" x2="40.4475" y2="18.2309" gradientUnits="userSpaceOnUse">
<stop stop-color="#434AE4"/>
<stop offset="0.5" stop-color="#5441B7"/>
<stop offset="1" stop-color="#E86343"/>
</linearGradient>
<linearGradient id="paint3_linear_3878_4628" x1="31.3616" y1="23.1201" x2="40.4929" y2="23.0067" gradientUnits="userSpaceOnUse">
<stop stop-color="#434AE4"/>
<stop offset="0.5" stop-color="#5441B7"/>
<stop offset="1" stop-color="#E86343"/>
</linearGradient>
<linearGradient id="paint4_linear_3878_4628" x1="8.32535" y1="34.8145" x2="15.8294" y2="34.8017" gradientUnits="userSpaceOnUse">
<stop stop-color="#434AE4"/>
<stop offset="0.5" stop-color="#5441B7"/>
<stop offset="1" stop-color="#E86343"/>
</linearGradient>
<linearGradient id="paint5_linear_3878_4628" x1="17.6127" y1="34.8145" x2="22.9401" y2="34.808" gradientUnits="userSpaceOnUse">
<stop stop-color="#434AE4"/>
<stop offset="0.5" stop-color="#5441B7"/>
<stop offset="1" stop-color="#E86343"/>
</linearGradient>
</defs>
</svg>
