<svg width="80" height="80" viewBox="0 0 80 80" fill="none" xmlns="http://www.w3.org/2000/svg">
<path d="M40 76C59.8823 76 76 59.8823 76 40C76 20.1177 59.8823 4 40 4C20.1177 4 4 20.1177 4 40C4 59.8823 20.1177 76 40 76Z" stroke="white" stroke-opacity="0.1" stroke-width="4"/>
<path d="M62.5573 45.6455C62.3136 42.5565 60.882 39.7477 58.5261 37.7359C58.0508 37.3299 57.5492 36.969 57.0279 36.6521V34.5062C57.0279 33.8377 56.5714 33.2734 55.9179 33.1327L52.9404 32.4934C52.8373 32.4709 52.7698 32.4118 52.7351 32.3124C52.5701 31.8427 52.3761 31.3759 52.1595 30.9249C52.1136 30.8293 52.1192 30.7402 52.1764 30.6512L53.8301 28.0918C54.1929 27.5302 54.1161 26.8084 53.6436 26.3359L50.4373 23.1296C49.9648 22.6571 49.2429 22.5802 48.6814 22.9431L46.122 24.5968C46.0329 24.654 45.9439 24.6596 45.8483 24.6137C45.3973 24.3962 44.9304 24.2031 44.4608 24.0381C44.3614 24.0034 44.3023 23.9359 44.2798 23.8327L43.6404 20.8543C43.4998 20.2009 42.9354 19.7452 42.267 19.7452H37.7323C37.0639 19.7452 36.4995 20.2018 36.3589 20.8552L35.7195 23.8337C35.697 23.9368 35.6379 24.0043 35.5386 24.039C35.0679 24.204 34.6011 24.3981 34.1511 24.6146C34.0564 24.6606 33.9664 24.6549 33.8773 24.5977L31.3179 22.944C30.7564 22.5812 30.0345 22.6581 29.562 23.1306L26.3558 26.3368C25.8833 26.8093 25.8064 27.5312 26.1692 28.0927L27.8229 30.6521C27.8801 30.7412 27.8858 30.8302 27.8398 30.9259C27.6223 31.3768 27.4283 31.8437 27.2642 32.3134C27.2295 32.4127 27.162 32.4718 27.0589 32.4943L24.0804 33.1337C23.427 33.2743 22.9704 33.8387 22.9704 34.5071V38.5815C21.9467 39.204 21.0026 39.9962 20.1833 40.9562C18.1714 43.3121 17.1973 46.3112 17.4411 49.4002C17.6848 52.4893 19.1164 55.2981 21.4723 57.3099C23.4223 58.9749 25.8026 59.9293 28.3564 60.0709C28.5673 60.0821 28.7773 60.0887 28.9883 60.0887C30.7733 60.0887 32.5498 59.6715 34.1445 58.8868L33.957 59.5365C33.8708 59.8346 34.0433 60.1468 34.3414 60.2331C34.3939 60.2481 34.4464 60.2556 34.4979 60.2556C34.7417 60.2556 34.9667 60.0952 35.0379 59.8487L35.6379 57.7712C35.7242 57.473 35.5517 57.1609 35.2536 57.0746L33.1761 56.4746C32.877 56.3884 32.5658 56.5609 32.4795 56.859C32.3933 57.1571 32.5658 57.4693 32.8639 57.5555L33.7714 57.8181C30.0458 59.7165 25.4361 59.2159 22.2026 56.4559C20.0745 54.639 18.7817 52.1021 18.5623 49.313C18.3429 46.524 19.2223 43.8165 21.0392 41.6884C24.7901 37.2962 31.4145 36.774 35.8067 40.5249C37.9133 42.324 39.237 44.8909 39.4376 47.5674C39.6608 50.5412 41.127 53.3884 43.4604 55.3806C45.8164 57.3924 48.8154 58.3665 51.9045 58.1227C54.9936 57.879 57.8023 56.4474 59.8142 54.0915C61.8261 51.7327 62.8001 48.7346 62.5573 45.6455ZM24.0964 37.9796V34.5062C24.0964 34.3712 24.1854 34.2615 24.3176 34.2324L27.2951 33.5931C27.7845 33.4881 28.1604 33.1571 28.3254 32.6846C28.4764 32.2543 28.6536 31.8268 28.8533 31.4134C29.0708 30.9615 29.0398 30.4618 28.7679 30.0409L27.1142 27.4815C27.0401 27.3662 27.0542 27.2293 27.1517 27.1318L30.3579 23.9256C30.4554 23.829 30.5923 23.814 30.7076 23.8881L33.267 25.5427C33.6879 25.8146 34.1876 25.8456 34.6395 25.6281C35.052 25.4293 35.4795 25.2512 35.9108 25.1002C36.3833 24.9343 36.7142 24.5593 36.8192 24.0699L37.4586 21.0915C37.4876 20.9574 37.5945 20.8702 37.7323 20.8702H42.267C42.4039 20.8702 42.5117 20.9565 42.5408 21.0915L43.1801 24.0699C43.2851 24.5593 43.6161 24.9352 44.0886 25.1002C44.5189 25.2512 44.9464 25.4284 45.3598 25.6281C45.8108 25.8456 46.3114 25.8146 46.7323 25.5427L49.2917 23.889C49.4051 23.8159 49.5458 23.8309 49.6414 23.9265L52.8476 27.1327C52.9451 27.2302 52.9592 27.3671 52.8851 27.4824L51.2314 30.0418C50.9595 30.4627 50.9286 30.9634 51.1461 31.4143C51.3448 31.8268 51.5229 32.2552 51.6739 32.6856C51.8389 33.1581 52.2148 33.489 52.7042 33.594L55.6826 34.2334C55.8148 34.2615 55.9039 34.3712 55.9039 34.5071V36.0502C54.1001 35.2084 52.1211 34.8493 50.1645 34.9871C49.3104 30.0868 45.0345 26.4559 40.0011 26.4559C34.3114 26.4559 29.6829 31.0852 29.6829 36.774C29.6829 36.8209 29.6848 36.8668 29.6858 36.9137C27.7733 36.804 25.8486 37.164 24.0964 37.9796ZM48.0626 35.3331C47.7495 33.5696 46.8664 31.9552 45.5304 30.7318C44.0173 29.3462 42.0533 28.5831 40.0001 28.5831C35.4833 28.5831 31.8092 32.2571 31.8092 36.774C31.8092 36.9287 31.8148 37.0834 31.8242 37.2381C31.4895 37.1546 31.1511 37.0862 30.8117 37.0337C30.8089 36.9474 30.807 36.8602 30.807 36.774C30.807 31.7049 34.9311 27.5809 40.0001 27.5809C44.4654 27.5809 48.2595 30.7871 49.0442 35.1231C48.7142 35.1784 48.387 35.2487 48.0626 35.3331ZM58.9592 53.3584C57.1423 55.4865 54.6054 56.7793 51.8164 56.9987C49.0264 57.219 46.3198 56.3387 44.1917 54.5218C42.0851 52.7227 40.7614 50.1559 40.5608 47.4793C40.3376 44.5056 38.8714 41.6584 36.5379 39.6662C35.4542 38.7409 34.2476 38.0509 32.9811 37.5906C32.9501 37.3196 32.9333 37.0459 32.9333 36.7731C32.9333 32.8768 36.1029 29.7071 39.9992 29.7071C43.5204 29.7071 46.4464 32.2412 46.9779 35.6696C46.5298 35.8346 46.0892 36.0287 45.6589 36.2518L45.8623 35.5487C45.9486 35.2506 45.7761 34.9384 45.4779 34.8521C45.1789 34.7659 44.8676 34.9384 44.7814 35.2365L44.1814 37.3149C44.0951 37.6131 44.2676 37.9252 44.5658 38.0115L46.6442 38.6115C46.6967 38.6265 46.7492 38.634 46.8008 38.634C47.0445 38.634 47.2695 38.4737 47.3408 38.2271C47.427 37.929 47.2545 37.6168 46.9564 37.5306L46.1117 37.2868C49.8608 35.3096 54.507 35.7821 57.7967 38.5909C62.187 42.3418 62.7092 48.9662 58.9592 53.3584Z" fill="white"/>
</svg>
