<svg width="80" height="80" viewBox="0 0 80 80" fill="none" xmlns="http://www.w3.org/2000/svg">
<path d="M40 76C59.8823 76 76 59.8823 76 40C76 20.1177 59.8823 4 40 4C20.1177 4 4 20.1177 4 40C4 59.8823 20.1177 76 40 76Z" stroke="white" stroke-opacity="0.1" stroke-width="4"/>
<path d="M62.5 34.75C62.4975 36.9373 61.6275 39.0343 60.0809 40.5809C58.5343 42.1275 56.4373 42.9975 54.25 43H52.75C52.5511 43 52.3603 42.921 52.2197 42.7803C52.079 42.6397 52 42.4489 52 42.25C52 42.0511 52.079 41.8603 52.2197 41.7197C52.3603 41.579 52.5511 41.5 52.75 41.5H54.25C56.0402 41.5 57.7571 40.7888 59.023 39.523C60.2888 38.2571 61 36.5402 61 34.75C61 32.9598 60.2888 31.2429 59.023 29.977C57.7571 28.7112 56.0402 28 54.25 28L54.0984 28.0084C53.9245 28.0149 53.7539 27.9598 53.6166 27.8529C53.4793 27.746 53.3841 27.5941 53.3476 27.424C53.1216 26.4243 52.6432 25.4993 51.9579 24.7371C51.2727 23.975 50.4035 23.4012 49.4334 23.0706C48.4633 22.74 47.4247 22.6635 46.4166 22.8485C45.4086 23.0335 44.4647 23.4738 43.6753 24.1273C43.5836 24.2033 43.4751 24.2564 43.3589 24.2821C43.2426 24.3078 43.1219 24.3055 43.0067 24.2753C42.8915 24.2451 42.7852 24.1879 42.6965 24.1084C42.6078 24.0289 42.5394 23.9295 42.4968 23.8182C41.8709 22.1817 40.6915 20.8161 39.1634 19.9587C37.6353 19.1013 35.8551 18.8064 34.1322 19.1251C32.4092 19.4438 30.8524 20.3561 29.7321 21.7034C28.6119 23.0507 27.999 24.7478 28 26.5C28.0007 26.7771 28.0171 27.0539 28.0491 27.3291C28.0624 27.4471 28.0474 27.5666 28.0055 27.6776C27.9636 27.7887 27.896 27.8883 27.8081 27.9681C27.7202 28.048 27.6146 28.1058 27.5 28.1369C27.3854 28.168 27.2651 28.1714 27.1489 28.1469C26.2237 27.9508 25.2677 27.9514 24.3427 28.1486C23.4177 28.3457 22.5445 28.7351 21.7797 29.2914C21.0149 29.8476 20.3755 30.5584 19.9029 31.3776C19.4304 32.1969 19.1353 33.1063 19.0368 34.0468C18.9382 34.9874 19.0384 35.9382 19.3309 36.8376C19.6234 37.737 20.1016 38.5649 20.7346 39.2676C21.3675 39.9703 22.1411 40.5321 23.0051 40.9167C23.8691 41.3013 24.8043 41.5 25.75 41.5H27.25C27.4489 41.5 27.6397 41.579 27.7803 41.7197C27.921 41.8603 28 42.0511 28 42.25C28 42.4489 27.921 42.6397 27.7803 42.7803C27.6397 42.921 27.4489 43 27.25 43H25.75C23.562 43 21.4635 42.1308 19.9164 40.5836C18.3692 39.0365 17.5 36.938 17.5 34.75C17.5 32.562 18.3692 30.4635 19.9164 28.9164C21.4635 27.3692 23.562 26.5 25.75 26.5C25.999 26.5 26.2495 26.5117 26.5 26.5348V26.5C26.4988 24.48 27.1776 22.5183 28.427 20.931C29.6765 19.3438 31.4239 18.2233 33.3878 17.7502C35.3517 17.2771 37.4176 17.4788 39.2529 18.3229C41.0881 19.1669 42.5858 20.6042 43.5046 22.4032C44.4762 21.7913 45.5753 21.4108 46.7172 21.291C47.8591 21.1711 49.0132 21.3152 50.0906 21.712C51.1681 22.1088 52.1399 22.7478 52.9313 23.5796C53.7227 24.4115 54.3124 25.414 54.655 26.5099C56.7695 26.6163 58.7624 27.5306 60.2223 29.064C61.6822 30.5974 62.4975 32.6328 62.5 34.75ZM50.5 39.25C50.5 48.5272 40.334 51.9301 40.2314 51.9634C40.081 52.0122 39.919 52.0122 39.7686 51.9634C39.666 51.9301 29.5 48.5272 29.5 39.25V31.75C29.5 31.6515 29.5194 31.554 29.557 31.463C29.5947 31.372 29.65 31.2893 29.7196 31.2196C29.7893 31.15 29.872 31.0947 29.963 31.057C30.054 31.0194 30.1515 31 30.25 31C33.5609 30.9465 36.7889 29.9559 39.5598 28.1428C39.688 28.0503 39.842 28.0006 40 28.0006C40.158 28.0006 40.312 28.0503 40.4402 28.1428C43.2111 29.9559 46.4391 30.9465 49.75 31C49.8485 31 49.946 31.0194 50.037 31.057C50.128 31.0947 50.2107 31.15 50.2804 31.2196C50.35 31.2893 50.4053 31.372 50.443 31.463C50.4806 31.554 50.5 31.6515 50.5 31.75V39.25ZM49 32.4832C45.8097 32.3104 42.7145 31.3366 40 29.6516C37.2855 31.3366 34.1903 32.3104 31 32.4832V39.25C31 46.6914 38.5674 49.9104 40 50.4528C41.4326 49.9104 49 46.6914 49 39.25V32.4832ZM43 59.5C43.0021 60.0616 42.8465 60.6125 42.551 61.09C42.2555 61.5675 41.8318 61.9525 41.3283 62.2011C40.8248 62.4498 40.2616 62.5521 39.7028 62.4965C39.1439 62.4408 38.612 62.2294 38.1674 61.8864C37.7227 61.5433 37.3834 61.0824 37.1878 60.5559C36.9922 60.0295 36.9484 59.4588 37.0612 58.9086C37.174 58.3585 37.4389 57.8511 37.8259 57.4441C38.2128 57.0371 38.7063 56.7469 39.25 56.6065V54.25C39.25 54.0511 39.329 53.8603 39.4697 53.7197C39.6103 53.579 39.8011 53.5 40 53.5C40.1989 53.5 40.3897 53.579 40.5303 53.7197C40.671 53.8603 40.75 54.0511 40.75 54.25V56.6065C41.3924 56.7718 41.9617 57.1456 42.3689 57.6692C42.7761 58.1928 42.998 58.8367 43 59.5ZM41.5 59.5C41.5 59.2033 41.412 58.9133 41.2472 58.6666C41.0824 58.42 40.8481 58.2277 40.574 58.1142C40.2999 58.0007 39.9983 57.9709 39.7074 58.0288C39.4164 58.0867 39.1491 58.2296 38.9393 58.4393C38.7296 58.6491 38.5867 58.9164 38.5288 59.2074C38.4709 59.4983 38.5006 59.7999 38.6142 60.074C38.7277 60.3481 38.92 60.5824 39.1666 60.7472C39.4133 60.912 39.7033 61 40 61C40.3977 60.9995 40.779 60.8414 41.0602 60.5602C41.3414 60.279 41.4995 59.8977 41.5 59.5ZM59.5 59.5C59.5016 60.2296 59.2366 60.9347 58.7549 61.4827C58.2733 62.0308 57.6081 62.384 56.8843 62.4761C56.1605 62.5682 55.428 62.3928 54.8244 61.9829C54.2208 61.573 53.7877 60.9568 53.6065 60.25H51.25C50.2558 60.2488 49.3026 59.8534 48.5996 59.1504C47.8966 58.4474 47.5012 57.4942 47.5 56.5V49.75C47.5 49.5511 47.579 49.3603 47.7197 49.2197C47.8603 49.079 48.0511 49 48.25 49C48.4489 49 48.6397 49.079 48.7803 49.2197C48.921 49.3603 49 49.5511 49 49.75V56.5C49.0007 57.0965 49.2379 57.6685 49.6597 58.0903C50.0815 58.5121 50.6535 58.7494 51.25 58.75H53.6065C53.7877 58.0432 54.2208 57.427 54.8244 57.0171C55.428 56.6072 56.1605 56.4318 56.8843 56.5239C57.6081 56.616 58.2733 56.9692 58.7549 57.5173C59.2366 58.0653 59.5016 58.7704 59.5 59.5ZM58 59.5C58 59.2033 57.912 58.9133 57.7472 58.6666C57.5824 58.42 57.3481 58.2277 57.074 58.1142C56.7999 58.0007 56.4983 57.9709 56.2074 58.0288C55.9164 58.0867 55.6491 58.2296 55.4393 58.4393C55.2296 58.6491 55.0867 58.9164 55.0288 59.2074C54.9709 59.4983 55.0006 59.7999 55.1142 60.074C55.2277 60.3481 55.42 60.5824 55.6666 60.7472C55.9133 60.912 56.2033 61 56.5 61C56.8977 60.9995 57.279 60.8414 57.5602 60.5602C57.8414 60.279 57.9995 59.8977 58 59.5ZM32.5 49.75V56.5C32.4988 57.4942 32.1034 58.4474 31.4004 59.1504C30.6974 59.8534 29.7442 60.2488 28.75 60.25H26.3935C26.211 60.957 25.7768 61.5731 25.1725 61.983C24.5682 62.3928 23.8351 62.5681 23.1108 62.4761C22.3864 62.3841 21.7204 62.0311 21.2378 61.4832C20.7551 60.9353 20.4888 60.2302 20.4888 59.5C20.4888 58.7698 20.7551 58.0647 21.2378 57.5168C21.7204 56.9689 22.3864 56.6159 23.1108 56.5239C23.8351 56.4319 24.5682 56.6072 25.1725 57.0171C25.7768 57.4269 26.211 58.043 26.3935 58.75H28.75C29.3465 58.7494 29.9185 58.5121 30.3403 58.0903C30.7621 57.6685 30.9993 57.0965 31 56.5V49.75C31 49.5511 31.079 49.3603 31.2197 49.2197C31.3603 49.079 31.5511 49 31.75 49C31.9489 49 32.1397 49.079 32.2803 49.2197C32.421 49.3603 32.5 49.5511 32.5 49.75ZM25 59.5C25 59.2033 24.912 58.9133 24.7472 58.6666C24.5824 58.42 24.3481 58.2277 24.074 58.1142C23.7999 58.0007 23.4983 57.9709 23.2074 58.0288C22.9164 58.0867 22.6491 58.2296 22.4393 58.4393C22.2296 58.6491 22.0867 58.9164 22.0288 59.2074C21.9709 59.4983 22.0006 59.7999 22.1142 60.074C22.2277 60.3481 22.42 60.5824 22.6666 60.7472C22.9133 60.912 23.2033 61 23.5 61C23.8977 60.9995 24.279 60.8414 24.5602 60.5602C24.8414 60.279 24.9995 59.8977 25 59.5ZM35.2803 39.4698C35.2108 39.3991 35.1281 39.3429 35.0369 39.3043C34.9456 39.2658 34.8476 39.2457 34.7486 39.2453C34.6495 39.2448 34.5514 39.264 34.4598 39.3017C34.3682 39.3394 34.285 39.3949 34.2149 39.4649C34.1449 39.535 34.0894 39.6182 34.0517 39.7098C34.014 39.8014 33.9948 39.8995 33.9953 39.9986C33.9957 40.0976 34.0158 40.1956 34.0543 40.2869C34.0929 40.3781 34.1491 40.4608 34.2197 40.5303L37.9697 44.2803C38.0394 44.3499 38.122 44.4052 38.213 44.4429C38.304 44.4806 38.4015 44.5 38.5 44.5C38.5985 44.5 38.696 44.4806 38.787 44.4429C38.878 44.4052 38.9607 44.3499 39.0303 44.2803L45.7803 37.5303C45.8507 37.4608 45.9066 37.3781 45.9448 37.2869C45.9831 37.1957 46.003 37.0979 46.0033 36.999C46.0036 36.9001 45.9843 36.8022 45.9466 36.7108C45.9089 36.6194 45.8535 36.5363 45.7836 36.4664C45.7137 36.3965 45.6306 36.3411 45.5392 36.3034C45.4478 36.2657 45.3499 36.2464 45.251 36.2468C45.1521 36.2471 45.0543 36.2669 44.9631 36.3052C44.8719 36.3435 44.7892 36.3994 44.7197 36.4698L38.5 42.6895L35.2803 39.4698Z" fill="white"/>
</svg>
