<svg width="80" height="80" viewBox="0 0 80 80" fill="none" xmlns="http://www.w3.org/2000/svg">
<path d="M40 76C59.8823 76 76 59.8823 76 40C76 20.1177 59.8823 4 40 4C20.1177 4 4 20.1177 4 40C4 59.8823 20.1177 76 40 76Z" stroke="white" stroke-opacity="0.1" stroke-width="4"/>
<path d="M57.4789 38.9578C57.6686 38.2731 57.7646 37.5576 57.7646 36.8211C57.7646 32.3871 54.1571 28.7796 49.7231 28.7796C49.0804 28.7796 48.4391 28.8576 47.8106 29.0121C46.3001 26.1478 43.3196 24.3306 40.0429 24.3306C35.7499 24.3306 32.0899 27.4828 31.3856 31.6401C31.2139 31.6281 31.0384 31.6221 30.8599 31.6221C26.9704 31.6221 23.7866 34.7046 23.6246 38.5551C20.0426 39.7266 17.5879 43.0731 17.5879 46.8876C17.5879 51.7296 21.5269 55.6686 26.3689 55.6686H53.7176C58.5596 55.6686 62.4986 51.7296 62.4986 46.8876C62.4986 43.4976 60.5089 40.3963 57.4789 38.9578ZM53.7176 54.1693H26.3681C22.3534 54.1693 19.0871 50.9031 19.0871 46.8883C19.0871 43.5621 21.3379 40.6656 24.5606 39.8443C24.9191 39.7528 25.1569 39.4138 25.1216 39.0463C25.1156 38.9856 25.1171 38.9256 25.1171 38.8656C25.1171 35.6991 27.6934 33.1228 30.8591 33.1228C31.2281 33.1228 31.5746 33.1543 31.8889 33.2173C32.0951 33.2593 32.3171 33.2091 32.4889 33.0801C32.6606 32.9503 32.7671 32.7538 32.7844 32.5401C33.0746 28.7781 36.2629 25.8313 40.0429 25.8313C42.9446 25.8313 45.5659 27.5496 46.7224 30.2076C46.8769 30.5646 47.2796 30.7416 47.6471 30.6201C48.3229 30.3943 49.0219 30.2796 49.7231 30.2796C53.3306 30.2796 56.2646 33.2143 56.2646 36.8211C56.2646 37.6243 56.1251 38.3946 55.8514 39.1093C55.7794 39.2961 55.7854 39.5031 55.8671 39.6853C55.9489 39.8676 56.1004 40.0093 56.2871 40.0798C59.1056 41.1418 60.9986 43.8771 60.9986 46.8876C60.9986 50.9031 57.7324 54.1693 53.7176 54.1693Z" fill="white"/>
<path d="M50.9333 32.3746C50.5298 32.2809 50.1271 32.5314 50.0333 32.9356C49.9396 33.3399 50.1901 33.7426 50.5936 33.8364C50.6078 33.8394 51.9661 34.1836 52.6276 35.3476C53.0956 36.1726 53.1241 37.2459 52.7108 38.5389C52.5841 38.9334 52.8023 39.3556 53.1961 39.4816C53.2726 39.5056 53.3491 39.5176 53.4248 39.5176C53.7428 39.5176 54.0368 39.3144 54.1388 38.9956C54.6856 37.2879 54.6151 35.8111 53.9318 34.6074C52.9388 32.8591 51.0143 32.3941 50.9333 32.3746Z" fill="white"/>
<path d="M38.8622 41.7306C38.8464 41.6968 38.8187 41.6751 38.7992 41.6451C38.7707 41.6016 38.7452 41.5581 38.7077 41.5206C38.6694 41.4823 38.6252 41.4561 38.5809 41.4276C38.5517 41.4088 38.5299 41.3818 38.4977 41.3661C38.4879 41.3616 38.4774 41.3631 38.4677 41.3586C38.4189 41.3383 38.3672 41.3316 38.3147 41.3218C38.2697 41.3136 38.2269 41.3001 38.1819 41.3008C38.1384 41.3008 38.0964 41.3136 38.0522 41.3218C37.9989 41.3316 37.9464 41.3383 37.8962 41.3593C37.8864 41.3631 37.8759 41.3623 37.8662 41.3668C37.8332 41.3818 37.8122 41.4088 37.7829 41.4283C37.7387 41.4568 37.6944 41.4831 37.6562 41.5213C37.6187 41.5588 37.5924 41.6016 37.5647 41.6458C37.5452 41.6758 37.5174 41.6976 37.5017 41.7313L35.4467 46.1563C35.2727 46.5321 35.4354 46.9783 35.8112 47.1523C35.9132 47.1996 36.0204 47.2221 36.1262 47.2221C36.4097 47.2221 36.6797 47.0616 36.8072 46.7878L37.2527 45.8286H39.1119L39.5574 46.7878C39.6849 47.0608 39.9549 47.2221 40.2384 47.2221C40.3442 47.2221 40.4514 47.1996 40.5534 47.1523C40.9292 46.9783 41.0927 46.5321 40.9179 46.1563L38.8622 41.7306ZM37.9494 44.3286L38.1819 43.8276L38.4144 44.3286H37.9494Z" fill="white"/>
<path d="M44.3304 42.0464C44.3304 41.6324 43.9951 41.2964 43.5804 41.2964H42.1621C41.7474 41.2964 41.4121 41.6324 41.4121 42.0464C41.4121 42.4461 41.7271 42.7656 42.1209 42.7881V45.7296C41.7264 45.7521 41.4121 46.0716 41.4121 46.4714C41.4121 46.8854 41.7474 47.2214 42.1621 47.2214H43.5804C43.9951 47.2214 44.3304 46.8854 44.3304 46.4714C44.3304 46.0716 44.0154 45.7521 43.6216 45.7296V42.7881C44.0161 42.7656 44.3304 42.4461 44.3304 42.0464Z" fill="white"/>
<path d="M48.5119 41.2644C48.9267 41.2644 49.2619 40.9284 49.2619 40.5144C49.2619 40.1004 48.9267 39.7644 48.5119 39.7644H47.0674V38.8719C47.0674 37.9464 46.3144 37.1934 45.3889 37.1934H34.6152C33.6897 37.1934 32.9367 37.9464 32.9367 38.8719V39.7644H31.4922C31.0774 39.7644 30.7422 40.1004 30.7422 40.5144C30.7422 40.9284 31.0774 41.2644 31.4922 41.2644H32.9367V43.5091H31.4922C31.0774 43.5091 30.7422 43.8451 30.7422 44.2591C30.7422 44.6731 31.0774 45.0091 31.4922 45.0091H32.9367V47.2531H31.4922C31.0774 47.2531 30.7422 47.5891 30.7422 48.0031C30.7422 48.4171 31.0774 48.7531 31.4922 48.7531H32.9367V49.6456C32.9367 50.5711 33.6897 51.3241 34.6152 51.3241H45.3889C46.3144 51.3241 47.0674 50.5711 47.0674 49.6456V48.7531H48.5119C48.9267 48.7531 49.2619 48.4171 49.2619 48.0031C49.2619 47.5891 48.9267 47.2531 48.5119 47.2531H47.0674V45.0091H48.5119C48.9267 45.0091 49.2619 44.6731 49.2619 44.2591C49.2619 43.8451 48.9267 43.5091 48.5119 43.5091H47.0674V41.2644H48.5119ZM45.5674 49.6456C45.5674 49.7424 45.4857 49.8241 45.3889 49.8241H34.6152C34.5184 49.8241 34.4367 49.7424 34.4367 49.6456V38.8719C34.4367 38.7751 34.5184 38.6934 34.6152 38.6934H45.3889C45.4857 38.6934 45.5674 38.7751 45.5674 38.8719V49.6456Z" fill="white"/>
</svg>
