<svg width="50" height="50" viewBox="0 0 50 50" fill="none" xmlns="http://www.w3.org/2000/svg">
<path d="M8.68604 20.1992V42.6325C8.68604 43.3111 9.275 43.863 9.99893 43.863H40.0271C40.7508 43.863 41.3394 43.3112 41.3394 42.6325V20.1992C41.3394 19.5207 40.7508 18.9688 40.0271 18.9688H37.4204V15.2283H39.5813V14.431H37.1858V14.8115H36.623V18.9688H26.5102V15.2283H31.8475C32.0338 15.2283 32.2167 15.2141 32.3978 15.1925V15.2283H34.7915V14.431H34.4441C35.6746 13.5962 36.4849 12.1867 36.4849 10.5914C36.4849 8.27344 34.7434 6.30586 32.4729 5.99746C31.5045 3.1876 28.8958 1.31836 25.8999 1.31836C23.9868 1.31836 22.2007 2.09971 20.9098 3.43232C20.4241 2.93184 19.8731 2.50488 19.2592 2.16875L18.8764 2.86807C19.4403 3.17695 19.9441 3.57275 20.3855 4.03818C20.2188 4.25547 20.0622 4.48252 19.9203 4.72148C19.7963 4.69131 19.6688 4.67627 19.5388 4.67627C18.6381 4.67627 17.9055 5.40879 17.9055 6.30898C17.9055 6.42295 17.9173 6.53535 17.9404 6.64541C16.5738 7.48818 15.738 8.9707 15.738 10.5914C15.738 12.1867 16.548 13.5962 17.7784 14.431H16.7683V15.2283H19.1639V15.0623C19.5508 15.1674 19.9556 15.2283 20.3752 15.2283H25.7126V18.9688H16.5354V14.8297H15.7381V18.9688H9.99883C9.275 18.9688 8.68604 19.5207 8.68604 20.1992ZM36.6229 19.7662V20.9593H26.5102V19.7662H36.6229ZM20.3752 14.431C18.2579 14.431 16.5355 12.7084 16.5355 10.5914C16.5355 9.15488 17.3286 7.84951 18.6054 7.18418L18.9443 7.00762L18.782 6.66143C18.7296 6.54951 18.7029 6.43096 18.7029 6.30889C18.7029 5.84844 19.0779 5.47363 19.5389 5.47363C19.6721 5.47363 19.8001 5.50479 19.9192 5.56631L20.2699 5.74727L20.4546 5.39834C21.5263 3.37373 23.6128 2.11582 25.9001 2.11582C28.6313 2.11582 30.9993 3.87051 31.7919 6.48242L31.8711 6.74346L32.143 6.76416C34.1308 6.91582 35.6876 8.59697 35.6876 10.5913C35.6876 12.7084 33.9648 14.4309 31.8477 14.4309L20.3752 14.431ZM16.5355 19.7662H25.7127V20.9593H16.5355V19.7662ZM21.1284 24.5476V26.4014H21.9259V23.7501H16.5355V21.7565H25.7127V25.7259H26.5102V21.7565H36.623V24.6508H32.7938V31.0856H31.8885V28.6903C31.8885 27.1768 26.1613 27.1002 25.0131 27.1002C23.865 27.1002 18.1375 27.1768 18.1375 28.6903V31.3956C18.1375 31.426 18.1437 31.455 18.1481 31.4844H18.1375V34.0371V34.1901V36.7428C18.1375 38.2559 23.865 38.3324 25.0131 38.3324C26.1613 38.3324 31.8885 38.2559 31.8885 36.7428V34.1901V34.0371V31.8831H33.5914V25.4482H37.4205V21.7565H38.4744V40.5703H11.5518V21.7566H15.7382V24.5476H21.1284ZM25.013 34.9824C21.2859 34.9824 19.2288 34.4357 18.9349 34.137V34.0372V32.2328C20.5492 32.9398 24.1312 32.9858 25.013 32.9858C25.8949 32.9858 29.4768 32.9398 31.0909 32.2328V34.0372V34.137C30.7971 34.4357 28.7401 34.9824 25.013 34.9824ZM31.0909 35.0271V36.6896C30.7971 36.9884 28.7401 37.5351 25.013 37.5351C21.2859 37.5351 19.2288 36.9883 18.9349 36.6896V35.0271C20.5492 35.7339 24.1312 35.7798 25.013 35.7798C25.8949 35.7798 29.4767 35.7339 31.0909 35.0271ZM25.013 32.1883C21.2851 32.1883 19.2283 31.6414 18.9349 31.3426V29.5274C20.5492 30.2345 24.1312 30.2805 25.013 30.2805C25.8949 30.2805 29.4768 30.2345 31.0909 29.5274V31.3426C30.7978 31.6415 28.7408 32.1883 25.013 32.1883ZM19.0019 28.6903C19.4675 28.3843 21.4973 27.8977 25.013 27.8977C28.5285 27.8977 30.5583 28.3843 31.0241 28.6903C30.5583 28.9964 28.5285 29.483 25.013 29.483C21.4973 29.483 19.4674 28.9964 19.0019 28.6903ZM9.4835 20.1992C9.4835 19.9605 9.71475 19.7662 9.99893 19.7662H15.7382V20.9593H10.7544V41.3679H39.2717V20.9593H37.4204V19.7662H40.0271C40.311 19.7662 40.542 19.9605 40.542 20.1992V42.6325C40.542 42.8713 40.311 43.0656 40.0271 43.0656H9.99893C9.71475 43.0656 9.4835 42.8714 9.4835 42.6325V20.1992Z" fill="url(#paint0_linear_3878_5873)"/>
<path d="M6.37695 46.8245C6.37695 47.8486 7.21016 48.6816 8.23447 48.6816H41.7906C42.8144 48.6816 43.6477 47.8487 43.6477 46.8245V44.8429H6.37695V46.8245ZM7.17441 45.6405H42.8503V46.8245C42.8503 47.4088 42.3747 47.8842 41.7906 47.8842H8.23457C7.6501 47.8842 7.17451 47.4089 7.17451 46.8245L7.17441 45.6405Z" fill="url(#paint1_linear_3878_5873)"/>
<path d="M23.0757 46.3638H26.9508V47.1611H23.0757V46.3638Z" fill="url(#paint2_linear_3878_5873)"/>
<path d="M11.9766 14.431H14.3727V15.2284H11.9766V14.431Z" fill="url(#paint3_linear_3878_5873)"/>
<path d="M7.95518 7.63318C8.16377 7.46033 8.39141 7.30925 8.63144 7.18406L8.9706 7.0075L8.8083 6.6613C8.75586 6.54939 8.7292 6.43083 8.7292 6.30876C8.7292 6.08914 8.81367 5.88201 8.96728 5.72498L8.39717 5.16736C8.09717 5.47419 7.93174 5.87947 7.93174 6.30876C7.93174 6.42273 7.94355 6.53543 7.96689 6.64539C7.78506 6.75759 7.61084 6.88269 7.44629 7.01902L7.95518 7.63318Z" fill="url(#paint4_linear_3878_5873)"/>
<path d="M16.7553 2.17096L16.8617 1.38083C16.0298 1.26842 15.1605 1.30846 14.3413 1.49967L14.5225 2.27633C15.248 2.10719 16.0189 2.07214 16.7553 2.17096Z" fill="url(#paint5_linear_3878_5873)"/>
<path d="M12.4767 3.17219L12.0292 2.51233C11.325 2.98967 10.72 3.58489 10.231 4.28137L10.8836 4.73967C11.3168 4.12268 11.8528 3.59524 12.4767 3.17219Z" fill="url(#paint6_linear_3878_5873)"/>
<path d="M9.66123 14.3598C8.94883 14.2212 8.2919 13.8824 7.76152 13.3804L7.21338 13.9593C7.85391 14.5656 8.64766 14.9747 9.50889 15.1426L9.66123 14.3598Z" fill="url(#paint7_linear_3878_5873)"/>
<path d="M6.56103 10.5915C6.56103 10.1841 6.62451 9.78335 6.74961 9.40024L5.9916 9.15259C5.84033 9.61597 5.76367 10.1 5.76367 10.5914C5.76367 10.9779 5.81123 11.3621 5.90537 11.7332L6.67842 11.5375C6.60059 11.2302 6.56103 10.912 6.56103 10.5915Z" fill="url(#paint8_linear_3878_5873)"/>
<path d="M44.2342 10.0761C44.1376 9.20239 43.795 8.37769 43.2432 7.69116L42.6216 8.19058C43.0781 8.75884 43.3616 9.44126 43.4417 10.1639L44.2342 10.0761Z" fill="url(#paint9_linear_3878_5873)"/>
<path d="M39.6491 6.74348L39.9211 6.76418C40.2458 6.78889 40.566 6.85481 40.872 6.95989L41.131 6.20549C40.8458 6.10774 40.5506 6.03782 40.2505 5.99739C40.1271 5.64124 39.9744 5.29436 39.7946 4.9635L39.0938 5.34348C39.2901 5.7053 39.4505 6.0884 39.5698 6.48225L39.6491 6.74348Z" fill="url(#paint10_linear_3878_5873)"/>
<path d="M33.5579 2.11716L33.5424 1.3197C32.6881 1.3363 31.8563 1.50613 31.0698 1.82429L31.3693 2.56355C32.0649 2.28171 32.8011 2.13171 33.5579 2.11716Z" fill="url(#paint11_linear_3878_5873)"/>
<path d="M41.645 13.8575L42.0649 14.5355C42.8128 14.0719 43.4116 13.4094 43.7963 12.6201L43.0794 12.2708C42.7609 12.9249 42.2646 13.4733 41.645 13.8575Z" fill="url(#paint12_linear_3878_5873)"/>
<path d="M38.2107 2.99971C37.5639 2.44326 36.8308 2.01514 36.0317 1.72754L35.7617 2.47773C36.4688 2.73232 37.1178 3.11133 37.6903 3.604L38.2107 2.99971Z" fill="url(#paint13_linear_3878_5873)"/>
<defs>
<linearGradient id="paint0_linear_3878_5873" x1="9.07477" y1="35.2211" x2="40.8842" y2="35.1706" gradientUnits="userSpaceOnUse">
<stop stop-color="#434AE4"/>
<stop offset="0.5" stop-color="#5441B7"/>
<stop offset="1" stop-color="#E86343"/>
</linearGradient>
<linearGradient id="paint1_linear_3878_5873" x1="6.82065" y1="47.9018" x2="43.1136" y2="47.1721" gradientUnits="userSpaceOnUse">
<stop stop-color="#434AE4"/>
<stop offset="0.5" stop-color="#5441B7"/>
<stop offset="1" stop-color="#E86343"/>
</linearGradient>
<linearGradient id="paint2_linear_3878_5873" x1="23.1218" y1="46.9992" x2="26.8964" y2="46.9612" gradientUnits="userSpaceOnUse">
<stop stop-color="#434AE4"/>
<stop offset="0.5" stop-color="#5441B7"/>
<stop offset="1" stop-color="#E86343"/>
</linearGradient>
<linearGradient id="paint3_linear_3878_5873" x1="12.0051" y1="15.0664" x2="14.3392" y2="15.0519" gradientUnits="userSpaceOnUse">
<stop stop-color="#434AE4"/>
<stop offset="0.5" stop-color="#5441B7"/>
<stop offset="1" stop-color="#E86343"/>
</linearGradient>
<linearGradient id="paint4_linear_3878_5873" x1="7.46444" y1="7.13231" x2="8.94936" y2="7.13041" gradientUnits="userSpaceOnUse">
<stop stop-color="#434AE4"/>
<stop offset="0.5" stop-color="#5441B7"/>
<stop offset="1" stop-color="#E86343"/>
</linearGradient>
<linearGradient id="paint5_linear_3878_5873" x1="14.3713" y1="2.0818" x2="16.8265" y2="2.06841" gradientUnits="userSpaceOnUse">
<stop stop-color="#434AE4"/>
<stop offset="0.5" stop-color="#5441B7"/>
<stop offset="1" stop-color="#E86343"/>
</linearGradient>
<linearGradient id="paint6_linear_3878_5873" x1="10.2577" y1="4.28724" x2="12.4454" y2="4.28268" gradientUnits="userSpaceOnUse">
<stop stop-color="#434AE4"/>
<stop offset="0.5" stop-color="#5441B7"/>
<stop offset="1" stop-color="#E86343"/>
</linearGradient>
<linearGradient id="paint7_linear_3878_5873" x1="7.24252" y1="14.7846" x2="9.6271" y2="14.7778" gradientUnits="userSpaceOnUse">
<stop stop-color="#434AE4"/>
<stop offset="0.5" stop-color="#5441B7"/>
<stop offset="1" stop-color="#E86343"/>
</linearGradient>
<linearGradient id="paint8_linear_3878_5873" x1="5.77541" y1="11.209" x2="6.73587" y2="11.2082" gradientUnits="userSpaceOnUse">
<stop stop-color="#434AE4"/>
<stop offset="0.5" stop-color="#5441B7"/>
<stop offset="1" stop-color="#E86343"/>
</linearGradient>
<linearGradient id="paint9_linear_3878_5873" x1="42.6408" y1="9.66164" x2="44.2117" y2="9.65952" gradientUnits="userSpaceOnUse">
<stop stop-color="#434AE4"/>
<stop offset="0.5" stop-color="#5441B7"/>
<stop offset="1" stop-color="#E86343"/>
</linearGradient>
<linearGradient id="paint10_linear_3878_5873" x1="39.118" y1="6.55437" x2="41.1026" y2="6.55018" gradientUnits="userSpaceOnUse">
<stop stop-color="#434AE4"/>
<stop offset="0.5" stop-color="#5441B7"/>
<stop offset="1" stop-color="#E86343"/>
</linearGradient>
<linearGradient id="paint11_linear_3878_5873" x1="31.0994" y1="2.31089" x2="33.5232" y2="2.30085" gradientUnits="userSpaceOnUse">
<stop stop-color="#434AE4"/>
<stop offset="0.5" stop-color="#5441B7"/>
<stop offset="1" stop-color="#E86343"/>
</linearGradient>
<linearGradient id="paint12_linear_3878_5873" x1="41.6706" y1="14.0755" x2="43.7663" y2="14.0713" gradientUnits="userSpaceOnUse">
<stop stop-color="#434AE4"/>
<stop offset="0.5" stop-color="#5441B7"/>
<stop offset="1" stop-color="#E86343"/>
</linearGradient>
<linearGradient id="paint13_linear_3878_5873" x1="35.7909" y1="3.22285" x2="38.1766" y2="3.2164" gradientUnits="userSpaceOnUse">
<stop stop-color="#434AE4"/>
<stop offset="0.5" stop-color="#5441B7"/>
<stop offset="1" stop-color="#E86343"/>
</linearGradient>
</defs>
</svg>
