<svg width="50" height="50" viewBox="0 0 50 50" fill="none" xmlns="http://www.w3.org/2000/svg">
<path d="M43.2055 23.9138C43.4031 23.2006 43.5031 22.4552 43.5031 21.6881C43.5031 17.0693 39.7453 13.3115 35.1266 13.3115C34.457 13.3115 33.7891 13.3927 33.1344 13.5537C31.5609 10.5701 28.4562 8.67712 25.043 8.67712C20.5711 8.67712 16.7586 11.9607 16.025 16.2912C15.8461 16.2787 15.6633 16.2724 15.4773 16.2724C11.4258 16.2724 8.10938 19.4834 7.94062 23.4943C4.20937 24.7146 1.65234 28.2006 1.65234 32.174C1.65234 37.2177 5.75547 41.3209 10.7992 41.3209H39.2875C44.3312 41.3209 48.4344 37.2177 48.4344 32.174C48.4344 28.6427 46.3617 25.4123 43.2055 23.9138ZM39.2875 39.7591H10.7984C6.61641 39.7591 3.21406 36.3568 3.21406 32.1748C3.21406 28.7099 5.55859 25.6927 8.91563 24.8373C9.28906 24.742 9.53672 24.3888 9.5 24.006C9.49375 23.9427 9.49531 23.8802 9.49531 23.8177C9.49531 20.5193 12.1789 17.8357 15.4766 17.8357C15.8609 17.8357 16.2219 17.8685 16.5492 17.9342C16.7641 17.9779 16.9953 17.9256 17.1742 17.7912C17.3531 17.656 17.4641 17.4513 17.482 17.2287C17.7844 13.3099 21.1055 10.2404 25.043 10.2404C28.0656 10.2404 30.7961 12.0302 32.0008 14.799C32.1617 15.1709 32.5813 15.3552 32.9641 15.2287C33.668 14.9935 34.3961 14.874 35.1266 14.874C38.8844 14.874 41.9406 17.931 41.9406 21.6881C41.9406 22.5248 41.7953 23.3271 41.5102 24.0717C41.4352 24.2662 41.4414 24.4818 41.5266 24.6717C41.6117 24.8615 41.7695 25.0092 41.9641 25.0826C44.9 26.1888 46.8719 29.0381 46.8719 32.174C46.8719 36.3568 43.4695 39.7591 39.2875 39.7591Z" fill="url(#paint0_linear_3878_6566)"/>
<path d="M36.3906 17.0575C35.9703 16.9598 35.5508 17.2207 35.4531 17.6418C35.3554 18.0629 35.6164 18.4825 36.0367 18.5801C36.0515 18.5832 37.4664 18.9418 38.1554 20.1543C38.6429 21.0137 38.6726 22.1317 38.2422 23.4786C38.1101 23.8895 38.3375 24.3293 38.7476 24.4606C38.8273 24.4856 38.907 24.4981 38.9859 24.4981C39.3172 24.4981 39.6234 24.2864 39.7297 23.9543C40.2992 22.1754 40.2258 20.6372 39.514 19.3832C38.4797 17.5622 36.475 17.0778 36.3906 17.0575Z" fill="url(#paint1_linear_3878_6566)"/>
<path d="M23.8131 26.8027C23.7967 26.7675 23.7678 26.7449 23.7474 26.7136C23.7178 26.6683 23.6912 26.623 23.6521 26.5839C23.6123 26.5441 23.5662 26.5167 23.5201 26.487C23.4896 26.4675 23.467 26.4394 23.4334 26.423C23.4232 26.4183 23.4123 26.4199 23.4021 26.4152C23.3513 26.3941 23.2974 26.387 23.2428 26.3769C23.1959 26.3683 23.1513 26.3542 23.1045 26.355C23.0592 26.355 23.0154 26.3683 22.9693 26.3769C22.9138 26.387 22.8592 26.3941 22.8068 26.4159C22.7967 26.4199 22.7857 26.4191 22.7756 26.4238C22.7412 26.4394 22.7193 26.4675 22.6888 26.4878C22.6428 26.5175 22.5967 26.5449 22.5568 26.5847C22.5178 26.6238 22.4904 26.6683 22.4615 26.7144C22.4412 26.7456 22.4123 26.7683 22.3959 26.8034L20.2553 31.4128C20.074 31.8042 20.2435 32.2691 20.6349 32.4503C20.7412 32.4995 20.8529 32.523 20.9631 32.523C21.2584 32.523 21.5396 32.3558 21.6724 32.0706L22.1365 31.0714H24.0732L24.5373 32.0706C24.6701 32.355 24.9513 32.523 25.2467 32.523C25.3568 32.523 25.4685 32.4995 25.5748 32.4503C25.9662 32.2691 26.1365 31.8042 25.9545 31.4128L23.8131 26.8027ZM22.8623 29.5089L23.1045 28.987L23.3467 29.5089H22.8623Z" fill="url(#paint2_linear_3878_6566)"/>
<path d="M29.5125 27.1322C29.5125 26.701 29.1633 26.351 28.7313 26.351H27.2539C26.8219 26.351 26.4727 26.701 26.4727 27.1322C26.4727 27.5486 26.8008 27.8814 27.2109 27.9049V30.9689C26.8 30.9924 26.4727 31.3252 26.4727 31.7416C26.4727 32.1728 26.8219 32.5228 27.2539 32.5228H28.7313C29.1633 32.5228 29.5125 32.1728 29.5125 31.7416C29.5125 31.3252 29.1844 30.9924 28.7742 30.9689V27.9049C29.1852 27.8814 29.5125 27.5486 29.5125 27.1322Z" fill="url(#paint3_linear_3878_6566)"/>
<path d="M33.8666 26.317C34.2986 26.317 34.6479 25.967 34.6479 25.5358C34.6479 25.1045 34.2986 24.7545 33.8666 24.7545H32.3619V23.8249C32.3619 22.8608 31.5775 22.0764 30.6135 22.0764H19.3908C18.4268 22.0764 17.6424 22.8608 17.6424 23.8249V24.7545H16.1377C15.7057 24.7545 15.3564 25.1045 15.3564 25.5358C15.3564 25.967 15.7057 26.317 16.1377 26.317H17.6424V28.6553H16.1377C15.7057 28.6553 15.3564 29.0053 15.3564 29.4366C15.3564 29.8678 15.7057 30.2178 16.1377 30.2178H17.6424V32.5553H16.1377C15.7057 32.5553 15.3564 32.9053 15.3564 33.3366C15.3564 33.7678 15.7057 34.1178 16.1377 34.1178H17.6424V35.0475C17.6424 36.0116 18.4268 36.7959 19.3908 36.7959H30.6135C31.5775 36.7959 32.3619 36.0116 32.3619 35.0475V34.1178H33.8666C34.2986 34.1178 34.6479 33.7678 34.6479 33.3366C34.6479 32.9053 34.2986 32.5553 33.8666 32.5553H32.3619V30.2178H33.8666C34.2986 30.2178 34.6479 29.8678 34.6479 29.4366C34.6479 29.0053 34.2986 28.6553 33.8666 28.6553H32.3619V26.317H33.8666ZM30.7994 35.0475C30.7994 35.1483 30.7143 35.2334 30.6135 35.2334H19.3908C19.29 35.2334 19.2049 35.1483 19.2049 35.0475V23.8249C19.2049 23.7241 19.29 23.6389 19.3908 23.6389H30.6135C30.7143 23.6389 30.7994 23.7241 30.7994 23.8249V35.0475Z" fill="url(#paint4_linear_3878_6566)"/>
<defs>
<linearGradient id="paint0_linear_3878_6566" x1="2.20927" y1="34.6901" x2="47.782" y2="34.5549" gradientUnits="userSpaceOnUse">
<stop stop-color="#434AE4"/>
<stop offset="0.5" stop-color="#5441B7"/>
<stop offset="1" stop-color="#E86343"/>
</linearGradient>
<linearGradient id="paint1_linear_3878_6566" x1="35.4883" y1="22.9826" x2="40.0433" y2="22.9766" gradientUnits="userSpaceOnUse">
<stop stop-color="#434AE4"/>
<stop offset="0.5" stop-color="#5441B7"/>
<stop offset="1" stop-color="#E86343"/>
</linearGradient>
<linearGradient id="paint2_linear_3878_6566" x1="20.2522" y1="31.2701" x2="25.946" y2="31.2589" gradientUnits="userSpaceOnUse">
<stop stop-color="#434AE4"/>
<stop offset="0.5" stop-color="#5441B7"/>
<stop offset="1" stop-color="#E86343"/>
</linearGradient>
<linearGradient id="paint3_linear_3878_6566" x1="26.5088" y1="31.2692" x2="29.4701" y2="31.2661" gradientUnits="userSpaceOnUse">
<stop stop-color="#434AE4"/>
<stop offset="0.5" stop-color="#5441B7"/>
<stop offset="1" stop-color="#E86343"/>
</linearGradient>
<linearGradient id="paint4_linear_3878_6566" x1="15.5861" y1="33.806" x2="34.3789" y2="33.755" gradientUnits="userSpaceOnUse">
<stop stop-color="#434AE4"/>
<stop offset="0.5" stop-color="#5441B7"/>
<stop offset="1" stop-color="#E86343"/>
</linearGradient>
</defs>
</svg>
