<svg width="50" height="50" viewBox="0 0 50 50" fill="none" xmlns="http://www.w3.org/2000/svg">
<path d="M12.875 18.9483C12.875 18.4552 13.2748 18.0554 13.7679 18.0554H18.1156C18.6087 18.0554 19.0085 18.4552 19.0085 18.9483C19.0085 19.4414 18.6087 19.8411 18.1156 19.8411H13.7679C13.2748 19.8411 12.875 19.4414 12.875 18.9483Z" fill="url(#paint0_linear_3878_6547)"/>
<path d="M13.7679 23.8334C13.2748 23.8334 12.875 24.2331 12.875 24.7262C12.875 25.2193 13.2748 25.6191 13.7679 25.6191H18.1156C18.6087 25.6191 19.0085 25.2193 19.0085 24.7262C19.0085 24.2331 18.6087 23.8334 18.1156 23.8334H13.7679Z" fill="url(#paint1_linear_3878_6547)"/>
<path fill-rule="evenodd" clip-rule="evenodd" d="M9.83 22.5197H8.06812V22.5135C4.78399 22.3683 2.16602 19.6598 2.16602 16.3398C2.16602 12.9565 4.88498 10.2082 8.25707 10.1607C8.50904 6.13911 11.8506 2.95532 15.9356 2.95532C20.0209 2.95532 23.3623 6.13911 23.6143 10.1607C26.9864 10.2082 29.7053 12.9565 29.7053 16.3398C29.7053 19.6547 27.0954 22.3599 23.8184 22.5128V22.5197H22.0415V27.1752C22.0415 27.8327 21.5085 28.3656 20.851 28.3656H11.0205C10.363 28.3656 9.83 27.8327 9.83 27.1752V22.5197ZM8.24771 20.734L8.147 20.7296C5.81323 20.6264 3.95173 18.7 3.95173 16.3398C3.95173 13.9343 5.88505 11.9799 8.28219 11.9462L9.93587 11.923L10.0393 10.2724C10.2327 7.18583 12.7993 4.74104 15.9356 4.74104C19.0721 4.74104 21.6387 7.18583 21.8321 10.2724L21.9355 11.923L23.5892 11.9462C25.9864 11.98 27.9196 13.9343 27.9196 16.3398C27.9196 18.6964 26.0639 20.6204 23.7352 20.7291L23.6291 20.734H22.0415V16.0962C22.0415 15.4387 21.5085 14.9058 20.851 14.9058H11.0205C10.363 14.9058 9.83 15.4387 9.83 16.0962V20.734H8.24771ZM20.2558 20.734H11.6157V16.6915H20.2558V20.734ZM11.6157 22.5286H20.2558V26.5799H11.6157V22.5286Z" fill="url(#paint2_linear_3878_6547)"/>
<path d="M30.999 37.6291C30.999 37.136 31.3988 36.7362 31.8919 36.7362H36.2396C36.7328 36.7362 37.1325 37.136 37.1325 37.6291C37.1325 38.1222 36.7328 38.5219 36.2396 38.5219H31.8919C31.3988 38.5219 30.999 38.1222 30.999 37.6291Z" fill="url(#paint3_linear_3878_6547)"/>
<path d="M31.8919 42.5142C31.3988 42.5142 30.999 42.9139 30.999 43.407C30.999 43.9001 31.3988 44.2999 31.8919 44.2999H36.2397C36.7328 44.2999 37.1326 43.9001 37.1326 43.407C37.1326 42.9139 36.7328 42.5142 36.2397 42.5142H31.8919Z" fill="url(#paint4_linear_3878_6547)"/>
<path fill-rule="evenodd" clip-rule="evenodd" d="M40.1723 41.1984H41.9493V41.1915C45.2263 41.0386 47.8363 38.3333 47.8363 35.0186C47.8363 31.6352 45.1174 28.8869 41.7452 28.8394C41.4933 24.8177 38.1518 21.634 34.0666 21.634C29.9815 21.634 26.64 24.8177 26.3879 28.8394C23.0159 28.8869 20.2969 31.6351 20.2969 35.0186C20.2969 38.3384 22.9149 41.047 26.199 41.1921V41.1984H27.9609V45.8539C27.9609 46.5113 28.4939 47.0444 29.1514 47.0444H38.9819C39.6394 47.0444 40.1723 46.5113 40.1723 45.8539V41.1984ZM26.2779 39.4082L26.3787 39.4126H27.9609V34.7749C27.9609 34.1174 28.4939 33.5844 29.1514 33.5844H38.9819C39.6394 33.5844 40.1723 34.1174 40.1723 34.7749V39.4126H41.7601L41.866 39.4077C44.1947 39.299 46.0506 37.375 46.0506 35.0186C46.0506 32.613 44.1172 30.6587 41.7201 30.6249L40.0664 30.6017L39.9631 28.9511C39.7696 25.8645 37.2029 23.4197 34.0666 23.4197C30.9303 23.4197 28.3635 25.8645 28.1702 28.9511L28.0668 30.6017L26.4131 30.6249C24.0159 30.6587 22.0826 32.613 22.0826 35.0186C22.0826 37.3787 23.9441 39.305 26.2779 39.4082ZM38.3866 39.4126V35.3701H29.7466V39.4126H38.3866ZM29.7466 41.2072H38.3866V45.2587H29.7466V41.2072Z" fill="url(#paint5_linear_3878_6547)"/>
<path d="M38.4151 6.22629C35.1264 4.83797 31.4733 5.56164 28.9695 7.78788C28.601 8.11554 28.0366 8.08242 27.709 7.71391C27.3814 7.3454 27.4145 6.78104 27.7829 6.45339C30.782 3.78685 35.1627 2.91501 39.1095 4.58116C44.5772 6.88937 47.1386 13.1931 44.8304 18.6608C44.6897 18.9939 44.5342 19.3163 44.3648 19.6277L45.9653 19.1746C46.4398 19.0403 46.9333 19.3161 47.0676 19.7906C47.202 20.265 46.9261 20.7586 46.4517 20.8928L42.5813 21.9884C42.1069 22.1228 41.6133 21.8471 41.479 21.3726L40.3829 17.502C40.2486 17.0276 40.5244 16.534 40.9988 16.3996C41.4733 16.2653 41.9667 16.5411 42.1011 17.0155L42.6651 19.0071C42.858 18.6763 43.0321 18.329 43.1852 17.9663C45.11 13.4071 42.9742 8.15095 38.4151 6.22629Z" fill="url(#paint6_linear_3878_6547)"/>
<defs>
<linearGradient id="paint0_linear_3878_6547" x1="12.948" y1="19.4784" x2="18.9227" y2="19.4359" gradientUnits="userSpaceOnUse">
<stop stop-color="#434AE4"/>
<stop offset="0.5" stop-color="#5441B7"/>
<stop offset="1" stop-color="#E86343"/>
</linearGradient>
<linearGradient id="paint1_linear_3878_6547" x1="12.948" y1="25.2564" x2="18.9227" y2="25.2139" gradientUnits="userSpaceOnUse">
<stop stop-color="#434AE4"/>
<stop offset="0.5" stop-color="#5441B7"/>
<stop offset="1" stop-color="#E86343"/>
</linearGradient>
<linearGradient id="paint2_linear_3878_6547" x1="2.49386" y1="23.2042" x2="29.3214" y2="23.144" gradientUnits="userSpaceOnUse">
<stop stop-color="#434AE4"/>
<stop offset="0.5" stop-color="#5441B7"/>
<stop offset="1" stop-color="#E86343"/>
</linearGradient>
<linearGradient id="paint3_linear_3878_6547" x1="31.072" y1="38.1592" x2="37.0467" y2="38.1167" gradientUnits="userSpaceOnUse">
<stop stop-color="#434AE4"/>
<stop offset="0.5" stop-color="#5441B7"/>
<stop offset="1" stop-color="#E86343"/>
</linearGradient>
<linearGradient id="paint4_linear_3878_6547" x1="31.072" y1="43.9372" x2="37.0468" y2="43.8947" gradientUnits="userSpaceOnUse">
<stop stop-color="#434AE4"/>
<stop offset="0.5" stop-color="#5441B7"/>
<stop offset="1" stop-color="#E86343"/>
</linearGradient>
<linearGradient id="paint5_linear_3878_6547" x1="20.6247" y1="41.8829" x2="47.4524" y2="41.8227" gradientUnits="userSpaceOnUse">
<stop stop-color="#434AE4"/>
<stop offset="0.5" stop-color="#5441B7"/>
<stop offset="1" stop-color="#E86343"/>
</linearGradient>
<linearGradient id="paint6_linear_3878_6547" x1="27.7169" y1="18.3073" x2="46.8281" y2="18.2649" gradientUnits="userSpaceOnUse">
<stop stop-color="#434AE4"/>
<stop offset="0.5" stop-color="#5441B7"/>
<stop offset="1" stop-color="#E86343"/>
</linearGradient>
</defs>
</svg>
