<svg width="50" height="50" viewBox="0 0 50 50" fill="none" xmlns="http://www.w3.org/2000/svg">
<path d="M48.4992 30.8816C48.2453 27.6638 46.7541 24.738 44.3 22.6423C43.8049 22.2195 43.2824 21.8435 42.7395 21.5134V19.2781C42.7395 18.5818 42.2639 17.9939 41.5832 17.8474L38.4817 17.1814C38.3742 17.158 38.3039 17.0964 38.2678 16.9929C38.0959 16.5037 37.8938 16.0173 37.6682 15.5476C37.6203 15.448 37.6262 15.3552 37.6858 15.2625L39.4084 12.5964C39.7864 12.0115 39.7063 11.2595 39.2141 10.7673L35.8742 7.42749C35.3821 6.9353 34.6301 6.85522 34.0451 7.23315L31.3791 8.95581C31.2864 9.01538 31.1936 9.02124 31.094 8.97339C30.6242 8.74683 30.1379 8.54565 29.6487 8.37378C29.5451 8.33765 29.4836 8.26733 29.4602 8.15991L28.7942 5.05737C28.6477 4.37671 28.0598 3.9021 27.3635 3.9021H22.6399C21.9436 3.9021 21.3557 4.37769 21.2092 5.05835L20.5432 8.16089C20.5198 8.26831 20.4582 8.33862 20.3547 8.37476C19.8645 8.54663 19.3781 8.74878 18.9094 8.97437C18.8108 9.02222 18.717 9.01636 18.6242 8.95679L15.9582 7.23413C15.3733 6.8562 14.6213 6.93628 14.1291 7.42847L10.7893 10.7683C10.2971 11.2605 10.217 12.0125 10.5949 12.5974L12.3176 15.2634C12.3772 15.3562 12.383 15.449 12.3352 15.5486C12.1086 16.0183 11.9065 16.5046 11.7356 16.9939C11.6994 17.0974 11.6291 17.1589 11.5217 17.1824L8.41916 17.8484C7.7385 17.9949 7.26291 18.5828 7.26291 19.2791V23.5232C6.19651 24.1716 5.21311 24.9968 4.35959 25.9968C2.26389 28.4509 1.24924 31.5749 1.50315 34.7927C1.75706 38.0105 3.24827 40.9363 5.70237 43.032C7.73362 44.7664 10.2131 45.7605 12.8733 45.908C13.093 45.9197 13.3117 45.9265 13.5315 45.9265C15.3908 45.9265 17.2414 45.4919 18.9026 44.6746L18.7073 45.3513C18.6174 45.6619 18.7971 45.9871 19.1076 46.0769C19.1623 46.0925 19.217 46.1003 19.2707 46.1003C19.5246 46.1003 19.759 45.9333 19.8332 45.6765L20.4582 43.5125C20.5481 43.2019 20.3684 42.8767 20.0578 42.7869L17.8938 42.1619C17.5823 42.072 17.258 42.2517 17.1682 42.5623C17.0783 42.8728 17.258 43.198 17.5686 43.2878L18.5139 43.5613C14.633 45.5388 9.83127 45.0173 6.46311 42.1423C4.24631 40.2498 2.89963 37.6072 2.67112 34.7019C2.4426 31.7966 3.35862 28.9763 5.2512 26.7595C9.15842 22.1843 16.0588 21.6404 20.634 25.5476C22.8283 27.4216 24.2073 30.0955 24.4162 32.8835C24.6487 35.9812 26.176 38.947 28.6067 41.0222C31.0608 43.1179 34.1848 44.1326 37.4026 43.8787C40.6203 43.6248 43.5461 42.1335 45.6418 39.6794C47.7375 37.2224 48.7522 34.0994 48.4992 30.8816ZM8.43577 22.8962V19.2781C8.43577 19.1375 8.52854 19.0232 8.66623 18.9929L11.7678 18.3269C12.2776 18.2175 12.6692 17.8728 12.841 17.3806C12.9983 16.9324 13.1828 16.4871 13.3908 16.0564C13.6174 15.5857 13.5852 15.0652 13.302 14.6267L11.5793 11.9607C11.5022 11.8406 11.5168 11.698 11.6184 11.5964L14.9582 8.25659C15.0598 8.15601 15.2024 8.14038 15.3225 8.21753L17.9885 9.94116C18.427 10.2244 18.9475 10.2566 19.4182 10.03C19.8479 9.823 20.2932 9.63745 20.7424 9.48022C21.2346 9.30737 21.5793 8.91675 21.6887 8.40698L22.3547 5.30444C22.385 5.1648 22.4963 5.07397 22.6399 5.07397H27.3635C27.5061 5.07397 27.6184 5.16382 27.6487 5.30444L28.3147 8.40698C28.424 8.91675 28.7688 9.30835 29.261 9.48022C29.7092 9.63745 30.1545 9.82202 30.5852 10.03C31.0549 10.2566 31.5764 10.2244 32.0149 9.94116L34.6809 8.21851C34.799 8.14233 34.9455 8.15796 35.0451 8.25757L38.385 11.5974C38.4865 11.699 38.5012 11.8416 38.424 11.9617L36.7014 14.6277C36.4182 15.0662 36.386 15.5876 36.6125 16.0574C36.8196 16.4871 37.0051 16.9333 37.1623 17.3816C37.3342 17.8738 37.7258 18.2185 38.2356 18.3279L41.3381 18.9939C41.4758 19.0232 41.5686 19.1375 41.5686 19.2791V20.8865C39.6897 20.0095 37.6281 19.6355 35.5901 19.7791C34.7004 14.6746 30.2463 10.8923 25.0031 10.8923C19.0764 10.8923 14.2551 15.7146 14.2551 21.6404C14.2551 21.6892 14.2571 21.7371 14.258 21.7859C12.2658 21.6716 10.261 22.0466 8.43577 22.8962ZM33.4006 20.1394C33.0744 18.3025 32.1545 16.6208 30.7629 15.3464C29.1867 13.9031 27.1408 13.1082 25.0022 13.1082C20.2971 13.1082 16.4699 16.9353 16.4699 21.6404C16.4699 21.8015 16.4758 21.9626 16.4856 22.1238C16.1369 22.0369 15.7844 21.9656 15.4309 21.9109C15.428 21.821 15.426 21.7302 15.426 21.6404C15.426 16.3601 19.7219 12.0642 25.0022 12.0642C29.6535 12.0642 33.6057 15.4041 34.4231 19.9207C34.0793 19.9783 33.7385 20.0515 33.4006 20.1394ZM44.7512 38.9158C42.8586 41.1326 40.216 42.4792 37.3108 42.7078C34.4045 42.9373 31.5852 42.0203 29.3684 40.1277C27.174 38.2537 25.7951 35.5798 25.5862 32.7917C25.3537 29.6941 23.8264 26.7283 21.3957 24.6531C20.2668 23.6892 19.01 22.9705 17.6906 22.491C17.6584 22.2087 17.6408 21.9236 17.6408 21.6394C17.6408 17.5808 20.9426 14.2791 25.0012 14.2791C28.6692 14.2791 31.717 16.9187 32.2707 20.49C31.8039 20.6619 31.3449 20.864 30.8967 21.0964L31.1086 20.364C31.1985 20.0535 31.0188 19.7283 30.7082 19.6384C30.3967 19.5486 30.0725 19.7283 29.9826 20.0388L29.3576 22.2039C29.2678 22.5144 29.4475 22.8396 29.758 22.9294L31.9231 23.5544C31.9778 23.5701 32.0324 23.5779 32.0862 23.5779C32.3401 23.5779 32.5744 23.4109 32.6487 23.1541C32.7385 22.8435 32.5588 22.5183 32.2483 22.4285L31.3684 22.1746C35.2737 20.115 40.1135 20.6072 43.5403 23.533C48.1135 27.4402 48.6574 34.3406 44.7512 38.9158Z" fill="url(#paint0_linear_3878_6584)"/>
<defs>
<linearGradient id="paint0_linear_3878_6584" x1="2.02523" y1="37.5288" x2="47.881" y2="37.4229" gradientUnits="userSpaceOnUse">
<stop stop-color="#434AE4"/>
<stop offset="0.5" stop-color="#5441B7"/>
<stop offset="1" stop-color="#E86343"/>
</linearGradient>
</defs>
</svg>
