<svg width="50" height="50" viewBox="0 0 50 50" fill="none" xmlns="http://www.w3.org/2000/svg">
<path d="M49.2188 19.2004H39.9423C39.5345 11.3117 32.9883 5.01917 25 5.01917C17.0117 5.01917 10.4655 11.3117 10.0577 19.2004H0.78125C0.57405 19.2004 0.375336 19.2827 0.228823 19.4292C0.08231 19.5757 0 19.7745 0 19.9817L0 23.643C-1.69568e-06 23.8322 0.0686584 24.015 0.193231 24.1574C0.317803 24.2998 0.489821 24.3921 0.677344 24.4173L5.4668 25.06C5.93448 26.8648 6.6521 28.5954 7.59883 30.2016L4.66514 34.0442C4.55028 34.1945 4.49391 34.3815 4.50648 34.5703C4.51905 34.7591 4.59972 34.9369 4.7335 35.0707L9.91074 40.2481C10.0446 40.3818 10.2224 40.4625 10.4112 40.4751C10.6 40.4877 10.7869 40.4313 10.9373 40.3164L14.7809 37.3823C16.3869 38.3288 18.1173 39.0462 19.9219 39.5138L20.5647 44.3044C20.5899 44.4919 20.6823 44.6639 20.8247 44.7885C20.9671 44.913 21.1499 44.9817 21.3391 44.9817H28.6609C28.8501 44.9817 29.0329 44.913 29.1753 44.7884C29.3177 44.6639 29.4101 44.4918 29.4353 44.3043L30.0781 39.5144C31.8827 39.0468 33.6132 38.3295 35.2193 37.3832L39.0625 40.3166C39.2129 40.4315 39.3998 40.4879 39.5886 40.4753C39.7774 40.4627 39.9552 40.382 40.0891 40.2483L45.2663 35.0709C45.4001 34.9371 45.4808 34.7593 45.4933 34.5705C45.5059 34.3817 45.4495 34.1947 45.3347 34.0444L42.401 30.2013C43.3476 28.5951 44.0652 26.8646 44.5329 25.0598L49.3225 24.4171C49.51 24.392 49.682 24.2997 49.8066 24.1573C49.9312 24.0149 49.9999 23.8322 50 23.643V19.9817C50 19.7745 49.9177 19.5757 49.7712 19.4292C49.6247 19.2827 49.4259 19.2004 49.2188 19.2004ZM25 6.58166C32.3889 6.58166 38.4001 12.5929 38.4001 19.9817C38.4001 27.3704 32.3889 33.3818 25 33.3818C17.6111 33.3818 11.5999 27.3706 11.5999 19.9817C11.5999 12.5927 17.6111 6.58166 25 6.58166ZM48.4375 22.9594L43.7971 23.5822C43.6396 23.6033 43.4924 23.6719 43.3749 23.7789C43.2575 23.8859 43.1754 24.0261 43.1397 24.1809C42.6781 26.1837 41.8854 28.0955 40.7943 29.8373C40.71 29.9721 40.6688 30.1293 40.6761 30.2881C40.6835 30.4469 40.7392 30.5997 40.8356 30.726L43.6782 34.4496L39.4674 38.6604L35.7438 35.818C35.6175 35.7215 35.4648 35.6658 35.306 35.6584C35.1472 35.651 34.9899 35.6923 34.8552 35.7766C33.1134 36.8672 31.2018 37.6596 29.1992 38.1211C29.0444 38.1568 28.9042 38.2389 28.7972 38.3563C28.6902 38.4738 28.6216 38.6211 28.6005 38.7785L27.9778 43.4192H22.0225L21.3996 38.7778C21.3785 38.6203 21.3098 38.473 21.2028 38.3556C21.0958 38.2381 20.9556 38.1561 20.8008 38.1204C18.7981 37.659 16.8866 36.8665 15.1448 35.7757C15.0101 35.6914 14.8528 35.6502 14.694 35.6576C14.5352 35.665 14.3825 35.7206 14.2562 35.8171L10.5322 38.6599L6.32178 34.4491L9.16426 30.7256C9.26073 30.5993 9.31638 30.4465 9.32376 30.2877C9.33114 30.1289 9.28991 29.9717 9.20557 29.8369C8.11442 28.0951 7.32175 26.1833 6.86025 24.1804C6.82455 24.0256 6.74251 23.8854 6.62507 23.7784C6.50763 23.6714 6.36037 23.6028 6.20293 23.5817L1.5625 22.9594V20.7631H10.0577C10.4655 28.6517 17.0117 34.9443 25 34.9443C32.9883 34.9443 39.5345 28.6517 39.9423 20.7629H48.4375V22.9594ZM16.4931 26.0484C16.88 26.2712 17.3101 26.4087 17.7545 26.4515C17.7468 26.9764 17.8713 27.4948 18.1167 27.9589C18.362 28.4229 18.7203 28.8178 19.1584 29.107C19.5965 29.3962 20.1004 29.5704 20.6235 29.6136C21.1467 29.6568 21.6723 29.5676 22.152 29.3542C22.3993 29.9024 22.7996 30.3676 23.3048 30.694C23.81 31.0203 24.3986 31.1939 25 31.1939C25.6015 31.1939 26.1901 31.0203 26.6953 30.694C27.2005 30.3676 27.6008 29.9024 27.8481 29.3542C28.3278 29.5676 28.8534 29.6568 29.3766 29.6136C29.8997 29.5703 30.4036 29.3961 30.8417 29.1069C31.2798 28.8177 31.638 28.4228 31.8833 27.9587C32.1287 27.4947 32.2532 26.9763 32.2455 26.4514C32.9992 26.3783 33.7008 26.0342 34.22 25.483C34.7392 24.9317 35.0407 24.2109 35.0687 23.4541C35.0966 22.6974 34.849 21.9563 34.3719 21.3683C33.8948 20.7803 33.2205 20.3854 32.4742 20.2569C32.4304 20.2493 32.3861 20.2455 32.3416 20.2455H31.6866V16.9853L34.427 15.4032C34.5165 15.3523 34.5951 15.2842 34.6583 15.2028C34.7214 15.1213 34.7678 15.0282 34.7948 14.9288C34.8218 14.8294 34.8288 14.7256 34.8156 14.6234C34.8023 14.5212 34.7689 14.4227 34.7174 14.3335C34.6659 14.2442 34.5972 14.1661 34.5154 14.1035C34.4335 14.0409 34.3401 13.9951 34.2405 13.9688C34.1409 13.9425 34.0371 13.9361 33.935 13.95C33.8329 13.964 33.7346 13.998 33.6457 14.0501L30.5147 15.8577C30.396 15.9263 30.2973 16.0249 30.2288 16.1437C30.1602 16.2625 30.1241 16.3972 30.1241 16.5344V20.2453H27.8666V15.0046L31.7557 11.8738C31.837 11.8099 31.9048 11.7305 31.9552 11.6403C32.0056 11.55 32.0376 11.4506 32.0493 11.3479C32.0611 11.2452 32.0523 11.1411 32.0235 11.0418C31.9947 10.9425 31.9465 10.8499 31.8817 10.7694C31.8168 10.6889 31.7367 10.622 31.6458 10.5727C31.5549 10.5234 31.4552 10.4926 31.3523 10.4821C31.2494 10.4716 31.1455 10.4817 31.0466 10.5117C30.9476 10.5416 30.8556 10.591 30.7759 10.6568L26.5955 14.0221C26.5046 14.0953 26.4312 14.188 26.3807 14.2933C26.3303 14.3986 26.3041 14.5138 26.3041 14.6306V20.2458H23.6959V14.6306C23.6959 14.5138 23.6697 14.3986 23.6193 14.2933C23.5688 14.188 23.4954 14.0953 23.4045 14.0221L19.2241 10.6568C19.1444 10.591 19.0524 10.5416 18.9534 10.5117C18.8545 10.4817 18.7506 10.4716 18.6477 10.4821C18.5448 10.4926 18.4451 10.5234 18.3542 10.5727C18.2633 10.622 18.1832 10.6889 18.1183 10.7694C18.0535 10.8499 18.0053 10.9425 17.9765 11.0418C17.9477 11.1411 17.9389 11.2452 17.9507 11.3479C17.9624 11.4506 17.9944 11.55 18.0448 11.6403C18.0952 11.7305 18.163 11.8099 18.2443 11.8738L22.1334 15.0046V20.2456H19.8759V16.5347C19.8759 16.3975 19.8398 16.2628 19.7712 16.144C19.7027 16.0252 19.604 15.9266 19.4853 15.858L16.3543 14.0504C16.2654 13.9983 16.1671 13.9643 16.065 13.9503C15.9629 13.9364 15.8591 13.9428 15.7595 13.9691C15.6599 13.9954 15.5665 14.0412 15.4846 14.1038C15.4028 14.1664 15.3341 14.2445 15.2826 14.3338C15.2311 14.423 15.1977 14.5215 15.1845 14.6237C15.1712 14.7259 15.1782 14.8296 15.2052 14.9291C15.2322 15.0285 15.2786 15.1216 15.3417 15.203C15.4049 15.2845 15.4835 15.3526 15.573 15.4035L18.3134 16.9856V20.2459H17.6584C17.614 20.2459 17.5696 20.2497 17.5258 20.2572C16.8923 20.3665 16.3078 20.6683 15.852 21.1216C15.3961 21.5749 15.091 22.1576 14.9781 22.7905C14.8653 23.4234 14.9502 24.0757 15.2212 24.6586C15.4923 25.2415 15.9364 25.7268 16.4931 26.0484ZM16.5158 23.0647C16.5711 22.7582 16.7162 22.4751 16.9328 22.2514C17.1493 22.0276 17.4275 21.8733 17.732 21.8081H32.268C32.658 21.8909 33.0017 22.1194 33.229 22.447C33.4562 22.7746 33.55 23.1765 33.491 23.5708C33.4321 23.9651 33.2249 24.3221 32.9117 24.5688C32.5985 24.8156 32.203 24.9336 31.8059 24.8987C31.5745 24.5105 31.2621 24.1769 30.8899 23.9207C30.5177 23.6645 30.0945 23.4918 29.6493 23.4143C29.5477 23.3957 29.4435 23.3975 29.3426 23.4195C29.2418 23.4415 29.1462 23.4833 29.0616 23.5424C28.977 23.6016 28.9049 23.6769 28.8496 23.764C28.7942 23.8512 28.7567 23.9485 28.7392 24.0502C28.7216 24.152 28.7245 24.2562 28.7475 24.3568C28.7704 24.4575 28.8132 24.5526 28.8731 24.6366C28.9331 24.7207 29.0091 24.792 29.0968 24.8465C29.1845 24.901 29.2822 24.9375 29.3841 24.954C29.6211 24.9949 29.8455 25.0898 30.0399 25.2314C30.2343 25.373 30.3934 25.5575 30.505 25.7706C30.6166 25.9836 30.6775 26.2195 30.6832 26.46C30.6889 26.7004 30.639 26.9389 30.5376 27.157C30.4362 27.375 30.2859 27.5668 30.0984 27.7174C29.9109 27.868 29.6912 27.9734 29.4564 28.0253C29.2215 28.0773 28.9779 28.0745 28.7444 28.0171C28.5108 27.9596 28.2936 27.8492 28.1097 27.6943L28.1054 27.6906C28.0985 27.6327 28.0898 27.5748 28.0794 27.517C28.0758 27.4963 28.0719 27.4757 28.0679 27.4552C28.0481 27.3544 28.0086 27.2584 27.9517 27.1729C27.8948 27.0873 27.8215 27.0138 27.7362 26.9566C27.6508 26.8994 27.555 26.8596 27.4542 26.8395C27.3535 26.8193 27.2497 26.8193 27.1489 26.8393C27.0481 26.8594 26.9523 26.8991 26.8669 26.9562C26.7815 27.0133 26.7082 27.0868 26.6512 27.1723C26.5942 27.2578 26.5546 27.3537 26.5347 27.4545C26.5149 27.5553 26.5151 27.6591 26.5354 27.7598L26.5411 27.791C26.5971 28.1078 26.5543 28.4341 26.4187 28.7258C26.2831 29.0175 26.0611 29.2605 25.7828 29.4219C25.544 29.5568 25.2743 29.6277 25 29.6277C24.7257 29.6277 24.456 29.5568 24.2172 29.4219C23.9389 29.2605 23.717 29.0175 23.5814 28.7258C23.4457 28.4341 23.403 28.1078 23.4589 27.791L23.4646 27.7602C23.4849 27.6594 23.4851 27.5557 23.4653 27.4549C23.4454 27.3541 23.4058 27.2581 23.3488 27.1726C23.2918 27.0871 23.2185 27.0137 23.1331 26.9566C23.0477 26.8995 22.9519 26.8597 22.8511 26.8397C22.7503 26.8197 22.6465 26.8197 22.5458 26.8399C22.445 26.86 22.3492 26.8998 22.2638 26.957C22.1785 27.0142 22.1052 27.0877 22.0483 27.1733C21.9914 27.2588 21.9519 27.3548 21.9321 27.4556C21.9281 27.4761 21.9242 27.4967 21.9206 27.517C21.9103 27.575 21.9016 27.633 21.8946 27.691L21.8904 27.6946C21.7065 27.8495 21.4893 27.96 21.2558 28.0174C21.0222 28.0749 20.7786 28.0777 20.5437 28.0258C20.3089 27.9738 20.0892 27.8685 19.9017 27.7179C19.7141 27.5673 19.5638 27.3755 19.4624 27.1574C19.3609 26.9394 19.3111 26.7008 19.3168 26.4604C19.3224 26.22 19.3834 25.9841 19.495 25.771C19.6065 25.5579 19.7657 25.3734 19.9601 25.2318C20.1545 25.0902 20.3789 24.9953 20.6159 24.9544C20.7178 24.9379 20.8155 24.9013 20.9032 24.8469C20.9909 24.7924 21.0669 24.7211 21.1269 24.637C21.1868 24.553 21.2296 24.4579 21.2525 24.3572C21.2755 24.2566 21.2784 24.1524 21.2608 24.0506C21.2433 23.9489 21.2058 23.8516 21.1504 23.7644C21.0951 23.6773 21.023 23.602 20.9384 23.5428C20.8538 23.4837 20.7582 23.4419 20.6574 23.4199C20.5565 23.3979 20.4523 23.3961 20.3507 23.4147C19.9055 23.4922 19.4823 23.6649 19.1101 23.9211C18.7379 24.1773 18.4255 24.5109 18.1941 24.899C17.9546 24.9202 17.7135 24.8859 17.4894 24.7987C17.2653 24.7116 17.0643 24.574 16.9019 24.3966C16.7396 24.2193 16.6204 24.0069 16.5534 23.7759C16.4864 23.545 16.4736 23.3018 16.5158 23.0651V23.0647Z" fill="url(#paint0_linear_3878_6560)"/>
<defs>
<linearGradient id="paint0_linear_3878_6560" x1="0.595238" y1="36.8643" x2="49.3029" y2="36.7381" gradientUnits="userSpaceOnUse">
<stop stop-color="#434AE4"/>
<stop offset="0.5" stop-color="#5441B7"/>
<stop offset="1" stop-color="#E86343"/>
</linearGradient>
</defs>
</svg>
