<svg width="50" height="50" viewBox="0 0 50 50" fill="none" xmlns="http://www.w3.org/2000/svg">
<path d="M19.414 17.0781L14.7265 31.7031C14.6987 31.7844 14.6906 31.8711 14.7028 31.9561C14.715 32.0412 14.7472 32.1221 14.7968 32.1922C14.8463 32.2624 14.9119 32.3198 14.9879 32.3597C15.064 32.3996 15.1484 32.4209 15.2343 32.4219H16.5468C16.664 32.4215 16.7779 32.3833 16.8715 32.3129C16.9651 32.2425 17.0335 32.1437 17.0664 32.0312L17.8007 29.6875H24.2187L24.1289 29.543L24.9336 32.0312C24.9664 32.1437 25.0348 32.2425 25.1284 32.3129C25.222 32.3833 25.3359 32.4215 25.4531 32.4219H26.7656C26.8516 32.4224 26.9364 32.4025 27.0132 32.3638C27.09 32.3251 27.1564 32.2687 27.2072 32.1993C27.2579 32.1299 27.2914 32.0494 27.305 31.9645C27.3185 31.8796 27.3117 31.7927 27.2851 31.7109L22.5976 17.0859C22.5642 16.9738 22.4957 16.8754 22.4022 16.8051C22.3087 16.7348 22.1951 16.6963 22.0781 16.6953H19.9218C19.8077 16.6976 19.6972 16.7359 19.606 16.8046C19.5149 16.8733 19.4477 16.969 19.414 17.0781ZM18.582 27.3437L21 19.8164L23.4375 27.3437H18.582Z" fill="url(#paint0_linear_3878_4572)"/>
<path d="M32.6562 16.6992H31.4063C31.1042 16.6992 30.8594 16.9441 30.8594 17.2461V31.8711C30.8594 32.1731 31.1042 32.418 31.4063 32.418H32.6562C32.9583 32.418 33.2031 32.1731 33.2031 31.8711V17.2461C33.2031 16.9441 32.9583 16.6992 32.6562 16.6992Z" fill="url(#paint1_linear_3878_4572)"/>
<path d="M26.2734 38.2813H14.9062C14.0609 38.2813 13.2501 37.9454 12.6523 37.3477C12.0546 36.7499 11.7188 35.9391 11.7188 35.0938V14.9063C11.7188 14.0609 12.0546 13.2501 12.6523 12.6524C13.2501 12.0546 14.0609 11.7188 14.9062 11.7188H35.0937C35.9391 11.7188 36.7499 12.0546 37.3477 12.6524C37.9454 13.2501 38.2812 14.0609 38.2812 14.9063V25C38.2884 25.2131 38.3794 25.4148 38.5345 25.5611C38.6896 25.7074 38.8962 25.7865 39.1094 25.7813C39.7745 25.7792 40.4311 25.9317 41.0273 26.2266C41.1511 26.2901 41.2892 26.3204 41.4282 26.3146C41.5672 26.3088 41.7023 26.2671 41.8203 26.1935C41.9384 26.1199 42.0353 26.017 42.1017 25.8948C42.1681 25.7725 42.2017 25.6352 42.1992 25.4961V14.9063C42.1992 13.9737 42.0153 13.0503 41.6581 12.1889C41.3009 11.3275 40.7773 10.5449 40.1174 9.88607C39.4574 9.2272 38.674 8.70493 37.812 8.34912C36.95 7.99332 36.0263 7.81097 35.0937 7.81251H14.9062C13.0249 7.81251 11.2205 8.55988 9.89021 9.89022C8.55988 11.2206 7.8125 13.0249 7.8125 14.9063V35.0938C7.8125 36.9751 8.55988 38.7795 9.89021 40.1098C11.2205 41.4401 13.0249 42.1875 14.9062 42.1875H27.9141C28.0739 42.1877 28.2302 42.1405 28.3632 42.0519C28.4963 41.9633 28.6001 41.8373 28.6615 41.6898C28.723 41.5422 28.7393 41.3798 28.7085 41.2229C28.6776 41.0661 28.601 40.9219 28.4883 40.8086C27.8805 40.251 27.3881 39.5794 27.0391 38.832C26.9831 38.6729 26.8797 38.5348 26.7428 38.4363C26.6059 38.3378 26.4421 38.2837 26.2734 38.2813Z" fill="url(#paint2_linear_3878_4572)"/>
<path d="M43.643 39.7656L47.1821 38.3711C47.255 38.3423 47.3175 38.2923 47.3615 38.2275C47.4056 38.1627 47.4292 38.0862 47.4292 38.0078C47.4292 37.9295 47.4056 37.8529 47.3615 37.7881C47.3175 37.7234 47.255 37.6733 47.1821 37.6445L43.643 36.25C43.0166 36.0023 42.4475 35.6287 41.9712 35.1523C41.4948 34.676 41.1212 34.107 40.8735 33.4805L39.479 29.9648C39.45 29.8922 39.3999 29.8298 39.3352 29.786C39.2704 29.7421 39.1939 29.7187 39.1157 29.7188C39.0375 29.7187 38.961 29.7421 38.8962 29.786C38.8315 29.8298 38.7814 29.8922 38.7524 29.9648L37.3579 33.4805C37.1108 34.1073 36.7374 34.6766 36.261 35.1531C35.7845 35.6295 35.2152 36.0029 34.5884 36.25L31.0727 37.6445C30.9999 37.6733 30.9374 37.7234 30.8933 37.7881C30.8492 37.8529 30.8257 37.9295 30.8257 38.0078C30.8257 38.0862 30.8492 38.1627 30.8933 38.2275C30.9374 38.2923 30.9999 38.3423 31.0727 38.3711L34.5884 39.7656C35.2152 40.0127 35.7845 40.3861 36.261 40.8625C36.7374 41.339 37.1108 41.9083 37.3579 42.5352L38.7524 46.0508C38.7807 46.1242 38.8306 46.1873 38.8954 46.2319C38.9602 46.2766 39.037 46.3005 39.1157 46.3008C39.1944 46.3005 39.2712 46.2766 39.336 46.2319C39.4008 46.1873 39.4507 46.1242 39.479 46.0508L40.8735 42.5352C41.1212 41.9087 41.4948 41.3396 41.9712 40.8633C42.4475 40.3869 43.0166 40.0133 43.643 39.7656Z" fill="url(#paint3_linear_3878_4572)"/>
<defs>
<linearGradient id="paint0_linear_3878_4572" x1="14.8474" y1="29.2274" x2="27.1359" y2="29.207" gradientUnits="userSpaceOnUse">
<stop stop-color="#434AE4"/>
<stop offset="0.5" stop-color="#5441B7"/>
<stop offset="1" stop-color="#E86343"/>
</linearGradient>
<linearGradient id="paint1_linear_3878_4572" x1="30.8873" y1="29.2251" x2="33.1705" y2="29.2244" gradientUnits="userSpaceOnUse">
<stop stop-color="#434AE4"/>
<stop offset="0.5" stop-color="#5441B7"/>
<stop offset="1" stop-color="#E86343"/>
</linearGradient>
<linearGradient id="paint2_linear_3878_4572" x1="8.22187" y1="35.2051" x2="41.72" y2="35.1357" gradientUnits="userSpaceOnUse">
<stop stop-color="#434AE4"/>
<stop offset="0.5" stop-color="#5441B7"/>
<stop offset="1" stop-color="#E86343"/>
</linearGradient>
<linearGradient id="paint3_linear_3878_4572" x1="31.0233" y1="42.9326" x2="47.1977" y2="42.899" gradientUnits="userSpaceOnUse">
<stop stop-color="#434AE4"/>
<stop offset="0.5" stop-color="#5441B7"/>
<stop offset="1" stop-color="#E86343"/>
</linearGradient>
</defs>
</svg>
