<svg width="72" height="72" viewBox="0 0 72 72" fill="none" xmlns="http://www.w3.org/2000/svg">
<rect width="72" height="72" rx="36" fill="#D1FAE5"/>
<path d="M36 13.5C31.5499 13.5 27.1998 14.8196 23.4997 17.2919C19.7996 19.7643 16.9157 23.2783 15.2127 27.3896C13.5097 31.501 13.0642 36.025 13.9323 40.3895C14.8005 44.7541 16.9434 48.7632 20.0901 51.9099C23.2368 55.0566 27.2459 57.1995 31.6105 58.0677C35.9751 58.9358 40.4991 58.4903 44.6104 56.7873C48.7217 55.0843 52.2357 52.2004 54.7081 48.5003C57.1804 44.8002 58.5 40.4501 58.5 36C58.4933 30.0347 56.1206 24.3157 51.9025 20.0976C47.6844 15.8794 41.9653 13.5067 36 13.5ZM36 55.5C32.9025 55.5 29.6595 51.507 28.05 45H43.95C42.3405 51.507 39.0975 55.5 36 55.5ZM27.441 42C26.853 38.0216 26.853 33.9784 27.441 30H44.559C44.8565 31.9861 45.0039 33.9918 45 36C45.0039 38.0082 44.8565 40.0139 44.559 42H27.441ZM16.5 36C16.5011 33.9623 16.823 31.9375 17.454 30H24.429C23.857 33.9796 23.857 38.0204 24.429 42H17.454C16.823 40.0625 16.5011 38.0377 16.5 36ZM36 16.5C39.0975 16.5 42.3405 20.493 43.95 27H28.05C29.6595 20.493 32.9025 16.5 36 16.5ZM47.571 30H54.546C55.8177 33.8989 55.8177 38.1011 54.546 42H47.571C47.8555 40.0126 47.9988 38.0076 48 36C47.9988 33.9924 47.8555 31.9874 47.571 30ZM53.2815 27H47.031C46.3635 23.7375 45.0547 20.6401 43.1805 17.8875C47.5277 19.6212 51.1108 22.8537 53.2815 27ZM28.8195 17.8875C26.9454 20.6401 25.6365 23.7375 24.969 27H18.7185C20.8892 22.8537 24.4723 19.6212 28.8195 17.8875ZM18.7185 45H24.969C25.6365 48.2625 26.9454 51.3599 28.8195 54.1125C24.4723 52.3788 20.8892 49.1463 18.7185 45ZM43.1805 54.1125C45.0547 51.3599 46.3635 48.2625 47.031 45H53.2815C51.1108 49.1463 47.5277 52.3788 43.1805 54.1125Z" fill="#059669"/>
</svg>
