<svg width="50" height="50" viewBox="0 0 50 50" fill="none" xmlns="http://www.w3.org/2000/svg">
<path d="M43.0681 47.9229C43.0321 47.923 42.9961 47.92 42.9606 47.9141L30.5897 45.929C30.5021 45.9149 30.4181 45.8837 30.3425 45.8372C30.2669 45.7907 30.2012 45.7297 30.1492 45.6578C30.0972 45.5859 30.0599 45.5045 30.0393 45.4181C30.0188 45.3318 30.0155 45.2423 30.0295 45.1546L30.4823 42.3344C30.5901 41.6638 30.9598 41.0636 31.5101 40.6655C32.0603 40.2674 32.7461 40.1041 33.4167 40.2114L42.0654 41.5992C42.3976 41.6522 42.7161 41.7702 43.0027 41.9464C43.2893 42.1226 43.5383 42.3536 43.7356 42.6262C43.9328 42.8987 44.0744 43.2075 44.1522 43.5348C44.23 43.8621 44.2425 44.2015 44.189 44.5337L43.737 47.354C43.7115 47.5129 43.6302 47.6576 43.5075 47.7619C43.3849 47.8662 43.2291 47.9233 43.0681 47.9229ZM31.4708 44.7019L42.5073 46.4729L42.8532 44.3195C42.9038 44.0027 42.8266 43.6787 42.6384 43.4189C42.4503 43.159 42.1666 42.9845 41.8498 42.9337L33.2012 41.5459C33.0443 41.5205 32.8839 41.5263 32.7293 41.563C32.5747 41.5997 32.4288 41.6665 32.3 41.7597C32.1712 41.8528 32.0621 41.9704 31.9788 42.1058C31.8955 42.2412 31.8397 42.3916 31.8147 42.5486L31.4708 44.7019Z" fill="url(#paint0_linear_3878_5860)"/>
<path d="M33.3553 41.5616C33.3194 41.5615 33.2834 41.5588 33.2479 41.5534C33.1603 41.5394 33.0763 41.5082 33.0007 41.4617C32.9251 41.4152 32.8594 41.3542 32.8074 41.2823C32.7554 41.2104 32.7181 41.129 32.6975 41.0426C32.677 40.9563 32.6737 40.8667 32.6878 40.7791L33.7526 34.1399C33.9234 33.0915 34.3213 32.0931 34.9184 31.2146C35.5155 30.3361 36.2974 29.5987 37.2094 29.0541L37.9182 24.6386C37.9669 24.3049 38.0815 23.9843 38.2552 23.6953C38.429 23.4064 38.6584 23.1548 38.9302 22.9553C39.202 22.7557 39.5108 22.6122 39.8385 22.5331C40.1663 22.4539 40.5065 22.4406 40.8394 22.4941C41.1723 22.5476 41.4913 22.6666 41.7778 22.8444C42.0643 23.0222 42.3126 23.2552 42.5083 23.5298C42.704 23.8044 42.8431 24.1151 42.9177 24.444C42.9922 24.7728 43.0006 25.1132 42.9425 25.4453L41.5236 34.2967C41.5116 34.3861 41.4819 34.4723 41.4361 34.5501C41.3904 34.6278 41.3295 34.6957 41.257 34.7495C41.1846 34.8034 41.1022 34.8422 41.0145 34.8636C40.9269 34.8851 40.8358 34.8888 40.7467 34.8745C40.6576 34.8602 40.5722 34.8282 40.4957 34.7803C40.4192 34.7325 40.353 34.6698 40.3011 34.596C40.2492 34.5222 40.2126 34.4387 40.1935 34.3505C40.1744 34.2623 40.1731 34.1712 40.1898 34.0825L41.6087 25.2311C41.6335 25.0765 41.6277 24.9184 41.5915 24.7661C41.5552 24.6137 41.4893 24.4699 41.3975 24.343C41.3057 24.216 41.1898 24.1084 41.0565 24.0263C40.9231 23.9442 40.7748 23.8891 40.6202 23.8643C40.4655 23.8394 40.3075 23.8453 40.1551 23.8815C40.0027 23.9177 39.8589 23.9836 39.732 24.0754C39.6051 24.1672 39.4975 24.2831 39.4153 24.4165C39.3332 24.5499 39.2781 24.6981 39.2533 24.8528L38.4925 29.5947C38.4759 29.6979 38.4356 29.7958 38.3748 29.8808C38.3139 29.9658 38.2342 30.0356 38.1418 30.0845C37.3386 30.5139 36.6452 31.1227 36.1155 31.8635C35.5857 32.6043 35.2338 33.4573 35.0871 34.3561L34.0222 40.9947C33.9964 41.1529 33.9151 41.2968 33.793 41.4007C33.6708 41.5045 33.5157 41.5616 33.3553 41.5616Z" fill="url(#paint1_linear_3878_5860)"/>
<path d="M41.9096 42.9345C41.7907 42.9344 41.674 42.9029 41.5712 42.8432C41.4684 42.7835 41.3831 42.6978 41.3241 42.5946C41.265 42.4915 41.2342 42.3746 41.2347 42.2557C41.2353 42.1368 41.2672 42.0202 41.3272 41.9176L45.7772 34.3244C46.5704 32.9698 47.067 31.4623 47.2341 29.9014C47.4013 28.3406 47.2351 26.7621 46.7468 25.2703L42.7603 13.1082C42.1743 13.5895 41.7275 14.2187 41.4662 14.9306C41.2048 15.6425 41.1384 16.4113 41.2738 17.1575L42.4279 23.6217C42.4594 23.7981 42.4196 23.9798 42.3171 24.1269C42.2147 24.2739 42.058 24.3743 41.8816 24.4058C41.7052 24.4373 41.5234 24.3975 41.3764 24.295C41.2293 24.1926 41.129 24.0359 41.0975 23.8595L39.9441 17.3919C39.7582 16.3712 39.8597 15.319 40.237 14.3526C40.6144 13.3862 41.2529 12.5436 42.0812 11.919L42.6988 11.45C42.7846 11.3849 42.8847 11.3412 42.9907 11.3226C43.0968 11.3041 43.2058 11.3111 43.3086 11.3431C43.4114 11.3752 43.505 11.4314 43.5817 11.507C43.6584 11.5826 43.7159 11.6754 43.7495 11.7777L48.0306 24.8453C48.5786 26.5186 48.7651 28.2892 48.5778 30.04C48.3905 31.7908 47.8337 33.4819 46.9441 35.0014L42.4941 42.6C42.4344 42.702 42.349 42.7866 42.2465 42.8453C42.1439 42.904 42.0278 42.9347 41.9096 42.9345Z" fill="url(#paint2_linear_3878_5860)"/>
<path d="M6.93184 47.9229C6.7712 47.9228 6.61584 47.8655 6.49362 47.7612C6.3714 47.657 6.29034 47.5126 6.26495 47.354L5.8109 44.5337C5.7574 44.2016 5.76989 43.8622 5.84765 43.5349C5.92542 43.2077 6.06693 42.8989 6.2641 42.6264C6.46127 42.3539 6.71023 42.1229 6.99675 41.9466C7.28326 41.7704 7.6017 41.6523 7.93387 41.5992L16.5825 40.2114C17.2531 40.1041 17.9389 40.2674 18.4892 40.6655C19.0394 41.0636 19.4091 41.6638 19.517 42.3344L19.9697 45.1546C19.9838 45.2423 19.9804 45.3318 19.9599 45.4181C19.9394 45.5045 19.902 45.5859 19.85 45.6578C19.798 45.7297 19.7323 45.7907 19.6568 45.8372C19.5812 45.8837 19.4972 45.9149 19.4095 45.929L7.03928 47.9141C7.00377 47.92 6.96784 47.923 6.93184 47.9229ZM16.99 41.5303C16.9252 41.5305 16.8606 41.5357 16.7967 41.5459L8.14806 42.9337C7.83128 42.9845 7.54763 43.159 7.35947 43.4189C7.17132 43.6787 7.09406 44.0027 7.14468 44.3195L7.49063 46.4729L18.5271 44.7019L18.1812 42.5486C18.1354 42.2652 17.9905 42.0074 17.7724 41.8209C17.5542 41.6344 17.2769 41.5314 16.99 41.5303Z" fill="url(#paint3_linear_3878_5860)"/>
<path d="M16.6449 41.5616C16.4843 41.5616 16.3289 41.5043 16.2067 41.4C16.0845 41.2957 16.0034 41.1513 15.978 40.9927L14.9131 34.3535C14.7663 33.4548 14.4144 32.602 13.8846 31.8613C13.3548 31.1206 12.6615 30.5119 11.8584 30.0826C11.766 30.0336 11.6863 29.9639 11.6255 29.8789C11.5646 29.7939 11.5243 29.6959 11.5077 29.5927L10.7476 24.8556C10.7228 24.7009 10.6678 24.5526 10.5857 24.4192C10.5036 24.2859 10.396 24.1699 10.2691 24.0781C10.1422 23.9863 9.99848 23.9204 9.84611 23.8841C9.69373 23.8478 9.5357 23.8419 9.38105 23.8667C9.22639 23.8915 9.07813 23.9465 8.94473 24.0286C8.81134 24.1107 8.69542 24.2183 8.6036 24.3452C8.51177 24.4721 8.44584 24.6158 8.40957 24.7682C8.3733 24.9206 8.36739 25.0786 8.39219 25.2333L9.81111 34.0846C9.82779 34.1733 9.82653 34.2644 9.80741 34.3526C9.78829 34.4408 9.75169 34.5243 9.69978 34.5981C9.64787 34.6719 9.5817 34.7346 9.50517 34.7824C9.42864 34.8303 9.34331 34.8623 9.25421 34.8766C9.1651 34.8909 9.07403 34.8872 8.98638 34.8658C8.89872 34.8443 8.81626 34.8055 8.74384 34.7516C8.67143 34.6978 8.61054 34.63 8.56476 34.5522C8.51899 34.4744 8.48926 34.3883 8.47733 34.2988L7.05841 25.4474C6.96284 24.7863 7.1311 24.1141 7.52687 23.5759C7.92263 23.0377 8.51415 22.6768 9.17374 22.571C9.83333 22.4651 10.5081 22.6229 11.0523 23.0103C11.5966 23.3977 11.9667 23.9835 12.0827 24.6414L12.7908 29.0542C13.7024 29.5985 14.4841 30.3353 15.0812 31.2132C15.6783 32.0911 16.0764 33.0888 16.2476 34.1366L17.3125 40.7765C17.3265 40.8641 17.3232 40.9537 17.3027 41.04C17.2822 41.1263 17.2448 41.2078 17.1928 41.2797C17.1408 41.3516 17.0751 41.4126 16.9995 41.4591C16.924 41.5056 16.84 41.5368 16.7523 41.5508C16.7168 41.5571 16.6809 41.5607 16.6449 41.5616Z" fill="url(#paint4_linear_3878_5860)"/>
<path d="M8.09082 42.9345C7.97266 42.9347 7.85651 42.9039 7.75395 42.8453C7.6514 42.7866 7.56603 42.702 7.50636 42.6L3.05636 35.0041C2.16678 33.4846 1.60992 31.7935 1.42263 30.0427C1.23533 28.2919 1.42186 26.5213 1.96987 24.848L6.25095 11.7804C6.28449 11.6781 6.342 11.5853 6.41869 11.5097C6.49539 11.4341 6.58904 11.3779 6.69184 11.3458C6.79465 11.3138 6.90363 11.3067 7.0097 11.3253C7.11577 11.3439 7.21586 11.3876 7.30163 11.4527L7.9192 11.9217C8.74754 12.5463 9.38602 13.3889 9.7634 14.3553C10.1408 15.3217 10.2422 16.3739 10.0564 17.3946L8.9023 23.8595C8.87076 24.0359 8.77043 24.1926 8.62338 24.295C8.47633 24.3975 8.2946 24.4373 8.11818 24.4058C7.94176 24.3742 7.78509 24.2739 7.68264 24.1269C7.5802 23.9798 7.54036 23.7981 7.5719 23.6217L8.72595 17.1575C8.86135 16.4113 8.79494 15.6425 8.5336 14.9306C8.27226 14.2187 7.82548 13.5895 7.23947 13.1081L3.25298 25.2703C2.76471 26.7622 2.59871 28.3407 2.76598 29.9015C2.93324 31.4623 3.42995 32.9698 4.22325 34.3244L8.67325 41.921C8.73328 42.0236 8.76518 42.1402 8.76573 42.2591C8.76628 42.3779 8.73546 42.4949 8.67638 42.598C8.6173 42.7012 8.53205 42.7869 8.42924 42.8466C8.32642 42.9062 8.20969 42.9377 8.09082 42.9379V42.9345Z" fill="url(#paint5_linear_3878_5860)"/>
<path d="M35.0062 19.7494H14.9941C14.8337 19.7494 14.6786 19.6924 14.5564 19.5885C14.4343 19.4846 14.353 19.3407 14.3272 19.1825L12.4204 7.51896C12.4047 7.4223 12.4101 7.32337 12.4364 7.22902C12.4626 7.13467 12.5091 7.04715 12.5725 6.97253C12.6359 6.89792 12.7148 6.83798 12.8037 6.79688C12.8926 6.75578 12.9894 6.73449 13.0873 6.7345H36.913C37.0109 6.73449 37.1077 6.75578 37.1966 6.79688C37.2855 6.83798 37.3644 6.89792 37.4278 6.97253C37.4913 7.04715 37.5377 7.13467 37.564 7.22902C37.5902 7.32337 37.5957 7.4223 37.5799 7.51896L35.6758 19.1825C35.65 19.3412 35.5683 19.4855 35.4456 19.5894C35.3228 19.6933 35.1671 19.75 35.0062 19.7494ZM15.5684 18.398H34.4319L36.1177 8.08585H13.8826L15.5684 18.398Z" fill="url(#paint6_linear_3878_5860)"/>
<path d="M35.2571 8.08796C35.0779 8.08796 34.906 8.01677 34.7793 7.89006C34.6526 7.76335 34.5814 7.59148 34.5814 7.41228V5.27039H21.049C20.9476 5.27035 20.8475 5.24749 20.7561 5.20351C20.6648 5.15953 20.5845 5.09556 20.5213 5.01634L19.2523 3.4285H15.4192V7.41499C15.4192 7.59419 15.348 7.76605 15.2213 7.89276C15.0946 8.01948 14.9227 8.09066 14.7435 8.09066C14.5643 8.09066 14.3925 8.01948 14.2658 7.89276C14.1391 7.76605 14.0679 7.59419 14.0679 7.41499V2.75282C14.0679 2.57362 14.1391 2.40176 14.2658 2.27505C14.3925 2.14834 14.5643 2.07715 14.7435 2.07715H19.5773C19.6787 2.07719 19.7788 2.10005 19.8701 2.14403C19.9615 2.18801 20.0418 2.25198 20.105 2.3312L21.374 3.91904H35.2571C35.4363 3.91904 35.6081 3.99023 35.7348 4.11694C35.8615 4.24365 35.9327 4.41552 35.9327 4.59472V7.41228C35.9327 7.59148 35.8615 7.76335 35.7348 7.89006C35.6081 8.01677 35.4363 8.08796 35.2571 8.08796Z" fill="url(#paint7_linear_3878_5860)"/>
<defs>
<linearGradient id="paint0_linear_3878_5860" x1="30.1901" y1="46.35" x2="44.0235" y2="46.2974" gradientUnits="userSpaceOnUse">
<stop stop-color="#434AE4"/>
<stop offset="0.5" stop-color="#5441B7"/>
<stop offset="1" stop-color="#E86343"/>
</linearGradient>
<linearGradient id="paint1_linear_3878_5860" x1="32.8018" y1="37.6819" x2="42.837" y2="37.6707" gradientUnits="userSpaceOnUse">
<stop stop-color="#434AE4"/>
<stop offset="0.5" stop-color="#5441B7"/>
<stop offset="1" stop-color="#E86343"/>
</linearGradient>
<linearGradient id="paint2_linear_3878_5860" x1="39.9582" y1="36.5113" x2="48.5258" y2="36.5064" gradientUnits="userSpaceOnUse">
<stop stop-color="#434AE4"/>
<stop offset="0.5" stop-color="#5441B7"/>
<stop offset="1" stop-color="#E86343"/>
</linearGradient>
<linearGradient id="paint3_linear_3878_5860" x1="5.94737" y1="46.35" x2="19.7802" y2="46.2974" gradientUnits="userSpaceOnUse">
<stop stop-color="#434AE4"/>
<stop offset="0.5" stop-color="#5441B7"/>
<stop offset="1" stop-color="#E86343"/>
</linearGradient>
<linearGradient id="paint4_linear_3878_5860" x1="7.15471" y1="37.6976" x2="17.1776" y2="37.6864" gradientUnits="userSpaceOnUse">
<stop stop-color="#434AE4"/>
<stop offset="0.5" stop-color="#5441B7"/>
<stop offset="1" stop-color="#E86343"/>
</linearGradient>
<linearGradient id="paint5_linear_3878_5860" x1="1.45675" y1="36.5145" x2="10.0243" y2="36.5096" gradientUnits="userSpaceOnUse">
<stop stop-color="#434AE4"/>
<stop offset="0.5" stop-color="#5441B7"/>
<stop offset="1" stop-color="#E86343"/>
</linearGradient>
<linearGradient id="paint6_linear_3878_5860" x1="12.7113" y1="17.1057" x2="37.2375" y2="17.0075" gradientUnits="userSpaceOnUse">
<stop stop-color="#434AE4"/>
<stop offset="0.5" stop-color="#5441B7"/>
<stop offset="1" stop-color="#E86343"/>
</linearGradient>
<linearGradient id="paint7_linear_3878_5860" x1="14.3282" y1="6.86917" x2="35.6268" y2="6.70879" gradientUnits="userSpaceOnUse">
<stop stop-color="#434AE4"/>
<stop offset="0.5" stop-color="#5441B7"/>
<stop offset="1" stop-color="#E86343"/>
</linearGradient>
</defs>
</svg>
