<svg width="72" height="72" viewBox="0 0 72 72" fill="none" xmlns="http://www.w3.org/2000/svg">
<rect width="72" height="72" rx="36" fill="#CFFAFE"/>
<path d="M52.5 37.4999C51.5698 37.5012 50.6628 37.7902 49.9033 38.3273C49.1438 38.8644 48.569 39.6233 48.2578 40.4999H44.5809L41.9231 32.5255C41.8218 32.2216 41.6258 31.9582 41.3639 31.7738C41.1021 31.5894 40.788 31.4936 40.4678 31.5005C40.1476 31.5074 39.838 31.6167 39.5843 31.8122C39.3307 32.0078 39.1463 32.2794 39.0581 32.5874L34.8853 47.1899L29.9794 17.7524C29.9225 17.4125 29.7503 17.1026 29.4918 16.8747C29.2332 16.6468 28.9041 16.5149 28.5598 16.5012C28.2155 16.4874 27.8769 16.5927 27.601 16.7992C27.3252 17.0057 27.1288 17.3009 27.045 17.6352L21.3291 40.4999H16.5C16.1022 40.4999 15.7206 40.6579 15.4393 40.9392C15.158 41.2205 15 41.602 15 41.9999C15 42.3977 15.158 42.7792 15.4393 43.0605C15.7206 43.3418 16.1022 43.4999 16.5 43.4999H22.5C22.8345 43.4998 23.1594 43.388 23.423 43.1821C23.6866 42.9762 23.8739 42.6881 23.955 42.3636L28.2056 25.3602L33.0206 54.2464C33.0761 54.5828 33.2445 54.8902 33.4981 55.118C33.7517 55.3459 34.0753 55.4805 34.4156 55.4999C34.4438 55.4999 34.4719 55.4999 34.5009 55.4999C34.8266 55.4996 35.1434 55.3933 35.4033 55.1971C35.6633 55.001 35.8523 54.7255 35.9419 54.4124L40.6106 38.0736L42.0769 42.4742C42.1764 42.7729 42.3675 43.0327 42.6229 43.2168C42.8783 43.4008 43.1852 43.4999 43.5 43.4999H48.2578C48.5328 44.2777 49.0164 44.965 49.6556 45.4865C50.2948 46.0081 51.0651 46.3439 51.8823 46.4572C52.6995 46.5705 53.5321 46.457 54.2892 46.1291C55.0462 45.8011 55.6985 45.2714 56.1748 44.5978C56.6511 43.9241 56.933 43.1325 56.9898 42.3094C57.0465 41.4864 56.8759 40.6636 56.4966 39.9309C56.1173 39.1983 55.5439 38.584 54.839 38.1552C54.1342 37.7265 53.325 37.4998 52.5 37.4999Z" fill="#0891B2"/>
</svg>
