<svg width="50" height="50" viewBox="0 0 50 50" fill="none" xmlns="http://www.w3.org/2000/svg">
<g clip-path="url(#clip0_3878_4621)">
<path d="M32.1541 32.1343C32.1541 32.5118 31.848 32.8179 31.4705 32.8179H18.5297C18.1521 32.8179 17.8461 32.5118 17.8461 32.1343C17.8461 31.7568 18.1521 31.4507 18.5297 31.4507H31.4706C31.8481 31.4507 32.1542 31.7568 32.1542 32.1343H32.1541ZM31.0258 34.0524H18.9743C18.5968 34.0524 18.2907 34.3584 18.2907 34.736C18.2907 35.1135 18.5968 35.4195 18.9743 35.4195H31.0258C31.4033 35.4195 31.7094 35.1135 31.7094 34.736C31.7094 34.3584 31.4033 34.0524 31.0258 34.0524ZM29.7931 37.3376C29.7931 37.7152 29.487 38.0212 29.1095 38.0212H28.1693V38.6697C28.1693 39.7812 27.2651 40.6855 26.1536 40.6855H23.8464C22.735 40.6855 21.8307 39.7813 21.8307 38.6697V38.0212H20.8905C20.513 38.0212 20.2069 37.7152 20.2069 37.3376C20.2069 36.9601 20.513 36.654 20.8905 36.654H29.1095C29.487 36.654 29.7931 36.9601 29.7931 37.3376ZM26.8021 38.0212H23.1979V38.6697C23.1979 39.0274 23.4888 39.3183 23.8464 39.3183H26.1536C26.5112 39.3183 26.8021 39.0274 26.8021 38.6697V38.0212ZM25 11.8795C24.6225 11.8795 24.3164 12.1856 24.3164 12.5631V15.9065C24.3164 16.284 24.6225 16.5901 25 16.5901C25.3775 16.5901 25.6836 16.284 25.6836 15.9065V12.5631C25.6836 12.1856 25.3775 11.8795 25 11.8795ZM25 17.3999C24.6225 17.3999 24.3164 17.706 24.3164 18.0835V18.3634C24.3164 18.7409 24.6225 19.047 25 19.047C25.3775 19.047 25.6836 18.7409 25.6836 18.3634V18.0835C25.6836 17.706 25.3775 17.3999 25 17.3999ZM4.89727 41.5058C4.63037 41.239 4.19756 41.2389 3.93057 41.5058C3.66367 41.7727 3.66367 42.2056 3.93057 42.4725L5.24463 43.7865L3.93057 45.1007C3.66367 45.3677 3.66367 45.8005 3.93057 46.0674C4.19746 46.3343 4.63037 46.3343 4.89727 46.0674L6.21133 44.7532L7.52539 46.0674C7.65889 46.2009 7.83379 46.2676 8.00879 46.2676C8.18379 46.2676 8.35869 46.2008 8.49219 46.0674C8.75908 45.8005 8.75908 45.3676 8.49219 45.1007L7.17812 43.7865L8.49219 42.4725C8.75908 42.2055 8.75908 41.7727 8.49219 41.5058C8.22529 41.2389 7.79238 41.2389 7.52549 41.5058L6.21143 42.8199L4.89727 41.5058ZM45.3896 41.763L42.9391 44.2136L42.2967 43.101C42.1079 42.774 41.6899 42.6622 41.3629 42.8508C41.0359 43.0396 40.9239 43.4576 41.1127 43.7846L42.2005 45.6687C42.3067 45.8527 42.4926 45.9769 42.7032 46.0046C42.733 46.0085 42.7628 46.0105 42.7925 46.0105C42.9726 46.0105 43.1468 45.9393 43.2758 45.8103L46.3563 42.7298C46.6231 42.4629 46.6231 42.03 46.3563 41.7631C46.0894 41.4962 45.6565 41.4962 45.3895 41.7631L45.3896 41.763ZM49.6095 43.7865C49.6095 46.996 46.9983 49.6072 43.7888 49.6072C40.5792 49.6072 37.9681 46.9961 37.9681 43.7865C37.9681 40.8084 40.2168 38.3471 43.1052 38.0074V13.4333H39.8223C39.8645 14.6866 39.5653 15.9334 38.9503 16.9786C39.3106 17.9038 39.3427 18.9409 39.0049 19.9191C38.6056 21.0751 37.7132 22.0122 36.5884 22.4753C36.5919 23.2931 36.4253 24.0885 36.0839 24.8163C35.3146 26.4562 33.7776 27.6067 31.7485 28.0714C31.3002 28.9312 30.5831 29.6488 29.6764 30.085C29.0489 30.3868 28.3726 30.5337 27.7002 30.5337C26.7415 30.5337 25.7912 30.2345 25.0001 29.6617C24.209 30.2344 23.2586 30.5337 22.3 30.5337C21.6275 30.5337 20.9514 30.3869 20.3238 30.085C19.4178 29.649 18.7011 28.932 18.2527 28.0732C16.2087 27.6052 14.6638 26.4385 13.9012 24.7836C13.5648 24.0538 13.3998 23.2731 13.4026 22.4719C12.2698 22.0051 11.398 21.0849 10.9953 19.919C10.6574 18.9407 10.6895 17.9036 11.0499 16.9783C10.4343 15.932 10.1354 14.6861 10.1779 13.4331H6.89482V38.0071C9.7832 38.3468 12.0319 40.8082 12.0319 43.7863C12.0319 46.9958 9.4208 49.607 6.21123 49.607C3.00166 49.607 0.390625 46.9959 0.390625 43.7863C0.390625 40.8082 2.63926 38.3468 5.52764 38.0071V12.7497C5.52764 12.3722 5.83369 12.0661 6.21123 12.0661H10.3628C10.395 11.9314 10.4301 11.7972 10.4707 11.6643C10.9643 10.0474 12.0082 8.7883 13.415 8.10343C13.4565 7.38878 13.6319 6.69523 13.9466 6.04679C14.7247 4.44328 16.253 3.31134 18.2525 2.85353C18.7009 1.99435 19.4177 1.27726 20.3239 0.841325C21.8462 0.108903 23.6543 0.289957 25.0002 1.26437C26.3462 0.289957 28.1543 0.109 29.6765 0.841422C30.5826 1.27736 31.2993 1.99435 31.7477 2.85353C33.7438 3.31056 35.2711 4.44025 36.0502 6.03976C36.3668 6.68976 36.5434 7.38556 36.5851 8.10285C37.9997 8.79142 39.0473 10.0618 39.537 11.6894C39.5745 11.8141 39.6075 11.9399 39.6377 12.0662H43.7887C44.1662 12.0662 44.4723 12.3723 44.4723 12.7498V38.0074C47.3606 38.3471 49.6094 40.8084 49.6094 43.7865H49.6095ZM6.21133 39.3331C3.75566 39.3331 1.75791 41.331 1.75791 43.7866C1.75791 46.2423 3.75576 48.2402 6.21133 48.2402C8.66689 48.2402 10.6648 46.2423 10.6648 43.7866C10.6648 41.331 8.66699 39.3331 6.21133 39.3331ZM29.7804 15.4633C29.7804 12.8275 27.636 10.683 25.0002 10.683C22.3644 10.683 20.2199 12.8274 20.2199 15.4633C20.2199 18.0992 22.3643 20.2435 25.0002 20.2435C27.6361 20.2435 29.7804 18.0991 29.7804 15.4633ZM24.3166 28.4647V25.7054C23.8085 26.1851 23.1642 26.5389 22.3902 26.6709C22.3514 26.6776 22.3126 26.6808 22.2744 26.6808C21.9474 26.6808 21.6582 26.4453 21.6014 26.112C21.5379 25.7399 21.7881 25.3867 22.1603 25.3233C23.5608 25.0843 24.3166 23.6929 24.3166 22.5051V21.5718C21.2476 21.2306 18.8527 18.6219 18.8527 15.4633C18.8527 12.3047 21.2476 9.69601 24.3166 9.3548V2.46173C23.362 1.69894 22.0304 1.53732 20.9166 2.07326C19.7182 2.64982 18.992 3.92716 19.1096 5.25187C19.1775 6.01808 19.519 6.73547 20.0711 7.27209C20.3418 7.53517 20.3479 7.96798 20.0849 8.23869C19.9509 8.37658 19.7729 8.44591 19.5946 8.44591C19.4229 8.44591 19.2511 8.38166 19.1183 8.25255C18.3313 7.48781 17.8446 6.46515 17.7478 5.37287C17.7192 5.05207 17.7263 4.73341 17.7646 4.42121C16.5706 4.86369 15.6667 5.63371 15.1766 6.64377C14.6622 7.70373 14.6408 8.94172 15.1046 10.1767C15.7541 9.83996 16.4975 9.71173 17.2398 9.82345C17.6132 9.87961 17.8703 10.2278 17.8141 10.6011C17.7578 10.9743 17.4095 11.2318 17.0364 11.1753C16.3973 11.0792 15.7557 11.273 15.2767 11.7071C15.0101 11.9488 14.807 12.2565 14.6896 12.5967C14.592 12.8797 14.3271 13.0574 14.0436 13.0574C13.9695 13.0574 13.8943 13.0453 13.8205 13.0198C13.4637 12.8967 13.2742 12.5075 13.3974 12.1507C13.5324 11.7594 13.7379 11.3954 13.9987 11.0758C13.7811 10.5908 13.6217 10.1016 13.5238 9.61437C12.7082 10.1661 12.0983 11.0153 11.7784 12.0636C11.4175 13.2459 11.4695 14.5249 11.9027 15.6208C11.9202 15.602 11.9362 15.5821 11.9541 15.5636C12.3065 15.1971 12.7172 14.8991 13.1747 14.6783C13.5146 14.5142 13.9233 14.6566 14.0875 14.9966C14.2517 15.3365 14.1092 15.7452 13.7692 15.9094C13.4584 16.0595 13.1793 16.262 12.9396 16.5112C12.1795 17.3016 11.9297 18.4364 12.2877 19.4729C12.5197 20.1444 12.9805 20.696 13.5841 21.0421C13.719 20.4949 13.9277 19.9466 14.2134 19.4064C14.3898 19.0727 14.8034 18.9451 15.1372 19.1216C15.4709 19.2981 15.5984 19.7116 15.422 20.0454C14.6644 21.4783 14.5652 22.958 15.143 24.2117C15.6248 25.2573 16.5413 26.0522 17.7646 26.5052C17.7264 26.193 17.7193 25.8744 17.7479 25.5538C17.8245 24.6894 18.1521 23.8551 18.6794 23.1676C18.4639 22.8783 18.2925 22.5567 18.1744 22.2145C18.0513 21.8576 18.2407 21.4685 18.5976 21.3453C18.9546 21.2221 19.3437 21.4116 19.4667 21.7685C19.5842 22.1087 19.7871 22.4163 20.0537 22.658C20.3381 22.9157 20.6871 23.0928 21.0631 23.1699C21.4329 23.2458 21.6712 23.6072 21.5952 23.9771C21.5288 24.3005 21.244 24.5234 20.9263 24.5234C20.8807 24.5234 20.8345 24.5188 20.7881 24.5092C20.4033 24.4302 20.0357 24.2873 19.7005 24.0881C19.3652 24.5538 19.1609 25.0948 19.1096 25.6746C18.9919 26.9993 19.7181 28.2768 20.9165 28.8533C22.0302 29.3891 23.3618 29.2276 24.3165 28.4648L24.3166 28.4647ZM38.0976 15.6206C38.5278 14.5313 38.5819 13.2595 38.2279 12.0833C37.91 11.0266 37.2971 10.1698 36.4759 9.61447C36.378 10.1016 36.2191 10.5908 36.0016 11.0757C36.2624 11.3953 36.4679 11.7593 36.6029 12.1506C36.7261 12.5074 36.5366 12.8966 36.1798 13.0197C36.106 13.0452 36.0307 13.0573 35.9567 13.0573C35.6732 13.0573 35.4083 12.8796 35.3106 12.5966C35.1932 12.2564 34.9902 11.9487 34.7236 11.707C34.2446 11.2729 33.6033 11.0791 32.9639 11.1752C32.5905 11.2319 32.2423 10.9743 32.1862 10.601C32.1301 10.2277 32.3872 9.87951 32.7604 9.82336C33.5025 9.71173 34.2458 9.83976 34.8953 10.1765C35.3597 8.93937 35.3376 7.69894 34.821 6.63849C34.3305 5.63127 33.4273 4.8631 32.2355 4.42131C32.2739 4.73361 32.2809 5.05216 32.2524 5.37297C32.1555 6.46535 31.6688 7.48791 30.8821 8.25265C30.6115 8.51564 30.1786 8.50968 29.9155 8.23888C29.6524 7.96818 29.6586 7.53537 29.9293 7.27228C30.4813 6.73576 30.8227 6.01838 30.8907 5.25207C31.0083 3.92736 30.2821 2.64992 29.0837 2.07355C27.9701 1.53771 26.6382 1.69816 25.6837 2.46056V5.2213C26.1918 4.74162 26.8361 4.38781 27.6101 4.25578C27.9826 4.1923 28.3354 4.44259 28.3988 4.81466C28.4623 5.18683 28.2121 5.53996 27.8399 5.60343C26.4394 5.8424 25.6836 7.2338 25.6836 8.4216V9.3549C28.7526 9.69611 31.1474 12.3049 31.1474 15.4634C31.1474 18.6219 28.7526 21.2306 25.6836 21.5719V28.4662C26.6381 29.2286 27.97 29.3891 29.0835 28.8533C30.2819 28.2769 31.0081 26.9994 30.8905 25.6746C30.8391 25.0951 30.635 24.5538 30.2996 24.0881C29.9644 24.2872 29.5968 24.4302 29.2119 24.5092C29.1655 24.5187 29.1192 24.5234 29.0737 24.5234C28.756 24.5234 28.4713 24.3005 28.4048 23.9771C28.3289 23.6072 28.5671 23.2459 28.9369 23.1699C29.3129 23.0928 29.6619 22.9157 29.9462 22.6579C30.2128 22.4162 30.4158 22.1087 30.5332 21.7685C30.6563 21.4116 31.0455 21.2223 31.4023 21.3452C31.7592 21.4684 31.9487 21.8575 31.8256 22.2144C31.7076 22.5564 31.5362 22.878 31.3209 23.1671C31.8538 23.8578 32.1743 24.6759 32.2522 25.5536C32.2808 25.8745 32.2736 26.1934 32.2353 26.5059C33.4491 26.0569 34.3601 25.2713 34.8457 24.236C35.4362 22.977 35.3412 21.4888 34.578 20.0453C34.4016 19.7116 34.5291 19.298 34.8628 19.1215C35.1964 18.945 35.6102 19.0725 35.7866 19.4063C36.0696 19.9416 36.2764 20.4916 36.41 21.043C37.0124 20.6959 37.4825 20.138 37.7123 19.4728C38.0703 18.4363 37.8205 17.3015 37.0604 16.5111C36.8207 16.2617 36.5416 16.0593 36.2308 15.9092C35.8908 15.745 35.7483 15.3363 35.9124 14.9963C36.0766 14.6564 36.4851 14.5139 36.8253 14.6779C37.2826 14.8988 37.6934 15.1967 38.0459 15.5633C38.0638 15.5819 38.0797 15.6017 38.0972 15.6204L38.0976 15.6206ZM48.2423 43.7865C48.2423 41.3309 46.2444 39.3331 43.7888 39.3331C41.3331 39.3331 39.3353 41.331 39.3353 43.7865C39.3353 46.2421 41.3331 48.2401 43.7888 48.2401C46.2444 48.2401 48.2423 46.2422 48.2423 43.7865Z" fill="url(#paint0_linear_3878_4621)"/>
</g>
<defs>
<linearGradient id="paint0_linear_3878_4621" x1="0.976564" y1="39.6106" x2="48.9234" y2="39.5113" gradientUnits="userSpaceOnUse">
<stop stop-color="#434AE4"/>
<stop offset="0.5" stop-color="#5441B7"/>
<stop offset="1" stop-color="#E86343"/>
</linearGradient>
<clipPath id="clip0_3878_4621">
<rect width="50" height="50" fill="white"/>
</clipPath>
</defs>
</svg>
