<svg width="80" height="80" viewBox="0 0 80 80" fill="none" xmlns="http://www.w3.org/2000/svg">
<path d="M40 76C59.8823 76 76 59.8823 76 40C76 20.1177 59.8823 4 40 4C20.1177 4 4 20.1177 4 40C4 59.8823 20.1177 76 40 76Z" stroke="white" stroke-opacity="0.1" stroke-width="4"/>
<path d="M59.4355 45.1094C58.9631 44.8764 58.4359 44.7768 57.911 44.8214C57.3861 44.8659 56.8833 45.0528 56.4568 45.3621L49.4988 50.1946C48.7374 50.723 47.8154 50.9688 46.8921 50.8897L46.7112 50.8744V50.1462C46.7076 49.3456 46.4041 48.5753 45.8606 47.9874C45.317 47.3995 44.5729 47.0367 43.7749 46.9705L37.0066 46.4358C34.2064 46.1041 31.5295 43.1319 28.5727 43.3305L25.8211 43.3303V42.2148C25.8205 41.7704 25.6437 41.3443 25.3294 41.03C25.0151 40.7157 24.589 40.5389 24.1446 40.5383H20.7351C20.2906 40.5389 19.8645 40.7157 19.5502 41.03C19.2359 41.3443 19.0591 41.7704 19.0586 42.2148V57.7839C19.0591 58.2284 19.2359 58.6545 19.5502 58.9688C19.8645 59.2831 20.2906 59.4599 20.7351 59.4605H24.1445C24.589 59.4599 25.0151 59.2831 25.3294 58.9688C25.6437 58.6545 25.8205 58.2284 25.821 57.7839V57.1234L34.2073 60.1636C34.7717 60.3675 35.3776 60.4299 35.9717 60.3453L47.9688 58.616C49.5713 58.387 51.0694 57.6864 52.2725 56.6033L60.0127 49.6512C60.346 49.3495 60.6014 48.9718 60.7574 48.5502C60.9133 48.1287 60.9651 47.6757 60.9085 47.2298C60.8518 46.7839 60.6883 46.3582 60.4319 45.9891C60.1754 45.6199 59.8336 45.3181 59.4355 45.1094ZM24.1445 57.9605H20.7351C20.6883 57.9604 20.6434 57.9418 20.6103 57.9087C20.5772 57.8756 20.5586 57.8307 20.5586 57.7839V42.2148C20.5586 42.168 20.5772 42.1232 20.6103 42.0901C20.6434 42.057 20.6883 42.0384 20.7351 42.0383H24.1445C24.1913 42.0384 24.2362 42.057 24.2693 42.0901C24.3024 42.1232 24.321 42.168 24.321 42.2148V57.7839C24.321 57.8307 24.3024 57.8756 24.2693 57.9087C24.2362 57.9418 24.1913 57.9604 24.1445 57.9605ZM59.0159 48.5305L51.2698 55.4871C50.2873 56.3719 49.0637 56.9443 47.7549 57.1314L35.7578 58.8599C35.4079 58.9104 35.0508 58.8737 34.7185 58.7529L25.821 55.5274V44.8303H28.5728C31.4285 44.7692 34.0679 47.8037 36.888 47.9314L43.657 48.4661C44.0793 48.501 44.4731 48.6929 44.7609 49.0039C45.0486 49.315 45.2093 49.7225 45.2112 50.1462V50.7474L33.0625 49.7193C32.8644 49.7025 32.6677 49.7652 32.5158 49.8935C32.3639 50.0218 32.2691 50.2052 32.2524 50.4033C32.2357 50.6015 32.2984 50.7981 32.4267 50.95C32.555 51.102 32.7384 51.1967 32.9365 51.2134L46.7632 52.3838C48.0353 52.495 49.3062 52.1563 50.3542 51.4265L57.3123 46.594C57.5705 46.3787 57.9026 46.2727 58.2378 46.2986C58.573 46.3245 58.8849 46.4803 59.107 46.7327C59.3291 46.9852 59.4438 47.3143 59.4268 47.6501C59.4098 47.9859 59.2623 48.3018 59.0159 48.5305Z" fill="white"/>
<path d="M44.0393 45.228C47.4342 45.2241 50.6889 43.8738 53.0895 41.4733C55.49 39.0727 56.8404 35.818 56.8443 32.4231C56.141 15.4346 31.9351 15.4396 31.2344 32.4232C31.2383 35.8181 32.5886 39.0728 34.9892 41.4733C37.3897 43.8738 40.6445 45.2241 44.0393 45.228ZM44.0393 21.1174C47.0366 21.1209 49.9101 22.3132 52.0295 24.4327C54.1488 26.5522 55.3409 29.4258 55.3443 32.4231C54.7234 47.4206 33.353 47.4163 32.7344 32.423C32.7377 29.4257 33.9298 26.5521 36.0492 24.4327C38.1685 22.3132 41.042 21.1209 44.0393 21.1174Z" fill="white"/>
<path d="M39.6149 40.2115C39.7541 40.4648 39.9588 40.676 40.2076 40.8232C40.4564 40.9703 40.7401 41.0479 41.0292 41.048H47.0489C47.3378 41.0479 47.6213 40.9703 47.8698 40.8231C48.1184 40.676 48.3228 40.4648 48.4618 40.2115L51.483 34.7154C51.6278 34.45 51.6956 34.1493 51.6787 33.8474C51.6617 33.5455 51.5607 33.2543 51.3871 33.0067L45.3556 24.4791C45.2065 24.2687 45.0091 24.0972 44.78 23.9788C44.551 23.8604 44.2969 23.7986 44.039 23.7986C43.7812 23.7986 43.5271 23.8604 43.298 23.9788C43.069 24.0972 42.8716 24.2687 42.7225 24.4791L36.6918 33.006C36.5177 33.2533 36.4163 33.5445 36.3991 33.8464C36.3819 34.1484 36.4495 34.4492 36.5944 34.7147L39.6149 40.2115ZM44.046 33.5787C44.394 33.5837 44.7261 33.7254 44.9705 33.9733C45.2148 34.2212 45.3518 34.5553 45.3518 34.9033C45.3518 35.2514 45.2148 35.5855 44.9704 35.8333C44.7261 36.0812 44.394 36.2229 44.0459 36.2279C43.6979 36.2229 43.3658 36.0812 43.1215 35.8333C42.8771 35.5854 42.7402 35.2513 42.7402 34.9033C42.7402 34.5552 42.8772 34.2211 43.1215 33.9733C43.3659 33.7254 43.698 33.5837 44.046 33.5787ZM37.9156 33.8724L43.2872 26.2779V32.1954C42.6305 32.3792 42.0627 32.7949 41.6891 33.3654C41.3155 33.936 41.1615 34.6226 41.2555 35.298C41.3495 35.9735 41.6852 36.5919 42.2004 37.0387C42.7156 37.4855 43.3753 37.7304 44.0573 37.7279C44.7392 37.7254 45.3971 37.4758 45.9091 37.0253C46.421 36.5747 46.7522 35.9538 46.8413 35.2777C46.9304 34.6016 46.7714 33.9161 46.3937 33.3484C46.0159 32.7806 45.4452 32.369 44.7871 32.1899L44.7872 26.2727L50.1625 33.8725C50.1748 33.8898 50.1819 33.9103 50.1831 33.9316C50.1842 33.9528 50.1794 33.974 50.1691 33.9926L47.1471 39.4894C47.1375 39.5071 47.1233 39.5218 47.106 39.5321C47.0888 39.5424 47.069 39.5479 47.0489 39.548H41.0292C41.0089 39.5478 40.989 39.5424 40.9715 39.5321C40.954 39.5218 40.9395 39.5071 40.9295 39.4894L37.9091 33.9933C37.8986 33.9746 37.8936 33.9533 37.8948 33.9319C37.8959 33.9105 37.9032 33.8899 37.9156 33.8724Z" fill="white"/>
</svg>
