<svg width="50" height="50" viewBox="0 0 50 50" fill="none" xmlns="http://www.w3.org/2000/svg">
<g clip-path="url(#clip0_3878_5267)">
<path d="M34.4678 35.6152C37.8262 32.8008 39.752 28.6777 39.752 24.3037C39.752 16.1699 33.1348 9.55176 25 9.55176C16.8652 9.55176 10.248 16.1689 10.248 24.3037C10.248 28.6777 12.1738 32.8008 15.5322 35.6143C15.9746 35.9854 16.3145 36.4121 16.5498 36.8887C15.7139 37.2695 15.1318 38.1123 15.1318 39.0889C15.1318 39.7197 15.375 40.2949 15.7725 40.7256C15.375 41.1572 15.1318 41.7324 15.1318 42.3643C15.1318 43.6611 16.1582 44.7217 17.4414 44.7783C17.9707 46.1973 18.9111 47.46 20.1338 48.376C21.5508 49.4375 23.248 49.999 25.042 49.999C28.3857 49.999 31.3945 47.8799 32.5547 44.7783C33.8398 44.7246 34.8691 43.6621 34.8691 42.3643C34.8691 41.7324 34.626 41.1572 34.2285 40.7256C34.626 40.2949 34.8691 39.7197 34.8691 39.0889C34.8691 38.1123 34.2861 37.2695 33.4512 36.8887C33.6855 36.4131 34.0254 35.9863 34.4678 35.6152ZM19.2783 24.3037C19.2783 24.9004 18.793 25.3857 18.1963 25.3857C17.5996 25.3857 17.1143 24.9004 17.1143 24.3037C17.1143 23.707 17.5996 23.2217 18.1963 23.2217C18.793 23.2217 19.2783 23.707 19.2783 24.3037ZM20.5332 23.0703L23.7666 19.8369C24.1348 20.0322 24.5547 20.1436 25 20.1436C25.4453 20.1436 25.8652 20.0322 26.2334 19.8369L29.4668 23.0703C29.2715 23.4385 29.1602 23.8584 29.1602 24.3037C29.1602 24.749 29.2715 25.1689 29.4668 25.5371L25 30.0039L20.5332 25.5371C20.7285 25.1689 20.8398 24.749 20.8398 24.3037C20.8398 23.8584 20.7285 23.4385 20.5332 23.0703ZM25 18.582C24.4033 18.582 23.918 18.0967 23.918 17.5C23.918 16.9033 24.4033 16.418 25 16.418C25.5967 16.418 26.082 16.9033 26.082 17.5C26.082 18.0967 25.5967 18.582 25 18.582ZM30.7217 24.3037C30.7217 23.707 31.207 23.2217 31.8037 23.2217C32.4004 23.2217 32.8857 23.707 32.8857 24.3037C32.8857 24.9004 32.4004 25.3857 31.8037 25.3857C31.207 25.3857 30.7217 24.9004 30.7217 24.3037ZM32.4521 38.2334C32.9238 38.2334 33.3076 38.6172 33.3076 39.0889C33.3076 39.5605 32.9238 39.9443 32.4521 39.9443H17.5479C17.0762 39.9443 16.6924 39.5605 16.6924 39.0889C16.6924 38.6172 17.0762 38.2334 17.5479 38.2334H17.5762H17.5811H17.584H32.4521ZM25.042 48.4375C22.498 48.4375 20.2041 46.9766 19.1377 44.7803H30.8584C29.793 46.9766 27.5322 48.4375 25.042 48.4375ZM32.4521 43.2188H31.9844C31.9814 43.2188 31.9785 43.2188 31.9756 43.2188H17.5479C17.0762 43.2188 16.6924 42.835 16.6924 42.3633C16.6924 41.8896 17.0762 41.5049 17.5479 41.5049H32.4521C32.9238 41.5049 33.3076 41.8896 33.3076 42.3633C33.3076 42.835 32.9238 43.2188 32.4521 43.2188ZM31.8438 36.6719H25.7803V31.4307L30.5703 26.6406C30.9385 26.8359 31.3584 26.9473 31.8037 26.9473C33.2617 26.9473 34.4473 25.7617 34.4473 24.3037C34.4473 22.8457 33.2617 21.6602 31.8037 21.6602C31.3584 21.6602 30.9385 21.7715 30.5703 21.9668L27.3369 18.7334C27.5322 18.3652 27.6436 17.9453 27.6436 17.5C27.6436 16.042 26.458 14.8564 25 14.8564C23.542 14.8564 22.3564 16.042 22.3564 17.5C22.3564 17.9453 22.4678 18.3652 22.6631 18.7334L19.4297 21.9668C19.0615 21.7715 18.6416 21.6602 18.1963 21.6602C16.7383 21.6602 15.5527 22.8457 15.5527 24.3037C15.5527 25.7617 16.7383 26.9473 18.1963 26.9473C18.6416 26.9473 19.0615 26.8359 19.4297 26.6406L24.2197 31.4307V36.6719H18.1562C17.833 35.8076 17.29 35.0518 16.5352 34.418C13.5322 31.9014 11.8096 28.2148 11.8096 24.3037C11.8096 17.0303 17.7266 11.1133 25 11.1133C32.2734 11.1133 38.1904 17.0303 38.1904 24.3037C38.1904 28.2148 36.4678 31.9014 33.4648 34.4189C32.71 35.0518 32.167 35.8076 31.8438 36.6719ZM24.2197 6.37109V0.782227C24.2197 0.350586 24.5693 0.00195312 25 0.00195312C25.4307 0.00195312 25.7803 0.351563 25.7803 0.782227V6.37109C25.7803 6.80273 25.4307 7.15137 25 7.15137C24.5693 7.15137 24.2197 6.80273 24.2197 6.37109ZM37.5938 12.3682C37.2891 12.0635 37.2891 11.5693 37.5938 11.2646L41.5469 7.31152C41.8516 7.00684 42.3457 7.00684 42.6504 7.31152C42.9551 7.61621 42.9551 8.11035 42.6504 8.41504L38.6973 12.3682C38.5449 12.5205 38.3447 12.5967 38.1455 12.5967C37.9463 12.5967 37.7471 12.5205 37.5938 12.3682ZM49.9609 24.9629C49.9609 25.3936 49.6113 25.7432 49.1807 25.7432H43.5918C43.1602 25.7432 42.8115 25.3936 42.8115 24.9629C42.8115 24.5322 43.1611 24.1826 43.5918 24.1826H49.1807C49.6113 24.1816 49.9609 24.5312 49.9609 24.9629ZM42.6514 41.5098C42.9561 41.8145 42.9561 42.3086 42.6514 42.6133C42.499 42.7656 42.2988 42.8418 42.0996 42.8418C41.9004 42.8418 41.7002 42.7656 41.5479 42.6133L37.5947 38.6602C37.29 38.3555 37.29 37.8613 37.5947 37.5566C37.8994 37.252 38.3936 37.252 38.6982 37.5566L42.6514 41.5098ZM7.34863 8.41504C7.04395 8.11035 7.04395 7.61621 7.34863 7.31152C7.65332 7.00684 8.14746 7.00684 8.45215 7.31152L12.4053 11.2646C12.71 11.5693 12.71 12.0635 12.4053 12.3682C12.2529 12.5205 12.0527 12.5967 11.8535 12.5967C11.6543 12.5967 11.4541 12.5205 11.3018 12.3682L7.34863 8.41504ZM7.18945 24.9629C7.18945 25.3936 6.83984 25.7432 6.40918 25.7432H0.819336C0.387695 25.7432 0.0390625 25.3936 0.0390625 24.9629C0.0390625 24.5322 0.388672 24.1826 0.819336 24.1826H6.4082C6.83984 24.1816 7.18945 24.5312 7.18945 24.9629ZM12.4062 37.5566C12.7109 37.8613 12.7109 38.3555 12.4062 38.6602L8.45312 42.6133C8.30078 42.7656 8.10059 42.8418 7.90137 42.8418C7.70215 42.8418 7.50195 42.7656 7.34961 42.6133C7.04492 42.3086 7.04492 41.8145 7.34961 41.5098L11.3027 37.5566C11.6064 37.252 12.1006 37.252 12.4062 37.5566Z" fill="url(#paint0_linear_3878_5267)"/>
</g>
<defs>
<linearGradient id="paint0_linear_3878_5267" x1="0.633371" y1="39.8434" x2="49.265" y2="39.7428" gradientUnits="userSpaceOnUse">
<stop stop-color="#434AE4"/>
<stop offset="0.5" stop-color="#5441B7"/>
<stop offset="1" stop-color="#E86343"/>
</linearGradient>
<clipPath id="clip0_3878_5267">
<rect width="50" height="50" fill="white"/>
</clipPath>
</defs>
</svg>
