<svg width="50" height="50" viewBox="0 0 50 50" fill="none" xmlns="http://www.w3.org/2000/svg">
<path d="M36.5468 13.0626C36.2968 12.7423 35.9375 12.5392 35.539 12.4923C35.1406 12.4454 34.7422 12.5548 34.4297 12.8048L32.0312 14.6798C31.6953 14.9376 31.5078 15.3126 31.4609 15.7032H25.4843C24.6328 15.7032 23.8203 15.9689 23.1328 16.4689L22.6562 16.8126H19.914L18.3672 15.8673C18.7109 15.2345 18.5625 14.422 17.9687 13.961L15.5703 12.086C15.25 11.836 14.8593 11.7267 14.4531 11.7735C14.0547 11.8204 13.6953 12.0235 13.4453 12.3439L8.3906 18.8126C7.87497 19.4689 7.99216 20.422 8.64841 20.9298L11.6406 23.2657C11.7812 23.3751 11.9453 23.422 12.1015 23.422C12.1562 23.422 12.2031 23.3985 12.25 23.3907C12.914 24.2579 13.25 25.3282 13.1875 26.4298L12.1093 27.5079C11.289 28.3282 11.289 29.6564 12.1093 30.4689L12.5156 30.8751C12.6562 31.0157 12.8281 31.1329 12.9922 31.2189L12.6093 31.6017C11.7968 32.422 11.7968 33.7501 12.6093 34.5626L13.0156 34.9689C13.4218 35.3751 13.9609 35.5782 14.5 35.5782C14.9062 35.5782 15.3125 35.461 15.664 35.2267C15.7578 35.4142 15.875 35.586 16.0312 35.7423L16.4375 36.1485C16.8359 36.547 17.3593 36.7579 17.9218 36.7579C18.3593 36.7579 18.7734 36.6251 19.1172 36.3751C19.2109 36.5548 19.3281 36.7345 19.4843 36.8907L19.8906 37.297C20.2968 37.7032 20.8359 37.9064 21.375 37.9064C21.875 37.9064 22.375 37.7189 22.7656 37.3673L23.6172 38.2189C24.0781 38.6798 24.6875 38.9142 25.2968 38.9142C25.9062 38.9142 26.5156 38.6798 26.9765 38.2189C27.2109 37.9845 27.3906 37.7032 27.5078 37.4064C27.8906 37.6407 28.3125 37.7579 28.7422 37.7579C29.3515 37.7579 29.9609 37.5235 30.4297 37.0626C30.6718 36.8204 30.8437 36.5392 30.9609 36.2423C31.3281 36.461 31.7422 36.5782 32.164 36.5782C32.7734 36.5782 33.3828 36.3439 33.8515 35.8829C34.7812 34.9532 34.7812 33.4454 33.8515 32.5157L33.6172 32.2814C33.8828 32.1642 34.1406 32.0001 34.3515 31.7814C35.2812 30.8517 35.2812 29.3439 34.3515 28.4142L34.1093 28.172L37.8047 24.1017C37.8047 24.1017 37.8515 24.1173 37.875 24.1173C38.039 24.1173 38.2031 24.0626 38.3359 23.961L41.3281 21.6251C41.6484 21.3751 41.8515 21.0235 41.8984 20.6173C41.9453 20.2189 41.8359 19.8204 41.5859 19.5079L36.5312 13.0392L36.5468 13.0626ZM9.12497 20.3439L14.6406 13.2814L17.039 15.1564L16.6328 15.6798C16.6328 15.6798 16.625 15.6876 16.6172 15.6954L11.9843 21.6251L9.58591 19.7501L9.12497 20.3439ZM13.6015 29.8282L13.1953 29.422C12.9687 29.1954 12.9687 28.8204 13.1953 28.5939L14.6797 27.1095C14.7968 26.9923 14.9453 26.9376 15.0937 26.9376C15.2422 26.9376 15.3906 26.9923 15.5078 27.1095L15.914 27.5157C16.1406 27.7423 16.1406 28.1173 15.914 28.3439L14.4297 29.8282C14.2031 30.0548 13.8281 30.0548 13.6015 29.8282ZM14.1015 33.9298L13.6953 33.5235C13.4687 33.297 13.4687 32.922 13.6953 32.6954L15.4922 30.8985L16.9765 29.4142C17.0937 29.297 17.2422 29.2423 17.3906 29.2423C17.539 29.2423 17.6875 29.297 17.8047 29.4142L18.2109 29.8204C18.4375 30.047 18.4375 30.422 18.2109 30.6485L16.039 32.8204L14.9218 33.9376C14.6953 34.1642 14.3203 34.1642 14.0937 33.9376L14.1015 33.9298ZM17.5234 35.1173L17.1172 34.711C16.8906 34.4845 16.8906 34.1095 17.1172 33.8829L19.289 31.711C19.5156 31.4845 19.8906 31.4845 20.1172 31.711L20.5234 32.1173C20.75 32.3439 20.75 32.7189 20.5234 32.9454L19.5 33.9689L18.3515 35.1173C18.1328 35.336 17.7422 35.336 17.5234 35.1173ZM20.9765 36.2735L20.5703 35.8673C20.3437 35.6407 20.3437 35.2657 20.5703 35.0392L21.5937 34.0157C21.7109 33.8985 21.8593 33.8439 22.0078 33.8439C22.1562 33.8439 22.3047 33.8985 22.4218 34.0157L22.8281 34.422C23.0547 34.6485 23.0547 35.0235 22.8281 35.2501L21.8047 36.2735C21.5781 36.5001 21.2031 36.5001 20.9765 36.2735ZM25.9297 37.1954C25.5937 37.5314 25.0312 37.5314 24.7031 37.1954L23.8593 36.3517L23.8906 36.3204C24.3828 35.8282 24.5781 35.1485 24.4687 34.5001L25.9297 35.961C26.1406 36.172 26.1797 36.4142 26.1797 36.5782C26.1797 36.8126 26.0859 37.0314 25.9297 37.1954ZM28.6562 27.336C28.3593 27.0392 27.8828 27.0392 27.5859 27.336C27.4375 27.4845 27.3672 27.6798 27.3672 27.8673C27.3672 28.0626 27.4375 28.2501 27.5859 28.3985L31 31.8126L32.7968 33.6095C32.9609 33.7735 33.0547 33.9923 33.0547 34.2267C33.0547 34.461 32.9609 34.6798 32.7968 34.8439C32.4687 35.172 31.875 35.1564 31.5781 34.8595L26.914 29.9376C26.914 29.9376 26.8359 29.8829 26.7968 29.8517C26.7578 29.8204 26.7187 29.7814 26.6718 29.7657C26.6406 29.7501 26.6015 29.7501 26.5625 29.7423C26.5 29.7267 26.4453 29.7032 26.3828 29.7032C26.3593 29.7032 26.3281 29.711 26.3047 29.7189C26.2343 29.7189 26.164 29.7267 26.1015 29.7501C26.0703 29.7657 26.039 29.7892 26.0078 29.8126C25.9531 29.8439 25.8984 29.8673 25.8515 29.9064C25.8125 29.9454 25.789 29.9923 25.7578 30.0392C25.7343 30.0782 25.7031 30.1095 25.6797 30.1485C25.6562 30.2032 25.6484 30.2579 25.6406 30.3126C25.6406 30.3517 25.6172 30.3907 25.6172 30.4298C25.6172 30.4845 25.6328 30.5392 25.6406 30.5939C25.6406 30.6329 25.6406 30.6798 25.664 30.7189C25.6797 30.7657 25.7187 30.8126 25.75 30.8595C25.7734 30.8985 25.789 30.9376 25.8203 30.9689L29.375 34.7892C29.7109 35.1251 29.7109 35.6798 29.375 36.0235C29.0312 36.3673 28.4765 36.3595 28.1406 36.0235L24.6953 32.5782C24.3984 32.2814 23.9218 32.2814 23.625 32.5782C23.5312 32.672 23.4765 32.7892 23.4453 32.9064C23.0859 32.5626 22.6406 32.3751 22.1797 32.336C22.1406 31.8595 21.9453 31.3985 21.5859 31.0392L21.1797 30.6329C20.8203 30.2735 20.3515 30.0782 19.8828 30.0392C19.8437 29.547 19.6406 29.0939 19.289 28.7423L18.8828 28.336C18.5312 27.9845 18.0625 27.797 17.5859 27.7579C17.5468 27.2735 17.3593 26.8048 16.9922 26.4376L16.5859 26.0314C16.0781 25.5235 15.3593 25.3282 14.7031 25.461C14.5703 24.3126 14.1093 23.2267 13.3672 22.3282L17.4687 17.0782L19.3281 18.211C19.4453 18.2814 19.5859 18.3204 19.7187 18.3204H20.5937L19.6484 19.0079C19.1484 19.3751 18.789 19.9142 18.6484 20.5235C18.4843 21.2345 18.2343 22.2735 17.9609 23.1798C17.7578 23.8673 17.9297 24.586 18.4297 25.1017C18.8047 25.4923 19.3047 25.7032 19.8281 25.7032C19.9922 25.7032 20.164 25.6798 20.3281 25.6407C22.1562 25.172 23.5 24.0548 24.2265 22.422C24.2812 22.3048 24.3984 22.211 24.5468 22.1642L25.375 21.9064C25.6484 21.8204 25.9453 21.9454 26.0625 22.2032C26.5156 23.2423 27.3984 24.5782 29.0156 25.2267L32.5703 28.7814C32.5703 28.7814 32.5703 28.7892 32.5781 28.7892L33.2968 29.5079C33.6328 29.8439 33.6328 30.3985 33.2968 30.7423C32.9531 31.086 32.4062 31.086 32.0625 30.7423L28.6484 27.3282L28.6562 27.336ZM31.4922 25.5704C31.7109 25.5548 31.9297 25.5314 32.1484 25.4923C32.5625 25.422 32.8359 25.0314 32.7656 24.6173C32.6953 24.2032 32.3047 23.9298 31.8906 24.0001C31.0703 24.1407 30.3515 24.1017 29.7031 23.8751C28.4765 23.4454 27.7968 22.3985 27.4453 21.5939C27.0234 20.6251 25.9375 20.1407 24.9218 20.461L24.0937 20.7189C23.5312 20.8985 23.0703 21.297 22.8437 21.8048C22.3047 23.0157 21.3281 23.8126 19.9453 24.172C19.7187 24.2345 19.5703 24.1095 19.5156 24.0548C19.4609 24.0001 19.3437 23.8439 19.4062 23.6095C19.6875 22.6642 19.9453 21.5939 20.1172 20.8595C20.1718 20.6095 20.3203 20.3829 20.5312 20.2267L24.0234 17.6798C24.4531 17.3673 24.9609 17.2032 25.4922 17.2032H32.1093L36.7187 23.1017L33.0625 27.1251L31.5 25.5626L31.4922 25.5704ZM40.4218 20.4532L38.0234 22.3282L33.0312 15.9376C33.0312 15.9376 33.0234 15.922 33.0156 15.9142L32.9765 15.8595L35.375 13.9845L40.4297 20.4532H40.4218Z" fill="url(#paint0_linear_3878_5893)"/>
<path d="M43.4893 10.4067L28.3955 1.68799C26.3018 0.477051 23.7002 0.477051 21.6064 1.68799L6.50488 10.4067C4.41113 11.6177 3.10645 13.8677 3.10645 16.2896V20.6177C3.10645 31.1177 8.75488 40.8989 17.8486 46.1489L21.5986 48.313C22.6455 48.9146 23.8174 49.2192 24.9971 49.2192C26.1768 49.2192 27.3486 48.9146 28.3955 48.313L32.1455 46.1489C41.2393 40.8989 46.8877 31.1177 46.8877 20.6177V16.2896C46.8877 13.8677 45.583 11.6177 43.4893 10.4067ZM45.3799 20.6177C45.3799 30.5786 40.0205 39.8599 31.3955 44.8442L27.6455 47.0083C26.0127 47.9536 23.9893 47.9536 22.3643 47.0083L18.6143 44.8442C9.98926 39.8599 4.62988 30.5786 4.62988 20.6177V16.2896C4.62988 14.4067 5.64551 12.6567 7.27051 11.7114L22.3564 3.00049C23.1689 2.53174 24.083 2.29736 24.9971 2.29736C25.9111 2.29736 26.8252 2.53174 27.6377 3.00049L42.7314 11.7114C44.3643 12.6489 45.3721 14.4067 45.3721 16.2896V20.6177H45.3799Z" fill="url(#paint1_linear_3878_5893)"/>
<defs>
<linearGradient id="paint0_linear_3878_5893" x1="8.47171" y1="33.3991" x2="41.4372" y2="33.314" gradientUnits="userSpaceOnUse">
<stop stop-color="#434AE4"/>
<stop offset="0.5" stop-color="#5441B7"/>
<stop offset="1" stop-color="#E86343"/>
</linearGradient>
<linearGradient id="paint1_linear_3878_5893" x1="3.62765" y1="39.38" x2="46.2774" y2="39.3002" gradientUnits="userSpaceOnUse">
<stop stop-color="#434AE4"/>
<stop offset="0.5" stop-color="#5441B7"/>
<stop offset="1" stop-color="#E86343"/>
</linearGradient>
</defs>
</svg>
