<svg width="80" height="80" viewBox="0 0 80 80" fill="none" xmlns="http://www.w3.org/2000/svg">
<path d="M40 76C59.8823 76 76 59.8823 76 40C76 20.1177 59.8823 4 40 4C20.1177 4 4 20.1177 4 40C4 59.8823 20.1177 76 40 76Z" stroke="white" stroke-opacity="0.1" stroke-width="4"/>
<g clip-path="url(#clip0_3878_5015)">
<path d="M28.3847 27.7285C28.0223 27.7285 27.7285 28.0224 27.7285 28.3848V51.6155C27.7285 51.9779 28.0223 52.2717 28.3847 52.2717H51.6154C51.9778 52.2717 52.2717 51.9779 52.2717 51.6155V28.3848C52.2717 28.0224 51.9778 27.7285 51.6154 27.7285H28.3847ZM50.9592 50.9592H29.041V29.041H35.4721V36.1284C35.4721 36.4908 35.7659 36.7846 36.1284 36.7846H43.8719C44.2344 36.7846 44.5282 36.4908 44.5282 36.1284V29.041H50.9592V50.9592H50.9592ZM43.2156 29.041V35.4721H36.7845V29.041H43.2156ZM18.6761 37.3752C19.2977 32.2736 21.7464 27.5534 25.5709 24.0842C29.1147 20.8697 33.6173 18.9415 38.3635 18.5806L37.1866 17.5186C36.9176 17.2758 36.8962 16.8609 37.1391 16.5918C37.3819 16.3227 37.7968 16.3015 38.0659 16.5443L40.4397 18.6864C40.708 18.9285 40.73 19.3419 40.489 19.6112L38.4274 21.9146C38.2977 22.0595 38.1184 22.1333 37.9382 22.1333C37.7824 22.1333 37.626 22.078 37.5008 21.966C37.2307 21.7243 37.2077 21.3095 37.4494 21.0394L38.4797 19.8882C28.9936 20.6052 21.1399 28.0056 19.9788 37.534C19.9382 37.8669 19.6552 38.111 19.3283 38.111C19.3018 38.111 19.2751 38.1093 19.2481 38.106C18.8883 38.0621 18.6323 37.735 18.6761 37.3752ZM61.3165 42.6864C60.6864 47.7353 58.261 52.415 54.487 55.8635C50.9384 59.1058 46.4088 61.0576 41.6376 61.4206L42.8134 62.4818C43.0825 62.7246 43.1038 63.1395 42.8609 63.4086C42.7314 63.5521 42.5529 63.6252 42.3736 63.6252C42.2169 63.6252 42.0597 63.5694 41.9341 63.4561L39.5605 61.3139C39.2922 61.0719 39.2701 60.6584 39.5112 60.3892L41.5726 58.0857C41.8143 57.8155 42.2292 57.7927 42.4992 58.0344C42.7693 58.276 42.7923 58.6909 42.5506 58.961L41.5193 60.1134C50.9648 59.3979 58.8332 51.9879 60.0142 42.5239C60.0591 42.1644 60.3871 41.9101 60.7466 41.954C61.1063 41.9989 61.3615 42.3268 61.3166 42.6864H61.3165ZM37.8444 60.7269C37.7999 61.0564 37.5182 61.2956 37.1948 61.2956C37.1655 61.2956 37.1361 61.2937 37.1064 61.2897C32.0623 60.6104 27.405 58.1379 23.9924 54.3276C20.8338 50.8008 18.9383 46.3349 18.5804 41.6368L17.5184 42.8136C17.3889 42.9571 17.2104 43.0302 17.0311 43.0302C16.8744 43.0302 16.7172 42.9744 16.5916 42.8611C16.3226 42.6183 16.3012 42.2034 16.5441 41.9343L18.6863 39.5605C18.9282 39.2921 19.3418 39.2702 19.611 39.5112L21.9144 41.5727C22.1845 41.8144 22.2074 42.2292 21.9657 42.4993C21.724 42.7694 21.3091 42.7923 21.0391 42.5507L19.8883 41.5208C20.6018 50.8884 27.8916 58.7244 37.2815 59.989C37.6407 60.0375 37.8927 60.3678 37.8443 60.727L37.8444 60.7269ZM63.4559 38.066L61.3138 40.4397C61.1843 40.5833 61.0057 40.6564 60.8264 40.6564C60.6705 40.6564 60.5142 40.6012 60.389 40.4891L58.0856 38.4276C57.8155 38.1859 57.7925 37.771 58.0342 37.5009C58.2759 37.2309 58.6907 37.2079 58.9608 37.4496L60.112 38.4798C59.3966 29.0354 52.0507 21.1947 42.565 19.9913C42.2054 19.9457 41.9509 19.6172 41.9966 19.2577C42.0422 18.8981 42.3709 18.6437 42.7302 18.6893C47.8228 19.3354 52.5273 21.8034 55.9769 25.6386C59.1556 29.1725 61.0609 33.6486 61.4198 38.3633L62.4814 37.1867C62.7244 36.9176 63.1392 36.8963 63.4083 37.1391C63.6774 37.382 63.6987 37.7969 63.4559 38.066Z" fill="white"/>
</g>
<defs>
<clipPath id="clip0_3878_5015">
<rect width="48" height="48" fill="white" transform="translate(16 16)"/>
</clipPath>
</defs>
</svg>
