<svg width="72" height="72" viewBox="0 0 72 72" fill="none" xmlns="http://www.w3.org/2000/svg">
<rect width="72" height="72" rx="36" fill="#F8F1DD"/>
<g clip-path="url(#clip0_3899_18444)">
<path d="M58.1601 42.0378C56.4576 42.4941 57.2764 42.2748 54.3954 43.0468C53.577 39.9962 54.5811 43.744 46.6241 14.0432C46.4142 13.261 45.61 12.7962 44.826 13.0061C28.4259 17.4002 35.1653 15.5948 25.653 18.1437L24.4489 13.6499C24.239 12.8676 23.433 12.4033 22.6504 12.6128L13.9763 14.9364C12.0966 15.4417 12.8674 18.2733 14.7366 17.7716C16.5102 17.2966 15.1032 17.6734 21.9931 15.8277C24.0999 23.6885 22.6665 18.3399 28.9804 41.9038C24.9085 43.7279 22.6281 48.2997 23.8216 52.7579C25.148 57.7066 30.2207 60.633 35.1708 59.3109C39.7012 58.0966 42.4533 53.7877 41.9919 49.4089C56.5297 45.5132 52.4545 46.6049 58.9203 44.8734C60.7953 44.3691 60.0314 41.535 58.1601 42.0378ZM34.4113 56.4757C31.0246 57.3821 27.5602 55.3727 26.6568 51.9988C25.716 48.4901 27.9239 45.0173 31.2769 44.2054C34.5721 43.4078 37.9844 45.3627 38.8882 48.7212C39.7902 52.0966 37.7991 55.5661 34.4113 56.4757ZM31.4431 19.6305L32.5535 23.7731C32.7285 24.4286 33.3214 24.8611 33.97 24.8611C34.2366 24.8611 33.9294 24.923 39.216 23.5068C39.9927 23.2984 40.4648 22.4986 40.2531 21.7098L39.1438 17.5672L44.1686 16.221L47.4843 28.5953C41.8161 30.1147 34.6259 32.0414 29.7348 33.352L26.418 20.977L31.4431 19.6305ZM37.0381 21.051L35.0082 21.5952L34.2784 18.8702L36.3086 18.3264L37.0381 21.051ZM41.1141 36.2616L39.0841 36.8058L38.3543 34.0808L40.3842 33.537L41.1141 36.2616ZM31.8218 41.1417L30.4939 36.1873L35.5187 34.8411L36.6294 38.9836C36.8045 39.6392 37.3974 40.0717 38.0459 40.0717C38.3118 40.0717 38.0057 40.1335 43.2919 38.7174C44.0708 38.5083 44.5392 37.7041 44.329 36.92C43.4922 33.7933 43.7394 34.7158 43.2194 32.7767L48.2446 31.4305L51.5602 43.8066L41.2305 46.5745C39.6045 42.9343 35.7868 40.7308 31.8218 41.1417Z" fill="#FF6600"/>
<path d="M31.9156 46.3114C29.6938 46.7846 28.1388 49.0587 28.7757 51.4314C29.3624 53.6184 31.6171 54.9478 33.8419 54.3567C36.0453 53.7646 37.36 51.5043 36.7661 49.2905C36.1834 47.1193 34.014 45.865 31.9156 46.3114ZM33.0827 51.5211C32.4429 51.6925 31.7823 51.312 31.6113 50.6719C31.441 50.034 31.8178 49.3766 32.4535 49.2027C32.4554 49.2016 32.4587 49.2016 32.4605 49.2005C33.0933 49.0309 33.7573 49.4015 33.9319 50.0497C34.1015 50.6825 33.7309 51.3468 33.0827 51.5211Z" fill="#FF6600"/>
<path d="M22.1636 39.1279H16.4888C14.5497 39.1279 14.5475 42.0631 16.4888 42.0631H22.1633C24.1027 42.0631 24.1046 39.1279 22.1636 39.1279Z" fill="#FF6600"/>
<path d="M20.0101 45.292H13.4553C11.5158 45.292 11.514 48.2272 13.4553 48.2272H20.0101C21.9492 48.2272 21.9514 45.292 20.0101 45.292Z" fill="#FF6600"/>
<path d="M14.8453 35.3131H21.5766C23.5161 35.3131 23.5179 32.3779 21.5766 32.3779H14.8453C12.9062 32.3779 12.904 35.3131 14.8453 35.3131Z" fill="#FF6600"/>
</g>
<defs>
<clipPath id="clip0_3899_18444">
<rect width="48" height="48" fill="white" transform="translate(12 12)"/>
</clipPath>
</defs>
</svg>
