<svg width="72" height="72" viewBox="0 0 72 72" fill="none" xmlns="http://www.w3.org/2000/svg">
<rect width="72" height="72" rx="36" fill="#EDE9FE"/>
<path d="M35.4874 24.1097L29.1312 17.7534C25.4914 19.1386 22.3452 21.5738 20.0918 24.75H35.223C35.2972 24.7499 35.3696 24.7278 35.4312 24.6865C35.4928 24.6452 35.5407 24.5866 35.569 24.5181C35.5973 24.4496 35.6047 24.3742 35.5901 24.3015C35.5756 24.2288 35.5399 24.1621 35.4874 24.1097Z" fill="#7C3AED"/>
<path d="M27.7239 27.75H18.3405C16.6143 31.4293 16.0848 35.5572 16.8264 39.5531L27.9883 28.3903C28.0407 28.3379 28.0765 28.2712 28.091 28.1985C28.1055 28.1258 28.0982 28.0504 28.0699 27.9819C28.0416 27.9134 27.9936 27.8548 27.932 27.8135C27.8705 27.7722 27.798 27.7501 27.7239 27.75Z" fill="#7C3AED"/>
<path d="M44.2499 27.7238V18.3338C40.5693 16.6129 36.4428 16.0858 32.4478 16.8263L43.6096 27.9881C43.662 28.0406 43.7288 28.0763 43.8015 28.0908C43.8742 28.1054 43.9495 28.098 44.0181 28.0697C44.0866 28.0414 44.1452 27.9935 44.1864 27.9319C44.2277 27.8703 44.2498 27.7979 44.2499 27.7238Z" fill="#7C3AED"/>
<path d="M55.1732 32.4473L44.0113 43.6101C43.9589 43.6625 43.9232 43.7292 43.9086 43.8019C43.8941 43.8746 43.9015 43.95 43.9297 44.0185C43.958 44.087 44.006 44.1456 44.0676 44.1869C44.1292 44.2282 44.2016 44.2503 44.2757 44.2504H53.6592C55.3853 40.571 55.9149 36.4432 55.1732 32.4473Z" fill="#7C3AED"/>
<path d="M47.8903 35.4879L54.2494 29.1298C52.8679 25.4847 50.431 22.3342 47.25 20.0811V35.2236C47.2501 35.2977 47.2722 35.3701 47.3135 35.4317C47.3548 35.4933 47.4134 35.5412 47.4819 35.5695C47.5504 35.5978 47.6258 35.6052 47.6985 35.5906C47.7712 35.5761 47.8379 35.5404 47.8903 35.4879Z" fill="#7C3AED"/>
<path d="M32.7821 44.0412C32.9218 44.1753 33.1079 44.2502 33.3015 44.2503H38.8946C38.9941 44.2502 39.0926 44.2304 39.1843 44.1919C39.2761 44.1534 39.3593 44.0971 39.429 44.0262L44.0396 39.3387C44.178 39.1982 44.2554 39.009 44.2553 38.8118L44.2496 33.1109C44.2496 33.0116 44.2299 32.9134 44.1916 32.8218C44.1533 32.7302 44.0972 32.6472 44.0265 32.5774L39.339 27.9603C39.1983 27.8217 39.0087 27.7442 38.8112 27.7446L33.1075 27.7503C33.0082 27.7503 32.9099 27.77 32.8184 27.8083C32.7268 27.8466 32.6438 27.9027 32.574 27.9734L27.9568 32.6609C27.8183 32.8016 27.7408 32.9912 27.7412 33.1887L27.7468 38.8868C27.7469 38.9876 27.7672 39.0874 27.8067 39.1802C27.8461 39.273 27.9039 39.3569 27.9765 39.4268L32.7821 44.0412Z" fill="#7C3AED"/>
<path d="M36.5113 47.8903L42.8676 54.2466C46.5073 52.8614 49.6535 50.4262 51.907 47.25H36.7757C36.7016 47.2501 36.6292 47.2722 36.5676 47.3135C36.506 47.3548 36.458 47.4134 36.4297 47.4819C36.4015 47.5504 36.3941 47.6258 36.4086 47.6985C36.4232 47.7712 36.4589 47.8379 36.5113 47.8903Z" fill="#7C3AED"/>
<path d="M27.75 44.2762V53.6662C31.4306 55.387 35.5572 55.9141 39.5522 55.1737L28.3903 44.0118C28.3379 43.9594 28.2712 43.9236 28.1985 43.9091C28.1258 43.8946 28.0504 43.9019 27.9819 43.9302C27.9134 43.9585 27.8548 44.0065 27.8135 44.0681C27.7722 44.1297 27.7501 44.2021 27.75 44.2762Z" fill="#7C3AED"/>
<path d="M24.11 36.5118L17.751 42.8709C19.1327 46.5156 21.5696 49.6657 24.7504 51.9187V36.7762C24.7502 36.7021 24.7281 36.6297 24.6869 36.5681C24.6456 36.5065 24.587 36.4585 24.5185 36.4302C24.4499 36.4019 24.3746 36.3946 24.3019 36.4091C24.2292 36.4236 24.1624 36.4594 24.11 36.5118Z" fill="#7C3AED"/>
</svg>
