<svg width="81" height="81" viewBox="0 0 81 81" fill="none" xmlns="http://www.w3.org/2000/svg">
<path d="M40.7969 76.8008C60.6791 76.8008 76.7969 60.683 76.7969 40.8008C76.7969 20.9185 60.6791 4.80078 40.7969 4.80078C20.9146 4.80078 4.79688 20.9185 4.79688 40.8008C4.79688 60.683 20.9146 76.8008 40.7969 76.8008Z" stroke="white" stroke-opacity="0.1" stroke-width="4"/>
<path d="M40.7969 27.4688V54.1354" stroke="white" stroke-width="2.66667" stroke-linecap="round" stroke-linejoin="round"/>
<path d="M47.4635 31.4688H37.4635C36.2259 31.4688 35.0389 31.9604 34.1637 32.8356C33.2885 33.7108 32.7969 34.8977 32.7969 36.1354C32.7969 37.3731 33.2885 38.5601 34.1637 39.4352C35.0389 40.3104 36.2259 40.8021 37.4635 40.8021H44.1302C45.3679 40.8021 46.5549 41.2937 47.43 42.1689C48.3052 43.0441 48.7969 44.2311 48.7969 45.4687C48.7969 46.7064 48.3052 47.8934 47.43 48.7686C46.5549 49.6438 45.3679 50.1354 44.1302 50.1354H32.7969" stroke="white" stroke-width="2.66667" stroke-linecap="round" stroke-linejoin="round"/>
</svg>
