<svg width="80" height="81" viewBox="0 0 80 81" fill="none" xmlns="http://www.w3.org/2000/svg">
<path d="M40 76.8008C59.8823 76.8008 76 60.683 76 40.8008C76 20.9185 59.8823 4.80078 40 4.80078C20.1177 4.80078 4 20.9185 4 40.8008C4 60.683 20.1177 76.8008 40 76.8008Z" stroke="white" stroke-opacity="0.1" stroke-width="4"/>
<path d="M29.3301 43.4683C29.0778 43.4692 28.8304 43.3984 28.6167 43.2643C28.403 43.1301 28.2317 42.9381 28.1228 42.7105C28.0139 42.4829 27.9718 42.2291 28.0014 41.9785C28.031 41.728 28.1311 41.4909 28.2901 41.295L41.4901 27.695C41.5891 27.5807 41.724 27.5035 41.8727 27.476C42.0214 27.4485 42.175 27.4723 42.3084 27.5437C42.4417 27.615 42.5468 27.7295 42.6065 27.8685C42.6662 28.0074 42.6768 28.1625 42.6367 28.3083L40.0767 36.335C40.0012 36.537 39.9759 36.7543 40.0029 36.9683C40.0298 37.1823 40.1083 37.3866 40.2315 37.5636C40.3548 37.7405 40.5191 37.885 40.7104 37.9845C40.9018 38.0841 41.1144 38.1357 41.3301 38.135H50.6634C50.9157 38.1341 51.1631 38.2049 51.3768 38.339C51.5905 38.4732 51.7618 38.6652 51.8707 38.8928C51.9796 39.1204 52.0217 39.3742 51.9921 39.6248C51.9625 39.8753 51.8624 40.1124 51.7034 40.3083L38.5034 53.9083C38.4044 54.0226 38.2695 54.0998 38.1208 54.1273C37.9721 54.1548 37.8184 54.131 37.6851 54.0596C37.5518 53.9883 37.4466 53.8738 37.387 53.7348C37.3273 53.5959 37.3166 53.4408 37.3567 53.295L39.9167 45.2683C39.9922 45.0663 40.0176 44.849 39.9906 44.635C39.9637 44.421 39.8852 44.2167 39.7619 44.0397C39.6387 43.8628 39.4744 43.7183 39.283 43.6188C39.0917 43.5192 38.8791 43.4676 38.6634 43.4683H29.3301Z" stroke="white" stroke-width="2.66667" stroke-linecap="round" stroke-linejoin="round"/>
</svg>
