<svg width="50" height="50" viewBox="0 0 50 50" fill="none" xmlns="http://www.w3.org/2000/svg">
<path d="M29.7025 36.6407C29.7751 36.7134 29.8612 36.771 29.9561 36.8103C30.0509 36.8496 30.1526 36.8699 30.2552 36.8699C30.3579 36.8699 30.4596 36.8496 30.5544 36.8103C30.6493 36.771 30.7354 36.7134 30.808 36.6407L33.6744 33.7743C33.747 33.7018 33.8046 33.6157 33.8439 33.5209C33.8832 33.4261 33.9034 33.3245 33.9034 33.2219C33.9035 33.1193 33.8833 33.0176 33.8441 32.9228C33.8048 32.828 33.7473 32.7418 33.6748 32.6693C33.6022 32.5967 33.5161 32.5391 33.4213 32.4998C33.3265 32.4605 33.2249 32.4402 33.1223 32.4402C33.0197 32.4401 32.9181 32.4603 32.8233 32.4996C32.7284 32.5388 32.6423 32.5963 32.5697 32.6689L30.2549 34.9837L29.4431 34.1696C29.2958 34.0273 29.0984 33.9486 28.8936 33.9504C28.6888 33.9521 28.4928 34.0343 28.348 34.1792C28.2031 34.324 28.121 34.52 28.1192 34.7248C28.1174 34.9296 28.1961 35.127 28.3384 35.2743L29.7025 36.6407Z" fill="url(#paint0_linear_3878_5207)"/>
<path d="M35.8643 35.7026H40.0322C40.2394 35.7026 40.4381 35.6203 40.5847 35.4738C40.7312 35.3273 40.8135 35.1286 40.8135 34.9214C40.8135 34.7142 40.7312 34.5155 40.5847 34.369C40.4381 34.2224 40.2394 34.1401 40.0322 34.1401H35.8643C35.6571 34.1401 35.4583 34.2224 35.3118 34.369C35.1653 34.5155 35.083 34.7142 35.083 34.9214C35.083 35.1286 35.1653 35.3273 35.3118 35.4738C35.4583 35.6203 35.6571 35.7026 35.8643 35.7026Z" fill="url(#paint1_linear_3878_5207)"/>
<path d="M29.7025 42.625C29.7751 42.6977 29.8612 42.7553 29.9561 42.7946C30.0509 42.8339 30.1526 42.8541 30.2552 42.8541C30.3579 42.8541 30.4596 42.8339 30.5544 42.7946C30.6493 42.7553 30.7354 42.6977 30.808 42.625L33.6744 39.7578C33.8167 39.6105 33.8954 39.4131 33.8937 39.2083C33.8919 39.0035 33.8097 38.8075 33.6649 38.6627C33.52 38.5178 33.3241 38.4356 33.1192 38.4339C32.9144 38.4321 32.717 38.5108 32.5697 38.6531L30.2549 40.9672L29.4431 40.1555C29.2958 40.0132 29.0984 39.9344 28.8936 39.9362C28.6888 39.938 28.4928 40.0202 28.348 40.165C28.2031 40.3099 28.121 40.5058 28.1192 40.7106C28.1174 40.9155 28.1961 41.1128 28.3384 41.2602L29.7025 42.625Z" fill="url(#paint2_linear_3878_5207)"/>
<path d="M35.8643 41.6917H40.0322C40.2394 41.6917 40.4381 41.6093 40.5847 41.4628C40.7312 41.3163 40.8135 41.1176 40.8135 40.9104C40.8135 40.7032 40.7312 40.5045 40.5847 40.358C40.4381 40.2115 40.2394 40.1292 40.0322 40.1292H35.8643C35.6571 40.1292 35.4583 40.2115 35.3118 40.358C35.1653 40.5045 35.083 40.7032 35.083 40.9104C35.083 41.1176 35.1653 41.3163 35.3118 41.4628C35.4583 41.6093 35.6571 41.6917 35.8643 41.6917Z" fill="url(#paint3_linear_3878_5207)"/>
<path d="M25.9858 1.5625H16.0608C15.8536 1.5625 15.6549 1.64481 15.5084 1.79132C15.3619 1.93784 15.2796 2.13655 15.2796 2.34375V5.95703H11.1226C10.9154 5.95703 10.7166 6.03934 10.5701 6.18585C10.4236 6.33237 10.3413 6.53108 10.3413 6.73828V7.90547H6.57959C6.37239 7.90547 6.17368 7.98778 6.02716 8.13429C5.88065 8.2808 5.79834 8.47952 5.79834 8.68672V44.3391C5.79834 44.5463 5.88065 44.745 6.02716 44.8915C6.17368 45.038 6.37239 45.1203 6.57959 45.1203H23.9921V47.6562C23.9921 47.8634 24.0744 48.0622 24.2209 48.2087C24.3674 48.3552 24.5661 48.4375 24.7733 48.4375H43.4171C43.6243 48.4375 43.823 48.3552 43.9695 48.2087C44.116 48.0622 44.1983 47.8634 44.1983 47.6562V29.0133C44.1983 28.8061 44.116 28.6074 43.9695 28.4609C43.823 28.3143 43.6243 28.232 43.4171 28.232H36.2483V8.68672C36.2483 8.47952 36.166 8.2808 36.0195 8.13429C35.873 7.98778 35.6743 7.90547 35.4671 7.90547H31.7046V6.73828C31.7046 6.53108 31.6223 6.33237 31.4758 6.18585C31.3293 6.03934 31.1305 5.95703 30.9233 5.95703H26.7671V2.34375C26.7671 2.13655 26.6848 1.93784 26.5383 1.79132C26.3918 1.64481 26.193 1.5625 25.9858 1.5625ZM16.8421 3.125H25.2015V5.95703H16.8421V3.125ZM30.7999 28.232H29.364C29.2455 27.6917 28.9452 27.2083 28.5131 26.8628C28.0811 26.5173 27.5436 26.3305 26.9904 26.3337C26.4372 26.337 25.9019 26.5299 25.4739 26.8804C25.0459 27.2309 24.7512 27.7177 24.639 28.2594C24.4594 28.2884 24.296 28.38 24.1776 28.518C24.0592 28.656 23.9935 28.8314 23.9921 29.0133V35.2891H19.3233C19.1161 35.2891 18.9174 35.3714 18.7709 35.5179C18.6244 35.6644 18.5421 35.8631 18.5421 36.0703C18.5421 36.2775 18.6244 36.4762 18.7709 36.6227C18.9174 36.7693 19.1161 36.8516 19.3233 36.8516H23.9921V40.2633H11.0608V18.0047H30.7999V28.232ZM27.6679 28.232H26.3397C26.4158 28.1271 26.5157 28.0418 26.6311 27.9829C26.7465 27.924 26.8742 27.8933 27.0038 27.8933C27.1334 27.8933 27.2611 27.924 27.3765 27.9829C27.492 28.0418 27.5918 28.1271 27.6679 28.232ZM42.6358 46.875H25.5546V44.3469V44.3391V44.3312V41.05V41.0422V41.0344V36.0781V36.0703V36.0625V29.7945H42.6358V46.875ZM32.3624 28.232V17.2234C32.3624 17.0162 32.2801 16.8175 32.1336 16.671C31.9871 16.5245 31.7884 16.4422 31.5812 16.4422H10.2796C10.0724 16.4422 9.87368 16.5245 9.72716 16.671C9.58065 16.8175 9.49834 17.0162 9.49834 17.2234V41.0445C9.49834 41.2517 9.58065 41.4504 9.72716 41.597C9.87368 41.7435 10.0724 41.8258 10.2796 41.8258H23.9921V43.5578H7.36084V14.782H34.6858V28.232H32.3624ZM34.6858 9.46797V13.218H7.36084V9.46797H10.3413V10.6398C10.3413 10.847 10.4236 11.0458 10.5701 11.1923C10.7166 11.3388 10.9154 11.4211 11.1226 11.4211H30.9233C31.1305 11.4211 31.3293 11.3388 31.4758 11.1923C31.6223 11.0458 31.7046 10.847 31.7046 10.6398V9.46797H34.6858ZM30.1397 8.68672V9.85859H11.9038V7.51953H30.1421L30.1397 8.68672Z" fill="url(#paint4_linear_3878_5207)"/>
<path d="M15.0443 24.1229C15.5223 24.1229 15.9894 23.9811 16.3868 23.7156C16.7842 23.4501 17.0939 23.0727 17.2768 22.6312C17.4597 22.1896 17.5075 21.7038 17.4143 21.235C17.3211 20.7663 17.0909 20.3357 16.753 19.9978C16.4151 19.6598 15.9845 19.4297 15.5158 19.3365C15.047 19.2432 14.5612 19.2911 14.1196 19.474C13.6781 19.6569 13.3007 19.9666 13.0352 20.364C12.7696 20.7613 12.6279 21.2285 12.6279 21.7064C12.6294 22.3469 12.8844 22.9607 13.3373 23.4135C13.7901 23.8664 14.4039 24.1214 15.0443 24.1229ZM15.0443 20.8525C15.2132 20.8525 15.3783 20.9026 15.5187 20.9964C15.6592 21.0903 15.7686 21.2236 15.8332 21.3797C15.8979 21.5357 15.9148 21.7074 15.8818 21.873C15.8489 22.0387 15.7676 22.1908 15.6481 22.3102C15.5287 22.4297 15.3766 22.511 15.2109 22.5439C15.0453 22.5769 14.8736 22.56 14.7176 22.4954C14.5615 22.4307 14.4282 22.3213 14.3343 22.1809C14.2405 22.0404 14.1904 21.8753 14.1904 21.7064C14.1906 21.48 14.2807 21.263 14.4408 21.1029C14.6009 20.9428 14.8179 20.8527 15.0443 20.8525Z" fill="url(#paint5_linear_3878_5207)"/>
<path d="M19.3237 22.4868H28.6433C28.8505 22.4868 29.0492 22.4045 29.1957 22.258C29.3422 22.1115 29.4245 21.9128 29.4245 21.7056C29.4245 21.4984 29.3422 21.2997 29.1957 21.1531C29.0492 21.0066 28.8505 20.9243 28.6433 20.9243H19.3237C19.1165 20.9243 18.9178 21.0066 18.7713 21.1531C18.6248 21.2997 18.5425 21.4984 18.5425 21.7056C18.5425 21.9128 18.6248 22.1115 18.7713 22.258C18.9178 22.4045 19.1165 22.4868 19.3237 22.4868Z" fill="url(#paint6_linear_3878_5207)"/>
<path d="M15.0443 38.4876C15.5223 38.4876 15.9894 38.3459 16.3868 38.0804C16.7842 37.8148 17.0939 37.4375 17.2768 36.9959C17.4597 36.5544 17.5075 36.0685 17.4143 35.5998C17.3211 35.131 17.0909 34.7005 16.753 34.3625C16.4151 34.0246 15.9845 33.7945 15.5158 33.7012C15.047 33.608 14.5612 33.6558 14.1196 33.8387C13.6781 34.0216 13.3007 34.3313 13.0352 34.7287C12.7696 35.1261 12.6279 35.5933 12.6279 36.0712C12.6294 36.7116 12.8844 37.3254 13.3373 37.7783C13.7901 38.2311 14.4039 38.4862 15.0443 38.4876ZM15.0443 35.2173C15.2132 35.2173 15.3783 35.2674 15.5187 35.3612C15.6592 35.455 15.7686 35.5884 15.8332 35.7444C15.8979 35.9004 15.9148 36.0721 15.8818 36.2378C15.8489 36.4034 15.7676 36.5556 15.6481 36.675C15.5287 36.7944 15.3766 36.8757 15.2109 36.9087C15.0453 36.9416 14.8736 36.9247 14.7176 36.8601C14.5615 36.7955 14.4282 36.686 14.3343 36.5456C14.2405 36.4052 14.1904 36.2401 14.1904 36.0712C14.1906 35.8448 14.2807 35.6277 14.4408 35.4676C14.6009 35.3075 14.8179 35.2175 15.0443 35.2173Z" fill="url(#paint7_linear_3878_5207)"/>
<path d="M13.4092 29.5317H22.7318C22.939 29.5317 23.1377 29.4494 23.2843 29.3029C23.4308 29.1564 23.5131 28.9577 23.5131 28.7505C23.5131 28.5433 23.4308 28.3446 23.2843 28.1981C23.1377 28.0515 22.939 27.9692 22.7318 27.9692H13.4092C13.202 27.9692 13.0033 28.0515 12.8568 28.1981C12.7102 28.3446 12.6279 28.5433 12.6279 28.7505C12.6279 28.9577 12.7102 29.1564 12.8568 29.3029C13.0033 29.4494 13.202 29.5317 13.4092 29.5317Z" fill="url(#paint8_linear_3878_5207)"/>
<defs>
<linearGradient id="paint0_linear_3878_5207" x1="28.188" y1="35.9701" x2="33.8228" y2="35.9549" gradientUnits="userSpaceOnUse">
<stop stop-color="#434AE4"/>
<stop offset="0.5" stop-color="#5441B7"/>
<stop offset="1" stop-color="#E86343"/>
</linearGradient>
<linearGradient id="paint1_linear_3878_5207" x1="35.1512" y1="35.3853" x2="40.7333" y2="35.3429" gradientUnits="userSpaceOnUse">
<stop stop-color="#434AE4"/>
<stop offset="0.5" stop-color="#5441B7"/>
<stop offset="1" stop-color="#E86343"/>
</linearGradient>
<linearGradient id="paint2_linear_3878_5207" x1="28.1879" y1="41.9563" x2="33.8132" y2="41.9411" gradientUnits="userSpaceOnUse">
<stop stop-color="#434AE4"/>
<stop offset="0.5" stop-color="#5441B7"/>
<stop offset="1" stop-color="#E86343"/>
</linearGradient>
<linearGradient id="paint3_linear_3878_5207" x1="35.1512" y1="41.3743" x2="40.7333" y2="41.3319" gradientUnits="userSpaceOnUse">
<stop stop-color="#434AE4"/>
<stop offset="0.5" stop-color="#5441B7"/>
<stop offset="1" stop-color="#E86343"/>
</linearGradient>
<linearGradient id="paint4_linear_3878_5207" x1="6.25548" y1="38.916" x2="43.6631" y2="38.8526" gradientUnits="userSpaceOnUse">
<stop stop-color="#434AE4"/>
<stop offset="0.5" stop-color="#5441B7"/>
<stop offset="1" stop-color="#E86343"/>
</linearGradient>
<linearGradient id="paint5_linear_3878_5207" x1="12.6855" y1="23.1412" x2="17.3934" y2="23.1314" gradientUnits="userSpaceOnUse">
<stop stop-color="#434AE4"/>
<stop offset="0.5" stop-color="#5441B7"/>
<stop offset="1" stop-color="#E86343"/>
</linearGradient>
<linearGradient id="paint6_linear_3878_5207" x1="18.672" y1="22.1694" x2="29.2707" y2="22.0166" gradientUnits="userSpaceOnUse">
<stop stop-color="#434AE4"/>
<stop offset="0.5" stop-color="#5441B7"/>
<stop offset="1" stop-color="#E86343"/>
</linearGradient>
<linearGradient id="paint7_linear_3878_5207" x1="12.6855" y1="37.5059" x2="17.3934" y2="37.4962" gradientUnits="userSpaceOnUse">
<stop stop-color="#434AE4"/>
<stop offset="0.5" stop-color="#5441B7"/>
<stop offset="1" stop-color="#E86343"/>
</linearGradient>
<linearGradient id="paint8_linear_3878_5207" x1="12.7575" y1="29.2144" x2="23.3592" y2="29.0614" gradientUnits="userSpaceOnUse">
<stop stop-color="#434AE4"/>
<stop offset="0.5" stop-color="#5441B7"/>
<stop offset="1" stop-color="#E86343"/>
</linearGradient>
</defs>
</svg>
