<svg width="80" height="80" viewBox="0 0 80 80" fill="none" xmlns="http://www.w3.org/2000/svg">
<path d="M40 76C59.8823 76 76 59.8823 76 40C76 20.1177 59.8823 4 40 4C20.1177 4 4 20.1177 4 40C4 59.8823 20.1177 76 40 76Z" stroke="white" stroke-opacity="0.1" stroke-width="4"/>
<path d="M49.2454 41.6128C48.2662 43.312 45.7126 42.9664 45.2038 41.0848C45.1174 40.7488 45.1078 40.3936 45.175 40.0384L43.8502 39.2704C42.5638 41.0944 40.5286 42.3232 38.2246 42.5152V44.0416C39.7894 44.5408 40.2886 46.528 39.1174 47.7088C37.7254 49.1008 35.3446 48.112 35.3446 46.1536C35.3446 45.184 35.9782 44.3392 36.8806 44.0512V42.5248C34.5766 42.3232 32.5318 41.104 31.255 39.28L29.9302 40.048C30.2854 41.6608 28.7974 43.072 27.2038 42.6496C25.3126 42.1408 24.967 39.5872 26.6662 38.608C27.511 38.1184 28.5574 38.2528 29.2582 38.8864L30.583 38.128C29.623 36.0736 29.623 33.6832 30.583 31.6288L29.2582 30.8608C28.0486 31.9648 26.071 31.3984 25.639 29.7952C25.1686 28.0288 26.9734 26.3488 28.8262 27.2896C29.6806 27.7216 30.1414 28.7584 29.9302 29.6992L31.255 30.4672C32.5414 28.6432 34.5766 27.424 36.8806 27.2224V25.696C35.3158 25.1968 34.8166 23.2 35.9878 22.0288C37.3798 20.6368 39.7606 21.6256 39.7606 23.5936C39.7606 24.5632 39.127 25.408 38.2246 25.696V27.2224C40.5286 27.424 42.5638 28.6432 43.8502 30.4672L45.175 29.6992C44.8198 28.096 46.3078 26.6752 47.9014 27.0976C49.7926 27.6064 50.1286 30.16 48.439 31.1392C47.5942 31.6288 46.5478 31.504 45.847 30.8608L44.5222 31.6288C45.4822 33.6832 45.4822 36.0736 44.5222 38.128L45.847 38.8864C47.0566 37.7824 49.0342 38.3488 49.4662 39.952C49.6102 40.4896 49.543 41.0848 49.2454 41.6128ZM47.5558 41.344C48.295 41.1424 48.4294 40.144 47.767 39.76C47.3542 39.52 46.8262 39.664 46.5862 40.0768C46.2022 40.7392 46.807 41.5456 47.5558 41.344ZM28.0006 30.0544C28.2118 29.9968 28.4038 29.8624 28.5286 29.6512C28.9126 28.9984 28.3078 28.1824 27.559 28.384C26.8102 28.5856 26.6854 29.584 27.3478 29.968C27.5494 30.0928 27.7894 30.112 28.0006 30.0544ZM48.1702 29.4496C48.3718 28.7008 47.5654 28.096 46.903 28.48C46.4902 28.72 46.3558 29.2672 46.567 29.632C46.9894 30.352 47.9782 30.16 48.1702 29.4496ZM28.5382 40.1056C28.3942 39.8848 28.2694 39.7504 28.0006 39.6736C27.2518 39.472 26.647 40.2784 27.031 40.9408C27.415 41.6032 28.423 41.4688 28.615 40.7296C28.663 40.528 28.6438 40.3072 28.5382 40.1056ZM38.167 22.96C37.6294 22.4224 36.6886 22.8064 36.6886 23.5744C36.6886 24.3424 37.6198 24.7264 38.167 24.1792C38.503 23.8432 38.503 23.3056 38.167 22.96ZM38.167 45.5488C37.6294 45.0112 36.6886 45.3952 36.6886 46.1632C36.6886 46.9312 37.6198 47.3152 38.167 46.768C38.503 46.432 38.503 45.8848 38.167 45.5488ZM33.5974 35.0848C33.415 34.768 33.5206 34.3552 33.847 34.1728C34.1638 33.9904 34.5766 34.096 34.759 34.4224L35.7958 36.2176L40.4998 31.984C40.7782 31.7344 41.2006 31.7536 41.4502 32.032C41.6998 32.3104 41.6806 32.7328 41.4022 32.9824L36.0646 37.7536C35.7478 38.032 35.2486 37.9648 35.0374 37.5904L33.5974 35.0848ZM42.0454 30.3808C39.5686 27.904 35.5462 27.904 33.0694 30.3808C30.5926 32.8576 30.5926 36.88 33.0694 39.3568C35.5462 41.8336 39.5686 41.8336 42.0454 39.3568C44.5222 36.8704 44.5222 32.8576 42.0454 30.3808ZM28.375 54.4192H28.9894V50.2528C23.6806 47.1424 20.3398 41.4496 20.3398 35.1808C20.3398 25.5424 28.1542 17.728 37.8022 17.728C42.2278 17.728 46.2694 19.3792 49.3414 22.096C53.335 25.6192 55.4854 30.7072 55.2262 36.0352C55.2166 36.2368 55.207 36.4384 55.1878 36.64L59.5462 43.216C59.7958 43.6 59.5942 44.1184 59.1622 44.2336L55.1302 45.3184V51.9712C55.1302 52.3456 54.8326 52.6432 54.4582 52.6432H44.2918V54.4288H45.1654C47.3254 54.4288 49.0918 56.1952 49.0918 58.3552C49.0918 60.5152 47.3254 62.2816 45.1654 62.2816H29.3254C27.1654 62.2816 25.399 60.5152 25.399 58.3552V57.4144C25.3894 55.7632 26.7334 54.4192 28.375 54.4192ZM45.1654 55.7632H28.375C27.4726 55.7632 26.7334 56.5024 26.7334 57.4048V58.3456C26.7334 59.7664 27.895 60.928 29.3158 60.928H45.1558C47.4214 60.928 48.6214 58.1632 46.9798 56.5216C46.519 56.0512 45.8662 55.7632 45.1654 55.7632ZM48.4582 23.0944C42.0838 17.4688 32.4262 17.776 26.407 23.7856C21.2326 28.9696 20.1766 37.024 23.9014 43.3504C25.351 45.8176 27.4438 47.8528 29.9398 49.2544C30.1702 49.36 30.3334 49.5904 30.3334 49.8592V54.4192H42.9478V51.9712C42.9478 51.5968 43.2454 51.2992 43.6198 51.2992H53.7766V44.8C53.7766 44.5024 53.9686 44.2336 54.2758 44.1472L57.9046 43.1776L53.9398 37.1872C53.8534 37.0624 53.815 36.9088 53.8342 36.7552C54.3334 31.6 52.3654 26.5504 48.4582 23.0944Z" fill="white"/>
</svg>
