<svg width="80" height="80" viewBox="0 0 80 80" fill="none" xmlns="http://www.w3.org/2000/svg">
<path d="M40 76C59.8823 76 76 59.8823 76 40C76 20.1177 59.8823 4 40 4C20.1177 4 4 20.1177 4 40C4 59.8823 20.1177 76 40 76Z" stroke="white" stroke-opacity="0.1" stroke-width="4"/>
<path d="M63.25 34.4321H54.3446C53.9531 26.859 47.6688 20.8181 40 20.8181C32.3312 20.8181 26.0469 26.859 25.6554 34.4321H16.75C16.5511 34.4321 16.3603 34.5111 16.2197 34.6518C16.079 34.7924 16 34.9832 16 35.1821V38.697C16 38.8786 16.0659 39.0541 16.1855 39.1908C16.3051 39.3275 16.4702 39.4162 16.6502 39.4403L21.2481 40.0573C21.6971 41.7899 22.386 43.4513 23.2949 44.9932L20.4785 48.6821C20.3683 48.8265 20.3141 49.0059 20.3262 49.1872C20.3383 49.3684 20.4157 49.5391 20.5442 49.6676L25.5143 54.6379C25.6428 54.7663 25.8135 54.8437 25.9947 54.8558C26.176 54.8679 26.3555 54.8137 26.4998 54.7035L30.1896 51.8868C31.7314 52.7954 33.3926 53.4841 35.125 53.933L35.7422 58.532C35.7663 58.712 35.855 58.8771 35.9917 58.9966C36.1284 59.1162 36.3039 59.1821 36.4855 59.1821H43.5145C43.6961 59.1821 43.8716 59.1162 44.0083 58.9966C44.145 58.877 44.2337 58.7119 44.2578 58.5319L44.875 53.9335C46.6074 53.4846 48.2686 52.796 49.8106 51.8876L53.5 54.7037C53.6444 54.8139 53.8238 54.8681 54.0051 54.856C54.1863 54.8439 54.357 54.7665 54.4855 54.6381L59.4557 49.6678C59.5841 49.5393 59.6615 49.3686 59.6736 49.1874C59.6857 49.0061 59.6315 48.8267 59.5213 48.6823L56.7049 44.993C57.6137 43.451 58.3026 41.7897 58.7516 40.0571L63.3496 39.4401C63.5296 39.416 63.6947 39.3274 63.8144 39.1907C63.934 39.0541 64 38.8786 64 38.697V35.1821C64 34.9832 63.921 34.7924 63.7803 34.6518C63.6397 34.5111 63.4489 34.4321 63.25 34.4321ZM40 22.3181C47.0933 22.3181 52.8641 28.0889 52.8641 35.1821C52.8641 42.2753 47.0933 48.0462 40 48.0462C32.9067 48.0462 27.1359 42.2755 27.1359 35.1821C27.1359 28.0887 32.9067 22.3181 40 22.3181ZM62.5 38.0407L58.0452 38.6386C57.894 38.6589 57.7527 38.7248 57.6399 38.8274C57.5272 38.9301 57.4484 39.0648 57.4142 39.2134C56.971 41.1361 56.21 42.9714 55.1626 44.6436C55.0816 44.7729 55.042 44.9239 55.0491 45.0763C55.0562 45.2287 55.1096 45.3754 55.2022 45.4967L57.9311 49.0714L53.8887 53.1137L50.3141 50.385C50.1928 50.2924 50.0462 50.2389 49.8937 50.2318C49.7413 50.2247 49.5903 50.2643 49.461 50.3452C47.7888 51.3922 45.9537 52.1529 44.0312 52.596C43.8826 52.6303 43.748 52.709 43.6453 52.8218C43.5426 52.9346 43.4767 53.076 43.4565 53.2271L42.8587 57.6821H37.1416L36.5436 53.2264C36.5233 53.0752 36.4574 52.9338 36.3547 52.8211C36.252 52.7083 36.1174 52.6296 35.9688 52.5953C34.0462 52.1523 32.2111 51.3916 30.539 50.3444C30.4097 50.2634 30.2587 50.2239 30.1063 50.231C29.9538 50.2381 29.8072 50.2915 29.6859 50.3841L26.1109 53.1132L22.0689 49.0709L24.7977 45.4963C24.8903 45.375 24.9437 45.2284 24.9508 45.0759C24.9579 44.9235 24.9183 44.7725 24.8373 44.6432C23.7898 42.971 23.0289 41.1357 22.5858 39.2129C22.5516 39.0643 22.4728 38.9297 22.3601 38.827C22.2473 38.7243 22.106 38.6584 21.9548 38.6381L17.5 38.0407V35.9323H25.6554C26.0469 43.5053 32.3312 49.5462 40 49.5462C47.6688 49.5462 53.9531 43.5053 54.3446 35.9321H62.5V38.0407ZM31.8333 41.0061C32.2048 41.2201 32.6177 41.352 33.0443 41.3931C33.0369 41.897 33.1565 42.3947 33.392 42.8402C33.6276 43.2857 33.9715 43.6648 34.3921 43.9424C34.8126 44.22 35.2964 44.3873 35.7986 44.4288C36.3008 44.4703 36.8054 44.3846 37.2659 44.1798C37.5033 44.7061 37.8876 45.1526 38.3726 45.4659C38.8576 45.7792 39.4227 45.9458 40 45.9458C40.5774 45.9458 41.1425 45.7792 41.6275 45.4659C42.1125 45.1526 42.4968 44.7061 42.7342 44.1798C43.1947 44.3846 43.6993 44.4702 44.2015 44.4287C44.7037 44.3872 45.1874 44.22 45.608 43.9423C46.0286 43.6647 46.3725 43.2856 46.608 42.8401C46.8435 42.3946 46.9631 41.8969 46.9557 41.3931C47.6792 41.3229 48.3527 40.9925 48.8512 40.4634C49.3496 39.9342 49.6391 39.2421 49.6659 38.5157C49.6928 37.7892 49.4551 37.0777 48.997 36.5132C48.539 35.9488 47.8917 35.5697 47.1753 35.4463C47.1332 35.4391 47.0906 35.4354 47.0479 35.4354H46.4192V32.3056L49.0499 30.7868C49.1359 30.7379 49.2113 30.6725 49.2719 30.5944C49.3325 30.5162 49.3771 30.4268 49.403 30.3314C49.4289 30.2359 49.4357 30.1363 49.4229 30.0382C49.4102 29.9401 49.3782 29.8455 49.3287 29.7598C49.2792 29.6742 49.2133 29.5992 49.1348 29.5391C49.0562 29.479 48.9665 29.435 48.8709 29.4098C48.7753 29.3845 48.6756 29.3784 48.5776 29.3918C48.4796 29.4052 48.3852 29.4378 48.2999 29.4878L45.2942 31.2231C45.1801 31.289 45.0854 31.3837 45.0196 31.4977C44.9538 31.6117 44.9191 31.7411 44.9192 31.8727V35.4352H42.7519V30.4041L46.4854 27.3985C46.5635 27.3372 46.6286 27.261 46.677 27.1744C46.7254 27.0877 46.7561 26.9923 46.7674 26.8937C46.7786 26.7951 46.7702 26.6952 46.7426 26.5999C46.7149 26.5046 46.6687 26.4157 46.6064 26.3383C46.5442 26.261 46.4672 26.1968 46.38 26.1495C46.2927 26.1022 46.197 26.0726 46.0982 26.0625C45.9995 26.0525 45.8997 26.0621 45.8047 26.0909C45.7097 26.1197 45.6214 26.167 45.5448 26.2302L41.5317 29.4609C41.4444 29.5312 41.3739 29.6202 41.3255 29.7213C41.2771 29.8223 41.252 29.933 41.2519 30.0451V35.4357H38.7481V30.0451C38.748 29.933 38.7229 29.8223 38.6745 29.7213C38.6261 29.6202 38.5556 29.5312 38.4683 29.4609L34.4552 26.2302C34.3786 26.167 34.2903 26.1197 34.1953 26.0909C34.1003 26.0621 34.0005 26.0525 33.9018 26.0625C33.803 26.0726 33.7073 26.1022 33.62 26.1495C33.5328 26.1968 33.4558 26.261 33.3936 26.3383C33.3314 26.4157 33.2851 26.5046 33.2574 26.5999C33.2298 26.6952 33.2214 26.7951 33.2326 26.8937C33.2439 26.9923 33.2746 27.0877 33.323 27.1744C33.3714 27.261 33.4365 27.3372 33.5146 27.3985L37.2481 30.4041V35.4355H35.0808V31.873C35.0809 31.7414 35.0462 31.612 34.9804 31.498C34.9146 31.3839 34.8199 31.2893 34.7058 31.2234L31.7001 29.4881C31.6148 29.4381 31.5204 29.4054 31.4224 29.392C31.3244 29.3786 31.2247 29.3848 31.1291 29.41C31.0335 29.4353 30.9438 29.4793 30.8652 29.5394C30.7867 29.5994 30.7208 29.6745 30.6713 29.7601C30.6218 29.8458 30.5898 29.9404 30.5771 30.0385C30.5643 30.1365 30.5711 30.2362 30.597 30.3316C30.6229 30.4271 30.6675 30.5165 30.7281 30.5946C30.7887 30.6728 30.8641 30.7382 30.9501 30.7871L33.5808 32.3059V35.4358H32.9521C32.9094 35.4358 32.8668 35.4394 32.8248 35.4467C32.2166 35.5516 31.6555 35.8413 31.2179 36.2765C30.7803 36.7116 30.4874 37.2711 30.379 37.8786C30.2707 38.4862 30.3521 39.1124 30.6124 39.672C30.8726 40.2316 31.2989 40.6975 31.8333 41.0061ZM31.8552 38.1418C31.9082 37.8476 32.0476 37.5758 32.2555 37.361C32.4634 37.1462 32.7304 36.9981 33.0228 36.9355H46.9773C47.3517 37.015 47.6816 37.2344 47.8998 37.5488C48.118 37.8633 48.208 38.2492 48.1514 38.6277C48.0948 39.0062 47.8959 39.3489 47.5952 39.5858C47.2946 39.8227 46.9149 39.9359 46.5336 39.9024C46.3115 39.5298 46.0116 39.2096 45.6543 38.9636C45.2969 38.7177 44.8907 38.5518 44.4633 38.4774C44.3658 38.4596 44.2658 38.4613 44.1689 38.4825C44.0721 38.5036 43.9804 38.5437 43.8992 38.6005C43.8179 38.6572 43.7487 38.7295 43.6956 38.8132C43.6424 38.8969 43.6064 38.9902 43.5896 39.0879C43.5728 39.1856 43.5755 39.2856 43.5976 39.3823C43.6196 39.4789 43.6606 39.5702 43.7182 39.6509C43.7758 39.7316 43.8488 39.8 43.933 39.8523C44.0172 39.9046 44.1109 39.9397 44.2087 39.9556C44.4362 39.9948 44.6517 40.0859 44.8383 40.2219C45.0249 40.3578 45.1777 40.5349 45.2848 40.7395C45.3919 40.944 45.4504 41.1705 45.4559 41.4013C45.4613 41.6321 45.4135 41.8611 45.3161 42.0704C45.2188 42.2798 45.0745 42.4639 44.8945 42.6084C44.7144 42.753 44.5035 42.8542 44.2781 42.904C44.0527 42.9539 43.8188 42.9512 43.5946 42.8961C43.3704 42.841 43.1619 42.7349 42.9853 42.5862L42.9812 42.5827C42.9745 42.5271 42.9662 42.4715 42.9562 42.416C42.9527 42.3962 42.949 42.3764 42.9452 42.3567C42.9262 42.2599 42.8883 42.1678 42.8336 42.0857C42.779 42.0035 42.7087 41.933 42.6267 41.8781C42.5448 41.8231 42.4528 41.7849 42.3561 41.7656C42.2593 41.7463 42.1597 41.7462 42.063 41.7655C41.9662 41.7847 41.8742 41.8228 41.7922 41.8777C41.7102 41.9325 41.6398 42.003 41.5851 42.0851C41.5304 42.1672 41.4924 42.2592 41.4733 42.356C41.4543 42.4528 41.4545 42.5524 41.4739 42.6491L41.4795 42.6791C41.5332 42.9832 41.4922 43.2965 41.362 43.5765C41.2318 43.8566 41.0187 44.0898 40.7515 44.2447C40.5222 44.3742 40.2633 44.4423 40 44.4423C39.7367 44.4423 39.4778 44.3742 39.2485 44.2447C38.9814 44.0898 38.7683 43.8565 38.6381 43.5765C38.5079 43.2965 38.4669 42.9832 38.5205 42.6791L38.5261 42.6495C38.5455 42.5528 38.5457 42.4532 38.5267 42.3564C38.5076 42.2596 38.4696 42.1675 38.4149 42.0855C38.3602 42.0034 38.2898 41.9329 38.2078 41.878C38.1258 41.8232 38.0338 41.7851 37.937 41.7658C37.8403 41.7466 37.7407 41.7467 37.6439 41.766C37.5472 41.7853 37.4552 41.8235 37.3733 41.8784C37.2913 41.9334 37.221 42.0039 37.1664 42.086C37.1117 42.1682 37.0738 42.2603 37.0548 42.3571C37.051 42.3768 37.0472 42.3965 37.0438 42.416C37.0338 42.4717 37.0255 42.5274 37.0188 42.5831L37.0148 42.5865C36.8382 42.7352 36.6297 42.8413 36.4055 42.8964C36.1813 42.9516 35.9474 42.9543 35.722 42.9044C35.4965 42.8546 35.2856 42.7534 35.1056 42.6089C34.9256 42.4643 34.7813 42.2802 34.6839 42.0709C34.5865 41.8615 34.5387 41.6325 34.5441 41.4017C34.5495 41.1709 34.6081 40.9444 34.7152 40.7399C34.8223 40.5353 34.9751 40.3582 35.1617 40.2222C35.3483 40.0863 35.5637 39.9952 35.7913 39.956C35.8891 39.9401 35.9828 39.905 36.067 39.8527C36.1512 39.8004 36.2242 39.7319 36.2818 39.6512C36.3394 39.5706 36.3804 39.4793 36.4024 39.3826C36.4245 39.286 36.4272 39.186 36.4104 39.0883C36.3936 38.9906 36.3575 38.8973 36.3044 38.8136C36.2513 38.7299 36.1821 38.6576 36.1008 38.6008C36.0196 38.5441 35.9279 38.504 35.8311 38.4828C35.7342 38.4617 35.6342 38.46 35.5367 38.4778C35.1093 38.5522 34.7031 38.718 34.3457 38.964C33.9884 39.2099 33.6884 39.5302 33.4664 39.9028C33.2364 39.9231 33.0049 39.8901 32.7898 39.8065C32.5747 39.7229 32.3817 39.5908 32.2259 39.4205C32.07 39.2502 31.9555 39.0463 31.8913 38.8246C31.827 38.6029 31.8146 38.3694 31.8552 38.1422V38.1418Z" fill="white"/>
</svg>
