<svg width="50" height="50" viewBox="0 0 50 50" fill="none" xmlns="http://www.w3.org/2000/svg">
<path d="M25 10.1562C28.4248 10.1606 31.7433 11.3455 34.3964 13.5113C34.4758 13.5767 34.5673 13.6259 34.6657 13.6558C34.7642 13.6858 34.8675 13.6961 34.9699 13.686C35.0723 13.6759 35.1717 13.6457 35.2624 13.5971C35.3531 13.5485 35.4333 13.4825 35.4984 13.4028C35.5635 13.3231 35.6123 13.2314 35.6418 13.1328C35.6714 13.0343 35.6812 12.9308 35.6706 12.8285C35.6601 12.7261 35.6295 12.6269 35.5805 12.5364C35.5315 12.4459 35.4651 12.366 35.3851 12.3012C32.2366 9.72546 28.2433 8.4114 24.1804 8.61415C20.1175 8.81691 16.2749 10.522 13.3985 13.3985C10.522 16.2749 8.8169 20.1176 8.61415 24.1804C8.41141 28.2433 9.72547 32.2366 12.3013 35.3851C12.3661 35.4649 12.446 35.5311 12.5365 35.5799C12.6269 35.6287 12.7261 35.6592 12.8283 35.6696C12.9306 35.68 13.0339 35.6702 13.1323 35.6406C13.2307 35.611 13.3224 35.5624 13.4019 35.4973C13.4815 35.4323 13.5475 35.3522 13.5961 35.2616C13.6447 35.1711 13.6749 35.0718 13.685 34.9695C13.6952 34.8673 13.6851 34.764 13.6553 34.6656C13.6255 34.5673 13.5765 34.4758 13.5113 34.3964C11.732 32.2218 10.6066 29.5868 10.2658 26.7978C9.92504 24.0088 10.383 21.1804 11.5863 18.6414C12.7897 16.1024 14.6891 13.9571 17.0636 12.4551C19.4381 10.953 22.1903 10.1558 25 10.1562Z" fill="url(#paint0_linear_3878_4604)"/>
<path d="M24.9975 41.4063C28.1029 41.4067 31.1447 40.5256 33.7691 38.8654C36.3936 37.2053 38.4928 34.8343 39.8229 32.0281C41.153 29.222 41.6593 26.0959 41.2828 23.0134C40.9063 19.9308 39.6626 17.0185 37.6962 14.6149C37.6314 14.5352 37.5515 14.469 37.4611 14.4202C37.3706 14.3714 37.2714 14.3409 37.1692 14.3304C37.0669 14.32 36.9637 14.3299 36.8652 14.3594C36.7668 14.389 36.6752 14.4377 36.5956 14.5027C36.516 14.5678 36.45 14.6478 36.4014 14.7384C36.3529 14.829 36.3226 14.9282 36.3125 15.0305C36.3023 15.1328 36.3124 15.236 36.3422 15.3344C36.3721 15.4328 36.421 15.5243 36.4862 15.6037C38.817 18.4523 40.0062 22.0653 39.8229 25.7414C39.6396 29.4174 38.0969 32.8943 35.4943 35.4969C32.8917 38.0995 29.4149 39.6422 25.7388 39.8255C22.0628 40.0088 18.4497 38.8196 15.6011 36.4888C15.5217 36.4238 15.4302 36.375 15.3319 36.3454C15.2337 36.3157 15.1305 36.3057 15.0284 36.316C14.9262 36.3262 14.8271 36.3565 14.7366 36.405C14.6462 36.4536 14.5662 36.5195 14.5013 36.599C14.4363 36.6785 14.3876 36.77 14.3581 36.8683C14.3285 36.9666 14.3186 37.0698 14.3289 37.1719C14.3392 37.2741 14.3696 37.3732 14.4182 37.4636C14.4669 37.554 14.5328 37.6339 14.6124 37.6988C17.5448 40.092 21.2125 41.4014 24.9975 41.4063Z" fill="url(#paint1_linear_3878_4604)"/>
<path d="M43.6735 13.5924L45.9409 14.0467C46.1438 14.0867 46.3543 14.0446 46.5262 13.9297C46.6981 13.8148 46.8174 13.6364 46.858 13.4336C46.8986 13.2309 46.8571 13.0203 46.7427 12.848C46.6283 12.6758 46.4503 12.5559 46.2476 12.5148L42.1148 11.6866C41.9601 11.6556 41.7996 11.6722 41.6545 11.7343C41.5094 11.7963 41.3864 11.9008 41.3019 12.0341C41.2174 12.1674 41.1752 12.3231 41.1809 12.4808C41.1866 12.6385 41.24 12.7908 41.3339 12.9176C43.5694 15.9418 44.9217 19.5272 45.2401 23.2744C45.5585 27.0217 44.8306 30.7838 43.1375 34.1418C41.4443 37.4999 38.8524 40.3221 35.6502 42.2943C32.448 44.2664 28.7613 45.3111 25.0005 45.312C20.6517 45.3276 16.4152 43.9314 12.9278 41.3333C12.7614 41.2104 12.5531 41.1585 12.3485 41.1889C12.1439 41.2194 11.9598 41.3297 11.8364 41.4957C11.713 41.6617 11.6605 41.8698 11.6903 42.0745C11.7201 42.2791 11.8298 42.4636 11.9955 42.5875C15.7521 45.3867 20.3157 46.891 25.0005 46.8745C28.8861 46.8728 32.7012 45.8366 36.0538 43.8723C39.4064 41.9081 42.1756 39.0867 44.0768 35.698C45.978 32.3093 46.9428 28.4755 46.8719 24.5905C46.801 20.7055 45.697 16.9095 43.6735 13.5924Z" fill="url(#paint2_linear_3878_4604)"/>
<path d="M4.68763 25C4.68852 21.2393 5.73321 17.5525 7.70536 14.3504C9.67752 11.1482 12.4997 8.55623 15.8578 6.86308C19.2159 5.16993 22.978 4.44205 26.7252 4.76047C30.4725 5.0789 34.0578 6.43113 37.082 8.66662C37.1644 8.72769 37.2581 8.77192 37.3576 8.7968C37.4571 8.82169 37.5605 8.82673 37.662 8.81164C37.7634 8.79655 37.8609 8.76162 37.9488 8.70886C38.0368 8.65609 38.1135 8.58652 38.1746 8.50412C38.2356 8.42171 38.2799 8.32808 38.3048 8.22858C38.3296 8.12908 38.3347 8.02565 38.3196 7.9242C38.3045 7.82275 38.2696 7.72526 38.2168 7.63731C38.164 7.54935 38.0945 7.47265 38.0121 7.41159C34.7554 5.00367 30.8943 3.54698 26.8587 3.20373C22.823 2.86047 18.7714 3.64414 15.1548 5.46744C11.5382 7.29075 8.49876 10.0821 6.37484 13.5307C4.25091 16.9794 3.12592 20.9498 3.12513 25C3.11162 29.0246 4.22034 32.9732 6.3268 36.4025L4.05858 35.9524C3.85532 35.912 3.64435 35.954 3.47207 36.0692C3.2998 36.1844 3.18034 36.3633 3.13997 36.5666C3.0996 36.7698 3.14163 36.9808 3.25682 37.1531C3.372 37.3253 3.55091 37.4448 3.75417 37.4852L7.88698 38.3053C7.93713 38.3151 7.9881 38.3201 8.03919 38.3202C8.18399 38.3201 8.32592 38.2799 8.44916 38.2038C8.57241 38.1278 8.67211 38.0191 8.73715 37.8897C8.80218 37.7604 8.83 37.6155 8.8175 37.4712C8.80499 37.327 8.75266 37.189 8.66633 37.0728C6.06816 33.5853 4.67199 29.3489 4.68763 25Z" fill="url(#paint3_linear_3878_4604)"/>
<path d="M27.9297 33.5938C28.1369 33.5937 28.3356 33.5114 28.4821 33.3649C28.6286 33.2184 28.7109 33.0197 28.7109 32.8125V20.3125C28.7097 19.2769 28.2978 18.284 27.5655 17.5517C26.8332 16.8194 25.8403 16.4075 24.8047 16.4062H21.2891C20.2534 16.4075 19.2606 16.8194 18.5283 17.5517C17.796 18.284 17.384 19.2769 17.3828 20.3125V32.8125C17.3828 33.0197 17.4651 33.2184 17.6116 33.3649C17.7581 33.5114 17.9569 33.5938 18.1641 33.5938C18.3713 33.5938 18.57 33.5114 18.7165 33.3649C18.863 33.2184 18.9453 33.0197 18.9453 32.8125V25.7812H27.1484V32.8125C27.1484 33.0197 27.2307 33.2184 27.3773 33.3649C27.5238 33.5114 27.7225 33.5938 27.9297 33.5938ZM18.9453 24.2188V20.3125C18.946 19.6911 19.1931 19.0954 19.6325 18.656C20.0719 18.2166 20.6677 17.9694 21.2891 17.9688H24.8047C25.4261 17.9694 26.0218 18.2166 26.4612 18.656C26.9006 19.0954 27.1478 19.6911 27.1484 20.3125V24.2188H18.9453Z" fill="url(#paint4_linear_3878_4604)"/>
<path d="M31.0547 17.1875V32.8125C31.0547 33.0197 31.137 33.2184 31.2835 33.3649C31.43 33.5114 31.6287 33.5938 31.8359 33.5938C32.0431 33.5938 32.2419 33.5114 32.3884 33.3649C32.5349 33.2184 32.6172 33.0197 32.6172 32.8125V17.1875C32.6172 16.9803 32.5349 16.7816 32.3884 16.6351C32.2419 16.4886 32.0431 16.4062 31.8359 16.4062C31.6287 16.4062 31.43 16.4886 31.2835 16.6351C31.137 16.7816 31.0547 16.9803 31.0547 17.1875Z" fill="url(#paint5_linear_3878_4604)"/>
<defs>
<linearGradient id="paint0_linear_3878_4604" x1="8.91614" y1="30.173" x2="35.2972" y2="30.1184" gradientUnits="userSpaceOnUse">
<stop stop-color="#434AE4"/>
<stop offset="0.5" stop-color="#5441B7"/>
<stop offset="1" stop-color="#E86343"/>
</linearGradient>
<linearGradient id="paint1_linear_3878_4604" x1="14.6473" y1="35.9057" x2="41.0263" y2="35.8511" gradientUnits="userSpaceOnUse">
<stop stop-color="#434AE4"/>
<stop offset="0.5" stop-color="#5441B7"/>
<stop offset="1" stop-color="#E86343"/>
</linearGradient>
<linearGradient id="paint2_linear_3878_4604" x1="12.1011" y1="39.724" x2="46.3849" y2="39.653" gradientUnits="userSpaceOnUse">
<stop stop-color="#434AE4"/>
<stop offset="0.5" stop-color="#5441B7"/>
<stop offset="1" stop-color="#E86343"/>
</linearGradient>
<linearGradient id="paint3_linear_3878_4604" x1="3.54408" y1="31.1712" x2="37.8374" y2="31.1001" gradientUnits="userSpaceOnUse">
<stop stop-color="#434AE4"/>
<stop offset="0.5" stop-color="#5441B7"/>
<stop offset="1" stop-color="#E86343"/>
</linearGradient>
<linearGradient id="paint4_linear_3878_4604" x1="17.5177" y1="30.1025" x2="28.553" y2="30.0875" gradientUnits="userSpaceOnUse">
<stop stop-color="#434AE4"/>
<stop offset="0.5" stop-color="#5441B7"/>
<stop offset="1" stop-color="#E86343"/>
</linearGradient>
<linearGradient id="paint5_linear_3878_4604" x1="31.0733" y1="30.1025" x2="32.5954" y2="30.1023" gradientUnits="userSpaceOnUse">
<stop stop-color="#434AE4"/>
<stop offset="0.5" stop-color="#5441B7"/>
<stop offset="1" stop-color="#E86343"/>
</linearGradient>
</defs>
</svg>
