<svg width="80" height="80" viewBox="0 0 80 80" fill="none" xmlns="http://www.w3.org/2000/svg">
<path d="M40 76C59.8823 76 76 59.8823 76 40C76 20.1177 59.8823 4 40 4C20.1177 4 4 20.1177 4 40C4 59.8823 20.1177 76 40 76Z" stroke="white" stroke-opacity="0.1" stroke-width="4"/>
<path d="M58.7404 48.8608C58.5558 48.6762 58.3712 48.4916 58.0942 48.4916C57.8173 48.4916 57.5404 48.5839 57.3558 48.6762L54.8635 50.7993C54.5866 51.0762 54.5866 51.4454 54.7712 51.8147C55.0481 52.0916 55.4173 52.0916 55.7866 51.907L57.2635 50.6147C56.7096 56.707 51.6327 61.4147 45.4481 61.4147C38.8942 61.4147 33.5404 56.0608 33.5404 49.507C33.5404 49.1377 33.2635 48.7685 32.8019 48.7685C32.3404 48.7685 32.0635 49.0454 32.0635 49.507C32.0635 56.7993 38.0635 62.7993 45.3558 62.7993C52.1866 62.7993 57.8173 57.63 58.5558 51.0762L59.3866 52.3685C59.4789 52.5531 59.7558 52.6454 59.9404 52.6454C60.0327 52.6454 60.2173 52.6454 60.3096 52.5531C60.5866 52.3685 60.6789 51.907 60.4942 51.63L58.7404 48.8608Z" fill="white"/>
<path d="M25.4174 20.6154C28.7405 18.5846 32.7097 18.0308 36.402 19.0462C39.4481 19.7846 42.1251 21.5385 44.0635 23.9385L42.402 23.5692C42.0328 23.4769 41.6635 23.7539 41.5712 24.1231C41.4789 24.4923 41.7558 24.8616 42.1251 24.9539L45.3558 25.6923H45.5405C45.7251 25.6923 45.9097 25.6 46.0943 25.5077C46.2789 25.2308 46.4635 25.0462 46.4635 24.7692L46.7405 21.4462C46.7405 21.0769 46.4635 20.7077 46.0943 20.7077C45.7251 20.7077 45.3558 20.9846 45.3558 21.3539L45.1712 23.1077C43.0481 20.4308 40.0943 18.4923 36.6789 17.6616C32.6174 16.6462 28.3712 17.2 24.6789 19.4154C20.5251 21.9077 17.6635 26.1539 17.1097 31.0462C17.0174 31.4154 17.2943 31.7846 17.6635 31.7846H17.7558C18.1251 31.7846 18.402 31.5077 18.402 31.1385C19.0481 26.8 21.5405 22.9231 25.4174 20.6154Z" fill="white"/>
<path d="M34.2813 42.1231L34.6505 40.1846C35.4813 40 36.3121 39.6308 37.0505 39.1692L38.6198 40.3692C38.8967 40.5538 39.2659 40.5538 39.5428 40.2769L40.8351 38.8923C41.1121 38.6154 41.1121 38.2461 40.9275 37.9692L39.7275 36.3077C40.189 35.5692 40.5582 34.7385 40.7428 33.9077L42.6813 33.6308C43.0505 33.5385 43.2351 33.2615 43.2351 32.9846V31.1385C43.2351 30.7692 42.9582 30.4923 42.6813 30.4923L40.7428 30.1231C40.5582 29.2923 40.189 28.4615 39.7275 27.7231L40.9275 26.1538C41.1121 25.8769 41.1121 25.5077 40.8351 25.2308L39.5428 23.8461C39.2659 23.5692 38.8967 23.5692 38.6198 23.7538L37.0505 24.9538C36.3121 24.4923 35.4813 24.1231 34.6505 23.9385L34.2813 22C34.2813 21.7231 33.9121 21.5385 33.6351 21.5385H31.789C31.4198 21.5385 31.1428 21.8154 31.1428 22.0923L30.8659 24.0308C30.0351 24.2154 29.2044 24.5846 28.4659 25.0461L26.8967 23.8461C26.6198 23.6615 26.2505 23.6615 25.9736 23.9385L24.4967 25.2308C24.2198 25.5077 24.2198 25.8769 24.4044 26.1538L25.6044 27.8154C25.1428 28.5538 24.7736 29.3846 24.589 30.2154L22.6505 30.5846C22.2813 30.6769 22.0967 30.9538 22.0967 31.2308V33.0769C22.0967 33.4461 22.3736 33.7231 22.6505 33.7231L24.589 34C24.7736 34.8308 25.1428 35.6615 25.6044 36.4L24.4044 38.0615C24.2198 38.3385 24.2198 38.7077 24.4967 38.9846L25.789 40.3692C26.0659 40.6461 26.4351 40.6461 26.7121 40.4615L28.2813 39.2615C29.0198 39.7231 29.8505 40.0923 30.6813 40.2769L30.9582 42.2154C31.0505 42.5846 31.3274 42.7692 31.6044 42.7692H33.4505C33.9121 42.7692 34.2813 42.4923 34.2813 42.1231ZM33.3582 39.5385L33.0813 41.3846H32.3428L32.0659 39.5385C31.9736 39.2615 31.789 38.9846 31.5121 38.9846C30.4967 38.8 29.5736 38.4308 28.7428 37.8769C28.4659 37.6923 28.189 37.6923 27.9121 37.8769L26.4351 38.9846L25.9736 38.5231L27.0813 36.9538C27.2659 36.6769 27.2659 36.4 27.0813 36.1231C26.5274 35.2923 26.1582 34.3692 25.9736 33.3538C25.8813 33.0769 25.6967 32.8 25.4198 32.8L23.5736 32.5231V31.7846L25.4198 31.5077C25.6967 31.4154 25.9736 31.2308 25.9736 30.9538C26.1582 29.9385 26.5274 29.0154 27.0813 28.2769C27.2659 28 27.2659 27.7231 27.0813 27.4461L25.9736 25.8769L26.4351 25.4154L27.9121 26.5231C28.189 26.7077 28.4659 26.7077 28.7428 26.5231C29.5736 25.9692 30.4967 25.6 31.5121 25.4154C31.789 25.3231 32.0659 25.1385 32.0659 24.8615L32.3428 23.0154H33.0813L33.3582 24.8615C33.4505 25.1385 33.6351 25.4154 33.9121 25.4154C34.9274 25.6 35.8505 25.9692 36.6813 26.5231C36.9582 26.7077 37.2351 26.7077 37.5121 26.5231L38.989 25.4154L39.4505 25.8769L38.3428 27.4461C38.1582 27.7231 38.1582 28 38.3428 28.2769C38.8967 29.1077 39.2659 30.0308 39.4505 30.9538C39.5428 31.2308 39.7274 31.5077 40.0044 31.5077L41.8505 31.7846V32.5231L40.0044 32.8C39.7274 32.8923 39.4505 33.0769 39.4505 33.3538C39.2659 34.3692 38.8967 35.2923 38.3428 36.1231C38.1582 36.4 38.1582 36.6769 38.3428 36.9538L39.4505 38.5231L38.989 38.9846L37.5121 37.8769C37.2351 37.6923 36.9582 37.6923 36.6813 37.8769C35.8505 38.4308 34.9274 38.8 33.9121 38.9846C33.6351 38.9846 33.3582 39.1692 33.3582 39.5385Z" fill="white"/>
<path d="M37.3274 32.1542C37.3274 29.5696 35.2044 27.4465 32.7121 27.4465C30.2198 27.4465 28.0967 29.5696 28.0967 32.1542C28.0967 34.7388 30.2198 36.7696 32.7121 36.7696C35.2044 36.7696 37.3274 34.6465 37.3274 32.1542ZM32.7121 35.385C30.8659 35.385 29.4813 33.9081 29.4813 32.1542C29.4813 30.3081 30.9582 28.8311 32.7121 28.8311C34.4659 28.8311 35.9428 30.3081 35.9428 32.1542C35.9428 33.9081 34.4659 35.385 32.7121 35.385Z" fill="white"/>
<path d="M62.3374 31.3227L60.9528 31.0458C60.7682 30.492 60.5836 29.8458 60.2144 29.3843L61.0451 28.1843C61.2297 27.9074 61.2297 27.5381 60.9528 27.2612L59.9374 26.2458C59.6605 25.9689 59.2913 25.9689 59.0144 26.1535L57.9067 27.0766C57.3528 26.7997 56.799 26.5227 56.2451 26.3381L55.9682 24.9535C55.8759 24.5843 55.599 24.3997 55.3221 24.3997H53.8451C53.4759 24.3997 53.199 24.6766 53.199 24.9535L52.9221 26.4304C52.3682 26.615 51.7221 26.7997 51.2605 27.1689L50.0605 26.3381C49.7836 26.1535 49.4144 26.1535 49.1374 26.4304L48.1221 27.4458C47.8451 27.7227 47.8451 28.092 48.0297 28.3689L48.8605 29.5689C48.5836 30.1227 48.3067 30.6766 48.1221 31.2304L46.7374 31.5073C46.3682 31.5997 46.1836 31.8766 46.1836 32.1535V33.6304C46.1836 33.9997 46.4605 34.2766 46.7374 34.2766L48.1221 34.4612C48.3067 35.015 48.4913 35.6612 48.8605 36.1227L48.1221 37.2304C47.9374 37.5073 47.9374 37.8766 48.2144 38.1535L49.2297 39.1689C49.5067 39.4458 49.8759 39.4458 50.1528 39.2612L51.3528 38.4304C51.9067 38.7073 52.4605 38.9843 53.0144 39.1689L53.199 40.5535C53.2913 40.9227 53.5682 41.1074 53.8451 41.1074H55.3221C55.6913 41.1074 55.9682 40.8304 55.9682 40.5535L56.2451 39.1689C56.799 38.9843 57.4451 38.7997 57.9067 38.4304L59.1067 39.2612C59.3836 39.4458 59.7528 39.4458 60.0297 39.1689L61.0451 38.1535C61.3221 37.8766 61.3221 37.5073 61.1374 37.2304L60.3067 36.0304C60.5836 35.4766 60.8605 34.9227 61.0451 34.3689L62.4297 34.1843C62.799 34.092 62.9836 33.815 62.9836 33.5381V32.0612C62.9836 31.692 62.7067 31.415 62.3374 31.3227ZM61.599 32.892L60.3067 33.0766C60.0297 33.1689 59.7528 33.3535 59.7528 33.6304C59.6605 34.3689 59.2913 35.1073 58.9221 35.6612C58.7374 35.9381 58.7374 36.215 58.9221 36.492L59.6605 37.5997L59.3836 37.7843L58.2759 37.0458C57.999 36.8612 57.7221 36.8612 57.4451 37.0458C56.799 37.5073 56.1528 37.7843 55.4144 37.8766C55.1374 37.9689 54.8605 38.1535 54.8605 38.4304L54.7682 39.7227H54.4913L54.3067 38.4304C54.2144 38.1535 54.0297 37.8766 53.7528 37.8766C53.0144 37.7843 52.3682 37.415 51.7221 37.0458C51.4451 36.8612 51.1682 36.8612 50.8913 37.0458L49.7836 37.7843L49.599 37.5997L50.3374 36.492C50.5221 36.215 50.5221 35.9381 50.3374 35.6612C49.8759 35.015 49.599 34.3689 49.5067 33.6304C49.4144 33.3535 49.2297 33.0766 48.9528 33.0766L47.6605 32.892V32.615L48.9528 32.4304C49.2297 32.3381 49.5067 32.1535 49.5067 31.8766C49.599 31.1381 49.8759 30.492 50.3374 29.8458C50.5221 29.5689 50.5221 29.292 50.3374 29.015L49.599 27.9073L49.7836 27.7227L50.8913 28.4612C51.1682 28.6458 51.4451 28.6458 51.7221 28.4612C52.3682 27.9997 53.0144 27.7227 53.7528 27.6304C54.0297 27.5381 54.3067 27.3535 54.3067 27.0766L54.4913 25.7843H54.7682L54.9528 27.0766C55.0451 27.3535 55.2297 27.6304 55.5067 27.6304C56.2451 27.7227 56.8913 27.9997 57.5374 28.4612C57.8144 28.6458 58.0913 28.6458 58.3682 28.4612L59.4759 27.7227L59.6605 27.9073L58.9221 29.015C58.7374 29.292 58.7374 29.5689 58.9221 29.8458C59.3836 30.3997 59.6605 31.1381 59.7528 31.8766C59.8451 32.1535 60.0297 32.4304 60.3067 32.4304L61.599 32.615V32.892Z" fill="white"/>
<path d="M54.5843 29.4766C52.8304 29.4766 51.3535 30.9535 51.3535 32.7073C51.3535 34.4612 52.8304 35.9381 54.5843 35.9381C56.3381 35.9381 57.8151 34.4612 57.8151 32.7073C57.8151 30.9535 56.3381 29.4766 54.5843 29.4766ZM54.5843 34.6458C53.5689 34.6458 52.7381 33.815 52.7381 32.7996C52.7381 31.7843 53.5689 30.9535 54.5843 30.9535C55.5997 30.9535 56.4304 31.7843 56.4304 32.7996C56.4304 33.815 55.5997 34.6458 54.5843 34.6458Z" fill="white"/>
<path d="M51.9062 44.1535L50.7985 43.0458C50.5216 42.7689 50.1524 42.7689 49.8755 42.9535L48.5831 43.8766C48.0293 43.5073 47.3831 43.2304 46.6447 43.0458L46.4601 41.5689C46.3678 41.1996 46.0908 41.015 45.8139 41.015H44.2447C43.8755 41.015 43.5985 41.2919 43.5985 41.5689L43.3216 43.1381C42.6755 43.3227 42.0293 43.5996 41.3831 43.9689L40.0908 43.0458C39.8139 42.8612 39.4447 42.8612 39.1678 43.1381L38.0601 44.2458C37.7831 44.5227 37.7831 44.8919 37.9678 45.1689L38.8908 46.4612C38.5216 47.015 38.2447 47.6612 38.1524 48.3996L36.5831 48.6766C36.2139 48.7689 36.0293 49.0458 36.0293 49.3227V50.8919C36.0293 51.2612 36.3062 51.5381 36.5831 51.5381L38.1524 51.815C38.337 52.4612 38.6139 53.1073 38.9831 53.7535L38.0601 55.0458C37.8754 55.3227 37.8755 55.6919 38.1524 55.9689L39.2601 57.0766C39.537 57.3535 39.9062 57.3535 40.1831 57.1689L41.4755 56.2458C42.0293 56.615 42.6755 56.8919 43.4139 57.0766L43.6908 58.6458C43.7831 59.015 44.0601 59.1996 44.337 59.1996H45.9062C46.2755 59.1996 46.5524 58.9227 46.5524 58.6458L46.8293 57.0766C47.4755 56.8919 48.1216 56.615 48.7678 56.2458L50.0601 57.1689C50.337 57.3535 50.7062 57.3535 50.9831 57.0766L52.0908 55.9689C52.3678 55.6919 52.3678 55.3227 52.1831 55.0458L51.2601 53.7535C51.6293 53.1996 51.9062 52.5535 52.0908 51.815L53.6601 51.5381C54.0293 51.4458 54.2139 51.1689 54.2139 50.8919V49.2304C54.2139 48.8612 53.937 48.5842 53.6601 48.5842L51.8139 48.3073C51.6293 47.6612 51.3524 47.015 51.0754 46.3689L51.9985 45.0766C52.1831 44.7996 52.0908 44.4304 51.9062 44.1535ZM51.1678 49.5996L52.6447 49.8766V50.2458L51.1678 50.5227C50.8908 50.615 50.6139 50.7996 50.6139 51.0766C50.4293 51.9073 50.1524 52.6458 49.6908 53.2919C49.5062 53.5689 49.5062 53.8458 49.6908 54.1227L50.5216 55.3227L50.2447 55.5996L49.0447 54.7689C48.7678 54.5842 48.4908 54.5842 48.2139 54.7689C47.5678 55.2304 46.737 55.5996 45.9985 55.6919C45.7216 55.7842 45.4447 55.9689 45.4447 56.2458L45.1678 57.7227H44.7985L44.5216 56.2458C44.4293 55.9689 44.2447 55.6919 43.9678 55.6919C43.137 55.5073 42.3985 55.2304 41.7524 54.7689C41.4754 54.5842 41.1985 54.5842 40.9216 54.7689L39.7216 55.5996L39.4447 55.3227L40.2754 54.1227C40.4601 53.8458 40.4601 53.5689 40.2754 53.2919C39.8139 52.6458 39.4447 51.815 39.3524 51.0766C39.2601 50.7996 39.0755 50.5227 38.7985 50.5227L37.3216 50.2458V49.8766L38.7985 49.5996C39.0755 49.5073 39.3524 49.3227 39.3524 49.0458C39.4447 48.215 39.8139 47.4766 40.2754 46.8304C40.4601 46.5535 40.4601 46.2766 40.2754 45.9996L39.4447 44.7996L39.7216 44.5227L40.9216 45.3535C41.1985 45.5381 41.4754 45.5381 41.7524 45.3535C42.3985 44.8919 43.2293 44.5227 43.9678 44.4304C44.2447 44.3381 44.5216 44.1535 44.5216 43.8766L44.7985 42.3996H45.1678L45.4447 43.8766C45.537 44.1535 45.7216 44.4304 45.9985 44.4304C46.8293 44.5227 47.5678 44.8919 48.2139 45.3535C48.4908 45.5381 48.7678 45.5381 49.0447 45.3535L50.2447 44.5227L50.5216 44.7996L49.6908 45.9996C49.5062 46.2766 49.5062 46.5535 49.6908 46.8304C50.1524 47.4766 50.5216 48.3073 50.6139 49.0458C50.6139 49.3227 50.7985 49.5073 51.1678 49.5996Z" fill="white"/>
<path d="M44.9891 46.5535C43.0507 46.5535 41.4814 48.1227 41.4814 50.0612C41.4814 51.9996 43.0507 53.5689 44.9891 53.5689C46.9276 53.5689 48.4968 51.9996 48.4968 50.0612C48.4968 48.1227 46.8353 46.5535 44.9891 46.5535ZM44.9891 52.0919C43.7891 52.0919 42.8661 51.1689 42.8661 49.9689C42.8661 48.7689 43.7891 47.8458 44.9891 47.8458C46.1891 47.8458 47.1122 48.7689 47.1122 49.9689C47.1122 51.1689 46.0968 52.0919 44.9891 52.0919Z" fill="white"/>
</svg>
