<svg width="72" height="72" viewBox="0 0 72 72" fill="none" xmlns="http://www.w3.org/2000/svg">
<rect width="72" height="72" rx="36" fill="#DBEAFE"/>
<path d="M18.1974 45.4688C17.9079 45.4689 17.6245 45.3852 17.3814 45.2279C17.1384 45.0705 16.9461 44.8461 16.8277 44.5819C15.3957 41.3836 14.7867 37.8777 15.0564 34.3839C15.3261 30.89 16.4658 27.5191 18.3718 24.5785C20.2777 21.6378 22.8892 19.2208 25.9683 17.5478C29.0474 15.8748 32.4963 14.9989 36.0005 15C36.3984 15 36.7799 15.158 37.0612 15.4393C37.3425 15.7206 37.5005 16.1022 37.5005 16.5V36C37.5006 36.2896 37.4168 36.5731 37.2593 36.8162C37.1017 37.0592 36.8772 37.2515 36.6127 37.3697L18.8096 45.3337C18.6174 45.4216 18.4087 45.4676 18.1974 45.4688Z" fill="#2563EB"/>
<path d="M41.399 18.3919C41.2903 18.3699 41.178 18.3722 41.0702 18.3988C40.9625 18.4254 40.862 18.4756 40.776 18.5457C40.69 18.6158 40.6206 18.7042 40.5729 18.8044C40.5251 18.9045 40.5002 19.0141 40.5 19.125V36C40.4992 36.8685 40.2475 37.7183 39.7752 38.4472C39.3028 39.176 38.6299 39.7528 37.8375 40.1082L21.6684 47.3438C21.5682 47.3885 21.479 47.4547 21.4071 47.5377C21.3353 47.6207 21.2825 47.7184 21.2526 47.824C21.2226 47.9296 21.2162 48.0404 21.2338 48.1488C21.2514 48.2571 21.2925 48.3603 21.3543 48.451C22.5918 50.2709 24.1277 51.8687 25.8975 53.1769C29.2504 55.6712 33.321 57.0125 37.5 57C48.2521 57 57 48.2522 57 37.5C57 28.0829 50.2893 20.2032 41.399 18.3919Z" fill="#2563EB"/>
</svg>
