<svg width="50" height="50" viewBox="0 0 50 50" fill="none" xmlns="http://www.w3.org/2000/svg">
<path d="M13.3194 41.8917C10.6365 43.4322 7.61238 43.9847 5.82163 44.183C6.01988 42.3922 6.57238 39.3681 8.11126 36.6836C8.51426 35.9832 8.27213 35.0895 7.57176 34.6865C6.86488 34.2818 5.97601 34.5272 5.57463 35.2276C2.81863 40.0343 2.78613 45.5236 2.78613 45.756C2.78613 46.5636 3.44101 47.2185 4.24863 47.2185C4.48101 47.2185 9.97026 47.186 14.777 44.43C15.4774 44.027 15.7195 43.1348 15.3165 42.4328C14.9168 41.7325 14.0246 41.4887 13.3194 41.8917Z" fill="#D84426"/>
<path d="M49.2329 4.32846C49.2507 3.36808 48.8884 2.46783 48.2124 1.79346C47.538 1.11908 46.563 0.785957 45.6822 0.777832C41.6327 0.854207 30.7095 2.01608 20.3745 11.2932C18.5317 10.5766 15.7546 9.51221 13.647 9.78358C10.5465 10.1817 5.96562 14.4002 1.479 18.9015C0.884246 19.4978 0.646996 20.3428 0.846871 21.1618C1.04512 21.9841 1.64637 22.6292 2.45237 22.8876L9.58612 25.1788C9.04825 26.1603 8.5185 27.1646 8.00662 28.2241C7.36312 29.5566 7.63612 31.1572 8.68587 32.2037L17.807 41.3248C18.4765 41.996 19.3735 42.3502 20.2786 42.3502C20.7905 42.3502 21.3072 42.2381 21.7882 42.0057C22.8477 41.4938 23.852 40.9641 24.8302 40.4278L27.1231 47.56C27.3815 48.366 28.0266 48.9672 28.8505 49.1671C29.0406 49.2126 29.2324 49.2353 29.4241 49.2353C30.0497 49.2353 30.6526 48.99 31.1109 48.5333C35.6121 44.0467 39.8306 39.4675 40.2271 36.3686C40.5017 34.2415 39.4341 31.4806 38.7175 29.6378C47.993 19.3028 49.1565 8.37958 49.2329 4.32846ZM4.15375 20.364C6.53437 17.9931 11.7051 12.9832 14.0191 12.6858C15.051 12.5542 16.6711 13.0433 18.0394 13.539C15.623 16.0366 13.2765 19.0298 11.0892 22.5902L4.15375 20.364ZM20.5159 39.3716C20.3095 39.4723 20.0446 39.4268 19.8756 39.2578L10.7529 30.1351C10.5855 29.9677 10.5384 29.7045 10.6407 29.4948C22.0011 5.96321 40.3766 3.80521 45.7391 3.70446H45.7521C45.9455 3.70446 46.0722 3.79058 46.147 3.86533C46.2087 3.92708 46.3144 4.06358 46.3111 4.27483C46.2071 9.63733 44.0475 28.0128 20.5159 39.3716ZM37.3265 35.9948C37.0291 38.3072 32.0192 43.4796 29.6484 45.8586L27.4189 38.9247C30.9825 36.7375 33.9757 34.3893 36.4734 31.973C36.9706 33.3396 37.4597 34.9565 37.3265 35.9948Z" fill="#D84426"/>
<path d="M38.2046 20.4758C40.5966 18.0822 40.5966 14.1887 38.2046 11.7951C35.8841 9.47782 31.8411 9.47782 29.5238 11.7951C28.3652 12.9537 27.7266 14.4958 27.7266 16.1354C27.7266 17.7751 28.3668 19.3172 29.5238 20.4758C30.6824 21.6344 32.2246 22.2731 33.8642 22.2731C35.5038 22.2731 37.0443 21.6344 38.2046 20.4758ZM36.1343 18.4072C34.9204 19.6227 32.8031 19.6227 31.5924 18.4072C30.9847 17.8011 30.6499 16.9934 30.6499 16.1354C30.6499 15.2774 30.9847 14.4714 31.5924 13.8637C32.1986 13.2576 33.0046 12.9228 33.8626 12.9228C34.7189 12.9228 35.5266 13.2576 36.1327 13.8637C37.3872 15.1166 37.3872 17.1543 36.1343 18.4072Z" fill="#D84426"/>
</svg>
