<svg width="52" height="52" viewBox="0 0 52 52" fill="none" xmlns="http://www.w3.org/2000/svg">
<g clip-path="url(#clip0_3892_5057)">
<path d="M51.5073 49.171L38.0818 35.96C41.5975 32.1402 43.7577 27.0886 43.7577 21.5298C43.756 9.63845 33.9614 0 21.8784 0C9.79527 0 0.000732422 9.63845 0.000732422 21.5298C0.000732422 33.4211 9.79527 43.0595 21.8784 43.0595C27.0991 43.0595 31.8874 41.2538 35.6486 38.2517L49.1263 51.5148C49.783 52.1617 50.8491 52.1617 51.5058 51.5148C52.164 50.8679 52.164 49.8179 51.5073 49.171ZM21.8784 39.7471C11.6547 39.7471 3.36691 31.5909 3.36691 21.5298C3.36691 11.4686 11.6547 3.31248 21.8784 3.31248C32.1021 3.31248 40.3898 11.4686 40.3898 21.5298C40.3898 31.5909 32.1021 39.7471 21.8784 39.7471Z" fill="#D84426"/>
</g>
<defs>
<clipPath id="clip0_3892_5057">
<rect width="52" height="52" fill="white"/>
</clipPath>
</defs>
</svg>
