<svg width="50" height="50" viewBox="0 0 50 50" fill="none" xmlns="http://www.w3.org/2000/svg">
<g clip-path="url(#clip0_3878_5298)">
<path d="M20.8496 44.1415L22.2746 46.0579C17.8082 44.979 13.7699 42.7407 10.5394 39.511C7.26677 36.2391 4.98006 32.1048 3.92537 27.5532C3.83084 27.1462 3.42537 26.8946 3.01756 26.9868C2.61052 27.0813 2.3574 27.4876 2.45115 27.8946C3.5699 32.722 5.99724 37.1087 9.4699 40.5805C12.916 44.0266 17.2277 46.4071 21.9949 47.5446L20.1449 48.918L22.1738 49.218L24.9144 47.1813L22.8777 44.4407L20.8496 44.1415Z" fill="url(#paint0_linear_3878_5298)"/>
<path d="M29.3025 5.91016L27.6822 4.11875C32.3494 4.82422 36.5377 6.90547 39.8486 10.2156C43.0291 13.3961 45.1197 17.4516 45.8924 21.9438C45.9557 22.3125 46.2752 22.5719 46.6369 22.5719C46.6791 22.5719 46.7229 22.5688 46.7658 22.5609C47.1775 22.4898 47.4533 22.0992 47.3822 21.6875C46.5557 16.8852 44.3205 12.5484 40.9174 9.14609C37.3189 5.54766 32.7541 3.30938 27.6705 2.59141L29.5557 0.888281L27.4229 0.78125L24.7861 3.16563L27.1705 5.80312L29.3025 5.91016Z" fill="url(#paint1_linear_3878_5298)"/>
<path d="M5.29473 22.9366L5.57598 21.0311L3.97441 22.2218C5.07129 17.8374 7.29316 13.8757 10.4736 10.6952C13.7471 7.42254 17.8814 5.13504 22.4322 4.08035C22.8393 3.98582 23.0924 3.58035 22.9986 3.17332C22.9041 2.76629 22.4994 2.51473 22.0908 2.60691C17.2643 3.72566 12.8775 6.15223 9.4041 9.62566C5.9502 13.0796 3.56738 17.4022 2.43301 22.1819L1.08691 20.3694L0.805664 22.2749L2.71895 24.8499L5.29473 22.9366Z" fill="url(#paint2_linear_3878_5298)"/>
<path d="M49.202 27.8618L46.8176 25.2251L44.1801 27.6095L44.0731 29.7407L45.8207 28.1603C45.0692 32.7001 43.002 36.7712 39.7676 40.0056C36.5871 43.1853 32.5309 45.2759 28.0387 46.0485C27.627 46.1196 27.3512 46.5103 27.4223 46.922C27.4856 47.2899 27.8059 47.5493 28.1668 47.5493C28.209 47.5493 28.2528 47.5454 28.2957 47.5384C33.0973 46.7118 37.434 44.4767 40.8371 41.0743C44.3778 37.5337 46.6036 33.0571 47.3582 28.0712L49.095 29.9931L49.202 27.8618Z" fill="url(#paint3_linear_3878_5298)"/>
<path d="M35.6553 23.3278V17.2833C35.6553 16.6817 35.3967 16.1075 34.9459 15.7091C34.5068 15.3208 33.9256 15.1395 33.3506 15.2099C30.0389 15.6216 27.4162 13.9661 26.1498 12.9458C25.4748 12.4005 24.5303 12.4013 23.8568 12.9458C22.5889 13.9661 19.9646 15.6192 16.6553 15.2106C16.0865 15.1403 15.4998 15.3216 15.06 15.7099C14.6084 16.1083 14.3506 16.6825 14.3506 17.2841V23.3286C14.3506 29.3669 18.0482 34.7536 23.7701 37.0521C24.0873 37.1802 24.417 37.302 24.7576 37.4192C24.8365 37.4466 24.9201 37.4599 25.0029 37.4599C25.0857 37.4599 25.1693 37.4466 25.2482 37.4192C25.5889 37.3028 25.9178 37.1802 26.235 37.0521C31.9576 34.7528 35.6553 29.3661 35.6553 23.3278ZM25.6701 35.6481C25.4537 35.7356 25.2311 35.82 25.0029 35.9013C24.7748 35.82 24.5521 35.7356 24.335 35.6481C19.1881 33.581 15.8631 28.745 15.8631 23.3278V17.2833C15.8631 17.1146 15.9357 16.9536 16.0623 16.8419C16.1225 16.7888 16.242 16.7067 16.4068 16.7067C16.4271 16.7067 16.449 16.7075 16.4701 16.7106C20.342 17.1833 23.3514 15.2927 24.8053 14.1224C24.9232 14.027 25.0811 14.0278 25.2006 14.1224C26.6529 15.2935 29.6693 17.1872 33.535 16.7106C33.7326 16.6849 33.8764 16.7817 33.9436 16.8411C34.0709 16.9536 34.1428 17.1138 34.1428 17.2825V23.3271C34.1428 28.745 30.817 33.581 25.6701 35.6481Z" fill="url(#paint4_linear_3878_5298)"/>
<path d="M27.3275 22.4798L23.8916 25.9157L22.6885 24.7134C22.3932 24.4181 21.9143 24.4181 21.6189 24.7134C21.3236 25.0087 21.3236 25.4876 21.6189 25.7829L23.3564 27.5196C23.5041 27.6673 23.6979 27.7415 23.8908 27.7415C24.0846 27.7415 24.2775 27.6673 24.4252 27.5196L28.3963 23.5493C28.6916 23.254 28.6916 22.7751 28.3963 22.4798C28.1018 22.1845 27.6229 22.1845 27.3275 22.4798Z" fill="url(#paint5_linear_3878_5298)"/>
</g>
<defs>
<linearGradient id="paint0_linear_3878_5298" x1="2.69929" y1="44.6985" x2="24.601" y2="44.6526" gradientUnits="userSpaceOnUse">
<stop stop-color="#434AE4"/>
<stop offset="0.5" stop-color="#5441B7"/>
<stop offset="1" stop-color="#E86343"/>
</linearGradient>
<linearGradient id="paint1_linear_3878_5298" x1="25.0553" y1="18.1457" x2="47.0782" y2="18.0983" gradientUnits="userSpaceOnUse">
<stop stop-color="#434AE4"/>
<stop offset="0.5" stop-color="#5441B7"/>
<stop offset="1" stop-color="#E86343"/>
</linearGradient>
<linearGradient id="paint2_linear_3878_5298" x1="1.0701" y1="20.3279" x2="22.7085" y2="20.2832" gradientUnits="userSpaceOnUse">
<stop stop-color="#434AE4"/>
<stop offset="0.5" stop-color="#5441B7"/>
<stop offset="1" stop-color="#E86343"/>
</linearGradient>
<linearGradient id="paint3_linear_3878_5298" x1="27.6705" y1="43.0147" x2="48.8982" y2="42.9718" gradientUnits="userSpaceOnUse">
<stop stop-color="#434AE4"/>
<stop offset="0.5" stop-color="#5441B7"/>
<stop offset="1" stop-color="#E86343"/>
</linearGradient>
<linearGradient id="paint4_linear_3878_5298" x1="14.6042" y1="32.3974" x2="35.3583" y2="32.3607" gradientUnits="userSpaceOnUse">
<stop stop-color="#434AE4"/>
<stop offset="0.5" stop-color="#5441B7"/>
<stop offset="1" stop-color="#E86343"/>
</linearGradient>
<linearGradient id="paint5_linear_3878_5298" x1="21.4834" y1="26.6277" x2="28.5171" y2="26.6085" gradientUnits="userSpaceOnUse">
<stop stop-color="#434AE4"/>
<stop offset="0.5" stop-color="#5441B7"/>
<stop offset="1" stop-color="#E86343"/>
</linearGradient>
<clipPath id="clip0_3878_5298">
<rect width="50" height="50" fill="white"/>
</clipPath>
</defs>
</svg>
