<svg width="80" height="80" viewBox="0 0 80 80" fill="none" xmlns="http://www.w3.org/2000/svg">
<path d="M40 76C59.8823 76 76 59.8823 76 40C76 20.1177 59.8823 4 40 4C20.1177 4 4 20.1177 4 40C4 59.8823 20.1177 76 40 76Z" stroke="white" stroke-opacity="0.1" stroke-width="4"/>
<path d="M20.5 45.625C20.9145 45.625 21.25 45.2892 21.25 44.875C21.25 34.5362 29.6612 26.125 40 26.125C50.3389 26.125 58.75 34.5362 58.75 44.875C58.75 45.2892 59.0855 45.625 59.5 45.625C59.9145 45.625 60.25 45.2892 60.25 44.875C60.25 33.7092 51.1658 24.625 40 24.625C28.8342 24.625 19.75 33.7092 19.75 44.875C19.75 45.2892 20.0855 45.625 20.5 45.625Z" fill="white"/>
<path d="M48.1504 32.2349C48.357 31.8756 48.2325 31.4172 47.8728 31.211C45.4932 29.8464 42.7788 29.125 40.022 29.125C31.3252 29.125 24.25 36.1903 24.25 44.875C24.25 45.2892 24.5855 45.625 25 45.625C25.4145 45.625 25.75 45.2892 25.75 44.875C25.75 37.0175 32.1521 30.625 40.022 30.625C42.5174 30.625 44.9739 31.2776 47.1272 32.5124C47.4846 32.7172 47.9439 32.5938 48.1504 32.2349Z" fill="white"/>
<path d="M46.416 36.7514C46.0696 36.521 45.6052 36.6145 45.376 36.9594L40.5484 44.2007C40.3721 44.1562 40.1903 44.1254 40 44.1254C38.758 44.1254 37.75 45.1334 37.75 46.3754C37.75 47.6174 38.758 48.6254 40 48.6254C41.242 48.6254 42.25 47.6174 42.25 46.3754C42.25 45.8704 42.0773 45.409 41.7961 45.0334L46.624 37.7914C46.854 37.4468 46.761 36.981 46.416 36.7514Z" fill="white"/>
<path d="M62.5 49.375H44.5C44.0855 49.375 43.75 49.7108 43.75 50.125C43.75 52.1926 42.0676 53.875 40 53.875C37.9324 53.875 36.25 52.1926 36.25 50.125C36.25 49.7108 35.9145 49.375 35.5 49.375H17.5C17.0855 49.375 16.75 49.7108 16.75 50.125C16.75 50.5392 17.0855 50.875 17.5 50.875H34.8098C35.1759 53.415 37.3608 55.375 40 55.375C42.6393 55.375 44.8243 53.415 45.1902 50.875H62.5C62.9145 50.875 63.25 50.5392 63.25 50.125C63.25 49.7108 62.9145 49.375 62.5 49.375Z" fill="white"/>
</svg>
