<svg width="80" height="80" viewBox="0 0 80 80" fill="none" xmlns="http://www.w3.org/2000/svg">
<path d="M40 76C59.8823 76 76 59.8823 76 40C76 20.1177 59.8823 4 40 4C20.1177 4 4 20.1177 4 40C4 59.8823 20.1177 76 40 76Z" stroke="white" stroke-opacity="0.1" stroke-width="4"/>
<path d="M19.7502 50.4998C18.7804 50.5039 18.7536 51.9875 19.7502 51.9998C19.7502 51.9998 41.5002 51.9998 41.5002 51.9998C41.9144 51.9998 42.2502 51.6644 42.2502 51.2498C42.2502 50.8353 41.9144 50.4998 41.5002 50.4998H29.1252V36.9998H44.8752V39.8273C44.8752 40.2415 45.211 40.5773 45.6252 40.5773C46.0394 40.5773 46.3752 40.2415 46.3752 39.8273V36.9998H47.1252C48.1043 36.9851 48.1163 35.5171 47.1252 35.4998H26.8752C26.461 35.4998 26.1252 35.8356 26.1252 36.2498C26.1252 36.664 26.461 36.9998 26.8752 36.9998H27.6252V50.4998H22.0002V25.0989L37.0002 20.5339L52.0002 25.0989V38.4998C52.0093 39.4813 53.4876 39.4871 53.5002 38.4998V25.5554L54.0319 25.7172C54.4165 25.8388 54.8485 25.6177 54.9676 25.2181C55.0884 24.8218 54.8647 24.4029 54.4685 24.2824L37.2184 19.0324C37.0764 18.9892 36.924 18.9892 36.7819 19.0324L19.5319 24.2824C19.1357 24.4029 18.9119 24.8218 19.0328 25.2181C19.1533 25.6147 19.574 25.8373 19.9684 25.7172L20.5002 25.5554V50.4998H19.7502Z" fill="white"/>
<path d="M42.25 28C42.25 27.5858 41.9142 27.25 41.5 27.25H32.5C32.0858 27.25 31.75 27.5858 31.75 28C31.75 28.4142 32.0858 28.75 32.5 28.75H41.5C41.9142 28.75 42.25 28.4142 42.25 28Z" fill="white"/>
<path d="M34.0009 31C33.0169 31.0162 33.0137 32.4832 34.0009 32.5H40.0009C40.9849 32.4838 40.9881 31.0168 40.0009 31H34.0009Z" fill="white"/>
<path d="M52 51.2498C52 51.6644 52.3358 51.9998 52.75 51.9998C54.113 51.9998 55.468 51.8533 56.6688 51.5757C57.0724 51.482 57.324 51.0792 57.2306 50.6756C57.1376 50.272 56.7314 50.0201 56.3312 50.1138C55.2391 50.3665 54.001 50.4998 52.75 50.4998C52.3358 50.4998 52 50.8353 52 51.2498Z" fill="white"/>
<path d="M49.001 50.0957C48.0152 50.1125 48.0153 51.5791 49.0011 51.5957C49.9868 51.579 49.9867 50.1123 49.001 50.0957Z" fill="white"/>
<path d="M56.3312 56.1133C55.2391 56.366 54.001 56.4993 52.75 56.4993C52.3358 56.4993 52 56.8348 52 57.2493C52 57.6638 52.3358 57.9993 52.75 57.9993C54.113 57.9993 55.468 57.8528 56.6688 57.5752C57.6255 57.3369 57.2939 55.9055 56.3312 56.1133Z" fill="white"/>
<path d="M52.75 41.5C48.7506 41.5 44.5 42.814 44.5 45.25V57.25C44.6269 62.2235 60.8732 62.2244 61 57.25V45.25C61 42.814 56.7494 41.5 52.75 41.5ZM59.5 51.25C59.5 52.1677 56.8706 53.5 52.75 53.5C48.6294 53.5 46 52.1677 46 51.25V47.4687C49.2341 49.5027 56.2659 49.5026 59.5 47.4687V51.25ZM52.75 43C56.8706 43 59.5 44.3323 59.5 45.25C59.5 46.1677 56.8706 47.5 52.75 47.5C48.6294 47.5 46 46.1677 46 45.25C46 44.3323 48.6294 43 52.75 43ZM52.75 59.5C48.6294 59.5 46 58.1677 46 57.25V53.4687C49.2341 55.5027 56.2659 55.5026 59.5 53.4687V57.25C59.5 58.1677 56.8706 59.5 52.75 59.5Z" fill="white"/>
<path d="M49.001 56.0957C48.0152 56.1125 48.0153 57.5791 49.0011 57.5957C49.9868 57.579 49.9867 56.1123 49.001 56.0957Z" fill="white"/>
</svg>
