<svg width="80" height="80" viewBox="0 0 80 80" fill="none" xmlns="http://www.w3.org/2000/svg">
<path d="M40 76C59.8823 76 76 59.8823 76 40C76 20.1177 59.8823 4 40 4C20.1177 4 4 20.1177 4 40C4 59.8823 20.1177 76 40 76Z" stroke="white" stroke-opacity="0.1" stroke-width="4"/>
<path d="M28.3594 34.1911C28.3594 33.7178 28.7431 33.334 29.2165 33.334H33.3903C33.8637 33.334 34.2475 33.7178 34.2475 34.1911C34.2475 34.6645 33.8637 35.0483 33.3903 35.0483H29.2165C28.7431 35.0483 28.3594 34.6645 28.3594 34.1911Z" fill="white"/>
<path d="M29.2165 38.8809C28.7431 38.8809 28.3594 39.2646 28.3594 39.738C28.3594 40.2114 28.7431 40.5951 29.2165 40.5951H33.3903C33.8637 40.5951 34.2475 40.2114 34.2475 39.738C34.2475 39.2646 33.8637 38.8809 33.3903 38.8809H29.2165Z" fill="white"/>
<path fill-rule="evenodd" clip-rule="evenodd" d="M25.4395 37.618H23.7481V37.612C20.5953 37.4726 18.082 34.8725 18.082 31.6853C18.082 28.4373 20.6922 25.7989 23.9294 25.7534C24.1713 21.8926 27.3792 18.8362 31.3009 18.8362C35.2227 18.8362 38.4305 21.8926 38.6724 25.7534C41.9096 25.7989 44.5197 28.4373 44.5197 31.6853C44.5197 34.8676 42.0142 37.4646 38.8683 37.6113V37.618H37.1625V42.0872C37.1625 42.7184 36.6508 43.2301 36.0196 43.2301H26.5823C25.9511 43.2301 25.4395 42.7184 25.4395 42.0872V37.618ZM23.9205 35.9037L23.8238 35.8995C21.5834 35.8004 19.7963 33.9511 19.7963 31.6853C19.7963 29.376 21.6523 27.4998 23.9536 27.4675L25.5411 27.4452L25.6404 25.8606C25.826 22.8975 28.29 20.5505 31.3009 20.5505C34.3118 20.5505 36.7758 22.8975 36.9614 25.8606L37.0608 27.4452L38.6483 27.4675C40.9496 27.4999 42.8054 29.376 42.8054 31.6853C42.8054 33.9476 41.024 35.7947 38.7884 35.899L38.6866 35.9037H37.1625V31.4515C37.1625 30.8203 36.6508 30.3086 36.0196 30.3086H26.5823C25.9511 30.3086 25.4395 30.8203 25.4395 31.4515V35.9037H23.9205ZM35.4482 35.9037H27.1537V32.0229H35.4482V35.9037ZM27.1537 37.6265H35.4482V41.5158H27.1537V37.6265Z" fill="white"/>
<path d="M45.7617 52.1241C45.7617 51.6507 46.1455 51.267 46.6189 51.267H50.7927C51.2662 51.267 51.6498 51.6507 51.6498 52.1241C51.6498 52.5975 51.2662 52.9813 50.7927 52.9813H46.6189C46.1455 52.9813 45.7617 52.5975 45.7617 52.1241Z" fill="white"/>
<path d="M46.6189 56.8138C46.1455 56.8138 45.7617 57.1976 45.7617 57.671C45.7617 58.1444 46.1455 58.5281 46.6189 58.5281H50.7928C51.2662 58.5281 51.6499 58.1444 51.6499 57.671C51.6499 57.1976 51.2662 56.8138 50.7928 56.8138H46.6189Z" fill="white"/>
<path fill-rule="evenodd" clip-rule="evenodd" d="M54.5648 55.5511H56.2707V55.5445C59.4166 55.3976 61.9222 52.8006 61.9222 49.6184C61.9222 46.3704 59.312 43.732 56.0748 43.6864C55.8329 39.8256 52.6251 36.7693 48.7033 36.7693C44.7816 36.7693 41.5737 39.8256 41.3318 43.6864C38.0947 43.732 35.4844 46.3703 35.4844 49.6184C35.4844 52.8055 37.9976 55.4057 41.1504 55.5451V55.5511H42.8419V60.0204C42.8419 60.6515 43.3535 61.1632 43.9847 61.1632H53.422C54.0532 61.1632 54.5648 60.6515 54.5648 60.0204V55.5511ZM41.2262 53.8325L41.3229 53.8367H42.8419V49.3845C42.8419 48.7533 43.3535 48.2416 43.9847 48.2416H53.422C54.0532 48.2416 54.5648 48.7533 54.5648 49.3845V53.8367H56.0891L56.1908 53.832C58.4263 53.7277 60.2079 51.8806 60.2079 49.6184C60.2079 47.3091 58.3519 45.4329 56.0507 45.4005L54.4631 45.3782L54.3639 43.7936C54.1782 40.8305 51.7142 38.4836 48.7033 38.4836C45.6925 38.4836 43.2284 40.8305 43.0428 43.7936L42.9435 45.3782L41.3559 45.4005C39.0547 45.4329 37.1987 47.3091 37.1987 49.6184C37.1987 51.8841 38.9857 53.7334 41.2262 53.8325ZM52.8505 53.8367V49.9559H44.5561V53.8367H52.8505ZM44.5561 55.5596H52.8505V59.4489H44.5561V55.5596Z" fill="white"/>
<path d="M52.8811 21.9781C49.724 20.6453 46.217 21.34 43.8134 23.4772C43.4596 23.7918 42.9178 23.76 42.6033 23.4062C42.2888 23.0524 42.3206 22.5107 42.6743 22.1961C45.5534 19.6362 49.7588 18.7993 53.5478 20.3988C58.7968 22.6146 61.2558 28.6662 59.0399 33.9152C58.9048 34.235 58.7555 34.5445 58.5929 34.8435L60.1294 34.4085C60.5849 34.2796 61.0586 34.5443 61.1875 34.9998C61.3166 35.4552 61.0518 35.9291 60.5963 36.058L56.8807 37.1098C56.4252 37.2388 55.9514 36.9741 55.8225 36.5186L54.7703 32.8028C54.6414 32.3474 54.906 31.8735 55.3615 31.7445C55.817 31.6156 56.2907 31.8803 56.4198 32.3357L56.9611 34.2477C57.1464 33.9301 57.3135 33.5967 57.4604 33.2485C59.3082 28.8717 57.2579 23.8258 52.8811 21.9781Z" fill="white"/>
</svg>
