<svg width="72" height="72" viewBox="0 0 72 72" fill="none" xmlns="http://www.w3.org/2000/svg">
<rect width="72" height="72" rx="36" fill="#F8F1DD"/>
<path d="M22.9274 35.25C22.9274 34.8354 22.5916 34.5 22.1774 34.5H15.75C14.5093 34.5 13.5 33.4907 13.5 32.25V18.75C13.5 17.5093 14.5093 16.5 15.75 16.5H33.75C34.5557 16.5 35.306 16.9387 35.7085 17.644C35.9136 18.0029 36.3713 18.1289 36.7313 17.9246C37.0913 17.7188 37.2166 17.261 37.0115 16.9014C36.3428 15.7288 35.0929 15 33.75 15H15.75C13.6824 15 12 16.6824 12 18.75V32.25C12 34.3176 13.6824 36 15.75 36H22.1774C22.5916 36 22.9274 35.6646 22.9274 35.25Z" fill="#FF6600"/>
<path d="M21.3593 21.0915C21.1263 20.9655 20.844 20.9707 20.6173 21.1047C20.3895 21.2402 20.25 21.4856 20.25 21.75V30.75C20.25 31.0144 20.3895 31.2597 20.6173 31.3952C20.7349 31.4648 20.8674 31.5 21 31.5C21.1234 31.5 21.2472 31.4692 21.3593 31.4084L29.6093 26.9084C29.8502 26.7773 30 26.5246 30 26.25C30 25.9753 29.8502 25.7226 29.6093 25.5915L21.3593 21.0915ZM21.75 29.4865V23.0134L27.6837 26.25L21.75 29.4865Z" fill="#FF6600"/>
<path d="M56.25 18.75H36.75C34.6824 18.75 33 20.4324 33 22.5V31.6948C33 32.1094 33.3358 32.4448 33.75 32.4448C34.1642 32.4448 34.5 32.1094 34.5 31.6948V22.5C34.5 21.2593 35.5093 20.25 36.75 20.25H56.25C57.4907 20.25 58.5 21.2593 58.5 22.5V37.5C58.5 38.7407 57.4907 39.75 56.25 39.75H44.2277C43.8135 39.75 43.4777 40.0854 43.4777 40.5C43.4777 40.9146 43.8135 41.25 44.2277 41.25H56.25C58.3176 41.25 60 39.5676 60 37.5V22.5C60 20.4324 58.3176 18.75 56.25 18.75Z" fill="#FF6600"/>
<path d="M41.4231 36.75C41.4231 37.1646 41.7589 37.5 42.1731 37.5H55.5006C55.7544 37.5 55.991 37.3718 56.1294 37.1587C56.2679 36.9456 56.2891 36.6775 56.1858 36.4453L50.1858 22.9453C50.0683 22.6802 49.8079 22.5066 49.5179 22.5C49.1971 22.4788 48.9594 22.6553 48.8298 22.9146L45.6576 29.2588L43.3747 25.834C43.2267 25.6113 42.9674 25.492 42.7041 25.5015C42.4372 25.5183 42.1995 25.6758 42.0798 25.9146L38.3147 33.4446C38.1294 33.8152 38.2796 34.2656 38.6502 34.4509C39.0212 34.6363 39.4712 34.4861 39.6565 34.1155L42.8437 27.7412L45.1266 31.166C45.2749 31.3887 45.5306 31.5147 45.7972 31.4986C46.0641 31.4817 46.3018 31.3242 46.4215 31.0855L49.4607 25.0071L54.3467 36H42.1731C41.7589 36 41.4231 36.3355 41.4231 36.75Z" fill="#FF6600"/>
<path d="M31.5 33C24.8833 33 19.5 38.3833 19.5 45C19.5 48.3113 20.8528 51.4387 23.2379 53.7019L21.2197 55.7197C21.0051 55.9343 20.941 56.2566 21.0571 56.5371C21.1732 56.8176 21.4468 57 21.75 57H31.5C38.1167 57 43.5 51.6167 43.5 45C43.5 38.3833 38.1167 33 31.5 33ZM31.5 55.5H23.5605L24.8613 54.1992C25.0107 54.0498 25.0902 53.8447 25.0803 53.6338C25.0704 53.4229 24.9719 53.2258 24.8093 53.0911C22.3883 51.0872 21 48.1384 21 45C21 39.2102 25.7102 34.5 31.5 34.5C37.2898 34.5 42 39.2102 42 45C42 50.7898 37.2898 55.5 31.5 55.5Z" fill="#FF6600"/>
<path d="M33.2854 39.8218C32.5555 39.9624 31.9407 40.295 31.4994 40.7549C31.0581 40.295 30.4432 39.9624 29.7134 39.8218C28.1423 39.5171 26.0564 40.1748 25.1943 42.3311C23.0992 47.5804 30.8347 51.5069 31.165 51.6717C31.2701 51.7237 31.3848 51.75 31.4994 51.75C31.614 51.75 31.7286 51.7237 31.8337 51.6717C32.164 51.5069 39.8995 47.5804 37.8044 42.3311C36.942 40.1756 34.8605 39.5179 33.2854 39.8218ZM31.4994 50.1482C30.144 49.3894 25.209 46.3404 26.5874 42.8877C27.0521 41.7254 28.0365 41.2486 28.9458 41.2486C29.1109 41.2486 29.2732 41.2647 29.4299 41.2947C30.0679 41.4178 30.7494 41.8272 30.7494 42.6094C30.7494 43.024 31.0852 43.3594 31.4994 43.3594C31.9136 43.3594 32.2494 43.024 32.2494 42.6094C32.2494 41.8272 32.9309 41.4178 33.5688 41.2947C34.5891 41.0992 35.8624 41.5144 36.4114 42.8877C37.7898 46.3404 32.8547 49.3894 31.4994 50.1482Z" fill="#FF6600"/>
</svg>
