<svg width="52" height="52" viewBox="0 0 52 52" fill="none" xmlns="http://www.w3.org/2000/svg">
<g clip-path="url(#clip0_3892_5068)">
<mask id="mask0_3892_5068" style="mask-type:luminance" maskUnits="userSpaceOnUse" x="0" y="0" width="52" height="52">
<path d="M0 0H52V52H0V0Z" fill="white"/>
</mask>
<g mask="url(#mask0_3892_5068)">
<path fill-rule="evenodd" clip-rule="evenodd" d="M51.3654 11.4686C52.2115 12.3147 52.2115 13.6866 51.3654 14.5327L30.7821 35.116C29.936 35.9621 28.564 35.9621 27.718 35.116L18.4167 25.8148L3.69874 40.5327C2.85259 41.3788 1.48074 41.3788 0.634602 40.5327C-0.211534 39.6866 -0.211534 38.3147 0.634602 37.4686L16.8846 21.2186C17.7307 20.3725 19.1026 20.3725 19.9487 21.2186L29.25 30.5199L48.3013 11.4686C49.1474 10.6225 50.5193 10.6225 51.3654 11.4686Z" fill="#D84426"/>
<path fill-rule="evenodd" clip-rule="evenodd" d="M34.666 13.0007C34.666 11.804 35.636 10.834 36.8327 10.834H49.8327C51.0293 10.834 51.9993 11.804 51.9993 13.0007V26.0007C51.9993 27.1973 51.0293 28.1673 49.8327 28.1673C48.636 28.1673 47.666 27.1973 47.666 26.0007V15.1673H36.8327C35.636 15.1673 34.666 14.1973 34.666 13.0007Z" fill="#D84426"/>
</g>
</g>
<defs>
<clipPath id="clip0_3892_5068">
<rect width="52" height="52" fill="white"/>
</clipPath>
</defs>
</svg>
