<svg width="80" height="80" viewBox="0 0 80 80" fill="none" xmlns="http://www.w3.org/2000/svg">
<path d="M40 76C59.8823 76 76 59.8823 76 40C76 20.1177 59.8823 4 40 4C20.1177 4 4 20.1177 4 40C4 59.8823 20.1177 76 40 76Z" stroke="white" stroke-opacity="0.1" stroke-width="4"/>
<path fill-rule="evenodd" clip-rule="evenodd" d="M18.2393 39.8778V39.8839C18.241 51.8277 27.9378 61.5233 39.8812 61.5233C45.5212 61.5233 50.6604 59.3608 54.5136 55.821L60.0655 61.3725C60.3568 61.6637 60.8296 61.6637 61.1208 61.3725C61.412 61.0813 61.412 60.6084 61.1208 60.3172L55.5779 54.7743C59.2613 50.8931 61.5227 45.6493 61.5227 39.8814V24.9559C61.5227 24.7385 61.4278 24.5314 61.2627 24.3896C61.0975 24.2481 60.8787 24.1854 60.6637 24.2184C50.4931 25.7751 43.7419 24.0056 40.5252 18.6088C40.4636 18.5035 40.3751 18.4114 40.263 18.3444C39.9091 18.1338 39.4506 18.2502 39.24 18.6041C36.024 24.0045 29.2721 25.7759 19.0986 24.2184C18.8833 24.1854 18.6645 24.2481 18.4993 24.3896C18.3342 24.5314 18.2393 24.7385 18.2393 24.9559V39.8778ZM39.8812 20.3443C36.307 25.2908 29.5988 27.1707 19.7319 25.8185V39.1342H22.1516C22.5636 39.1342 22.8981 39.4687 22.8981 39.8807C22.8981 40.2923 22.5636 40.6268 22.1516 40.6268H19.7455C20.1285 51.1542 28.6058 59.6327 39.1347 60.017V57.6106C39.1347 57.199 39.4692 56.8644 39.8812 56.8644C40.2927 56.8644 40.6273 57.199 40.6273 57.6106V60.017C45.5616 59.8369 50.0453 57.8789 53.4576 54.7646L48.1135 49.4205C48.0813 49.3883 48.0526 49.3539 48.0276 49.3177C45.8414 51.2069 42.9936 52.3499 39.8812 52.3499C32.9996 52.3499 27.4126 46.763 27.4126 39.8814C27.4126 32.9998 32.9996 27.4129 39.8812 27.4129C46.7627 27.4129 52.3497 32.9998 52.3497 39.8814C52.3497 43.121 51.1114 46.0741 49.0828 48.2914C49.1129 48.3136 49.1416 48.338 49.1688 48.3652L54.5222 53.7187C57.7773 50.2759 59.8323 45.6883 60.0168 40.6268H57.577C57.1651 40.6268 56.8309 40.2923 56.8309 39.8807C56.8309 39.4687 57.1651 39.1342 57.577 39.1342H60.0304C60.0304 36.2266 60.0304 25.8185 60.0301 25.8185C50.1632 27.1707 43.455 25.2908 39.8812 20.3443ZM39.8812 28.9055C45.9388 28.9055 50.857 33.8234 50.857 39.8814C50.857 45.9391 45.9388 50.8573 39.8812 50.8573C33.8231 50.8573 28.9049 45.9391 28.9049 39.8814C28.9049 33.8234 33.8231 28.9055 39.8812 28.9055ZM39.8812 30.6715C34.7978 30.6715 30.6713 34.7984 30.6713 39.8814C30.6713 44.9644 34.7978 49.0913 39.8812 49.0913C44.9642 49.0913 49.0911 44.9644 49.0911 39.8814C49.0911 34.7984 44.9642 30.6715 39.8812 30.6715ZM39.8812 32.1641C44.1403 32.1641 47.5984 35.6219 47.5984 39.8814C47.5984 44.1405 44.1403 47.5987 39.8812 47.5987C35.6217 47.5987 32.1636 44.1405 32.1636 39.8814C32.1636 35.6219 35.6217 32.1641 39.8812 32.1641ZM38.4186 41.6846L36.2196 39.4856C35.9283 39.1944 35.4555 39.1944 35.1643 39.4856C34.8727 39.7768 34.8727 40.2496 35.1643 40.5409L37.891 43.2676L37.8978 43.2744C38.1252 43.4961 38.4594 43.5437 38.7327 43.4169L38.7696 43.3987L38.8058 43.3782L38.8449 43.3528L38.8825 43.3249L38.9187 43.2941L38.9462 43.2676L44.2313 37.9829C44.5225 37.6917 44.5225 37.2188 44.2313 36.9276C43.94 36.6364 43.4668 36.6364 43.1756 36.9276L38.4186 41.6846Z" fill="white"/>
</svg>
