<svg width="50" height="51" viewBox="0 0 50 51" fill="none" xmlns="http://www.w3.org/2000/svg">
<path fill-rule="evenodd" clip-rule="evenodd" d="M44.0342 40.1098C43.4249 40.1098 42.9294 39.6171 42.9294 39.0056C42.9294 38.3997 43.4249 37.9014 44.0342 37.9014C44.6435 37.9014 45.139 38.3997 45.139 39.0056C45.139 39.6171 44.6435 40.1098 44.0342 40.1098ZM38.458 3.33618H37.7934C36.825 3.46848 36.0349 4.17008 35.7717 5.09158H28.045C27.6741 5.09158 27.3734 5.39168 27.3734 5.75978V14.016C25.7656 13.8652 24.2337 13.8652 22.6258 14.016V5.75978C22.6258 5.39168 22.3257 5.09158 21.9542 5.09158H14.228C13.9648 4.17008 13.1747 3.46838 12.2059 3.33618H11.5414C10.3484 3.49888 9.42549 4.52458 9.42549 5.75978C9.42549 7.11318 10.5241 8.21168 11.8735 8.21168C12.9908 8.21168 13.9353 7.45858 14.228 6.43358H21.282V14.1745C18.9144 14.5199 16.629 15.1938 14.5049 16.1734V11.9717C14.5049 11.5979 14.2042 11.2978 13.8333 11.2978H8.31959C8.02679 10.2728 7.08229 9.52538 5.96619 9.52538C4.61559 9.52538 3.51709 10.6183 3.51709 11.9717C3.51709 13.3194 4.61569 14.418 5.96619 14.418C7.08229 14.418 8.02679 13.6649 8.31959 12.6456H13.1612V16.8473C13.0502 16.9096 12.9387 16.9662 12.8294 17.0285C9.28509 19.0331 6.46789 21.8475 4.68189 25.1715C4.57539 25.3697 4.57539 25.6075 4.68189 25.8057C6.46789 29.1354 9.28509 31.9497 12.8294 33.9487C12.9387 34.011 13.0503 34.0733 13.1612 34.1299V38.3373H8.31959C8.02679 37.3123 7.08229 36.5592 5.96619 36.5592C4.61559 36.5592 3.51709 37.6578 3.51709 39.0055C3.51709 40.3589 4.61569 41.4574 5.96619 41.4574C7.08229 41.4574 8.02679 40.7043 8.31959 39.6793H13.8334C14.2043 39.6793 14.505 39.3792 14.505 39.0054V34.8037C16.6291 35.789 18.9145 36.4629 21.2821 36.8083V44.5436H14.2281C13.9353 43.5243 12.9908 42.7712 11.8736 42.7712C10.5242 42.7712 9.42559 43.8698 9.42559 45.2175C9.42559 46.5652 10.5242 47.6638 11.8736 47.6638C12.9909 47.6638 13.9354 46.9163 14.2281 45.8914H21.9543C22.3258 45.8914 22.6259 45.5913 22.6259 45.2175V36.967C24.1583 37.1107 25.8411 37.1107 27.3735 36.967V45.2175C27.3735 45.5913 27.6742 45.8914 28.0451 45.8914H35.7718C36.0646 46.9163 37.0091 47.6638 38.1258 47.6638C39.4763 47.6638 40.5743 46.5652 40.5743 45.2175C40.5743 43.8698 39.4763 42.7712 38.1258 42.7712C37.0091 42.7712 36.0646 43.5243 35.7718 44.5436H28.7172V36.8083C31.0848 36.4629 33.3702 35.789 35.4949 34.8037V39.0054C35.4949 39.3791 35.795 39.6793 36.1671 39.6793H41.6803C41.9731 40.7042 42.917 41.4574 44.0343 41.4574C45.3849 41.4574 46.4829 40.3588 46.4829 39.0055C46.4829 37.6578 45.3849 36.5592 44.0343 36.5592C42.917 36.5592 41.9731 37.3123 41.6803 38.3373H36.8393V34.1299C36.9503 34.0733 37.0607 34.011 37.1706 33.9487C40.7143 31.9498 43.5315 29.1354 45.3181 25.8057C45.4251 25.6075 45.4251 25.3697 45.3181 25.1715C43.5315 21.8475 40.7143 19.0331 37.1706 17.0285C37.0608 16.9662 36.9503 16.9096 36.8393 16.8473V12.6456H41.6803C41.9731 13.6649 42.917 14.418 44.0343 14.418C45.3849 14.418 46.4829 13.3194 46.4829 11.9717C46.4829 10.6183 45.3849 9.52538 44.0343 9.52538C42.917 9.52538 41.9731 10.2729 41.6803 11.2978H36.1671C35.795 11.2978 35.4949 11.5979 35.4949 11.9717V16.1734C33.3703 15.1937 31.0848 14.5199 28.7172 14.1745V6.43368H35.7718C36.0646 7.45858 37.0091 8.21178 38.1258 8.21178C39.4763 8.21178 40.5743 7.11318 40.5743 5.75988C40.5743 4.52458 39.6518 3.49888 38.458 3.33618ZM6.04089 25.4887C9.56029 19.2541 16.9569 15.2506 24.9996 15.2506C33.0435 15.2506 40.439 19.2541 43.9589 25.4887C40.439 31.7233 33.0435 35.7325 24.9996 35.7325C16.9569 35.7325 9.56029 31.7233 6.04089 25.4887ZM38.1257 44.1133C38.735 44.1133 39.2305 44.6116 39.2305 45.2175C39.2305 45.8291 38.735 46.3217 38.1257 46.3217C37.5164 46.3217 37.0215 45.829 37.0215 45.2175C37.0215 44.6116 37.5164 44.1133 38.1257 44.1133ZM11.8735 46.3217C11.2647 46.3217 10.7693 45.829 10.7693 45.2175C10.7693 44.6116 11.2648 44.1133 11.8735 44.1133C12.4828 44.1133 12.9783 44.6116 12.9783 45.2175C12.9783 45.8291 12.4828 46.3217 11.8735 46.3217ZM5.96619 40.1098C5.35629 40.1098 4.86079 39.6171 4.86079 39.0056C4.86079 38.3997 5.35629 37.9014 5.96619 37.9014C6.57439 37.9014 7.06979 38.3997 7.06979 39.0056C7.06979 39.6171 6.57429 40.1098 5.96619 40.1098ZM5.96619 13.0761C5.35629 13.0761 4.86079 12.5778 4.86079 11.9719C4.86079 11.3603 5.35629 10.8676 5.96619 10.8676C6.57439 10.8676 7.06979 11.3603 7.06979 11.9719C7.06979 12.5777 6.57429 13.0761 5.96619 13.0761ZM11.8735 6.86408C11.2647 6.86408 10.7693 6.37138 10.7693 5.75988C10.7693 5.15398 11.2648 4.65568 11.8735 4.65568C12.4828 4.65568 12.9783 5.15398 12.9783 5.75988C12.9783 6.37138 12.4828 6.86408 11.8735 6.86408ZM38.1257 4.65558C38.735 4.65558 39.2305 5.15388 39.2305 5.75978C39.2305 6.37138 38.735 6.86398 38.1257 6.86398C37.5164 6.86398 37.0215 6.37128 37.0215 5.75978C37.0215 5.15388 37.5164 4.65558 38.1257 4.65558ZM44.0342 10.8676C44.6435 10.8676 45.139 11.3603 45.139 11.9719C45.139 12.5778 44.6435 13.0761 44.0342 13.0761C43.4249 13.0761 42.9294 12.5778 42.9294 11.9719C42.9294 11.3603 43.4249 10.8676 44.0342 10.8676ZM25.046 23.5634C26.084 23.5634 26.9277 24.4071 26.9277 25.4434C26.9277 26.4797 26.084 27.3234 25.046 27.3234C24.0086 27.3234 23.1643 26.4797 23.1643 25.4434C23.1643 24.4071 24.0086 23.5634 25.046 23.5634ZM21.8206 25.4434C21.8206 23.6653 23.2674 22.2157 25.0461 22.2157C26.8248 22.2157 28.2721 23.6654 28.2721 25.4434C28.2721 27.2215 26.8247 28.6711 25.0461 28.6711C23.2675 28.6711 21.8206 27.2214 21.8206 25.4434ZM26.9872 17.7421C29.7987 18.4556 32.0361 20.6924 32.7479 23.5011H31.0112C30.3917 21.6098 28.882 20.0978 26.9873 19.4806V17.7421H26.9872ZM26.1639 20.6414C25.8587 20.5735 25.6429 20.3017 25.6429 19.9902V16.921C25.6429 16.5134 26.0121 16.1992 26.4136 16.2585C30.4422 16.8527 33.6396 20.0441 34.2304 24.073C34.29 24.4797 33.9738 24.8488 33.5656 24.8488H30.5009C30.1883 24.8488 29.9171 24.628 29.8463 24.3278C29.425 22.5101 27.9799 21.0661 26.1639 20.6414ZM25.046 33.3825C20.6682 33.3825 17.1058 29.8207 17.1058 25.4434C17.1058 21.8023 19.6348 18.6198 23.1054 17.7421V19.4806C20.5299 20.3179 18.7746 22.7242 18.7746 25.4434C18.7746 28.9033 21.5884 31.712 25.046 31.712C27.7688 31.712 30.1705 29.9593 31.0111 27.3857H32.7478C31.8719 30.8569 28.6906 33.3825 25.046 33.3825ZM33.5656 26.038C33.9811 26.038 34.2899 26.4074 34.2304 26.8081C33.5552 31.3523 29.6469 34.7302 25.0461 34.7302C19.927 34.7302 15.7616 30.5625 15.7616 25.4434C15.7616 20.8479 19.1381 16.9285 23.6797 16.2585C24.0806 16.1993 24.4493 16.5139 24.4493 16.921V19.9902C24.4493 20.3016 24.2336 20.5734 23.93 20.6414C21.6859 21.1624 20.119 23.1387 20.119 25.4434C20.119 28.1615 22.3297 30.3699 25.0461 30.3699C27.3525 30.3699 29.3265 28.8013 29.8464 26.5589C29.9172 26.2531 30.1884 26.0379 30.501 26.0379H33.5656V26.038Z" fill="url(#paint0_linear_3878_4615)"/>
<defs>
<linearGradient id="paint0_linear_3878_4615" x1="4.02859" y1="38.6598" x2="45.884" y2="38.5757" gradientUnits="userSpaceOnUse">
<stop stop-color="#434AE4"/>
<stop offset="0.5" stop-color="#5441B7"/>
<stop offset="1" stop-color="#E86343"/>
</linearGradient>
</defs>
</svg>
