<svg width="50" height="50" viewBox="0 0 50 50" fill="none" xmlns="http://www.w3.org/2000/svg">
<path d="M15.8977 26.2954H11.6211C11.1891 26.2954 10.8398 26.6454 10.8398 27.0767V34.922C10.8398 35.3532 11.1891 35.7032 11.6211 35.7032H15.8977C16.3297 35.7032 16.6789 35.3532 16.6789 34.922V27.0767C16.6789 26.6454 16.3297 26.2954 15.8977 26.2954ZM15.1164 34.1407H12.4023V27.8579H15.1164V34.1407Z" fill="url(#paint0_linear_3878_5901)"/>
<path d="M27.1396 19.4749H22.8638C22.4317 19.4749 22.0825 19.8249 22.0825 20.2561V34.9233C22.0825 35.3545 22.4317 35.7045 22.8638 35.7045H27.1396C27.5716 35.7045 27.9208 35.3545 27.9208 34.9233V20.2561C27.9208 19.8249 27.5716 19.4749 27.1396 19.4749ZM26.3583 34.142H23.645V21.0374H26.3583V34.142Z" fill="url(#paint1_linear_3878_5901)"/>
<path d="M34.1006 35.7034H38.3772C38.8092 35.7034 39.1584 35.3534 39.1584 34.9221V22.4182C39.1584 21.987 38.8092 21.637 38.3772 21.637H34.1006C33.6686 21.637 33.3193 21.987 33.3193 22.4182V34.9221C33.3193 35.3534 33.6686 35.7034 34.1006 35.7034ZM34.8818 23.1995H37.5959V34.1409H34.8818V23.1995Z" fill="url(#paint2_linear_3878_5901)"/>
<path d="M3.72949 12.6944V39.0882C3.72949 40.2397 4.66621 41.1765 5.81777 41.1765H13.6209L12.5256 44.6132C12.2389 45.5155 12.3936 46.471 12.9529 47.2351C13.5115 47.9999 14.3748 48.4382 15.3217 48.4382H34.6756C35.6225 48.4382 36.4857 47.9999 37.0443 47.2351C37.6037 46.4702 37.7584 45.5147 37.4717 44.6132L36.3764 41.1765H44.1795C45.3311 41.1765 46.2678 40.2397 46.2678 39.0882V12.6944C46.2678 11.5429 45.3311 10.6062 44.1795 10.6062H32.2967C32.4076 10.0952 32.4701 9.571 32.4701 9.03506C32.4701 4.91553 29.1186 1.56396 24.999 1.56396C23.5201 1.56396 22.0881 1.99756 20.8553 2.81943C18.7717 4.21396 17.5271 6.53818 17.5271 9.03584C17.5271 9.57256 17.5896 10.0968 17.6998 10.6069H5.81777C4.66621 10.6069 3.72949 11.5437 3.72949 12.6952V12.6944ZM35.9826 45.0882C36.117 45.5101 36.0443 45.9562 35.7834 46.314C35.5225 46.6718 35.1178 46.8765 34.6756 46.8765H15.3217C14.8795 46.8765 14.4748 46.6718 14.2139 46.314C13.9529 45.9562 13.8803 45.5101 14.0146 45.0882L15.2607 41.1765H34.7365L35.9826 45.0882ZM44.7053 12.6944V39.0882C44.7053 39.378 44.4693 39.614 44.1795 39.614H35.3186C35.3146 39.614 35.3107 39.6124 35.3068 39.6124H14.6904C14.6865 39.6124 14.6826 39.614 14.6787 39.614H5.81777C5.52793 39.614 5.29199 39.378 5.29199 39.0882V12.6944C5.29199 12.4046 5.52793 12.1687 5.81777 12.1687H18.2201C18.2693 12.2757 18.3357 12.3733 18.3904 12.4772C18.4592 12.6093 18.5279 12.739 18.6045 12.8663C18.7209 13.0608 18.8498 13.2452 18.9842 13.4288C19.0678 13.5429 19.1467 13.6593 19.2365 13.7687C19.3936 13.9593 19.5646 14.1366 19.7396 14.3108C19.8248 14.396 19.9029 14.4882 19.9928 14.5694C20.2646 14.8163 20.5514 15.0476 20.8576 15.2522C22.0881 16.0726 23.5209 16.5062 24.9998 16.5062C25.3467 16.5062 25.6889 16.478 26.0264 16.4312C26.0506 16.428 26.0756 16.4265 26.1006 16.4226C26.4225 16.3741 26.7381 16.3015 27.0482 16.2124C27.085 16.2022 27.1217 16.1929 27.1584 16.1819C27.4592 16.0905 27.7521 15.978 28.0373 15.8507C28.0771 15.8327 28.1178 15.8155 28.1568 15.7976C28.4373 15.6663 28.7084 15.5171 28.9701 15.3522C29.0076 15.3288 29.0451 15.3046 29.0818 15.2804C29.342 15.1101 29.5912 14.9249 29.8279 14.7241C29.8592 14.6976 29.8889 14.671 29.9193 14.6444C30.1568 14.4366 30.3826 14.2155 30.5928 13.978C30.6146 13.953 30.6357 13.9272 30.6576 13.9022C30.8701 13.6562 31.0686 13.3976 31.2482 13.1241C31.26 13.1054 31.2709 13.0866 31.2826 13.0679C31.4662 12.7827 31.6326 12.4858 31.7764 12.1741C31.7764 12.1726 31.7779 12.171 31.7787 12.1694H44.1803C44.4701 12.1694 44.7061 12.4054 44.7061 12.6952L44.7053 12.6944ZM30.8561 8.25381H25.7795V3.17725C28.4139 3.52646 30.5061 5.61865 30.8561 8.25381ZM21.7232 4.11865C22.4779 3.61553 23.3287 3.296 24.217 3.17803V9.03584C24.217 9.46709 24.5662 9.81709 24.9982 9.81709H30.8561C30.7975 10.2624 30.6865 10.696 30.5256 11.1155C29.6701 13.4062 27.449 14.9452 24.9982 14.9452C23.8287 14.9452 22.6967 14.6022 21.724 13.9538C20.6998 13.2694 19.8998 12.2608 19.4686 11.1077C19.217 10.4554 19.0896 9.75771 19.0896 9.03584C19.0896 7.06084 20.0748 5.22178 21.7232 4.11865Z" fill="url(#paint3_linear_3878_5901)"/>
<defs>
<linearGradient id="paint0_linear_3878_5901" x1="10.9094" y1="33.7923" x2="16.5975" y2="33.785" gradientUnits="userSpaceOnUse">
<stop stop-color="#434AE4"/>
<stop offset="0.5" stop-color="#5441B7"/>
<stop offset="1" stop-color="#E86343"/>
</linearGradient>
<linearGradient id="paint1_linear_3878_5901" x1="22.152" y1="32.4079" x2="27.8394" y2="32.4037" gradientUnits="userSpaceOnUse">
<stop stop-color="#434AE4"/>
<stop offset="0.5" stop-color="#5441B7"/>
<stop offset="1" stop-color="#E86343"/>
</linearGradient>
<linearGradient id="paint2_linear_3878_5901" x1="33.3888" y1="32.8461" x2="39.077" y2="32.8412" gradientUnits="userSpaceOnUse">
<stop stop-color="#434AE4"/>
<stop offset="0.5" stop-color="#5441B7"/>
<stop offset="1" stop-color="#E86343"/>
</linearGradient>
<linearGradient id="paint3_linear_3878_5901" x1="4.2359" y1="38.9169" x2="45.6748" y2="38.839" gradientUnits="userSpaceOnUse">
<stop stop-color="#434AE4"/>
<stop offset="0.5" stop-color="#5441B7"/>
<stop offset="1" stop-color="#E86343"/>
</linearGradient>
</defs>
</svg>
