<svg width="91" height="134" viewBox="0 0 91 134" fill="none" xmlns="http://www.w3.org/2000/svg">
<path d="M45.3911 134H44.4258C33.3523 133.744 22.7492 129.468 14.5921 121.968C6.43499 114.468 1.28032 104.255 0.0884788 93.2333V92.8976C-0.0669474 87.0844 0.0148559 82.1717 0.0884788 77.4229C0.162102 72.674 0.219364 67.9579 0.0639379 62.3165C0.0486966 61.7509 0.144962 61.1878 0.347232 60.6595C0.549503 60.1311 0.853814 59.6478 1.24277 59.2372C1.63174 58.8266 2.09772 58.4967 2.6141 58.2665C3.13049 58.0362 3.68714 57.91 4.25227 57.8952H4.36679C5.48841 57.8948 6.56585 58.3328 7.36958 59.1158C8.17331 59.8988 8.63979 60.9651 8.66964 62.0873C8.83325 67.9006 8.75144 72.8132 8.66964 77.5621C8.59602 82.1717 8.5224 86.937 8.66964 92.4883C9.31927 98.3675 11.3693 104.005 14.6473 108.926C17.9254 113.848 22.3358 117.91 27.5079 120.772C32.6801 123.634 38.4629 125.211 44.3704 125.371C50.278 125.532 56.1377 124.27 61.4573 121.694C74.0959 115.545 81.9081 102.445 81.9081 88.378V42.4614C81.8915 41.3194 82.3162 40.2151 83.0935 39.3791C83.8709 38.543 84.9409 38.0398 86.0801 37.9745C86.6564 37.957 87.2305 38.0554 87.7682 38.2638C88.3059 38.4723 88.7963 38.7866 89.2105 39.1882C89.6246 39.5898 89.9541 40.0704 90.1794 40.6017C90.4047 41.133 90.5212 41.7041 90.522 42.2812L90.4729 91.2519C90.4947 94.7862 89.993 98.3042 88.9841 101.691C86.1218 111.033 80.3442 119.21 72.4989 125.025C64.6535 130.839 55.1532 133.985 45.3911 134Z" fill="#21ABE1"/>
<path d="M45.2343 59.6966C44.6689 59.6977 44.1089 59.587 43.5864 59.3709C43.0638 59.1549 42.589 58.8377 42.1893 58.4376C41.7895 58.0374 41.4726 57.5622 41.2567 57.0392C41.0409 56.5162 40.9303 55.9557 40.9314 55.3898V4.30673C40.9314 3.16452 41.3847 2.06908 42.1917 1.26141C42.9986 0.453744 44.0931 0 45.2343 0C46.3754 0 47.4699 0.453744 48.2768 1.26141C49.0838 2.06908 49.5371 3.16452 49.5371 4.30673V55.3898C49.5371 56.5321 49.0838 57.6275 48.2768 58.4352C47.4699 59.2428 46.3754 59.6966 45.2343 59.6966Z" fill="#21ABE1"/>
<path d="M23.6964 61.6945C22.5545 61.6924 21.46 61.2368 20.6533 60.4278C19.8466 59.6189 19.3936 58.5226 19.3936 57.3796V14.9673C19.3936 14.4017 19.5049 13.8417 19.7211 13.3192C19.9373 12.7967 20.2543 12.3219 20.6538 11.922C21.0534 11.522 21.5277 11.2048 22.0498 10.9884C22.5718 10.772 23.1313 10.6606 23.6964 10.6606C24.2615 10.6606 24.821 10.772 25.343 10.9884C25.8651 11.2048 26.3394 11.522 26.739 11.922C27.1385 12.3219 27.4555 12.7967 27.6717 13.3192C27.888 13.8417 27.9993 14.4017 27.9993 14.9673V57.3796C28.0003 57.9459 27.8898 58.5068 27.6741 59.0302C27.4583 59.5537 27.1415 60.0294 26.7419 60.4302C26.3422 60.831 25.8675 61.149 25.3449 61.3659C24.8224 61.5829 24.2622 61.6945 23.6964 61.6945Z" fill="#21ABE1"/>
<path d="M65.3465 60.6381C64.206 60.636 63.1128 60.1815 62.3063 59.3743C61.4998 58.5671 61.0458 57.4729 61.0436 56.3314V15.7941C61.0183 15.2121 61.1109 14.6311 61.3159 14.086C61.521 13.5409 61.8341 13.0429 62.2366 12.6222C62.639 12.2015 63.1224 11.8666 63.6575 11.6379C64.1927 11.4091 64.7686 11.2912 65.3506 11.2912C65.9325 11.2912 66.5084 11.4091 67.0436 11.6379C67.5788 11.8666 68.0622 12.2015 68.4646 12.6222C68.867 13.0429 69.1802 13.5409 69.3852 14.086C69.5902 14.6311 69.6829 15.2121 69.6575 15.7941V56.3314C69.6554 57.4744 69.2002 58.5698 68.392 59.3772C67.5837 60.1846 66.4884 60.6381 65.3465 60.6381Z" fill="#21ABE1"/>
<path d="M45.2255 62.3329C39.4162 62.3329 33.7373 64.0575 28.9073 67.2884C24.0774 70.5193 20.3133 75.1115 18.0913 80.4839C15.8693 85.8564 15.2891 91.7678 16.4243 97.4703C17.5594 103.173 20.3588 108.41 24.4684 112.52C28.5779 116.63 33.813 119.427 39.5113 120.559C45.2096 121.69 51.1152 121.105 56.481 118.876C61.8467 116.648 66.4316 112.876 69.6556 108.039C72.8795 103.202 74.5978 97.5168 74.5929 91.7022C74.5864 83.9085 71.4903 76.4358 65.9842 70.9248C60.4782 65.4138 53.0123 62.3149 45.2255 62.3083V62.3329ZM45.2255 114.865C40.6544 114.865 36.1858 113.509 32.3846 110.967C28.5835 108.426 25.6204 104.814 23.87 100.587C22.1196 96.3606 21.6603 91.7095 22.5503 87.2217C23.4404 82.734 25.6397 78.611 28.8703 75.3741C32.1009 72.1372 36.2177 69.9315 40.7005 69.0359C45.1832 68.1403 49.8307 68.5951 54.0553 70.3426C58.2799 72.0901 61.892 75.052 64.4352 78.8539C66.9783 82.6557 68.3383 87.1269 68.3431 91.7022C68.3345 97.8363 65.8961 103.717 61.5626 108.054C57.2291 112.391 51.354 114.832 45.2255 114.841V114.865Z" fill="#21ABE1"/>
<path d="M60.5059 90.818H47.3356V74.9338C47.2359 74.3645 46.9389 73.8486 46.4968 73.4769C46.0546 73.1051 45.4957 72.9013 44.9183 72.9013C44.3408 72.9013 43.7819 73.1051 43.3398 73.4769C42.8976 73.8486 42.6006 74.3645 42.501 74.9338V93.2415C42.501 93.893 42.7595 94.5178 43.2198 94.9784C43.68 95.439 44.3042 95.6978 44.9551 95.6978H60.5059C60.8586 95.7597 61.2206 95.7435 61.5665 95.6505C61.9123 95.5574 62.2336 95.3897 62.5079 95.1591C62.7821 94.9286 63.0025 94.6407 63.1538 94.3158C63.3051 93.9909 63.3834 93.6368 63.3834 93.2784C63.3834 92.9199 63.3051 92.5658 63.1538 92.2409C63.0025 91.916 62.7821 91.6282 62.5079 91.3976C62.2336 91.167 61.9123 90.9993 61.5665 90.9063C61.2206 90.8132 60.8586 90.7971 60.5059 90.8589V90.818Z" fill="#21ABE1"/>
</svg>
